<svg width="264" height="53" viewBox="0 0 264 53" fill="none" xmlns="http://www.w3.org/2000/svg">
<path d="M38.2737 35.4972C36.2605 35.4972 33.9712 33.7098 30.7046 30.7262C31.4125 29.6434 32.0651 28.5057 32.6659 27.3645C36.043 20.8611 36.4781 15.657 39.3096 15.0073V14.3577H27.8213V15.0073C31.3054 16.3066 32.2861 18.5856 32.2861 21.3492C32.2861 23.5181 31.6887 25.5771 30.8151 27.3645C30.4352 28.1241 29.9967 28.8838 29.5098 29.64C24.4994 25.089 20.525 21.1326 17.6969 17.6094C23.2494 16.0901 27.4414 12.0822 27.4414 7.58272C27.4414 3.08327 22.8661 0 17.2584 0C10.8875 0 5.60776 3.7398 5.60776 10.3532C5.60776 13.5499 6.80598 16.9666 8.81911 20.3799C2.83151 22.0023 0 26.1752 0 30.2415C0 35.4456 4.57185 40.7563 13.3944 40.7563C17.804 40.7563 21.3986 39.457 24.3924 37.3946C26.8406 39.3985 29.0195 40.7563 32.0685 40.7563C35.6632 40.7563 37.7868 39.0754 40.5078 35.5522L40.1798 34.7925C39.4719 35.3356 38.8745 35.4972 38.2737 35.4972ZM16.661 1.4093C19.5996 1.4093 21.2328 3.7948 21.2328 7.69615C21.2328 11.8141 19.4373 14.4711 16.8233 16.4751C14.047 12.7353 12.576 9.42856 12.576 6.39341C12.576 3.35826 13.9918 1.40586 16.661 1.40586V1.4093ZM18.0215 37.0715C12.2514 37.0715 8.32877 32.3039 8.32877 26.3402C8.32877 24.3878 8.76386 22.8719 9.47173 21.4626C12.6831 26.5567 17.5277 31.5958 22.7004 35.9853C21.2294 36.6899 19.6513 37.068 18.0181 37.068L18.0215 37.0715Z" fill="#D7D7D7"/>
<path d="M57.4036 11.7041C58.5846 10.8001 60.0072 10.3498 61.6785 10.3498C63.3498 10.3498 64.8001 10.776 65.9258 11.625C67.0515 12.474 67.8318 13.7493 68.2669 15.4473H78.6675C78.1599 12.5221 77.1068 10.092 75.5114 8.15675C73.9127 6.22498 71.9444 4.76068 69.6033 3.7673C67.2621 2.77392 64.7103 2.2755 61.9547 2.2755C58.1806 2.2755 54.9209 3.06265 52.1826 4.6335C49.4409 6.20436 47.3276 8.44549 45.8393 11.3535C44.3511 14.2614 43.6087 17.7228 43.6087 21.7342C43.6087 25.7455 44.3511 29.1863 45.8393 32.0599C47.3276 34.9335 49.434 37.154 52.155 38.7248C54.876 40.2957 58.1253 41.0828 61.8995 41.0828C64.6585 41.0828 67.1792 40.5947 69.4686 39.6185C71.7545 38.6423 73.7055 37.1987 75.3215 35.2841C76.9376 33.3695 78.0356 31.0218 78.6157 28.2376H68.1633C67.7283 29.7912 66.9375 30.9737 65.7945 31.7883C64.6516 32.5995 63.2807 33.0086 61.6854 33.0086C59.9796 33.0086 58.5466 32.5651 57.3829 31.6818C56.2192 30.7949 55.3318 29.5128 54.7137 27.832C54.0956 26.1511 53.7883 24.1197 53.7883 21.7342C53.7883 19.3487 54.0956 17.3069 54.7137 15.6089C55.3318 13.9108 56.2296 12.6115 57.4071 11.7075L57.4036 11.7041Z" fill="#D7D7D7"/>
<path d="M103.927 11.7316C101.713 10.4494 99.0993 9.80667 96.0848 9.80667C93.0702 9.80667 90.5115 10.4219 88.2981 11.6491C86.0847 12.8796 84.3582 14.6567 83.1254 16.9872C81.8892 19.3177 81.2746 22.1466 81.2746 25.4705C81.2746 28.7944 81.8823 31.4583 83.0978 33.7888C84.3133 36.1193 86.0191 37.917 88.2152 39.182C90.4114 40.4469 93.0357 41.0794 96.0813 41.0794C99.1269 41.0794 101.651 40.4641 103.868 39.237C106.081 38.0099 107.798 36.2396 109.013 33.9263C110.228 31.613 110.836 28.7978 110.836 25.4705C110.836 22.1432 110.239 19.4827 109.041 17.1522C107.842 14.8217 106.137 13.0137 103.923 11.7316H103.927ZM99.8451 31.4343C98.975 32.8092 97.7215 33.4932 96.0882 33.4932C94.4549 33.4932 93.1497 32.8058 92.276 31.4343C91.4059 30.0628 90.9708 28.0726 90.9708 25.474C90.9708 22.8753 91.4059 20.8301 92.276 19.4587C93.1462 18.0872 94.4169 17.3997 96.0882 17.3997C97.7595 17.3997 98.975 18.0872 99.8451 19.4587C100.715 20.8336 101.15 22.8375 101.15 25.474C101.15 28.1104 100.715 30.0628 99.8451 31.4343Z" fill="#D7D7D7"/>
<path d="M137.411 10.9719C135.923 10.1951 134.272 9.80667 132.456 9.80667C130.532 9.80667 128.799 10.2845 127.256 11.2435C125.981 12.034 124.925 13.1856 124.072 14.6911V10.7829H114.652V40.1032H124.072V23.4116C124.072 22.5076 124.189 21.686 124.424 20.947C124.659 20.208 124.987 19.5755 125.405 19.0496C125.822 18.5271 126.33 18.1181 126.931 17.8294C127.528 17.5406 128.174 17.3963 128.865 17.3963C129.773 17.3963 130.515 17.5784 131.095 17.9394C131.675 18.3003 132.11 18.8537 132.401 19.5927C132.691 20.3352 132.836 21.3011 132.836 22.4938V40.1101H142.311V20.5998C142.311 18.1422 141.865 16.121 140.978 14.5295C140.087 12.9415 138.899 11.7556 137.411 10.9788V10.9719Z" fill="#D7D7D7"/>
<path d="M170.025 10.9719C168.537 10.1951 166.886 9.80667 165.07 9.80667C163.147 9.80667 161.413 10.2845 159.87 11.2435C158.595 12.034 157.539 13.1856 156.686 14.6911V10.7829H147.266V40.1032H156.686V23.4116C156.686 22.5076 156.803 21.686 157.038 20.947C157.273 20.208 157.601 19.5755 158.019 19.0496C158.437 18.5271 158.944 18.1181 159.545 17.8294C160.142 17.5406 160.788 17.3963 161.479 17.3963C162.387 17.3963 163.129 17.5784 163.709 17.9394C164.29 18.3003 164.725 18.8537 165.015 19.5927C165.305 20.3352 165.45 21.3011 165.45 22.4938V40.1101H174.925V20.5998C174.925 18.1422 174.48 16.121 173.592 14.5295C172.701 12.9415 171.513 11.7556 170.025 10.9788V10.9719Z" fill="#D7D7D7"/>
<path d="M196.676 32.8951C195.93 33.4004 194.96 33.6548 193.761 33.6548C191.983 33.6548 190.629 32.9604 189.704 31.5683C189.02 30.5371 188.589 29.1553 188.413 27.4229H208.136V25.364C208.136 22.1501 207.529 19.383 206.313 17.0732C205.098 14.7598 203.399 12.9724 201.223 11.7075C199.045 10.4426 196.451 9.8101 193.437 9.8101C190.422 9.8101 187.919 10.4254 185.705 11.6525C183.492 12.8831 181.765 14.6602 180.533 16.9907C179.297 19.3212 178.682 22.1501 178.682 25.474C178.682 28.7978 179.3 31.4618 180.533 33.7923C181.765 36.1228 183.509 37.9205 185.761 39.1854C188.012 40.4504 190.678 41.0828 193.765 41.0828C197.467 41.0828 200.633 40.1513 203.264 38.2917C205.895 36.4321 207.594 33.8198 208.354 30.4615H198.444C198.009 31.5821 197.418 32.3933 196.676 32.8986V32.8951ZM193.437 17.2347C195.143 17.2347 196.431 17.9325 197.304 19.3212C197.791 20.1014 198.14 21.0914 198.354 22.2738H188.585C188.799 21.1086 189.145 20.1255 189.625 19.3487C190.495 17.9394 191.766 17.2347 193.437 17.2347Z" fill="#D7D7D7"/>
<path d="M230.623 10.0507C230.077 9.88916 229.497 9.80667 228.882 9.80667C227.284 9.80667 225.761 10.3326 224.307 11.3775C223.213 12.1681 222.27 13.3024 221.476 14.7873V10.7794H212.056V40.0997H221.476V25.3571C221.476 24.2743 221.621 23.2981 221.911 22.4319C222.201 21.5657 222.625 20.8233 223.192 20.2114C223.755 19.5961 224.473 19.1355 225.343 18.8296C226.213 18.5237 227.249 18.369 228.447 18.369C229.138 18.369 229.746 18.3965 230.271 18.4515C230.795 18.5065 231.313 18.5856 231.821 18.6956V10.7829C231.565 10.4563 231.168 10.2123 230.623 10.0507Z" fill="#D7D7D7"/>
<path d="M254.418 10.7829L249.791 25.199L248.613 29.805L247.557 25.199L242.657 10.7829H232.639L243.8 38.6389L243.365 39.9382C242.964 41.0209 242.529 41.9078 242.059 42.5952C241.586 43.2827 241.096 43.7949 240.588 44.1386C240.081 44.4823 239.525 44.7092 238.927 44.8157C238.33 44.9223 237.684 44.9773 236.994 44.9773H235.198V52.1304C235.633 52.3091 236.269 52.5016 237.104 52.701C237.94 52.9003 238.81 53 239.718 53C241.134 53 242.422 52.8109 243.586 52.4294C244.746 52.0513 245.809 51.4257 246.769 50.5595C247.729 49.6933 248.637 48.5555 249.49 47.1462C250.343 45.7369 251.151 44.0011 251.914 41.9421L264 10.7794H254.418V10.7829Z" fill="#D7D7D7"/>
</svg>
