<svg width="177" height="54" viewBox="0 0 177 54" fill="none" xmlns="http://www.w3.org/2000/svg">
<path d="M0 29.7C0 25.3 1.66 22.24 4.99 20.53C8.32 18.82 13.17 17.96 19.54 17.96H23.82V15.99C23.82 12.97 23.01 10.36 21.39 8.13C19.77 5.91 17.28 4.8 13.93 4.8C11.69 4.8 9.67 5.2 7.85 5.99C6.03 6.79 5.07 7.18 4.96 7.18C4.29 7.18 3.76 6.88 3.37 6.27C2.98 5.67 2.78 5 2.78 4.29C2.78 3.23 3.98 2.25 6.39 1.36C8.79 0.47 11.37 0.02 14.1 0.02C19.35 0.02 23.2 1.54 25.63 4.59C28.06 7.64 29.28 11.51 29.28 16.2V38C29.28 38.62 29.03 39.13 28.53 39.55C28.03 39.97 27.38 40.18 26.6 40.18C25.87 40.18 25.27 39.97 24.8 39.55C24.32 39.13 24.09 38.61 24.09 38V34.31C20.34 38.62 16.12 40.77 11.43 40.77C8.08 40.77 5.34 39.83 3.21 37.96C1.09 36.09 0.02 33.33 0.02 29.7H0ZM5.45 29.19C5.45 31.54 6.12 33.29 7.46 34.43C8.8 35.58 10.56 36.15 12.74 36.15C15.37 36.15 17.87 35.17 20.24 33.22C22.62 31.26 23.8 29.31 23.8 27.35V21.98H20.28C18.04 21.98 16.16 22.06 14.62 22.23C13.08 22.4 11.56 22.71 10.05 23.15C8.54 23.6 7.39 24.32 6.61 25.33C5.83 26.34 5.44 27.62 5.44 29.19H5.45Z" fill="#D7D7D7"/>
<path d="M39.75 24.83V15.86C39.75 11.16 41.12 7.35 43.86 4.41C46.6 1.47 50.62 0.01 55.94 0.01C59.29 0.01 62.1 0.61 64.37 1.81C66.63 3.01 67.77 4.23 67.77 5.46C67.77 6.08 67.52 6.68 67.02 7.26C66.52 7.84 65.96 8.14 65.34 8.14C65 8.14 64.49 7.9 63.79 7.41C63.09 6.92 62.1 6.42 60.81 5.9C59.52 5.38 57.99 5.12 56.2 5.12C52.62 5.12 49.9 6.07 48.02 7.95C46.15 9.84 45.21 12.48 45.21 15.87V24.79C45.21 28.24 46.14 30.91 48.02 32.8C49.89 34.69 52.64 35.63 56.28 35.63C58.18 35.63 59.79 35.37 61.1 34.85C62.41 34.33 63.42 33.82 64.12 33.3C64.82 32.78 65.36 32.52 65.75 32.52C66.48 32.52 67.08 32.8 67.55 33.36C68.02 33.92 68.26 34.53 68.26 35.2C68.26 36.49 67.09 37.73 64.74 38.93C62.39 40.13 59.48 40.73 56.02 40.73C50.65 40.73 46.6 39.28 43.86 36.37C41.12 33.46 39.75 29.61 39.75 24.8V24.83Z" fill="#D7D7D7"/>
<path d="M76.89 25V2.61C76.89 2.11 77.15 1.63 77.69 1.18C78.22 0.73 78.88 0.51 79.66 0.51C80.33 0.51 80.95 0.73 81.5 1.18C82.06 1.63 82.34 2.1 82.34 2.6V24.94C82.34 27.73 83.37 30.21 85.44 32.38C87.51 34.56 89.97 35.64 92.82 35.64C95.67 35.64 98.13 34.55 100.2 32.38C102.27 30.21 103.3 27.72 103.3 24.94V2.52C103.3 1.96 103.58 1.49 104.14 1.1C104.7 0.71 105.34 0.51 106.07 0.51C106.8 0.51 107.42 0.71 107.96 1.1C108.49 1.49 108.76 1.97 108.76 2.53V25C108.76 29.19 107.18 32.87 104.02 36.03C100.86 39.19 97.13 40.77 92.83 40.77C88.53 40.77 84.72 39.19 81.59 36.03C78.46 32.87 76.89 29.2 76.89 25Z" fill="#D7D7D7"/>
<path d="M120.58 38V2.53C120.58 1.97 120.83 1.5 121.33 1.1C121.83 0.71 122.47 0.51 123.26 0.51C123.99 0.51 124.6 0.71 125.1 1.1C125.6 1.5 125.85 1.98 125.85 2.54V6.7C126.86 4.83 128.34 3.25 130.29 1.95C132.24 0.65 134.51 0 137.08 0H140.01C140.57 0 141.07 0.26 141.52 0.77C141.97 1.28 142.19 1.88 142.19 2.56C142.19 3.24 141.97 3.84 141.52 4.35C141.07 4.86 140.57 5.12 140.01 5.12H137.08C134.17 5.12 131.6 6.25 129.37 8.51C127.13 10.77 126.02 13.71 126.02 17.34V38C126.02 38.56 125.75 39.06 125.22 39.5C124.69 39.95 124.03 40.17 123.25 40.17C122.52 40.17 121.89 39.95 121.36 39.5C120.83 39.05 120.56 38.55 120.56 37.99L120.58 38Z" fill="#D7D7D7"/>
<path d="M147.25 29.7C147.25 25.3 148.91 22.24 152.24 20.53C155.57 18.82 160.42 17.96 166.79 17.96H171.07V15.99C171.07 12.97 170.26 10.36 168.64 8.13C167.02 5.91 164.53 4.8 161.18 4.8C158.94 4.8 156.92 5.2 155.1 5.99C153.28 6.79 152.32 7.18 152.21 7.18C151.54 7.18 151.01 6.88 150.62 6.27C150.23 5.67 150.03 5 150.03 4.29C150.03 3.23 151.23 2.25 153.64 1.36C156.04 0.47 158.61 0.02 161.35 0.02C166.6 0.02 170.45 1.54 172.88 4.59C175.31 7.64 176.53 11.51 176.53 16.2V38C176.53 38.62 176.28 39.13 175.78 39.55C175.28 39.97 174.63 40.18 173.85 40.18C173.12 40.18 172.52 39.97 172.05 39.55C171.57 39.13 171.34 38.61 171.34 38V34.31C167.59 38.62 163.37 40.77 158.68 40.77C155.33 40.77 152.59 39.83 150.46 37.96C148.34 36.09 147.27 33.33 147.27 29.7H147.25ZM152.7 29.19C152.7 31.54 153.37 33.29 154.71 34.43C156.05 35.58 157.81 36.15 159.99 36.15C162.62 36.15 165.12 35.17 167.49 33.22C169.87 31.26 171.05 29.31 171.05 27.35V21.98H167.53C165.29 21.98 163.41 22.06 161.87 22.23C160.33 22.4 158.81 22.71 157.3 23.15C155.79 23.6 154.64 24.32 153.86 25.33C153.08 26.34 152.69 27.62 152.69 29.19H152.7Z" fill="#D7D7D7"/>
<path d="M108.78 49.02H76.91V53.48H108.78V49.02Z" fill="#D7D7D7"/>
</svg>
