<svg width="246" height="64" viewBox="0 0 246 64" fill="none" xmlns="http://www.w3.org/2000/svg">
<path d="M16.9203 49.5994C17.784 49.9078 18.6712 50.1767 19.582 50.3902V30.8494H16.9203V49.5994Z" fill="#D7D7D7"/>
<path d="M9.7753 45.6533C10.6233 46.3176 11.5105 46.9265 12.437 47.48V30.8494H9.7753V45.6533Z" fill="#D7D7D7"/>
<path d="M24.0653 51.0229C24.505 51.0466 24.9447 51.094 25.3922 51.094C25.8398 51.094 26.2795 51.0466 26.7192 51.0229V30.8494H24.0575V51.0229H24.0653Z" fill="#D7D7D7"/>
<path d="M2.6303 36.8042C3.37621 38.3304 4.2713 39.7697 5.29201 41.0982V30.8494H2.6303V36.8042Z" fill="#D7D7D7"/>
<path d="M31.2103 50.3902C32.1211 50.1767 33.0005 49.9078 33.872 49.5994V30.8494H31.2103V50.3902Z" fill="#D7D7D7"/>
<path d="M45.4924 41.1061C46.5132 39.7697 47.4004 38.3304 48.1542 36.8121V30.8573H45.4924V41.1061Z" fill="#D7D7D7"/>
<path d="M38.3553 47.48C39.2818 46.9265 40.169 46.3176 41.017 45.6533V30.8494H38.3553V47.48Z" fill="#D7D7D7"/>
<path d="M41.0092 5.36958V30.8494H45.4924V9.92463C44.1891 8.22439 42.6894 6.69813 41.0092 5.36958Z" fill="#D7D7D7"/>
<path d="M33.8642 1.42345V30.8494H38.3475V3.54281C36.9342 2.69665 35.4345 1.98493 33.8642 1.42345Z" fill="#D7D7D7"/>
<path d="M48.1542 30.8494H50.227C50.5882 29.1254 50.7923 27.3382 50.7923 25.5114C50.7923 21.4546 49.8266 17.6271 48.1542 14.2187V30.8494Z" fill="#D7D7D7"/>
<path d="M0 25.5114C0 27.3461 0.196291 29.1254 0.565319 30.8494H2.63815V14.2187C0.965753 17.6271 0 21.4546 0 25.5114Z" fill="#D7D7D7"/>
<path d="M26.727 0V30.8494H31.2103V0.632645C29.7577 0.292598 28.2581 0.0790807 26.727 0Z" fill="#D7D7D7"/>
<path d="M19.582 0.632645V30.8494H24.0653V0C22.5264 0.0790807 21.0346 0.292598 19.582 0.632645Z" fill="#D7D7D7"/>
<path d="M5.29201 9.92463V30.8573H9.7753V5.36958C8.09505 6.69023 6.59538 8.22439 5.29201 9.92463Z" fill="#D7D7D7"/>
<path d="M12.437 3.54281V30.8494H16.9203V1.42345C15.35 1.98493 13.8503 2.69665 12.437 3.54281Z" fill="#D7D7D7"/>
<path d="M82.3402 1.88212L65.8047 49.6627H72.3765L76.7106 36.6223H95.5546L99.8887 49.6627H106.46L89.9249 1.88212H82.3324H82.3402ZM78.4772 31.3001L85.8656 9.18127H86.3367L93.7251 31.3001H78.4772Z" fill="#D7D7D7"/>
<path d="M134.185 15.5394L119.337 30.2088H118.866V1.20203H112.97V49.6627H118.866V37.9271L123.475 33.3562L134.789 49.6627H141.432L127.542 29.3231L141.432 15.5394H134.185Z" fill="#D7D7D7"/>
<path d="M160.676 14.8514C150.783 14.8514 143.669 22.3561 143.669 32.5971C143.669 42.838 150.924 50.3428 160.676 50.3428C170.428 50.3428 177.753 42.838 177.753 32.5971C177.753 22.3561 170.436 14.8514 160.676 14.8514ZM160.676 45.0918C154.034 45.0918 149.629 39.3585 149.629 32.5971C149.629 25.8357 153.963 20.1023 160.676 20.1023C167.389 20.1023 171.857 25.7645 171.857 32.5971C171.857 39.4296 167.319 45.0918 160.676 45.0918Z" fill="#D7D7D7"/>
<path d="M197.069 43.4548H196.59L186.155 15.5394H179.983L192.994 49.6706H195.027L193.268 54.107C191.777 57.8633 189.068 59.1603 186.013 59.1603C184.93 59.1603 183.572 58.9547 182.355 58.6779V63.2487C183.572 63.5888 185.134 64 187.168 64C195.64 64 197.94 57.6498 198.89 54.9927L213.125 15.5394H206.962L197.069 43.4548Z" fill="#D7D7D7"/>
<path d="M245.121 45.0285C243.362 45.0285 242.475 44.2061 242.475 42.2291V27.4173C242.475 19.1612 237.057 14.8593 229.464 14.8593C221.872 14.8593 216.925 19.7069 216.25 26.2548H222.147C222.822 22.5696 224.856 19.7702 229.464 19.7702C234.073 19.7702 236.515 22.6408 236.515 27.2749V29.1887L226.418 30.1456C219.776 30.8257 214.9 34.1708 214.9 40.5921C214.9 47.0135 219.775 50.3507 226.08 50.3507C231.098 50.3507 234.89 48.3737 237.261 45.2974C238.007 48.5714 240.103 49.6627 243.291 49.6627H246V45.0206H245.121V45.0285ZM236.515 36.5669C236.515 43.186 231.365 45.5742 226.889 45.5742C223.639 45.5742 220.859 44.2061 220.859 40.3865C220.859 36.7725 223.905 34.7876 228.31 34.3764L236.507 33.5539V36.559L236.515 36.5669Z" fill="#D7D7D7"/>
</svg>
