<svg width="342" height="78" viewBox="0 0 342 78" fill="none" xmlns="http://www.w3.org/2000/svg">
<path d="M12.9033 60.399L9.95147 67.1856C9.10818 68.8721 8.53414 70.6801 8.25021 72.544C8.25021 73.5103 9.73426 73.9935 12.7024 73.9935H13.2548V76.1268H0V73.9935L0.724451 73.9596C2.70487 73.8684 3.88467 73.6212 4.26384 73.2179C5.40234 71.2992 6.3687 69.2834 7.1516 67.1944L25.17 24.412H27.5769L45.4986 67.4378C46.261 69.3855 47.2568 71.2336 48.4642 72.9419C49.4387 73.6643 50.635 74.0242 51.8466 73.9596L52.6401 73.9935V76.1268H33.6813V73.9935H34.3091C37.5308 73.9935 39.1417 73.5333 39.1417 72.6131C39.0095 70.7308 38.5172 68.8913 37.6916 67.1944L34.8314 60.399H12.9033ZM14.0132 57.6044H33.5847L23.8717 34.3496L14.0132 57.6044Z" fill="#D7D7D7"/>
<path d="M65.6175 21.6524V67.1969C65.6175 70.3249 65.8686 72.1881 66.3708 72.7862C66.873 73.3844 68.5328 73.7755 71.3503 73.9596L72.0032 73.9935V76.1268H52.4304V73.9935L53.0858 73.9596C55.8706 73.7747 57.5221 73.3777 58.0402 72.7687C58.5583 72.1596 58.8174 70.3024 58.8174 67.1969V30.5887C58.8174 27.4823 58.5583 25.6251 58.0402 25.0169C57.5221 24.4086 55.8706 24.0117 53.0858 23.8259L52.4304 23.7908V21.6575L65.6175 21.6524Z" fill="#D7D7D7"/>
<path d="M100.328 74.8568C96.9864 76.2309 93.4128 76.955 89.7993 76.9902C87.3144 77.0825 84.8386 76.6401 82.5396 75.6929C80.2406 74.7456 78.1721 73.3157 76.4742 71.5C73.0691 67.839 71.3662 63.0732 71.3654 57.2028C71.3645 51.3323 73.0043 46.6318 76.2846 43.1014C77.9604 41.3307 79.9974 39.9408 82.2578 39.0261C84.5181 38.1113 86.9487 37.6929 89.385 37.7994C93.0863 37.9344 96.7591 38.5021 100.328 39.491V48.4272H96.0821L96.0482 47.7997C96.0482 42.6471 93.7815 40.0708 89.2481 40.0708C87.658 40.055 86.0923 40.4626 84.7119 41.2517C83.3315 42.0408 82.1861 43.1829 81.3934 44.5608C79.4457 47.5617 78.4718 51.6163 78.4718 56.7247C78.4718 61.9526 79.6227 66.0746 81.9245 69.0905C83.0045 70.5493 84.4239 71.723 86.0599 72.5102C87.6958 73.2974 89.4991 73.6742 91.3135 73.6082C94.4045 73.6702 97.4741 73.0823 100.323 71.8827L100.328 74.8568Z" fill="#D7D7D7"/>
<path d="M115.739 45.6739C117.243 43.2706 119.288 41.251 121.71 39.7758C124.008 38.4532 126.62 37.7735 129.271 37.8081C130.694 37.7376 132.115 37.9866 133.429 38.5366C134.744 39.0867 135.918 39.9239 136.866 40.9868C138.805 43.473 139.774 46.5788 139.593 49.726V67.1969C139.754 70.627 140.018 72.5591 140.387 72.9933C140.755 73.4275 142.412 73.7496 145.357 73.9596L145.979 73.9935V76.1268H126.406V73.9935L127.034 73.9596C129.979 73.7521 131.636 73.43 132.005 72.9933C132.373 72.5566 132.637 70.6245 132.798 67.1969V50.7852C132.798 47.5601 132.38 45.32 131.543 44.0651C131.014 43.3943 130.323 42.8693 129.534 42.5399C128.746 42.2105 127.887 42.0876 127.038 42.1828C125.246 42.2562 123.496 42.7469 121.928 43.6159C119.701 44.8071 117.626 46.2629 115.749 47.9516V67.1969C115.749 70.3249 116 72.1881 116.502 72.7862C117.005 73.3844 118.664 73.7755 121.482 73.9596L122.133 73.9935V76.1268H102.552V73.9935L103.207 73.9596C105.992 73.7747 107.644 73.3777 108.162 72.7687C108.68 72.1596 108.938 70.3024 108.938 67.1969V30.5887C108.938 27.4823 108.679 25.6251 108.162 25.0169C107.644 24.4086 105.993 24.0117 103.206 23.8259L102.551 23.7908V21.6575H115.734L115.739 45.6739Z" fill="#D7D7D7"/>
<path d="M175.886 74.4427C172.133 76.0242 168.117 76.8899 164.045 76.9952C161.541 77.0851 159.047 76.6351 156.733 75.6758C154.419 74.7165 152.338 73.2705 150.633 71.436C147.193 67.729 145.473 62.9185 145.473 57.0045C145.267 51.9886 146.913 47.0722 150.098 43.1905C151.541 41.4537 153.36 40.0666 155.417 39.1335C157.473 38.2004 159.715 37.7455 161.973 37.8031C163.925 37.6924 165.875 38.0432 167.665 38.827C169.456 39.6109 171.036 40.8057 172.278 42.3145C174.683 45.3263 175.886 49.6198 175.886 55.1949V55.8487H152.997C152.997 61.6916 154.016 66.1022 156.053 69.0805C157.049 70.5436 158.408 71.7241 159.995 72.5072C161.583 73.2902 163.347 73.6492 165.115 73.5492C168.872 73.6609 172.59 72.7676 175.886 70.9616V74.4427ZM153.137 53.7367H168.67L168.705 52.2183C168.705 47.8679 168.141 44.7281 167.013 42.7989C166.455 41.8483 165.642 41.0729 164.665 40.5608C163.689 40.0486 162.588 39.8202 161.489 39.9013C160.225 39.9072 158.987 40.2618 157.912 40.9261C156.836 41.5904 155.966 42.5386 155.395 43.6661C153.749 46.7599 152.969 50.2404 153.137 53.7405V53.7367Z" fill="#D7D7D7"/>
<path d="M191.796 45.6388C193.472 43.3086 195.571 41.3141 197.984 39.7595C200.003 38.4904 202.338 37.8114 204.723 37.7994C207.057 37.6742 209.362 38.3675 211.238 39.7595C212.96 41.2719 214.064 43.3647 214.341 45.6388C216.198 43.315 218.439 41.3265 220.968 39.7595C222.994 38.512 225.32 37.8348 227.7 37.7994C234.418 37.7994 237.777 41.4842 237.778 48.8539V67.1969C237.778 70.3249 238.026 72.1822 238.521 72.7687C239.017 73.3551 240.679 73.7521 243.509 73.9596L244.165 73.9935V76.1268H224.591V73.9935L225.248 73.9596C228.078 73.7521 229.741 73.3551 230.236 72.7687C230.732 72.1822 230.979 70.3249 230.978 67.1969V50.0661C230.978 47.0903 230.592 45.0318 229.819 43.8907C229.331 43.2792 228.696 42.8013 227.973 42.5018C227.25 42.2022 226.463 42.0907 225.685 42.1777C223.855 42.2233 222.066 42.7226 220.478 43.6309C218.387 44.8104 216.472 46.2766 214.788 47.9867V67.1969C214.788 70.3015 215.039 72.1588 215.541 72.7687C216.043 73.3786 217.7 73.7755 220.512 73.9596L221.167 73.9935V76.1268H201.601V73.9935L202.256 73.9596C205.087 73.7747 206.75 73.3836 207.245 72.7862C207.739 72.1889 207.987 70.3258 207.987 67.1969V50.0661C207.987 47.138 207.607 45.0912 206.848 43.9258C206.39 43.312 205.78 42.828 205.078 42.5214C204.376 42.2149 203.606 42.0965 202.844 42.1777C200.934 42.2077 199.06 42.7067 197.388 43.6309C195.309 44.7826 193.422 46.2523 191.796 47.9867V67.1969C191.796 70.3249 192.047 72.1881 192.55 72.7862C193.052 73.3844 194.711 73.7755 197.528 73.9596L198.181 73.9935V76.1268H178.607V73.9935L179.263 73.9596C182.047 73.7747 183.698 73.3777 184.217 72.7687C184.735 72.1596 184.994 70.3024 184.994 67.1969V47.599C184.994 44.4935 184.735 42.6416 184.217 42.0435C183.698 41.4453 182.047 41.0429 179.263 40.8362L178.607 40.8011V38.6678H191.79L191.796 45.6388Z" fill="#D7D7D7"/>
<path d="M270.628 76.1331V69.0943C269.126 71.4982 267.088 73.523 264.675 75.0112C262.387 76.3454 259.779 77.0313 257.131 76.9952C255.705 77.066 254.282 76.8142 252.967 76.2586C251.652 75.703 250.479 74.858 249.536 73.7864C247.575 71.3143 246.592 68.2072 246.774 65.0573V47.599C246.774 44.4935 246.515 42.6416 245.997 42.0435C245.479 41.4453 243.827 41.0429 241.043 40.8362L240.387 40.8011V38.6678H253.571V63.9881C253.413 66.2504 253.949 68.507 255.107 70.4571C255.632 71.1753 256.329 71.7494 257.134 72.1263C257.94 72.5032 258.828 72.6706 259.715 72.6131C261.659 72.5983 263.569 72.1007 265.273 71.1649C267.294 70.0349 269.104 68.5637 270.623 66.8166V47.599C270.463 44.1689 270.198 42.2367 269.83 41.8025C269.462 41.3683 267.805 41.0462 264.859 40.8362L264.231 40.8011V38.6678H277.415V67.1969C277.574 70.627 277.838 72.5591 278.204 72.9933C278.571 73.4275 280.219 73.7496 283.149 73.9596L283.8 73.9935V76.1268L270.628 76.1331Z" fill="#D7D7D7"/>
<path d="M284.992 74.2005V64.6783H288.824L288.893 65.3358C289.004 67.292 289.228 69.24 289.566 71.1699C289.716 71.6192 290.32 72.1902 291.378 72.8829C293.443 74.2199 295.857 74.9183 298.317 74.8907C299.248 74.9266 300.176 74.7788 301.05 74.4558C301.924 74.1329 302.725 73.641 303.408 73.0084C304.064 72.3833 304.58 71.6267 304.922 70.7881C305.264 69.9496 305.425 69.0481 305.393 68.1431C305.473 66.6343 305.007 65.147 304.081 63.9529C302.741 62.6608 301.124 61.6901 299.353 61.1143L295.866 59.7666C292.821 58.7545 290.038 57.08 287.719 54.8636C286.828 53.8833 286.147 52.7309 285.719 51.4775C285.291 50.2241 285.124 48.8964 285.23 47.5761C285.335 46.2559 285.709 44.9711 286.33 43.8012C286.951 42.6312 287.805 41.6008 288.84 40.7735C291.483 38.7217 294.766 37.6696 298.11 37.8031C301.992 37.8429 305.836 38.565 309.467 39.9365V48.8727H305.636V48.2515C305.584 46.6805 305.4 45.1167 305.083 43.577C304.926 42.8382 304.539 42.168 303.978 41.662C302.427 40.4715 300.513 39.8511 298.558 39.9051C297.64 39.8767 296.725 40.0328 295.868 40.3641C295.011 40.6954 294.23 41.1952 293.57 41.8339C292.919 42.461 292.406 43.217 292.065 44.0535C291.723 44.8899 291.559 45.7885 291.585 46.6917C291.555 47.4146 291.684 48.1354 291.965 48.8024C292.246 49.4694 292.67 50.0663 293.208 50.5505C295.152 52.0331 297.319 53.1963 299.629 53.9965L302.804 55.3091C305.515 56.2564 307.996 57.7622 310.087 59.7289C311.485 61.3844 312.212 63.5036 312.123 65.6684C312.155 67.2484 311.81 68.8132 311.117 70.2335C310.423 71.6537 309.401 72.8884 308.135 73.8354C305.144 76.0487 301.48 77.1646 297.762 76.9952C293.352 77.0119 288.992 76.0577 284.992 74.2005Z" fill="#D7D7D7"/>
<path d="M341.657 17.313C342.049 15.8568 342.103 14.3306 341.815 12.8505C341.526 11.3704 340.904 9.97568 339.995 8.77261C339.085 7.56954 337.913 6.58992 336.567 5.90846C335.221 5.227 333.738 4.8617 332.229 4.84042C331.353 3.36532 330.107 2.14347 328.615 1.29485C327.124 0.446222 325.436 0 323.72 0C322.003 0 320.316 0.446222 318.824 1.29485C317.332 2.14347 316.087 3.36532 315.21 4.84042C313.496 4.86362 311.817 5.33148 310.338 6.19817C308.859 7.06486 307.631 8.30066 306.774 9.7845C305.916 11.2683 305.459 12.9494 305.447 14.6629C305.435 16.3764 305.869 18.0636 306.705 19.5593C306.304 20.2737 305.992 21.0349 305.776 21.8256C305.095 24.3669 305.452 27.0745 306.768 29.3528C308.084 31.6311 310.252 33.2935 312.795 33.9744C313.587 34.186 314.403 34.2994 315.223 34.312C316.102 35.781 317.347 36.997 318.837 37.8409C320.327 38.6848 322.011 39.1279 323.724 39.1267C325.436 39.1256 327.119 38.6803 328.608 37.8344C330.097 36.9885 331.341 35.7709 332.218 34.3007C333.934 34.2788 335.615 33.8115 337.096 32.9447C338.577 32.0779 339.807 30.8414 340.666 29.3563C341.525 27.8712 341.983 26.1885 341.995 24.4733C342.007 22.758 341.573 21.069 340.736 19.5718C341.134 18.8594 341.444 18.1008 341.657 17.313ZM332.216 24.1045C331.017 22.1128 329.158 20.6032 326.962 19.8378H339.928C339.093 21.1279 337.952 22.1922 336.606 22.9364C335.261 23.6806 333.753 24.0818 332.216 24.1045ZM310.683 22.8496C309.402 22.1115 308.315 21.0791 307.513 19.8378H320.475C318.28 20.6038 316.422 22.1132 315.223 24.1045C313.627 24.0807 312.063 23.6472 310.683 22.8459V22.8496ZM324.619 18.7197C325.869 17.0644 327.637 15.8747 329.642 15.3402C330.054 15.2286 330.474 15.1447 330.897 15.0893L324.619 18.7197ZM331.141 15.6C330.391 16.5812 329.454 17.4041 328.384 18.0214C327.314 18.6387 326.132 19.0381 324.907 19.1966L331.141 15.6ZM323.993 18.3608V11.1313C324.473 12.2751 324.721 13.5031 324.722 14.7437C324.723 15.9842 324.477 17.2125 323.998 18.357L323.993 18.3608ZM323.436 18.3696C322.956 17.2253 322.709 15.9972 322.709 14.7567C322.709 13.5162 322.956 12.2881 323.436 11.1438V18.3696ZM322.508 19.1953C321.286 19.0357 320.107 18.6365 319.04 18.0206C317.973 17.4047 317.038 16.5842 316.289 15.6063L322.508 19.1953ZM316.541 15.1093C316.96 15.1603 317.375 15.2391 317.783 15.3453C319.788 15.8805 321.555 17.0705 322.805 18.726L316.541 15.1093ZM322.811 20.4063C321.562 22.0613 319.794 23.2509 317.789 23.7858C317.382 23.8909 316.969 23.9693 316.551 24.0205L322.811 20.4063ZM316.275 23.5336C317.027 22.5475 317.967 21.7206 319.041 21.101C320.116 20.4814 321.302 20.0815 322.533 19.9244L316.275 23.5336ZM323.432 20.7728V27.9797C322.955 26.8366 322.711 25.6103 322.713 24.3721C322.715 23.1338 322.962 21.9082 323.442 20.7665L323.432 20.7728ZM323.988 20.7815C324.796 22.6902 324.942 24.8141 324.402 26.8151C324.291 27.2178 324.153 27.6127 323.989 27.9973L323.988 20.7815ZM324.877 19.9244C326.112 20.0801 327.303 20.4805 328.381 21.1022C329.459 21.7239 330.402 22.5543 331.155 23.5448L324.877 19.9244ZM330.876 24.0292C330.458 23.9781 330.044 23.8997 329.637 23.7946C327.632 23.2594 325.864 22.0693 324.614 20.4138L330.876 24.0292ZM332.202 15.024C333.739 15.0454 335.246 15.4461 336.591 16.1905C337.935 16.9349 339.075 17.9999 339.908 19.2907H326.951C329.153 18.5264 331.017 17.0143 332.218 15.0177L332.202 15.024ZM331.88 14.4831C329.561 14.5285 327.331 15.3816 325.574 16.8951L332.05 5.68497C332.751 7.0514 333.102 8.57009 333.073 10.1054C333.043 11.6407 332.633 13.1447 331.88 14.4831ZM325.1 16.6165C325.532 14.3382 325.155 11.9807 324.034 9.95041C324.818 8.63144 325.916 7.52692 327.23 6.73553C328.545 5.94413 330.035 5.4905 331.568 5.41517L325.1 16.6165ZM322.329 16.6165L315.856 5.39132C317.391 5.46885 318.884 5.92461 320.201 6.71805C321.518 7.51149 322.618 8.61799 323.404 9.93912C322.281 11.9699 321.902 14.3289 322.333 16.609L322.329 16.6165ZM321.852 16.9026C320.095 15.3881 317.863 14.5342 315.543 14.4882C314.788 13.1492 314.377 11.6437 314.347 10.1068C314.317 8.56994 314.669 7.04969 315.372 5.68246L321.852 16.9026ZM315.224 15.034C316.424 17.0185 318.278 18.5222 320.469 19.2857H307.511C308.348 17.998 309.49 16.9365 310.835 16.1951C312.181 15.4537 313.688 15.0541 315.224 15.034ZM315.531 24.663C317.853 24.625 320.088 23.7707 321.843 22.2498L315.374 33.4498C314.672 32.0865 314.32 30.5707 314.347 29.0379C314.374 27.5052 314.781 26.003 315.531 24.6655V24.663ZM322.334 22.5146C321.901 24.7958 322.278 27.1568 323.402 29.1894C322.614 30.5106 321.513 31.6172 320.195 32.4112C318.878 33.2051 317.385 33.6619 315.848 33.741L322.334 22.5146ZM324.946 26.9607C325.333 25.5141 325.386 23.9985 325.102 22.5284L331.569 33.7272C330.036 33.6517 328.546 33.1979 327.231 32.4063C325.917 31.6147 324.819 30.5099 324.036 29.1907C324.43 28.4845 324.737 27.7332 324.95 26.9532L324.946 26.9607ZM325.587 22.2573C326.717 23.2362 328.054 23.9459 329.499 24.3329C330.282 24.5423 331.089 24.6552 331.9 24.6692C332.648 26.0075 333.053 27.5098 333.08 29.0424C333.106 30.575 332.753 32.0903 332.052 33.4536L325.587 22.2573ZM340.18 10.0709C340.798 11.1342 341.199 12.3096 341.36 13.5291C341.521 14.7485 341.438 15.9877 341.116 17.1749C340.944 17.8121 340.705 18.4296 340.404 19.0171C339.551 17.6835 338.388 16.5752 337.015 15.7866C335.642 14.9979 334.098 14.5521 332.516 14.4869C333.249 13.0871 333.634 11.5315 333.638 9.9516C333.642 8.37168 333.266 6.81394 332.541 5.41015C334.102 5.48624 335.619 5.95193 336.954 6.76474C338.289 7.57755 339.399 8.71159 340.183 10.0634L340.18 10.0709ZM323.718 0.552393C325.283 0.553826 326.823 0.947544 328.197 1.69753C329.571 2.44751 330.734 3.52982 331.581 4.84544C330.002 4.91754 328.463 5.36894 327.095 6.16143C325.727 6.95393 324.57 8.06419 323.722 9.39825C322.874 8.06228 321.717 6.95031 320.348 6.15665C318.979 5.36299 317.438 4.91105 315.857 4.83916C316.705 3.52515 317.868 2.44436 319.241 1.69553C320.615 0.946694 322.154 0.553683 323.718 0.552393ZM306.319 17.1599C305.957 15.8117 305.901 14.3998 306.156 13.0275C306.412 11.6551 306.971 10.3572 307.792 9.22886C308.614 8.10048 309.679 7.1702 310.907 6.50619C312.135 5.84217 313.497 5.46125 314.891 5.39132C314.163 6.79687 313.785 8.35723 313.789 9.94C313.793 11.5228 314.179 13.0812 314.914 14.4831C313.333 14.5495 311.792 14.9945 310.419 15.7807C309.047 16.567 307.883 17.6713 307.027 19.0008C306.727 18.4135 306.49 17.7965 306.319 17.1599ZM312.939 33.4285C311.588 33.0685 310.335 32.4101 309.271 31.5019C308.208 30.5937 307.363 29.4588 306.797 28.1807C306.23 26.9026 305.958 25.5139 306 24.1168C306.042 22.7196 306.396 21.3496 307.038 20.1077C307.891 21.439 309.052 22.5461 310.422 23.336C311.793 24.1259 313.333 24.5753 314.913 24.6467C314.181 26.0494 313.798 27.6077 313.797 29.1896C313.795 30.7716 314.175 32.3306 314.904 33.7347C314.24 33.7023 313.581 33.5996 312.939 33.4285ZM323.718 38.5636C322.157 38.5628 320.621 38.1721 319.25 37.4269C317.879 36.6817 316.716 35.6058 315.867 34.2969C317.446 34.2159 318.983 33.7595 320.349 32.9654C321.716 32.1714 322.874 31.0627 323.726 29.7316C324.574 31.063 325.729 32.1717 327.095 32.9643C328.46 33.757 329.997 34.2105 331.574 34.2869C330.725 35.5982 329.562 36.6764 328.19 37.4234C326.818 38.1704 325.28 38.5623 323.718 38.5636ZM340.187 29.0627C339.403 30.416 338.293 31.5515 336.957 32.3654C335.622 33.1794 334.103 33.6458 332.541 33.7222C333.266 32.3202 333.644 30.7644 333.642 29.186C333.64 27.6076 333.258 26.0528 332.528 24.6529C334.108 24.5804 335.647 24.1316 337.018 23.3437C338.388 22.5559 339.551 21.452 340.408 20.124C341.12 21.5141 341.473 23.0601 341.434 24.6214C341.396 26.1827 340.967 27.7094 340.187 29.0627Z" fill="#D7D7D7"/>
</svg>
