<svg width="302" height="74" viewBox="0 0 302 74" fill="none" xmlns="http://www.w3.org/2000/svg">
<path d="M75.6355 70.9479C76.2183 72.0038 77.5319 72.7544 79.2067 72.7544C80.8814 72.7544 82.3181 71.9048 82.3181 70.684C82.3181 69.6281 81.5054 69.0012 79.7567 68.564L78.164 68.1598C76.0049 67.6237 74.9212 66.5761 74.9212 65.0171C74.9212 63.0621 76.7027 61.6763 79.1574 61.6763C80.1015 61.6763 80.9553 61.8908 81.7352 62.3114C82.5316 62.7321 83.098 63.2766 83.4346 63.9117L82.3345 64.5469C81.8009 63.5818 80.553 62.9136 79.1246 62.9136C77.5483 62.9136 76.2676 63.7302 76.2676 64.9511C76.2676 65.9904 77.0639 66.6173 78.7962 67.0215L80.3888 67.4257C82.5808 67.9619 83.6645 69.026 83.6645 70.618C83.6645 72.606 81.7516 73.9917 79.1738 73.9917C78.123 73.9917 77.1789 73.7608 76.3169 73.3236C75.4713 72.8699 74.872 72.3007 74.5025 71.6161L75.6355 70.9479Z" fill="#D7D7D7"/>
<path d="M89.1321 61.9073H90.4785V68.6218C90.4785 71.3439 91.6443 72.7462 93.9676 72.7462C96.2909 72.7462 97.4403 71.3439 97.4403 68.6218V61.9073H98.7867V68.6218C98.7867 72.0945 97.038 74 93.9676 74C90.8972 74 89.1321 72.1275 89.1321 68.6218V61.9073Z" fill="#D7D7D7"/>
<path d="M112.636 73.769L109.582 69.3559C109.27 69.3889 108.967 69.4054 108.622 69.4054H106.159V73.7773H104.813V61.9073H108.622C111.717 61.9073 113.556 63.4085 113.556 65.6522C113.556 67.2855 112.595 68.5393 110.896 69.0755L114.204 73.769H112.628H112.636ZM108.646 68.1928C110.97 68.1928 112.218 67.2277 112.218 65.6522C112.218 64.0767 110.97 63.1116 108.646 63.1116H106.167V68.2011H108.646V68.1928Z" fill="#D7D7D7"/>
<path d="M127.077 73.769L124.023 69.3559C123.711 69.3889 123.407 69.4054 123.063 69.4054H120.6V73.7773H119.253V61.9073H123.063C126.158 61.9073 127.997 63.4085 127.997 65.6522C127.997 67.2855 127.036 68.5393 125.337 69.0755L128.645 73.769H127.069H127.077ZM123.087 68.1928C125.411 68.1928 126.658 67.2277 126.658 65.6522C126.658 64.0767 125.411 63.1116 123.087 63.1116H120.608V68.2011H123.087V68.1928Z" fill="#D7D7D7"/>
<path d="M141.723 63.1116H135.04V67.203H141.058V68.4238H135.04V72.5482H141.887V73.769H133.694V61.899H141.723V63.1116Z" fill="#D7D7D7"/>
<path d="M147.806 61.9073L151.649 68.2011L155.491 61.9073H156.985L152.314 69.4714V73.7773H150.951V69.4714L146.279 61.9073H147.806Z" fill="#D7D7D7"/>
<path d="M170.498 67.203H177.632V61.9073H178.995V73.7773H177.632V68.4321H170.498V73.7773H169.152V61.9073H170.498V67.203Z" fill="#D7D7D7"/>
<path d="M186.449 73.769H185.103V61.899H186.449V73.769Z" fill="#D7D7D7"/>
<path d="M193.912 72.5482H200.43V73.769H192.565V61.899H193.912V72.5482Z" fill="#D7D7D7"/>
<path d="M207.113 72.5482H213.631V73.769H205.767V61.899H207.113V72.5482Z" fill="#D7D7D7"/>
<path d="M219.477 70.9479C220.06 72.0038 221.373 72.7544 223.048 72.7544C224.723 72.7544 226.159 71.9048 226.159 70.684C226.159 69.6281 225.347 69.0012 223.598 68.564L222.005 68.1598C219.846 67.6237 218.762 66.5761 218.762 65.0171C218.762 63.0621 220.544 61.6763 222.999 61.6763C223.943 61.6763 224.796 61.8908 225.576 62.3114C226.373 62.7321 226.939 63.2766 227.276 63.9117L226.176 64.5469C225.642 63.5818 224.394 62.9136 222.966 62.9136C221.389 62.9136 220.109 63.7302 220.109 64.9511C220.109 65.9904 220.905 66.6173 222.637 67.0215L224.23 67.4257C226.422 67.9619 227.506 69.026 227.506 70.618C227.506 72.606 225.593 73.9917 223.015 73.9917C221.964 73.9917 221.02 73.7608 220.158 73.3236C219.312 72.8699 218.713 72.3007 218.344 71.6161L219.477 70.9479Z" fill="#D7D7D7"/>
<path d="M26.4761 29.11H9.26869L5.7057 38.1095H0L15.1222 0.668153H20.7704L35.8926 38.1177H30.0391L26.4761 29.1183V29.11ZM24.6454 24.4L17.8724 7.26719L11.0994 24.4H24.6454Z" fill="#D7D7D7"/>
<path d="M60.226 15.8047C59.4625 15.549 58.4937 15.45 57.2212 15.45C52.435 15.45 49.028 19.2857 49.028 24.1937V38.1095H43.6835V10.9957H49.028V16.1099C50.399 12.6784 53.4612 10.4842 57.328 10.4842C58.6004 10.4842 59.5692 10.641 60.226 10.8967V15.8047Z" fill="#D7D7D7"/>
<path d="M93.0153 16.3161L88.6888 18.9228C87.0633 16.4646 84.4116 15.0376 81.2016 15.0376C75.8571 15.0376 72.0889 19.1785 72.0889 24.5484C72.0889 29.9184 75.8571 34.0676 81.2016 34.0676C84.4116 34.0676 87.0551 32.6323 88.6888 30.1824L93.0153 32.789C90.5195 36.5257 86.2423 38.8271 81.2016 38.8271C73.0084 38.8271 66.9497 32.69 66.9497 24.5567C66.9497 16.4234 73.0084 10.2863 81.2016 10.2863C86.2423 10.2863 90.5195 12.5877 93.0153 16.3244V16.3161Z" fill="#D7D7D7"/>
<path d="M130.64 38.1095H117.406V0.668153H130.64C142.708 0.668153 150.245 8.29005 150.245 19.3929C150.245 30.4958 142.708 38.1177 130.64 38.1177V38.1095ZM130.64 5.57619H122.898V33.2014H130.64C139.548 33.2014 144.744 27.9304 144.744 19.3929C144.744 10.8554 139.548 5.58444 130.64 5.58444V5.57619Z" fill="#D7D7D7"/>
<path d="M163.167 26.6024C163.979 31.3125 167.649 34.1748 172.534 34.1748C175.949 34.1748 179.003 32.69 180.629 30.2896L184.75 33.0529C182.459 36.4845 177.772 38.8354 172.534 38.8354C164.029 38.8354 157.97 32.6983 157.97 24.5649C157.97 16.4316 163.823 10.2945 171.82 10.2945C179.816 10.2945 185.669 15.8707 185.669 23.7978C185.669 24.6639 185.62 25.5878 185.571 26.6106H163.167V26.6024ZM180.53 22.4037C180.276 17.8999 176.811 14.8808 171.877 14.8808C167.452 14.8808 163.988 17.8504 163.224 22.4037H180.53Z" fill="#D7D7D7"/>
<path d="M220.954 38.1095H215.61V23.3276C215.61 17.7514 213.163 14.9881 208.328 14.9881C203.492 14.9881 200.233 18.8238 200.233 23.7318V38.1095H194.889V10.9957H200.233V15.3923C201.711 12.3732 205.118 10.278 209.395 10.278C216.57 10.278 220.954 14.7819 220.954 22.9647V38.1095Z" fill="#D7D7D7"/>
<path d="M251.092 37.0866C249.614 38.1095 247.119 38.8271 244.68 38.8271C238.211 38.8271 234.952 35.0904 234.952 27.5757V15.7057H228.844V10.9957H234.952V3.57998H240.296V10.9957H250.222V15.7057H240.296V27.4685C240.296 31.8651 241.922 34.0676 245.132 34.0676C246.864 34.0676 248.391 33.6551 249.762 32.8385L251.084 37.0866H251.092Z" fill="#D7D7D7"/>
<path d="M285.761 10.9957V38.1095H280.417V33.7623C278.537 37.0371 275.122 38.8271 270.795 38.8271C263.209 38.8271 257.561 32.5333 257.561 24.5567C257.561 16.5801 263.209 10.2863 270.795 10.2863C275.122 10.2863 278.537 12.0762 280.417 15.351V11.0039H285.761V10.9957ZM271.608 14.9881C266.362 14.9881 262.7 19.2362 262.7 24.5567C262.7 29.8772 266.37 34.1253 271.608 34.1253C276.846 34.1253 280.417 30.4381 280.417 24.5567C280.417 18.6753 276.649 14.9881 271.608 14.9881Z" fill="#D7D7D7"/>
<path d="M302 38.1095H296.656V0H302V38.1095Z" fill="#D7D7D7"/>
</svg>
