<svg width="334" height="82" viewBox="0 0 334 82" fill="none" xmlns="http://www.w3.org/2000/svg">
<path d="M242.034 26.1314H231.9C231.554 26.1314 231.236 26.3153 231.061 26.6151L228.354 31.2762C228.191 31.56 228.394 31.9158 228.72 31.9158H235.522C235.713 31.9198 235.868 32.0837 235.868 32.2755C235.868 34.5301 235.638 36.5568 235.236 37.772C234.198 40.958 231.26 42.6969 227.805 42.6969C223.83 42.6969 221.528 40.7262 220.431 37.5402C219.969 36.0931 219.739 34.0664 219.739 28.5019C219.739 22.9375 219.969 20.9147 220.431 19.4637C221.524 16.2777 223.83 14.3069 227.805 14.3069C231.781 14.3069 233.972 16.0458 235.697 19.1718C235.812 19.4037 236.099 19.5756 236.445 19.4597L241.283 17.317C241.569 17.1451 241.629 16.7973 241.514 16.5055C239.899 12.1043 235.176 8.16282 227.861 8.16282C220.947 8.16282 215.878 11.4048 213.863 17.6608C213.056 20.0953 212.825 22.2939 212.825 28.4939C212.825 34.694 213.056 36.8926 213.863 39.3271C215.878 45.5831 220.947 48.825 227.861 48.825C234.775 48.825 239.788 45.2913 241.688 39.1512C242.321 37.1804 242.611 33.3588 242.611 30.1129V26.6951C242.611 26.3753 242.352 26.1154 242.034 26.1154V26.1314Z" fill="#D7D7D7"/>
<path d="M208.686 47.4459L198.791 31.6519C199.439 31.6279 200.21 31.54 200.834 31.3361C202.055 30.8604 203.156 30.2088 204.114 29.4133C206.607 27.3347 208.11 24.2486 208.11 20.571C208.11 13.6194 202.81 8.81041 195.61 8.81041H180.459C180.141 8.81041 179.882 9.07025 179.882 9.39005V47.6218C179.882 47.9416 180.141 48.2014 180.459 48.2014H186.104C186.422 48.2014 186.681 47.9416 186.681 47.6218V15.2983C186.681 15.1064 186.836 14.9505 187.027 14.9505H195.38C198.95 14.9505 201.371 17.1531 201.371 20.571C201.371 23.9888 198.95 26.1314 195.38 26.1314H189.154C188.788 26.1314 188.557 26.5352 188.748 26.851L200.54 46.7544L201.069 47.6218C201.24 48.0255 201.47 48.2014 201.932 48.2014H208.281C208.682 48.2014 208.913 47.8537 208.682 47.4499L208.686 47.4459Z" fill="#D7D7D7"/>
<path d="M174.65 47.6218L159.773 9.39005C159.654 9.04227 159.416 8.81041 158.998 8.81041H153.504C153.086 8.81041 152.848 9.04227 152.728 9.39005L137.673 47.6218C137.553 47.9696 137.673 48.2014 138.09 48.2014H143.887C144.304 48.2014 144.543 48.0295 144.662 47.6218L156.076 18.6002H156.255L162.167 32.1756H155.937C155.718 32.1756 155.519 32.3115 155.448 32.5154L153.679 37.5922C153.567 37.916 153.814 38.2517 154.168 38.2517H164.302L167.606 47.6258C167.725 48.0295 167.963 48.2054 168.381 48.2054H174.237C174.654 48.2054 174.774 47.9736 174.654 47.6258L174.65 47.6218Z" fill="#D7D7D7"/>
<path d="M315.449 14.9505H333.424C333.769 14.9505 334 14.7187 334 14.3709V9.39005C334 9.04227 333.769 8.81041 333.424 8.81041H308.882C308.536 8.81041 308.305 9.04227 308.305 9.39005V47.6218C308.305 47.9696 308.536 48.2014 308.882 48.2014H333.424C333.769 48.2014 334 47.9696 334 47.6218V42.641C334 42.2932 333.769 42.0613 333.424 42.0613H315.449C315.219 42.0613 315.104 41.9454 315.104 41.7135V32.2196H324.641C325.114 32.2196 325.496 31.9597 325.496 31.6399V26.6591C325.496 26.3393 325.114 26.0795 324.641 26.0795H315.104V15.3023C315.104 15.0704 315.219 14.9545 315.449 14.9545V14.9505Z" fill="#D7D7D7"/>
<path d="M302.843 42.0613H285.409C285.218 42.0613 285.063 41.9054 285.063 41.7135V9.39005C285.063 9.07025 284.805 8.81041 284.487 8.81041H278.841C278.523 8.81041 278.265 9.07025 278.265 9.39005V47.4379C278.265 47.8577 278.603 48.2014 279.024 48.2014H302.843C303.161 48.2014 303.419 47.9416 303.419 47.6218V42.641C303.419 42.3212 303.161 42.0613 302.843 42.0613Z" fill="#D7D7D7"/>
<path d="M256.14 19.7355L250.956 9.38605C250.785 8.9863 250.499 8.81441 250.157 8.81441H244.396C243.994 8.81441 243.827 9.10223 243.939 9.38605L255.114 31.7479C255.154 31.8238 255.174 31.9118 255.174 31.9957V46.6784C255.174 47.302 255.675 47.8057 256.295 47.8057H260.784C261.404 47.8057 261.905 47.302 261.905 46.6784V31.588L256.14 19.7355Z" fill="#D7D7D7"/>
<path d="M272.683 8.81041H267.153C266.755 8.81041 266.525 8.9823 266.354 9.38205L261.062 19.8674C260.899 20.1952 260.891 20.5789 261.05 20.9067L263.646 26.3953C263.845 26.811 264.429 26.819 264.636 26.4073L273.144 9.38605C273.259 9.09823 273.144 8.81441 272.687 8.81441L272.683 8.81041Z" fill="#D7D7D7"/>
<path d="M31.8159 1.03534L0.12169 79.7254C-0.315636 80.8128 0.479502 82 1.64835 82H106.471C107.143 82 107.744 81.5923 107.998 80.9647L139.676 2.27456C140.114 1.18725 139.318 0 138.15 0H33.3425C32.6707 0 32.0703 0.407741 31.8159 1.03534ZM101.434 74.0131H11.6353L37.9384 7.98694H128.381L101.434 74.0131Z" fill="#D7D7D7"/>
<path d="M72.5349 35.8253C72.6104 36.0132 72.8847 35.9612 72.8927 35.7613C72.9961 33.2029 73.2147 31.9198 73.5407 30.8884C74.6857 27.5545 77.095 25.4958 81.2536 25.4958C85.4121 25.4958 87.7021 27.3147 89.5111 30.5846C89.6303 30.8285 89.9325 31.0083 90.2943 30.8884L95.3553 28.6458C95.6575 28.466 95.7171 28.1022 95.5978 27.7984C93.9122 23.1933 88.9704 19.0719 81.3172 19.0719C75.791 19.0719 71.3978 21.0626 68.6904 24.9162C68.5155 25.168 68.4837 25.4958 68.595 25.7797L72.5389 35.8213L72.5349 35.8253Z" fill="#D7D7D7"/>
<path d="M85.5394 37.856C85.1776 37.856 84.8436 38.0479 84.6647 38.3597L81.834 43.2366C81.6631 43.5324 81.8738 43.9082 82.2157 43.9082H89.3322C89.531 43.9161 89.694 44.08 89.694 44.2799C89.694 46.6424 89.4514 48.7611 89.03 50.0363C87.9447 53.3702 84.8714 55.185 81.2575 55.185C80.856 55.185 80.4823 55.149 80.1125 55.113L82.486 61.1532C82.5814 61.3971 82.8279 61.553 83.0903 61.529C89.2725 60.9573 93.9638 57.3636 95.7847 51.4913C96.4486 49.4327 96.7508 45.4312 96.7508 42.0373V38.4636C96.7508 38.1278 96.4805 37.856 96.1465 37.856H85.5394Z" fill="#D7D7D7"/>
<path d="M74.7056 60.9454L58.9022 20.3391C58.775 19.9713 58.5206 19.7235 58.0793 19.7235H52.243C51.7977 19.7235 51.5432 19.9713 51.42 20.3391L35.4258 60.9454C35.2986 61.3131 35.4258 61.561 35.8711 61.561H42.0254C42.4707 61.561 42.7252 61.3771 42.8484 60.9454L54.9703 30.1209H55.1611L61.4387 44.5358H54.8232C54.5886 44.5358 54.3819 44.6797 54.3063 44.8955L52.4298 50.2881C52.3106 50.6319 52.5729 50.9877 52.9467 50.9877H63.7128L67.2234 60.9414C67.3506 61.3731 67.605 61.557 68.0463 61.557H74.2643C74.7096 61.557 74.8368 61.3091 74.7096 60.9414L74.7056 60.9454Z" fill="#D7D7D7"/>
<path d="M144.543 70.1475H147.759V72.49C147.469 72.8018 147.115 73.0937 146.693 73.3375C145.982 73.7612 144.94 74.161 143.545 74.161C140.328 74.161 137.78 71.5946 137.78 68.3646C137.78 65.1347 140.332 62.5683 143.545 62.5683C145.143 62.5683 146.34 63.148 147.139 63.7516C147.604 64.0874 148.005 64.4871 148.315 64.9108L149.87 63.3478C149.425 62.7922 148.896 62.3005 148.296 61.8528C147.23 61.0733 145.68 60.3377 143.549 60.3377C138.889 60.3377 135.343 63.9075 135.343 68.3646C135.343 72.8218 138.893 76.3916 143.549 76.3916C145.699 76.3916 147.365 75.676 148.494 74.8965C149.158 74.4488 149.735 73.9371 150.204 73.3815V67.9169H144.547V70.1475H144.543ZM158.847 76.1677H161.288V70.3714H164.95L168.166 76.1677H170.937L167.411 69.9237C167.963 69.6998 168.452 69.388 168.898 68.9883C169.629 68.2967 170.385 67.2254 170.385 65.4665C170.385 62.7002 168.277 60.5616 165.284 60.5616H158.851V76.1717L158.847 76.1677ZM161.288 68.1408V62.7882H165.28C166.854 62.7882 167.939 63.8795 167.939 65.4625C167.939 67.0455 166.854 68.1368 165.28 68.1368H161.288V68.1408ZM180.252 68.3646C180.252 65.1307 182.805 62.5683 186.017 62.5683C189.229 62.5683 191.782 65.1347 191.782 68.3646C191.782 71.5946 189.229 74.161 186.017 74.161C182.805 74.161 180.252 71.5946 180.252 68.3646ZM177.811 68.3646C177.811 72.8258 181.361 76.3916 186.017 76.3916C190.672 76.3916 194.223 72.8218 194.223 68.3646C194.223 63.9075 190.672 60.3377 186.017 60.3377C181.361 60.3377 177.811 63.9075 177.811 68.3646ZM202.099 69.9277C202.099 73.7173 204.758 76.3956 208.643 76.3956C212.527 76.3956 215.187 73.7212 215.187 69.9277V60.5616H212.745V69.9277C212.745 72.2702 210.861 74.165 208.643 74.165C206.313 74.165 204.54 72.3821 204.54 69.9277V60.5616H202.099V69.9277ZM224.056 76.1717H226.497V70.5952H230.266C233.284 70.5952 235.478 68.3646 235.478 65.5784C235.478 62.7922 233.284 60.5616 230.266 60.5616H224.056V76.1717ZM226.497 68.3646V62.7882H230.266C231.821 62.7882 233.037 64.0154 233.037 65.5744C233.037 67.1334 231.817 68.3606 230.266 68.3606H226.497V68.3646Z" fill="#D7D7D7"/>
</svg>
