<svg width="121" height="171" viewBox="0 0 121 171" fill="none" xmlns="http://www.w3.org/2000/svg">
<path d="M109.694 125.568L60.4839 157.558L11.2734 125.568V33.1465H109.678V125.568H109.694ZM11.2895 22.6437L15.6477 9.63561H21.6944L26.0526 22.6437V24.9402H22.2734L21.0994 21.0217H15.8406L14.6345 24.9402H11.2734V22.6437H11.2895ZM35.8947 9.53926C38.1623 9.53926 40.1564 10.6634 41.25 12.5745V16.6535C40.5906 17.7938 39.6257 18.7091 38.3392 19.223L41.4269 22.5955V24.892H38.1944L34.2383 19.6727H32.5015V24.892H28.3363V9.53926H35.8947ZM43.7266 9.66773H49.2105L52.4269 17.7616H52.9094L55.9971 9.66773H61.4006V24.892H57.5249V15.706H57.0424L53.7456 23.9284H51.3494L48.0687 15.706H47.6184V24.892H43.7427V9.68379L43.7266 9.66773ZM64.0541 13.0402C64.7939 11.3861 66.8041 9.13777 70.8406 9.13777C74.8772 9.13777 76.8874 11.3861 77.6272 13.0402V21.3589C76.8874 23.0131 74.8772 25.2453 70.8406 25.2453C66.8041 25.2453 64.7939 23.0131 64.0541 21.3589V13.0402ZM84.3494 9.5232V20.572C84.6871 21.3589 85.5716 22.0816 86.9708 22.0816C88.3699 22.0816 89.1901 21.3589 89.576 20.572V9.5232H93.7251V21.3589C92.9854 23.0131 90.9912 25.2453 86.9708 25.2453C82.9503 25.2453 80.924 23.0131 80.1842 21.3589V9.5232H84.3494ZM96.5716 9.5232H104.114C106.382 9.5232 108.376 10.6474 109.469 12.5584V16.6375C108.81 17.7777 107.845 18.6931 106.558 19.207L109.646 22.5795V24.8759H106.414L102.458 19.6566H100.721V24.8759H96.5556V9.53926L96.5716 9.5232ZM0 0V131.671L60.5 171L121 131.671V0H0Z" fill="#D7D7D7"/>
<path d="M37.3099 15.5776V13.8432C36.9079 13.0563 36.0395 12.6227 34.9942 12.6227H32.5175V16.7981H34.9942C36.0877 16.7981 36.9079 16.3324 37.3099 15.5776Z" fill="#D7D7D7"/>
<path d="M70.8567 22.0977C72.2398 22.0977 73.1243 21.375 73.4781 20.5881V13.8432C73.1243 13.0241 72.2237 12.3175 70.8567 12.3175C69.4898 12.3175 68.5892 13.0241 68.2354 13.8432V20.5881C68.5892 21.375 69.4898 22.0977 70.8567 22.0977Z" fill="#D7D7D7"/>
<path d="M18.7675 13.2008H18.2851L16.6447 17.9383H20.3436L18.7675 13.2008Z" fill="#D7D7D7"/>
<path d="M105.545 15.5776V13.8432C105.143 13.0563 104.275 12.6227 103.23 12.6227H100.753V16.7981H103.23C104.323 16.7981 105.143 16.3324 105.545 15.5776Z" fill="#D7D7D7"/>
<path d="M36.0716 122.645L60.5 100.034L84.9123 122.645V136.007L103.744 123.464V114.439L74.3465 87.2184L103.744 59.9977V38.43H84.9123V51.7914L60.5 74.403L36.0716 51.7914V38.43H17.2558V59.9977L46.6535 87.2184L17.2558 114.439V123.464L36.0716 136.007V122.645Z" fill="#D7D7D7"/>
</svg>
