<svg width="439" height="52" viewBox="0 0 439 52" fill="none" xmlns="http://www.w3.org/2000/svg">
<path d="M0 3.83793C0.28 3.79793 0.56 3.72793 0.84 3.72793C12.04 3.72793 23.23 3.69793 34.43 3.72793C38.82 3.74793 43.21 4.00793 47.47 5.21793C48.64 5.54793 49.79 5.98793 50.89 6.50793C55.36 8.64793 56.82 12.5879 56.38 16.9879C56.03 20.4579 54.17 22.7779 51 24.1279C48.59 25.1579 46.04 25.6379 43.47 25.9979C43.29 26.0279 43.11 26.0379 42.93 26.0579C42.89 26.0579 42.86 26.1179 42.76 26.1979C44.15 26.3979 45.51 26.4879 46.82 26.7979C48.68 27.2379 50.56 27.6979 52.33 28.4079C55.47 29.6679 57.07 32.1579 57.36 35.5079C57.79 40.3579 55.93 44.0179 51.68 46.4279C48.55 48.2079 45.12 49.0279 41.59 49.3979C38.63 49.7079 35.64 49.8879 32.66 49.9079C22.14 49.9679 11.62 49.9279 1.1 49.9279C0.74 49.9279 0.37 49.9079 0.01 49.8979V3.83793H0ZM25.1 33.0679C26.53 33.0679 27.87 33.0879 29.21 33.0679C29.92 33.0579 30.2 32.5879 30.22 31.9379C30.25 31.3179 29.99 30.7779 29.36 30.7479C27.95 30.6779 26.54 30.7279 25.09 30.7279V33.0779L25.1 33.0679ZM25.1 22.4779C26.34 22.4779 27.5 22.5179 28.66 22.4579C29.38 22.4179 29.65 21.8979 29.64 21.2079C29.63 20.5579 29.3 20.1379 28.68 20.1079C27.5 20.0579 26.32 20.0879 25.1 20.0879V22.4779Z" fill="#D7D7D7"/>
<path d="M380.17 49.9478C371.41 49.9478 362.66 49.9478 353.9 49.9678C353.28 49.9678 353.01 49.7778 352.79 49.1978C349.56 40.5778 346.3 31.9778 343.05 23.3678C342.93 23.0578 342.81 22.7478 342.59 22.4478C342.62 22.5978 342.63 22.7478 342.68 22.8878C344.02 27.3978 345.36 31.9078 346.68 36.4278C346.82 36.8978 346.89 37.3978 346.9 37.8778C346.92 41.5778 346.9 45.2678 346.9 48.9678C346.9 49.2478 346.9 49.5378 346.9 49.8878H322.29V3.76776C322.56 3.75776 322.83 3.72776 323.1 3.72776C332.04 3.72776 340.98 3.72776 349.91 3.70776C350.51 3.70776 350.76 3.90776 350.97 4.44776C354.08 12.6378 357.22 20.8178 360.35 28.9978C360.45 29.2578 360.57 29.5178 360.78 29.7578C360.73 29.5278 360.69 29.2978 360.62 29.0778C359.35 24.8478 358.07 20.6178 356.82 16.3778C356.69 15.9378 356.62 15.4578 356.62 14.9978C356.6 11.5378 356.62 8.07776 356.62 4.61776C356.62 4.35776 356.62 4.10776 356.62 3.78776H381V49.9478H380.17Z" fill="#D7D7D7"/>
<path d="M119.47 31.6478H113.55V24.4678H145.1V49.8778H121.11C120.85 45.5678 120.59 41.2478 120.32 36.9278C120.28 36.9278 120.25 36.9279 120.21 36.9179C120.06 37.6979 119.94 38.4879 119.74 39.2479C119.45 40.3779 119.17 41.5278 118.75 42.6078C117.04 47.0878 113.77 49.7279 109.09 50.6379C105.03 51.4179 100.97 51.3978 96.96 50.3078C91.48 48.8178 87.72 45.3679 86.09 39.9079C83.92 32.6579 84.01 25.3478 86.47 18.1778C88.77 11.4778 93.69 7.34785 100.17 4.92785C104.8 3.18785 109.63 2.56785 114.54 2.46785C119.72 2.35785 124.87 2.65785 129.92 3.98785C138.24 6.18785 143.19 11.5478 144.82 19.9978C145 20.9378 145.13 21.8878 145.3 22.9378H144.3C136.4 22.9378 128.5 22.9378 120.6 22.9378C119.77 22.9378 119.04 22.9178 118.25 22.3378C116.51 21.0478 113.4 22.1278 112.57 24.1478C111.88 25.8278 111.9 27.6078 112.02 29.3778C112.05 29.8178 112.13 30.2578 112.22 30.6878C112.66 32.6878 113.73 33.5878 115.76 33.6078C116.45 33.6078 117.16 33.5278 117.83 33.3578C118.63 33.1578 119.14 32.5778 119.45 31.6578L119.47 31.6478Z" fill="#D7D7D7"/>
<path d="M205 18.1978C204.71 18.1978 204.45 18.1978 204.2 18.1978C195.86 18.1978 187.52 18.1978 179.18 18.1978C178.73 18.1978 178.39 18.1378 178.05 17.7378C177.74 17.3778 177.2 17.0678 176.72 17.0178C175.46 16.8778 174.19 16.8878 172.92 16.8478C172.84 16.8478 172.75 16.8478 172.69 16.8978C172.41 17.0978 172.14 17.3078 171.87 17.5178C172.14 17.6778 172.4 17.9478 172.69 17.9778C174.83 18.1878 176.98 18.3878 179.13 18.5178C183.67 18.7778 188.23 18.8078 192.69 19.7978C194.73 20.2578 196.77 20.8478 198.68 21.6778C202.3 23.2578 204.54 26.0678 205.25 30.0078C205.98 34.1178 205.75 38.1078 203.45 41.7478C201.62 44.6478 198.94 46.5178 195.88 47.9078C192.15 49.6078 188.19 50.4178 184.14 50.8478C177.63 51.5378 171.11 51.4978 164.63 50.6378C161.87 50.2678 159.11 49.6278 156.45 48.7778C150.3 46.8078 146.83 42.4278 145.77 36.0878C145.68 35.5278 145.59 34.9678 145.48 34.3078C145.84 34.3078 146.12 34.3078 146.4 34.3078C154.92 34.3078 163.44 34.3078 171.97 34.3078C172.42 34.3078 172.76 34.3678 173.12 34.7478C173.42 35.0778 173.97 35.3078 174.43 35.3378C175.93 35.4578 177.43 35.4978 178.93 35.4978C179.21 35.4978 179.48 35.1478 179.76 34.9678C179.49 34.8078 179.23 34.5178 178.95 34.4978C176.6 34.3078 174.24 34.1478 171.88 34.0178C167.19 33.7378 162.48 33.5778 157.87 32.5478C156.18 32.1678 154.5 31.6578 152.9 30.9978C149.51 29.5978 147.44 27.0578 146.85 23.3678C146.33 20.1378 146.19 16.9378 147.42 13.8278C149.03 9.7378 152.17 7.1478 156 5.2878C159.72 3.4878 163.72 2.6978 167.8 2.3178C173.77 1.7578 179.74 1.8478 185.67 2.7578C189.15 3.2878 192.53 4.2178 195.65 5.9178C200.52 8.5678 203.44 12.7378 205.04 17.9478C205.05 17.9978 205.04 18.0478 205.02 18.2078L205 18.1978Z" fill="#D7D7D7"/>
<path d="M235.55 51.1678C230.49 51.1378 225.61 50.7478 220.86 49.3178C212.81 46.8978 208.05 41.5278 206.63 33.2378C205.81 28.4678 205.76 23.6978 207.16 19.0178C209.24 12.0678 213.9 7.51779 220.56 4.92779C225.15 3.13779 229.96 2.55779 234.84 2.45779C239.98 2.34779 245.07 2.74779 249.97 4.48779C255.4 6.41779 259.8 9.61779 262.49 14.8678C264.48 18.7578 265.16 22.9278 265.12 27.2578C265.1 30.0778 264.81 32.8678 264.05 35.5878C262.16 42.3778 257.73 46.7178 251.15 48.9678C246.05 50.7078 240.75 51.1378 235.55 51.1678ZM235.6 29.6478C235.83 29.6378 236.07 29.6278 236.3 29.6078C238.17 29.4478 238.99 28.4978 238.88 26.6378C238.8 25.3378 238.18 24.5278 236.9 24.3078C236.17 24.1778 235.4 24.1478 234.67 24.2478C233.02 24.4678 232.27 25.4278 232.32 27.0778C232.37 28.6078 233.19 29.4378 234.82 29.6078C235.08 29.6378 235.34 29.6378 235.6 29.6578V29.6478Z" fill="#D7D7D7"/>
<path d="M383.34 49.9477V3.72772C383.63 3.72772 383.91 3.72772 384.18 3.72772C393.64 3.72772 403.09 3.70772 412.55 3.73772C417.41 3.75772 422.12 4.57772 426.53 6.70772C433.86 10.2277 437.86 16.0777 438.56 24.1777C438.9 28.0777 438.58 31.9277 437.29 35.6477C435.07 42.0377 430.53 46.0477 424.25 48.1977C420.27 49.5577 416.14 49.9477 411.97 49.9477C402.69 49.9477 393.42 49.9477 384.14 49.9477H383.33H383.34ZM408.1 29.5677C409.46 29.4877 410.78 29.4977 412.07 29.2977C413.21 29.1177 413.74 28.2177 413.74 26.9177C413.74 25.6077 413.21 24.7177 412.07 24.5277C410.78 24.3177 409.46 24.3077 408.1 24.2077V29.5677Z" fill="#D7D7D7"/>
<path d="M266.52 3.76782H292.24C292.24 4.11782 292.24 4.41782 292.24 4.72782C292.24 11.8878 292.24 19.0478 292.24 26.2078C292.24 26.8878 292.29 27.5578 292.35 28.2278C292.41 28.8478 292.74 29.2378 293.4 29.2678C294.08 29.2978 294.39 28.8978 294.46 28.2778C294.51 27.8178 294.54 27.3478 294.54 26.8778C294.54 19.5078 294.54 12.1478 294.54 4.77782C294.54 4.46782 294.54 4.15782 294.54 3.79782H320.07V4.63782C320.07 12.2378 320.11 19.8378 320.06 27.4378C320.03 31.9678 319.46 36.4178 317.44 40.5678C315.34 44.8878 311.86 47.5878 307.41 49.1578C303.19 50.6478 298.81 51.0778 294.38 51.1578C289.96 51.2378 285.55 51.0478 281.21 50.0578C277.72 49.2678 274.45 47.9878 271.84 45.4078C269.2 42.7978 267.84 39.5178 267.29 35.9378C266.87 33.1978 266.56 30.4078 266.52 27.6378C266.42 19.9078 266.48 12.1778 266.49 4.44782C266.49 4.24782 266.51 4.03782 266.52 3.77782V3.76782Z" fill="#D7D7D7"/>
<path d="M83.23 49.9078H58.59V12.8178C61 15.3178 64.12 15.6278 67.23 15.7278C70.18 15.8178 73.15 15.7878 76.1 15.5678C78.73 15.3678 81.28 14.6878 83.24 12.4778V49.9178L83.23 49.9078Z" fill="#D7D7D7"/>
<path d="M69.87 14.3779C67.44 13.9979 64.97 13.7879 62.6 13.1979C58.19 12.1079 57.43 8.5679 58.23 5.1479C58.59 3.6279 59.59 2.5379 60.96 1.8079C62.88 0.797903 64.96 0.367904 67.09 0.187903C70.8 -0.132096 74.51 -0.122097 78.15 0.847903C78.63 0.977903 79.09 1.1379 79.55 1.3079C83 2.5679 84.22 5.4579 83.41 9.0379C82.99 10.8879 81.69 12.0079 80.01 12.7279C77.6 13.7479 75.04 13.9979 72.47 14.1179C71.62 14.1579 70.76 14.1179 69.9 14.1179C69.89 14.1979 69.88 14.2779 69.86 14.3679L69.87 14.3779Z" fill="#D7D7D7"/>
</svg>
