<svg width="231" height="48" viewBox="0 0 231 48" fill="none" xmlns="http://www.w3.org/2000/svg">
<path d="M87.648 23.233C90.569 21.059 91.928 17.663 91.928 13.655C91.928 5.3 86.7 0 76.914 0H57.214V47.553H78C87.85 47.553 93.082 42.119 93.082 33.627C93.0637 31.588 92.5616 29.5825 91.6169 27.7755C90.6722 25.9685 89.3119 24.4116 87.648 23.233ZM66.317 9.035H77.117C80.582 9.035 82.824 10.665 82.824 13.994C82.824 17.255 80.582 19.021 77.117 19.021H66.317V9.035ZM78.273 38.518H66.317V28.056H78.273C81.738 28.056 83.979 29.823 83.979 33.287C83.979 36.616 82.077 38.518 78.273 38.518Z" fill="#D7D7D7"/>
<path d="M137.442 13.994C137.442 5.3 132.211 0 122.428 0H102.388V47.553H111.488V27.989H117.058L128.539 47.553H139L127.18 27.513C133.909 25.95 137.442 21.059 137.442 13.994ZM122.632 19.157H111.491V9.035H122.632C126.097 9.035 128.338 10.801 128.338 14.135C128.338 17.391 126.1 19.157 122.632 19.157Z" fill="#D7D7D7"/>
<path d="M156.189 0H147.086V47.553H156.189V0Z" fill="#D7D7D7"/>
<path d="M185.671 0H167.737V47.553H185.671C197.084 47.553 203.605 40.553 203.605 29.959V17.6C203.605 7 197.084 0 185.671 0ZM194.5 29.959C194.5 35.459 190.628 38.518 185.669 38.518H176.84V9.035H185.671C190.63 9.035 194.502 12.092 194.502 17.595L194.5 29.959Z" fill="#D7D7D7"/>
<path d="M221.034 0V32.98C221.034 36.173 219.534 38.48 216.007 38.48H208.412V47.515H216.007C225.042 47.515 230.137 42.828 230.137 33.249V0H221.034Z" fill="#D7D7D7"/>
<path d="M12.671 27.984H0V19.537H12.671C14.4535 19.5349 16.1623 18.8257 17.4225 17.5651C18.6828 16.3045 19.3914 14.5955 19.393 12.813V0.143H27.841V12.813C27.8368 16.8351 26.2372 20.6913 23.3932 23.5355C20.5492 26.3797 16.6931 27.9795 12.671 27.984Z" fill="#D7D7D7"/>
<path d="M27.842 47.378H19.394V34.708C19.3988 30.6857 20.9988 26.8295 23.8431 23.9854C26.6874 21.1413 30.5437 19.5415 34.566 19.537H47.236V27.984H34.566C32.7833 27.9861 31.0743 28.6952 29.8138 29.9558C28.5532 31.2163 27.8441 32.9253 27.842 34.708V47.378Z" fill="#D7D7D7"/>
</svg>
