<svg width="276" height="85" viewBox="0 0 276 85" fill="none" xmlns="http://www.w3.org/2000/svg">
<path d="M86.0069 67.8108C86.2369 67.8108 86.4269 67.8708 86.5769 67.9908C86.7269 68.1108 86.8069 68.3008 86.8069 68.5608C86.8069 68.7408 86.7769 68.8908 86.7269 69.0208C86.6669 69.1508 86.6269 69.2408 86.5969 69.2908H79.7469V84.5308H78.0369V69.2908H72.1869C71.9569 69.2908 71.7669 69.2308 71.6169 69.1108C71.4669 68.9908 71.3869 68.8008 71.3869 68.5408C71.3869 68.3608 71.4169 68.2108 71.4669 68.0808C71.5269 67.9508 71.5669 67.8608 71.5969 67.8108H86.0069Z" fill="#D7D7D7"/>
<path d="M103.267 77.4108C103.687 77.9808 104.107 78.5808 104.507 79.2008C104.917 79.8308 105.307 80.4508 105.677 81.0808C106.047 81.7108 106.397 82.3208 106.727 82.9108C107.047 83.5008 107.347 84.0408 107.607 84.5308H105.557C105.377 84.1608 105.107 83.6508 104.757 83.0208C104.397 82.3908 104.017 81.7308 103.627 81.0608C103.237 80.3908 102.837 79.7508 102.447 79.1508C102.057 78.5508 101.737 78.0908 101.497 77.7808C101.167 77.8308 100.857 77.8608 100.557 77.8808C100.257 77.9008 99.9669 77.9008 99.6869 77.9008C98.7569 77.9008 97.9769 77.8808 97.3269 77.8408C96.6769 77.8008 96.1869 77.7508 95.8669 77.7108V84.5408H94.2069V68.7908C94.2069 68.2208 94.5369 67.9008 95.1869 67.8208C95.3669 67.7908 95.8069 67.7408 96.5069 67.6708C97.2069 67.6108 98.1469 67.5708 99.3369 67.5708C100.427 67.5708 101.437 67.6608 102.367 67.8408C103.297 68.0208 104.107 68.3108 104.797 68.7208C105.487 69.1308 106.007 69.6508 106.397 70.3008C106.787 70.9508 106.967 71.7508 106.967 72.6908C106.967 73.3708 106.867 73.9708 106.677 74.4908C106.487 75.0108 106.217 75.4608 105.887 75.8408C105.557 76.2208 105.167 76.5408 104.717 76.7908C104.267 77.0408 103.797 77.2508 103.287 77.4108H103.267ZM105.197 72.6808C105.197 72.1308 105.087 71.6308 104.877 71.1808C104.667 70.7308 104.327 70.3508 103.867 70.0208C103.407 69.7008 102.797 69.4408 102.037 69.2608C101.277 69.0808 100.357 68.9908 99.2669 68.9908C98.1769 68.9908 97.4369 69.0108 96.8869 69.0608C96.3469 69.1108 95.9969 69.1508 95.8469 69.1808V76.2008C96.1369 76.2508 96.5669 76.3008 97.1369 76.3608C97.7069 76.4208 98.4069 76.4408 99.2369 76.4408C101.347 76.4408 102.867 76.1208 103.797 75.4708C104.727 74.8208 105.187 73.8908 105.187 72.6708L105.197 72.6808Z" fill="#D7D7D7"/>
<path d="M112.777 84.5308C113.737 81.9608 114.757 79.3808 115.847 76.7808C116.937 74.1808 118.087 71.5708 119.307 68.9508C119.587 68.3508 119.857 67.9308 120.137 67.7108C120.417 67.4908 120.767 67.3708 121.187 67.3708C121.497 67.3708 121.757 67.4208 121.977 67.5208C122.197 67.6208 122.327 67.6808 122.357 67.7208C122.647 68.2108 123.007 68.9108 123.437 69.8308C123.867 70.7508 124.327 71.7708 124.807 72.9008C125.287 74.0308 125.777 75.2008 126.277 76.4208C126.777 77.6408 127.247 78.7908 127.677 79.8808C128.107 80.9708 128.487 81.9308 128.807 82.7608C129.137 83.5908 129.357 84.1808 129.487 84.5408H127.587C127.527 84.3808 127.407 84.0708 127.237 83.6108C127.067 83.1608 126.877 82.6608 126.677 82.1208C126.477 81.5808 126.277 81.0608 126.077 80.5608C125.877 80.0608 125.727 79.6708 125.617 79.4108H116.377C115.917 80.5308 115.517 81.5608 115.157 82.4908C114.797 83.4208 114.537 84.1008 114.377 84.5308H112.767H112.777ZM121.087 68.8308C120.407 70.2008 119.707 71.6608 119.007 73.2208C118.297 74.7808 117.617 76.3708 116.967 77.9708H125.057C124.767 77.2208 124.427 76.3908 124.057 75.4808C123.687 74.5708 123.307 73.6808 122.937 72.8108C122.567 71.9408 122.207 71.1508 121.877 70.4308C121.547 69.7108 121.277 69.1808 121.087 68.8208V68.8308Z" fill="#D7D7D7"/>
<path d="M134.937 68.0508C135.257 68.9808 135.657 70.0508 136.127 71.2708C136.597 72.4908 137.107 73.7708 137.647 75.1108C138.187 76.4508 138.757 77.8108 139.357 79.1908C139.947 80.5708 140.537 81.9008 141.127 83.1908C141.417 82.5708 141.737 81.8708 142.077 81.0808C142.417 80.2908 142.767 79.4608 143.137 78.5808C143.507 77.7008 143.867 76.8108 144.237 75.9108C144.607 75.0108 144.947 74.1308 145.287 73.2908C145.617 72.4508 145.927 71.6608 146.217 70.9408C146.497 70.2208 146.747 69.6008 146.957 69.0808C147.167 68.5608 147.367 68.2208 147.557 68.0608C147.747 67.9008 148.017 67.8208 148.377 67.8208C148.537 67.8208 148.687 67.8408 148.827 67.8808C148.967 67.9208 149.087 67.9608 149.177 68.0108C149.017 68.4508 148.787 69.0508 148.487 69.8108C148.187 70.5708 147.837 71.4308 147.447 72.3808C147.057 73.3308 146.637 74.3408 146.187 75.4208C145.737 76.4908 145.287 77.5708 144.817 78.6508C144.357 79.7308 143.897 80.7708 143.457 81.7808C143.007 82.7908 142.587 83.7108 142.197 84.5308H139.977C139.537 83.6708 139.097 82.7608 138.657 81.8008C138.217 80.8408 137.787 79.8808 137.367 78.9208C136.947 77.9608 136.537 77.0208 136.147 76.1008C135.757 75.1808 135.407 74.3308 135.087 73.5508C134.767 72.7708 134.497 72.0908 134.257 71.5008C134.017 70.9208 133.847 70.4708 133.737 70.1608C133.577 69.7408 133.457 69.4208 133.397 69.2008C133.337 68.9808 133.297 68.7908 133.297 68.6308C133.297 68.4008 133.367 68.2108 133.507 68.0508C133.647 67.8908 133.857 67.8108 134.127 67.8108C134.397 67.8108 134.607 67.8508 134.727 67.9208C134.847 67.9908 134.917 68.0408 134.937 68.0508Z" fill="#D7D7D7"/>
<path d="M156.317 83.0508H166.697V84.5408H154.537V68.7908C154.537 68.5008 154.627 68.2608 154.807 68.0808C154.987 67.9008 155.267 67.8108 155.637 67.8108H166.067C166.297 67.8108 166.487 67.8708 166.637 67.9908C166.787 68.1108 166.867 68.3008 166.867 68.5608C166.867 68.7408 166.837 68.8908 166.787 69.0208C166.737 69.1508 166.687 69.2408 166.657 69.2908H156.317V75.1208H165.677C165.907 75.1208 166.097 75.1808 166.247 75.3008C166.397 75.4208 166.477 75.6108 166.477 75.8708C166.477 76.0508 166.447 76.2008 166.397 76.3308C166.337 76.4608 166.297 76.5508 166.267 76.6008H156.317V83.0508Z" fill="#D7D7D7"/>
<path d="M174.397 84.5308V68.6808C174.397 68.4208 174.467 68.2108 174.607 68.0508C174.747 67.8908 174.977 67.8108 175.297 67.8108C175.457 67.8108 175.607 67.8308 175.747 67.8708C175.887 67.9108 175.997 67.9508 176.077 68.0008V83.0408H185.557V84.5308H174.387H174.397Z" fill="#D7D7D7"/>
<path d="M203.117 69.6808C203.117 69.8708 203.057 70.0708 202.927 70.2608C202.797 70.4608 202.667 70.5908 202.537 70.6708C202.387 70.5208 202.167 70.3508 201.857 70.1308C201.547 69.9208 201.157 69.7208 200.687 69.5208C200.217 69.3208 199.657 69.1508 199.017 69.0108C198.377 68.8608 197.647 68.7908 196.837 68.7908C193.587 68.7908 191.957 69.8308 191.957 71.9108C191.957 72.4008 192.047 72.8108 192.237 73.1508C192.427 73.4908 192.697 73.7808 193.037 74.0208C193.377 74.2608 193.817 74.4508 194.317 74.6208C194.817 74.7808 195.377 74.9208 195.997 75.0408L198.897 75.5808C200.617 75.9108 201.897 76.4208 202.737 77.1408C203.577 77.8608 203.997 78.8508 203.997 80.1108C203.997 80.8108 203.857 81.4508 203.587 82.0508C203.307 82.6408 202.887 83.1508 202.317 83.5708C201.747 83.9908 201.037 84.3308 200.177 84.5708C199.317 84.8108 198.307 84.9408 197.157 84.9408C196.267 84.9408 195.447 84.8808 194.707 84.7508C193.967 84.6208 193.297 84.4508 192.707 84.2508C192.117 84.0508 191.597 83.8308 191.157 83.6008C190.717 83.3708 190.357 83.1608 190.057 82.9708L190.887 81.6508C191.127 81.8108 191.447 82.0008 191.827 82.2108C192.207 82.4208 192.667 82.6208 193.197 82.8208C193.727 83.0108 194.317 83.1808 194.977 83.3108C195.637 83.4408 196.367 83.5108 197.187 83.5108C198.747 83.5108 199.967 83.2508 200.857 82.7208C201.747 82.1908 202.187 81.3708 202.187 80.2508C202.187 79.6808 202.077 79.2108 201.867 78.8408C201.657 78.4708 201.367 78.1708 200.997 77.9408C200.627 77.7108 200.207 77.5308 199.717 77.4008C199.227 77.2708 198.717 77.1608 198.177 77.0608L195.297 76.5708C194.587 76.4608 193.917 76.2808 193.297 76.0508C192.677 75.8108 192.147 75.5108 191.687 75.1508C191.227 74.7808 190.867 74.3508 190.607 73.8308C190.347 73.3108 190.207 72.7308 190.207 72.0608C190.207 71.4308 190.317 70.8308 190.547 70.2708C190.777 69.7108 191.147 69.2108 191.677 68.7808C192.207 68.3508 192.887 68.0108 193.727 67.7608C194.567 67.5108 195.597 67.3808 196.807 67.3808C197.697 67.3808 198.477 67.4308 199.147 67.5408C199.817 67.6508 200.377 67.7708 200.827 67.9208C201.277 68.0708 201.647 68.2208 201.927 68.3708C202.207 68.5308 202.407 68.6508 202.537 68.7508C202.777 68.9508 202.937 69.1108 203.017 69.2408C203.087 69.3708 203.127 69.5308 203.127 69.7008L203.117 69.6808Z" fill="#D7D7D7"/>
<path d="M155.367 19.1908C155.827 18.8208 156.377 18.2308 156.737 17.6308C157.257 16.7608 157.367 16.4108 157.487 15.7208C157.577 15.1608 157.607 14.7108 157.407 14.2108C156.817 12.7408 156.297 11.7408 155.647 10.8108C155.337 10.3708 154.767 9.61077 153.977 9.80077C153.227 9.98077 152.667 10.5508 152.477 10.8508C151.927 11.7308 151.707 12.7508 151.717 14.1408C151.717 15.3508 152.227 17.3708 153.117 18.5808C154.017 19.8008 154.517 19.8908 155.377 19.2008L155.367 19.1908Z" fill="#D7D7D7"/>
<path d="M105.337 20.4508C105.747 20.5908 106.187 20.1008 106.487 19.7908C107.607 18.6108 108.187 16.9408 108.037 15.3208C107.897 13.7008 107.027 12.1608 105.727 11.1908C105.427 10.9708 105.067 10.7708 104.707 10.8408C104.307 10.9208 104.047 11.3008 103.847 11.6508C103.087 13.0508 102.697 14.0308 102.577 15.3208C102.517 15.9408 102.577 17.8808 103.597 19.1908C104.087 19.8208 104.507 20.1708 105.337 20.4508Z" fill="#D7D7D7"/>
<path d="M93.5269 27.2008C93.9069 26.9808 94.3669 26.7408 94.5769 26.3308C94.7869 25.9308 94.6769 25.3108 94.5869 24.8908C94.3669 23.8608 93.7769 22.9108 92.9869 22.2208C92.7969 22.0508 92.5869 21.8908 92.3669 21.7708C92.1769 21.6608 91.9669 21.5708 91.7569 21.5208C91.4069 21.4308 91.0969 21.4808 90.7969 21.5808C90.7869 21.5808 90.7769 21.5808 90.7669 21.5808C90.7669 21.5808 89.9569 21.8108 88.6969 22.7908C84.0569 26.6308 81.1069 31.3508 81.1069 31.3508C81.1069 31.3508 79.4469 33.7908 77.8669 36.8008C78.3769 34.1508 78.1669 32.2108 78.1669 32.2108C78.1169 31.4208 78.0369 30.7408 77.7769 29.9808C77.3269 28.6308 76.4469 27.4408 75.0569 26.9608C74.9569 26.9208 74.8469 26.8908 74.7469 26.8708C73.1569 26.4608 71.6069 27.1908 70.1669 27.7708C68.6169 28.4008 67.0869 29.0508 65.5569 29.7308C64.7969 30.0708 64.0369 30.4208 63.2869 30.7708C63.2869 30.7708 62.4269 31.1908 61.3369 31.7408C60.2569 31.1708 59.3369 30.8508 59.3369 30.8508C56.3469 29.8808 53.1969 29.3908 50.0569 29.4008C47.5469 29.4008 45.0469 29.7808 42.5869 30.1708C39.9469 30.5908 37.3369 31.1308 34.7269 31.7108C36.5469 30.4108 38.5269 29.0008 39.3869 28.4408C41.5769 27.0208 43.7769 25.6108 45.9269 24.1608C49.4669 21.7608 53.1669 19.1308 55.9569 15.8408C56.6469 15.0208 57.1569 14.0408 57.3969 13.0008C57.7869 11.3708 57.5369 9.59077 56.7269 8.13077C55.4769 5.88077 53.0369 4.50077 50.5169 3.95077C48.1269 3.43077 45.6969 3.58077 43.2769 3.71077C40.9469 3.84077 38.6469 4.05077 36.3269 4.46077C33.8569 4.89077 31.5369 5.30077 29.1269 5.99077C24.4269 7.32077 19.5969 8.86077 15.0469 10.6308C13.1069 11.3908 11.1869 12.1908 9.26689 12.9908C7.86689 13.5508 6.47689 14.1608 5.07689 14.7408C3.77689 15.2808 2.51689 15.9708 1.10689 16.1708C0.816891 16.2108 0.506891 16.2408 0.266891 16.4108C-0.493109 16.9408 0.576891 18.3908 0.916891 18.9108C1.50689 19.7908 2.23689 20.5708 3.02689 21.2708C3.76689 21.9208 4.62689 22.1008 5.35689 21.9108C6.13689 21.7108 6.86689 21.4408 7.57689 21.1508C9.19689 20.5008 10.7869 19.8208 12.3869 19.1408C15.5669 17.8108 18.7269 16.3808 21.9969 15.2508C21.9969 15.2508 24.8469 14.1408 27.0769 13.4608C26.9069 15.9008 26.3869 20.9608 25.9469 24.5108C25.7169 26.5208 25.5969 28.7408 25.1969 31.5408C23.0569 33.2108 20.8269 34.1808 20.1769 34.5508C19.1069 35.1708 17.7369 35.7108 16.7669 36.4308C15.0469 37.7108 15.3969 39.7408 16.5369 41.3108C16.8469 41.7408 17.2769 42.1108 17.7869 42.2708C18.2769 42.4208 18.7969 42.3608 19.3069 42.2908C20.5869 42.1308 21.8769 42.0008 23.1469 41.8108C23.1469 41.8108 21.9969 49.1608 21.9069 50.1708C21.6069 53.2808 21.5669 56.7108 22.9769 59.5708C22.9769 59.5708 23.4069 60.6508 24.0669 61.7008L23.5069 62.5408C23.5069 62.5408 23.4869 62.5608 23.4569 62.6108C23.1169 63.0608 20.9969 65.8408 18.6569 69.1808C18.4069 69.5408 18.1469 69.9108 17.8969 70.2808C17.8769 70.3108 17.8569 70.3408 17.8369 70.3708C17.5969 70.7208 17.3469 71.0808 17.1069 71.4408C17.0969 71.4608 17.0869 71.4808 17.0669 71.5008C16.8169 71.8708 16.5769 72.2408 16.3269 72.6108C16.2969 72.6508 16.2769 72.6908 16.2469 72.7308C16.0069 73.0908 15.7769 73.4508 15.5569 73.8008C15.5569 73.8108 15.5469 73.8208 15.5369 73.8308C15.3069 74.2008 15.0769 74.5608 14.8569 74.9208C14.8269 74.9608 14.8069 75.0108 14.7769 75.0508C14.5669 75.4008 14.3569 75.7508 14.1469 76.1008C13.9469 76.4508 13.7569 76.7808 13.5769 77.1108C13.5569 77.1508 13.5269 77.1908 13.5069 77.2308C13.3269 77.5508 13.1669 77.8708 13.0169 78.1708C12.6169 78.9608 12.3169 79.6708 12.1269 80.2608C12.1269 80.2808 12.1169 80.3008 12.1069 80.3208C12.0469 80.5108 11.9969 80.7008 11.9669 80.8808C11.9669 80.9008 11.9669 80.9108 11.9669 80.9208C11.9669 80.9408 11.9669 80.9608 11.9669 80.9808C11.9469 81.1108 11.9369 81.2408 11.9369 81.3608C11.9369 81.3708 11.9369 81.3808 11.9369 81.4008C11.9369 83.2008 13.7769 83.4608 13.9469 83.4808C14.1769 83.5208 14.4069 83.5408 14.6369 83.5308C15.4169 83.5108 16.1669 83.2708 16.9069 83.0208C22.7269 81.0808 28.3169 78.4808 33.5669 75.3108C36.5269 73.5208 39.3769 71.5508 42.2169 69.5908C43.6069 68.6308 44.9669 67.6508 46.2769 66.6108C48.2769 65.0308 50.2369 63.4108 52.1769 61.7708C53.5769 60.5808 54.9569 59.3708 56.2769 58.1108C57.2469 57.1908 58.1169 56.2008 58.9969 55.2108C61.5769 52.2908 64.2469 49.5508 65.4069 45.7308C65.8769 44.1808 66.1069 42.5508 66.1069 40.9308C66.1069 40.1008 66.0369 39.2808 65.9069 38.4608C65.8569 38.1408 65.7469 37.7808 65.6869 37.4308C65.6869 37.4308 65.5769 36.9708 65.3769 36.3208C66.2569 35.8608 66.8369 35.6108 66.8369 35.6108C67.2269 35.4408 67.6069 35.2708 67.9969 35.1008C68.7669 34.7708 69.5469 34.4508 70.3369 34.1408C70.7369 33.9808 71.1269 33.8308 71.5269 33.6808C71.9069 33.5408 72.2869 33.3808 72.6869 33.2608C72.8469 33.2108 73.0169 33.1708 73.1769 33.1308C73.3769 33.0908 73.6169 33.0708 73.7569 33.2608C73.8469 33.3808 73.8669 33.5308 73.8869 33.6708C73.9069 33.9308 73.8869 34.1908 73.8369 34.4508C73.8069 34.6408 73.7669 34.8308 73.7269 35.0208C72.7969 39.3608 71.9369 43.5508 71.1669 48.2908C70.8469 50.2908 70.5669 52.3008 70.7969 54.3208C70.9469 55.6608 71.4969 57.0208 72.5669 57.8508C72.9669 58.1708 73.5169 58.4108 73.9869 58.2108C74.5369 57.9808 74.6869 57.3308 74.8369 56.8208C75.0569 56.0908 75.3469 55.3708 75.5069 54.6308C77.4969 44.9708 85.0569 35.0508 85.0569 35.0508C86.7669 32.9308 88.6869 30.9708 90.7369 29.1808C91.6069 28.4208 92.5469 27.7508 93.5469 27.1708L93.5269 27.2008ZM43.0969 9.38077C49.4269 8.57077 51.8669 8.74077 52.5569 10.1108C52.5669 10.1308 52.5869 10.1508 52.5969 10.1708C52.5969 10.1908 52.6069 10.2108 52.6169 10.2308C52.6169 10.2508 52.6369 10.2608 52.6369 10.2808C52.6369 10.2908 52.6369 10.3008 52.6369 10.3108C52.9069 11.0908 52.3769 11.9608 51.9069 12.5508C51.7269 12.7808 51.5269 12.9908 51.3169 13.1908C51.3169 13.1908 51.3169 13.2008 51.2969 13.2108C48.4169 16.3608 30.7869 27.9308 30.7869 27.9308C31.4669 23.3608 31.6869 18.7508 31.7169 17.8308C31.7369 17.2408 31.7169 15.9508 31.6069 15.3308C31.5069 14.8008 31.2169 14.1808 30.8269 13.6708C30.8269 13.6708 30.3569 13.0808 29.7069 12.5608C37.7269 10.1308 43.0869 9.40077 43.0869 9.40077L43.0969 9.38077ZM26.8969 52.8008C27.0869 50.7508 27.4169 48.7208 27.7569 46.7008C27.9569 45.4708 28.1669 44.2308 28.3869 43.0008C28.4469 42.6308 28.5169 42.2708 28.5869 41.9008C28.5869 41.8908 28.5869 41.8808 28.5869 41.8708C28.5869 41.8708 28.6669 41.3208 28.7869 40.6208C29.2369 40.4608 29.5469 40.3408 29.5469 40.3408C30.9869 39.7708 47.7369 34.3108 54.8269 35.5008C54.2469 35.8808 53.7969 36.2208 53.7969 36.2208C53.2969 36.5808 52.8069 36.9408 52.3069 37.3008C48.7069 39.9108 45.1469 42.6008 41.6469 45.3408C40.7469 46.0408 39.8569 46.7608 38.9669 47.4808C37.3069 48.8308 35.6569 50.2508 34.0569 51.7008C32.8269 52.8208 31.6769 54.0108 30.5069 55.1908C29.3069 56.3908 28.0469 57.5308 26.8269 58.7108C26.5369 56.7608 26.7069 54.7608 26.8869 52.8108L26.8969 52.8008ZM60.6269 41.9008C60.6269 41.9008 60.6269 41.9008 60.6169 41.9108C59.9769 43.4408 58.4069 45.9908 54.7669 50.0808C48.0269 57.6508 32.8169 69.7508 23.7569 74.3908C20.8869 75.9808 26.1769 70.2508 26.4869 69.8808C26.7469 69.5608 39.1869 54.6608 52.7769 44.6608C52.7769 44.6608 52.8969 44.5808 53.0869 44.4408C53.6569 44.0308 54.2269 43.6208 54.7969 43.2308C56.6269 41.9308 59.2469 40.0908 60.6769 39.1408C60.6769 39.1408 60.7269 39.1108 60.7969 39.0608C60.8869 39.1708 60.9269 39.2508 60.9269 39.2508C61.1469 39.6308 61.2369 40.7208 60.6369 41.9008H60.6269Z" fill="#D7D7D7"/>
<path d="M274.137 13.3708C273.497 13.3408 272.897 13.4208 272.277 13.4608C271.267 13.5208 270.247 13.5808 269.237 13.6608C267.517 13.8008 265.827 13.9408 264.097 14.0808C258.747 14.5308 253.667 14.6108 251.167 14.6208C251.517 13.9508 251.767 13.4608 251.767 13.4608C252.267 12.6008 252.767 11.1708 252.947 10.1908C253.207 8.82077 253.177 7.35077 252.737 6.01077C252.517 5.34077 252.197 4.69077 251.767 4.13077C251.647 3.97077 251.177 3.40077 250.777 3.06077C249.637 2.17077 249.527 4.30077 244.287 13.4808L243.557 14.7408C236.767 14.8808 227.477 15.0408 227.447 15.0708C225.437 15.1708 223.417 15.2508 221.407 15.4008C220.107 15.4908 220.287 16.5508 220.547 17.5008C220.867 18.6808 221.367 19.8708 222.277 20.7308C223.517 21.9008 225.207 22.0208 226.817 21.9608C226.817 21.9608 232.987 21.8308 239.047 21.6008C238.417 22.4908 237.777 23.3808 237.587 23.6208C235.807 26.0908 233.987 28.5508 232.127 30.9608C230.697 32.8108 229.237 34.6408 227.737 36.4408C227.137 37.1508 226.537 37.8608 225.917 38.5608H225.927C223.027 41.9608 217.907 47.9108 216.857 46.8908C216.567 46.6408 216.477 45.7508 216.637 44.7608C216.837 43.5408 217.207 42.0708 217.477 41.2008C218.427 38.4408 219.897 35.3608 220.207 34.7408C220.907 33.3508 221.567 31.9408 222.117 30.4908C225.887 20.5808 217.457 22.4508 217.457 22.4508C215.807 22.8308 214.277 23.5708 212.777 24.3508C210.927 25.3208 209.197 26.5008 207.507 27.7308C206.657 28.3508 205.827 29.0108 204.957 29.6108C204.957 29.6108 204.767 29.7408 204.457 29.9308C204.377 29.3008 204.317 28.8608 204.317 28.8608C204.127 27.9508 204.147 27.4808 203.577 26.7008C203.047 25.9708 202.237 25.4208 201.337 25.3008C200.707 25.2208 200.067 25.3208 199.467 25.5008C197.687 26.0408 196.447 27.0708 194.837 28.6708C194.837 28.6708 188.197 35.9708 182.997 41.7708C177.557 47.3008 177.867 43.3608 177.867 43.3608C178.157 39.8108 183.807 32.9208 185.247 31.0608C185.627 30.5708 186.067 30.1508 186.417 29.6408C186.647 29.3108 186.747 28.6408 186.477 28.2708C185.797 27.3308 184.917 26.4408 183.997 25.6108C183.587 25.2408 182.877 24.9808 182.457 25.3508C182.127 25.6408 181.817 25.9508 181.487 26.2408C181.487 26.2408 181.297 26.4608 180.997 26.8108C177.057 20.3808 167.857 26.7108 167.857 26.7108C163.907 29.3308 161.307 33.2408 161.307 33.2408C161.307 33.2408 161.047 33.5308 160.687 34.0308C156.087 39.2608 150.147 44.7808 150.147 44.7808C144.377 49.9008 146.147 38.9808 146.147 38.9808C147.037 33.9208 149.757 30.0108 150.427 28.7308C150.447 28.6908 150.477 28.6408 150.497 28.5908C150.557 28.4808 150.597 28.4108 150.597 28.4108C150.947 27.7508 151.307 27.0608 151.257 26.3208C151.197 25.4808 150.517 24.7308 149.897 24.2308C149.537 23.9408 149.057 23.5608 148.567 23.6508C148.007 23.7608 147.567 24.2808 147.227 24.7008C140.617 32.9608 136.517 41.8208 134.437 43.4408C132.207 45.1808 131.997 42.0708 131.997 42.0708C131.957 41.8108 131.957 41.5808 131.957 41.4808C131.747 36.7708 132.907 29.6008 134.227 25.4508C134.457 24.7208 134.697 23.9908 134.947 23.2608C135.107 22.8008 135.227 22.4608 135.297 22.2708C135.337 22.1708 135.367 22.0608 135.407 21.9608C136.767 18.3208 138.247 14.7208 139.667 11.1108C140.107 9.99077 140.557 8.86077 140.997 7.74077C141.207 7.21077 141.377 6.66077 141.607 6.15077C141.827 5.64077 142.077 5.14077 142.167 4.59077C142.237 4.19077 142.017 3.50077 141.637 3.15077C140.477 2.04077 137.747 1.80077 136.907 3.98077C136.707 4.49077 136.517 4.98077 136.337 5.45077C135.197 8.29077 126.457 34.1308 118.167 43.2908C118.157 43.3008 118.147 43.3108 118.137 43.3308C118.077 43.3908 118.017 43.4708 117.957 43.5308C115.657 46.0408 115.447 40.7108 115.577 39.4008C115.597 39.2008 115.607 39.0108 115.637 38.8108C115.947 35.5008 117.237 30.9408 118.267 27.6608C118.597 26.5908 118.947 25.5208 119.317 24.4608C119.397 24.2108 119.467 24.0108 119.537 23.8408C119.877 22.8908 120.227 21.9408 120.597 21.0008C122.817 15.3608 125.597 9.94077 128.907 4.87077C129.367 4.17077 130.347 3.10077 130.157 2.19077C129.867 0.820769 128.567 -0.0292312 127.057 0.000768838C125.277 0.0407688 124.437 1.39077 123.747 2.83077C121.747 6.82077 119.947 10.9008 117.997 14.9108C115.267 20.5108 112.047 27.1908 109.347 31.6808C109.347 31.6808 100.877 45.3308 96.9069 49.7308C93.9069 53.4308 94.9869 47.5908 96.1369 43.4508C98.0869 36.4008 102.347 29.6708 102.347 29.6708C103.027 28.2508 102.577 27.2308 101.097 25.7408C101.077 25.7208 101.057 25.7008 101.037 25.6708C100.667 25.2808 99.6569 24.4708 99.0769 24.9608C98.7369 25.2508 98.4869 25.7308 98.2269 26.0908C98.1869 26.1408 98.1569 26.1908 98.1169 26.2408C91.0369 36.6208 89.9269 45.8108 90.0069 49.8608C90.0069 49.8608 89.9569 50.3008 90.1869 51.7308C90.9969 56.7408 94.3569 57.3308 96.6369 56.4908C96.8269 56.4208 97.0169 56.3408 97.1969 56.2408C97.5869 56.0408 97.9469 55.8108 98.2469 55.5508C99.0269 54.8808 100.727 52.7908 102.617 50.3408C104.277 48.2008 106.067 45.7908 107.517 43.8208C107.527 43.8008 107.547 43.7808 107.567 43.7608C107.847 43.3908 108.107 43.0308 108.347 42.7008C108.357 42.6808 108.377 42.6608 108.387 42.6508C108.637 42.3108 108.867 41.9908 109.087 41.6908C109.297 41.4008 109.487 41.1408 109.657 40.9008C109.917 40.5408 110.547 39.6508 111.017 38.9908C110.957 39.7408 110.907 40.3208 110.907 40.3208C110.947 41.5008 109.877 52.5908 115.407 52.8708C119.247 53.0708 126.277 39.7708 126.527 39.4608C126.527 39.4608 126.627 39.2908 126.777 39.0208C126.837 39.8208 126.897 40.3908 126.897 40.3908C126.917 40.8408 127.577 51.8608 132.027 51.7108C134.297 51.5808 138.077 46.3908 141.007 42.1708C141.057 42.8908 141.107 43.3908 141.107 43.3908C141.207 44.1008 141.697 51.4608 145.947 52.6508C149.437 53.6308 155.277 46.8908 158.047 43.4708C158.047 43.4708 158.157 43.3508 158.327 43.1508C158.327 43.3208 158.337 43.4308 158.337 43.4308C158.367 43.9208 158.397 45.1108 158.787 46.4108C159.467 48.6708 161.377 51.5308 164.537 51.3608C167.037 51.2208 169.157 49.7408 170.557 48.3308C170.957 47.9308 171.287 47.5708 171.537 47.3008C171.607 47.2208 171.677 47.1508 171.757 47.0708C171.757 47.0708 172.487 46.2308 173.297 45.2308C173.347 46.1508 173.447 46.8108 173.447 46.8108C173.447 46.8108 174.467 56.9408 183.587 47.9308C183.587 47.9308 191.817 38.7708 196.857 34.0908C195.907 36.0108 195.217 37.9108 195.217 37.9108C193.987 41.2108 193.687 43.6108 193.687 47.1008C193.687 48.7708 194.337 51.1908 196.027 50.8108C196.537 50.6908 196.927 50.2408 197.097 49.7908C197.617 48.4208 197.967 47.1908 198.627 45.8708C205.197 32.7008 212.267 30.5808 213.707 30.1908C215.097 29.8108 215.307 30.5408 215.307 30.5408C215.867 31.5208 214.207 35.1608 214.017 35.6308C213.217 37.5908 212.277 39.4508 211.737 41.5208C210.847 44.9608 210.227 49.9608 212.507 53.0308C213.767 54.7208 215.947 55.1108 217.847 54.3408C218.887 53.9208 219.797 53.2508 220.667 52.5408C225.427 48.6808 229.137 43.6208 232.967 38.8808C233.607 38.0908 236.447 34.6008 238.287 32.3508C236.567 39.6308 234.497 47.7008 233.357 54.8508C232.447 60.5008 232.677 61.8208 232.757 64.0108C232.807 65.5908 233.147 67.2608 233.717 68.7408C234.157 69.8508 234.547 71.1808 235.477 72.0008C236.607 72.9908 237.017 71.6108 237.067 70.6208C237.257 66.1008 237.977 61.6208 238.647 57.1508C239.297 52.8208 240.057 48.5108 241.027 44.2408C241.927 40.2908 242.987 36.3708 244.197 32.5008C244.767 30.6808 245.367 28.8708 246.007 27.0708C246.367 26.0608 246.737 25.0508 247.097 24.0408C247.097 24.0408 247.587 22.7508 248.287 21.1108C249.187 21.0908 249.887 21.0708 249.887 21.0708C260.727 20.7608 270.817 19.4708 270.817 19.4708C272.197 19.2308 274.337 19.0508 275.357 17.9708C275.837 17.4708 276.017 16.7408 276.007 16.0508C275.977 14.7808 275.647 13.4608 274.157 13.3908L274.137 13.3708ZM165.007 44.8508C162.217 44.2808 164.277 40.0508 165.397 38.1408C166.527 36.2208 169.237 32.3908 173.007 29.6608C176.777 26.9308 178.037 28.7108 177.947 29.6708C177.657 32.7408 168.467 45.5608 165.007 44.8508Z" fill="#D7D7D7"/>
</svg>
