<svg width="239" height="77" viewBox="0 0 239 77" fill="none" xmlns="http://www.w3.org/2000/svg">
<path d="M68.3964 0C64.8595 0 62.0097 2.87275 62.0097 6.43804C62.0097 10.0033 64.8595 12.8761 68.3964 12.8761C71.9333 12.8761 74.7831 10.0033 74.7831 6.43804C74.7831 2.87275 71.9333 0 68.3964 0ZM58.4982 17.7495C58.0402 17.3648 57.5313 17.0313 56.997 16.7748C56.4372 16.5183 55.8265 16.3644 55.1904 16.3644C53.7146 16.3901 52.2642 16.8774 51.0937 17.7752C49.6434 18.9037 48.3711 20.2632 47.3533 21.8021L46.2337 18.1599C46.1574 17.8521 45.9538 17.5956 45.6994 17.4161C45.4704 17.2109 45.165 17.1083 44.8597 17.0826H38.6511C38.2694 17.0826 37.8877 17.2365 37.6078 17.5443C37.3025 17.8264 37.1498 18.2368 37.1498 18.6472V46.1949C37.1244 46.6309 37.3025 47.0413 37.6078 47.3491C37.8877 47.6313 38.244 47.8108 38.6511 47.8108H47.4042C47.8113 47.8108 48.193 47.6569 48.4983 47.3491C48.8037 47.0413 48.9563 46.6309 48.9563 46.1949V30.5999C49.4907 29.9074 50.0759 29.2405 50.7121 28.6249C51.2464 27.9837 52.0097 27.5476 52.824 27.445C53.5873 27.445 54.4525 28.0606 55.3685 29.2662C55.6993 29.8048 56.31 30.0613 56.8952 29.9074C57.4804 29.7791 57.9385 29.2918 58.0657 28.6762L60.2794 20.0323C60.1013 19.6476 59.8723 19.2885 59.6178 18.9294C59.287 18.4933 58.9054 18.1086 58.4982 17.7495ZM73.7144 16.6722C73.46 16.544 73.2055 16.4157 72.9511 16.3388C72.7475 16.2618 72.5185 16.2105 72.3149 16.2105H64.0453C63.6636 16.2105 63.3074 16.3901 63.0784 16.6979C62.8239 17.0057 62.6967 17.4161 62.7221 17.8264V46.1436C62.7221 46.554 62.8494 46.9387 63.0784 47.2722C63.3074 47.58 63.6636 47.7595 64.0453 47.7595H73.3836C73.7399 47.7595 74.0706 47.58 74.2742 47.2722C74.5287 46.9644 74.6559 46.554 74.6559 46.1436V17.7752C74.6559 17.5443 74.5541 17.3135 74.4014 17.1596C74.147 16.98 73.9434 16.8005 73.7144 16.6722ZM95.7499 28.9584C94.1468 28.3941 92.5947 27.7528 91.068 27.009C90.1265 26.5217 89.6685 26.0343 89.6685 25.547C89.6939 25.2648 89.872 25.0083 90.1519 24.8801C90.5336 24.6749 90.9916 24.5723 91.4496 24.5723C93.0018 24.5979 94.5285 25.0083 95.9025 25.7522C96.7168 26.1369 97.3529 26.4704 97.8363 26.7268C98.2944 26.9833 98.6251 27.1629 98.7778 27.2398C99.2104 27.6246 99.8465 27.7015 100.355 27.4194C100.89 27.1372 101.195 26.5473 101.144 25.9574V19.6476C101.144 19.3141 101.042 19.0063 100.89 18.7242C100.763 18.442 100.534 18.2368 100.254 18.1342C99.7447 17.929 99.1849 17.6982 98.4979 17.4674C97.8363 17.2365 97.0984 17.0313 96.3096 16.8518C95.5208 16.6722 94.6812 16.5183 93.816 16.3901C92.9763 16.2618 92.1112 16.2105 91.2461 16.2105C89.5667 16.1849 87.8873 16.4157 86.2588 16.8261C84.8339 17.1852 83.4853 17.8265 82.2894 18.6729C81.068 19.5193 80.0757 20.6479 79.4396 22.0073C78.8034 23.4181 78.4981 24.957 78.549 26.496C78.3454 29.3944 79.694 32.1902 82.1113 33.8061C83.7398 34.9091 85.47 35.8068 87.3021 36.4737V36.4224C88.956 37.038 90.2792 37.5253 91.2461 37.9101C92.213 38.2948 92.6964 38.7308 92.6964 39.2182C92.6964 39.5003 92.4929 39.7055 92.1112 39.8338C91.6023 39.9877 91.068 40.039 90.5336 40.0133C88.4471 40.0133 86.3861 39.6029 84.4268 38.8334C83.3581 38.4487 82.493 38.1153 81.8314 37.8588C81.1698 37.6023 80.6609 37.3971 80.3556 37.2432C79.8721 36.961 79.236 36.9867 78.778 37.3458C78.3454 37.7049 78.1164 38.2692 78.2182 38.8334L78.9052 45.3997C78.9561 45.7075 79.0833 45.9897 79.2869 46.1949C79.465 46.4257 79.694 46.5796 79.9739 46.6822C81.6787 47.2465 83.4344 47.6569 85.1901 47.939C87.2003 48.2468 89.2359 48.4007 91.2461 48.4007C94.5285 48.6059 97.7855 47.6825 100.508 45.8358C102.747 44.0916 103.994 41.3215 103.841 38.4744C103.918 36.3454 103.154 34.2422 101.729 32.6775C100.05 31.0103 98.0399 29.7278 95.8007 28.9584M132.213 16.5953C130.381 15.8001 128.421 15.3897 126.411 15.441C124.248 15.441 122.111 15.9284 120.152 16.8261V16.7748C119.821 16.9287 119.541 17.057 119.287 17.1852C119.032 17.3135 118.752 17.4417 118.472 17.5956V2.7958C118.472 2.35976 118.294 1.97502 117.989 1.66722C117.709 1.35943 117.302 1.17988 116.869 1.17988H107.709C107.276 1.17988 106.895 1.35943 106.589 1.66722C106.284 1.94937 106.106 2.35976 106.106 2.7958V46.0923C106.131 46.9644 106.818 47.6825 107.684 47.6825H112.544C112.823 47.6825 113.078 47.5799 113.307 47.426C113.561 47.2722 113.765 47.067 113.918 46.8361L115.393 44.1173C115.851 44.4764 116.309 44.8098 116.767 45.1432C117.225 45.4767 117.734 45.8101 118.243 46.2205C120.559 47.7338 123.281 48.4777 126.03 48.3494C129.999 48.5033 133.816 46.7848 136.36 43.7069C138.981 40.3468 140.279 36.1659 140.075 31.9081C140.304 27.6759 139.032 23.4694 136.487 20.0836C135.393 18.5703 133.892 17.3904 132.213 16.5953ZM127.175 37.4997C126.488 38.7052 125.241 39.4234 123.867 39.4234C122.62 39.4234 121.373 39.0386 120.33 38.3461H120.381C119.948 38.064 119.592 37.8075 119.261 37.5766C118.956 37.3458 118.676 37.1406 118.472 36.961V26.06C118.625 25.9574 118.778 25.8804 118.956 25.8291C119.21 25.7265 119.465 25.5726 119.694 25.4187C120.584 24.9057 121.577 24.6236 122.62 24.6236C124.325 24.521 125.953 25.2905 126.971 26.6499C128.065 28.3941 128.599 30.446 128.447 32.5237C128.523 34.2678 128.091 35.9863 127.175 37.4997ZM26.1067 16.1849C24.2746 15.3897 22.3153 14.9793 20.3052 15.0306C18.1423 15.0306 16.005 15.518 14.0457 16.4157V16.3644C13.7149 16.4927 13.435 16.6466 13.1806 16.7492C12.9261 16.8518 12.6462 17.0057 12.3663 17.1596V6.97668C12.3663 6.89973 12.3409 6.82279 12.3154 6.72019V2.8984C12.29 2.02632 11.603 1.30813 10.7378 1.30813H1.5776C1.14503 1.30813 0.763353 1.48767 0.458012 1.79547C0.152671 2.10326 0 2.48801 0 2.92405V13.0556H0.0254451V45.7332C0.0254451 46.1692 0.203561 46.554 0.508902 46.8618C0.788798 47.1696 1.19592 47.3491 1.60304 47.3491H6.4885C6.76839 47.3491 7.02284 47.2465 7.25185 47.0926C7.48085 46.9387 7.70986 46.7335 7.86253 46.5027L9.33835 43.7838C9.79636 44.1429 10.2544 44.4764 10.7124 44.8098C11.1704 45.1432 11.6793 45.4767 12.1882 45.8871C14.5037 47.4004 17.2263 48.1442 19.9744 48.016C23.9438 48.1442 27.7606 46.4514 30.3051 43.3734C32.9005 40.0133 34.2236 35.8324 34.0201 31.5746C34.2236 27.3424 32.9514 23.1616 30.4069 19.7758C29.3127 18.1855 27.8115 16.98 26.1067 16.1849ZM21.094 37.0893C20.407 38.2948 19.1601 39.013 17.7861 39.013C16.5393 39.013 15.2925 38.6282 14.2492 37.9357H14.3001C13.8676 37.6536 13.5113 37.3971 13.1806 37.1662C12.8498 36.9354 12.5953 36.7302 12.3918 36.5506V25.6496C12.5444 25.547 12.6971 25.47 12.8752 25.4187C13.1297 25.2905 13.3841 25.1622 13.6131 25.0083C14.5037 24.4953 15.4961 24.2132 16.5393 24.2132C18.2441 24.1106 19.8726 24.8801 20.8904 26.2395C21.9846 27.9837 22.5189 30.0356 22.3662 32.1133C22.4426 33.8831 21.9846 35.6016 21.094 37.0893ZM174.528 40.988C174.248 40.7828 173.917 40.6802 173.561 40.6802L173.179 40.4237L172.823 40.0903V29.1379C172.874 27.0859 172.569 25.0596 171.907 23.1359C171.373 21.5713 170.406 20.1606 169.133 19.1089C167.759 18.006 166.131 17.2365 164.401 16.8518C162.187 16.3388 159.897 16.1079 157.632 16.1336C156.08 16.1336 154.553 16.2618 153.027 16.5696C151.602 16.8518 150.202 17.2365 148.854 17.7495C147.734 18.1855 146.64 18.6729 145.597 19.2115C144.935 19.545 144.325 19.9554 143.765 20.4171C143.561 20.6479 143.434 20.93 143.358 21.2122C143.256 21.52 143.281 21.8791 143.383 22.1869L145.393 26.8294C145.571 27.2398 145.902 27.5733 146.309 27.7015C146.716 27.8554 147.174 27.8298 147.556 27.6246C148.167 27.3424 148.803 27.0603 149.464 26.7781C150.126 26.496 150.864 26.1882 151.678 25.8804C152.518 25.547 153.383 25.2905 154.274 25.1366C155.139 24.9827 156.029 24.9314 156.92 24.9314C157.963 24.8801 158.981 25.1622 159.846 25.7265C160.584 26.3165 160.991 27.2398 160.966 28.1889L156.513 27.958C154.477 27.8298 152.416 28.035 150.457 28.5736C148.727 29.061 147.073 29.8048 145.546 30.7795C142.823 32.4211 141.169 35.3964 141.144 38.577C141.017 41.2445 142.085 43.8351 144.045 45.6306C146.411 47.5286 149.414 48.452 152.441 48.2468C154.299 48.2468 156.156 47.9647 157.963 47.4517C159.719 46.9387 161.424 46.2718 163.052 45.4254C163.23 45.6306 163.408 45.8358 163.612 46.0153C163.815 46.1949 164.019 46.4001 164.273 46.6053C165.597 47.6825 167.251 48.2468 168.93 48.1955L174.553 43.5017C174.833 43.2965 175.062 42.9887 175.139 42.6552C175.215 42.3474 175.189 42.0396 175.088 41.7318C174.986 41.4241 174.782 41.1676 174.528 40.988ZM161.144 38.4487L160.355 38.8078C160.075 38.936 159.744 39.0643 159.388 39.2182C158.167 39.6799 156.869 39.9364 155.571 39.9107C153.765 39.9107 152.874 39.4747 152.874 38.577C152.874 36.8328 161.144 35.9607 161.144 35.9607V38.4487ZM197.785 15.8258C195.876 15.8258 193.993 16.1336 192.187 16.7235C190.431 17.3135 188.777 18.1599 187.276 19.2372L186.054 17.2109C185.876 17.0057 185.647 16.8261 185.418 16.7235C185.215 16.5953 184.96 16.5183 184.731 16.5183H178.294C177.454 16.5183 176.767 17.2109 176.742 18.0573V45.6049C176.716 46.041 176.894 46.4514 177.2 46.7592C177.479 47.067 177.887 47.2209 178.294 47.2209H187.352C187.759 47.2209 188.166 47.067 188.472 46.7592C188.777 46.477 188.955 46.041 188.955 45.6049V27.2911C189.184 27.1372 189.439 27.009 189.693 26.9064L190.711 26.4447H190.66C191.22 26.1626 191.805 25.9574 192.416 25.8035C192.976 25.6496 193.586 25.5983 194.171 25.5983C194.782 25.5983 195.316 25.983 195.52 26.573C195.851 27.3681 196.003 28.2145 195.953 29.0866V45.6562C195.953 46.0923 196.105 46.5027 196.436 46.8105C196.741 47.1183 197.123 47.2722 197.556 47.2722H206.614C207.021 47.2722 207.428 47.1183 207.734 46.8105C208.039 46.5283 208.217 46.0923 208.217 45.6562V27.3168C208.421 24.2388 207.505 21.2122 205.647 18.7755C203.535 16.6722 200.685 15.5949 197.785 15.8258ZM238.522 35.6272C238.828 35.3195 238.98 34.9347 238.98 34.4987V32.1389C239.184 27.9837 237.81 23.931 235.163 20.7505C232.543 17.7752 228.726 16.1336 224.782 16.2618C220.787 16.1336 216.919 17.7495 214.197 20.6992C211.372 23.6746 209.871 27.7015 210.024 31.8055C209.769 36.3454 211.474 40.7828 214.68 43.989C218.115 47.0157 222.568 48.6059 227.123 48.3751C228.141 48.3751 229.184 48.3238 230.202 48.1955C231.194 48.0673 232.186 47.8877 233.179 47.6569C234.095 47.4517 234.985 47.1696 235.85 46.8361C236.614 46.554 237.352 46.1692 238.039 45.7075L238.675 43.7838L236.716 38.7565C236.537 38.3718 236.232 38.064 235.85 37.9101C235.469 37.7305 235.036 37.7305 234.655 37.9101C234.426 38.0127 234.171 38.1153 233.917 38.1666C233.56 38.2692 233.077 38.4231 232.441 38.6026C231.245 38.936 230.024 39.0899 228.777 39.0899C226.817 39.2951 224.858 38.7308 223.306 37.4997C222.899 37.1149 222.568 36.6276 222.339 36.1146H237.454C237.861 36.1146 238.242 35.935 238.522 35.6272ZM221.856 29.0097C221.957 28.1376 222.212 27.2911 222.594 26.496C222.924 25.6239 223.79 25.034 224.706 25.0596C225.443 25.0596 226.105 25.47 226.461 26.1113C226.996 27.009 227.301 28.0093 227.352 29.0353L221.856 29.0097Z" fill="#D7D7D7"/>
<path d="M10.5088 72.6909C10.5343 72.8448 10.5597 72.973 10.5597 73.1269C10.5597 73.2552 10.4834 73.3834 10.3561 73.4347C10.2798 73.486 10.178 73.486 10.0763 73.486H8.70222C8.57499 73.486 8.47321 73.486 8.34599 73.486C8.24421 73.486 8.16787 73.4604 8.09154 73.3834C7.98976 73.3321 7.91342 73.2552 7.88797 73.1526C7.83708 73.05 7.78619 72.973 7.70986 72.8961C7.68441 72.8704 7.63352 72.8448 7.60808 72.8191C7.55719 72.7935 7.5063 72.7935 7.45541 72.8191C7.37907 72.8448 7.32818 72.8704 7.27729 72.9217C7.2264 72.973 7.15007 72.9987 7.09918 73.0243C7.02284 73.0756 6.94651 73.1269 6.87017 73.1526L6.64117 73.2808C6.46305 73.3578 6.28493 73.4347 6.10682 73.4604C5.9287 73.5117 5.72514 73.563 5.52158 73.6143C5.44525 73.6399 5.34347 73.6656 5.26713 73.6656C5.1908 73.6656 5.08902 73.6912 4.98724 73.6912C4.93635 73.6912 4.9109 73.6912 4.86001 73.6912C4.80912 73.6912 4.78367 73.6912 4.73278 73.6912H4.50378C4.37655 73.7169 4.24933 73.7169 4.09666 73.6912H3.8931C3.81676 73.6656 3.71498 73.6656 3.63865 73.6656C3.56231 73.6656 3.46053 73.6656 3.3842 73.6399L3.00252 73.563C2.90074 73.5373 2.77351 73.5117 2.67173 73.4604C2.3155 73.3321 1.98472 73.1269 1.67938 72.8961C1.39948 72.6396 1.17047 72.3318 1.04325 71.9727C0.992358 71.8701 0.966913 71.7675 0.941468 71.6649C0.916023 71.5623 0.865133 71.4597 0.839688 71.3314C0.814243 71.2801 0.814243 71.2032 0.814243 71.1262C0.814243 71.0493 0.814243 70.998 0.814243 70.9211C0.788798 70.8441 0.788797 70.7672 0.788797 70.6646C0.788797 70.562 0.788797 70.485 0.788797 70.3824C0.814242 70.2798 0.839688 70.1772 0.839688 70.049C0.890578 69.8951 0.916023 69.7412 0.966913 69.5873C0.992358 69.459 1.06869 69.3051 1.11958 69.1769C1.2977 68.8178 1.57759 68.5356 1.88294 68.3048C2.21372 68.0739 2.5954 67.8944 2.97707 67.7918C3.15519 67.7149 3.33331 67.6636 3.51142 67.6379C3.68954 67.6123 3.86765 67.5866 4.07121 67.5353C4.17299 67.5097 4.27477 67.484 4.402 67.484C4.52922 67.484 4.631 67.4584 4.75823 67.4327C4.86001 67.4071 4.93635 67.4071 5.03813 67.4071C5.13991 67.4071 5.24169 67.4071 5.34347 67.3814C5.44525 67.3558 5.52158 67.3558 5.62336 67.3301C5.72514 67.3301 5.82692 67.3045 5.9287 67.2788C6.2086 67.2019 6.46305 67.1506 6.69206 67.0993C6.92106 67.048 7.15007 66.9197 7.32818 66.7402C7.42996 66.6376 7.5063 66.4837 7.55719 66.3298C7.55719 66.3041 7.55719 66.2528 7.55719 66.2272C7.55719 66.2015 7.55719 66.1759 7.55719 66.1502C7.58263 66.1246 7.58263 66.0733 7.58263 66.022V65.8937C7.55719 65.8424 7.55719 65.7911 7.55719 65.7398C7.48085 65.2781 7.15007 64.8934 6.69206 64.7652C6.56483 64.7139 6.41216 64.6882 6.25949 64.6626C6.08137 64.6626 5.9287 64.6626 5.75059 64.6626C5.59792 64.6626 5.4198 64.6882 5.26713 64.7139C5.11446 64.7395 4.98724 64.7652 4.86001 64.8165C4.78368 64.8421 4.70734 64.8678 4.631 64.9191L4.42744 65.073C4.35111 65.1499 4.27477 65.2012 4.22388 65.2781C4.14755 65.3551 4.09666 65.4577 4.07121 65.5346C3.99488 65.6629 3.94399 65.7911 3.8931 65.9194C3.84221 66.0476 3.74043 66.1246 3.6132 66.1502C3.51142 66.1759 3.40964 66.2015 3.28242 66.2015H1.98472C1.93383 66.2015 1.85749 66.2015 1.8066 66.2015H1.62849C1.60304 66.2015 1.55215 66.1759 1.5267 66.1759C1.50126 66.1759 1.45037 66.1502 1.42492 66.1246C1.32314 66.0733 1.22136 65.9963 1.22136 65.8681C1.19592 65.7911 1.19592 65.7398 1.22136 65.6629L1.27225 65.4833C1.2977 65.3551 1.34859 65.2012 1.39948 65.073C1.45037 64.9447 1.50126 64.8421 1.57759 64.7139C1.62849 64.6369 1.65393 64.5856 1.70482 64.5087C1.75571 64.4317 1.78116 64.3804 1.83205 64.3035C1.95927 64.1496 2.0865 64.0213 2.23917 63.8931C2.29006 63.8674 2.3155 63.8418 2.36639 63.7905C2.44273 63.7392 2.49362 63.6879 2.54451 63.6366L2.72262 63.5083C2.95163 63.3544 3.18063 63.2518 3.43509 63.1492C3.68954 63.0723 3.94399 62.9697 4.19844 62.8927C4.35111 62.8671 4.52922 62.8158 4.68189 62.8158C4.86001 62.7901 5.03813 62.7645 5.1908 62.7388C5.26713 62.7132 5.36891 62.7132 5.44525 62.7388C5.54703 62.7388 5.62336 62.7388 5.64881 62.7132C6.15771 62.6875 6.69206 62.7132 7.20096 62.7645C7.65897 62.8158 8.11698 62.9184 8.54955 63.0723C8.93122 63.2005 9.28745 63.4057 9.5928 63.6622C9.89814 63.9187 10.1271 64.2522 10.2544 64.6113C10.3561 64.8678 10.407 65.1243 10.407 65.3807C10.407 65.6629 10.4325 65.9707 10.4325 66.2785V71.4853C10.4325 71.7162 10.4579 71.9727 10.5088 72.2035C10.5343 72.2548 10.5343 72.2805 10.5343 72.3318C10.4834 72.6139 10.4834 72.6652 10.5088 72.6909ZM7.60808 69.6129C7.63352 69.459 7.63352 69.3051 7.60808 69.1512C7.58263 69.0743 7.55719 68.9973 7.55719 68.946C7.55719 68.8947 7.53174 68.8178 7.48085 68.7921C7.40452 68.7408 7.27729 68.7152 7.17551 68.7152L7.04829 68.7408C6.9974 68.7408 6.94651 68.7665 6.89562 68.7665C6.79384 68.7921 6.69206 68.8178 6.59028 68.8178C6.4885 68.8178 6.38672 68.8434 6.25949 68.8691C6.2086 68.8947 6.13226 68.8947 6.08137 68.8947C5.90326 68.946 5.75059 68.9717 5.57247 68.9717C5.39436 68.9717 5.24169 69.023 5.08902 69.0743L4.78368 69.1512C4.6819 69.1769 4.60556 69.2025 4.50378 69.2538C4.22388 69.3821 3.99488 69.5616 3.79132 69.7925C3.58776 70.0746 3.51142 70.4337 3.58776 70.7928C3.6132 70.998 3.68954 71.1776 3.81676 71.3571C3.91854 71.511 4.07121 71.6392 4.22388 71.7162C4.42744 71.7931 4.631 71.8701 4.83457 71.8957C5.06357 71.947 5.29258 71.947 5.52158 71.9214C5.75059 71.8957 5.97959 71.8701 6.2086 71.7931C6.51394 71.7162 6.79384 71.5366 7.02284 71.2801C7.2264 71.0237 7.37907 70.7415 7.48085 70.4081C7.5063 70.3055 7.53174 70.2285 7.53174 70.1259C7.53174 70.0233 7.55719 69.9207 7.58263 69.8181L7.60808 69.6129Z" fill="#D7D7D7"/>
<path d="M13.1297 63.2005H14.6055C14.7327 63.2005 14.8599 63.2005 15.0126 63.2262C15.1144 63.2262 15.2162 63.2775 15.2671 63.3544C15.3434 63.457 15.3688 63.5596 15.3943 63.6879C15.4197 63.8161 15.4197 63.97 15.4197 64.1239V68.4843C15.4197 68.9717 15.4452 69.4077 15.4706 69.8438C15.4961 70.2285 15.6233 70.5876 15.8268 70.8954C16.0558 71.2032 16.3612 71.4084 16.7174 71.4853C16.7683 71.511 16.8192 71.511 16.8701 71.511C16.921 71.511 16.9719 71.511 17.0482 71.511C17.1245 71.5366 17.2009 71.5366 17.2772 71.5366C17.3281 71.5366 17.4044 71.5366 17.4553 71.511C17.5062 71.4853 17.5571 71.4853 17.6334 71.511C17.6843 71.511 17.7352 71.511 17.7861 71.4853C18.0151 71.434 18.2187 71.3571 18.4222 71.2289C18.6512 71.1006 18.8548 70.8954 18.982 70.6646C19.1347 70.4337 19.211 70.1516 19.2874 69.8951C19.3637 69.5873 19.3892 69.2538 19.3892 68.946C19.4146 68.5869 19.4146 68.2278 19.4146 67.8431V63.7905C19.4146 63.6879 19.44 63.5853 19.4909 63.4827C19.5418 63.3544 19.669 63.2775 19.7963 63.2775C19.9489 63.2518 20.1016 63.2518 20.2797 63.2518H21.7047C21.8064 63.2518 21.9082 63.2775 22.01 63.3288C22.1118 63.3801 22.1881 63.5083 22.1881 63.6366C22.1881 63.7648 22.2136 63.9187 22.2136 64.0983V73.05C22.2136 73.1526 22.1881 73.2552 22.1372 73.3578C22.0609 73.4604 21.9591 73.5373 21.8319 73.5373C21.7047 73.5373 21.552 73.563 21.4248 73.563H20.3561C20.2288 73.563 20.1016 73.563 19.9744 73.5373C19.8726 73.5373 19.7708 73.4604 19.7199 73.3834C19.6945 73.3321 19.669 73.2808 19.6436 73.2039L19.5927 72.973C19.5673 72.8961 19.5418 72.8191 19.5164 72.7678C19.4909 72.7165 19.4655 72.6652 19.3892 72.6396C19.3637 72.6139 19.3128 72.6139 19.2874 72.6139C19.2619 72.6139 19.211 72.6396 19.1856 72.6652C19.1093 72.7165 19.0075 72.7678 18.9566 72.8448C18.8803 72.8961 18.8294 72.973 18.753 73.0243C18.7021 73.0756 18.6512 73.1013 18.6004 73.1526C18.5495 73.2039 18.4986 73.2552 18.4222 73.2808C18.0915 73.486 17.7352 73.6399 17.3535 73.7169C17.2518 73.7425 17.1754 73.7682 17.0737 73.7682C16.9719 73.7682 16.8701 73.7938 16.7683 73.8194C16.7174 73.8194 16.6665 73.8194 16.5902 73.8194C16.5393 73.8194 16.4884 73.8194 16.4121 73.8194C16.3357 73.8451 16.234 73.8451 16.1576 73.8194C16.0813 73.8194 15.9795 73.8195 15.9032 73.7938C15.8268 73.7938 15.776 73.7938 15.6996 73.7938H15.4961C15.3434 73.7425 15.1907 73.7169 15.038 73.6912C14.8854 73.6656 14.7327 73.6143 14.6055 73.563C14.5291 73.5373 14.4783 73.5117 14.4274 73.486L14.2492 73.4091C13.7912 73.1526 13.4096 72.7935 13.1297 72.3574C12.9515 72.0496 12.8243 71.7162 12.748 71.3571C12.6717 70.9467 12.6208 70.5107 12.5953 70.1003C12.5699 69.6642 12.5699 69.2025 12.5699 68.7152C12.5699 68.2278 12.5699 67.7662 12.5699 67.3045V64.5856C12.5699 64.4061 12.5699 64.2009 12.5699 63.97C12.5444 63.7905 12.5953 63.6109 12.6717 63.457C12.7225 63.3801 12.8243 63.3031 12.9007 63.2775C13.0024 63.2262 13.0533 63.2262 13.1297 63.2005Z" fill="#D7D7D7"/>
<path d="M28.2186 62.9184C29.0837 62.8671 29.9489 62.9953 30.7885 63.2518C31.4756 63.457 32.0608 63.9187 32.4679 64.5087C32.5697 64.6626 32.646 64.7908 32.7224 64.9447C32.7987 65.0986 32.875 65.2782 32.9005 65.4577C32.9259 65.5346 32.9514 65.6372 32.9514 65.7142C32.9514 65.7911 32.9514 65.8681 32.9005 65.945C32.8496 66.022 32.7733 66.0733 32.6715 66.0989C32.5951 66.1246 32.5188 66.1502 32.4425 66.1502H31.2975C31.1957 66.1502 31.1193 66.1502 31.0176 66.1502C30.9412 66.1502 30.8394 66.1502 30.7631 66.1246C30.6359 66.0989 30.5341 66.0476 30.4578 65.9707C30.3814 65.8937 30.3305 65.8168 30.2796 65.7142C30.2288 65.6372 30.1779 65.5346 30.127 65.432C30.0761 65.3294 29.9998 65.2525 29.9234 65.1756C29.7962 65.073 29.669 64.996 29.5417 64.9447C29.3891 64.8934 29.2364 64.8421 29.0837 64.8165C28.9565 64.7908 28.8038 64.7652 28.6766 64.7652C28.5494 64.7395 28.3967 64.7652 28.2695 64.7908H28.1423L27.9641 64.8421L27.786 64.8678C27.5825 64.9191 27.4044 65.0217 27.2517 65.1499C27.099 65.2781 26.9972 65.4577 26.9718 65.6629C26.9463 65.7398 26.9463 65.8424 26.9718 65.9194C26.9972 65.9963 27.0227 66.0476 27.0481 66.1246C27.1245 66.2785 27.2262 66.4067 27.3789 66.5093C27.5061 66.6119 27.6588 66.6889 27.8115 66.7402C28.0659 66.8428 28.3458 66.9454 28.6257 66.9967C28.9311 67.0736 29.2364 67.1506 29.5417 67.2019C29.8471 67.2532 30.1524 67.3301 30.4578 67.4071C30.7377 67.484 31.0176 67.561 31.2975 67.6892C31.3992 67.7405 31.5265 67.7918 31.6537 67.8175C31.7555 67.8431 31.8827 67.8944 31.9845 67.9714C32.2389 68.1253 32.4679 68.3048 32.6715 68.4843C32.875 68.6895 33.0532 68.9204 33.1549 69.1769C33.2058 69.2795 33.2313 69.3564 33.2567 69.459C33.2822 69.5616 33.3076 69.6386 33.3331 69.7668C33.3585 69.8951 33.3585 70.0233 33.3585 70.1516C33.3585 70.2798 33.3585 70.4081 33.3585 70.5363V70.6389C33.3331 70.7159 33.3076 70.7928 33.3076 70.8698C33.3076 70.9467 33.2822 71.0237 33.2822 71.075C33.2058 71.4597 33.0532 71.8188 32.8496 72.1266C32.646 72.4344 32.3916 72.6909 32.0862 72.8961C31.7555 73.1013 31.4247 73.2808 31.0684 73.4091C30.9158 73.486 30.7631 73.5117 30.6104 73.5373C30.4323 73.563 30.2796 73.5886 30.127 73.6399C29.9997 73.6656 29.8725 73.6912 29.7707 73.6912C29.6435 73.6912 29.5163 73.7169 29.4145 73.7425H29.0583C28.7784 73.7938 28.5239 73.7938 28.244 73.7425H28.1168C28.0659 73.7425 28.015 73.7425 27.9641 73.7425C27.8115 73.7169 27.6334 73.6912 27.4807 73.6912C27.328 73.6656 27.1753 73.6399 27.0227 73.6143C26.5647 73.486 26.1067 73.3065 25.6486 73.1013C25.2415 72.8961 24.9107 72.6139 24.6308 72.2292C24.4273 71.947 24.2746 71.6649 24.1474 71.3571C24.1219 71.2545 24.0965 71.1519 24.071 71.0237C24.0456 70.9211 24.0202 70.8441 24.0202 70.7415C23.9947 70.6389 24.0202 70.5363 24.0456 70.4337C24.071 70.3311 24.1474 70.2798 24.2492 70.2285C24.3255 70.2029 24.4018 70.1772 24.4782 70.1772H26.0303C26.1321 70.1772 26.2084 70.1772 26.3102 70.2285C26.4374 70.2542 26.5392 70.3568 26.5901 70.485C26.641 70.6133 26.6919 70.7415 26.7682 70.8698C26.8191 70.9724 26.87 71.0493 26.9209 71.1262C26.9718 71.2032 27.0227 71.2801 27.099 71.3314C27.2262 71.4597 27.4044 71.5623 27.557 71.6649C27.7351 71.7418 27.9133 71.8188 28.1168 71.8701C28.1677 71.8957 28.244 71.9214 28.3204 71.8957C28.3967 71.8957 28.4476 71.8957 28.5239 71.8957C28.6257 71.9214 28.7529 71.9214 28.8802 71.9214C28.9819 71.9214 29.1092 71.8957 29.211 71.8701C29.2618 71.8444 29.3382 71.8444 29.3891 71.8444C29.4654 71.8444 29.5163 71.8188 29.5672 71.7931C29.7453 71.7418 29.898 71.6392 30.0761 71.5623C30.2288 71.4597 30.356 71.3571 30.4323 71.2032C30.5087 71.0493 30.5595 70.8698 30.585 70.7159C30.6104 70.6389 30.6104 70.5363 30.585 70.4594C30.5595 70.3824 30.5341 70.3311 30.5086 70.2542C30.4323 70.0746 30.3051 69.9464 30.1524 69.8438C29.9998 69.7412 29.8471 69.6642 29.669 69.5873C29.4145 69.4847 29.1601 69.3821 28.8802 69.3308C28.6003 69.2538 28.3204 69.2025 28.0405 69.0999C27.9387 69.0743 27.8369 69.0486 27.7097 69.0486C27.6079 69.023 27.5061 69.023 27.3789 68.9973L26.1575 68.6382C25.7759 68.5356 25.4196 68.3561 25.1143 68.1253C24.7326 67.8688 24.4527 67.484 24.3001 67.048C24.2746 66.9197 24.2492 66.7915 24.2237 66.6632C24.1983 66.5606 24.1728 66.4324 24.1728 66.3298C24.1474 66.2015 24.1728 66.0733 24.1983 65.9707C24.2237 65.9194 24.2237 65.8681 24.2237 65.7911C24.1983 65.7398 24.2237 65.6629 24.2492 65.6116C24.2746 65.4577 24.3001 65.3295 24.3255 65.2012C24.3509 65.073 24.4018 64.9447 24.4527 64.8421C24.6054 64.483 24.8598 64.1496 25.1652 63.8931C25.4705 63.6622 25.8268 63.457 26.183 63.3031C26.3357 63.2262 26.4883 63.1749 26.641 63.1492C26.7937 63.1236 26.9718 63.0723 27.1245 63.0466C27.2008 63.021 27.2771 62.9953 27.3535 62.9953L27.5825 62.9697C27.6842 62.9697 27.786 62.944 27.9133 62.944C27.9896 62.944 28.0914 62.944 28.2186 62.9184Z" fill="#D7D7D7"/>
<path d="M36.3101 60.1226H37.6333C37.8114 60.1226 37.9895 60.1226 38.1676 60.1482C38.3203 60.1739 38.4475 60.2508 38.4984 60.4047C38.5239 60.4817 38.5493 60.5586 38.5493 60.6356V61.8155C38.5493 61.8924 38.5493 61.9437 38.5493 62.0463C38.5493 62.1233 38.5493 62.2002 38.5493 62.2772V62.4823C38.5493 62.5849 38.5493 62.6875 38.5747 62.7645C38.6002 62.8414 38.6256 62.9184 38.6765 62.9953C38.8037 63.1236 38.9819 63.2005 39.1854 63.1749C39.4399 63.1749 39.6689 63.1749 39.8979 63.1749H40.1269C40.2032 63.1749 40.2796 63.2005 40.3559 63.2262C40.5086 63.2775 40.5849 63.4314 40.6103 63.5853C40.6358 63.7648 40.6358 63.97 40.6358 64.1752C40.6358 64.2778 40.6358 64.3548 40.6358 64.4574C40.6358 64.5343 40.6358 64.6113 40.6103 64.6882C40.5595 64.8934 40.4068 65.0217 40.2032 65.0217C39.9997 65.0217 39.7452 65.0473 39.4908 65.0473H39.3126C39.2618 65.0473 39.2109 65.0473 39.16 65.0473C39.1091 65.0473 39.0582 65.0473 39.0328 65.0473C38.9819 65.0473 38.9564 65.0473 38.9055 65.073C38.8037 65.0986 38.7274 65.1499 38.6765 65.2525C38.6256 65.3551 38.5747 65.4577 38.5747 65.5859C38.5493 65.6629 38.5493 65.7398 38.5747 65.7911C38.6002 65.8681 38.6002 65.945 38.5747 66.022V69.5873C38.5747 69.9207 38.5747 70.2029 38.6002 70.4594C38.6256 70.6902 38.702 70.9211 38.8546 71.1006C38.931 71.1776 39.0073 71.2288 39.1091 71.2801C39.2109 71.3058 39.3381 71.3571 39.4653 71.3571C39.5162 71.3571 39.5417 71.3571 39.5925 71.3571C39.618 71.3571 39.6689 71.3571 39.6943 71.3571H39.9488C40.1014 71.3571 40.2287 71.3571 40.3305 71.3571C40.4322 71.3827 40.534 71.434 40.5849 71.511C40.6358 71.6136 40.6612 71.7162 40.6612 71.8188V72.2548C40.6612 72.537 40.6612 72.7935 40.6612 73.0243C40.6612 73.2295 40.534 73.4347 40.3305 73.486C40.2796 73.5117 40.2032 73.5117 40.1523 73.5117C40.1014 73.5117 40.0251 73.5117 39.9742 73.5373H39.618C39.5671 73.5373 39.5162 73.5373 39.4908 73.5373C39.4144 73.5373 39.3635 73.5373 39.2872 73.5373H39.0836C39.0073 73.5373 38.9564 73.5373 38.8801 73.5373C38.8292 73.5373 38.7529 73.5373 38.702 73.5373H38.473C38.3966 73.5117 38.3203 73.5117 38.244 73.5117C38.1676 73.5117 38.0913 73.5117 38.0404 73.486L37.7859 73.4347C37.7096 73.4347 37.6333 73.4091 37.5569 73.3834C37.4043 73.3578 37.277 73.3065 37.1498 73.2552C37.0226 73.2039 36.8954 73.1526 36.7681 73.0756L36.6409 72.9987C36.59 72.973 36.5646 72.9217 36.5137 72.8961C36.4628 72.8448 36.4628 72.8448 36.4119 72.8191L36.3101 72.7422C36.132 72.4857 35.9793 72.2035 35.903 71.8957C35.8776 71.8444 35.8776 71.7931 35.8776 71.7418C35.8776 71.6905 35.8776 71.6392 35.8776 71.5623C35.8521 71.5366 35.8521 71.511 35.8521 71.4597C35.8521 71.434 35.8521 71.3827 35.8267 71.3571V71.1519C35.8267 71.1006 35.8267 71.0237 35.8267 70.9724C35.8267 70.8954 35.8267 70.8441 35.8267 70.7672V65.9707C35.8267 65.8681 35.8267 65.7911 35.8267 65.6885C35.8267 65.6116 35.8267 65.509 35.8012 65.432C35.7758 65.2782 35.674 65.1499 35.5213 65.073C35.3432 64.996 35.1651 64.9704 34.9615 65.0217C34.758 65.0473 34.5799 65.0216 34.3763 64.9704C34.3 64.9447 34.2236 64.8678 34.1727 64.7908C34.1473 64.6882 34.1219 64.5856 34.0964 64.483V64.0726C34.071 63.8674 34.0964 63.6879 34.0964 63.4827C34.1219 63.3288 34.2236 63.2262 34.4272 63.1749C34.4781 63.1492 34.529 63.1492 34.5799 63.1492C34.6308 63.1492 34.7071 63.1492 34.758 63.1492C34.9361 63.1492 35.1397 63.1492 35.3178 63.1236C35.4704 63.1236 35.5977 63.021 35.674 62.8927C35.7249 62.7901 35.7503 62.6875 35.7503 62.5593C35.7503 62.431 35.7503 62.3284 35.7503 62.2002V60.6612C35.7503 60.5586 35.7503 60.456 35.8012 60.3534C35.8521 60.2252 35.9793 60.1226 36.1066 60.0969C36.132 60.0969 36.1829 60.0969 36.2083 60.0969C36.2338 60.1482 36.2592 60.1482 36.3101 60.1226Z" fill="#D7D7D7"/>
<path d="M47.735 62.944C47.8622 62.944 47.9894 62.9697 48.1166 62.9953C48.2184 63.021 48.3202 63.0979 48.3711 63.1749C48.4729 63.3288 48.5238 63.534 48.4983 63.7135V64.4061C48.4983 64.56 48.4983 64.7139 48.4983 64.8934C48.4983 65.0473 48.4983 65.2012 48.422 65.3295C48.3711 65.4064 48.2948 65.4833 48.193 65.509C48.0912 65.5346 47.9894 65.5603 47.8622 65.5603C47.735 65.5603 47.5823 65.5603 47.4551 65.5346C47.3279 65.509 47.2006 65.5346 47.0734 65.5603C46.9716 65.5859 46.8953 65.5859 46.7935 65.6116C46.7172 65.6116 46.6154 65.6372 46.5391 65.6629C46.31 65.7398 46.1065 65.8424 45.9029 65.945C45.7248 66.0476 45.5467 66.2015 45.4195 66.3811L45.2159 66.7145C45.1396 66.8171 45.0632 66.9454 45.0123 67.0736C44.9615 67.1762 44.936 67.2788 44.9106 67.4071C44.8851 67.5097 44.8342 67.6379 44.8088 67.7405C44.7833 67.8431 44.7833 67.9201 44.7833 68.0227C44.7833 68.1253 44.7579 68.2278 44.7325 68.3048C44.7325 68.3561 44.7325 68.4074 44.7325 68.4587C44.7325 68.51 44.7325 68.5356 44.7325 68.5869V68.9204C44.707 69.023 44.707 69.1256 44.707 69.2538C44.707 69.3564 44.7325 69.459 44.7325 69.5873V72.5626C44.7325 72.7422 44.7325 72.8961 44.707 73.05C44.707 73.1782 44.6561 73.3065 44.5798 73.4091C44.5543 73.4604 44.5034 73.486 44.4526 73.486C44.4017 73.5117 44.3253 73.5117 44.249 73.5373H44.1981C44.1218 73.563 44.0454 73.563 43.9945 73.563H42.9259C42.8495 73.563 42.7732 73.5373 42.6714 73.5373H42.3915C42.3406 73.5117 42.2643 73.486 42.1879 73.4604C42.1116 73.4347 42.0607 73.3834 42.0607 73.3321C42.0098 73.2552 41.9589 73.1526 41.9589 73.05C41.9589 72.9217 41.9589 72.7935 41.9589 72.6652V63.7392C41.9589 63.6366 41.9844 63.5083 42.0353 63.4057C42.1116 63.3031 42.2134 63.2262 42.3406 63.2005C42.4933 63.1749 42.646 63.1749 42.7986 63.1749H43.8164C43.9437 63.1749 44.0963 63.1749 44.2236 63.2005C44.3253 63.2262 44.4271 63.2775 44.5034 63.3801C44.5543 63.457 44.5798 63.5596 44.5798 63.6622C44.5798 63.7905 44.5798 63.8931 44.6052 64.0213C44.6052 64.1239 44.6307 64.2522 44.6816 64.3548C44.707 64.4317 44.7833 64.483 44.8597 64.483C44.8851 64.4574 44.9106 64.4574 44.936 64.4317C44.9615 64.4317 44.9869 64.4061 45.0123 64.3804C45.0887 64.3291 45.165 64.2522 45.2159 64.1496C45.2668 64.047 45.3686 63.97 45.4449 63.9187C45.4958 63.8674 45.5467 63.8418 45.5721 63.7905C45.623 63.7392 45.6485 63.6879 45.6994 63.6622L46.0556 63.4314C46.1828 63.3544 46.31 63.2775 46.4373 63.2005C46.5645 63.1492 46.6917 63.0979 46.8444 63.0723L47.277 62.944C47.3533 62.944 47.4296 62.944 47.506 62.944C47.6077 62.944 47.6841 62.944 47.7095 62.9184" fill="#D7D7D7"/>
<path d="M58.8799 72.6909C58.9054 72.8448 58.9308 72.973 58.9308 73.1269C58.9308 73.2552 58.8545 73.3834 58.7272 73.4347C58.6509 73.486 58.5491 73.486 58.4474 73.486H57.0733C56.9461 73.486 56.8443 73.486 56.7171 73.486C56.6153 73.486 56.539 73.4604 56.4626 73.3834C56.3609 73.3321 56.31 73.2552 56.2591 73.1526C56.2082 73.05 56.1573 72.973 56.081 72.8961C56.0555 72.8704 56.0301 72.8448 55.9792 72.8191C55.9283 72.7935 55.8774 72.7935 55.8265 72.8191C55.7502 72.8448 55.6993 72.8704 55.6484 72.9217C55.5975 72.973 55.5212 72.9987 55.4703 73.0243C55.3939 73.0756 55.3176 73.1269 55.2413 73.1526L55.0123 73.2808C54.8342 73.3578 54.656 73.4347 54.4779 73.4604C54.2998 73.5117 54.0962 73.563 53.8927 73.6143C53.8163 73.6399 53.7146 73.6656 53.6382 73.6656C53.5619 73.6656 53.4601 73.6912 53.3838 73.6912C53.3329 73.6912 53.3074 73.6912 53.2566 73.6912C53.2057 73.6912 53.1802 73.6912 53.1293 73.6912H52.9003C52.7731 73.7169 52.6459 73.7169 52.4932 73.6912H52.3151C52.2388 73.6656 52.137 73.6656 52.0606 73.6656C51.9843 73.6656 51.8825 73.6656 51.8062 73.6399L51.4245 73.563C51.2973 73.5373 51.1955 73.5117 51.0937 73.4604C50.7375 73.3321 50.4067 73.1269 50.1268 72.8961C49.8469 72.6396 49.6179 72.3318 49.4907 71.9727C49.4398 71.8701 49.4143 71.7675 49.3889 71.6649C49.3635 71.5623 49.3126 71.4597 49.2871 71.3314C49.2617 71.2801 49.2617 71.2032 49.2617 71.1262C49.2617 71.0493 49.2617 70.998 49.2617 70.9211C49.2362 70.8441 49.2362 70.7672 49.2362 70.6646C49.2362 70.562 49.2362 70.485 49.2362 70.3824C49.2617 70.2798 49.2871 70.1772 49.2871 70.049C49.3126 69.8951 49.3635 69.7412 49.4143 69.5873C49.4398 69.4334 49.4907 69.3051 49.567 69.1769C49.7451 68.8178 50.025 68.5356 50.3304 68.3048C50.6866 68.0739 51.0428 67.8944 51.45 67.7918C51.6281 67.7405 51.8062 67.6892 51.9843 67.6636C52.1624 67.6379 52.366 67.6123 52.5441 67.561C52.6459 67.5353 52.7731 67.5097 52.8749 67.5097C53.0021 67.5097 53.1039 67.484 53.2311 67.4584C53.3074 67.4327 53.4092 67.4327 53.511 67.4327C53.6128 67.4327 53.7146 67.4327 53.8163 67.4071C53.9181 67.3814 53.9945 67.3558 54.0962 67.3558C54.198 67.3558 54.2998 67.3301 54.4016 67.3045L55.1649 67.1249C55.3939 67.0736 55.623 66.9454 55.8011 66.7658C55.9028 66.6632 56.0046 66.5093 56.0301 66.3554C56.0301 66.3298 56.0301 66.2785 56.0301 66.2528C56.0301 66.2272 56.0301 66.2015 56.0301 66.1759C56.0555 66.1502 56.0555 66.0989 56.0555 66.0476C56.0301 65.9963 56.0301 65.945 56.0301 65.8937C56.0301 65.8424 56.0046 65.7911 56.0046 65.7655C55.8774 65.3807 55.5721 65.073 55.1649 64.9447C55.0377 64.8934 54.885 64.8678 54.7578 64.8421C54.5797 64.8421 54.427 64.8421 54.2489 64.8421C54.0708 64.8421 53.9181 64.8678 53.7655 64.8934C53.6128 64.9191 53.4856 64.9447 53.3583 64.996C53.282 65.0217 53.2057 65.0473 53.1293 65.0986C53.053 65.1499 52.9767 65.2012 52.9258 65.2525C52.8494 65.3294 52.7731 65.3808 52.7222 65.4577C52.6459 65.5346 52.595 65.6372 52.5695 65.7142C52.5186 65.8424 52.4423 65.9707 52.3914 66.0989C52.3405 66.2272 52.2388 66.3041 52.1115 66.3298C52.0097 66.3554 51.8825 66.3811 51.7807 66.3811H50.6866C50.6103 66.3811 50.5594 66.3811 50.483 66.3811C50.4321 66.3811 50.3558 66.3811 50.3049 66.3811H50.1268C50.1014 66.3811 50.0505 66.3554 50.025 66.3554C49.9996 66.3554 49.9487 66.3298 49.9233 66.3041C49.796 66.2785 49.7197 66.1759 49.6942 66.0476C49.6688 65.9707 49.6688 65.9194 49.6942 65.8424L49.7451 65.6629C49.796 65.509 49.8215 65.3807 49.8724 65.2525C49.9233 65.1243 49.9741 65.0217 50.0505 64.8934C50.1014 64.8165 50.1268 64.7652 50.1777 64.6882L50.3049 64.483C50.4067 64.3291 50.5594 64.2009 50.712 64.0726C50.7629 64.047 50.7884 64.0213 50.8393 63.97L51.0174 63.8161L51.1955 63.6879C51.4245 63.534 51.6535 63.4314 51.908 63.3288C52.1624 63.2518 52.4169 63.1492 52.6713 63.0723C52.824 63.0466 53.0021 63.021 53.1548 62.9953C53.3329 62.9697 53.511 62.944 53.6637 62.9184C53.74 62.8927 53.8418 62.8927 53.9181 62.9184C54.0199 62.9184 54.0962 62.9184 54.1217 62.8927C54.6306 62.8927 55.1649 62.8927 55.6738 62.944C56.1319 62.9953 56.5899 63.0979 57.0224 63.2518C57.4041 63.3801 57.7603 63.5853 58.0657 63.8418C58.371 64.0983 58.6 64.4317 58.7272 64.7908C58.829 65.0473 58.8799 65.3038 58.8799 65.5603C58.8799 65.8424 58.9054 66.1502 58.9054 66.458V71.6649C58.9054 71.8957 58.9308 72.1522 58.9817 72.3831C59.0071 72.4344 59.0071 72.46 59.0071 72.5113C58.8799 72.6139 58.8799 72.6652 58.8799 72.6909ZM56.0046 69.6386C56.0301 69.4847 56.0301 69.3308 56.0046 69.1769C55.9792 69.0999 55.9792 69.023 55.9537 68.9717C55.9537 68.9204 55.9283 68.8434 55.8774 68.8178C55.8011 68.7665 55.6738 68.7408 55.5721 68.7408L55.4448 68.7665C55.3939 68.7665 55.3431 68.7921 55.2922 68.7921C55.1904 68.8178 55.0886 68.8434 54.9868 68.8434C54.885 68.8434 54.7833 68.8691 54.656 68.8947C54.6051 68.9204 54.5288 68.9204 54.4779 68.9204C54.2998 68.9717 54.1471 68.9973 53.969 68.9973C53.7909 68.9973 53.6382 69.0486 53.4856 69.0999L53.1802 69.1769C53.0784 69.2025 53.0021 69.2282 52.9003 69.2795C52.6204 69.4077 52.3914 69.5873 52.1879 69.8181C51.9843 70.1003 51.908 70.4594 51.9843 70.8185C52.0097 71.0237 52.0861 71.2288 52.2133 71.3827C52.3151 71.5366 52.4678 71.6649 52.6204 71.7418C53.0275 71.9214 53.4601 71.9983 53.9181 71.9727C54.1471 71.947 54.3761 71.9214 54.6051 71.8444C54.9105 71.7675 55.1904 71.5879 55.4194 71.3314C55.6229 71.075 55.7756 70.7928 55.8774 70.4594C55.9028 70.3568 55.9283 70.2798 55.9283 70.1772C55.9283 70.0746 55.9537 69.972 55.9792 69.8694L56.0046 69.6386Z" fill="#D7D7D7"/>
<path d="M61.628 59.2762H63.0784C63.2056 59.2762 63.3328 59.2761 63.46 59.3018C63.5618 59.3018 63.6636 59.3531 63.7399 59.43C63.8163 59.5326 63.8672 59.6609 63.8672 59.7891C63.8672 59.943 63.8672 60.1226 63.8672 60.2508V72.2548C63.8672 72.4087 63.8672 72.6139 63.8672 72.7935C63.8926 72.9474 63.8417 73.1269 63.7654 73.2552C63.689 73.3834 63.5618 73.4604 63.4091 73.486C63.3328 73.5117 63.231 73.5117 63.1547 73.5117C63.0529 73.486 62.9766 73.486 62.8748 73.486H61.9079C61.7552 73.486 61.628 73.486 61.5008 73.4604C61.399 73.4604 61.2972 73.4091 61.1954 73.3321C61.1191 73.2552 61.0682 73.1269 61.0682 72.9987C61.0682 72.8704 61.0682 72.7165 61.0682 72.5626V60.6099C61.0682 60.4304 61.0682 60.2252 61.0682 59.9943C61.0428 59.8148 61.0682 59.6352 61.17 59.4813C61.1954 59.43 61.2209 59.3787 61.2718 59.3531L61.4244 59.2762H61.5262C61.5517 59.2762 61.5771 59.2762 61.628 59.2762Z" fill="#D7D7D7"/>
<path d="M68.8289 59.4044C68.9307 59.5326 68.9816 59.7122 68.9562 59.8917V61.046C68.9816 61.1742 68.9307 61.3281 68.8289 61.4307C68.7272 61.5077 68.6254 61.5333 68.4982 61.559C68.3709 61.5846 68.2183 61.5846 68.091 61.5846H66.9969C66.8697 61.5846 66.7424 61.5846 66.6152 61.559C66.5134 61.559 66.4117 61.5077 66.3353 61.4307C66.2844 61.3794 66.2336 61.2768 66.2336 61.1999C66.2081 61.0716 66.2081 60.9434 66.1827 60.8151C66.1827 60.6612 66.1827 60.533 66.1827 60.3791C66.1827 60.2252 66.1827 60.0969 66.1827 59.9943C66.1827 59.8917 66.1827 59.7891 66.1827 59.7122C66.1827 59.6352 66.2081 59.5583 66.259 59.4813C66.2844 59.43 66.3099 59.3787 66.3608 59.3531L66.5134 59.2762H66.6152C66.6407 59.2762 66.6916 59.2762 66.717 59.2762H68.1674C68.2946 59.2762 68.4218 59.2761 68.549 59.3018C68.6508 59.3018 68.7526 59.3531 68.8289 59.43M68.9307 72.4087C68.9307 72.6652 68.9307 72.8961 68.9307 73.0756C68.9307 73.2552 68.8035 73.4091 68.5745 73.4604C68.4982 73.486 68.3964 73.486 68.32 73.486C68.2183 73.486 68.1165 73.486 68.0147 73.486H66.9206C66.7933 73.486 66.6916 73.486 66.5643 73.4604C66.4626 73.4604 66.3862 73.4091 66.3099 73.3321C66.2335 73.2295 66.1827 73.1013 66.1827 72.973C66.1827 72.8448 66.1827 72.6909 66.1827 72.5113V63.6622C66.1827 63.5596 66.2081 63.4314 66.259 63.3288C66.3353 63.2262 66.4626 63.1749 66.5898 63.1492C66.6152 63.1236 66.6661 63.1236 66.6916 63.1492C66.717 63.1492 66.7679 63.1492 66.7933 63.1492H68.0402C68.1165 63.1492 68.1928 63.1492 68.2946 63.1492H68.4473C68.5236 63.1749 68.5999 63.2005 68.6763 63.2005C68.7526 63.2262 68.8035 63.2518 68.8289 63.3288C68.8798 63.4057 68.9053 63.5083 68.9053 63.6109C68.9053 63.7392 68.9053 63.8674 68.9053 63.9957V72.4087H68.9307Z" fill="#D7D7D7"/>
<path d="M80.4574 72.6909C80.4828 72.8448 80.5082 72.973 80.5082 73.1269C80.5082 73.2552 80.4319 73.3834 80.3047 73.4347C80.2283 73.486 80.1266 73.486 80.0248 73.486H78.6507C78.5235 73.486 78.4217 73.486 78.2945 73.486C78.1927 73.486 78.1164 73.4604 78.0401 73.3834C77.9383 73.3321 77.8874 73.2552 77.8365 73.1526C77.7856 73.05 77.7347 72.973 77.6584 72.8961C77.6329 72.8704 77.6075 72.8448 77.5566 72.8191C77.5057 72.7935 77.4548 72.7935 77.4039 72.8191C77.3276 72.8448 77.2767 72.8704 77.2258 72.9217C77.1749 72.973 77.0986 72.9987 77.0477 73.0243C76.9714 73.0756 76.895 73.1269 76.8187 73.1526L76.5897 73.2808C76.4116 73.3578 76.2335 73.4347 76.0554 73.4604C75.8772 73.5117 75.6737 73.563 75.4701 73.6143C75.3938 73.6399 75.292 73.6656 75.2157 73.6656C75.1393 73.6656 75.0375 73.6912 74.9612 73.6912C74.9103 73.6912 74.8849 73.6912 74.834 73.6912C74.7831 73.6912 74.7576 73.6912 74.7068 73.6912H74.4778C74.3505 73.7169 74.2233 73.7169 74.0706 73.6912H73.8925C73.8162 73.6656 73.7144 73.6656 73.6381 73.6656C73.5617 73.6656 73.46 73.6656 73.3836 73.6399L73.0019 73.563C72.9002 73.5373 72.7729 73.5117 72.6712 73.4604C72.3149 73.3321 71.9841 73.1269 71.7042 72.8961C71.4243 72.6396 71.1953 72.3318 71.0681 71.9727C71.0172 71.8701 70.9918 71.7675 70.9663 71.6649C70.9409 71.5623 70.89 71.4597 70.8645 71.3314C70.8391 71.2801 70.8391 71.2032 70.8391 71.1262C70.8391 71.0493 70.8391 70.998 70.8391 70.9211C70.8137 70.8441 70.8137 70.7672 70.8137 70.6646C70.8137 70.562 70.8137 70.485 70.8137 70.3824C70.8391 70.2798 70.8645 70.1772 70.8645 70.049C70.9154 69.8951 70.9409 69.7412 70.9918 69.5873C71.0172 69.4334 71.0681 69.3051 71.1444 69.1769C71.3226 68.8178 71.6025 68.5356 71.9078 68.3048C72.264 68.0739 72.6203 67.8944 73.0274 67.7918C73.2055 67.7405 73.3836 67.6892 73.5617 67.6636C73.7398 67.6379 73.9434 67.6123 74.1215 67.561C74.2233 67.5353 74.3251 67.5097 74.4523 67.5097C74.5795 67.5097 74.6813 67.484 74.8085 67.4584C74.9103 67.4327 74.9867 67.4327 75.0884 67.4327C75.1902 67.4327 75.292 67.4327 75.3938 67.4071C75.4701 67.3814 75.5719 67.3558 75.6482 67.3558C75.75 67.3558 75.8518 67.3301 75.9536 67.3045L76.7169 67.1249C76.9459 67.0736 77.1749 66.9454 77.353 66.7658C77.4803 66.6376 77.5566 66.5093 77.6075 66.3554C77.6075 66.3298 77.6075 66.2785 77.6075 66.2528C77.6075 66.2272 77.6075 66.2015 77.6075 66.1759C77.6329 66.1502 77.6329 66.0989 77.6329 66.0476V65.9194C77.6075 65.8681 77.6075 65.8168 77.6075 65.7655C77.6075 65.7142 77.5821 65.6629 77.5821 65.6372C77.4548 65.2525 77.1495 64.9447 76.7424 64.8165C76.6151 64.7652 76.4625 64.7395 76.3352 64.7395C76.1571 64.7395 76.0045 64.7395 75.8263 64.7395C75.6482 64.7395 75.4956 64.7652 75.3429 64.7908C75.1902 64.8165 75.063 64.8421 74.9358 64.8934C74.8594 64.9191 74.7831 64.9447 74.7068 64.996C74.6304 65.0473 74.5541 65.0986 74.5032 65.1499C74.4269 65.2268 74.3505 65.2781 74.2996 65.3551C74.2233 65.432 74.1724 65.5346 74.147 65.6116C74.0961 65.7398 74.0197 65.8681 73.9689 65.9963C73.918 66.1246 73.8162 66.2015 73.689 66.2272C73.5872 66.2528 73.46 66.2785 73.3582 66.2785H71.9332C71.8824 66.2785 71.806 66.2785 71.7551 66.2785H71.577C71.5516 66.2785 71.5007 66.2528 71.4752 66.2528C71.4498 66.2528 71.3989 66.2528 71.3734 66.2015C71.2462 66.1759 71.1699 66.0733 71.1444 65.945C71.119 65.8681 71.119 65.8168 71.1444 65.7398L71.1953 65.5603C71.2208 65.432 71.2717 65.2781 71.3226 65.1499C71.3735 65.0217 71.4243 64.9191 71.5007 64.7908C71.5516 64.7139 71.577 64.6626 71.6279 64.5856L71.7551 64.3804C71.8824 64.2265 72.0096 64.0983 72.1622 63.97C72.2131 63.9444 72.2386 63.9187 72.2895 63.8674L72.4676 63.7135L72.6457 63.5853C72.8747 63.4314 73.1037 63.3288 73.3582 63.2262C73.6126 63.1492 73.8671 63.0466 74.1215 62.9697C74.2742 62.944 74.4523 62.8927 74.605 62.8927C74.7831 62.8671 74.9612 62.8414 75.1139 62.8158C75.1902 62.7901 75.292 62.7901 75.3683 62.8158C75.4701 62.8158 75.5464 62.8158 75.5719 62.7901C76.0808 62.7645 76.6151 62.7901 77.124 62.8414C77.5821 62.8927 78.0401 62.9953 78.4726 63.1492C78.8543 63.2775 79.2105 63.4827 79.5159 63.7392C79.8212 63.9957 80.0502 64.3291 80.1774 64.6882C80.2792 64.9447 80.3301 65.2012 80.3301 65.4577C80.3301 65.7398 80.3556 66.0476 80.3556 66.3554V71.5623C80.3556 71.7931 80.381 72.0496 80.4319 72.2805C80.4573 72.3318 80.4574 72.3574 80.4574 72.4087C80.4319 72.6139 80.4574 72.6652 80.4574 72.6909ZM77.5566 69.6386C77.5821 69.4847 77.5821 69.3308 77.5566 69.1769C77.5312 69.0999 77.5312 69.023 77.5057 68.9717C77.5057 68.9204 77.4803 68.8434 77.4294 68.8178C77.353 68.7665 77.2258 68.7408 77.124 68.7408L76.9968 68.7665C76.9459 68.7665 76.895 68.7921 76.8441 68.7921C76.7424 68.8178 76.6406 68.8434 76.5388 68.8434C76.437 68.8434 76.3352 68.8691 76.208 68.8947C76.1571 68.9204 76.0808 68.9204 76.0299 68.9204C75.8518 68.9717 75.6991 68.9973 75.521 68.9973C75.3429 68.9973 75.1902 69.0486 75.0376 69.0999L74.7322 69.1769C74.6304 69.2025 74.5541 69.2282 74.4523 69.2795C74.1724 69.4077 73.9434 69.5873 73.7399 69.8181C73.5363 70.1003 73.4599 70.4594 73.5363 70.8185C73.5617 71.0237 73.6381 71.2288 73.7399 71.3827C73.8416 71.5366 73.9943 71.6649 74.147 71.7418C74.3505 71.8188 74.5541 71.8957 74.7577 71.9214C74.9867 71.9727 75.2157 71.9727 75.4447 71.947C75.6737 71.9214 75.9027 71.8957 76.1317 71.8188C76.437 71.7418 76.7169 71.5623 76.9459 71.3058C77.1495 71.0493 77.3022 70.7672 77.4039 70.4337C77.4294 70.3311 77.4548 70.2542 77.4548 70.1516C77.4548 70.049 77.4803 69.9464 77.5057 69.8438L77.5566 69.6386Z" fill="#D7D7D7"/>
<path d="M83.4599 63.97C83.5871 63.8674 83.6889 63.7648 83.7652 63.6366C83.8415 63.5083 83.9179 63.3544 83.9942 63.2262C84.0197 63.1492 84.0451 63.0723 84.0706 62.9697C84.096 62.8671 84.096 62.7645 84.0706 62.6875C84.0451 62.5336 83.9433 62.3797 83.7907 62.3284C83.7652 62.3284 83.7143 62.3284 83.6889 62.3284C83.6634 62.3284 83.6125 62.3284 83.5871 62.3284C83.4599 62.3028 83.3072 62.2772 83.1545 62.2772C83.0528 62.2772 82.951 62.2002 82.8746 62.072C82.8237 61.9694 82.8237 61.8668 82.8237 61.7385V59.7635C82.8237 59.6352 82.8492 59.5326 82.9255 59.43C83.0019 59.3274 83.1036 59.2762 83.2054 59.2762C83.3326 59.2762 83.4599 59.2762 83.6125 59.2762H84.6812C84.783 59.2762 84.8848 59.2762 85.012 59.2762C85.0884 59.2762 85.1901 59.2761 85.2665 59.3018C85.4446 59.3274 85.5718 59.4814 85.5973 59.6609C85.6227 59.8661 85.6227 60.0713 85.6227 60.2765V62.1233C85.6227 62.1746 85.6227 62.2258 85.6227 62.3028C85.6227 62.3541 85.6227 62.4054 85.6227 62.4823V62.6875C85.6227 62.7645 85.5973 62.8158 85.5973 62.8927C85.5973 62.9697 85.5718 63.021 85.5718 63.0979C85.5464 63.2005 85.5209 63.2775 85.4955 63.3801C85.47 63.4827 85.4446 63.5596 85.4191 63.6622C85.1901 64.2522 84.783 64.7652 84.2741 65.1499C84.0705 65.3038 83.867 65.4064 83.638 65.509C83.5616 65.5346 83.4853 65.5603 83.409 65.5859C83.3835 65.5859 83.3581 65.5859 83.3326 65.5859C83.3072 65.5859 83.3072 65.5859 83.2818 65.5859C83.1545 65.6116 83.0019 65.5603 82.9255 65.432C82.8492 65.3038 82.8237 65.1499 82.8492 65.0217C82.8492 64.9704 82.8492 64.8934 82.8492 64.8421C82.8492 64.7652 82.8492 64.7139 82.8746 64.6626C82.9255 64.5343 83.0019 64.4061 83.1291 64.3291C83.2563 64.2522 83.3581 64.1752 83.4599 64.0983" fill="#D7D7D7"/>
<path d="M90.4827 62.9184C91.3478 62.8671 92.213 62.9953 93.0527 63.2518C93.7397 63.457 94.3249 63.9187 94.732 64.5087C94.8338 64.6626 94.9102 64.7908 94.9865 64.9447C95.0628 65.0986 95.1137 65.2782 95.1646 65.4577C95.1901 65.5346 95.2155 65.6372 95.2155 65.7142C95.2155 65.7911 95.2155 65.8681 95.1646 65.945C95.1137 66.022 95.0374 66.0733 94.9356 66.0989C94.8593 66.1246 94.7829 66.1502 94.7066 66.1502H93.5616C93.4598 66.1502 93.3835 66.1502 93.2817 66.1502C93.2053 66.1502 93.1036 66.1502 93.0272 66.1246C92.9 66.0989 92.7982 66.0476 92.7219 65.9707C92.6455 65.8937 92.5947 65.8168 92.5438 65.7142C92.4929 65.6372 92.442 65.5346 92.3911 65.432C92.3402 65.3294 92.2639 65.2525 92.1875 65.1756C92.0603 65.073 91.9331 64.996 91.8059 64.9447C91.6532 64.8934 91.5005 64.8421 91.3478 64.8165C91.2206 64.7908 91.068 64.7652 90.9407 64.7652C90.8135 64.7395 90.6608 64.7652 90.5336 64.7908H90.4064L90.0502 64.8421C89.8466 64.8934 89.6685 64.996 89.5158 65.1242C89.3631 65.2525 89.2614 65.432 89.2359 65.6372C89.2105 65.7142 89.2105 65.8168 89.2359 65.8937C89.2614 65.9707 89.2868 66.022 89.3122 66.0989C89.3886 66.2528 89.4904 66.3811 89.643 66.4837C89.7703 66.5863 89.9229 66.6632 90.0756 66.7145C90.33 66.8171 90.6099 66.9197 90.8898 66.971C91.1952 67.048 91.5005 67.1249 91.8059 67.1762C92.1112 67.2275 92.4165 67.3045 92.7219 67.3814C93.0018 67.4584 93.2817 67.5353 93.5616 67.6636C93.6634 67.7149 93.7906 67.7662 93.9178 67.7918C94.0196 67.8175 94.1468 67.8688 94.2486 67.9457C94.4776 68.0996 94.7066 68.2791 94.9356 68.4587C95.1392 68.6639 95.3173 68.8947 95.4191 69.1512C95.4445 69.2538 95.4954 69.3308 95.5208 69.4334C95.5463 69.536 95.5717 69.6129 95.5972 69.7412C95.6226 69.8694 95.6226 69.9977 95.6226 70.1259C95.6226 70.2542 95.6226 70.3824 95.6226 70.5107V70.6133C95.5972 70.6902 95.5717 70.7672 95.5717 70.8441C95.5717 70.9211 95.5463 70.9724 95.5463 71.0493C95.4699 71.434 95.3173 71.7931 95.1137 72.1009C94.9102 72.4087 94.6557 72.6652 94.3504 72.8704C94.0196 73.0756 93.6888 73.2552 93.3326 73.3834C93.1799 73.4604 93.0272 73.486 92.8745 73.5117C92.6964 73.5373 92.5438 73.563 92.3911 73.6143C92.2639 73.6399 92.1366 73.6656 92.0349 73.6656C91.9076 73.6656 91.7804 73.6912 91.6786 73.7169H91.3224C91.0425 73.7682 90.7881 73.7682 90.5082 73.7169H90.2537C90.2028 73.7169 90.1519 73.7169 90.101 73.7169C89.9484 73.6912 89.7957 73.6656 89.6176 73.6656C89.4649 73.6399 89.3122 73.6143 89.1596 73.5886C88.7016 73.4604 88.2435 73.2808 87.7855 73.0756C87.3784 72.8704 87.0476 72.5883 86.7677 72.2035C86.5642 71.9214 86.4115 71.6392 86.2843 71.3314C86.2588 71.2288 86.2334 71.1262 86.2079 70.998C86.1825 70.8954 86.157 70.8185 86.157 70.7159C86.1316 70.6133 86.1571 70.5107 86.1825 70.4081C86.2079 70.3055 86.2843 70.2542 86.3861 70.2029C86.4624 70.1772 86.5387 70.1516 86.6151 70.1516H88.1672C88.269 70.1516 88.3453 70.1516 88.4471 70.2029C88.5743 70.2285 88.6761 70.3311 88.727 70.4594C88.7779 70.5876 88.8288 70.7159 88.9051 70.8441C88.956 70.9467 89.0069 71.0237 89.0578 71.1006C89.1087 71.1776 89.1596 71.2545 89.2359 71.3058C89.3631 71.434 89.5412 71.5366 89.6939 71.6392C89.872 71.7162 90.0501 71.7931 90.2537 71.8444C90.3046 71.8701 90.3809 71.8957 90.4573 71.8701C90.5336 71.8701 90.5845 71.8701 90.6608 71.8701C90.7626 71.8957 90.8898 71.8957 91.0171 71.8957C91.1188 71.8957 91.2461 71.8701 91.3478 71.8444C91.3987 71.8188 91.4751 71.8188 91.526 71.8188C91.6023 71.8188 91.6532 71.7931 91.7041 71.7675C91.8822 71.7162 92.0349 71.6136 92.213 71.5366C92.3657 71.434 92.4929 71.3314 92.5692 71.1775C92.6455 71.0237 92.6964 70.8441 92.7219 70.6902C92.7473 70.6133 92.7473 70.5107 92.7219 70.4337C92.6964 70.3568 92.671 70.3055 92.6455 70.2285C92.5692 70.049 92.442 69.9207 92.2893 69.8181C92.1366 69.7155 91.984 69.6386 91.8059 69.5616C91.5514 69.459 91.297 69.3564 91.0171 69.3051C90.7372 69.2282 90.4573 69.1769 90.1774 69.0743C90.0756 69.0486 89.9738 69.023 89.8466 69.023C89.7448 68.9973 89.643 68.9973 89.5158 68.9717L88.2944 68.6126C87.9128 68.51 87.5565 68.3304 87.2512 68.0996C86.8695 67.8431 86.5896 67.4584 86.4369 67.0223C86.4115 66.8941 86.3861 66.7658 86.3606 66.6376C86.3352 66.535 86.3097 66.4067 86.3097 66.3041C86.2843 66.1759 86.3097 66.0733 86.3352 65.945C86.3606 65.8937 86.3606 65.8424 86.3606 65.7655C86.3352 65.7142 86.3606 65.6372 86.3861 65.5859C86.4115 65.4321 86.4369 65.3038 86.4624 65.1756C86.4878 65.0473 86.5387 64.9191 86.5896 64.8165C86.7423 64.4574 86.9967 64.1239 87.3021 63.8674C87.6074 63.6366 87.9637 63.4314 88.3199 63.2775C88.4726 63.2005 88.6252 63.1492 88.7779 63.1236L89.2614 63.021C89.3377 62.9953 89.414 62.9697 89.4904 62.9697L89.7194 62.944C89.8211 62.9184 89.9229 62.9184 90.0502 62.9184C90.1519 62.9184 90.2792 62.9184 90.3809 62.8927" fill="#D7D7D7"/>
<path d="M108.142 62.944C108.829 62.8927 109.49 63.021 110.126 63.2775C110.635 63.5083 111.068 63.9187 111.373 64.4061C111.475 64.56 111.551 64.7139 111.577 64.8678C111.628 65.0217 111.678 65.2012 111.729 65.3807C111.755 65.4833 111.78 65.5859 111.78 65.6885C111.78 65.7911 111.806 65.8681 111.831 65.9707C111.831 66.022 111.831 66.0733 111.857 66.1246C111.882 66.3041 111.907 66.5093 111.907 66.7145V72.3061C111.907 72.5626 111.907 72.7935 111.907 73.0243C111.933 73.2295 111.806 73.4091 111.628 73.4604C111.526 73.486 111.449 73.5117 111.348 73.5117H109.974C109.821 73.5117 109.694 73.5117 109.541 73.486C109.414 73.486 109.312 73.4091 109.261 73.3065C109.21 73.2039 109.159 73.1013 109.159 72.973C109.159 72.8448 109.159 72.7165 109.159 72.5626V68.2022C109.159 67.7149 109.134 67.2532 109.109 66.8428C109.083 66.458 108.956 66.0989 108.752 65.7655C108.549 65.4833 108.269 65.2782 107.938 65.2012C107.862 65.1756 107.811 65.1756 107.734 65.1499C107.658 65.1499 107.582 65.1499 107.505 65.0986C107.429 65.0986 107.327 65.0986 107.251 65.0986C107.175 65.0986 107.098 65.1242 107.022 65.1242C106.971 65.1242 106.92 65.1499 106.895 65.1499C106.844 65.1499 106.818 65.1499 106.768 65.1756C106.513 65.2269 106.259 65.3551 106.03 65.509C105.597 65.8168 105.317 66.3041 105.266 66.8428C105.19 67.484 105.139 68.1509 105.139 68.8178V72.8961C105.139 72.9987 105.114 73.1013 105.088 73.2039C105.037 73.3321 104.91 73.4347 104.757 73.4604C104.579 73.486 104.401 73.5117 104.223 73.5117H103.231C103.078 73.5117 102.951 73.5117 102.798 73.486C102.671 73.486 102.569 73.4347 102.467 73.3578C102.366 73.2039 102.315 73.0243 102.34 72.8448C102.34 72.6139 102.34 72.4087 102.34 72.2035V64.0983C102.34 63.9444 102.34 63.8161 102.34 63.7135C102.34 63.6109 102.391 63.5083 102.442 63.4057C102.467 63.3544 102.518 63.3288 102.569 63.3031C102.62 63.3031 102.696 63.2775 102.747 63.2518H102.849C102.925 63.2262 102.976 63.2262 103.053 63.2262H104.096C104.198 63.2262 104.299 63.2262 104.401 63.2262C104.503 63.2262 104.579 63.2518 104.656 63.2775C104.732 63.3031 104.808 63.3801 104.834 63.457C104.859 63.5596 104.91 63.6366 104.936 63.7392C104.936 63.7905 104.936 63.8418 104.936 63.8674C104.936 63.9187 104.936 63.9444 104.961 63.9957C104.986 64.047 104.986 64.0726 105.037 64.1239L105.139 64.1752C105.266 64.2009 105.419 64.1239 105.495 64.0213C105.572 63.9187 105.673 63.8161 105.801 63.7648C106.157 63.4827 106.564 63.2775 106.997 63.1236C107.124 63.0723 107.226 63.0466 107.353 63.0466C107.48 63.0466 107.607 63.021 107.76 62.9953C107.811 62.9697 107.887 62.9697 107.938 62.9953C108.014 62.9697 108.065 62.9697 108.142 62.944Z" fill="#D7D7D7"/>
<path d="M123.765 68.2278C123.79 68.3561 123.79 68.4587 123.765 68.5869C123.765 68.6895 123.714 68.7921 123.638 68.8434C123.561 68.8947 123.46 68.946 123.358 68.946C123.231 68.946 123.103 68.9717 122.951 68.9973C122.798 68.9973 122.645 68.9973 122.493 68.9973C122.34 68.9973 122.213 68.9973 122.086 68.9973H116.996C116.92 68.9973 116.844 68.9973 116.767 69.0486C116.691 69.0743 116.615 69.1256 116.564 69.2025C116.538 69.2538 116.513 69.3051 116.488 69.3564C116.462 69.4334 116.462 69.4847 116.462 69.5616C116.488 69.6386 116.513 69.7155 116.513 69.7925C116.513 69.8694 116.538 69.9464 116.564 70.0233C116.64 70.3055 116.793 70.562 116.946 70.8185C117.124 71.0493 117.327 71.2289 117.582 71.3571C117.683 71.4084 117.785 71.4597 117.913 71.4853C118.04 71.511 118.142 71.5366 118.269 71.5879C118.421 71.6136 118.549 71.6392 118.701 71.6392C118.854 71.6649 119.032 71.6392 119.185 71.6136H119.363C119.49 71.5879 119.617 71.5623 119.719 71.511C119.821 71.4853 119.948 71.434 120.05 71.4084C120.203 71.3314 120.355 71.2545 120.482 71.1519C120.635 71.0749 120.737 70.9467 120.839 70.8185C120.915 70.7159 120.966 70.6389 121.042 70.562C121.119 70.485 121.195 70.4081 121.297 70.3824C121.449 70.3055 121.627 70.2798 121.806 70.2798H122.62C122.696 70.2798 122.773 70.2798 122.849 70.3055H123.052C123.154 70.3311 123.256 70.3568 123.332 70.4081C123.383 70.4337 123.409 70.485 123.434 70.5876C123.434 70.6646 123.434 70.7415 123.409 70.8185C123.358 70.998 123.281 71.1519 123.18 71.3058C123.103 71.4597 123.002 71.6136 122.9 71.7418C122.645 72.1522 122.315 72.5113 121.907 72.7935C121.475 73.0756 121.017 73.3065 120.533 73.486C120.381 73.5373 120.253 73.563 120.101 73.5886C119.948 73.6143 119.795 73.6399 119.643 73.6656C119.592 73.6656 119.541 73.6656 119.465 73.6656C119.414 73.6656 119.363 73.6656 119.287 73.6656H119.083C119.007 73.6912 118.93 73.7169 118.854 73.6912C118.778 73.6912 118.701 73.6656 118.625 73.6656C118.523 73.6656 118.447 73.6656 118.345 73.6656C118.269 73.6912 118.167 73.6912 118.091 73.6656C118.014 73.6399 117.938 73.6143 117.862 73.6143C117.785 73.6143 117.709 73.6143 117.658 73.563C117.505 73.5373 117.353 73.5117 117.225 73.4604C117.098 73.4347 116.946 73.3834 116.818 73.3065L116.411 73.1526C116.284 73.1013 116.182 73.05 116.055 72.973C115.648 72.7165 115.266 72.4087 114.935 72.0496C114.605 71.6905 114.325 71.2801 114.121 70.8185C114.045 70.6646 113.994 70.5363 113.969 70.3824C113.918 70.2285 113.867 70.0746 113.816 69.9207C113.816 69.8694 113.79 69.8181 113.79 69.7668C113.79 69.7155 113.79 69.6642 113.765 69.6129C113.714 69.459 113.663 69.2795 113.663 69.0999C113.663 68.9204 113.638 68.7152 113.612 68.5356C113.612 68.4587 113.612 68.4074 113.612 68.3304C113.612 68.2535 113.612 68.1765 113.612 68.0996V67.8688L113.663 67.3814C113.714 67.1506 113.765 66.9454 113.79 66.7402C113.841 66.535 113.892 66.3298 113.969 66.1502C114.503 64.8165 115.546 63.7648 116.869 63.2262C117.047 63.1492 117.251 63.0979 117.429 63.0466C117.607 63.021 117.811 62.9697 118.04 62.9184C118.142 62.8927 118.243 62.8927 118.345 62.8927C118.447 62.8927 118.549 62.8927 118.65 62.8671C119.236 62.8414 119.821 62.9184 120.381 63.0979C120.839 63.2518 121.271 63.4827 121.678 63.7392C121.806 63.8161 121.907 63.9187 122.035 63.9957C122.162 64.0983 122.264 64.2009 122.365 64.3291C122.416 64.4061 122.467 64.4574 122.518 64.483C122.62 64.6369 122.722 64.7908 122.823 64.9447C122.925 65.0986 123.027 65.2525 123.129 65.4064C123.205 65.5346 123.256 65.6372 123.281 65.7655C123.332 65.8937 123.383 66.022 123.434 66.1759C123.51 66.3554 123.561 66.535 123.587 66.7145C123.638 66.8941 123.663 67.0993 123.714 67.2788C123.739 67.3814 123.739 67.5097 123.739 67.6379C123.739 67.7662 123.739 67.8688 123.765 67.997V68.2278ZM120.788 67.0736C120.89 66.9197 120.89 66.7402 120.813 66.5863C120.737 66.4067 120.686 66.2528 120.635 66.1502C120.457 65.8168 120.228 65.5346 119.897 65.3295C119.516 65.1243 119.083 65.0217 118.625 65.0217C118.574 65.0473 118.523 65.0473 118.498 65.0473C118.447 65.0217 118.396 65.0217 118.345 65.0473C118.269 65.073 118.192 65.0986 118.142 65.0986C118.065 65.0986 117.989 65.1243 117.913 65.1499C117.353 65.3294 116.895 65.7142 116.615 66.2528C116.589 66.3041 116.564 66.3811 116.538 66.458C116.513 66.535 116.488 66.6376 116.462 66.7145C116.437 66.7915 116.437 66.8941 116.462 66.971C116.488 67.048 116.513 67.1249 116.589 67.1762C116.717 67.2532 116.869 67.2788 117.022 67.2788H120.33C120.533 67.2532 120.686 67.2019 120.788 67.0736Z" fill="#D7D7D7"/>
<path d="M125.113 63.1749H126.589C126.742 63.1749 126.869 63.1749 126.996 63.1749C127.098 63.1749 127.225 63.2005 127.327 63.2775C127.404 63.3288 127.48 63.4057 127.505 63.4827C127.556 63.5853 127.582 63.6879 127.607 63.7905C127.633 63.8931 127.658 64.0213 127.683 64.1239C127.709 64.2265 127.734 64.3291 127.76 64.4317C127.912 64.8934 128.065 65.3807 128.167 65.8681C128.269 66.3554 128.396 66.8428 128.549 67.3301C128.574 67.4071 128.599 67.484 128.599 67.561C128.625 67.6379 128.625 67.7149 128.65 67.7918C128.727 67.997 128.778 68.2022 128.828 68.4074C128.879 68.6126 128.93 68.8178 129.007 69.023C129.032 69.1256 129.057 69.2282 129.108 69.3564C129.134 69.459 129.21 69.536 129.312 69.5616C129.388 69.5873 129.439 69.536 129.465 69.459C129.49 69.3821 129.515 69.3308 129.566 69.2795C129.643 69.0999 129.694 68.8947 129.719 68.6895C129.744 68.4843 129.795 68.3048 129.872 68.0996C129.923 67.9714 129.948 67.8431 129.973 67.7405C129.999 67.6123 130.024 67.484 130.05 67.3814C130.152 67.048 130.228 66.7402 130.304 66.4067C130.381 66.0733 130.457 65.7655 130.559 65.432C130.61 65.2782 130.635 65.1499 130.66 65.0217C130.686 64.8934 130.711 64.7652 130.762 64.6113C130.813 64.4061 130.864 64.1752 130.915 63.8931C130.94 63.6622 131.042 63.457 131.22 63.3031C131.322 63.2518 131.424 63.2262 131.551 63.2005C131.678 63.2005 131.806 63.2005 131.958 63.2005H132.976C133.129 63.2005 133.281 63.2005 133.409 63.2262C133.536 63.2262 133.638 63.2775 133.739 63.3544C133.816 63.4057 133.841 63.4827 133.867 63.5596C133.892 63.6366 133.917 63.7392 133.943 63.8161C133.994 63.9957 134.045 64.2009 134.07 64.3548C134.096 64.5343 134.146 64.7139 134.223 64.8934C134.375 65.4064 134.528 65.945 134.63 66.4837C134.732 67.0223 134.859 67.561 135.012 68.0739C135.063 68.2278 135.113 68.4074 135.139 68.5613C135.164 68.7152 135.215 68.8691 135.266 69.023C135.292 69.1769 135.368 69.3051 135.419 69.4334C135.444 69.459 135.444 69.459 135.47 69.459C135.495 69.459 135.495 69.4847 135.521 69.5103C135.622 69.5103 135.699 69.459 135.75 69.3821C135.775 69.3051 135.826 69.2282 135.851 69.1256C135.928 68.9204 136.004 68.6895 136.055 68.4587C136.106 68.2278 136.157 67.997 136.233 67.7662C136.284 67.6379 136.309 67.5097 136.335 67.3814C136.36 67.2532 136.386 67.1249 136.437 66.9967C136.589 66.5863 136.691 66.1759 136.793 65.7398C136.869 65.3294 136.996 64.9191 137.124 64.5087C137.2 64.2778 137.251 64.0726 137.302 63.8418C137.327 63.6366 137.429 63.457 137.556 63.3288C137.658 63.2518 137.76 63.2262 137.887 63.2005C138.014 63.1749 138.141 63.1749 138.294 63.1749H139.668C139.77 63.1749 139.872 63.1749 139.973 63.2262C140.101 63.2518 140.177 63.3544 140.202 63.4827C140.202 63.6109 140.177 63.7648 140.151 63.8931C140.05 64.2009 139.973 64.5087 139.897 64.7908C139.821 65.073 139.719 65.3808 139.617 65.6885C139.312 66.6632 139.006 67.6379 138.701 68.6126C138.396 69.5873 138.09 70.562 137.785 71.5366C137.709 71.7418 137.658 71.947 137.607 72.1779C137.556 72.3831 137.48 72.5883 137.429 72.8191C137.378 72.973 137.327 73.1013 137.276 73.2039C137.225 73.3321 137.124 73.4091 137.022 73.4604C136.869 73.5373 136.691 73.563 136.513 73.5373C136.309 73.5373 136.106 73.5117 135.928 73.5117H135.037C134.808 73.5373 134.579 73.5117 134.35 73.4347C134.274 73.3834 134.223 73.2808 134.172 73.2039C134.121 73.1013 134.096 73.0243 134.07 72.9217C133.994 72.7422 133.943 72.5626 133.917 72.3831C133.892 72.2035 133.841 72.024 133.79 71.8444C133.739 71.7162 133.714 71.6136 133.688 71.4853C133.663 71.3571 133.612 71.2289 133.561 71.1006C133.434 70.7159 133.332 70.3055 133.256 69.8951C133.18 69.4847 133.052 69.0743 132.925 68.6895C132.849 68.433 132.772 68.1765 132.722 67.9201C132.671 67.6636 132.569 67.4584 132.391 67.2788C132.289 67.2532 132.187 67.3301 132.136 67.4327C132.111 67.5353 132.06 67.6379 132.035 67.7662C131.933 68.0227 131.882 68.3048 131.831 68.5613C131.78 68.8434 131.704 69.0999 131.627 69.3564C131.475 69.8438 131.373 70.3311 131.271 70.8185C131.169 71.3058 131.042 71.7931 130.915 72.2805C130.889 72.3831 130.864 72.4857 130.839 72.6139C130.813 72.7422 130.788 72.8448 130.762 72.9474C130.737 73.05 130.686 73.1526 130.66 73.2552C130.61 73.3321 130.559 73.4091 130.482 73.4604C130.406 73.5117 130.304 73.563 130.202 73.563H128.192L127.989 73.5373C127.938 73.5373 127.862 73.5117 127.811 73.486C127.709 73.4091 127.658 73.3065 127.607 73.2039C127.556 73.0756 127.531 72.973 127.48 72.8448C127.404 72.6396 127.353 72.4344 127.276 72.2292C127.2 72.024 127.149 71.7931 127.073 71.5879C126.742 70.6133 126.437 69.6129 126.131 68.6382C125.826 67.6636 125.521 66.6632 125.215 65.6885C125.113 65.432 125.037 65.1756 124.961 64.9191C124.884 64.6626 124.808 64.4061 124.732 64.1496C124.706 64.0726 124.681 63.97 124.63 63.8161C124.605 63.7135 124.605 63.5853 124.655 63.4827C124.732 63.4057 124.808 63.3544 124.91 63.3288C125.037 63.2005 125.088 63.2005 125.113 63.1749Z" fill="#D7D7D7"/>
<path d="M146.538 63.1749H148.014C148.167 63.1749 148.294 63.1749 148.421 63.1749C148.523 63.1749 148.65 63.2005 148.752 63.2775C148.828 63.3288 148.905 63.4057 148.93 63.4827C148.981 63.5853 149.006 63.6879 149.032 63.7905C149.057 63.8931 149.083 64.0213 149.108 64.1239C149.134 64.2265 149.159 64.3291 149.184 64.4317C149.337 64.8934 149.49 65.3807 149.592 65.8681C149.693 66.3554 149.821 66.8428 149.973 67.3301C149.999 67.4071 150.024 67.484 150.024 67.561C150.05 67.6379 150.05 67.7149 150.075 67.7918C150.151 67.997 150.202 68.2022 150.253 68.4074C150.304 68.6126 150.355 68.8178 150.431 69.023L150.533 69.3564C150.559 69.459 150.635 69.536 150.762 69.5616C150.838 69.5873 150.889 69.536 150.915 69.459C150.94 69.3821 150.991 69.3051 151.017 69.2795C151.093 69.0999 151.144 68.8947 151.169 68.6895C151.195 68.4843 151.246 68.3048 151.322 68.0996C151.373 67.9714 151.398 67.8431 151.424 67.7405C151.449 67.6123 151.475 67.484 151.5 67.3814C151.602 67.048 151.678 66.7402 151.754 66.4067C151.831 66.0733 151.907 65.7655 152.009 65.432C152.06 65.2782 152.085 65.1499 152.111 65.0217C152.136 64.8934 152.162 64.7652 152.212 64.6113C152.263 64.4061 152.314 64.1752 152.365 63.8931C152.391 63.6622 152.492 63.457 152.67 63.3031C152.772 63.2518 152.874 63.2262 153.001 63.2005C153.128 63.2005 153.256 63.2005 153.408 63.2005H154.426C154.579 63.2005 154.732 63.2005 154.859 63.2262C154.986 63.2262 155.088 63.2775 155.19 63.3544C155.266 63.4057 155.291 63.4827 155.317 63.5596L155.393 63.8161C155.444 63.9957 155.495 64.1752 155.52 64.3548C155.546 64.5343 155.597 64.7139 155.673 64.8934C155.826 65.4064 155.978 65.945 156.08 66.4837C156.182 67.0223 156.309 67.561 156.462 68.0739C156.513 68.2278 156.564 68.4074 156.589 68.5613C156.614 68.7152 156.665 68.8691 156.716 69.023C156.767 69.1769 156.818 69.3051 156.869 69.4334C156.894 69.4334 156.894 69.459 156.92 69.459C156.945 69.459 156.971 69.4847 156.971 69.5103C157.072 69.5103 157.149 69.459 157.2 69.3821C157.225 69.3051 157.276 69.2282 157.301 69.1256C157.378 68.9204 157.454 68.6895 157.505 68.4587C157.556 68.2278 157.607 67.997 157.683 67.7662C157.734 67.6379 157.76 67.5097 157.785 67.3814C157.81 67.2532 157.836 67.1249 157.887 66.9967C158.039 66.5863 158.141 66.1759 158.243 65.7398C158.345 65.3294 158.447 64.9191 158.574 64.5087C158.65 64.2778 158.701 64.0726 158.752 63.8418C158.777 63.6366 158.854 63.457 159.006 63.3288C159.108 63.2518 159.21 63.2262 159.337 63.2005C159.464 63.1749 159.592 63.1749 159.744 63.1749H161.144C161.245 63.1749 161.347 63.1749 161.449 63.2262C161.576 63.2518 161.653 63.3544 161.678 63.4827C161.678 63.6109 161.678 63.7648 161.627 63.8931C161.525 64.2009 161.449 64.5087 161.373 64.7908C161.296 65.073 161.195 65.3808 161.093 65.6885C160.762 66.6632 160.457 67.6379 160.177 68.6126C159.897 69.5873 159.566 70.562 159.261 71.5366C159.184 71.7418 159.134 71.947 159.083 72.1779C159.032 72.3831 158.955 72.5883 158.905 72.8191C158.854 72.973 158.803 73.1013 158.752 73.2039C158.701 73.3321 158.599 73.4091 158.497 73.4604C158.345 73.5373 158.167 73.563 157.989 73.5373C157.785 73.5373 157.581 73.5117 157.403 73.5117H156.614C156.385 73.5373 156.156 73.5117 155.953 73.4347C155.877 73.3834 155.826 73.3065 155.775 73.2039C155.724 73.1013 155.698 73.0243 155.673 72.9217C155.597 72.7422 155.571 72.5626 155.52 72.3831C155.495 72.2035 155.444 72.024 155.393 71.8444C155.342 71.7162 155.317 71.6136 155.291 71.4853C155.266 71.3571 155.215 71.2289 155.164 71.1006C155.037 70.7159 154.935 70.3055 154.833 69.8951C154.757 69.4847 154.63 69.0743 154.503 68.6895C154.426 68.433 154.35 68.1765 154.299 67.9201C154.248 67.6636 154.146 67.4584 153.968 67.2788C153.866 67.2532 153.765 67.3301 153.714 67.4327C153.688 67.5353 153.637 67.6379 153.612 67.7662C153.51 68.0227 153.459 68.3048 153.408 68.5613C153.358 68.8434 153.281 69.0999 153.205 69.3564C153.052 69.8438 152.925 70.3311 152.849 70.8185C152.747 71.3058 152.62 71.7931 152.492 72.2805C152.467 72.3831 152.441 72.4857 152.416 72.6139C152.391 72.7422 152.365 72.8448 152.34 72.9474C152.314 73.05 152.263 73.1526 152.238 73.2552C152.187 73.3321 152.136 73.4091 152.06 73.4604C151.983 73.5117 151.882 73.563 151.78 73.563H149.77L149.541 73.5117C149.49 73.5117 149.414 73.486 149.363 73.4604C149.261 73.3834 149.21 73.2808 149.159 73.1782C149.108 73.05 149.083 72.9474 149.032 72.8191C148.956 72.6139 148.905 72.4087 148.828 72.2035C148.752 71.9983 148.701 71.7675 148.625 71.5623C148.294 70.5876 147.989 69.5873 147.683 68.6126C147.378 67.6379 147.073 66.6376 146.767 65.6629C146.665 65.4064 146.589 65.1499 146.513 64.8934C146.436 64.6369 146.36 64.3804 146.284 64.1239C146.258 64.047 146.233 63.9444 146.182 63.7905C146.157 63.6879 146.157 63.5596 146.207 63.457C146.284 63.3801 146.36 63.3288 146.462 63.3031C146.436 63.2005 146.513 63.2005 146.538 63.1749Z" fill="#D7D7D7"/>
<path d="M173.179 67.9201C173.23 68.1509 173.23 68.3817 173.179 68.5869V68.7921C173.154 68.8947 173.154 68.9973 173.154 69.1256C173.154 69.2282 173.154 69.3308 173.128 69.459C173.103 69.536 173.077 69.6386 173.077 69.7155C173.077 69.7925 173.052 69.8694 173.027 69.972C172.976 70.1259 172.925 70.2542 172.899 70.4081C172.848 70.562 172.798 70.6902 172.747 70.8441C172.492 71.434 172.136 71.9727 171.653 72.4087C171.169 72.8191 170.635 73.1526 170.049 73.4091C169.897 73.486 169.719 73.5373 169.566 73.563C169.388 73.5886 169.235 73.6399 169.057 73.6656C168.981 73.6912 168.904 73.7169 168.828 73.7169C168.752 73.7169 168.675 73.7169 168.625 73.7425H168.497C168.446 73.7425 168.421 73.7425 168.37 73.7425C168.294 73.7425 168.192 73.7682 168.039 73.7682C167.938 73.7682 167.81 73.7682 167.709 73.7425H167.505C167.429 73.7425 167.378 73.7425 167.301 73.7425C167.225 73.7425 167.149 73.7425 167.098 73.7169C167.047 73.7169 166.996 73.6912 166.945 73.6912C166.894 73.6912 166.843 73.6912 166.767 73.6656C166.64 73.6143 166.513 73.5886 166.36 73.563C166.233 73.5373 166.105 73.486 165.978 73.4347C165.826 73.3834 165.673 73.3321 165.546 73.2808C165.393 73.2295 165.266 73.1526 165.113 73.0756C164.681 72.8191 164.273 72.4857 163.917 72.1009C163.561 71.6905 163.281 71.2545 163.078 70.7672C163.001 70.6389 162.976 70.5107 162.925 70.3824C162.899 70.2542 162.849 70.1003 162.823 69.972C162.798 69.9207 162.798 69.8438 162.772 69.7925C162.772 69.7412 162.747 69.6642 162.721 69.6129C162.696 69.5103 162.67 69.4077 162.67 69.2795C162.67 69.1769 162.67 69.0486 162.62 68.946C162.62 68.8947 162.594 68.8178 162.594 68.7665V68.5869C162.569 68.4843 162.543 68.3561 162.569 68.2535C162.569 68.1509 162.594 68.0226 162.62 67.9201V67.7918C162.62 67.7149 162.62 67.6636 162.62 67.5866C162.62 67.5097 162.62 67.4327 162.645 67.3814C162.67 67.3301 162.67 67.2532 162.67 67.2019C162.67 67.1249 162.67 67.0736 162.696 67.0223C162.747 66.8428 162.798 66.6889 162.823 66.5093C162.874 66.3298 162.925 66.1759 162.976 66.022C163.179 65.5346 163.485 65.073 163.815 64.6626C164.172 64.2778 164.579 63.9444 165.011 63.6622C165.139 63.6109 165.291 63.534 165.418 63.4827C165.571 63.4314 165.724 63.3801 165.851 63.3031C166.029 63.2518 166.207 63.2005 166.385 63.1749C166.589 63.1492 166.767 63.0979 166.971 63.0466C167.072 63.0466 167.174 63.021 167.276 63.021C167.378 63.021 167.454 63.021 167.556 62.9953C168.217 62.9697 168.904 63.0466 169.541 63.2262C170.075 63.3801 170.584 63.6366 171.042 63.9444C171.194 64.047 171.322 64.1752 171.474 64.3035C171.627 64.4317 171.754 64.56 171.856 64.7139C171.958 64.8421 172.06 64.9704 172.136 65.1242C172.212 65.2525 172.314 65.4064 172.39 65.5346C172.492 65.6885 172.543 65.8424 172.619 65.9963C172.67 66.1759 172.721 66.3298 172.798 66.535C172.848 66.6376 172.874 66.7658 172.899 66.8684C172.925 66.9967 172.95 67.0993 172.976 67.2275C172.976 67.2788 173.001 67.3301 173.001 67.3814C173.001 67.4327 173.001 67.484 173.027 67.5353C173.052 67.6123 173.052 67.6892 173.052 67.7662C173.027 67.8431 173.052 67.9201 173.077 67.997M170.406 68.6639C170.431 68.5613 170.431 68.4843 170.431 68.3817C170.431 68.2791 170.431 68.1765 170.406 68.0996V67.9457C170.38 67.8688 170.38 67.7918 170.38 67.7405C170.38 67.6636 170.38 67.5866 170.355 67.5097C170.355 67.4584 170.355 67.4327 170.329 67.3814C170.304 67.2788 170.278 67.1762 170.253 67.048C170.228 66.9454 170.202 66.8171 170.177 66.7145C170.049 66.4067 169.871 66.0989 169.668 65.8168C169.464 65.5346 169.184 65.3295 168.879 65.2012L168.65 65.1242C168.574 65.1242 168.497 65.073 168.396 65.0473C168.294 65.0217 168.167 65.0217 168.065 65.0217C167.938 65.0217 167.836 65.0217 167.709 65.0217C167.658 65.0473 167.632 65.0473 167.581 65.0473C167.53 65.0473 167.48 65.0473 167.454 65.0473C167.352 65.073 167.276 65.0986 167.2 65.1242C167.123 65.1499 167.047 65.1756 166.971 65.2012C166.665 65.3295 166.385 65.5603 166.156 65.8424C165.953 66.1246 165.775 66.458 165.673 66.7915C165.622 66.9197 165.597 67.0736 165.571 67.2019C165.546 67.3558 165.52 67.484 165.495 67.6379C165.469 67.6892 165.469 67.7662 165.469 67.8431V68.0483C165.444 68.1765 165.418 68.3304 165.444 68.4587C165.444 68.5869 165.469 68.7408 165.495 68.8691V69.0486C165.52 69.1512 165.546 69.2538 165.546 69.3564C165.571 69.459 165.571 69.5616 165.622 69.6642C165.724 69.9977 165.876 70.3311 166.055 70.6389C166.233 70.921 166.487 71.1519 166.767 71.3058C166.869 71.3827 166.971 71.434 167.072 71.4597C167.174 71.511 167.301 71.5366 167.429 71.5623C167.48 71.5623 167.53 71.5623 167.556 71.5623C167.607 71.5623 167.658 71.5623 167.683 71.5623L167.861 71.5879C167.912 71.5879 167.963 71.5879 168.039 71.5879H168.192C168.294 71.5623 168.396 71.5366 168.523 71.5366C168.625 71.511 168.726 71.4853 168.828 71.4597C169.133 71.3571 169.439 71.1519 169.668 70.9211C169.897 70.6646 170.075 70.3824 170.202 70.0746C170.253 69.9464 170.278 69.8181 170.329 69.6642C170.355 69.536 170.38 69.3821 170.431 69.2538C170.457 69.2025 170.457 69.1512 170.457 69.0999C170.457 69.0743 170.457 69.023 170.457 68.9973V68.8178C170.38 68.7921 170.38 68.7152 170.406 68.6639Z" fill="#D7D7D7"/>
<path d="M180.864 62.944C180.991 62.944 181.118 62.9697 181.245 62.9953C181.347 63.021 181.449 63.0979 181.5 63.1749C181.602 63.3288 181.627 63.534 181.627 63.7135V64.4061C181.627 64.56 181.627 64.7395 181.627 64.8934C181.627 65.0473 181.602 65.2012 181.551 65.3295C181.5 65.4064 181.423 65.4833 181.322 65.509C181.22 65.5346 181.118 65.5603 180.991 65.5603C180.864 65.5603 180.736 65.5603 180.584 65.5346C180.457 65.509 180.329 65.5346 180.202 65.5603C180.1 65.5859 180.024 65.6116 179.922 65.6116C179.846 65.6116 179.744 65.6372 179.668 65.6629C179.439 65.7398 179.235 65.8168 179.032 65.945C178.828 66.0476 178.675 66.2015 178.548 66.3811C178.472 66.4837 178.421 66.5863 178.345 66.7145C178.268 66.8171 178.192 66.9454 178.141 67.0736C178.065 67.2019 178.065 67.2788 178.039 67.4071L177.963 67.7405C177.937 67.8431 177.912 67.9201 177.912 68.0227C177.912 68.1253 177.887 68.2278 177.861 68.3048C177.861 68.3561 177.861 68.4074 177.861 68.4587C177.861 68.51 177.861 68.5356 177.861 68.5869V68.9204C177.836 69.023 177.836 69.1256 177.836 69.2538C177.836 69.3564 177.861 69.459 177.861 69.5873V72.5626C177.861 72.7422 177.861 72.8961 177.836 73.05C177.836 73.1782 177.785 73.3065 177.708 73.4091C177.683 73.4604 177.632 73.486 177.581 73.486C177.53 73.5117 177.454 73.5117 177.403 73.5373H177.301C177.225 73.563 177.149 73.563 177.098 73.563H176.004C175.927 73.563 175.851 73.5373 175.749 73.5373H175.495C175.418 73.5117 175.368 73.486 175.291 73.4604C175.215 73.4347 175.164 73.3834 175.138 73.3321C175.088 73.2552 175.062 73.1526 175.062 73.05C175.062 72.9217 175.062 72.7935 175.062 72.6652V63.7392C175.062 63.6366 175.088 63.5083 175.138 63.4057C175.215 63.3031 175.317 63.2262 175.444 63.2005C175.597 63.1749 175.749 63.1492 175.927 63.1492H176.92C177.047 63.1492 177.2 63.1492 177.327 63.1749C177.454 63.2005 177.556 63.2518 177.607 63.3544C177.658 63.4314 177.683 63.534 177.683 63.6366C177.683 63.7648 177.683 63.8674 177.708 63.9957C177.708 64.0983 177.734 64.2265 177.785 64.3291C177.81 64.4061 177.887 64.483 177.963 64.4574C177.988 64.4317 178.014 64.4317 178.039 64.4061C178.065 64.4061 178.09 64.3804 178.116 64.3548C178.192 64.2778 178.268 64.2009 178.319 64.1239C178.37 64.0213 178.446 63.9444 178.548 63.8931C178.599 63.8418 178.65 63.8161 178.701 63.7648C178.752 63.7135 178.777 63.6622 178.828 63.6366L179.184 63.4057C179.311 63.3288 179.439 63.2518 179.566 63.1749C179.693 63.1236 179.846 63.0723 179.973 63.0466L180.406 62.9184C180.482 62.9184 180.558 62.9184 180.635 62.9184C180.762 62.9697 180.813 62.9697 180.864 62.944Z" fill="#D7D7D7"/>
<path d="M183.383 59.2762H184.833C184.96 59.2762 185.088 59.2761 185.215 59.3018C185.317 59.3018 185.418 59.3531 185.495 59.43C185.571 59.5326 185.622 59.6609 185.622 59.7891C185.622 59.943 185.622 60.1226 185.622 60.2508V72.2548C185.622 72.4087 185.622 72.6139 185.622 72.7935C185.647 72.9474 185.596 73.1269 185.546 73.2552C185.469 73.3834 185.342 73.4604 185.189 73.486C185.113 73.5117 185.011 73.5117 184.935 73.5117C184.833 73.486 184.757 73.486 184.655 73.486H183.637C183.484 73.486 183.357 73.486 183.23 73.4604C183.128 73.4604 183.026 73.4091 182.925 73.3321C182.848 73.2552 182.797 73.1269 182.797 72.9987C182.797 72.8704 182.797 72.7165 182.797 72.5626V60.6099C182.797 60.4304 182.797 60.2252 182.797 59.9943C182.772 59.8148 182.797 59.6352 182.899 59.4813C182.925 59.43 182.95 59.3787 183.001 59.3531L183.154 59.2762H183.255C183.306 59.2762 183.332 59.2762 183.383 59.2762Z" fill="#D7D7D7"/>
<path d="M197.81 72.3574V72.8961C197.81 73.05 197.785 73.2039 197.683 73.3321C197.607 73.4091 197.53 73.4347 197.428 73.4604C197.301 73.486 197.199 73.486 197.072 73.486H195.978C195.851 73.486 195.724 73.486 195.596 73.486C195.495 73.486 195.418 73.4604 195.342 73.3834C195.266 73.3321 195.189 73.2295 195.189 73.1269C195.164 73.0243 195.138 72.8961 195.113 72.7935L194.96 72.6396C194.833 72.6139 194.731 72.6652 194.629 72.7422L194.426 72.9474C194.324 73.0243 194.248 73.0756 194.171 73.1013C194.095 73.1269 194.019 73.2039 193.917 73.2808C193.815 73.3578 193.815 73.3321 193.739 73.3578L193.561 73.4347C193.357 73.5117 193.179 73.563 192.975 73.6143C192.925 73.6399 192.848 73.6656 192.797 73.6656C192.746 73.6656 192.696 73.6656 192.645 73.6912C192.594 73.6912 192.543 73.6912 192.467 73.6912C192.416 73.6912 192.365 73.6912 192.288 73.6912H192.11C191.983 73.7169 191.881 73.7425 191.754 73.7169C191.652 73.7169 191.525 73.6912 191.423 73.6656C191.347 73.6399 191.271 73.6399 191.169 73.6399C191.093 73.6399 191.016 73.6399 190.94 73.6143L190.482 73.4604C190.329 73.4091 190.177 73.3578 190.024 73.3065C189.54 73.1013 189.133 72.7678 188.777 72.3831C188.421 71.9983 188.141 71.5366 187.912 71.0493C187.861 70.9211 187.81 70.7928 187.785 70.6389C187.734 70.485 187.683 70.3568 187.632 70.2029C187.632 70.1516 187.607 70.1003 187.607 70.049C187.607 69.9977 187.581 69.9464 187.556 69.8694C187.53 69.7668 187.505 69.6386 187.479 69.5103C187.454 69.3821 187.428 69.2538 187.403 69.1256C187.403 69.0743 187.403 69.023 187.403 68.9717C187.403 68.9204 187.403 68.8691 187.403 68.8434V68.6639C187.403 68.6126 187.403 68.5356 187.378 68.4843C187.378 68.4074 187.352 68.3304 187.352 68.2535C187.352 68.1766 187.352 68.0996 187.378 68.0483C187.403 67.997 187.403 67.9201 187.403 67.8688V67.6892C187.403 67.6379 187.403 67.561 187.403 67.5097C187.403 67.4327 187.403 67.3814 187.428 67.3301C187.454 67.1762 187.479 67.048 187.505 66.9197C187.53 66.7915 187.556 66.6632 187.581 66.5093C187.632 66.3554 187.683 66.1759 187.708 66.0476C187.759 65.8937 187.81 65.7398 187.861 65.6116C188.039 65.2012 188.294 64.8165 188.548 64.483C188.573 64.4317 188.624 64.4061 188.65 64.3804C188.701 64.3548 188.726 64.3035 188.752 64.2778C188.802 64.2009 188.853 64.1496 188.904 64.0983C188.955 64.047 189.006 63.9957 189.082 63.9444C189.133 63.9187 189.184 63.8674 189.21 63.8418C189.235 63.7905 189.286 63.7648 189.337 63.7392C189.693 63.5083 190.075 63.3031 190.482 63.1749C190.584 63.1492 190.66 63.1236 190.762 63.1236C190.864 63.1236 190.965 63.0979 191.093 63.0723C191.22 63.0466 191.322 63.021 191.449 63.021C191.601 63.021 191.754 63.021 191.881 63.021C192.009 63.021 192.161 63.021 192.314 63.0466C192.441 63.0466 192.543 63.0723 192.67 63.0979C192.874 63.1749 193.052 63.2262 193.255 63.2775C193.434 63.3288 193.612 63.4057 193.764 63.5083L194.273 63.8674L194.502 64.0213C194.579 64.0983 194.706 64.0983 194.782 64.0213C194.833 63.9957 194.858 63.9444 194.858 63.8931C194.858 63.8161 194.884 63.7648 194.909 63.6879V63.4827C194.935 63.4314 194.935 63.3801 194.935 63.3544V60.4817C194.935 60.3278 194.935 60.1482 194.935 59.9943C194.909 59.8404 194.96 59.7122 195.011 59.5839C195.062 59.4813 195.138 59.3787 195.266 59.3531C195.291 59.3531 195.316 59.3531 195.342 59.3531C195.367 59.3531 195.393 59.3531 195.418 59.3531H196.818C196.97 59.3531 197.123 59.3531 197.25 59.3787C197.377 59.3787 197.479 59.4301 197.556 59.5326C197.632 59.6609 197.657 59.7891 197.657 59.943L197.81 72.3574ZM195.138 68.4587C195.138 68.4074 195.138 68.3561 195.138 68.2792C195.138 68.2279 195.138 68.1766 195.138 68.1253C195.138 67.997 195.138 67.8688 195.113 67.7149C195.113 67.5866 195.087 67.484 195.062 67.3558C195.037 67.2019 195.011 67.0736 194.986 66.9454C194.96 66.8171 194.935 66.7145 194.884 66.6119C194.731 66.1759 194.451 65.7655 194.095 65.4833C193.663 65.1755 193.128 65.0217 192.568 65.073C192.467 65.073 192.365 65.0986 192.238 65.1242C192.136 65.1499 192.034 65.1756 191.958 65.2012C191.881 65.2269 191.78 65.2525 191.703 65.2781C191.372 65.4064 191.067 65.6372 190.864 65.945C190.66 66.2785 190.507 66.6119 190.38 66.971C190.329 67.0993 190.304 67.2275 190.304 67.3814C190.278 67.5353 190.253 67.6636 190.227 67.7918V68.0483C190.202 68.2022 190.202 68.3817 190.202 68.5356C190.202 68.6895 190.227 68.8434 190.253 68.9717C190.253 68.9973 190.253 69.0486 190.253 69.0743C190.253 69.0999 190.253 69.1256 190.253 69.1769C190.278 69.2795 190.304 69.3821 190.329 69.4847C190.355 69.5873 190.38 69.6899 190.406 69.7925C190.584 70.4337 190.991 70.9724 191.551 71.3314C191.78 71.4597 192.009 71.5623 192.263 71.6136C192.339 71.6392 192.416 71.6392 192.492 71.6392C192.543 71.6649 192.619 71.6649 192.67 71.6649C192.746 71.6649 192.797 71.6649 192.874 71.6649C192.975 71.6392 193.077 71.6136 193.205 71.6136C193.306 71.6136 193.434 71.5879 193.535 71.5366C193.841 71.4084 194.095 71.2289 194.324 70.9724C194.553 70.7159 194.706 70.4337 194.833 70.1259C194.884 69.9977 194.935 69.8951 194.96 69.7668C194.986 69.6386 195.011 69.5103 195.037 69.3564C195.037 69.3051 195.037 69.2282 195.037 69.1769C195.037 69.1256 195.037 69.0486 195.062 68.9973C195.087 68.946 195.087 68.8947 195.087 68.8691V68.51L195.138 68.4587Z" fill="#D7D7D7"/>
<path d="M210.125 62.9184C211.042 62.8671 211.958 63.021 212.797 63.4057C213.484 63.7392 214.069 64.2522 214.502 64.8934C214.731 65.2269 214.884 65.6116 214.986 65.9963C215.011 66.0733 215.036 66.1759 215.062 66.2528C215.087 66.3554 215.087 66.4324 215.062 66.535C215.036 66.6632 214.909 66.7658 214.782 66.7915C214.629 66.8171 214.477 66.8171 214.298 66.8171H212.899C212.797 66.8171 212.67 66.7915 212.568 66.7402C212.466 66.6889 212.39 66.5863 212.339 66.4837C212.288 66.3554 212.237 66.2528 212.187 66.1246C212.11 65.9963 212.034 65.8424 211.932 65.7142C211.83 65.5859 211.729 65.4833 211.601 65.3807C211.398 65.2525 211.194 65.1755 210.991 65.0986C210.914 65.0729 210.838 65.0473 210.762 65.0473C210.685 65.0473 210.609 65.0473 210.533 64.996H210.355C210.126 64.996 209.922 65.0217 209.718 65.073C209.362 65.1756 209.057 65.3551 208.777 65.6116C208.522 65.8681 208.344 66.1759 208.192 66.5093C208.115 66.6632 208.064 66.8171 208.039 66.971C208.014 67.1506 207.963 67.3301 207.937 67.5097C207.912 67.561 207.912 67.6123 207.912 67.6636C207.912 67.7149 207.912 67.7662 207.912 67.8175C207.886 67.997 207.861 68.1766 207.886 68.3817C207.886 68.5613 207.912 68.7665 207.937 68.946C207.937 69.023 207.937 69.0999 207.963 69.1769C207.988 69.2795 208.014 69.3564 208.014 69.459C208.014 69.5616 208.039 69.6386 208.064 69.7412C208.166 70.0233 208.293 70.3055 208.446 70.5876C208.599 70.8441 208.777 71.0493 209.006 71.2289C209.082 71.2802 209.159 71.3315 209.235 71.3571C209.362 71.4597 209.515 71.511 209.667 71.5366C209.82 71.5623 209.998 71.5879 210.227 71.6136H210.329C210.38 71.6136 210.405 71.6136 210.456 71.5879H210.66L211.169 71.434C211.55 71.2801 211.856 71.0237 212.085 70.6646C212.136 70.5876 212.187 70.5107 212.237 70.4337C212.288 70.3568 212.314 70.2798 212.339 70.2029L212.492 69.8181C212.543 69.6899 212.645 69.5873 212.772 69.5616C212.95 69.5103 213.153 69.4847 213.357 69.4847H214.273C214.349 69.4847 214.451 69.4847 214.528 69.5103H214.68C214.731 69.536 214.782 69.536 214.833 69.536C214.884 69.536 214.909 69.5616 214.96 69.5873C215.036 69.6386 215.062 69.7155 215.087 69.8181C215.113 69.9207 215.113 70.0233 215.087 70.1516C214.985 70.562 214.833 70.9467 214.655 71.3315C214.12 72.3574 213.179 73.1269 212.059 73.4604C211.932 73.5117 211.779 73.5373 211.652 73.563C211.5 73.5886 211.372 73.6143 211.22 73.6656C211.143 73.6656 211.067 73.6912 210.991 73.6912C210.914 73.6912 210.838 73.6912 210.762 73.7169H210.533C210.431 73.7425 210.329 73.7682 210.227 73.7425C210.126 73.7425 210.024 73.7169 209.922 73.7169C209.82 73.6912 209.718 73.6912 209.642 73.6912C209.54 73.6912 209.464 73.6912 209.388 73.6656C209.311 73.6656 209.26 73.6399 209.184 73.6399L208.98 73.6143C208.828 73.563 208.701 73.5373 208.573 73.486C208.446 73.4347 208.319 73.4091 208.192 73.3578C207.606 73.1269 207.072 72.7678 206.64 72.3318C206.207 71.8701 205.851 71.3571 205.622 70.7672C205.545 70.6389 205.494 70.5107 205.469 70.3824C205.418 70.2285 205.393 70.1003 205.342 69.9464C205.342 69.8951 205.316 69.8438 205.316 69.7925C205.316 69.7412 205.291 69.6899 205.265 69.6129C205.24 69.5103 205.215 69.4077 205.215 69.3308C205.215 69.2282 205.215 69.1256 205.164 69.023V68.6895C205.138 68.6126 205.113 68.5356 205.113 68.4587C205.113 68.3817 205.138 68.3048 205.164 68.2278C205.189 68.1765 205.189 68.0996 205.164 68.0483C205.138 67.997 205.138 67.9457 205.164 67.8944C205.189 67.8175 205.189 67.7149 205.189 67.6379C205.189 67.561 205.189 67.484 205.215 67.4071C205.291 67.1762 205.342 66.9454 205.367 66.7145C205.418 66.4837 205.469 66.2785 205.545 66.0733C205.8 65.4321 206.182 64.8678 206.64 64.3804C207.123 63.8931 207.708 63.534 208.319 63.2775C208.497 63.2005 208.701 63.1492 208.904 63.0979C209.108 63.0723 209.311 63.021 209.515 62.9697C209.617 62.9697 209.718 62.944 209.82 62.944C209.922 62.9697 210.024 62.944 210.125 62.9184Z" fill="#D7D7D7"/>
<path d="M219.54 59.4044C219.642 59.5326 219.693 59.7122 219.667 59.8917V61.046C219.693 61.1999 219.642 61.3281 219.54 61.4307C219.438 61.5077 219.337 61.5333 219.209 61.559C219.082 61.5846 218.929 61.5846 218.802 61.5846H217.708C217.581 61.5846 217.454 61.5846 217.326 61.559C217.225 61.559 217.123 61.5077 217.047 61.4307C216.97 61.3794 216.945 61.2768 216.945 61.1999C216.894 60.9434 216.894 60.6612 216.894 60.4047C216.894 60.2508 216.894 60.1226 216.894 60.02C216.894 59.9174 216.894 59.8148 216.894 59.7378C216.894 59.6609 216.919 59.5839 216.97 59.507C216.996 59.4557 217.021 59.4044 217.072 59.3787L217.225 59.3018H217.326C217.352 59.3018 217.403 59.3018 217.428 59.3018H218.879C219.006 59.3018 219.133 59.3018 219.26 59.3274C219.362 59.3274 219.464 59.3787 219.54 59.4557M219.642 72.4087C219.642 72.6652 219.642 72.8961 219.617 73.0756C219.591 73.2552 219.489 73.4091 219.26 73.4604C219.184 73.486 219.082 73.486 219.006 73.486C218.904 73.486 218.828 73.486 218.7 73.486H217.606C217.479 73.486 217.377 73.486 217.25 73.4604C217.148 73.4604 217.072 73.4091 216.996 73.3321C216.919 73.2295 216.868 73.1013 216.868 72.973C216.868 72.8448 216.868 72.6909 216.868 72.5113V63.6622C216.868 63.5596 216.894 63.4314 216.945 63.3288C217.021 63.2262 217.148 63.1749 217.276 63.1492C217.301 63.1236 217.352 63.1236 217.377 63.1492C217.403 63.1492 217.454 63.1492 217.479 63.1492H218.726C218.802 63.1492 218.879 63.1492 218.98 63.1492H219.133C219.209 63.1749 219.286 63.2005 219.337 63.2005C219.413 63.2262 219.464 63.2518 219.489 63.3288C219.54 63.4057 219.591 63.5083 219.591 63.6109C219.591 63.7392 219.591 63.8674 219.591 63.9957L219.642 72.4087Z" fill="#D7D7D7"/>
<path d="M223.255 60.1226H224.578C224.756 60.1226 224.935 60.1226 225.113 60.1482C225.265 60.1739 225.393 60.2508 225.443 60.4047C225.469 60.4817 225.494 60.5586 225.494 60.6356V61.8155C225.494 61.8924 225.494 61.9437 225.494 62.0463C225.469 62.1233 225.469 62.2002 225.494 62.2771V62.4823C225.494 62.5849 225.494 62.6875 225.52 62.7645C225.545 62.8414 225.571 62.9184 225.622 62.9953C225.749 63.1236 225.927 63.2005 226.13 63.1749C226.385 63.1749 226.614 63.1749 226.843 63.1749H227.072C227.148 63.1749 227.225 63.2005 227.301 63.2262C227.454 63.2775 227.53 63.4314 227.555 63.5853C227.581 63.7648 227.581 63.97 227.581 64.1752C227.581 64.2778 227.581 64.3548 227.581 64.4574C227.581 64.5343 227.581 64.6113 227.555 64.6882C227.504 64.8934 227.352 65.0217 227.148 65.0217C226.945 65.0217 226.69 65.0473 226.436 65.0473H226.258C226.207 65.0473 226.156 65.0473 226.105 65.0473C226.054 65.0473 226.003 65.0473 225.978 65.0473C225.927 65.0473 225.901 65.0473 225.851 65.073C225.749 65.0986 225.672 65.1499 225.622 65.2525C225.571 65.3551 225.52 65.4577 225.52 65.5859C225.494 65.6629 225.494 65.7398 225.52 65.7911C225.545 65.8681 225.545 65.945 225.52 66.022V69.5873C225.52 69.9207 225.52 70.2029 225.545 70.4594C225.571 70.6902 225.647 70.9211 225.8 71.1006C225.876 71.1776 225.952 71.2288 226.054 71.2801C226.156 71.3058 226.283 71.3571 226.41 71.3571C226.461 71.3571 226.487 71.3571 226.538 71.3571C226.563 71.3571 226.614 71.3571 226.639 71.3571H226.843C226.996 71.3571 227.123 71.3571 227.225 71.3571C227.326 71.3827 227.428 71.434 227.479 71.511C227.53 71.6136 227.555 71.7162 227.555 71.8188V72.2548C227.555 72.537 227.555 72.7935 227.555 73.0243C227.555 73.2295 227.428 73.4347 227.225 73.486C227.174 73.5117 227.097 73.5117 227.046 73.5117C226.996 73.5117 226.919 73.5117 226.868 73.5373H226.512C226.461 73.5373 226.41 73.5373 226.359 73.5373C226.283 73.5373 226.232 73.5373 226.156 73.5373H225.952C225.876 73.5373 225.825 73.5373 225.749 73.5373C225.698 73.5373 225.622 73.5373 225.571 73.5373H225.367C225.291 73.5117 225.214 73.5117 225.138 73.5117C225.062 73.5117 224.985 73.5117 224.935 73.486L224.68 73.4347C224.604 73.4347 224.527 73.4091 224.451 73.3834C224.298 73.3578 224.171 73.3065 224.044 73.2552C223.917 73.2039 223.79 73.1526 223.662 73.0756C223.637 73.05 223.586 73.0243 223.56 72.973L223.433 72.8704C223.408 72.8448 223.357 72.8191 223.331 72.7935L223.23 72.7165C223.052 72.46 222.899 72.1779 222.823 71.8701C222.797 71.8188 222.772 71.7675 222.797 71.7162C222.797 71.6649 222.797 71.6136 222.797 71.5366C222.772 71.511 222.772 71.4853 222.772 71.434C222.772 71.4084 222.772 71.3571 222.746 71.3314V71.1262C222.746 71.0749 222.746 70.998 222.746 70.9467C222.746 70.8954 222.746 70.8185 222.746 70.7415V65.945C222.746 65.8424 222.746 65.7655 222.746 65.6629C222.746 65.5859 222.746 65.4833 222.721 65.4064C222.695 65.2525 222.594 65.1243 222.441 65.0473C222.263 64.9704 222.085 64.9447 221.881 64.996C221.678 65.0217 221.474 64.996 221.296 64.9447C221.22 64.9191 221.143 64.8421 221.092 64.7652C221.067 64.6626 221.041 64.56 221.016 64.4574V64.047C221.016 63.8418 221.016 63.6622 221.041 63.457C221.067 63.3031 221.194 63.2005 221.372 63.1492C221.423 63.1236 221.474 63.1236 221.525 63.1236C221.576 63.1236 221.652 63.1236 221.703 63.1236C221.881 63.1236 222.059 63.1236 222.237 63.1236C222.39 63.1236 222.517 63.021 222.594 62.8927C222.644 62.7901 222.67 62.6875 222.67 62.5593C222.67 62.431 222.67 62.3284 222.67 62.2002V60.6099C222.67 60.5073 222.67 60.4047 222.721 60.3021C222.772 60.1739 222.899 60.0713 223.026 60.0456C223.052 60.0456 223.102 60.0456 223.128 60.0456C223.179 60.1482 223.204 60.1482 223.255 60.1226Z" fill="#D7D7D7"/>
<path d="M228.319 63.1492H230.227C230.354 63.1492 230.456 63.1749 230.558 63.2262C230.736 63.3544 230.838 63.534 230.889 63.7392C230.94 63.9444 231.016 64.1496 231.067 64.3548C231.118 64.5087 231.194 64.6882 231.219 64.8421C231.27 65.0216 231.321 65.1756 231.398 65.3295C231.499 65.6372 231.601 65.945 231.703 66.2272C231.805 66.535 231.881 66.8171 232.008 67.1249L232.415 68.3817C232.466 68.51 232.492 68.6126 232.517 68.7408C232.543 68.8691 232.593 68.9973 232.644 69.0999C232.695 69.2025 232.721 69.3308 232.772 69.459C232.797 69.5873 232.924 69.6642 233.051 69.6386C233.077 69.6129 233.102 69.5873 233.128 69.5873C233.153 69.5616 233.179 69.5616 233.204 69.536C233.23 69.4847 233.28 69.4077 233.306 69.3308C233.331 69.2538 233.357 69.2025 233.382 69.1256C233.459 68.9717 233.51 68.8178 233.535 68.6639C233.586 68.51 233.637 68.3304 233.688 68.1765C233.866 67.6123 234.044 67.0736 234.222 66.5093C234.4 65.945 234.578 65.4064 234.756 64.8421C234.807 64.6626 234.884 64.483 234.934 64.3035C234.985 64.1239 235.036 63.9444 235.087 63.7648C235.138 63.6622 235.163 63.5596 235.189 63.4314C235.214 63.3288 235.291 63.2518 235.367 63.1749C235.443 63.0979 235.545 63.0723 235.672 63.0723C235.8 63.0723 235.927 63.0723 236.079 63.0723H237.275C237.403 63.0723 237.53 63.0723 237.657 63.0979C237.759 63.0979 237.861 63.1492 237.937 63.2262C238.013 63.3288 238.039 63.457 237.988 63.5853C237.962 63.6879 237.912 63.7905 237.886 63.9187C237.861 64.0213 237.81 64.1239 237.759 64.2522C237.581 64.7139 237.403 65.2012 237.224 65.6629C237.046 66.1502 236.868 66.6376 236.69 67.0993C236.614 67.3045 236.537 67.5097 236.487 67.7149C236.41 67.9201 236.334 68.1252 236.258 68.3304C236.181 68.5356 236.13 68.6895 236.054 68.8691C235.978 69.0486 235.927 69.2282 235.85 69.4077C235.596 70.049 235.342 70.7415 235.113 71.4084C234.884 72.0753 234.629 72.7422 234.375 73.3834C234.349 73.4604 234.298 73.563 234.298 73.6399C234.273 73.7169 234.247 73.7938 234.222 73.8708C234.12 74.1272 234.018 74.3581 233.917 74.6146C233.815 74.8711 233.739 75.0763 233.611 75.3071C233.51 75.5123 233.382 75.7175 233.23 75.9227C233.077 76.1023 232.899 76.2818 232.695 76.4101C232.517 76.5383 232.339 76.6409 232.135 76.6922C231.932 76.7692 231.703 76.8204 231.474 76.8974C231.372 76.923 231.27 76.9487 231.143 76.9487C231.041 76.9487 230.914 76.9744 230.812 77H229.922C229.769 77 229.642 77 229.489 76.9744C229.337 76.9487 229.235 76.9487 229.108 76.923C229.031 76.923 228.929 76.8718 228.853 76.8205C228.802 76.7692 228.751 76.7178 228.726 76.6409C228.7 76.564 228.675 76.487 228.649 76.3588V75.1532C228.649 74.8967 228.726 74.7428 228.878 74.6659C228.955 74.6402 229.057 74.6146 229.158 74.6146C229.26 74.6146 229.362 74.6146 229.438 74.6402H230.176C230.227 74.6402 230.278 74.6402 230.329 74.6402C230.38 74.6402 230.431 74.6146 230.482 74.5889C230.863 74.4863 231.169 74.1786 231.27 73.7682C231.296 73.6912 231.321 73.6143 231.347 73.5373C231.372 73.4347 231.372 73.3578 231.347 73.2552C231.321 73.2039 231.296 73.1269 231.296 73.05C231.296 72.973 231.27 72.9217 231.245 72.8448C231.169 72.5883 231.092 72.3061 230.99 72.0496C230.889 71.7931 230.787 71.5366 230.685 71.2801C230.583 71.0237 230.482 70.7672 230.405 70.5363C230.329 70.2798 230.227 70.0233 230.125 69.7668C230.049 69.6129 229.998 69.459 229.947 69.2795C229.896 69.1256 229.845 68.946 229.769 68.7921C229.566 68.2792 229.362 67.7662 229.184 67.2275C229.006 66.7145 228.802 66.1759 228.599 65.6629C228.573 65.6116 228.573 65.5859 228.548 65.5346C228.548 65.4833 228.522 65.4577 228.497 65.432C228.395 65.2012 228.293 64.9447 228.242 64.6882C228.166 64.4574 228.09 64.2009 227.988 63.9957C227.962 63.9187 227.912 63.7905 227.861 63.6366C227.81 63.5083 227.784 63.3801 227.835 63.2518C227.886 63.1492 227.988 63.0723 228.09 63.0466C228.115 63.0466 228.141 63.0466 228.166 63.0466C228.191 63.0466 228.217 63.0466 228.242 63.0466" fill="#D7D7D7"/>
</svg>
