<svg width="300" height="148" viewBox="0 0 300 148" fill="none" xmlns="http://www.w3.org/2000/svg">
<path d="M141.808 39.0678V46.283H146.583C147.704 46.2821 148.804 45.978 149.765 45.4031C150.117 45.0607 150.393 44.6491 150.575 44.1946C150.758 43.7401 150.843 43.2526 150.826 42.7634C150.928 41.9026 150.69 41.0361 150.162 40.3467C149.634 39.6572 148.858 39.1987 147.997 39.0678H141.808ZM141.808 34.1403H145.698C146.289 34.2271 146.891 34.1938 147.469 34.0426C148.046 33.8914 148.587 33.6253 149.058 33.2604C149.415 32.9601 149.697 32.5811 149.881 32.1534C150.065 31.7257 150.147 31.2612 150.119 30.7967C150.175 30.2775 150.109 29.7524 149.924 29.2634C149.74 28.7745 149.443 28.3353 149.058 27.981C147.979 27.3917 146.745 27.146 145.522 27.2771H141.808V34.1403ZM134.559 51.7384V21.6457H145.522C148.614 21.4579 151.693 22.1932 154.363 23.7574C155.349 24.4446 156.143 25.371 156.669 26.4488C157.195 27.5267 157.436 28.7203 157.368 29.9168C157.377 31.3352 157.011 32.7309 156.308 33.9643C155.543 35.1071 154.426 35.9718 153.125 36.4281C154.595 36.731 155.91 37.5413 156.838 38.7158C157.693 39.9559 158.127 41.4361 158.076 42.9394C158.146 44.1947 157.927 45.4495 157.437 46.6082C156.947 47.767 156.198 48.7993 155.247 49.6266C152.805 51.2661 149.868 52.0124 146.936 51.7384H134.559Z" fill="#D7D7D7"/>
<path d="M174.343 35.7241H171.868C171.029 35.6154 170.178 35.7584 169.421 36.1346C168.665 36.5109 168.039 37.1033 167.624 37.8359V51.9144H160.728V29.3888H167.27V32.2045C167.707 31.2626 168.405 30.4643 169.282 29.9032C170.159 29.3422 171.179 29.0416 172.221 29.0369H174.166L174.343 35.7241Z" fill="#D7D7D7"/>
<path d="M183.891 51.7384H176.818V29.3888H183.891V51.7384ZM176.465 23.5815C176.422 23.1154 176.497 22.646 176.682 22.2159C176.867 21.7857 177.157 21.4083 177.526 21.1177C178.315 20.4643 179.332 20.148 180.355 20.2378C181.371 20.1983 182.371 20.5091 183.184 21.1177C183.85 21.7675 184.232 22.6531 184.245 23.5815C184.26 24.0443 184.172 24.5048 183.989 24.9305C183.806 25.3562 183.531 25.7367 183.184 26.0452C182.804 26.3868 182.355 26.6425 181.866 26.7944C181.378 26.9463 180.862 26.9909 180.355 26.9251C179.847 27.0178 179.324 26.9862 178.831 26.8329C178.338 26.6796 177.89 26.4093 177.526 26.0452C177.144 25.7662 176.844 25.3906 176.658 24.9573C176.471 24.5241 176.405 24.049 176.465 23.5815Z" fill="#D7D7D7"/>
<path d="M199.628 45.5791C199.65 45.2814 199.576 44.9847 199.417 44.7316C199.258 44.4786 199.022 44.2824 198.744 44.1712C197.625 43.6064 196.436 43.1921 195.208 42.9394C193.651 42.6775 192.154 42.1411 190.787 41.3555C189.71 40.8476 188.793 40.0566 188.135 39.0678C187.58 38.1659 187.275 37.1336 187.251 36.0761C187.284 35.0827 187.539 34.1092 187.998 33.2264C188.457 32.3436 189.108 31.5737 189.903 30.9727C191.839 29.5497 194.222 28.8631 196.622 29.0369C199.13 28.8827 201.619 29.5637 203.695 30.9727C204.556 31.5635 205.263 32.3512 205.755 33.2698C206.247 34.1884 206.511 35.2111 206.524 36.2521H199.451C199.482 35.8822 199.428 35.5103 199.294 35.164C199.16 34.8177 198.949 34.506 198.677 34.2522C198.405 33.9984 198.079 33.8091 197.723 33.6983C197.367 33.5875 196.991 33.5581 196.622 33.6124C195.936 33.5968 195.26 33.7802 194.677 34.1403C194.432 34.3211 194.238 34.562 194.114 34.8396C193.99 35.1171 193.94 35.4218 193.97 35.7241C193.972 36.0172 194.056 36.304 194.212 36.5526C194.368 36.8012 194.59 37.0017 194.854 37.132C195.782 37.6659 196.801 38.024 197.86 38.1879L201.396 39.0678C204.756 40.2996 206.347 42.2354 206.347 45.2271C206.388 46.2337 206.165 47.2334 205.7 48.1282C205.235 49.0229 204.544 49.7819 203.695 50.3306C201.876 51.4275 199.822 52.0793 197.701 52.2323C195.58 52.3852 193.453 52.035 191.494 51.2105C190.102 50.5738 188.888 49.607 187.958 48.3948C187.079 47.3581 186.58 46.055 186.543 44.6992H193.086C193.096 45.1324 193.195 45.559 193.378 45.9525C193.56 46.3461 193.822 46.6981 194.147 46.9869C194.979 47.3836 195.879 47.6223 196.799 47.6908C197.566 47.7043 198.315 47.4559 198.921 46.9869C199.152 46.834 199.338 46.6236 199.463 46.3766C199.587 46.1297 199.644 45.8547 199.628 45.5791Z" fill="#D7D7D7"/>
<path d="M223.145 40.2996C223.271 38.7404 223.029 37.1736 222.438 35.7241C222.136 35.3006 221.739 34.9529 221.279 34.7085C220.818 34.4642 220.307 34.3299 219.785 34.3163C219.097 34.2777 218.412 34.4404 217.815 34.7844C217.218 35.1283 216.735 35.6385 216.426 36.2521V45.0511C216.742 45.6474 217.232 46.1346 217.832 46.4486C218.431 46.7627 219.112 46.889 219.785 46.8109C220.503 46.8726 221.22 46.6756 221.804 46.2556C222.388 45.8357 222.801 45.2209 222.968 44.5232C223.203 43.1281 223.262 41.7093 223.145 40.2996ZM230.218 40.8276C230.453 43.8229 229.641 46.8072 227.919 49.2747C227.189 50.2585 226.226 51.0467 225.115 51.5689C224.004 52.091 222.78 52.3306 221.554 52.2663C220.456 52.2663 219.373 52.0119 218.39 51.5232C217.408 51.0345 216.554 50.3249 215.895 49.4507V51.9144H209.53V20.0618H216.603V31.1486C217.206 30.4377 217.968 29.8766 218.827 29.51C219.687 29.1434 220.62 28.9814 221.554 29.0369C222.813 28.9069 224.085 29.1159 225.236 29.6422C226.387 30.1684 227.374 30.9926 228.096 32.0285C229.818 34.496 230.63 37.4803 230.394 40.4756L230.218 40.8276Z" fill="#D7D7D7"/>
<path d="M241.357 47.3389C242.124 47.3523 242.873 47.1039 243.479 46.635C244.012 46.3649 244.445 45.9336 244.717 45.4031V41.8835H242.772C240.296 41.8835 239.059 42.9394 239.059 45.0511C239.034 45.3372 239.069 45.6251 239.16 45.8974C239.251 46.1697 239.397 46.4207 239.589 46.635C240.092 47.0437 240.709 47.2894 241.357 47.3389ZM245.778 51.7384C245.437 51.1359 245.198 50.482 245.07 49.8026C244.387 50.5798 243.544 51.2019 242.598 51.6269C241.653 52.052 240.627 52.27 239.589 52.2664C237.645 52.2727 235.763 51.5859 234.284 50.3306C233.562 49.766 232.979 49.0441 232.581 48.2205C232.182 47.3968 231.979 46.4932 231.986 45.5791C231.904 44.4927 232.105 43.4036 232.57 42.4172C233.034 41.4307 233.747 40.5802 234.638 39.9477C237.056 38.5868 239.826 37.9741 242.595 38.1879H244.717V36.956C244.717 34.8442 243.833 33.7883 242.064 33.7883C241.772 33.7384 241.472 33.7501 241.185 33.8226C240.897 33.8951 240.628 34.0268 240.395 34.2092C240.162 34.3916 239.969 34.6207 239.831 34.8816C239.692 35.1426 239.609 35.4296 239.589 35.7241V36.2521H232.516C232.529 35.2111 232.793 34.1884 233.285 33.2698C233.778 32.3512 234.484 31.5635 235.345 30.9727C237.422 29.5637 239.91 28.8827 242.418 29.0369C244.849 28.8441 247.259 29.6016 249.137 31.1486C249.973 31.831 250.645 32.6909 251.104 33.6653C251.563 34.6397 251.797 35.7039 251.789 36.78V46.8109C251.726 48.3835 252.028 49.9495 252.674 51.3864V51.7384H245.778Z" fill="#D7D7D7"/>
<path d="M261.691 29.3888L262.045 32.0285C262.775 31.0448 263.738 30.2565 264.849 29.7344C265.96 29.2122 267.184 28.9726 268.41 29.0369C269.4 28.9388 270.399 29.0795 271.322 29.4471C272.246 29.8147 273.066 30.3983 273.715 31.1486C274.99 32.9425 275.613 35.1146 275.483 37.308V51.7384H268.41V37.6599C268.471 37.2229 268.44 36.778 268.318 36.3537C268.196 35.9294 267.987 35.5352 267.703 35.1962C267.384 34.8725 266.996 34.6251 266.567 34.4727C266.138 34.3202 265.68 34.2668 265.228 34.3163C264.633 34.3076 264.046 34.4481 263.521 34.7249C262.995 35.0018 262.549 35.4059 262.222 35.9001V51.7384H255.149V29.3888H261.691Z" fill="#D7D7D7"/>
<path d="M288.745 34.3163C286.623 34.3163 285.385 35.7241 285.031 38.3639H292.104V37.8359C292.168 37.3847 292.121 36.9248 291.967 36.4956C291.813 36.0665 291.557 35.681 291.22 35.3722C290.567 34.709 289.677 34.3295 288.745 34.3163ZM289.452 52.2664C287.925 52.3147 286.403 52.0594 284.976 51.5155C283.549 50.9716 282.245 50.15 281.141 49.0987C280.078 48.0783 279.244 46.8446 278.695 45.4794C278.147 44.1142 277.895 42.6486 277.959 41.1796V40.4756C277.852 38.4088 278.278 36.3492 279.196 34.4923C279.936 32.7623 281.246 31.3347 282.91 30.4447C285.006 29.3272 287.393 28.8639 289.758 29.115C292.123 29.3661 294.358 30.32 296.171 31.8526C298.143 34.1473 299.156 37.1078 299 40.1237V42.7634H285.031C285.158 43.9264 285.727 44.997 286.623 45.7551C287.607 46.4431 288.78 46.8119 289.982 46.8109C290.961 46.89 291.945 46.7218 292.841 46.3219C293.737 45.922 294.518 45.3033 295.11 44.5232L298.293 48.2188C297.401 49.5789 296.102 50.6255 294.58 51.2105C292.962 51.9123 291.216 52.2718 289.452 52.2664Z" fill="#D7D7D7"/>
<path d="M137.742 78.4875L141.278 59.4816H148.527L142.162 89.7503H134.559L130.492 72.5042L126.425 89.7503H118.822L112.457 59.4816H119.706L123.242 78.4875L127.309 59.4816H133.498L137.742 78.4875Z" fill="#D7D7D7"/>
<path d="M162.85 73.56H160.551C159.713 73.4514 158.861 73.5943 158.105 73.9706C157.349 74.3468 156.723 74.9392 156.307 75.6718V89.7503H149.235V67.2247H155.777L156.131 70.2164C156.468 69.2275 157.112 68.3708 157.97 67.7698C158.828 67.1688 159.856 66.8547 160.905 66.8728H163.027L162.85 73.56Z" fill="#D7D7D7"/>
<path d="M172.398 89.7503H165.325V67.2247H172.398V89.7503ZM164.972 61.4174C164.985 60.489 165.366 59.6035 166.033 58.9536C166.863 58.3797 167.85 58.0726 168.862 58.0737C169.869 58.0935 170.851 58.3987 171.691 58.9536C172.357 59.6035 172.738 60.489 172.752 61.4174C172.779 61.8819 172.698 62.3464 172.514 62.7741C172.33 63.2018 172.048 63.5808 171.691 63.8811C170.902 64.5529 169.9 64.9267 168.862 64.937C167.817 64.9597 166.804 64.5816 166.033 63.8811C165.675 63.5808 165.393 63.2018 165.209 62.7741C165.025 62.3464 164.944 61.8819 164.972 61.4174Z" fill="#D7D7D7"/>
<path d="M184.598 61.5933V67.2247H188.312V72.1522H184.598V82.3591C184.524 82.6603 184.517 82.9741 184.578 83.2783C184.639 83.5824 184.767 83.8694 184.952 84.1189C185.535 84.479 186.211 84.6624 186.897 84.6468H188.665V89.7503C187.338 90.0982 185.971 90.2756 184.598 90.2782C183.641 90.349 182.679 90.2299 181.769 89.9278C180.858 89.6257 180.017 89.1467 179.294 88.5184C178.659 87.8368 178.174 87.0309 177.869 86.1522C177.565 85.2735 177.448 84.3412 177.526 83.415V72.1522H174.697V67.2247H177.526V61.5933H184.598Z" fill="#D7D7D7"/>
<path d="M200.866 72.1522C198.744 72.1522 197.506 73.56 197.153 76.3757H204.225V75.6718C204.252 75.2231 204.187 74.7736 204.035 74.3503C203.884 73.927 203.647 73.5385 203.341 73.2081C202.688 72.5449 201.799 72.1654 200.866 72.1522ZM201.573 90.1023C198.522 90.1911 195.551 89.1216 193.263 87.1106C192.166 86.0776 191.312 84.8164 190.762 83.4171C190.212 82.0177 189.979 80.5148 190.08 79.0155V78.4875C189.959 76.363 190.385 74.2429 191.318 72.3282C192.057 70.5982 193.367 69.1706 195.031 68.2806C196.806 67.28 198.827 66.7925 200.866 66.8728C202.234 66.7838 203.606 66.9892 204.887 67.4751C206.169 67.961 207.33 68.7159 208.292 69.6885C210.265 71.9832 211.277 74.9437 211.121 77.9596V80.5993H197.153C197.279 81.7623 197.849 82.8329 198.744 83.591C199.688 84.3563 200.889 84.734 202.103 84.6468C203.083 84.7259 204.066 84.5577 204.962 84.1578C205.859 83.7579 206.639 83.1392 207.231 82.3591L210.414 86.2307C209.458 87.4897 208.174 88.4636 206.701 89.0464C205.083 89.7482 203.337 90.1077 201.573 90.1023Z" fill="#D7D7D7"/>
<path d="M227.212 73.5601H224.913C224.075 73.4514 223.223 73.5943 222.467 73.9706C221.711 74.3468 221.085 74.9392 220.669 75.6718V89.7503H213.597V67.2247H220.139L220.493 70.2164C220.862 69.2135 221.539 68.3513 222.427 67.7514C223.315 67.1515 224.37 66.8442 225.444 66.8728H227.389L227.212 73.5601Z" fill="#D7D7D7"/>
<path d="M241.18 83.415C241.202 83.1174 241.128 82.8206 240.969 82.5676C240.81 82.3145 240.575 82.1183 240.296 82.0071L236.76 80.7753C235.213 80.5757 233.715 80.0987 232.339 79.3674C231.302 78.8015 230.398 78.0215 229.687 77.0797C229.151 76.1056 228.849 75.0215 228.803 73.912C228.836 72.9186 229.092 71.9451 229.55 71.0623C230.009 70.1795 230.66 69.4096 231.455 68.8086C233.391 67.3856 235.774 66.699 238.174 66.8728C240.683 66.7186 243.171 67.3996 245.247 68.8086C246.108 69.3994 246.815 70.1871 247.307 71.1057C247.799 72.0243 248.063 73.047 248.076 74.088H241.004C241.034 73.7182 240.98 73.3462 240.846 72.9999C240.712 72.6536 240.502 72.3419 240.23 72.0881C239.958 71.8343 239.631 71.645 239.276 71.5342C238.92 71.4234 238.543 71.394 238.174 71.4483C237.488 71.4327 236.813 71.6161 236.229 71.9762C235.821 72.4099 235.572 72.9679 235.522 73.56C235.529 73.8758 235.612 74.1852 235.767 74.4613C235.921 74.7373 236.14 74.9717 236.406 75.1439L239.412 76.0238L242.949 76.9037C246.308 78.1356 247.899 80.2473 247.899 83.239C247.965 84.2251 247.751 85.2097 247.282 86.0808C246.813 86.9519 246.108 87.6745 245.247 88.1665C243.171 89.5754 240.683 90.2565 238.174 90.1023C236.41 90.1077 234.664 89.7482 233.047 89.0464C231.619 88.4685 230.39 87.4903 229.51 86.2307C228.71 85.1496 228.221 83.872 228.096 82.5351H234.815C234.729 82.9606 234.767 83.4017 234.923 83.8067C235.08 84.2118 235.349 84.5642 235.699 84.8228C236.499 85.3016 237.418 85.5456 238.351 85.5267C239.123 85.5725 239.883 85.3204 240.473 84.8228C240.704 84.6699 240.891 84.4595 241.015 84.2125C241.139 83.9656 241.196 83.6906 241.18 83.415Z" fill="#D7D7D7"/>
<path d="M152.594 115.619H141.808V127.586H134.559V97.3175H154.893V102.949H141.808V109.988H152.594V115.619Z" fill="#D7D7D7"/>
<path d="M165.679 110.164C163.557 110.164 162.319 111.396 161.966 114.212H169.038V113.684C169.079 113.207 169.022 112.727 168.87 112.273C168.718 111.819 168.474 111.401 168.154 111.044C167.844 110.709 167.457 110.454 167.026 110.301C166.594 110.147 166.132 110.1 165.679 110.164ZM166.386 127.938C164.87 128.02 163.353 127.797 161.925 127.283C160.498 126.769 159.188 125.975 158.076 124.947C156.979 123.914 156.125 122.652 155.575 121.253C155.025 119.854 154.792 118.351 154.893 116.851V116.323C154.772 114.199 155.198 112.079 156.131 110.164C156.975 108.503 158.259 107.104 159.844 106.117C161.651 105.197 163.65 104.715 165.679 104.709C167.063 104.617 168.451 104.839 169.737 105.357C171.023 105.875 172.174 106.676 173.105 107.7C175.067 109.932 176.081 112.834 175.934 115.795V118.611H161.966C162.135 119.711 162.7 120.712 163.557 121.427C164.483 122.24 165.682 122.68 166.917 122.659C167.903 122.659 168.876 122.438 169.764 122.011C170.652 121.585 171.431 120.964 172.044 120.195L175.227 124.067C174.326 125.378 173.024 126.365 171.514 126.882C169.897 127.584 168.15 127.944 166.386 127.938Z" fill="#D7D7D7"/>
<path d="M190.61 121.251C190.608 120.958 190.525 120.671 190.368 120.422C190.212 120.174 189.99 119.973 189.726 119.843C188.611 119.307 187.417 118.95 186.19 118.787C184.655 118.446 183.17 117.914 181.769 117.203C180.821 116.585 179.984 115.811 179.294 114.916C178.63 113.998 178.316 112.875 178.41 111.748C178.409 110.767 178.632 109.798 179.06 108.914C179.489 108.03 180.113 107.254 180.885 106.644C182.828 105.235 185.206 104.55 187.604 104.709C190.168 104.555 192.712 105.234 194.854 106.644C195.654 107.281 196.305 108.083 196.763 108.994C197.221 109.906 197.474 110.905 197.506 111.924H190.433C190.433 110.164 189.549 109.284 187.604 109.284C187.249 109.266 186.894 109.319 186.56 109.44C186.226 109.56 185.92 109.747 185.659 109.988C185.25 110.349 184.997 110.853 184.952 111.396C184.958 111.712 185.042 112.021 185.196 112.297C185.351 112.573 185.57 112.808 185.836 112.98C186.784 113.433 187.799 113.73 188.842 113.86L192.378 114.74C195.738 115.971 197.506 118.083 197.506 121.075C197.498 122.069 197.233 123.043 196.738 123.906C196.242 124.769 195.533 125.491 194.677 126.002C192.601 127.411 190.113 128.092 187.604 127.938C185.84 127.944 184.094 127.584 182.477 126.882C181.049 126.304 179.82 125.326 178.94 124.067C178.085 123.028 177.644 121.712 177.703 120.371H184.245C184.231 120.808 184.32 121.242 184.504 121.64C184.688 122.037 184.963 122.386 185.306 122.659C186.033 123.154 186.901 123.401 187.781 123.363C188.526 123.403 189.265 123.219 189.903 122.835C190.163 122.668 190.368 122.429 190.494 122.148C190.619 121.866 190.66 121.555 190.61 121.251Z" fill="#D7D7D7"/>
<path d="M208.646 99.6052V105.061H212.359V109.988H208.646V120.195C208.571 120.496 208.564 120.81 208.625 121.114C208.687 121.418 208.814 121.705 208.999 121.955C209.217 122.196 209.497 122.374 209.809 122.467C210.121 122.56 210.453 122.565 210.768 122.483H212.536V127.586C211.271 127.946 209.961 128.124 208.646 128.114C207.7 128.219 206.743 128.133 205.831 127.86C204.92 127.588 204.073 127.136 203.341 126.53C202.083 125.067 201.449 123.173 201.573 121.251V109.988H198.744V105.061H201.573V99.6052H208.646Z" fill="#D7D7D7"/>
<path d="M222.438 127.586H215.542V105.061H222.438V127.586ZM215.011 99.2533C214.997 98.8161 215.086 98.3818 215.27 97.9847C215.454 97.5876 215.729 97.2386 216.072 96.9655C216.875 96.318 217.868 95.9475 218.901 95.9096C219.946 95.8869 220.959 96.265 221.73 96.9655C222.074 97.2386 222.348 97.5876 222.532 97.9847C222.716 98.3818 222.805 98.8161 222.791 99.2533C222.819 99.7178 222.738 100.182 222.554 100.61C222.369 101.038 222.087 101.417 221.73 101.717C220.959 102.417 219.946 102.796 218.901 102.773C217.868 102.735 216.875 102.365 216.072 101.717C215.715 101.417 215.433 101.038 215.249 100.61C215.065 100.182 214.983 99.7178 215.011 99.2533Z" fill="#D7D7D7"/>
<path d="M235.522 119.315L239.059 105.061H246.485L239.059 127.586H231.986L224.559 105.061H231.986L235.522 119.315Z" fill="#D7D7D7"/>
<path d="M255.856 123.011C256.595 123.001 257.321 122.82 257.978 122.483L259.216 121.251V117.555H257.094C254.619 117.555 253.558 118.611 253.558 120.899C253.558 123.187 253.734 121.955 254.088 122.483L255.68 123.011M260.1 127.586C259.841 126.905 259.663 126.197 259.569 125.474C258.942 126.315 258.109 126.982 257.15 127.414C256.191 127.845 255.137 128.025 254.088 127.938C252.081 128.004 250.123 127.313 248.607 126.002C247.893 125.337 247.334 124.525 246.968 123.622C246.603 122.719 246.439 121.748 246.49 120.776C246.54 119.804 246.804 118.855 247.261 117.995C247.718 117.135 248.358 116.384 249.137 115.795C251.527 114.353 254.305 113.677 257.094 113.86H259.216V112.628C259.216 110.516 258.332 109.636 256.564 109.636C255.979 109.531 255.376 109.656 254.881 109.984C254.387 110.312 254.039 110.818 253.911 111.396V112.1H247.015C246.997 111.053 247.248 110.019 247.743 109.095C248.238 108.172 248.961 107.389 249.844 106.82C251.879 105.31 254.383 104.562 256.917 104.709C259.346 104.534 261.749 105.29 263.636 106.82C264.496 107.521 265.182 108.41 265.642 109.417C266.102 110.424 266.323 111.522 266.289 112.628V122.483C266.15 124.117 266.456 125.758 267.173 127.234V127.586H260.1Z" fill="#D7D7D7"/>
<path d="M277.251 95.7337H270.179V127.586H277.251V95.7337Z" fill="#D7D7D7"/>
<path d="M118.292 0H0V148H118.292L75.8551 73.912L118.292 0Z" fill="#D7D7D7"/>
</svg>
