<svg width="356" height="99" viewBox="0 0 356 99" fill="none" xmlns="http://www.w3.org/2000/svg">
<path d="M0 0.72H16.96C26.55 0.72 31.64 4.86 31.64 12.47C31.64 17.2 28.7 20.2 26.07 21.46C29.91 23.02 32.9 26.49 32.9 31.59C32.9 39.2 27.57 43.76 18.04 43.76H0V0.72ZM15.76 17.56C18.88 17.56 20.55 16.3 20.55 13.9C20.55 11.5 18.87 10.24 15.76 10.24H11.32V17.55H15.76V17.56ZM11.33 34.16H16.84C19.84 34.16 21.57 32.6 21.57 30.26C21.57 27.92 19.83 26.36 16.84 26.36H11.33V34.16Z" fill="#D7D7D7"/>
<path d="M47.71 43.75H35.96V0.72H51.6C62.21 0.72 68.74 5.87 68.74 15.1C68.74 20.61 66.16 24.87 61.67 27.27L69.52 43.75H56.75L50.28 29.48H47.7V43.75H47.71ZM51.01 20.2C55.15 20.2 57.12 18.28 57.12 15.41C57.12 12.35 55.14 10.56 51.01 10.56H47.71V20.21H51.01V20.2Z" fill="#D7D7D7"/>
<path d="M103.27 43.75H71.8V33.8H81.69V10.67H71.8V0.72H103.27V10.67H93.44V33.81H103.27V43.76V43.75Z" fill="#D7D7D7"/>
<path d="M111.42 28.77C114.96 32.91 119.63 34.88 123.89 34.88C127.43 34.88 129.76 33.5 129.76 31.04C129.76 28.22 126.76 27.8 120.35 26.48C114.3 25.28 107.46 23.06 107.46 14.31C107.46 5.56 115.02 0 124.25 0C131.5 0 137.26 2.94 140.55 6.65L134.44 14.5C131.68 11.2 128.03 9.41 123.89 9.41C120.83 9.41 118.68 10.73 118.68 13.01C118.68 15.47 121.26 16.01 126.35 17.03C132.82 18.41 140.97 20.27 140.97 29.86C140.97 39.45 133.12 44.48 123.47 44.48C116.64 44.48 108.73 41.78 105.19 37.35L111.42 28.78V28.77Z" fill="#D7D7D7"/>
<path d="M143.85 0.72H160.81C170.4 0.72 175.49 4.86 175.49 12.47C175.49 17.2 172.55 20.2 169.92 21.46C173.76 23.02 176.75 26.49 176.75 31.59C176.75 39.2 171.42 43.76 161.89 43.76H143.85V0.72ZM159.61 17.56C162.73 17.56 164.4 16.3 164.4 13.9C164.4 11.5 162.72 10.24 159.61 10.24H155.17V17.55H159.61V17.56ZM155.18 34.16H160.69C163.69 34.16 165.42 32.6 165.42 30.26C165.42 27.92 163.68 26.36 160.69 26.36H155.18V34.16Z" fill="#D7D7D7"/>
<path d="M202.35 0.72L213.2 43.75H201.75L200.25 36.8H190.48L188.98 43.75H177.77L188.56 0.72H202.35ZM198.21 27.39L195.33 13.9L192.45 27.39H198.21Z" fill="#D7D7D7"/>
<path d="M247.06 43.75H236.69L226.56 21.27V43.75H215.77V0.72H227.28L236.27 21.76V0.72H247.06V43.75Z" fill="#D7D7D7"/>
<path d="M283.69 0.72V10.67H263.31V17.08H280.27V26.79H263.31V33.8H283.69V43.75H251.74V0.72H283.69Z" fill="#D7D7D7"/>
<path d="M11.75 98.01H0V54.98H15.82C26.43 54.98 32.9 60.01 32.9 69.66C32.9 79.31 26.43 84.28 15.82 84.28H11.74V98.01H11.75ZM15.22 74.52C19.36 74.52 21.33 72.66 21.33 69.67C21.33 66.68 19.35 64.82 15.22 64.82H11.74V74.53H15.22V74.52Z" fill="#D7D7D7"/>
<path d="M34.4 76.5C34.4 63.55 41.35 54.26 51.6 54.26C61.85 54.26 68.8 63.55 68.8 76.5C68.8 89.45 61.85 98.74 51.6 98.74C41.35 98.74 34.4 89.45 34.4 76.5ZM45.91 76.5C45.91 83.99 47.77 88.55 51.6 88.55C55.43 88.55 57.29 83.99 57.29 76.5C57.29 69.01 55.43 64.45 51.6 64.45C47.77 64.45 45.91 69.01 45.91 76.5Z" fill="#D7D7D7"/>
<path d="M91.29 54.98L93.87 77.4L96.21 54.98H105.38L99.99 98.01H91.06L87.58 75.65L84.1 98.01H75.17L69.78 54.98H79.13L81.59 77.4L84.23 54.98H91.3H91.29Z" fill="#D7D7D7"/>
<path d="M139.83 54.98V64.93H119.45V71.34H136.41V81.05H119.45V88.06H139.83V98.01H107.88V54.98H139.83Z" fill="#D7D7D7"/>
<path d="M155.6 98.01H143.85V54.98H159.49C170.1 54.98 176.63 60.13 176.63 69.36C176.63 74.87 174.05 79.13 169.56 81.53L177.41 98.01H164.64L158.17 83.75H155.59V98.01H155.6ZM158.9 74.46C163.04 74.46 165.01 72.54 165.01 69.67C165.01 66.61 163.03 64.82 158.9 64.82H155.6V74.47H158.9V74.46Z" fill="#D7D7D7"/>
<path d="M211.1 54.98V98.01H199.35V81.11H191.56V98.01H179.81V54.98H191.56V71.22H199.35V54.98H211.1Z" fill="#D7D7D7"/>
<path d="M214.22 76.5C214.22 63.55 221.17 54.26 231.42 54.26C241.67 54.26 248.62 63.55 248.62 76.5C248.62 89.45 241.67 98.74 231.42 98.74C221.17 98.74 214.22 89.45 214.22 76.5ZM225.73 76.5C225.73 83.99 227.59 88.55 231.42 88.55C235.25 88.55 237.11 83.99 237.11 76.5C237.11 69.01 235.25 64.45 231.42 64.45C227.59 64.45 225.73 69.01 225.73 76.5Z" fill="#D7D7D7"/>
<path d="M251.26 81.71V54.98H262.71V81.41C262.71 86.2 264.39 88.3 267.39 88.3C270.39 88.3 272.07 86.2 272.07 81.41V54.98H283.52V81.71C283.52 92.86 277.41 98.73 267.4 98.73C257.39 98.73 251.28 92.86 251.28 81.71H251.26Z" fill="#D7D7D7"/>
<path d="M291.24 83.03C294.78 87.17 299.45 89.14 303.71 89.14C307.25 89.14 309.58 87.76 309.58 85.3C309.58 82.48 306.58 82.06 300.17 80.74C294.12 79.54 287.28 77.32 287.28 68.57C287.28 59.82 294.83 54.24 304.06 54.24C311.31 54.24 317.07 57.18 320.36 60.89L314.25 68.74C311.49 65.44 307.84 63.65 303.7 63.65C300.64 63.65 298.49 64.97 298.49 67.25C298.49 69.71 301.07 70.25 306.16 71.27C312.63 72.65 320.78 74.51 320.78 84.1C320.78 93.69 312.93 98.72 303.28 98.72C296.45 98.72 288.54 96.02 285 91.59L291.23 83.02L291.24 83.03Z" fill="#D7D7D7"/>
<path d="M355.61 54.98V64.93H335.23V71.34H352.19V81.05H335.23V88.06H355.61V98.01H323.66V54.98H355.61Z" fill="#D7D7D7"/>
</svg>
