<svg width="320" height="90" viewBox="0 0 320 90" fill="none" xmlns="http://www.w3.org/2000/svg">
<path d="M5.50594 23.1838H15.2069C20.4506 23.1838 23.4658 24.877 23.4658 29.8263C23.4658 34.7757 20.5817 36.4689 15.2069 36.4689H5.50594V23.1838ZM5.50594 5.60058H15.2069C20.1884 5.60058 23.0725 7.29378 23.0725 11.9826C23.0725 16.6715 20.1884 18.3647 15.2069 18.3647H5.50594V5.60058ZM15.7313 41.288C23.728 41.288 28.8406 37.3806 28.8406 30.3473C28.8406 24.6165 25.8255 22.0116 21.1061 21.0999C20.5817 20.9696 20.3195 20.8394 20.3195 20.5789C20.3195 20.1881 20.4506 20.1881 21.1061 20.0579C25.9566 19.2764 28.5785 16.2808 28.5785 11.3314C28.5785 4.8191 23.4658 0.911722 15.7313 0.911722H0V41.288H15.7313Z" fill="#D7D7D7"/>
<path d="M51.7821 5.60058C57.0258 5.60058 60.041 7.68452 60.041 12.6339C60.041 17.5832 57.1569 19.6671 51.7821 19.6671H41.5567V5.60058H51.7821ZM65.4158 12.6339C65.4158 4.8191 60.041 0.781476 52.3064 0.781476H35.9197V41.288H41.4256V24.356H50.34L57.8124 41.288H63.3183V40.1158L55.846 23.9653C61.6141 23.0535 65.4158 19.1462 65.4158 12.6339Z" fill="#D7D7D7"/>
<path d="M77.6075 0.781476H72.1016V41.288H77.6075V0.781476Z" fill="#D7D7D7"/>
<path d="M100.025 0C92.0279 0 85.3421 3.90738 85.3421 11.4616C85.3421 19.0159 91.2413 21.7511 96.7472 22.6628L101.991 23.5745C106.317 24.356 110.25 25.7887 110.25 30.2171C110.25 34.6454 106.71 37.3806 100.68 37.3806C94.6497 37.3806 90.0615 34.6454 89.6682 28.1331H84.1622C84.4244 37.9016 92.159 42.1997 100.68 42.1997C109.201 42.1997 115.625 37.9016 115.625 30.2171C115.625 22.5326 109.726 19.9276 103.826 18.8857L98.5826 17.9739C94.5186 17.3227 90.848 15.7598 90.848 11.4616C90.848 7.03328 94.5186 4.8191 100.025 4.8191C105.662 4.8191 109.463 7.16353 109.726 12.3734H115.231C114.969 3.90738 108.021 0 100.025 0Z" fill="#D7D7D7"/>
<path d="M127.948 23.1838H137.649C142.892 23.1838 145.907 24.877 145.907 29.8263C145.907 34.7757 143.023 36.4689 137.649 36.4689H127.948V23.1838ZM127.948 5.60058H137.649C142.63 5.60058 145.514 7.29378 145.514 11.9826C145.514 16.6715 142.63 18.3647 137.649 18.3647H127.948V5.60058ZM138.173 41.288C146.17 41.288 151.282 37.3806 151.282 30.3473C151.282 24.6165 148.267 22.0116 143.548 21.0999C143.023 20.9696 142.761 20.8394 142.761 20.5789C142.761 20.1881 142.892 20.1881 143.548 20.0579C148.398 19.2764 151.02 16.2808 151.02 11.3314C151.02 4.8191 145.907 0.911722 138.173 0.911722H122.442V41.288H138.173Z" fill="#D7D7D7"/>
<path d="M171.471 3.1259C171.471 2.86541 171.602 2.73517 171.995 2.73517C172.388 2.73517 172.388 2.86541 172.519 3.1259L178.288 23.9653H165.834L171.471 3.1259ZM160.983 41.288L164.392 28.7844H179.599L183.007 41.288H188.513V40.1158L177.37 0.781476H166.62L155.477 40.1158V41.288H160.983Z" fill="#D7D7D7"/>
<path d="M200.049 41.288V3.51664C200.049 3.25615 200.18 3.1259 200.442 3.1259C200.705 3.1259 200.836 3.1259 200.967 3.51664L212.765 41.4182H224.039V0.781476H218.533V38.6831C218.533 38.9436 218.402 39.0738 218.14 39.0738C217.878 39.0738 217.747 39.0738 217.616 38.6831L205.817 0.781476H194.543V41.288H200.049Z" fill="#D7D7D7"/>
<path d="M259.435 41.288V36.4689H238.591V22.6628H257.206V17.8437H238.591V5.60058H259.172V0.781476H233.216V41.288H259.435Z" fill="#D7D7D7"/>
<path d="M314.494 48.712V67.3372H296.796V72.1563H314.494V84.2692H294.568V89.2185H320V48.712H314.494Z" fill="#D7D7D7"/>
<path d="M262.319 48.712V53.5311H283.163V67.3372H264.547V72.1563H283.163V84.2692H262.581V89.2185H288.537V48.712H262.319Z" fill="#D7D7D7"/>
<path d="M241.999 90C249.996 90 256.682 86.0926 256.682 78.5383C256.682 70.9841 250.782 68.2489 245.277 67.3372L240.033 66.4255C235.707 65.644 231.774 64.2113 231.774 59.7829C231.774 55.3546 235.313 52.6194 241.344 52.6194C247.374 52.6194 251.962 55.3546 252.356 61.8669H257.862C257.599 52.0984 249.865 47.8003 241.344 47.8003C232.823 47.8003 226.399 52.0984 226.399 59.7829C226.399 67.4674 232.298 70.0724 238.197 71.1143L243.441 72.026C247.505 72.6773 251.176 74.2402 251.176 78.5383C251.176 82.8365 247.636 85.1809 241.999 85.1809C236.362 85.1809 232.56 82.8365 232.298 77.6266H226.792C227.186 86.0926 234.134 90 241.999 90Z" fill="#D7D7D7"/>
<path d="M210.799 84.2692V48.712H205.293V84.2692H192.184V89.2185H223.908V84.2692H210.799Z" fill="#D7D7D7"/>
<path d="M186.809 48.712H181.303V89.2185H186.809V48.712Z" fill="#D7D7D7"/>
<path d="M175.141 89.2185V88.0463L163.998 48.712H153.249L142.106 88.0463V89.2185H147.612L158.099 51.0564C158.099 50.7959 158.23 50.6657 158.624 50.6657C159.017 50.6657 159.017 50.7959 159.148 51.0564L169.635 89.2185H175.141Z" fill="#D7D7D7"/>
<path d="M127.423 86.8741C127.423 87.1346 127.292 87.2648 126.899 87.2648C126.506 87.2648 126.506 87.1346 126.374 86.8741L120.606 66.0347H133.06L127.423 86.8741ZM137.911 48.712L134.502 61.2156H119.295L115.887 48.712H110.381V49.8842L121.524 89.2185H132.274L143.417 49.8842V48.712H137.911Z" fill="#D7D7D7"/>
<path d="M79.705 48.712V53.5311H98.8447V89.2185H104.351V48.712H79.705Z" fill="#D7D7D7"/>
</svg>
