<svg width="282" height="93" viewBox="0 0 282 93" fill="none" xmlns="http://www.w3.org/2000/svg">
<path d="M27.5702 2.90081L26.6678 6.30469H26.5691C24.9664 3.8035 21.667 1.34933 17.813 1.34933C9.8559 1.34933 4.2018 7.70573 4.1548 18.2653C4.1548 29.3278 9.8606 35.736 17.7143 35.736C21.5166 35.736 23.8713 34.1845 26.5221 31.6833H26.5738L27.7253 34.0857C24.9241 36.0369 21.573 37.09 17.6673 37.09C7.1534 37.09 0.0517 28.8812 0 18.3217C0 7.80916 7.2051 0 17.6109 0C21.3145 0 25.1685 1.25059 27.5702 2.90081Z" fill="#D7D7D7"/>
<path d="M47.9353 36.7374L47.6862 33.2348C45.8344 35.3363 43.2306 37.09 39.3813 37.09C34.4792 37.09 30.973 34.1375 30.973 29.7839C30.973 25.4303 34.4745 22.3743 39.8795 22.3743C43.381 22.3743 45.8861 23.8741 47.6345 25.5761V20.8229C47.6345 15.9662 46.2856 12.2144 41.031 12.2144C37.9807 12.2144 34.5779 14.4147 33.6755 15.9662H33.6238L32.9235 13.6625C34.6249 12.6094 36.9749 11.3118 41.3788 11.3118C48.5839 11.3118 51.0373 15.3174 51.0373 21.072V32.2851C51.0373 34.5888 51.089 35.8394 51.9397 36.7421H47.9353V36.7374ZM47.6345 32.2851V26.6809C46.4313 25.4303 44.2317 23.9776 41.031 23.9776C36.2793 23.9776 34.3241 26.8784 34.3241 29.5817C34.3758 32.633 36.9279 35.2376 41.031 35.2376C44.133 35.2376 46.3843 33.6861 47.6345 32.2851Z" fill="#D7D7D7"/>
<path d="M73.6067 13.3146L72.9581 15.6183H72.8594C71.4588 13.6155 69.1088 12.4166 66.2042 12.4166C62.604 12.4166 59.8498 14.1703 59.8498 16.8736C59.8498 23.6296 74.3587 21.2272 74.3587 30.5361C74.3587 34.791 70.6551 37.0947 64.3007 37.0947C60.7475 37.0947 58.4445 36.3424 56.1932 34.8427L56.8935 32.539H56.9922C58.5949 34.3913 61.6969 35.9945 64.4464 35.9945C68.5495 35.9945 71.0029 34.0904 71.0029 31.3401C71.0029 24.2314 56.5927 26.3847 56.541 17.875C56.541 13.8694 59.9955 11.3165 65.8 11.3165C70.3026 11.3165 72.3565 12.6188 73.6067 13.3193V13.3146Z" fill="#D7D7D7"/>
<path d="M81.5121 24.2267C81.5121 31.6833 85.5165 36.1403 90.2165 36.1403C93.4172 36.1403 96.8717 34.0387 98.6718 31.735H98.7235L99.5742 33.5874C97.4733 35.5902 93.671 37.09 89.9157 37.09C83.1101 37.09 77.8085 32.0829 77.8085 24.2784C77.8085 16.474 82.7623 11.3165 89.817 11.3165C96.8717 11.3165 100.477 16.521 100.575 23.6296V24.0293H81.5121V24.2314V24.2267ZM81.5591 22.8727L97.2195 22.9244C97.0691 16.6667 94.6157 12.111 89.9157 12.111C85.2157 12.111 81.9586 16.5163 81.5591 22.8727Z" fill="#D7D7D7"/>
<path d="M125.993 11.7631C124.592 12.7645 124.141 14.3677 123.591 15.6653L114.835 38.8389L113.035 43.343C112.034 45.7971 110.732 46.949 108.631 46.949C106.53 46.949 105.13 45.9476 104.326 45.0966L105.576 43.3947H105.628C106.079 44.0952 106.977 45.8488 108.88 45.8488C110.229 45.8488 111.183 44.9979 112.081 42.8446L113.731 38.8907L104.472 15.7641C103.922 14.4618 103.372 12.9103 101.868 11.7584H107.221C106.37 12.7598 107.122 13.9117 107.771 15.5619L115.277 34.6311L122.482 15.5102C123.032 13.9587 123.234 12.5577 122.233 11.7584H125.983L125.993 11.7631Z" fill="#D7D7D7"/>
<path d="M31.3631 64.7206C31.3631 75.1814 23.9089 82.7884 13.7992 82.7884H1.8894C2.8905 81.8857 3.3417 80.5364 3.3417 77.9835V51.1568C3.3417 48.6039 2.8905 47.2546 1.8894 46.3519H13.7992C24.0076 46.3519 31.3631 53.7097 31.3631 64.7206ZM27.2083 64.6736C27.2083 54.0106 21.6529 47.6072 13.7475 47.6072H7.0406V81.5425H13.7475C21.5025 81.5425 27.2083 74.8852 27.2083 64.6736Z" fill="#D7D7D7"/>
<path d="M38.6669 70.2777C38.6669 77.7343 42.6713 82.1913 47.3713 82.1913C50.572 82.1913 54.0265 80.0897 55.8266 77.786H55.8783L56.729 79.6384C54.6281 81.6412 50.8258 83.141 47.0705 83.141C40.2649 83.141 34.9633 78.1339 34.9633 70.3295C34.9633 62.525 39.9171 57.3675 46.9718 57.3675C54.0265 57.3675 57.6314 62.572 57.7301 69.6807V70.0803H38.6669V70.2824V70.2777ZM38.7186 68.9284L54.379 68.9801C54.2286 62.7225 51.7752 58.1667 47.0752 58.1667C42.3752 58.1667 39.1181 62.572 38.7186 68.9284Z" fill="#D7D7D7"/>
<path d="M77.7944 58.5146L76.4925 61.4672H76.4408C76.0413 60.2166 74.7394 58.9143 72.6902 58.9143C68.8362 58.9143 66.4345 61.7163 65.7859 63.3713V78.0352C65.7859 80.5364 65.8846 81.8904 66.787 82.7884H61.335C62.2374 81.8857 62.3361 80.5364 62.3361 78.0352V62.7178C62.3361 60.2166 62.1857 59.2622 61.2363 58.3642C62.6886 58.2137 64.0375 58.162 65.5415 57.8141V62.619C67.1442 59.4643 69.7433 57.3628 72.9957 57.3628C74.8475 57.3628 76.3985 57.7624 77.7991 58.5146H77.7944Z" fill="#D7D7D7"/>
<path d="M117.425 78.0352V66.8739C117.425 61.9702 115.023 59.2669 110.821 59.2669C106.619 59.2669 103.917 62.9716 103.217 64.5231C103.315 65.2237 103.367 66.0229 103.367 66.8269V78.0399C103.367 80.5411 103.466 81.8951 104.368 82.7931H98.9162C99.8186 81.8904 99.9173 80.5411 99.9173 78.0399V66.8786C99.9173 61.9749 97.5673 59.2716 93.3138 59.2716C89.0603 59.2716 86.5082 61.9232 85.8596 63.4277V78.0446C85.8596 80.5458 85.9583 81.8998 86.8607 82.7978H81.4087C82.3111 81.8951 82.4098 80.5458 82.4098 78.0446V62.7272C82.4098 60.226 82.2594 59.2246 81.31 58.3219C82.7106 58.2231 84.1112 58.1714 85.7139 57.8235V62.4263C87.3636 60.0238 90.3669 57.3722 94.6721 57.3722C98.9773 57.3722 102.079 59.3233 103.029 63.5264C104.678 60.8748 107.78 57.3722 112.184 57.3722C117.636 57.3722 120.842 60.3764 120.842 66.8316V78.0446C120.842 80.5458 120.94 81.8998 121.843 82.7978H116.438C117.34 81.8951 117.439 80.5458 117.439 78.0446L117.425 78.0352Z" fill="#D7D7D7"/>
<path d="M142.744 82.7931L142.495 79.2905C140.643 81.392 138.039 83.1457 134.19 83.1457C129.288 83.1457 125.781 80.1932 125.781 75.8396C125.781 71.486 129.283 68.4301 134.688 68.4301C138.189 68.4301 140.695 69.9298 142.443 71.6318V66.8786C142.443 62.0219 141.094 58.2702 135.839 58.2702C132.789 58.2702 129.386 60.4704 128.484 62.0219H128.432L127.732 59.7182C129.433 58.6651 131.783 57.3675 136.187 57.3675C143.392 57.3675 145.846 61.3731 145.846 67.1277V78.3408C145.846 80.6445 145.897 81.8951 146.748 82.7978H142.744V82.7931ZM142.448 78.3361V72.7319C141.244 71.4813 139.045 70.0286 135.844 70.0286C131.092 70.0286 129.137 72.9294 129.137 75.6327C129.189 78.684 131.741 81.2886 135.844 81.2886C138.946 81.2886 141.197 79.7371 142.448 78.3361Z" fill="#D7D7D7"/>
<path d="M163.01 79.6854C161.859 81.9891 160.557 83.141 157.755 83.141C154.202 83.141 152.35 80.8373 152.35 76.3332V52.1582C153.201 52.1065 154.503 52.0078 155.805 51.8056V57.8141H162.662V58.9143H155.805V76.432C155.805 79.4362 156.656 81.2369 159.109 81.2369C160.81 81.2369 161.76 80.5881 162.662 79.4362L163.01 79.6854Z" fill="#D7D7D7"/>
<path d="M190.181 70.2777C190.181 78.0352 184.926 83.141 177.773 83.141C170.619 83.141 165.365 78.1339 165.365 70.2777C165.365 62.4216 170.619 57.3628 177.773 57.3628C184.926 57.3628 190.181 62.4169 190.181 70.2777ZM169.064 70.2777C169.064 77.8847 172.767 82.3417 177.768 82.3417C182.769 82.3417 186.472 77.8847 186.472 70.2777C186.472 62.6707 182.769 58.1667 177.768 58.1667C172.767 58.1667 169.064 62.6707 169.064 70.2777Z" fill="#D7D7D7"/>
<path d="M194.232 45.8018C195.633 45.7031 197.235 45.5997 198.833 45.4022V78.0352C198.833 80.5364 198.984 81.8904 199.933 82.7884H194.279C195.229 81.8857 195.379 80.5364 195.379 78.0352V50.3058C195.379 47.8047 195.177 46.6998 194.227 45.8018H194.232Z" fill="#D7D7D7"/>
<path d="M228.862 70.2777C228.862 78.0352 223.607 83.141 216.454 83.141C209.3 83.141 204.046 78.1339 204.046 70.2777C204.046 62.4216 209.3 57.3628 216.454 57.3628C223.607 57.3628 228.862 62.4169 228.862 70.2777ZM207.745 70.2777C207.745 77.8847 211.448 82.3417 216.449 82.3417C221.45 82.3417 225.153 77.8847 225.153 70.2777C225.153 62.6707 221.45 58.1667 216.449 58.1667C211.448 58.1667 207.745 62.6707 207.745 70.2777Z" fill="#D7D7D7"/>
<path d="M254.129 85.5434C254.129 89.7983 249.725 92.5016 242.821 92.4499C236.415 92.3982 232.312 90.2496 232.312 86.3427C232.312 83.8415 233.914 82.0879 236.617 80.936C234.817 80.6351 233.613 79.4832 233.613 77.5321C233.613 75.581 234.765 74.18 237.265 73.1786C234.765 71.7775 233.313 69.1729 233.313 65.9712C233.313 61.0675 236.767 57.4098 242.37 57.4098C244.673 57.4098 246.571 58.0116 248.075 59.06C250.078 58.6604 252.677 57.8564 254.43 57.1089L254.829 60.0614L248.874 59.7605C250.477 61.312 251.375 63.4653 251.375 65.9665C251.375 70.8701 247.92 74.4244 242.37 74.4244C240.72 74.4244 239.268 74.1236 238.017 73.5735C236.316 74.4762 235.616 75.3741 235.616 76.2768C235.616 77.2265 236.217 77.9271 237.867 78.0775L245.575 78.778C250.58 79.1776 254.129 81.6318 254.129 85.534V85.5434ZM251.328 86.3944C251.328 83.7428 249.076 82.2383 245.772 81.8387C243.169 81.4861 239.615 81.2369 237.867 81.0864C235.917 82.1396 234.967 83.8885 234.967 85.9901C234.967 89.4457 237.867 91.646 242.971 91.646C248.325 91.646 251.328 89.394 251.328 86.3897V86.3944ZM236.565 65.9712C236.565 70.6257 238.816 73.7286 242.37 73.7286C245.923 73.7286 248.122 70.6257 248.122 65.9712C248.122 61.3167 245.871 58.115 242.37 58.115C238.868 58.115 236.565 61.2697 236.565 65.9712Z" fill="#D7D7D7"/>
<path d="M282 57.8141C280.599 58.8155 280.148 60.4187 279.598 61.7163L270.842 84.8899L269.042 89.394C268.041 91.8481 266.739 93 264.638 93C262.537 93 261.137 91.9986 260.333 91.1476L261.583 89.4457H261.635C262.086 90.1462 262.984 91.8999 264.887 91.8999C266.236 91.8999 267.19 91.0489 268.088 88.8956L269.738 84.9417L260.479 61.8151C259.929 60.5128 259.379 58.9613 257.875 57.8094H263.228C262.377 58.8108 263.129 59.9627 263.778 61.6129L271.284 80.6821L278.489 61.5612C279.039 60.0097 279.241 58.6087 278.24 57.8094H281.991L282 57.8141Z" fill="#D7D7D7"/>
</svg>
