<svg width="164" height="60" viewBox="0 0 164 60" fill="none" xmlns="http://www.w3.org/2000/svg">
<path d="M132.656 41.88C129.476 37.6966 129.999 34.1482 134.166 30.8569C133.718 29.6421 133.134 28.4929 132.873 27.2782C131.499 20.8669 134.82 15.4788 141.246 13.7248C142.665 13.3367 144.174 13.1351 145.644 13.1149C151.239 13.0444 156.835 13.0847 162.43 13.0847C162.672 13.0847 162.913 13.0847 163.205 13.0847V18.624H157.957C159.934 21.7137 160.025 24.9849 159.028 28.2913C157.957 31.8548 155.31 33.9718 151.928 35.1562C148.295 36.4264 144.577 36.381 140.883 35.4032C140.023 35.1764 139.233 34.7026 138.347 34.3145C137.059 35.2016 137.125 37.5 138.629 38.2157C139.308 38.5433 140.134 38.6946 140.893 38.7046C144.013 38.7601 147.133 38.7046 150.253 38.7349C152.829 38.7651 155.345 39.1431 157.645 40.4133C160.206 41.8296 161.519 44.002 161.585 46.9456C161.63 48.8155 161.554 50.6502 160.719 52.374C159.547 54.7883 157.534 56.2248 155.119 57.1522C151.632 58.4929 147.983 58.876 144.28 58.7954C141.241 58.7298 138.272 58.2762 135.494 56.9556C132.691 55.6149 130.618 53.6038 129.949 50.4536C129.26 47.2228 129.984 44.38 132.465 42.0917C132.535 42.0262 132.596 41.9506 132.661 41.88H132.656ZM145.135 53.3014C146.132 53.2006 147.138 53.1502 148.129 52.9839C149.845 52.6915 151.486 52.1472 152.895 51.0736C153.871 50.3327 154.51 49.38 154.399 48.0847C154.223 46.129 153.267 44.9143 151.284 44.5464C149.755 44.2641 148.175 44.2339 146.615 44.1835C143.903 44.0978 141.185 44.0726 138.473 44.0474C138.252 44.0474 137.97 44.1885 137.819 44.3548C136.697 45.6149 136.38 47.1321 136.641 48.75C136.948 50.6401 138.267 51.6935 139.932 52.374C141.598 53.0494 143.354 53.2308 145.14 53.3014H145.135ZM139.802 24.6119C139.812 27.3488 141.351 29.4556 143.913 30.1966C145.07 30.5343 146.242 30.5645 147.43 30.378C149.855 30 151.647 28.3921 152.215 26.0484C152.794 23.6744 151.954 21.1996 150.082 19.8689C148.622 18.8306 146.972 18.5685 145.211 18.7248C141.97 19.0121 139.786 21.3659 139.797 24.6119H139.802Z" fill="#D7D7D7"/>
<path d="M99.4003 30.8569C98.9475 29.6119 98.3537 28.4425 98.1021 27.2026C96.7938 20.7712 100.14 15.3831 106.5 13.7198C107.98 13.3317 109.55 13.13 111.079 13.1099C116.614 13.0393 122.15 13.0796 127.685 13.0796H128.445V18.6038H123.347C123.755 19.6522 124.303 20.6351 124.515 21.6835C125.38 25.9829 124.666 29.869 121.183 32.8881C119.392 34.4405 117.279 35.3528 114.959 35.7611C112.196 36.25 109.424 36.25 106.702 35.5444C105.65 35.2722 104.649 34.7833 103.501 34.3397C102.928 34.8538 102.631 35.6552 102.747 36.6179C102.852 37.4849 103.33 38.0998 104.14 38.3518C104.8 38.5585 105.509 38.6996 106.198 38.7097C109.56 38.755 112.921 38.7046 116.277 38.7702C118.506 38.8155 120.67 39.244 122.673 40.3024C125.269 41.6734 126.698 43.7802 126.809 46.7692C126.89 49.0373 126.764 51.245 125.486 53.2208C124.142 55.2974 122.17 56.5171 119.9 57.3186C116.539 58.5081 113.052 58.8659 109.509 58.7903C106.551 58.7248 103.657 58.2913 100.945 57.0514C98.3185 55.8518 96.2353 54.0726 95.3899 51.1996C94.3886 47.8075 94.9521 44.7429 97.5738 42.2127C97.6845 42.1018 97.8455 42.0464 97.9612 41.9758C94.7408 37.4194 95.1886 34.3548 99.3953 30.8468L99.4003 30.8569ZM110.38 53.3669C111.744 53.1603 113.132 53.0343 114.476 52.7268C115.991 52.379 117.44 51.7994 118.582 50.6804C120.348 48.9516 119.931 46.0685 117.706 44.995C116.891 44.6069 115.955 44.3599 115.055 44.2893C113.374 44.1583 111.678 44.2036 109.993 44.1683C107.904 44.128 105.811 44.0625 103.723 44.0474C103.476 44.0474 103.159 44.2389 102.983 44.4355C100.729 47.0313 101.645 50.7964 104.885 52.248C106.626 53.0292 108.478 53.2157 110.38 53.3619V53.3669ZM105.046 24.5968C105.046 27.3437 106.551 29.4153 109.132 30.1915C110.304 30.5444 111.507 30.5998 112.71 30.3679C115.05 29.9143 116.75 28.6643 117.379 26.2954C118.003 23.9415 117.55 21.7944 115.658 20.1462C114.179 18.8609 112.378 18.5534 110.466 18.7248C107.205 19.0121 105.046 21.3407 105.046 24.6018V24.5968Z" fill="#D7D7D7"/>
<path d="M41.1208 31.6986C40.7132 33.2611 40.0943 34.6724 39.3093 36.0081C37.0348 39.8488 33.7037 42.3538 29.4417 43.5484C23.8915 45.1008 18.3564 45.0101 13.0276 42.7016C6.20938 39.753 2.13856 34.5766 1.08186 27.1421C0.483063 22.9234 0.634021 18.7349 1.99767 14.6673C3.8947 9.02218 7.81959 5.19153 13.2138 2.97883C19.5439 0.383065 25.9848 0.433467 32.2495 3.26109C36.7631 5.29738 39.5407 8.95161 41.0302 13.629C41.0654 13.7399 41.0704 13.8609 41.0956 14.0222C38.6098 14.0222 36.1593 14.0323 33.7037 14.002C33.5276 14.002 33.2961 13.7248 33.1854 13.5232C31.7966 11.0837 29.9449 9.16835 27.2327 8.23589C25.3457 7.58569 23.3833 7.40927 21.4057 7.52016C18.6231 7.67641 16.0166 8.4123 13.7522 10.1058C10.879 12.248 9.30903 15.1966 8.64985 18.6593C7.87494 22.7218 8.05106 26.7288 9.74681 30.5544C11.6388 34.8085 14.9951 37.2077 19.5389 37.9939C21.7026 38.3669 23.8663 38.3165 26.0099 37.8427C29.2455 37.122 31.5249 35.1462 33.1049 32.3034C33.3716 31.8196 33.6685 31.6835 34.1868 31.6935C36.2599 31.7238 38.3331 31.7036 40.4062 31.7036H41.1258L41.1208 31.6986Z" fill="#D7D7D7"/>
<path d="M67.7194 30.5595C67.5031 34.874 70.487 38.4073 74.6484 38.8508C78.4324 39.249 81.5622 38.0494 83.9675 35.0403C84.0882 34.8942 84.3197 34.753 84.5008 34.748C86.6746 34.7278 88.8434 34.7329 91.1077 34.7329C91.0272 34.995 90.9769 35.2117 90.8964 35.4234C89.4321 39.1179 86.8608 41.7389 83.1724 43.2006C79.157 44.7933 75.0157 45.0151 70.8744 43.8155C65.7872 42.3438 62.5617 38.871 61.1125 33.8407C59.457 28.0746 60.3326 22.7016 64.1971 17.994C66.2954 15.4385 69.0982 13.9919 72.3236 13.3972C75.8762 12.7369 79.3884 12.8881 82.7397 14.3347C87.4948 16.381 90.2272 20.1058 91.1329 25.1411C91.4449 26.8851 91.3845 28.6946 91.5002 30.5595H67.7144L67.7194 30.5595ZM84.0128 25.247C83.5599 21.4718 80.4401 18.3266 75.2975 18.6492C70.5927 18.9415 68.1472 22.5454 67.9308 25.247H84.0128Z" fill="#D7D7D7"/>
<path d="M54.0025 44.0272H47.154V1.23488H54.0025V44.0222V44.0272Z" fill="#D7D7D7"/>
</svg>
