<svg width="294" height="118" viewBox="0 0 294 118" fill="none" xmlns="http://www.w3.org/2000/svg">
<path d="M90.318 104.791H85.8326V103.219H96.5887V104.791H92.0806V117.397H90.3166L90.318 104.791Z" fill="#D7D7D7"/>
<path d="M111.105 110.893H102.813V117.397H101.049V103.218H102.813V109.319H111.105V103.218H112.869V117.397H111.105V110.893Z" fill="#D7D7D7"/>
<path d="M118.303 103.219H127.593V104.791H120.066V109.362H127.442V110.937H120.066V115.825H127.593V117.397H118.303V103.219Z" fill="#D7D7D7"/>
<path d="M140.128 103.219H141.892V115.825H148.481V117.397H140.128V103.219Z" fill="#D7D7D7"/>
<path d="M162.017 114.251H154.832L153.577 117.397H151.622L157.32 103.218H159.508L165.226 117.397H163.272L162.017 114.251ZM155.342 112.677H161.485L158.425 104.791L155.342 112.677Z" fill="#D7D7D7"/>
<path d="M169.197 103.219H175.511C177.976 103.219 179.485 104.706 179.485 106.833C179.485 108.619 178.296 109.81 176.997 110.086C178.508 110.319 179.761 111.871 179.761 113.573C179.761 115.846 178.251 117.398 175.66 117.398H169.197V103.219ZM175.213 109.362C176.807 109.362 177.657 108.385 177.657 107.089C177.657 105.814 176.807 104.793 175.213 104.793H170.961V109.363L175.213 109.362ZM175.299 115.825C176.956 115.825 177.935 114.889 177.935 113.381C177.935 112.082 177.043 110.937 175.299 110.937H170.961V115.825H175.299Z" fill="#D7D7D7"/>
<path d="M184.687 103.219H193.976V104.791H186.449V109.362H193.825V110.937H186.449V115.825H193.976V117.397H184.687V103.219Z" fill="#D7D7D7"/>
<path d="M198.904 103.219H200.668V115.825H207.257V117.397H198.904V103.219Z" fill="#D7D7D7"/>
<path d="M26.8522 3.62269L38.3749 0V57.7004C38.3749 62.0671 38.4669 64.3898 41.9056 68.6645H32.2416V62.9964C28.9909 66.6191 24.3442 69.7805 18.2135 69.7805C8.27073 69.7805 0 61.9751 0 46.4577C0 31.9629 9.85073 21.2788 23.0442 21.2788C26.7615 21.2788 29.7335 21.9295 32.2416 23.0428V12.4494C32.2416 8.45606 31.1269 7.24805 26.8522 3.62269ZM20.4415 65.4138C26.0175 65.4138 29.2682 63.3684 32.2402 60.7671V28.6175C30.1975 26.2962 26.3882 23.9708 21.7415 23.9708C13.0068 23.9708 6.50271 31.0336 6.50271 45.5283C6.50271 58.1644 12.5441 65.4138 20.4415 65.4138Z" fill="#D7D7D7"/>
<path d="M47.671 45.9937C47.671 32.4269 56.6844 21.2775 68.0191 21.2775C77.8699 21.2775 84.0953 28.9882 84.8379 40.5096C74.6192 41.2523 64.4898 41.9963 54.175 42.9256V44.319C54.175 56.7697 60.7724 65.1338 71.4565 65.1338C77.2192 65.1338 81.5859 63.1804 84.5579 60.3951V62.3458C80.2859 67.7338 74.8939 69.7792 69.2271 69.7792C56.4991 69.7792 47.6697 60.3004 47.6697 45.9923L47.671 45.9937ZM54.6417 38.6523H78.3339C77.4992 30.2895 73.0378 23.8788 67.0911 23.8788C60.7738 23.8788 56.0351 29.7335 54.6417 38.6523Z" fill="#D7D7D7"/>
<path d="M88.4673 3.62269L99.9887 0V57.7004C99.9887 62.0671 100.081 64.3898 103.519 68.6645H90.326C93.8567 64.3898 93.8567 62.0671 93.8567 57.7004V12.4494C93.8567 8.45606 92.742 7.24805 88.4673 3.62269Z" fill="#D7D7D7"/>
<path d="M141.065 23.8788C137.069 23.8788 134.281 26.3882 134.281 30.2895C134.281 34.4722 136.51 36.7936 142.457 41.1616C148.217 45.3417 153.886 49.4323 153.886 55.9351C153.886 64.6698 145.802 69.7818 138.461 69.7818C135.024 69.7818 131.214 69.2245 127.962 67.9231L126.754 59.5604C134.001 65.9711 137.348 66.9938 140.226 66.9938C145.43 66.9938 148.774 63.5564 148.774 59.1884C148.774 54.5417 146.081 51.755 139.018 46.8297C130.842 41.0696 129.449 37.1656 129.449 33.0776C129.449 25.9228 135.396 21.2788 142.642 21.2788C146.173 21.2788 149.518 22.2082 151.561 23.2295L152.398 30.8482C147.289 25.5522 144.593 23.8802 141.064 23.8802L141.065 23.8788Z" fill="#D7D7D7"/>
<path d="M159.836 45.6203C159.836 32.2416 168.665 21.2775 180.929 21.2775C193.101 21.2775 201.928 32.2416 201.928 45.6203C201.928 58.9084 193.101 69.7805 180.929 69.7805C168.665 69.7805 159.836 58.9084 159.836 45.6203ZM166.34 43.9483C166.34 56.3991 172.752 67.1765 182.043 67.1765C189.663 67.1765 195.423 60.0218 195.423 47.2937C195.423 34.5656 189.012 23.8788 179.628 23.8788C172.008 23.8788 166.34 31.3122 166.34 43.9483Z" fill="#D7D7D7"/>
<path d="M205.743 3.62269L217.264 0V57.7004C217.264 62.0671 217.356 64.3898 220.795 68.6645H207.601C211.132 64.3898 211.132 62.0671 211.132 57.7004V12.4494C211.132 8.45606 210.019 7.24805 205.744 3.62269H205.743Z" fill="#D7D7D7"/>
<path d="M251.554 68.6645V62.9964C249.416 65.4125 244.862 69.7805 238.174 69.7805C231.298 69.7805 226.839 65.2271 226.839 58.9084C226.839 51.195 232.32 48.223 243.284 41.9056L251.555 37.1643V33.6336C251.555 25.7362 247.188 23.6908 243.379 23.6908C239.291 23.6908 235.482 26.1069 229.907 31.5909L231.3 23.5988C234.367 22.4828 239.014 21.2775 243.564 21.2775C252.578 21.2775 257.687 24.8082 257.687 33.4469V57.6991C257.687 62.0658 257.782 64.3885 261.219 68.6631H251.555L251.554 68.6645ZM240.96 65.5978C245.978 65.5978 249.882 62.5311 251.554 60.7671V42.0896L243.748 44.691C235.2 47.5737 233.063 52.4044 233.063 56.7711C233.063 61.9751 236.594 65.5978 240.96 65.5978Z" fill="#D7D7D7"/>
<path d="M266.518 25.9215L277.853 21.2775V31.5909L280.269 28.7082C283.613 24.7148 285.937 22.0188 290.954 20.9028L293.091 27.3149L288.166 27.9655C285.47 28.3362 283.333 28.6162 281.382 30.3815L277.851 33.6322V57.6977C277.851 62.0644 278.222 64.2018 281.847 68.6618H268.187C271.718 64.3871 271.718 62.0644 271.718 57.6977V33.2629C271.718 30.6615 270.885 30.0122 266.518 25.9215Z" fill="#D7D7D7"/>
</svg>
