<svg width="282" height="73" viewBox="0 0 282 73" fill="none" xmlns="http://www.w3.org/2000/svg">
<path d="M98.7651 24.9316C98.7651 24.864 98.8328 23.685 98.6297 22.9941C97.96 20.2982 95.0935 20.501 94.4916 20.501H91.0156V52.484H94.6195C95.8233 52.484 96.0264 52.4164 96.696 52.2061C98.6297 51.6504 98.7651 49.9908 98.7651 48.3312V24.9316ZM108.117 57.4703C105.514 60.7294 101.301 60.9322 97.629 60.9322H79.933V12.0603H97.1625C97.5011 12.0603 100.503 12.0603 102.437 12.4733C103.708 12.7512 106.778 13.5772 108.712 16.7687C109.78 18.5034 110.246 20.2306 110.246 24.2482V48.6166C110.246 51.658 110.111 54.9847 108.11 57.4778" fill="#D7D7D7"/>
<path d="M132.156 34.2134C132.156 33.5225 132.359 30.2033 129.221 30.2033C125.881 30.2709 126.016 33.3197 126.016 34.2134V38.0207H132.156V34.2134ZM139.108 59.2726C137.701 60.3089 136.301 60.797 135.699 61.0073C133.826 61.6982 131.027 61.976 129.018 61.976C128.213 61.976 121.133 62.0436 117.733 57.9584C115.257 55.0523 115.257 51.0347 115.257 47.4376V37.465C115.257 32.2684 115.927 29.9179 117.259 27.7026C119.064 24.7964 122.337 23.1368 128.883 23.1368C129.553 23.1368 138.37 22.7914 141.109 28.6037C141.914 30.2633 142.177 31.998 142.177 35.7378V45.012H126.016V51.0347C126.016 52.0034 126.016 54.5641 129.018 54.5641C129.485 54.5641 131.486 54.5641 132.156 52.6267C132.359 52.0785 132.359 51.4477 132.359 50.8995V48.7518H142.584C142.584 52.8369 142.584 56.5767 139.108 59.2726Z" fill="#D7D7D7"/>
<path d="M171.904 56.1562C170.437 59.2726 166.494 61.9009 159.279 61.9009C155.073 61.9009 149.461 60.9322 147.256 56.5692C146.451 54.9096 146.188 53.2425 146.188 49.5778H156.405V50.5465C156.337 52.7619 156.804 53.5203 157.609 54.0084C157.947 54.2187 158.414 54.4966 159.347 54.4966C161.747 54.4966 162.221 52.6267 162.221 51.7255C162.221 49.7205 160.686 48.8869 159.211 48.0534L154.201 45.2148C151.131 43.4876 149.664 42.5865 148.528 41.2047C146.722 39.1246 146.526 36.6314 146.526 34.0031C146.594 28.7389 148.264 26.8766 150.401 25.4197C153.072 23.6174 156.413 23.1368 159.55 23.1368C164.094 23.1368 169.775 24.1731 171.769 29.1594C172.574 31.0969 172.574 33.0344 172.574 35.0394H162.492C162.492 34.4837 162.958 30.4661 159.618 30.5412C158.685 30.5412 156.811 30.9542 156.811 33.6577C156.811 35.6627 158.286 36.4287 161.22 37.9456L167.367 41.1296C168.436 41.6853 169.241 42.241 170.106 42.9319C172.581 44.8018 172.98 46.8068 172.98 49.8557C172.98 50.4039 173.115 53.7306 171.912 56.1562" fill="#D7D7D7"/>
<path d="M214.045 60.9322H203.09L197.748 35.4599L192.339 60.9322H181.384L173.966 24.1731H184.792L187.463 50.892L191.872 24.1731H203.828L208.033 50.892L210.84 24.1731H221.524L214.045 60.9322Z" fill="#D7D7D7"/>
<path d="M224.262 24.1731H234.886V60.9322H224.262V24.1731ZM224.262 12.0528H234.886V20.501H224.262V12.0528Z" fill="#D7D7D7"/>
<path d="M259.662 60.9322L251.513 42.1734V60.9322H240.958V12.0603H251.513V38.0883L258.932 24.1731H270.82L261.264 39.9581L271.557 60.9322H259.662Z" fill="#D7D7D7"/>
<path d="M277.854 16.0178H276.763V14.1329H278.208C278.592 14.1329 278.975 14.1629 279.194 14.5534C279.322 14.7862 279.322 15.019 279.322 15.1091C279.322 15.402 279.224 15.5597 279.179 15.6573C278.93 15.9953 278.577 16.0103 278.223 16.0178H277.847H277.854ZM278.938 16.3332C279.487 16.1379 279.765 15.6799 279.765 15.1317C279.765 14.7562 279.653 14.4934 279.585 14.3807C279.246 13.7725 278.622 13.7349 278.419 13.7199H276.304V18.5936H276.763V16.4083H277.854L279.344 18.5936H279.893L278.366 16.4083C278.667 16.4083 278.832 16.3707 278.938 16.3257" fill="#D7D7D7"/>
<path d="M277.997 19.7801C276.064 19.7801 274.484 18.158 274.484 16.168C274.484 14.178 276.064 12.5484 277.997 12.5484C279.931 12.5484 281.518 14.1329 281.518 16.168C281.518 18.2031 279.938 19.7801 277.997 19.7801ZM277.997 12.0603C275.815 12.0603 274.032 13.8701 274.032 16.168C274.032 18.4659 275.823 20.2607 277.997 20.2607C280.172 20.2607 282 18.4208 282 16.168C282 13.9151 280.209 12.0603 277.997 12.0603Z" fill="#D7D7D7"/>
<path d="M42.4418 12.0528L0.0902878 0L0.00752542 19.2919L34.5794 24.0229C35.851 24.2783 38.8003 25.4347 38.8003 30.5863V45.3875L48.4458 44.569V22.2357C48.4458 13.8325 42.4418 12.0603 42.4418 12.0603" fill="#D7D7D7"/>
<path d="M18.5161 51.3576V27.6801L0 26.1181V73L41.3885 61.6306C41.3885 61.6306 48.4383 59.8358 48.4308 50.111V47.5578L18.5161 51.3576Z" fill="#D7D7D7"/>
<path d="M18.5161 51.3576V27.6801L0 26.1181V73L41.3885 61.6306C41.3885 61.6306 48.4383 59.8358 48.4308 50.111V47.5578L18.5161 51.3576Z" fill="#D7D7D7"/>
<path d="M18.5161 51.3576V27.6801L0 26.1181V73L41.3885 61.6306C41.3885 61.6306 48.4383 59.8358 48.4308 50.111V47.5578L18.5161 51.3576Z" fill="#D7D7D7"/>
</svg>
