<svg width="247" height="44" viewBox="0 0 247 44" fill="none" xmlns="http://www.w3.org/2000/svg">
<path d="M146.557 0.739356H151.61C151.712 0.739356 151.809 0.779928 151.881 0.852147C151.953 0.924366 151.993 1.02232 151.993 1.12445V42.8756C151.993 42.9777 151.953 43.0756 151.881 43.1479C151.809 43.2201 151.712 43.2606 151.61 43.2606H146.557C146.455 43.2606 146.358 43.2201 146.286 43.1479C146.214 43.0756 146.174 42.9777 146.174 42.8756V1.12445C146.174 1.02232 146.214 0.924366 146.286 0.852147C146.358 0.779928 146.455 0.739356 146.557 0.739356Z" fill="#D7D7D7"/>
<path d="M160.59 0.739356H166.873C166.933 0.739314 166.993 0.753551 167.046 0.780909C167.1 0.808268 167.146 0.847977 167.182 0.896807L189.003 30.84C189.038 30.8889 189.085 30.9286 189.138 30.9559C189.192 30.9833 189.251 30.9975 189.311 30.9975H189.837C189.888 30.9975 189.937 30.9876 189.984 30.9683C190.03 30.949 190.073 30.9206 190.108 30.8848C190.144 30.8491 190.172 30.8066 190.191 30.7598C190.21 30.7131 190.22 30.663 190.22 30.6124V1.12445C190.22 1.07386 190.23 1.02376 190.249 0.977006C190.268 0.930256 190.297 0.887779 190.332 0.852008C190.368 0.816236 190.41 0.787873 190.456 0.768543C190.503 0.749212 190.553 0.739294 190.603 0.739356H195.656C195.707 0.739356 195.756 0.74932 195.803 0.768679C195.849 0.788037 195.891 0.81641 195.927 0.852176C195.962 0.887941 195.991 0.930397 196.01 0.977115C196.029 1.02383 196.039 1.0739 196.039 1.12445V42.8756C196.039 42.9261 196.029 42.9762 196.01 43.0229C195.991 43.0696 195.962 43.1121 195.927 43.1478C195.891 43.1836 195.849 43.212 195.803 43.2313C195.756 43.2507 195.707 43.2606 195.656 43.2606H189.311C189.251 43.2607 189.192 43.2464 189.138 43.2191C189.085 43.1917 189.038 43.152 189.003 43.1032L167.182 13.1604C167.146 13.1116 167.1 13.0719 167.046 13.0446C166.993 13.0172 166.933 13.003 166.873 13.003H166.408C166.307 13.0031 166.21 13.0437 166.138 13.1159C166.066 13.1881 166.026 13.286 166.026 13.3881V42.8756C166.026 42.9261 166.016 42.9762 165.997 43.0229C165.977 43.0696 165.949 43.1121 165.914 43.1478C165.878 43.1836 165.836 43.212 165.79 43.2313C165.743 43.2507 165.694 43.2606 165.643 43.2606H160.59C160.54 43.2607 160.49 43.2508 160.443 43.2315C160.397 43.2121 160.355 43.1838 160.319 43.148C160.283 43.1122 160.255 43.0697 160.236 43.023C160.217 42.9762 160.207 42.9261 160.207 42.8756V1.12445C160.207 1.07386 160.217 1.02376 160.236 0.977006C160.255 0.930256 160.283 0.887779 160.319 0.852008C160.355 0.816236 160.397 0.787873 160.443 0.768543C160.49 0.749212 160.54 0.739294 160.59 0.739356Z" fill="#D7D7D7"/>
<path d="M202.532 22C202.532 9.49022 212.148 0 224.766 0C237.445 0 247 9.49022 247 22C247 34.5098 237.445 44 224.766 44C212.148 44 202.532 34.5103 202.532 22ZM240.936 22C240.936 13.804 234.015 7.70325 224.768 7.70325C215.58 7.70325 208.597 13.804 208.597 22C208.597 30.196 215.58 36.2968 224.768 36.2968C234.015 36.2968 240.936 30.196 240.936 22Z" fill="#D7D7D7"/>
<path d="M100.182 0.739356H105.615C105.691 0.739435 105.766 0.762558 105.829 0.805749C105.893 0.84894 105.942 0.91022 105.97 0.981698L119.069 34.0844C119.098 34.1559 119.147 34.2171 119.21 34.2603C119.273 34.3035 119.348 34.3266 119.425 34.3267H120.314C120.391 34.3267 120.466 34.3036 120.529 34.2604C120.592 34.2172 120.642 34.1559 120.67 34.0844L133.77 0.981698C133.798 0.910183 133.847 0.848867 133.911 0.805668C133.974 0.762469 134.049 0.739371 134.125 0.739356H140.108C140.17 0.739449 140.231 0.754655 140.286 0.78367C140.341 0.812684 140.388 0.854641 140.423 0.905939C140.458 0.957238 140.48 1.01635 140.488 1.0782C140.495 1.14004 140.488 1.20278 140.466 1.26103L124.588 43.0145C124.561 43.0874 124.512 43.1501 124.448 43.1943C124.384 43.2385 124.308 43.2621 124.231 43.2621H116.06C115.982 43.2621 115.907 43.2384 115.843 43.1942C115.779 43.15 115.73 43.0873 115.703 43.0145L99.8249 1.26198C99.8028 1.20368 99.795 1.14084 99.8024 1.07886C99.8097 1.01689 99.8319 0.957634 99.8671 0.906209C99.9023 0.854784 99.9493 0.812728 100.004 0.783662C100.059 0.754596 100.12 0.739391 100.182 0.739356Z" fill="#D7D7D7"/>
<path d="M29.8915 17.8906H5.69981C5.64326 17.8911 5.58767 17.9055 5.53782 17.9324C5.48797 17.9592 5.44535 17.9979 5.4136 18.045C5.38185 18.0921 5.36193 18.1462 5.35554 18.2028C5.34916 18.2593 5.35649 18.3166 5.37692 18.3696C6.62087 21.7942 10.3932 24.0919 15.3836 24.0919C18.9293 24.0919 22.1535 23.0135 23.898 21.5457C23.9585 21.4942 24.0351 21.466 24.1144 21.466H29.2269C29.2851 21.4658 29.3425 21.4804 29.3938 21.5085C29.445 21.5365 29.4884 21.577 29.5199 21.6263C29.5515 21.6757 29.5702 21.7322 29.5743 21.7907C29.5785 21.8492 29.5679 21.9078 29.5436 21.9611C27.0991 27.1086 21.7849 30.5725 15.2191 30.5725C6.49879 30.573 0.00188606 24.1484 0.00188606 15.656C0.00188606 7.16355 6.49878 0.739356 15.1616 0.739356C23.8245 0.739356 30.3209 7.10807 30.3209 15.7679C30.3209 16.328 30.2822 17.0057 30.237 17.57C30.2301 17.6574 30.1907 17.739 30.1267 17.7984C30.0626 17.8578 29.9786 17.8908 29.8915 17.8906ZM5.71348 13.3658H24.7262C24.7832 13.3654 24.8393 13.3509 24.8895 13.3237C24.9397 13.2964 24.9825 13.2572 25.0141 13.2095C25.0458 13.1618 25.0654 13.107 25.0711 13.0499C25.0769 12.9928 25.0687 12.9352 25.0472 12.8821C23.7448 9.46509 19.8838 7.21999 15.1616 7.21999C10.4394 7.21999 6.73211 9.46367 5.39342 12.8797C5.3716 12.9329 5.36308 12.9907 5.36862 13.0479C5.37415 13.1052 5.39356 13.1603 5.42515 13.2083C5.45674 13.2562 5.49955 13.2957 5.54982 13.3232C5.60008 13.3506 5.65628 13.3653 5.71348 13.3658Z" fill="#D7D7D7"/>
<path d="M67.743 15.656C67.743 7.16403 74.2399 0.739356 82.9027 0.739356C91.5095 0.739356 98.062 7.16403 98.062 15.656C98.062 24.1479 91.51 30.573 82.9027 30.573C74.2399 30.573 67.743 24.1484 67.743 15.656ZM92.9533 15.656C92.9533 10.9073 88.6775 7.33144 82.9027 7.33144C77.128 7.33144 72.8517 10.9078 72.8517 15.656C72.8517 20.4041 77.1275 23.9809 82.9027 23.9809C88.678 23.9809 92.9533 20.4051 92.9533 15.656Z" fill="#D7D7D7"/>
<path d="M49.3138 23.9814C43.5414 23.9814 39.2637 20.4046 39.2637 15.6531C39.2637 10.9106 43.5414 7.33428 49.3138 7.33428C53.156 7.33428 56.4532 8.95812 58.1662 11.429H63.8104C62.0776 5.13281 56.374 0.739356 49.3138 0.739356C40.6599 0.739356 34.1546 7.16497 34.1546 15.6531C34.1546 24.1507 40.6595 30.5763 49.3138 30.5763C56.374 30.5763 62.0776 26.1829 63.8104 19.8867H58.1761C56.4631 22.3576 53.156 23.9814 49.3138 23.9814Z" fill="#D7D7D7"/>
<path d="M98.0384 36.4533C97.8343 36.4694 97.6307 36.4836 97.4257 36.5007C97.0436 36.4974 96.6624 36.5371 96.2892 36.6192C95.6588 36.7595 95.013 36.8175 94.3679 36.7919C93.7697 36.8331 93.1697 36.8606 92.5701 36.8654C91.5859 36.873 90.6016 36.8666 89.6174 36.8464C89.2073 36.8379 88.7982 36.7772 88.3881 36.7435C88.3044 36.7375 88.2203 36.7386 88.1368 36.7468C87.6353 36.7942 87.1342 36.8417 86.6332 36.8953C86.529 36.9062 86.4281 36.9479 86.3249 36.9692C86.1488 37.024 85.9665 37.0559 85.7823 37.0641C85.5592 37.0576 85.3382 37.1092 85.1407 37.2138C84.9432 37.3184 84.7758 37.4725 84.6548 37.6612L84.3574 37.5744L84.3013 37.8115C83.8389 37.4482 83.0701 37.6218 82.6826 37.7973C82.5572 37.8547 82.4285 37.9054 82.2989 37.9524C82.142 38.0093 81.9275 38.0116 81.8341 38.1207C81.5513 38.4527 81.1389 38.4769 80.7792 38.612C80.5645 38.6571 80.3441 38.6686 80.1259 38.6462C80.0076 38.6495 79.8902 38.6395 79.7714 38.6524C79.4198 38.6917 79.0691 38.7401 78.7179 38.7837C78.6345 38.7937 78.5294 38.77 78.4695 38.8103C77.935 39.1574 77.3048 39.1617 76.7179 39.3206C76.6707 39.3374 76.6274 39.3638 76.5908 39.3982C76.5542 39.4325 76.5249 39.4741 76.5048 39.5202C76.4676 39.6447 76.4047 39.7598 76.3202 39.8581C76.2357 39.9563 76.1315 40.0355 76.0145 40.0905C75.8974 40.1454 75.7702 40.1749 75.6411 40.1769C75.5119 40.1789 75.3838 40.1534 75.2651 40.1021C74.9658 39.9978 74.8018 40.0628 74.6721 40.2918C74.3103 40.3068 73.9528 40.3772 73.612 40.5005C73.0737 40.7795 72.4643 40.8891 71.8632 40.8149C71.0554 40.8253 70.2575 40.9955 69.5149 41.3157C69.2597 41.4302 69.0175 41.5722 68.7927 41.7393C68.7348 41.7826 68.6685 41.8135 68.5981 41.8298C67.9693 41.8844 67.3588 42.121 66.7036 41.9142C66.1204 41.7905 65.5128 41.8664 64.9775 42.13C64.7917 42.1988 64.6711 42.4426 64.4854 42.6446C64.3357 42.6251 64.1917 42.575 64.062 42.4974C63.9323 42.4199 63.8197 42.3165 63.7312 42.1936C63.6016 42.0415 63.4323 41.9289 63.2425 41.8687C63.0526 41.8085 62.8497 41.8031 62.6569 41.8531C62.3991 41.8806 62.1384 41.8711 61.8787 41.8886C61.3385 41.9247 60.7992 41.9835 60.2581 42.0015C60.0696 42.0082 59.881 41.9109 59.6896 41.8977C59.0934 41.8564 58.4966 41.8137 57.8984 41.8066C57.3219 41.7635 56.7426 41.8334 56.1925 42.0124C56.0601 42.0641 55.8852 41.9949 55.7311 42.0029C54.9024 42.0466 54.074 42.094 53.246 42.1452C52.0483 42.2216 50.8486 42.277 49.6556 42.3956C49.1178 42.4818 48.5862 42.6035 48.0642 42.7598C48.0293 42.7679 47.9874 42.7945 47.9615 42.7835C47.2422 42.471 46.5426 43.0254 45.8012 42.822C45.5235 42.7461 45.1464 42.987 44.8287 43.1165C44.561 43.2256 44.3465 43.3574 44.0505 43.1132C43.903 42.9917 43.6046 43.042 43.3741 43.0354C42.956 43.0495 42.5376 43.0422 42.1202 43.0136C41.2929 42.9169 40.4551 42.9653 39.6441 43.1568C39.3251 43.2041 39.0023 43.2199 38.6802 43.2042C38.3064 43.209 37.9321 43.1795 37.5593 43.1957C36.6337 43.3082 35.6967 43.2836 34.7782 43.1226C34.3539 43.0155 33.9226 42.9277 33.4895 42.8627C33.2446 42.7992 32.9876 42.8003 32.7433 42.8661C32.5824 42.9307 32.4081 42.9541 32.236 42.9342C32.0639 42.9143 31.8993 42.8518 31.7572 42.7523C31.3221 42.5061 30.9021 42.6773 30.4765 42.6977C30.1675 42.7419 29.8538 42.7398 29.5455 42.6915C28.9634 42.5545 28.3525 42.5445 27.7576 42.4544C27.4809 42.366 27.1813 42.3859 26.9186 42.5099C26.8356 42.5597 26.6593 42.4506 26.525 42.4184C26.447 42.3936 26.3662 42.3792 26.2846 42.3757C26.1431 42.3795 25.9801 42.4568 25.9683 42.2092C25.9683 42.1993 25.7637 42.159 25.7293 42.1978C25.6983 42.2464 25.6574 42.2877 25.6094 42.3192C25.5614 42.3507 25.5073 42.3716 25.4506 42.3806C25.394 42.3895 25.3361 42.3863 25.2808 42.3712C25.2255 42.356 25.174 42.3293 25.1297 42.2927C25.05 42.2401 24.9492 42.2206 24.8686 42.1689C24.6494 42.0295 24.4792 42.0091 24.45 42.2785C24.1549 42.3136 23.8971 42.3577 23.6383 42.3676C23.521 42.3746 23.4053 42.3372 23.314 42.2628C22.9086 41.8441 22.474 42.085 22.0413 42.1756C21.8871 42.2083 21.7259 42.2097 21.5699 42.2273C21.1982 42.2522 20.828 42.2976 20.4612 42.3634C20.2524 42.4438 20.0557 42.553 19.8767 42.6878C19.8357 42.5981 19.8023 42.3686 19.6844 42.3083C19.5557 42.2453 19.3493 42.343 19.1763 42.3681C19.0297 42.3972 18.8811 42.4145 18.7318 42.4198C18.63 42.3986 18.5321 42.3619 18.4414 42.3107L18.3 42.5848C18.0875 42.5134 17.8685 42.463 17.6462 42.4345C17.1419 42.417 16.6351 42.4549 16.1303 42.4388C15.8395 42.4085 15.5509 42.3597 15.2663 42.2927C14.884 42.7247 14.2872 42.5483 13.6971 42.5066C13.2059 42.472 12.7072 42.5113 12.2146 42.5241C11.3737 42.5464 10.5304 42.619 9.69185 42.5858C8.83704 42.5453 7.98554 42.4517 7.14221 42.3055C6.68215 42.2287 6.25461 41.9697 5.79597 41.8744C5.2341 41.7582 4.65525 41.7227 4.08254 41.6624C3.97519 41.6657 3.86837 41.6788 3.76342 41.7018C3.68423 41.7089 3.57487 41.7383 3.52774 41.7018C3.35273 41.5502 3.1417 41.4469 2.9152 41.4018C2.6887 41.3566 2.45444 41.3713 2.23524 41.4443C2.08881 41.4893 1.93071 41.4755 1.79419 41.4058C1.65767 41.336 1.55336 41.2156 1.5032 41.0701C1.40186 40.8235 1.25055 40.9221 1.09122 40.9937C0.960182 41.053 0.820657 41.0952 0.685373 41.1445C0.656148 40.9928 0.633051 40.8396 0.595341 40.6897C0.574601 40.6072 0.551033 40.4896 0.491169 40.4574C0.325191 40.3816 0.188334 40.2533 0.101387 40.0922C0.0144389 39.931 -0.0178487 39.7457 0.00942798 39.5643C0.0480804 39.2461 0.702343 38.8079 1.04644 38.7553C1.416 38.6988 1.70825 38.7372 1.88737 39.1133C1.92027 39.1391 1.95903 39.1563 2.00016 39.1634C2.04129 39.1704 2.08352 39.1671 2.12305 39.1536C2.27532 39.0619 2.44631 39.0063 2.62311 38.9908C2.7999 38.9754 2.97787 39.0006 3.14357 39.0645C3.45504 39.1241 3.77291 39.1426 4.08914 39.1195C4.46011 39.1299 4.83108 39.1413 5.20157 39.1361C5.43726 39.1323 5.67294 39.0759 5.90486 39.0853C6.13052 39.1022 6.35413 39.1401 6.57279 39.1987C6.77307 39.2812 6.99243 39.3052 7.20565 39.2679C7.41888 39.2305 7.61729 39.1334 7.77808 38.9876C7.93458 39.3751 8.2339 39.3196 8.56999 39.3372C9.0114 39.4097 9.44463 39.5259 9.86343 39.6838C10.2066 39.7749 10.553 39.856 10.9004 39.9238C11.304 40.0111 11.7118 40.0772 12.1222 40.1221C12.5026 40.1557 12.8887 40.1292 13.3139 40.1292L13.2314 39.7246C13.4878 39.6535 13.7027 39.6374 13.8404 39.9281C13.8762 40.0025 14.02 40.0191 14.1053 40.0761C14.3043 40.1913 14.5275 40.2578 14.7568 40.2701C14.9861 40.2824 15.2151 40.2401 15.4251 40.1467C15.8044 40.0864 16.1902 40.0789 16.5715 40.1244C17.9042 40.139 19.2286 39.9109 20.4806 39.451L20.6965 39.774L20.885 39.3538L20.9953 39.7289C21.2574 39.7289 21.5308 39.7332 21.8037 39.7289C22.5937 39.7133 23.3885 39.6341 24.1723 39.6938C24.9562 39.7536 25.7373 39.9826 26.5259 40.0893C26.9663 40.1543 27.4134 40.1595 27.8552 40.105C28.8538 40.0393 29.8565 40.0738 30.8484 40.2079C31.4239 40.243 32.0046 40.1847 32.5792 40.225C33.1758 40.2727 33.7694 40.3518 34.3577 40.4621C35.1817 40.6082 35.999 40.7941 36.8216 40.9487C37.2331 41.0265 37.6498 41.0805 38.065 41.1384C38.5685 41.2248 39.0761 41.2848 39.5857 41.3181C39.8874 41.3271 40.1905 41.1654 40.4968 41.1469C41.2039 41.1038 41.9176 41.1441 42.618 41.0687C43.2181 41.0042 43.8436 41.1739 44.4205 40.8851C44.4426 40.8745 44.4668 40.8692 44.4912 40.8695C45.1989 40.8888 45.9068 40.9085 46.6148 40.9288C46.8773 40.9363 47.1399 40.9506 47.4024 40.952C47.4547 40.952 47.5438 40.9174 47.5542 40.8813C47.6452 40.5427 47.8696 40.6641 48.0968 40.6916C48.8237 40.8073 49.5665 40.7716 50.2792 40.5868C50.4416 40.5503 50.6101 40.5518 50.7718 40.5911C50.9177 40.6283 51.0707 40.6264 51.2157 40.5856C51.3606 40.5448 51.4925 40.4666 51.5981 40.3587C51.7221 40.1965 51.9046 40.09 52.1061 40.0622C52.3076 40.0345 52.5119 40.0876 52.6747 40.2103C52.8358 40.2905 53.0134 40.3316 53.1932 40.3303C53.747 40.3174 54.2995 40.2708 54.8477 40.1908C55.5022 40.0857 56.1667 40.0585 56.8275 40.1097C57.4803 40.1519 58.1407 40.0561 58.7983 40.0457C58.9974 40.0621 59.1938 40.1034 59.3828 40.1685C59.4516 40.1856 59.5148 40.2458 59.5822 40.2487C60.1803 40.2757 60.779 40.2961 61.3776 40.3141C61.461 40.3141 61.545 40.2909 61.6289 40.2914C62.2991 40.2947 62.9694 40.2942 63.6393 40.3084C64.418 40.325 65.1976 40.3331 65.9739 40.3848C66.9995 40.4183 68.0249 40.3146 69.0232 40.0765C69.5201 40.0475 70.0096 39.9419 70.4746 39.7635C71.2877 39.2893 72.2229 39.3737 73.0671 39.0465C73.4984 38.879 73.8788 38.6381 74.2969 38.4674C74.9605 38.1955 75.6928 38.1432 76.3879 38.318C76.4882 38.3577 76.5956 38.3758 76.7033 38.3711C77.2048 38.2549 77.7082 38.1397 78.1985 37.9851C78.9668 37.7432 79.7168 37.4402 80.4903 37.2201C81.0946 37.048 81.7271 36.9782 82.3404 36.835C82.9339 36.6961 83.5188 36.5163 84.109 36.3646C84.2834 36.3188 84.4624 36.2924 84.6426 36.2858C85.8587 36.2508 87.0753 36.228 88.2915 36.191C89.3115 36.1616 90.3315 36.1085 91.3516 36.09C91.7711 36.0824 92.1916 36.1483 92.612 36.163C92.8751 36.172 93.139 36.1398 93.4025 36.1398C93.666 36.1398 93.921 36.155 94.1826 36.1644C94.2769 36.1678 94.3735 36.1796 94.4688 36.1753C95.404 36.1322 96.3382 36.0653 97.2734 36.0549C97.5466 36.0948 97.8123 36.1764 98.0611 36.2968L98.0384 36.4533Z" fill="#D7D7D7"/>
</svg>
