<svg width="177" height="103" viewBox="0 0 177 103" fill="none" xmlns="http://www.w3.org/2000/svg">
<g opacity="0.8">
<path d="M27.0082 14.4038L26.8658 14.8367C26.8266 14.9718 21.9622 31.1648 21.1268 46.197C21.6322 46.0567 22.129 45.9283 22.6214 45.8084C23.6094 38.2933 25.1609 30.8637 27.2627 23.5828C28.094 21.0696 29.4717 16.5826 31.1438 16.381C33.8866 16.5547 38.7647 17.8425 40.0965 18.2917C41.422 18.7465 44.9539 19.8345 45.3338 19.8457C46.1144 19.8698 47.2423 18.373 47.1909 17.0043C47.1539 15.597 46.8313 14.8935 45.5964 14.1603C43.904 13.4735 35.1074 11.4874 28.4898 10.3318C27.8905 11.7005 27.2683 13.6038 27.0082 14.4038Z" fill="#D7D7D7"/>
<path d="M38.5012 59.9697C37.7354 60.2855 36.9324 60.5017 36.1118 60.613C34.3242 60.8914 32.0172 61.811 30.6547 62.3879C27.8491 63.5758 24.9061 65.1134 22.3846 66.2408C22.695 68.309 23.0305 69.9765 23.3835 71.3668C30.2274 67.6972 37.0714 65.514 38.2508 64.4229C39.4302 63.3319 39.5001 61.7501 39.3884 60.7418C39.3236 60.1597 39.2755 59.8037 39.2001 59.7673C39.1057 59.7221 38.8693 59.8149 38.5012 59.9697Z" fill="#D7D7D7"/>
<path d="M42.8766 85.7437C41.4897 87.8328 39.985 89.8407 38.37 91.7577C34.2266 96.6026 30.7547 100.09 23.8012 100.853C23.4636 100.889 23.1244 100.907 22.7849 100.907C20.8602 100.848 18.9669 100.401 17.218 99.5925C20.3542 101.833 24.1139 103.025 27.9634 103C32.1882 103 36.6142 99.7584 40.7039 95.1047C42.2332 93.3408 43.6581 91.4884 44.9713 89.557C44.7049 89.2133 44.4467 88.858 44.2018 88.4804C43.6659 87.6172 43.2217 86.7 42.8766 85.7437Z" fill="#D7D7D7"/>
<path d="M130.628 79.7855C129.934 81.1217 129.134 82.3996 128.237 83.607C127.24 85.0031 125.952 86.1635 124.461 87.0065C122.97 87.8496 121.314 88.355 119.608 88.4871C118.45 88.5856 117.285 88.4842 116.161 88.1876C116.548 88.4955 116.959 88.7722 117.39 89.015C119.39 90.125 121.308 90.5816 123.149 90.399C124.505 90.294 125.825 89.904 127.021 89.254C128.218 88.6041 129.264 87.7089 130.094 86.6265C131.101 85.3279 131.974 83.9301 132.7 82.4547C132.216 81.9753 131.772 81.4579 131.371 80.9074C131.112 80.5453 130.864 80.1714 130.628 79.7855Z" fill="#D7D7D7"/>
<path d="M106.292 87.2253C104.923 88.8717 102.968 89.8822 100.484 90.2293C98.0466 90.5201 95.5757 90.1628 93.3193 89.1932C92.9242 89.0325 92.5469 88.8435 92.1743 88.6479C93.3379 90.0688 94.8713 91.1384 96.6041 91.7376C98.5457 92.4666 100.633 92.7177 102.691 92.4701C104.562 92.192 105.969 91.523 106.909 90.4483C108.588 88.5302 108.417 86.9001 107.34 85.292C107.117 85.9976 106.761 86.6539 106.292 87.2253Z" fill="#D7D7D7"/>
<path d="M173.846 69.8737C173.47 71.0746 173.041 72.2793 172.543 73.4809C171.409 76.2296 169.841 78.7765 167.898 81.0232C166.825 82.2843 165.504 83.3087 164.018 84.0318C162.532 84.755 160.912 85.1612 159.261 85.2248C159.066 85.2374 158.854 85.2433 158.645 85.2433C157.102 85.2349 155.58 84.8814 154.19 84.2084C154.705 85.3593 155.546 86.3332 156.608 87.0097C157.926 87.8766 159.47 88.335 161.047 88.3279C163.748 88.3078 166.138 87.578 168.298 85.7066C170.236 84.029 171.641 81.8358 172.757 79.4681C174.244 76.3052 174.518 74.2947 174.484 71.9288C174.498 71.1926 174.275 70.4716 173.846 69.8737Z" fill="#D7D7D7"/>
<path d="M151.357 82.285C150.703 82.9196 149.985 83.4847 149.215 83.9715C147.281 85.2547 145.05 86.0168 142.737 86.1844C142.367 86.2059 142.006 86.216 141.652 86.216C139.828 86.2371 138.018 85.8977 136.325 85.2173C138.206 87.4004 140.928 88.4798 144.49 88.4556C146.313 88.4148 148.096 87.9171 149.677 87.0078C151.122 86.2279 152.351 85.0989 153.253 83.7228C153.212 83.6986 153.171 83.6823 153.13 83.6586C152.485 83.2754 151.89 82.8141 151.357 82.285Z" fill="#D7D7D7"/>
<path d="M174.187 36.1883C173.829 37.3191 173.475 38.507 173.127 39.7521C172.453 42.2022 171.778 44.7437 171.125 47.2903C170.487 49.7619 169.89 52.2013 169.299 54.752C168.84 56.7288 168.42 58.6314 168.045 60.4214C168.669 59.751 169.526 59.3462 170.438 59.2903C170.894 57.7764 176.081 43.2576 176.918 41.338C177.383 40.2726 175.786 37.8536 174.187 36.1883Z" fill="#D7D7D7"/>
<path d="M89.6399 31.0464C89.0125 32.5081 88.4945 34.0146 88.0902 35.5535C87.5308 37.5946 86.8514 39.6007 86.0555 41.5611C85.1214 43.875 83.5398 46.2434 81.352 48.6033C79.9822 50.0779 78.4448 51.3861 76.7713 52.5012C76.5568 52.6406 76.3416 52.7767 76.1258 52.9096C76.6538 53.5107 77.1655 54.1574 77.6607 54.8496C77.6851 54.8838 77.7084 54.9194 77.7313 54.954C78.2325 55.7272 78.6776 56.5356 79.0631 57.3729C80.4209 56.4886 81.6818 55.463 82.8251 54.3132C84.8088 52.3056 88.5485 46.9773 89.3635 43.7087C89.8866 41.609 92.0234 32.0554 92.989 27.6181C92.7358 27.8327 92.4719 28.0343 92.1984 28.2221C90.9325 29.1082 90.0683 30.0608 89.6399 31.0464Z" fill="#D7D7D7"/>
<path d="M65.3027 90.1105C65.1105 90.5534 64.8643 90.9706 64.5698 91.3527C63.211 93.0997 61.2067 94.2219 58.6137 94.6867C56.0858 95.0874 53.4979 94.8378 51.0924 93.9613C52.3203 95.1395 53.8153 96.0005 55.4485 96.4701C57.4992 97.1268 59.6746 97.2931 61.8008 96.9556C63.7396 96.6072 65.1728 95.8741 66.1007 94.7565C67.0238 93.6346 66.8861 92.2899 65.6874 90.7223C65.5487 90.5252 65.4203 90.321 65.3027 90.1105Z" fill="#D7D7D7"/>
<path d="M88.4997 85.6851C88.3107 85.9821 88.1172 86.2702 87.9189 86.5568C86.9171 88.0511 85.6043 89.3098 84.071 90.2458C82.5377 91.1819 80.8203 91.7732 79.0373 91.9789C77.7297 92.1421 76.4036 92.0657 75.1232 91.7536C75.6852 92.1959 76.2919 92.5777 76.9334 92.8929C79.0601 93.923 81.0743 94.305 82.9761 94.0389C84.3673 93.8891 85.7123 93.4508 86.9259 92.7519C88.1395 92.053 89.195 91.1086 90.0257 89.9788C90.4726 89.3737 90.8851 88.7492 91.2717 88.11C90.2308 87.447 89.2962 86.6294 88.4997 85.6851Z" fill="#D7D7D7"/>
<path d="M159.206 81.5185C160.396 81.4813 161.565 81.1938 162.637 80.6747C163.709 80.1555 164.661 79.4163 165.43 78.5048C167.127 76.54 168.497 74.3138 169.488 71.9118C170.483 69.5342 171.233 67.0605 171.725 64.5295C171.803 64.2424 171.815 63.9411 171.76 63.6485C171.706 63.3559 171.585 63.0797 171.408 62.8408C171.342 62.7475 171.258 62.669 171.16 62.6103C171.063 62.5515 170.954 62.5139 170.841 62.4996C170.782 62.4996 170.713 62.4996 170.667 62.6659C170.301 63.9873 169.827 65.2761 169.249 66.5189C168.76 67.5958 168.156 68.6164 167.448 69.563C166.733 70.4885 165.994 71.0056 165.192 71.1444L165.105 71.1593L165.018 71.1482C164.352 71.0654 163.852 70.4859 163.529 69.4271C163.244 68.5043 163.266 67.1511 163.6 65.289L164.609 60.4025C165.038 58.3136 165.529 56.0681 166.072 53.7301C166.672 51.1389 167.276 48.6709 167.917 46.1863C168.576 43.6222 169.254 41.0633 169.937 38.5806C170.629 36.0955 171.352 33.8103 172.089 31.787C172.216 31.4348 172.025 30.5345 171.064 29.161C169.733 27.254 167.655 25.517 166.706 25.517C166.659 25.5151 166.612 25.5225 166.568 25.5389C164.878 26.2319 163.31 27.1926 161.923 28.3844L161.243 28.975L160.97 28.1152C160.569 26.7652 159.731 25.5877 158.588 24.7686C157.468 23.9801 155.892 23.6389 153.923 23.7536C150.496 23.9526 147.27 25.556 144.333 28.5206C141.148 31.816 138.542 35.6294 136.627 39.7989C134.459 44.4027 132.837 49.2458 131.794 54.229C131.439 55.9103 131.168 57.6287 130.937 59.6359C130.7 60.9971 130.402 62.3817 130.044 63.7896C129.686 65.2139 129.241 66.6148 128.712 67.9845C128.258 69.1835 127.694 70.3381 127.029 71.4336C126.351 72.515 125.666 73.1238 124.935 73.2928C124.731 73.3285 124.525 73.3469 124.318 73.3477C123.464 73.3477 122.301 73.0054 121.612 71.3679C120.98 69.7934 120.509 68.1587 120.206 66.4888C119.822 64.5629 119.428 62.5094 119.024 60.3283C118.684 58.3679 118.003 56.483 117.011 54.7598C116.046 53.1896 114.823 51.7936 113.396 50.6303L112.534 49.9598L113.564 49.5986C116.422 48.5867 119.01 46.9321 121.133 44.7615C122.782 43.1772 124.131 41.3061 125.115 39.2391C125.879 37.5272 126.543 35.7723 127.104 33.9832C127.586 32.377 128.187 30.809 128.901 29.292C129.607 27.8041 130.847 26.4762 132.587 25.3473C134.449 24.139 134.159 23.2246 134.064 22.9236C133.765 21.9955 132.966 21.2063 131.686 20.5789C130.128 19.8734 128.433 19.5223 126.723 19.5506H126.61C124.711 19.5588 122.856 20.1234 121.272 21.1751C119.105 22.4743 117.403 24.4297 116.413 26.7602C115.383 29.1999 114.515 31.705 113.813 34.2591C113.088 36.8844 112.264 39.4622 111.363 41.9238C110.482 44.4034 108.948 46.5971 106.924 48.2719L105.637 49.3328L105.967 47.6939C106.753 43.7856 107.587 39.7651 108.446 35.7403C109.301 31.7488 110.011 28.0235 110.558 24.6695C111.115 21.2872 111.504 18.2101 111.717 15.5261C111.923 12.9182 111.8 10.8556 111.353 9.39448C110.429 6.26352 109.097 3.95707 107.395 2.5323C105.693 1.10752 104.046 0.276704 102.524 0.0691866C101.059 -0.134619 99.891 0.112992 99.0572 0.796797C98.5485 1.2174 98.0468 1.88747 98.7061 3.3297C99.5817 5.207 99.7708 8.10631 99.2777 12.188C98.8049 16.1033 98.0158 20.6606 96.9355 25.7379C95.7935 31.0765 94.5797 36.4838 93.3319 41.8091C92.0123 47.4347 90.8943 52.9015 90.0068 58.0556C89.4826 61.0938 89.0897 64.0239 88.8052 67.0179C88.4793 68.3324 88.19 69.3176 87.8778 70.2082C87.4447 71.485 86.893 72.7182 86.2301 73.8915C85.5597 75.0464 84.8613 75.7106 84.0984 75.9233C83.8369 75.9795 83.5702 76.0088 83.3027 76.0105C82.4551 76.0105 81.2817 75.6764 80.5029 74.0768C79.7601 72.4586 79.1847 70.7682 78.7857 69.0321C78.2924 67.0238 77.7802 64.8884 77.2489 62.6258C76.7944 60.5813 75.981 58.6342 74.8469 56.8755C73.7358 55.2634 72.3597 53.8526 70.7775 52.7032L69.8608 52.0636L70.9014 51.6579C72.2958 51.1072 73.63 50.4137 74.8827 49.5886C76.32 48.6292 77.6402 47.5039 78.816 46.2357C80.7142 44.1891 82.0715 42.1778 82.8443 40.2589C83.5869 38.4293 84.2218 36.5576 84.7458 34.6533C85.1955 32.949 85.7704 31.2805 86.4657 29.6614C87.1531 28.0762 88.4198 26.6322 90.2288 25.3666C92.1895 24.0068 91.8355 23.0498 91.7189 22.7354C91.3508 21.7568 90.4755 20.9817 89.0483 20.368C87.3345 19.6999 85.4978 19.4087 83.6623 19.5142C81.5814 19.5871 79.5671 20.2687 77.8671 21.475C75.6065 22.9266 73.8627 25.0601 72.8865 27.5688C71.8959 30.1716 71.0778 32.8373 70.4375 35.5483C69.7716 38.3389 69.0032 41.0797 68.1527 43.6909C67.3085 46.3365 65.7634 48.7019 63.6827 50.5341L62.4393 51.6259L62.7056 49.9907C63.4211 45.5983 64.1396 41.344 64.8387 37.3462C65.5786 33.1168 66.1742 29.1818 66.6145 25.6488C67.0584 22.095 67.3422 18.853 67.455 16.0102C67.5593 13.2723 67.3355 11.1133 66.7943 9.59197C65.6645 6.3541 64.1325 3.99346 62.2391 2.57053C60.3458 1.14761 58.5419 0.357261 56.8872 0.206542C55.3027 0.0621332 54.0434 0.373966 53.1707 1.14093C52.6746 1.57601 52.1052 2.32886 52.8925 3.84051C53.9169 5.76051 54.2457 8.7864 53.8984 13.0841C53.5613 17.2137 52.9173 22.0274 51.9835 27.3909C51.0631 32.6594 50.0006 38.3834 48.8268 44.404C47.6674 50.3237 46.7096 56.1044 45.9782 61.5875C45.0234 69.5597 42.9047 72.3056 40.6629 75.2116C40.3724 75.5884 40.078 75.9697 39.7809 76.3695C37.4503 79.5045 33.0449 82.8786 28.8764 82.8786C27.8569 82.8941 26.8491 82.6593 25.9407 82.1947C25.0323 81.73 24.2508 81.0497 23.6643 80.2128C21.3022 76.9865 19.8046 73.5411 18.6608 64.5896L18.6067 64.1612C20.2034 62.9243 28.455 57.7241 35.0227 56.8499C37.2205 56.5573 37.414 55.7362 37.4728 55.4262C37.6515 54.4677 37.3248 53.3915 36.4969 52.2277C35.4621 50.8619 34.1393 49.7423 32.6232 48.949L32.5237 48.8933C30.851 47.9919 28.9525 47.6003 27.0611 47.7666C24.4138 47.9177 19.1106 50.134 17.5439 51.1099V50.2308C17.5831 33.6799 23.517 13.9391 23.5766 13.7564L23.7172 13.3258C25.0201 9.3258 26.2457 5.99884 28.0555 5.80543L28.1132 5.8006L28.1691 5.8032C30.8848 6.03893 35.7189 7.46928 37.1846 8.02835C38.6574 8.59745 41.7953 9.67921 42.1955 9.73823C42.3562 9.67255 42.4986 9.56858 42.6102 9.43531C43.1308 8.8713 43.4291 8.13644 43.4493 7.36793C43.4389 5.99438 43.1785 5.46984 42.1837 4.81758C39.8124 3.74436 32.975 2.59949 30.2345 2.24868C27.6558 1.94745 25.0617 1.7987 22.4656 1.8032C20.8997 1.7728 19.3338 1.86502 17.7821 2.07902C14.1607 2.7335 12.4572 3.29554 11.2833 5.08376C4.96725 16.6312 0 38.7936 0 55.4938C0 67.0643 1.90263 74.4265 4.56919 81.0715C8.75881 91.5123 18.3252 97.9591 23.4253 97.3997C28.9156 96.7975 31.5522 94.3927 35.7444 89.4925C38.2937 86.5134 41.0983 82.3946 43.8551 77.5842L44.8776 75.7989L44.9616 77.8544C45.1192 81.6358 45.8406 84.5737 47.1073 86.588C48.2818 88.4822 50.0649 89.9178 52.1622 90.6578C54.0272 91.3566 56.039 91.5664 58.0073 91.2673C59.7587 90.954 61.0139 90.2821 61.844 89.2137C62.5954 88.2511 62.4822 87.0665 61.5041 85.5875C60.684 84.1987 60.1576 82.6554 59.9577 81.0537C59.6439 78.932 59.537 76.7847 59.6384 74.6422C59.7183 72.2266 59.927 69.5604 60.2596 66.7201C60.5836 63.9025 60.988 60.8655 61.4611 57.6944L61.7201 55.9608L62.5669 57.4932C63.5344 59.2202 64.1698 61.1143 64.4399 63.0769C64.693 64.933 64.8931 66.9195 65.0378 68.9772C65.1747 70.9893 65.4077 73.0511 65.7299 75.1062C66.0812 77.2099 66.7763 79.2409 67.7872 81.1172C69.4002 84.1197 71.1962 86.1904 73.1251 87.2666C75.0437 88.3379 76.8786 88.7619 78.5933 88.534C79.8985 88.3908 81.1564 87.9614 82.2777 87.276C83.3991 86.5907 84.3565 85.6662 85.0821 84.5681C86.2497 82.8783 87.2132 81.0555 87.9525 79.1378L88.6184 77.432L89.0798 79.205C89.2995 80.1429 89.635 81.0496 90.0786 81.9042C91.0804 83.7392 92.6797 85.1735 94.6089 85.9673C96.3071 86.7069 98.1679 86.9901 100.008 86.7892C101.636 86.5612 102.823 85.9769 103.636 85.0006C104.363 84.123 104.306 82.996 103.454 81.5589C102.742 80.1961 102.311 78.7036 102.185 77.1702C101.981 75.1343 101.966 73.0837 102.14 71.045C102.31 68.7489 102.609 66.219 103.028 63.5227C103.458 60.7615 103.953 57.8856 104.508 54.9729L104.841 53.2122L105.624 54.8237C106.456 56.5151 106.972 58.345 107.147 60.2229C107.311 61.9769 107.42 63.8761 107.472 65.8689C107.526 67.816 107.664 69.7894 107.884 71.7343C108.124 73.7455 108.69 75.7038 109.56 77.5315C110.945 80.4564 112.534 82.4981 114.281 83.5962C116.014 84.6914 117.699 85.171 119.297 85.0255C120.52 84.9365 121.707 84.5764 122.774 83.9711C123.841 83.3658 124.761 82.5304 125.468 81.5251C127.12 79.2841 128.397 76.7879 129.249 74.1347C129.483 73.4212 129.673 72.7088 129.862 71.9953L130.665 69.0095L131.157 71.5086C131.627 74.1551 132.659 76.6691 134.182 78.8801C136.078 81.5222 138.869 82.7012 142.678 82.4811C144.406 82.3451 146.07 81.7653 147.51 80.7975C149.1 79.7926 150.366 78.3457 151.153 76.6327L151.79 75.2733L152.254 76.7018C152.816 78.4317 153.731 79.6564 155.053 80.443C156.294 81.2213 157.745 81.5968 159.206 81.5185ZM154.864 39.5179C154.8 41.6367 154.568 43.747 154.17 45.8288C153.726 48.3276 153.131 50.9911 152.403 53.7468C151.66 56.5462 150.876 59.1764 150.073 61.5649C149.405 63.6114 148.606 65.612 147.679 67.5539C146.809 69.3009 146.114 70.0471 145.357 70.0471C145.269 70.0474 145.182 70.0361 145.098 70.0133C143.899 69.7854 143.823 68.002 143.877 66.6815C143.99 64.5678 144.244 62.4639 144.635 60.384C145.069 57.9368 145.642 55.261 146.341 52.4293C147.05 49.5623 147.811 46.9098 148.608 44.5451C149.266 42.5105 150.068 40.5255 151.007 38.6054C151.935 36.7767 152.801 36.0128 153.678 36.1924C154.777 36.4575 154.886 38.108 154.864 39.5179Z" fill="#D7D7D7"/>
<path d="M131.959 30.9525C131.316 32.3221 130.774 33.7376 130.339 35.1875C129.735 37.119 129.019 39.0136 128.195 40.8617C127.033 43.3311 125.434 45.568 123.475 47.4637C122.127 48.8277 120.624 50.0272 118.996 51.0375C118.83 51.1359 118.663 51.2354 118.499 51.3308C118.944 51.9032 119.376 52.5139 119.793 53.1628C119.816 53.1973 119.837 53.2318 119.857 53.2667C120.31 54.0489 120.706 54.863 121.041 55.7027C122.139 55.1936 123.14 54.4972 124.001 53.6447C126.897 50.8682 128.457 48.9534 132.887 36.9141C133.701 34.7045 134.916 34.0003 136.66 32.9156C138.24 31.9385 138.624 30.52 138.229 29.4498C137.927 28.6241 137.267 27.3932 136.272 26.8099C135.735 27.4351 135.108 27.9769 134.412 28.4174C133.215 29.1947 132.39 30.0482 131.959 30.9525Z" fill="#D7D7D7"/>
</g>
</svg>
