<svg width="438" height="79" viewBox="0 0 438 79" fill="none" xmlns="http://www.w3.org/2000/svg">
<path d="M366.213 63.3709H374.226V1.90269L368.563 0L366.213 1.90269V63.3709Z" fill="#D7D7D7"/>
<path d="M248.066 17.8406L233.695 50.1416V50.1304L229.42 59.767L229.431 59.8005L222.548 75.3019V77.3053H230.036L255.722 19.7544V17.8406H248.066Z" fill="#D7D7D7"/>
<path d="M339.922 17.8406V63.3709H347.577V17.8406H339.922Z" fill="#D7D7D7"/>
<path d="M55.5586 31.2377V22.7875C55.5586 22.7875 55.5586 22.7875 55.5586 22.7987V17.8293H47.9814V63.3709H55.5586V31.2266V31.2377Z" fill="#D7D7D7"/>
<path d="M148.108 33.465V24.2761L148.097 24.1866H148.108V17.8406H140.531V63.3709H148.108V33.4538V33.465Z" fill="#D7D7D7"/>
<path d="M36.5765 48.4851C34.4835 53.6224 29.7827 57.3718 22.2056 57.3718C14.6284 57.3718 9.3232 52.9285 7.92416 47.7912V33.2524C9.22247 28.1151 14.7067 23.6718 21.7691 23.6718C28.8314 23.6718 34.2149 28.1151 35.6139 33.2524V36.4758H11.8415L10.3529 40.8967L12.0541 43.0009H43.4486V31.3385C40.8408 22.8883 32.4801 16.5311 21.8586 16.5311C11.2371 16.5311 2.619 22.8883 0 31.3385V49.7946C2.69735 58.2448 11.3154 64.7699 22.116 64.7699C32.301 64.7699 40.2252 59.6327 43.7955 51.619L36.5765 48.4851Z" fill="#D7D7D7"/>
<path d="M354.931 2.26087L352.077 4.56649V11.4498L358.938 13.7554L361.78 11.4498V4.56649L354.931 2.26087Z" fill="#D7D7D7"/>
<path d="M360.907 17.8406L355.244 15.9379L352.894 17.8406V63.3709H360.907V17.8406Z" fill="#D7D7D7"/>
<path d="M69.8288 16.5311C64.8594 16.5311 60.9197 18.0532 57.8978 20.5379L58.9611 24.9589L59.0059 24.9813L61.0652 25.6976C62.9903 24.7015 65.3295 24.0299 68.0045 24.0299C74.4513 24.0299 78.626 26.9063 80.2825 30.7341V63.3821H88.2962V28.4621C86.0353 22.0153 79.0625 16.5311 69.84 16.5311H69.8288Z" fill="#D7D7D7"/>
<path d="M129.126 48.4851C127.033 53.6224 122.332 57.3718 114.755 57.3718C107.178 57.3718 101.872 52.9285 100.473 47.7912V33.2524C101.772 28.1151 107.256 23.6718 114.318 23.6718C121.381 23.6718 126.764 28.1151 128.163 33.2524V36.4758H104.391L102.902 40.8967L104.603 43.0009H135.998V31.3385C133.39 22.8883 125.029 16.5311 114.408 16.5311C103.786 16.5311 95.1683 22.8883 92.5493 31.3385V49.7946C95.2466 58.2448 103.865 64.7699 114.665 64.7699C124.85 64.7699 132.774 59.6327 136.345 51.619L129.126 48.4851Z" fill="#D7D7D7"/>
<path d="M160.733 17.4041C156.133 17.4041 152.518 19.3292 150.011 21.9706L151.107 26.5706L153.805 27.4996C155.797 26.4251 158.326 25.6752 161.595 25.6752H164.471V17.8406C163.508 17.4936 161.942 17.4041 160.722 17.4041H160.733Z" fill="#D7D7D7"/>
<path d="M201.227 17.8406V22.9779C197.656 18.971 192.34 16.5423 185.815 16.5423C175.451 16.5423 167.448 22.81 164.919 30.9916V46.1459C167.437 54.2492 175.451 60.5952 185.815 60.5952C190.683 60.5952 194.836 59.1402 198.126 56.7898L197.253 51.8205L195.25 50.9922C192.955 52.3353 190.213 53.2083 187.124 53.2083C179.894 53.2083 174.32 48.944 172.932 43.9746V33.1741C174.32 28.2942 179.894 24.0299 187.124 24.0299C193.571 24.0299 198.798 27.6003 200.79 31.9541V45.2058L200.768 54.5961C200.768 54.5961 200.768 54.5961 200.779 54.585V62.3412C199.29 67.4785 193.985 71.3958 186.677 71.3958C178.842 71.3958 173.962 67.4785 172.138 62.6882L164.65 65.643C167.784 73.6567 176.055 78.7044 186.587 78.7044C197.645 78.7044 206.006 72.7053 208.793 64.2551V17.8406H201.215H201.227Z" fill="#D7D7D7"/>
<path d="M230.606 50.2871L231.838 45.7542L220.03 17.8406H212.195V19.7544L225.962 51.7309L230.606 50.2871Z" fill="#D7D7D7"/>
<path d="M267.049 1.90269L261.385 0L259.035 1.90269V63.3709H266.612V57.8866C270.182 62.0614 275.499 64.6804 282.113 64.6804C292.478 64.6804 300.659 58.2336 303.267 49.7946V31.3385C300.659 22.9778 292.466 16.531 282.113 16.531C277.312 16.531 273.16 17.986 269.869 20.3364L270.899 24.9701L273.305 25.8431C275.532 24.7238 278.107 24.0075 280.972 24.0075C288.202 24.0075 293.854 28.4509 295.253 33.5881V47.6905C293.865 52.7382 288.202 57.2711 280.972 57.2711C274.525 57.2711 269.298 53.8798 267.037 49.6939V1.90269H267.049Z" fill="#D7D7D7"/>
<path d="M336.866 56.1071L334.975 55.1781C332.949 56.3757 330.453 57.1927 327.554 57.1927C321.107 57.1927 317.101 54.1372 315.534 50.3095V17.8406H307.52V52.5815C309.691 59.1178 316.664 64.6804 325.808 64.6804C330.554 64.6804 334.393 63.2702 337.392 60.8862L336.855 56.1071H336.866Z" fill="#D7D7D7"/>
<path d="M414.977 1.90269V22.7987C411.407 18.971 406.27 16.531 399.823 16.531C389.549 16.531 381.277 22.9666 378.67 31.3385V49.7946C381.289 58.2448 389.56 64.6804 399.823 64.6804C404.681 64.6804 408.889 63.203 412.202 60.7743L411.385 56.0623L409.202 55.1557C406.863 56.4428 404.087 57.2823 400.954 57.2823C393.734 57.2823 388.071 52.7606 386.672 47.7016V33.5993C388.071 28.4621 393.723 24.0187 400.954 24.0187C407.49 24.0187 412.705 27.3316 414.977 31.5959V63.3709H422.991V1.90269L417.339 0L414.989 1.90269H414.977Z" fill="#D7D7D7"/>
<path d="M432.415 0C429.561 0 427.614 1.35427 426.886 2.74212C426.841 2.84285 426.819 2.94358 426.819 3.0555V8.42781C426.819 8.53974 426.841 8.64047 426.886 8.7412C427.614 10.129 429.55 11.4833 432.415 11.4833C435.28 11.4833 437.217 10.129 437.933 8.7412C437.989 8.64047 438 8.53974 438 8.42781V3.0555C438 2.94358 437.978 2.84285 437.933 2.74212C437.205 1.35427 435.258 0 432.415 0ZM436.791 8.0137C436.791 8.12562 436.769 8.24874 436.713 8.34947C436.064 9.56943 434.374 10.3753 432.415 10.3753C430.456 10.3753 428.766 9.56943 428.117 8.34947C428.061 8.24874 428.039 8.12562 428.039 8.0137V3.46962C428.039 3.35769 428.061 3.23458 428.117 3.13385C428.766 1.91389 430.468 1.10804 432.415 1.10804C434.363 1.10804 436.064 1.91389 436.713 3.13385C436.769 3.23458 436.791 3.35769 436.791 3.46962V8.02489V8.0137Z" fill="#D7D7D7"/>
<path d="M435.034 8.40543V8.62927H433.87L432.437 6.43558H431.24V8.62927H430.076V2.619H432.874C433.836 2.619 434.676 3.17862 434.922 3.87254V5.18204C434.743 5.66331 434.262 6.08862 433.657 6.30127L435.045 8.40543H435.034ZM431.24 3.64869V5.43947H432.762C433.232 5.43947 433.624 5.20443 433.758 4.89104V4.20831C433.624 3.88373 433.232 3.65989 432.762 3.65989H431.24V3.64869Z" fill="#D7D7D7"/>
</svg>
