<svg width="392" height="63" viewBox="0 0 392 63" fill="none" xmlns="http://www.w3.org/2000/svg">
<path d="M103.903 18.9236H86.2466V14.1126H100.723V9.9198H86.2466V5.42163H103.581V1.2288H81.2564V23.1164H103.903V18.9236Z" fill="#D7D7D7"/>
<path d="M117.183 20.1077C113.442 20.1077 110.449 19.0427 108.639 17.5086L106.282 20.3833C108.586 22.3419 112.544 23.8313 117.033 23.8313C123.347 23.8313 126.519 21.2695 126.519 17.9554C126.519 14.2318 122.532 12.6679 117.1 12.3551C113.831 12.1689 111.474 11.9529 111.474 10.6347C111.474 9.31657 114.332 8.92186 116.345 8.92186C118.872 8.83868 121.367 9.51327 123.504 10.8582L125.749 7.78987C122.999 6.0941 119.826 5.20127 116.591 5.21311C110.06 5.21311 106.918 7.58879 106.918 10.9326C106.918 14.7829 111.571 15.967 116.434 16.317C120.115 16.5628 122.031 17.0618 122.031 18.2831C122.031 19.5045 119.921 20.1077 117.183 20.1077Z" fill="#D7D7D7"/>
<path d="M139.462 20.1077C135.722 20.1077 132.729 19.0427 130.919 17.5086L128.562 20.3833C130.889 22.3419 134.846 23.8313 139.343 23.8313C145.65 23.8313 148.822 21.2695 148.822 17.9554C148.822 14.2318 144.834 12.6679 139.403 12.3551C136.133 12.1689 133.784 11.9529 133.784 10.6347C133.784 9.31657 136.642 8.92186 138.647 8.92186C141.175 8.8373 143.669 9.51199 145.807 10.8582L148.051 7.78987C145.298 6.08844 142.119 5.19525 138.879 5.21311C132.347 5.21311 129.205 7.58879 129.205 10.9326C129.205 14.7829 133.851 15.967 138.722 16.317C142.395 16.5628 144.31 17.0618 144.31 18.2831C144.31 19.5045 142.231 20.1077 139.462 20.1077Z" fill="#D7D7D7"/>
<path d="M162.775 20.1077C158.757 20.1077 156.4 18.7002 155.959 15.6021H172.546C172.646 15.2362 172.687 14.8564 172.665 14.4775C172.665 8.37821 168.461 5.19077 162.191 5.19077C155.376 5.19077 151.298 8.75802 151.298 14.5073C151.298 20.2566 155.413 23.7941 162.52 23.7941C166.508 23.7941 169.613 22.8558 172.029 20.7333L169.433 17.8735C167.573 19.422 165.197 20.2193 162.775 20.1077ZM162.214 8.88462C165.288 8.88462 167.264 9.97938 168.019 12.4444L156.176 12.5115C156.872 10.0762 159.079 8.89207 162.214 8.89207V8.88462Z" fill="#D7D7D7"/>
<path d="M181.246 12.7647C181.82 11.6444 182.699 10.7074 183.783 10.0607C184.866 9.41413 186.111 9.08398 187.374 9.10804C190.262 9.10804 191.773 10.6422 191.773 13.4573V23.0866H196.636V13.1445C196.636 8.54205 193.965 5.26524 188.788 5.26524C185.459 5.26524 182.66 6.63554 181.246 8.92186V5.89081H176.384V23.0866H181.246V12.7647Z" fill="#D7D7D7"/>
<path d="M216.761 8.69844C215.865 7.57109 214.713 6.67189 213.399 6.07498C212.085 5.47806 210.648 5.20052 209.205 5.26524C203.706 5.26524 199.875 8.89207 199.875 14.5148C199.875 20.1375 203.728 23.7718 209.205 23.7718C210.648 23.835 212.086 23.556 213.399 22.9579C214.713 22.3597 215.865 21.4594 216.761 20.3311V23.0866H221.632V0H216.761V8.69844ZM216.761 16.8905C216.017 17.8268 215.058 18.5713 213.964 19.0612C212.87 19.5511 211.674 19.7721 210.477 19.7055C206.736 19.7055 204.574 17.8661 204.574 14.4924C204.574 11.1188 206.713 9.27933 210.477 9.27933C211.674 9.21277 212.87 9.43377 213.964 9.92369C215.058 10.4136 216.017 11.1581 216.761 12.0944V16.8905Z" fill="#D7D7D7"/>
<path d="M235.951 23.8313C242.767 23.8313 247.009 20.2641 247.009 14.5446C247.009 8.82505 242.767 5.21311 235.951 5.21311C229.135 5.21311 224.916 8.76547 224.916 14.5148C224.916 20.2641 229.106 23.8313 235.951 23.8313ZM235.951 9.19741C239.632 9.19741 242.333 10.9475 242.333 14.5446C242.333 18.1416 239.632 19.8917 235.951 19.8917C232.27 19.8917 229.607 18.1118 229.607 14.5446C229.607 10.9773 232.308 9.16762 235.951 9.16762V9.19741Z" fill="#D7D7D7"/>
<path d="M260.879 9.10804C263.767 9.10804 265.279 10.6422 265.279 13.4573V23.0866H270.149V13.1445C270.149 8.54205 267.478 5.26524 262.293 5.26524C258.964 5.26524 256.174 6.63554 254.76 8.92186V5.89081H249.889V23.0866H254.76V12.7647C255.333 11.6455 256.211 10.7093 257.293 10.0627C258.375 9.4162 259.618 9.08539 260.879 9.10804Z" fill="#D7D7D7"/>
<path d="M92.6507 42.3155C88.289 41.973 85.1692 41.7793 85.1692 39.9101C85.1692 37.9067 88.8127 37.378 91.7978 37.4078C95.3815 37.4078 98.3591 38.1897 100.776 40.0292L103.536 36.5588C100.723 34.4065 96.5785 33.2149 91.7455 33.2149C84.9598 33.2149 80.0594 35.7172 80.0594 40.2824C80.0594 44.9742 85.9024 46.3445 92.1869 46.8807C97.2444 47.3201 99.5038 47.8191 99.5038 49.6288C99.5038 51.4385 97.2593 52.2875 92.7704 52.2875C88.2815 52.2875 84.7877 51.1331 82.0869 48.6606L79.199 52.0715C82.5582 54.9164 87.0845 56.4803 92.6657 56.4803C100.454 56.4803 104.569 53.5014 104.569 49.1596C104.591 44.3486 99.6609 42.8741 92.6507 42.3155Z" fill="#D7D7D7"/>
<path d="M120.115 37.9067C118.676 37.8471 117.242 38.1278 115.933 38.7258C114.623 39.3239 113.475 40.2223 112.581 41.3474V38.5621H107.711V62.0434H112.581V52.9726C113.475 54.0977 114.623 54.9961 115.933 55.5942C117.242 56.1922 118.676 56.4729 120.115 56.4133C125.614 56.4133 129.445 52.7864 129.445 47.1637C129.445 41.541 125.614 37.9067 120.115 37.9067ZM118.896 52.3843C117.698 52.4508 116.502 52.2298 115.409 51.7399C114.315 51.25 113.355 50.5055 112.611 49.5692V44.7508C113.355 43.8145 114.315 43.07 115.409 42.5801C116.502 42.0902 117.698 41.8692 118.896 41.9357C122.637 41.9357 124.799 43.7827 124.799 47.1488C124.799 50.515 122.659 52.3843 118.896 52.3843Z" fill="#D7D7D7"/>
<path d="M143.061 37.9067C136.215 37.9067 132.003 41.4368 132.003 47.1935C132.003 52.9503 136.215 56.4803 143.061 56.4803C149.907 56.4803 154.119 52.913 154.119 47.1935C154.119 41.474 149.877 37.9067 143.061 37.9067ZM143.061 52.5407C139.418 52.5407 136.717 50.7533 136.717 47.1935C136.717 43.6337 139.418 41.8464 143.061 41.8464C146.704 41.8464 149.435 43.5965 149.435 47.1935C149.435 50.7906 146.734 52.5407 143.061 52.5407Z" fill="#D7D7D7"/>
<path d="M161.727 42.1294V38.5621H156.834V55.7877H161.705V46.8509C162.737 43.8124 165.655 42.3826 169.426 42.3826V38.1897C166.119 38.1897 163.134 39.5302 161.727 42.1294Z" fill="#D7D7D7"/>
<path d="M183.162 52.4141C181.434 52.4141 180.117 51.5055 180.117 49.7554V42.1889H187.247V38.5621H180.117V34.5629H175.246V38.5621H172.044V42.1889H175.246V50.5969C175.246 54.477 178.074 56.4431 181.718 56.4431C183.732 56.4397 185.704 55.8663 187.404 54.7898L186.401 51.5055C185.405 52.0493 184.297 52.3601 183.162 52.4141Z" fill="#D7D7D7"/>
<path d="M199.845 45.004C196.576 44.8178 194.219 44.5944 194.219 43.2837C194.219 41.973 197.077 41.5634 199.09 41.5634C201.618 41.4788 204.112 42.1535 206.25 43.4997L208.494 40.4388C205.751 38.7494 202.585 37.8616 199.359 37.8769C192.82 37.8769 189.686 40.2526 189.686 43.5965C189.686 47.4393 194.332 48.6308 199.202 48.9734C202.875 49.2266 204.791 49.7181 204.791 50.947C204.791 52.1758 202.688 52.7864 199.92 52.7864C196.18 52.7864 193.187 51.7215 191.376 50.1948L189.005 53.0694C191.332 55.0355 195.289 56.4803 199.778 56.4803C206.092 56.4803 209.265 53.911 209.265 50.5969C209.265 46.918 205.277 45.3168 199.845 45.004Z" fill="#D7D7D7"/>
<path d="M237.23 45.4732L227.931 33.9001H222.469V55.7877H227.332V40.5654L236.976 52.2875H237.23L246.874 40.5654V55.7877H251.894V33.9001H246.522L237.23 45.4732Z" fill="#D7D7D7"/>
<path d="M266.326 37.8769C259.51 37.8769 255.433 41.4368 255.433 47.1935C255.433 52.9503 259.548 56.4803 266.655 56.4803C270.65 56.4803 273.755 55.5419 276.172 53.412L273.568 50.5671C271.708 52.1157 269.332 52.913 266.91 52.8013C262.892 52.8013 260.535 51.3938 260.094 48.333H276.68C276.781 47.9669 276.821 47.5872 276.8 47.2084C276.815 41.0644 272.61 37.8769 266.326 37.8769ZM260.341 45.1902C261.037 42.7549 263.206 41.5634 266.371 41.5634C269.536 41.5634 271.428 42.6581 272.184 45.1306L260.341 45.1902Z" fill="#D7D7D7"/>
<path d="M296.162 41.3772C295.267 40.2519 294.117 39.3536 292.806 38.7556C291.496 38.1576 290.061 37.8769 288.621 37.9365C283.122 37.9365 279.291 41.5634 279.291 47.1935C279.291 52.8237 283.122 56.4431 288.621 56.4431C290.061 56.5042 291.495 56.2249 292.806 55.6282C294.117 55.0315 295.267 54.1342 296.162 53.0099V55.7877H301.025V32.6564H296.162V41.3772ZM296.125 49.5692C295.381 50.5044 294.423 51.2483 293.331 51.7382C292.238 52.228 291.044 52.4496 289.848 52.3843C286.107 52.3843 283.945 50.5373 283.945 47.1712C283.945 43.805 286.077 41.9581 289.848 41.9581C291.043 41.8918 292.237 42.1123 293.33 42.6008C294.422 43.0894 295.381 43.8318 296.125 44.7657V49.5692Z" fill="#D7D7D7"/>
<path d="M308.02 31.5914C306.292 31.5914 305.065 32.5894 305.065 34.0639C305.065 35.5385 306.292 36.4917 308.02 36.4917C309.748 36.4917 310.908 35.4566 310.908 34.0565C310.908 32.6564 309.711 31.5914 308.02 31.5914Z" fill="#D7D7D7"/>
<path d="M310.497 38.5621H305.626V55.7877H310.497V38.5621Z" fill="#D7D7D7"/>
<path d="M324.936 52.5705C321.322 52.5705 318.659 50.7533 318.659 47.1935C318.659 43.6337 321.322 41.7793 324.936 41.7793C327.135 41.7793 329.051 42.4719 330.061 44.3784L334.55 42.6283C333.106 39.9994 329.836 37.8769 324.906 37.8769C318.12 37.8769 313.946 41.4665 313.946 47.1935C313.946 52.9205 318.12 56.4803 324.906 56.4803C329.896 56.4803 333.195 54.3504 334.632 51.6619L330.143 49.882C329.111 51.8481 327.135 52.5705 324.936 52.5705Z" fill="#D7D7D7"/>
<path d="M342.854 38.5621H337.984V55.7877H342.854V38.5621Z" fill="#D7D7D7"/>
<path d="M340.37 31.5914C338.642 31.5914 337.423 32.5894 337.423 34.0639C337.423 35.5385 338.635 36.4917 340.37 36.4917C342.106 36.4917 343.258 35.4566 343.258 34.0565C343.258 32.6564 342.069 31.5914 340.37 31.5914Z" fill="#D7D7D7"/>
<path d="M359.381 37.9365C356.051 37.9365 353.253 39.3143 351.839 41.5931V38.5621H346.969V55.7877H351.839V45.4285C352.412 44.3068 353.291 43.3683 354.374 42.7203C355.458 42.0723 356.703 41.7411 357.967 41.7644C360.855 41.7644 362.358 43.2986 362.358 46.1137V55.7951H367.229V45.8158C367.229 41.2208 364.558 37.9365 359.381 37.9365Z" fill="#D7D7D7"/>
<path d="M391.454 47.1637C391.454 41.0644 387.242 37.8769 380.98 37.8769C374.164 37.8769 370.079 41.4368 370.079 47.1935C370.079 52.9503 374.194 56.4803 381.301 56.4803C385.289 56.4803 388.401 55.5419 390.818 53.412L388.214 50.5671C386.352 52.1118 383.977 52.9086 381.556 52.8013C377.531 52.8013 375.174 51.3938 374.74 48.333H391.319C391.434 47.9545 391.48 47.5584 391.454 47.1637ZM374.995 45.1902C375.683 42.7549 377.852 41.5634 381.025 41.5634C384.197 41.5634 386.082 42.6581 386.838 45.1306L374.995 45.1902Z" fill="#D7D7D7"/>
<path d="M12.8906 1.48946C11.9449 4.44189 10.304 7.12656 8.10462 9.31974C5.90527 11.5129 3.21119 13.1511 0.246889 14.0977L0 14.1499V22.1929L0.471334 22.1259C5.4596 20.9634 10.0216 18.4349 13.6416 14.8262C17.2616 11.2175 19.7951 6.67259 20.9556 1.70543L21.0529 1.26604H12.9729L12.8906 1.48946Z" fill="#D7D7D7"/>
<path d="M41.8514 1.48946L41.7691 1.26604H33.6891L33.7864 1.70543C34.9522 6.68112 37.4958 11.2319 41.1284 14.8414C44.7611 18.4509 49.3374 20.9745 54.338 22.1259L54.772 22.2227V14.1499L54.5251 14.0679C51.5585 13.1283 48.8606 11.4965 46.656 9.30846C44.4515 7.12046 42.8042 4.43965 41.8514 1.48946Z" fill="#D7D7D7"/>
<path d="M0.471334 34.9055L0.0374075 34.8012V42.8517L0.284297 42.9262C3.24613 43.8707 5.93861 45.5054 8.13777 47.6946C10.3369 49.8837 11.9792 52.5638 12.928 55.5121L13.0103 55.7654H21.0903L20.993 55.326C19.8304 50.3537 17.2916 45.8051 13.6644 42.1958C10.0373 38.5866 5.46686 36.061 0.471334 34.9055Z" fill="#D7D7D7"/>
<path d="M33.7864 55.326L33.6891 55.7654H41.7691L41.8514 55.5121C42.8002 52.5638 44.4425 49.8837 46.6417 47.6946C48.8408 45.5054 51.5333 43.8707 54.4951 42.9262L54.742 42.8517V34.8012L54.3081 34.9055C49.3126 36.061 44.7422 38.5866 41.115 42.1958C37.4879 45.8051 34.9491 50.3537 33.7864 55.326Z" fill="#D7D7D7"/>
</svg>
