<svg width="179" height="93" viewBox="0 0 179 93" fill="none" xmlns="http://www.w3.org/2000/svg">
<path d="M56.28 39.75H56.19L53.56 56.59H58.83L57.95 51.8L56.28 39.75Z" fill="#D7D7D7"/>
<path d="M34.49 37.07H33.79V48.01C37.09 48.23 38.23 46.12 38.23 42.78C38.23 39.62 37.83 36.98 34.49 37.07Z" fill="#D7D7D7"/>
<path d="M137.38 66.47H141.77V52.19L147.92 33.34H143.22L140.41 44.41L139.71 48.68H139.62L135.58 33.34H130.83L137.38 52.19V66.47Z" fill="#D7D7D7"/>
<path d="M178.99 88.34V4.71L111.82 18.21L0 0V93L111.82 81.13L179 88.34H178.99ZM24.51 37.16H17V47.58H23.77V51.4H17V66.47H12.6V33.34H24.51V37.16ZM39.85 66.47L33.88 50.25H33.79V66.47H29.39V33.34H34.66C37.87 33.34 42.88 33.52 42.88 41.82C42.88 44.94 41.96 49.69 38.31 50.35L44.42 66.48H39.85V66.47ZM60.72 66.47L59.49 60.01H52.9L51.67 66.47H47.36L54.57 33.33H58.04L65.16 66.47H60.72ZM85.63 66.47H81.54L73.81 40.94L73.72 41.03L73.98 43.18L74.64 54.3V66.47H70.24V33.34H74.46L82.19 58.53L82.28 58.44L81.23 45.16V33.34H85.62V66.48L85.63 66.47ZM104.74 66.47L98.54 49.68V66.47H94.06V33.34H98.54V49.25L104.74 33.34H109.26L102.76 49.38L109.79 66.47H104.74ZM176.98 86.11L113.81 79.33V19.84L176.99 7.14V86.11H176.98Z" fill="#D7D7D7"/>
<path d="M157.68 54.3L157.02 43.18L156.76 41.03L156.84 40.94L164.58 66.48H168.66V33.34H164.27V45.16L165.32 58.44L165.24 58.52L157.5 33.34H153.29V66.47H157.68V54.3Z" fill="#D7D7D7"/>
<path d="M129.78 62.65H122.4V33.34H118V66.48H129.78V62.65Z" fill="#D7D7D7"/>
</svg>
