<svg width="246" height="88" viewBox="0 0 246 88" fill="none" xmlns="http://www.w3.org/2000/svg">
<path d="M74.8785 56.1099V30.9738H78.6456V41.2523H96.4771V30.9738H100.245V56.1099H96.4771V44.7114H78.6456V56.1099H74.8785Z" fill="#D7D7D7"/>
<path d="M103.181 56.1097L115.535 30.9736H119.565L132.139 56.1097H127.977L125.087 49.9235H109.796L106.904 56.1097H103.181ZM111.373 46.708H123.554L117.463 33.8485L111.373 46.708Z" fill="#D7D7D7"/>
<path d="M135.074 56.1097V30.9736H138.842V52.6021H155.972V56.1097H135.074Z" fill="#D7D7D7"/>
<path d="M165.874 34.3836V56.1097H162.106V34.3836H151.767V30.973H176.257V34.3836H165.874Z" fill="#D7D7D7"/>
<path d="M180.42 56.1097V30.9736H202.192V34.3357H184.186V41.3497H195.183V44.6621H184.186V52.6506H202.368V56.1097H180.42Z" fill="#D7D7D7"/>
<path d="M226.113 34.3351H210.43V52.6021H226.113V46.3184L229.882 47.1947V50.1665C229.882 52.5045 229.517 54.08 228.787 54.8916C228.057 55.7027 226.667 56.1085 224.624 56.1085H211.963C209.918 56.1085 208.524 55.694 207.779 54.8662C207.034 54.0384 206.662 52.4722 206.662 50.166V36.9167C206.662 34.6099 207.034 33.0426 207.779 32.2147C208.524 31.3869 209.918 30.9724 211.963 30.9724H224.624C226.667 30.9724 228.057 31.3736 228.787 32.1738C229.517 32.9733 229.882 34.5377 229.882 36.8682V39.2542L226.113 40.0335V34.3351Z" fill="#D7D7D7"/>
<path d="M234.452 0V60.0289H69.57V0H0.00230754V38.2404C0.312672 38.1891 0.679571 38.1394 1.12435 38.0932C1.12435 38.0932 10.4284 37.7209 17.4998 36.4641C25.3928 35.0613 25.9333 31.0221 25.9333 31.0221V28.1437C25.9333 28.1437 33.5038 29.1546 33.4911 32.6206C33.4795 35.8765 28.2437 38.4817 19.1278 39.8626C11.202 41.0628 0.891288 39.6761 0.891288 39.6761C0.891288 39.6761 0.474776 39.5936 0.00173066 39.4625V50.6538C0.312095 50.6024 0.678994 50.5527 1.12377 50.5066C1.12377 50.5066 10.4278 50.1348 17.4992 48.8775C25.3922 47.4752 25.9327 43.4366 25.9327 43.4366V40.5582C25.9327 40.5582 33.5032 41.5696 33.4905 45.0351C33.479 48.2904 28.2431 50.8968 19.1272 52.2765C11.2014 53.4761 0.890711 52.0906 0.890711 52.0906C0.890711 52.0906 0.4742 52.0081 0.00115377 51.877V63.0688C0.311518 63.0175 0.678417 62.9678 1.1232 62.9216C1.1232 62.9216 10.4272 62.5493 17.4987 61.2925C25.3916 59.8903 25.9321 55.8511 25.9321 55.8511V52.9721C25.9321 52.9721 33.5026 53.9841 33.4899 57.4496C33.4784 60.7054 28.2426 63.3096 19.1266 64.691C11.2008 65.8906 0.890134 64.5051 0.890134 64.5051C0.890134 64.5051 0.473623 64.4226 0.000576885 64.2915V75.4833C0.310941 75.4319 0.67784 75.3823 1.12262 75.3361C1.12262 75.3361 10.4266 74.9638 17.4981 73.707C25.391 72.3048 25.9316 68.2655 25.9316 68.2655V65.3884C25.9316 65.3884 33.502 66.3975 33.4893 69.8646C33.4778 73.1199 28.242 75.7241 19.1261 77.1061C11.2002 78.3057 0.889557 76.9202 0.889557 76.9202C0.889557 76.9202 0.473046 76.8376 0 76.7066V88.0017H1.10704C1.11223 88.0017 1.11685 88.0006 1.12204 88C1.12204 88 10.426 87.6282 17.4975 86.3709C25.3904 84.9687 25.931 80.9294 25.931 80.9294V78.0505C25.931 78.0505 33.5015 79.0631 33.4888 82.5268C33.4807 84.6997 31.1374 86.5793 26.8794 88.0017H69.5677V71.4216H234.45V88.0017H245.999V0H234.45H234.452Z" fill="#D7D7D7"/>
<path d="M76.7038 78.2716H74.5532V76.8371H80.4091V78.2716H78.2585V83.9099H76.7038V78.2716Z" fill="#D7D7D7"/>
<path d="M83.5289 81.1211L80.813 76.8371H82.6301L84.3164 79.6761L86.0326 76.8371H87.7996L85.0836 81.0911V83.9099H83.5289V81.1211Z" fill="#D7D7D7"/>
<path d="M88.7076 76.8371H91.9388C92.8376 76.8371 93.5339 77.0899 93.9982 77.5546C94.3923 77.9489 94.604 78.5048 94.604 79.171V79.1912C94.604 80.3331 93.9879 81.0507 93.0897 81.3838L94.8163 83.9099H92.9991L91.4848 81.6464H90.2629V83.9099H88.7082L88.7076 76.8371ZM91.8372 80.2725C92.5947 80.2725 93.0285 79.8684 93.0285 79.2726V79.2524C93.0285 78.5857 92.5641 78.2422 91.8067 78.2422H90.2618V80.273L91.8372 80.2725Z" fill="#D7D7D7"/>
<path d="M95.9458 76.8371H101.277V78.2214H97.4907V79.6559H100.822V81.0397H97.4907V82.5245H101.328V83.9088H95.9458V76.8359V76.8371Z" fill="#D7D7D7"/>
<path d="M105.617 76.8371H110.948V78.2214H107.162V79.6559H110.494V81.0397H107.162V82.5245H110.999V83.9088H105.617V76.8359V76.8371Z" fill="#D7D7D7"/>
<path d="M118.631 84.1218L117.853 83.4244C117.258 83.8089 116.541 84.0312 115.753 84.0312C113.572 84.0312 112.007 82.4044 112.007 80.3937V80.3735C112.007 78.3634 113.592 76.7158 115.773 76.7158C117.953 76.7158 119.518 78.3426 119.518 80.3533V80.3735C119.518 81.1211 119.287 81.8184 118.893 82.4044L119.62 83.0209L118.631 84.1218ZM116.702 82.4044L115.551 81.4247L116.541 80.3135L117.702 81.3635C117.824 81.0812 117.894 80.7476 117.894 80.3937V80.3735C117.894 79.1606 117.006 78.1504 115.754 78.1504C114.502 78.1504 113.633 79.141 113.633 80.3527V80.3729C113.633 81.5858 114.522 82.596 115.773 82.596C116.117 82.596 116.43 82.536 116.702 82.4044Z" fill="#D7D7D7"/>
<path d="M120.731 80.8786V76.8371H122.285V80.8382C122.285 81.9905 122.86 82.5862 123.81 82.5862C124.759 82.5862 125.335 82.0101 125.335 80.889V76.8371H126.889V80.8284C126.889 82.9701 125.688 84.0208 123.79 84.0208C121.892 84.0208 120.731 82.9597 120.731 80.8786Z" fill="#D7D7D7"/>
<path d="M128.483 76.8371H130.038V83.9099H128.483V76.8371Z" fill="#D7D7D7"/>
<path d="M131.744 76.8371H134.632C136.319 76.8371 137.338 77.8375 137.338 79.2824V79.3021C137.338 80.9392 136.066 81.7878 134.481 81.7878H133.299V83.9099H131.744V76.8371ZM134.531 80.4041C135.309 80.4041 135.763 79.9388 135.763 79.3332V79.313C135.763 78.6162 135.278 78.2427 134.501 78.2427H133.299V80.4047L134.531 80.4041Z" fill="#D7D7D7"/>
<path d="M138.428 76.8371H140.103L141.962 79.828L143.819 76.8371H145.495V83.9099H143.95V79.2923L141.962 82.3132H141.921L139.952 79.3223V83.9094H138.428V76.8371Z" fill="#D7D7D7"/>
<path d="M147.13 76.8371H152.461V78.2214H148.675V79.6559H152.006V81.0397H148.675V82.5245H152.512V83.9088H147.13V76.8359V76.8371Z" fill="#D7D7D7"/>
<path d="M153.833 76.8371H155.267L158.578 81.1921V76.8371H160.113V83.9099H158.791L155.367 79.4141V83.9099H153.833L153.833 76.8371Z" fill="#D7D7D7"/>
<path d="M163.393 78.2716H161.243V76.8371H167.098V78.2716H164.948V83.9099H163.393L163.393 78.2716Z" fill="#D7D7D7"/>
<path d="M173.621 76.7868H175.054L178.083 83.9099H176.458L175.812 82.3236H172.823L172.177 83.9099H170.591L173.621 76.7868ZM175.255 80.9496L174.317 78.6555L173.378 80.9496H175.255Z" fill="#D7D7D7"/>
<path d="M178.748 80.8786V76.8371H180.303V80.8382C180.303 81.9905 180.878 82.5862 181.828 82.5862C182.777 82.5862 183.353 82.0101 183.353 80.889V76.8371H184.907V80.8284C184.907 82.9701 183.706 84.0208 181.808 84.0208C179.91 84.0208 178.748 82.9597 178.748 80.8786Z" fill="#D7D7D7"/>
<path d="M185.946 82.8795L186.865 81.778C187.502 82.3034 188.168 82.637 188.975 82.637C189.612 82.637 189.995 82.3842 189.995 81.9703V81.9501C189.995 81.5558 189.753 81.3543 188.572 81.0507C187.148 80.687 186.229 80.2933 186.229 78.8887V78.8685C186.229 77.5852 187.259 76.7366 188.703 76.7366C189.732 76.7366 190.611 77.0605 191.328 77.636L190.52 78.8079C189.894 78.3738 189.279 78.1111 188.682 78.1111C188.086 78.1111 187.774 78.3836 187.774 78.7271V78.7473C187.774 79.212 188.077 79.3633 189.299 79.6761C190.732 80.0502 191.54 80.5657 191.54 81.7982V81.8184C191.54 83.223 190.47 84.011 188.945 84.011C187.876 84.011 186.794 83.6375 185.946 82.8795Z" fill="#D7D7D7"/>
<path d="M194.326 78.2716H192.175V76.8371H198.031V78.2716H195.88V83.9099H194.326L194.326 78.2716Z" fill="#D7D7D7"/>
<path d="M199.162 76.8371H202.393C203.291 76.8371 203.988 77.0899 204.452 77.5546C204.846 77.9489 205.058 78.5048 205.058 79.171V79.1912C205.058 80.3331 204.442 81.0507 203.544 81.3838L205.27 83.9099H203.453L201.939 81.6464H200.717V83.9099H199.162L199.162 76.8371ZM202.292 80.2725C203.049 80.2725 203.483 79.8684 203.483 79.2726V79.2524C203.483 78.5857 203.018 78.2422 202.261 78.2422H200.716V80.273L202.292 80.2725Z" fill="#D7D7D7"/>
<path d="M208.823 76.7868H210.257L213.285 83.9099H211.66L211.014 82.3236H208.025L207.379 83.9099H205.794L208.823 76.7868ZM210.459 80.9496L209.52 78.6555L208.581 80.9496H210.459Z" fill="#D7D7D7"/>
<path d="M214.315 76.8371H215.869V82.4956H219.392V83.9099H214.314L214.315 76.8371Z" fill="#D7D7D7"/>
<path d="M220.574 76.8371H222.128V83.9099H220.574V76.8371Z" fill="#D7D7D7"/>
<path d="M226.258 76.7868H227.691L230.721 83.9099H229.095L228.449 82.3236H225.46L224.814 83.9099H223.229L226.258 76.7868ZM227.894 80.9496L226.955 78.6555L226.016 80.9496H227.894Z" fill="#D7D7D7"/>
</svg>
