<svg width="464" height="95" viewBox="0 0 464 95" fill="none" xmlns="http://www.w3.org/2000/svg">
<path d="M34.4345 33.3167L12.4904 55.2833L13.6748 56.4695L35.61 34.5112L34.4345 33.3167ZM31.3944 30.2299L9.42947 52.2186L10.6139 53.4048L32.5719 31.425L31.3957 30.2305L31.3944 30.2299ZM89.3871 45.4824C97.7911 37.0667 97.7892 23.3759 89.3839 14.9621C85.336 10.9088 79.9208 8.67625 74.1375 8.67625C68.6324 8.67625 63.4767 10.7194 59.5003 14.4105L60.6859 15.5973C64.3428 12.2217 69.0791 10.3527 74.1375 10.3527C79.4735 10.3527 84.466 12.4104 88.1964 16.1471C91.9463 19.8996 94.0114 24.8978 94.0133 30.2216C94.0133 35.5435 91.9482 40.5424 88.1995 44.2975L74.5588 57.9521H74.5575L68.84 63.6762H68.8381L65.6025 66.9157L66.7882 68.1026L89.3871 45.4824ZM49.464 51.2939L50.9476 49.8087L49.7601 48.6257L27.8001 70.6099L28.982 71.793L49.4621 51.292L49.464 51.2939ZM55.4846 89.8189L34.4136 68.7289L33.2286 69.9152L55.2265 91.9342L56.4096 90.7486L55.4833 89.8189H55.4846ZM55.5687 83.7744L37.4752 65.6642L36.2902 66.8505L58.288 88.8702L59.4724 87.6839L55.5662 83.7756H55.5681L55.5687 83.7744ZM23.7877 58.6064L41.7452 40.6305L40.5576 39.4461L19.5411 60.4836H19.543L18.6148 61.412L19.7979 62.5989L23.7877 58.6051V58.6064ZM37.4897 36.3878L15.5513 58.348L16.7376 59.5348L38.6773 37.5708L37.4897 36.3878ZM46.6922 45.566L24.7386 67.5459L25.923 68.7315L47.8797 46.7497L46.6922 45.566ZM43.6262 42.5064L22.7437 63.4102L22.0832 64.0739L23.2663 65.2589L44.8124 43.6895L43.6262 42.5064ZM77.1433 33.2224C78.7934 31.5687 78.7902 28.8764 77.137 27.2222C76.3828 26.4672 75.2902 26.034 74.1393 26.0334C73.2821 26.0334 72.4596 26.2741 71.7845 26.7066L73.0201 27.9435C73.3592 27.7909 73.7382 27.701 74.1381 27.701H74.14C74.8467 27.7016 75.5059 27.9587 75.9501 28.4071C76.4366 28.8916 76.7043 29.5376 76.7043 30.2254C76.7062 30.9107 76.4404 31.5542 75.9564 32.0374L72.4545 35.5429V35.5442L60.2051 47.8023L60.2063 47.8036L53.3575 54.6569L54.5432 55.8438L77.1433 33.2224ZM1.66199 30.2229C1.66199 22.5817 4.62612 15.4061 10.0096 10.0177C15.39 4.62989 22.5577 1.66145 30.1904 1.66145C37.8232 1.66145 44.9928 4.62925 50.3744 10.0177L70.2793 29.943H70.2781L72.9094 32.5738L74.0938 31.3889L72.4399 29.7333L72.4374 29.7352L51.5177 8.79405C45.8368 3.12952 38.2667 0.00845324 30.1904 0.00845324C22.1142 0.00845324 14.508 3.14219 8.82209 8.83269C-2.76239 20.4303 -2.92879 39.1624 8.26849 50.9988L9.45288 49.8132C4.43695 44.4976 1.66199 37.5848 1.66199 30.2229ZM128.764 25.6445H147.163V40.5602H150.125V8.09739H147.163V22.9814H128.764V8.09739H125.804V40.5595H128.764V25.6445ZM92.4474 48.5478C102.539 38.4442 102.539 22.0022 92.4455 11.898C87.5782 7.02579 81.0774 4.34299 74.1375 4.34299C67.4765 4.34299 61.2351 6.83832 56.4387 11.347L57.6231 12.5333C62.1019 8.34059 67.9245 6.01942 74.1375 6.01942C80.6288 6.01942 86.7096 8.52805 91.2598 13.0836C95.8266 17.655 98.3421 23.742 98.3421 30.2235C98.3421 36.7051 95.8266 42.7927 91.2617 47.3641L68.6653 69.9829L69.8497 71.1685L72.2603 68.7555H72.2622L73.2112 67.8024V67.8049L92.4474 48.549V48.5478ZM54.5337 50.9658L55.7193 49.7796L33.1849 27.2215C32.4339 26.4685 31.3426 26.0359 30.1917 26.0353C29.0396 26.0353 27.9463 26.4679 27.1928 27.2234C25.7389 28.6788 25.5642 30.936 26.6657 32.584L27.8969 31.3509C27.4294 30.3926 27.5825 29.2032 28.3784 28.4071C28.8238 27.9594 29.485 27.7029 30.1898 27.7029H30.1917C30.8971 27.7035 31.5545 27.9594 31.9987 28.4065L32.4377 28.8524L32.5219 28.936L33.357 29.7859L36.9849 33.4668L54.5337 50.9658ZM210.335 24.8364C210.335 23.6318 210.619 22.5589 211.19 21.6184C211.759 20.6786 212.538 19.9414 213.526 19.4075C214.513 18.8742 215.639 18.6076 216.906 18.6076C217.276 18.6076 217.619 18.6285 217.936 18.6709C218.252 18.7133 218.473 18.7444 218.601 18.7659V15.8969C218.41 15.8868 218.174 15.876 217.888 15.8652C217.603 15.8551 217.343 15.8494 217.112 15.8494C215.581 15.8494 214.211 16.2275 213.003 16.9824C211.794 17.7374 210.946 18.7285 210.461 19.954H210.255V16.2129H207.517V40.5602H210.335V24.8364ZM357.306 12.0291C357.876 12.0291 358.369 11.8309 358.786 11.4344C359.204 11.0386 359.412 10.5604 359.412 10.0006C359.412 9.44069 359.207 8.96189 358.794 8.56605C358.383 8.16959 357.887 7.97135 357.306 7.97135C356.736 7.97135 356.242 8.16959 355.826 8.56605C355.408 8.96189 355.2 9.44005 355.2 10.0006C355.2 10.5611 355.405 11.0386 355.818 11.4344C356.229 11.8309 356.725 12.0291 357.306 12.0291ZM30.1904 23.355C32.0543 23.355 33.7847 24.0599 35.0609 25.3399L57.5965 47.8992L58.7822 46.713L36.2478 24.1549C34.6496 22.5583 32.4991 21.6792 30.1898 21.6792C27.8805 21.6792 25.7268 22.5596 24.1306 24.1575C20.9886 27.3032 20.8393 32.2825 23.6042 35.6474L24.7892 34.4612C22.6703 31.7549 22.8272 27.8333 25.3169 25.3418C26.5961 24.0606 28.3265 23.355 30.1904 23.355ZM86.3255 42.4177C93.0396 35.693 93.0383 24.7509 86.3224 18.0274C83.0912 14.7924 78.7643 13.0108 74.1375 13.0108C69.7896 13.0108 65.7189 14.6011 62.5625 17.4764L63.7468 18.6627C66.5857 16.1034 70.2376 14.6872 74.1375 14.6872C78.3163 14.6872 82.2238 16.2946 85.1361 19.213C91.2004 25.2842 91.2016 35.1623 85.1392 41.2334L84.4161 41.9573V41.956L62.5422 63.8529L63.7266 65.0385L86.3255 42.4177ZM355.866 40.5595H358.699V16.2129H355.866V40.5595ZM61.6919 83.775L55.5668 77.6463H55.5687L40.5361 62.6014L39.3524 63.7864L61.3502 85.8061L62.5333 84.6199L61.6906 83.7763H61.6919V83.775ZM80.203 36.2877C83.5411 32.945 83.5398 27.5027 80.1986 24.1575C78.6017 22.5596 76.4499 21.6792 74.1375 21.6792C72.111 21.6792 70.2306 22.3911 68.7153 23.6356L69.9004 24.8212C71.0936 23.8877 72.5595 23.355 74.1375 23.355C76.0013 23.355 77.7336 24.0612 79.0123 25.3418C81.6999 28.0322 81.7031 32.4111 79.0167 35.1027L56.4184 57.7229L57.6022 58.9078L80.203 36.2877ZM64.0271 58.6076L83.2646 39.3524C88.2906 34.3155 88.2875 26.124 83.2602 21.0921C80.8452 18.6753 77.6052 17.3441 74.1375 17.3441C70.9487 17.3441 67.9618 18.4809 65.624 20.5405L66.809 21.7274C68.8279 19.9819 71.3954 19.0199 74.1368 19.0199C77.1592 19.0199 79.9778 20.1763 82.072 22.2765C86.4495 26.656 86.4527 33.7841 82.0764 38.1674L81.3526 38.892L80.806 39.4373H80.8079L68.84 51.4168H68.8387L62.1702 58.094V58.0927L59.4781 60.7869L60.6638 61.9738L64.0259 58.6083L64.0271 58.6076ZM15.5748 43.685C12.1886 40.006 10.3146 35.2661 10.3146 30.2223C10.3165 24.8978 12.3829 19.8989 16.1328 16.1477C19.8618 12.411 24.8544 10.3533 30.1904 10.3533C35.5265 10.3533 40.519 12.411 44.2494 16.1477L66.7837 38.7051L67.9681 37.5189L61.6065 31.1501H61.6077L55.5668 25.1068H55.5687L45.4356 14.9634C41.3896 10.91 35.9757 8.67752 30.1911 8.67752C24.4064 8.67752 18.9925 10.91 14.9465 14.9634C6.73739 23.1802 6.5672 36.4175 14.391 44.8713L15.5748 43.685ZM13.0693 13.0824C17.6177 8.52679 23.6984 6.01815 30.1898 6.01815C36.6812 6.01815 42.7619 8.52679 47.3103 13.0824L69.8453 35.6398L71.031 34.4536L48.4985 11.8974C43.6312 7.02515 37.1304 4.34235 30.1904 4.34235C23.2505 4.34235 16.7497 7.02515 11.8837 11.8974C1.98719 21.8053 1.81952 37.79 11.3294 47.9347L12.5132 46.7497C8.31215 42.2505 5.98639 36.4245 5.98766 30.2223C5.98766 23.7414 8.50259 17.6538 13.0693 13.0824ZM18.637 40.6197C13.1522 34.5137 13.3262 25.0866 19.1931 19.2124C22.1053 16.294 26.0109 14.6866 30.1898 14.6866C34.3687 14.6866 38.273 16.294 41.1853 19.2111L63.7209 41.7692L64.9053 40.5836L42.3722 18.0268C39.141 14.7917 34.8141 13.0108 30.1892 13.0108C25.5642 13.0108 21.2373 14.7924 18.0062 18.0274C11.4851 24.5546 11.313 35.0451 17.4507 41.8059L18.6357 40.6197H18.637ZM21.6979 37.5556C19.9384 35.5182 18.9704 32.9481 18.9704 30.2216C18.9716 27.2171 20.1377 24.3956 22.2566 22.2777C24.3507 20.1776 27.1681 19.0211 30.1904 19.0211C33.2128 19.0211 36.027 20.1776 38.1243 22.2765L60.66 44.8352L61.3743 44.1201L61.8431 43.6496L55.4827 37.2814H55.4846L39.31 21.0921C36.8969 18.676 33.6582 17.346 30.1904 17.346C26.7227 17.346 23.484 18.6766 21.069 21.094C16.2359 25.9308 16.06 33.6765 20.5135 38.7431L21.6979 37.5575V37.5556ZM30.1677 72.9792L52.1649 95.0002L53.3493 93.814L31.3527 71.7936L30.1677 72.9792ZM295.505 39.4816C297.009 38.4252 298.182 36.9508 299.02 35.059C299.86 33.1679 300.279 30.9645 300.279 28.4496C300.279 25.9346 299.86 23.7496 299.02 21.8635C298.182 19.9775 297.009 18.5088 295.505 17.4568C294 16.4055 292.246 15.8798 290.24 15.8798C288.752 15.8798 287.518 16.1439 286.543 16.6727C285.566 17.2009 284.782 17.8482 284.191 18.6145C283.6 19.3809 283.136 20.1282 282.798 20.8572H282.465V16.2129H279.727V49.6897H282.545V36.0426H282.798C283.125 36.7823 283.593 37.5404 284.199 38.3169C284.806 39.094 285.603 39.7463 286.59 40.2745C287.577 40.8027 288.805 41.0675 290.273 41.0675C292.257 41.0675 294.001 40.5386 295.505 39.4816ZM285.925 37.1908C284.822 36.3295 283.978 35.1407 283.392 33.6245C282.806 32.1077 282.513 30.3673 282.513 28.4014C282.513 26.4577 282.801 24.7376 283.376 23.2423C283.951 21.747 284.793 20.5741 285.902 19.7235C287.01 18.8736 288.355 18.448 289.94 18.448C291.565 18.448 292.937 18.8894 294.057 19.7716C295.175 20.6545 296.022 21.8458 296.598 23.3462C297.174 24.8465 297.461 26.5325 297.461 28.4021C297.461 30.2945 297.169 32.0007 296.582 33.5219C295.996 35.0432 295.147 36.251 294.033 37.144C292.919 38.037 291.555 38.4835 289.94 38.4835C288.367 38.4835 287.027 38.0522 285.925 37.1908ZM365.956 64.2665C365.091 63.6686 364.154 63.2493 363.146 63.0055C362.137 62.7629 361.169 62.642 360.241 62.642C359.006 62.642 357.786 62.8187 356.583 63.1727C355.379 63.5267 354.292 64.1024 353.321 64.9004C352.35 65.6978 351.589 66.7618 351.041 68.0937L353.716 69.0608C354.159 68.0139 354.933 67.1057 356.036 66.3343C357.139 65.5629 358.567 65.1772 360.32 65.1772C362.167 65.1772 363.584 65.6547 364.571 66.6111C365.558 67.5674 366.051 68.8759 366.051 70.5339V71.1052C366.051 71.7183 365.803 72.1616 365.307 72.4371C364.811 72.7113 364.091 72.9121 363.146 73.0387C362.201 73.1654 361.047 73.3143 359.686 73.4827C358.314 73.6518 357.058 73.89 355.918 74.1965C354.777 74.5024 353.79 74.9198 352.957 75.4486C352.123 75.9762 351.479 76.6526 351.025 77.4772C350.571 78.3011 350.344 79.3151 350.344 80.5203C350.344 82.084 350.702 83.4128 351.422 84.5072C352.139 85.6003 353.105 86.4357 354.319 87.0114C355.533 87.5864 356.873 87.8746 358.341 87.8746C359.693 87.8746 360.869 87.6586 361.872 87.2248C362.875 86.7922 363.71 86.2368 364.374 85.5604C365.038 84.884 365.541 84.1873 365.879 83.4678H366.052V87.3198H368.872V70.7873C368.872 69.1602 368.603 67.8157 368.064 66.7536C367.526 65.6921 366.824 64.8624 365.958 64.2658L365.956 64.2665ZM366.052 77.9851C366.052 79.3157 365.753 80.5336 365.157 81.6388C364.561 82.7427 363.714 83.6281 362.616 84.2937C361.517 84.9593 360.219 85.2925 358.72 85.2925C357.126 85.2925 355.801 84.8884 354.746 84.0797C353.69 83.2715 353.163 82.1277 353.163 80.6483C353.163 79.6653 353.421 78.8591 353.938 78.2315C354.455 77.6026 355.199 77.1079 356.171 76.7495C357.142 76.3897 358.314 76.1263 359.686 75.9572C360.193 75.8932 360.763 75.8197 361.397 75.7349C362.03 75.65 362.666 75.5474 363.304 75.4252C363.943 75.3042 364.508 75.1636 364.999 75.0053C365.49 74.8469 365.841 74.6671 366.052 74.4669V77.9851ZM380.137 17.5043C379.272 16.9077 378.335 16.4872 377.326 16.244C376.318 16.0014 375.35 15.8792 374.421 15.8792C373.186 15.8792 371.966 16.0559 370.763 16.4105C369.559 16.7646 368.473 17.3403 367.501 18.1383C366.53 18.9363 365.769 20.0009 365.221 21.3322L367.897 22.2986C368.34 21.253 369.113 20.3442 370.216 19.5728C371.32 18.8014 372.748 18.4157 374.5 18.4157C376.347 18.4157 377.764 18.8938 378.751 19.8495C379.739 20.8065 380.232 22.1137 380.232 23.773V24.3437C380.232 24.9567 379.983 25.4001 379.488 25.6749C378.992 25.9498 378.271 26.1506 377.326 26.2772C376.382 26.4039 375.228 26.5521 373.866 26.7212C372.495 26.8903 371.239 27.1284 370.098 27.4343C368.958 27.7409 367.971 28.1582 367.138 28.6864C366.303 29.2146 365.66 29.891 365.205 30.715C364.752 31.539 364.525 32.5542 364.525 33.7588C364.525 35.3225 364.883 36.6512 365.602 37.745C366.319 38.8388 367.285 39.6735 368.5 40.2492C369.713 40.8249 371.054 41.1131 372.522 41.1131C373.873 41.1131 375.049 40.8965 376.053 40.4626C377.056 40.0294 377.89 39.4746 378.554 38.7982C379.219 38.1218 379.721 37.4245 380.059 36.7063H380.233V40.5576H383.052V24.0251C383.052 22.3981 382.783 21.0535 382.244 19.9914C381.706 18.9293 381.004 18.0996 380.138 17.5024L380.137 17.5043ZM380.232 31.2229C380.232 32.5548 379.934 33.7727 379.338 34.8766C378.742 35.9805 377.894 36.8653 376.796 37.5316C375.698 38.1972 374.4 38.5303 372.901 38.5303C371.306 38.5303 369.981 38.1256 368.926 37.3175C367.871 36.5094 367.343 35.3656 367.343 33.8861C367.343 32.9032 367.601 32.0976 368.119 31.4687C368.635 30.8404 369.38 30.3464 370.351 29.9867C371.322 29.6269 372.495 29.3628 373.866 29.1937C374.374 29.1304 374.944 29.0563 375.577 28.9721C376.21 28.8878 376.847 28.7846 377.485 28.663C378.124 28.5414 378.689 28.4008 379.18 28.2431C379.67 28.0841 380.021 27.9049 380.232 27.7041V31.2229ZM341.006 64.2183C339.496 63.1676 337.744 62.642 335.749 62.642C334.26 62.642 333.028 62.9035 332.052 63.426C331.075 63.9492 330.289 64.5964 329.693 65.3672C329.095 66.1386 328.639 66.8885 328.323 67.6181H328.07V54.8589H325.235V87.3211H327.974V82.8035H328.323C328.65 83.5438 329.114 84.3013 329.716 85.0778C330.318 85.8542 331.112 86.5072 332.099 87.036C333.086 87.5636 334.318 87.8283 335.796 87.8283C337.782 87.8283 339.525 87.3008 341.03 86.2431C342.534 85.1874 343.705 83.7129 344.545 81.8212C345.385 79.93 345.804 77.726 345.804 75.2117C345.804 72.6974 345.382 70.5111 344.537 68.6251C343.693 66.739 342.515 65.2703 341.006 64.2183ZM342.098 80.2835C341.517 81.8047 340.668 83.0118 339.549 83.9055C338.43 84.7978 337.063 85.2443 335.448 85.2443C333.875 85.2443 332.537 84.815 331.434 83.953C330.331 83.0917 329.486 81.9035 328.901 80.3867C328.315 78.8699 328.022 77.1295 328.022 75.1636C328.022 73.2193 328.312 71.5004 328.892 70.0045C329.474 68.5092 330.315 67.3368 331.419 66.4856C332.521 65.6357 333.865 65.2101 335.448 65.2101C337.074 65.2101 338.446 65.6516 339.564 66.5344C340.684 67.416 341.531 68.6086 342.107 70.1083C342.682 71.6093 342.97 73.294 342.97 75.1642C342.97 77.0566 342.679 78.7622 342.098 80.2835ZM61.6925 77.6456L55.5675 71.5169H55.5694L43.599 59.5355L42.4133 60.7217L64.4112 82.7402L65.5968 81.5539L61.6912 77.6463L61.6925 77.6456ZM310.338 62.6578C308.564 62.6578 307.057 63.0568 305.817 63.8542C304.576 64.6522 303.681 65.7276 303.133 67.0804H302.928C302.39 65.706 301.579 64.6262 300.496 63.839C299.414 63.0517 298.034 62.6584 296.355 62.6584C294.761 62.6584 293.397 63.0201 292.262 63.7433C291.127 64.4679 290.317 65.4584 289.831 66.7156H289.578V62.9745H286.84V87.3217H289.658V71.7246C289.658 70.4567 289.914 69.3344 290.426 68.3559C290.938 67.3787 291.639 66.6149 292.532 66.0658C293.423 65.516 294.429 65.2412 295.548 65.2412C297.217 65.2412 298.51 65.7485 299.428 66.7624C300.346 67.7764 300.805 69.1089 300.805 70.7569V87.3211H303.687V71.2958C303.687 69.5421 304.188 68.0943 305.192 66.953C306.195 65.8118 307.625 65.2405 309.483 65.2405C311.087 65.2405 312.38 65.7219 313.362 66.6833C314.344 67.6447 314.835 69.0874 314.835 71.0102V87.3211H317.653V71.0102C317.653 68.2837 316.998 66.2108 315.689 64.7896C314.38 63.3684 312.596 62.6578 310.338 62.6578ZM346.17 36.1376C345.562 36.8881 344.813 37.4663 343.922 37.8729C343.029 38.2802 342.045 38.4835 340.968 38.4835C339.375 38.4835 337.985 38.0553 336.796 37.1997C335.61 36.3434 334.688 35.1578 334.034 33.641C333.379 32.1248 333.052 30.3781 333.052 28.4021C333.052 26.4368 333.386 24.7066 334.057 23.2113C334.728 21.716 335.66 20.5481 336.852 19.7083C338.044 18.8685 339.417 18.448 340.968 18.448C342.699 18.448 344.128 18.9369 345.252 19.9141C346.376 20.8914 347.086 22.0675 347.381 23.4412H350.232C350.009 21.93 349.469 20.6064 348.609 19.4702C347.748 18.3346 346.659 17.4524 345.339 16.8235C344.019 16.1952 342.546 15.8804 340.922 15.8804C338.8 15.8804 336.936 16.4219 335.332 17.5049C333.727 18.5879 332.475 20.0807 331.571 21.9826C330.669 23.8851 330.218 26.0562 330.218 28.4977C330.218 30.9177 330.661 33.0729 331.547 34.9647C332.433 36.8564 333.683 38.3467 335.292 39.4347C336.902 40.5234 338.795 41.0675 340.968 41.0675C342.657 41.0675 344.16 40.7394 345.473 40.0845C346.788 39.4297 347.859 38.5291 348.688 37.3821C349.517 36.2358 350.036 34.9279 350.247 33.4592H347.398C347.186 34.4947 346.777 35.3871 346.17 36.1376ZM441.28 38.0952C441.016 38.1427 440.698 38.1668 440.329 38.1668C439.696 38.1668 439.1 38.0477 438.54 37.8102C437.98 37.5727 437.526 37.1661 437.178 36.5898C436.829 36.0135 436.655 35.2186 436.655 34.204V18.6703H441.801V16.2129H436.655V10.3806H433.82V16.2129H430.194V18.6703H433.82V34.869C433.82 36.2009 434.126 37.3156 434.739 38.2137C435.351 39.1117 436.135 39.7881 437.09 40.2422C438.045 40.6963 439.04 40.9237 440.075 40.9237C440.666 40.9237 441.162 40.8787 441.564 40.7888C441.965 40.6989 442.302 40.6013 442.577 40.4956L441.975 37.9432C441.775 37.9964 441.543 38.0465 441.28 38.094V38.0952ZM462.471 29.924C461.453 28.846 459.925 28.0588 457.888 27.5623L454.214 26.6591C452.704 26.2785 451.587 25.763 450.865 25.1138C450.141 24.464 449.78 23.616 449.78 22.5697C449.78 21.3334 450.308 20.3245 451.363 19.5417C452.419 18.7596 453.77 18.3688 455.417 18.3688C456.515 18.3688 457.436 18.543 458.18 18.8919C458.924 19.2409 459.528 19.7115 459.994 20.303C460.458 20.8945 460.817 21.5545 461.07 22.2841L463.651 21.5545C463.06 19.79 462.097 18.403 460.762 17.3935C459.426 16.3846 457.644 15.8798 455.418 15.8798C453.781 15.8798 452.324 16.1705 451.047 16.7519C449.77 17.3333 448.767 18.1338 448.039 19.1529C447.311 20.1725 446.947 21.3537 446.947 22.6957C446.947 24.3228 447.453 25.6863 448.466 26.7852C449.479 27.884 451.042 28.6871 453.153 29.1944L457.128 30.1456C458.457 30.4629 459.45 30.9569 460.105 31.6276C460.759 32.299 461.086 33.1255 461.086 34.1078C461.086 35.3757 460.526 36.4302 459.408 37.27C458.289 38.1098 456.795 38.5303 454.927 38.5303C453.259 38.5303 451.916 38.1605 450.897 37.4207C449.879 36.681 449.195 35.5879 448.846 34.1394L446.139 34.8051C446.571 36.8343 447.558 38.3847 449.1 39.4575C450.641 40.5304 452.6 41.0668 454.975 41.0668C456.758 41.0668 458.329 40.7628 459.685 40.1555C461.042 39.5475 462.099 38.7108 462.86 37.643C463.62 36.5759 464.001 35.3554 464.001 33.9811C464.001 32.3541 463.491 31.0019 462.471 29.924ZM420.381 27.5623L416.707 26.6591C415.197 26.2785 414.08 25.763 413.358 25.1138C412.634 24.464 412.273 23.616 412.273 22.5697C412.273 21.3334 412.801 20.3245 413.856 19.5417C414.912 18.7596 416.263 18.3688 417.91 18.3688C419.008 18.3688 419.929 18.543 420.673 18.8919C421.417 19.2409 422.021 19.7115 422.487 20.303C422.951 20.8945 423.31 21.5545 423.563 22.2841L426.144 21.5545C425.553 19.79 424.59 18.403 423.255 17.3935C421.919 16.3846 420.137 15.8798 417.911 15.8798C416.274 15.8798 414.817 16.1705 413.54 16.7519C412.263 17.3333 411.26 18.1338 410.532 19.1529C409.804 20.1725 409.44 21.3537 409.44 22.6957C409.44 24.3228 409.946 25.6863 410.959 26.7852C411.972 27.884 413.535 28.6871 415.646 29.1944L419.621 30.1456C420.95 30.4629 421.943 30.9569 422.598 31.6276C423.252 32.299 423.579 33.1255 423.579 34.1078C423.579 35.3757 423.019 36.4302 421.901 37.27C420.782 38.1098 419.288 38.5303 417.42 38.5303C415.753 38.5303 414.409 38.1605 413.39 37.4207C412.372 36.681 411.688 35.5879 411.34 34.1394L408.632 34.8051C409.064 36.8343 410.051 38.3847 411.593 39.4575C413.134 40.5304 415.093 41.0668 417.468 41.0668C419.251 41.0668 420.822 40.7628 422.178 40.1555C423.535 39.5475 424.592 38.7108 425.354 37.643C426.113 36.5759 426.494 35.3554 426.494 33.9811C426.494 32.3541 425.984 31.0013 424.965 29.9233C423.947 28.8454 422.418 28.0588 420.381 27.5623ZM401.382 7.97072C400.812 7.97072 400.318 8.16895 399.902 8.56542C399.484 8.96125 399.276 9.43942 399.276 9.99992C399.276 10.5604 399.481 11.038 399.894 11.4338C400.305 11.8303 400.801 12.0285 401.381 12.0285C401.952 12.0285 402.445 11.8303 402.862 11.4338C403.279 11.038 403.487 10.5598 403.487 9.99992C403.487 9.44005 403.282 8.96125 402.87 8.56542C402.459 8.16895 401.963 7.97072 401.382 7.97072ZM399.941 40.5602H402.775V16.2129H399.941V40.5602ZM390.095 40.5602H392.913V8.09739H390.095V40.5602ZM321.091 36.4942C320.494 37.1022 319.761 37.5854 318.89 37.9445C318.018 38.3042 317.008 38.4835 315.857 38.4835C314.168 38.4835 312.706 38.0876 311.471 37.2947C310.235 36.5018 309.283 35.3852 308.612 33.9425C307.983 32.5897 307.661 31.012 307.622 29.2267H325.722V27.8314C325.722 25.7921 325.436 24.0251 324.867 22.5298C324.296 21.0345 323.523 19.7932 322.546 18.8052C321.57 17.8165 320.47 17.0825 319.245 16.6018C318.021 16.1205 316.748 15.8804 315.429 15.8804C313.328 15.8804 311.478 16.4219 309.879 17.5049C308.28 18.5879 307.029 20.0839 306.126 21.9902C305.224 23.8978 304.772 26.0771 304.772 28.5294C304.772 30.9816 305.223 33.1654 306.126 35.0514C307.029 36.9375 308.309 38.4119 309.966 39.474C311.624 40.5361 313.586 41.0668 315.856 41.0668C317.482 41.0668 318.92 40.8053 320.171 40.2828C321.422 39.7596 322.467 39.0649 323.306 38.1978C324.145 37.3321 324.749 36.3859 325.12 35.3605L322.443 34.4884C322.137 35.218 321.685 35.8862 321.089 36.4935L321.091 36.4942ZM308.613 22.9503C309.273 21.5975 310.189 20.5095 311.36 19.6849C312.531 18.8603 313.888 18.4486 315.43 18.4486C316.886 18.4486 318.171 18.8134 319.285 19.5424C320.399 20.272 321.27 21.2625 321.898 22.5146C322.526 23.7667 322.841 25.1746 322.841 26.7389H307.645C307.732 25.3836 308.044 24.1163 308.613 22.9503ZM123.84 57.5227H134.117V87.3217H137.077V57.5227H147.354V54.8602H123.84V57.5227ZM164.436 64.243C162.832 63.1765 160.979 62.6426 158.879 62.6426C156.779 62.6426 154.923 63.1733 153.313 64.2348C151.703 65.2975 150.444 66.7764 149.537 68.6738C148.628 70.57 148.174 72.7658 148.174 75.2592C148.174 77.7324 148.628 79.9117 149.537 81.7978C150.444 83.6838 151.703 85.1614 153.313 86.2279C154.923 87.2951 156.777 87.829 158.879 87.829C160.981 87.829 162.835 87.2951 164.445 86.2279C166.055 85.1614 167.314 83.6838 168.221 81.7978C169.13 79.9117 169.583 77.7324 169.583 75.2592C169.583 72.7658 169.126 70.5726 168.213 68.6814C167.3 66.789 166.041 65.3108 164.436 64.243ZM165.838 80.2531C165.231 81.7636 164.341 82.9738 163.17 83.8827C161.998 84.7909 160.567 85.245 158.879 85.245C157.19 85.245 155.759 84.7909 154.588 83.8827C153.416 82.9732 152.527 81.7636 151.92 80.2531C151.312 78.7413 151.009 77.0775 151.009 75.2599C151.009 73.4422 151.313 71.7727 151.92 70.2508C152.527 68.7295 153.418 67.5085 154.596 66.5895C155.772 65.6706 157.2 65.2108 158.879 65.2108C160.567 65.2108 161.999 65.6706 163.17 66.5895C164.341 67.5085 165.231 68.7295 165.838 70.2508C166.444 71.7721 166.749 73.4422 166.749 75.2599C166.749 77.0775 166.444 78.7413 165.838 80.2531ZM53.3771 8.28169L54.5615 9.46729C59.8716 4.44369 66.7799 1.66272 74.1375 1.66272C81.7708 1.66272 88.9379 4.63052 94.3214 10.0177C99.7049 15.4067 102.669 22.5824 102.669 30.2229C102.669 37.8634 99.7049 45.0397 94.3214 50.4275L74.5569 70.2116H74.5556L71.7256 73.0451L72.9113 74.232L95.5089 51.6118C107.291 39.8173 107.291 20.6266 95.5089 8.83205C83.92 -2.76555 65.2033 -2.93338 53.3771 8.28169ZM70.3673 74.0724L67.8131 71.5169H67.815L61.69 65.3881H61.6912L58.3633 62.0574L56.4071 60.101L56.4146 60.0941L55.1771 58.8553L55.1429 58.8337L49.7202 53.4073L48.5352 54.5936L70.5343 76.6133L71.4802 75.6652L71.7187 75.4258L70.366 74.0736L70.3673 74.0724ZM67.815 77.6463L61.69 71.5175H61.6912L55.5662 65.3887H55.5681L46.6593 56.472L45.4749 57.6576L64.1537 76.3555H64.1524L67.474 79.6761L67.8555 79.2935H67.8574L68.6571 78.4911L67.8144 77.6475H67.8163L67.815 77.6463ZM176.803 35.3611L174.126 34.489C173.82 35.2186 173.369 35.8868 172.773 36.4942C172.175 37.1022 171.442 37.5854 170.571 37.9445C169.7 38.3042 168.689 38.4835 167.538 38.4835C165.85 38.4835 164.388 38.0876 163.152 37.2947C161.916 36.5018 160.964 35.3852 160.293 33.9425C159.665 32.5897 159.343 31.012 159.303 29.2267H177.403V27.8314C177.403 25.7921 177.117 24.0251 176.548 22.5298C175.977 21.0345 175.205 19.7932 174.228 18.8052C173.252 17.8165 172.151 17.0825 170.926 16.6018C169.702 16.1205 168.429 15.8804 167.111 15.8804C165.01 15.8804 163.16 16.4219 161.56 17.5049C159.961 18.5879 158.71 20.0839 157.807 21.9902C156.905 23.8978 156.454 26.0771 156.454 28.5294C156.454 30.9816 156.904 33.1654 157.807 35.0514C158.71 36.9375 159.99 38.4119 161.647 39.474C163.305 40.5361 165.268 41.0668 167.538 41.0668C169.163 41.0668 170.601 40.8053 171.852 40.2828C173.103 39.7596 174.149 39.0649 174.987 38.1978C175.827 37.3321 176.43 36.3859 176.801 35.3605L176.803 35.3611ZM160.295 22.9503C160.955 21.5975 161.871 20.5095 163.042 19.6849C164.213 18.8603 165.57 18.4486 167.112 18.4486C168.568 18.4486 169.853 18.8134 170.967 19.5424C172.08 20.272 172.952 21.2625 173.58 22.5146C174.208 23.7667 174.523 25.1746 174.523 26.7389H159.327C159.413 25.3836 159.726 24.1163 160.295 22.9503ZM200.473 40.5602V24.0276C200.473 22.4006 200.204 21.056 199.665 19.9939C199.127 18.9318 198.425 18.1022 197.559 17.5049C196.694 16.9083 195.757 16.4878 194.748 16.2446C193.74 16.002 192.772 15.8798 191.843 15.8798C190.608 15.8798 189.388 16.0565 188.185 16.4112C186.981 16.7652 185.894 17.3409 184.923 18.1389C183.952 18.9369 183.191 20.0015 182.643 21.3328L185.319 22.2993C185.762 21.2536 186.535 20.3448 187.638 19.5734C188.742 18.802 190.17 18.4163 191.922 18.4163C193.769 18.4163 195.186 18.8945 196.173 19.8502C197.161 20.8071 197.654 22.1143 197.654 23.7737V24.3443C197.654 24.9574 197.405 25.4007 196.91 25.6756C196.414 25.9504 195.693 26.1512 194.748 26.2779C193.804 26.4045 192.65 26.5527 191.288 26.7218C189.916 26.8909 188.661 27.1291 187.52 27.435C186.38 27.7415 185.393 28.1589 184.56 28.6871C183.725 29.2153 183.082 29.8917 182.627 30.7156C182.174 31.5396 181.947 32.5548 181.947 33.7594C181.947 35.3231 182.305 36.6519 183.024 37.7456C183.741 38.8394 184.707 39.6741 185.922 40.2498C187.135 40.8255 188.476 41.1137 189.944 41.1137C191.295 41.1137 192.471 40.8971 193.475 40.4633C194.478 40.0301 195.312 39.4753 195.976 38.7989C196.641 38.1225 197.143 37.4252 197.481 36.707H197.655V40.5583H200.474L200.473 40.5602ZM196.759 34.8779C196.163 35.9824 195.316 36.8666 194.217 37.5328C193.12 38.1985 191.821 38.5316 190.322 38.5316C188.728 38.5316 187.403 38.1269 186.348 37.3188C185.292 36.5106 184.765 35.3668 184.765 33.8874C184.765 32.9044 185.023 32.0988 185.54 31.4699C186.056 30.8417 186.801 30.3477 187.772 29.9879C188.743 29.6282 189.916 29.3641 191.288 29.195C191.795 29.1317 192.365 29.0576 192.998 28.9733C193.632 28.8891 194.268 28.7859 194.906 28.6643C195.545 28.5427 196.11 28.4021 196.601 28.2444C197.092 28.0854 197.442 27.9062 197.654 27.7054V31.2242C197.654 32.5561 197.355 33.774 196.759 34.8779ZM250.044 64.2424C248.439 63.1759 246.586 62.642 244.486 62.642C242.386 62.642 240.53 63.1727 238.921 64.2342C237.31 65.2969 236.051 66.7757 235.144 68.6732C234.236 70.5694 233.782 72.7652 233.782 75.2586C233.782 77.7318 234.236 79.9111 235.144 81.7971C236.051 83.6832 237.31 85.1607 238.921 86.2273C240.53 87.2944 242.385 87.8283 244.486 87.8283C246.588 87.8283 248.442 87.2944 250.052 86.2273C251.662 85.1607 252.921 83.6832 253.829 81.7971C254.737 79.9111 255.191 77.7318 255.191 75.2586C255.191 72.7652 254.734 70.5719 253.821 68.6808C252.908 66.7884 251.648 65.3102 250.044 64.2424ZM251.445 80.2524C250.838 81.7629 249.949 82.9732 248.777 83.8821C247.605 84.7903 246.175 85.2443 244.486 85.2443C242.798 85.2443 241.367 84.7903 240.195 83.8821C239.023 82.9726 238.134 81.7629 237.527 80.2524C236.919 78.7407 236.616 77.0769 236.616 75.2592C236.616 73.4416 236.92 71.7721 237.527 70.2502C238.134 68.7289 239.026 67.5079 240.203 66.5889C241.379 65.6699 242.808 65.2101 244.486 65.2101C246.175 65.2101 247.606 65.6699 248.777 66.5889C249.948 67.5079 250.838 68.7289 251.445 70.2502C252.052 71.7714 252.356 73.4416 252.356 75.2592C252.356 77.0769 252.052 78.7407 251.445 80.2524ZM234.843 40.4968L234.241 37.9445C234.041 37.9977 233.808 38.0477 233.545 38.0952C233.281 38.1427 232.964 38.1668 232.595 38.1668C231.962 38.1668 231.366 38.0477 230.806 37.8102C230.246 37.5727 229.792 37.1661 229.444 36.5898C229.095 36.0135 228.921 35.2186 228.921 34.204V18.6703H234.067V16.2129H228.921V10.3806H226.086V16.2129H222.46V18.6703H226.086V34.869C226.086 36.2009 226.392 37.3156 227.005 38.2137C227.617 39.1117 228.4 39.7881 229.356 40.2422C230.311 40.6963 231.306 40.9237 232.341 40.9237C232.932 40.9237 233.428 40.8787 233.829 40.7888C234.231 40.6989 234.568 40.6013 234.843 40.4956V40.4968ZM268.407 39.9028C270.086 39.094 271.374 37.9977 272.271 36.6132C273.169 35.2294 273.617 33.6701 273.617 31.9373C273.617 30.5845 273.356 29.4249 272.834 28.4578C272.311 27.4913 271.619 26.6724 270.759 26.0011C269.899 25.3304 268.952 24.7731 267.918 24.3291C266.883 23.8851 265.848 23.5203 264.814 23.2353L261.394 22.253C260.612 22.0307 259.838 21.7559 259.074 21.4284C258.307 21.101 257.611 20.7077 256.983 20.2479C256.355 19.7881 255.857 19.2358 255.487 18.5911C255.117 17.947 254.933 17.1965 254.933 16.3402C254.933 15.1781 255.258 14.14 255.907 13.2261C256.556 12.3122 257.453 11.5959 258.598 11.0785C259.744 10.5604 261.072 10.3014 262.581 10.3014C264.723 10.3014 266.503 10.8353 267.918 11.9025C269.332 12.9696 270.129 14.4067 270.309 16.2136H273.174C273.112 14.565 272.623 13.0938 271.71 11.7992C270.797 10.5053 269.565 9.48819 268.012 8.74845C266.461 8.00872 264.677 7.63885 262.661 7.63885C260.665 7.63885 258.868 8.01125 257.269 8.75669C255.67 9.50149 254.403 10.537 253.468 11.8632C252.534 13.1894 252.067 14.7246 252.067 16.4675C252.067 18.5499 252.769 20.2618 254.173 21.6032C255.577 22.9453 257.551 23.9966 260.095 24.7572L263.974 25.8991C265.314 26.2899 266.495 26.7389 267.513 27.2462C268.532 27.7535 269.327 28.3793 269.896 29.1247C270.467 29.8695 270.752 30.7916 270.752 31.8905C270.752 33.1901 270.39 34.3288 269.667 35.306C268.944 36.2833 267.951 37.0445 266.69 37.5886C265.429 38.1326 263.99 38.4049 262.375 38.4049C260.918 38.4049 259.599 38.175 258.417 37.7152C257.234 37.2554 256.273 36.5822 255.535 35.6943C254.795 34.8063 254.373 33.7233 254.268 32.4446H251.228C251.344 34.1565 251.867 35.662 252.795 36.9622C253.724 38.2618 255.002 39.2789 256.628 40.013C258.253 40.747 260.168 41.115 262.375 41.115C264.719 41.115 266.729 40.7103 268.407 39.9028ZM275.946 64.243C274.341 63.1765 272.488 62.6426 270.388 62.6426C268.289 62.6426 266.432 63.1733 264.823 64.2348C263.213 65.2975 261.954 66.7764 261.046 68.6738C260.138 70.57 259.684 72.7658 259.684 75.2592C259.684 77.7324 260.138 79.9117 261.046 81.7978C261.954 83.6838 263.213 85.1614 264.823 86.2279C266.432 87.2951 268.287 87.829 270.388 87.829C272.49 87.829 274.345 87.2951 275.954 86.2279C277.564 85.1614 278.823 83.6838 279.731 81.7978C280.639 79.9117 281.093 77.7324 281.093 75.2592C281.093 72.7658 280.636 70.5726 279.723 68.6814C278.81 66.789 277.55 65.3108 275.946 64.243ZM277.347 80.2531C276.741 81.7636 275.851 82.9738 274.679 83.8827C273.508 84.7909 272.077 85.245 270.388 85.245C268.7 85.245 267.269 84.7909 266.098 83.8827C264.925 82.9732 264.036 81.7636 263.43 80.2531C262.822 78.7413 262.518 77.0775 262.518 75.2599C262.518 73.4422 262.822 71.7727 263.43 70.2508C264.036 68.7295 264.928 67.5085 266.105 66.5895C267.281 65.6706 268.71 65.2108 270.388 65.2108C272.077 65.2108 273.508 65.6706 274.679 66.5895C275.85 67.5085 276.741 68.7295 277.347 70.2508C277.954 71.7721 278.258 73.4422 278.258 75.2599C278.258 77.0775 277.954 78.7413 277.347 80.2531ZM190.338 64.243C188.733 63.1765 186.88 62.6426 184.78 62.6426C182.68 62.6426 180.824 63.1733 179.215 64.2348C177.604 65.2975 176.345 66.7764 175.438 68.6738C174.53 70.57 174.076 72.7658 174.076 75.2592C174.076 77.7324 174.53 79.9117 175.438 81.7978C176.345 83.6838 177.604 85.1614 179.215 86.2279C180.824 87.2951 182.679 87.829 184.78 87.829C186.882 87.829 188.737 87.2951 190.346 86.2279C191.956 85.1614 193.215 83.6838 194.123 81.7978C195.031 79.9117 195.485 77.7324 195.485 75.2592C195.485 72.7658 195.028 70.5726 194.115 68.6814C193.202 66.789 191.942 65.3108 190.338 64.243ZM191.739 80.2531C191.133 81.7636 190.243 82.9738 189.071 83.8827C187.899 84.7909 186.469 85.245 184.78 85.245C183.092 85.245 181.661 84.7909 180.489 83.8827C179.317 82.9732 178.428 81.7636 177.821 80.2531C177.213 78.7413 176.91 77.0775 176.91 75.2599C176.91 73.4422 177.214 71.7727 177.821 70.2508C178.428 68.7295 179.32 67.5085 180.497 66.5895C181.673 65.6706 183.102 65.2108 184.78 65.2108C186.469 65.2108 187.9 65.6706 189.071 66.5895C190.242 67.5085 191.133 68.7295 191.739 70.2508C192.346 71.7721 192.65 73.4422 192.65 75.2599C192.65 77.0775 192.346 78.7413 191.739 80.2531ZM222.068 83.0112H221.846L216.146 62.9751H213.153L207.405 83.0581H207.2L201.436 62.9751H198.459L205.806 87.3223H208.72L214.484 67.366H214.784L220.548 87.3223H223.462L230.809 62.9751H227.831L222.068 83.0112Z" fill="#D7D7D7"/>
</svg>
