<svg width="251" height="108" viewBox="0 0 251 108" fill="none" xmlns="http://www.w3.org/2000/svg">
<path d="M125.5 108C123.813 108 122.127 107.841 120.448 107.516L6.24517 85.7325C2.62536 85.0429 0 81.872 0 78.2017V29.7983C0 26.128 2.62536 22.9571 6.24517 22.2675L120.448 0.475631C123.797 -0.158544 127.195 -0.158544 130.552 0.475631L244.755 22.2675C248.375 22.9571 251 26.128 251 29.7983V78.2017C251 81.872 248.375 85.0429 244.747 85.7325L130.552 107.516C128.873 107.834 127.187 108 125.5 108ZM125.5 5.78685C124.179 5.78685 122.859 5.91368 121.538 6.15942L7.34304 27.9513C6.45201 28.1177 5.80761 28.8946 5.80761 29.7983V78.2017C5.80761 79.1054 6.45201 79.8823 7.34304 80.0487L121.546 101.833C124.171 102.34 126.837 102.34 129.462 101.833L243.665 80.0487C244.556 79.8823 245.2 79.1054 245.2 78.2017V29.7983C245.2 28.8946 244.556 28.1177 243.665 27.9513L129.462 6.16735C128.149 5.91368 126.829 5.79477 125.5 5.79477V5.78685Z" fill="#D7D7D7"/>
<path d="M44.9572 34.5942C45.1323 34.5942 45.2834 34.6497 45.4028 34.7766C45.5221 34.9034 45.5857 35.0461 45.5857 35.2205V57.0678C45.5857 57.2422 45.53 57.3928 45.4028 57.5117C45.2834 57.6386 45.1323 57.6941 44.9572 57.6941H40.3509C40.1759 57.6941 40.0248 57.6386 39.9054 57.5117C39.7861 57.3928 39.7224 57.2422 39.7224 57.0678V49.4419C39.7224 49.2675 39.6668 49.1248 39.5554 49.0138C39.444 48.9028 39.3008 48.8473 39.1258 48.8473H32.5624C32.3874 48.8473 32.2362 48.9028 32.1169 49.0138C31.9975 49.1248 31.9339 49.2675 31.9339 49.4419V57.0678C31.9339 57.488 31.7191 57.6941 31.3054 57.6941H26.7309C26.3093 57.6941 26.1024 57.488 26.1024 57.0678V35.2205C26.1024 34.8004 26.3093 34.5942 26.7309 34.5942H31.3054C31.727 34.5942 31.9339 34.8004 31.9339 35.2205V42.6166C31.9339 43.0367 32.1407 43.2428 32.5624 43.2428H39.1258C39.3008 43.2428 39.444 43.1873 39.5554 43.0605C39.6668 42.9416 39.7224 42.791 39.7224 42.6166V35.2205C39.7224 35.0461 39.7781 34.8955 39.9054 34.7766C40.0327 34.6577 40.1759 34.5942 40.3509 34.5942H44.9572Z" fill="#D7D7D7"/>
<path d="M56.5884 40.1353V43.7343C56.5884 43.8215 56.6441 43.8691 56.7554 43.8691H66.1988C66.3738 43.8691 66.5249 43.9245 66.6443 44.0514C66.7636 44.1782 66.8273 44.3209 66.8273 44.4953V47.793C66.8273 48.2132 66.6204 48.4193 66.1988 48.4193H56.7554C56.6441 48.4193 56.5884 48.4747 56.5884 48.5857V52.153C56.5884 52.2639 56.6441 52.3194 56.7554 52.3194H67.8535C68.0286 52.3194 68.1797 52.3749 68.2991 52.5018C68.4184 52.6286 68.482 52.7713 68.482 52.9457V57.0678C68.482 57.2422 68.4263 57.3928 68.2991 57.5117C68.1797 57.6386 68.0286 57.6941 67.8535 57.6941H55.2359C55.0609 57.6941 54.862 57.6703 54.6392 57.6306C54.4165 57.591 54.2255 57.5197 54.0744 57.4325L51.0274 54.3964C50.9399 54.2378 50.8683 54.0555 50.8285 53.8335C50.7887 53.6116 50.7649 53.4134 50.7649 53.239V39.0493C50.7649 38.8749 50.7887 38.6767 50.8285 38.4548C50.8683 38.2328 50.9399 38.0426 51.0274 37.892L54.0744 34.8558C54.2255 34.7924 54.4165 34.729 54.6392 34.6735C54.862 34.618 55.0609 34.5942 55.2359 34.5942H67.8535C68.0286 34.5942 68.1797 34.6497 68.2991 34.7766C68.4184 34.9034 68.482 35.0461 68.482 35.2205V39.3823C68.482 39.5567 68.4263 39.6994 68.2991 39.8103C68.1797 39.9213 68.0286 39.9768 67.8535 39.9768H56.7554C56.6441 39.9768 56.5884 40.0323 56.5884 40.1433V40.1353Z" fill="#D7D7D7"/>
<path d="M98.1406 38.4548C98.1963 38.6767 98.2281 38.8749 98.2281 39.0493V57.0678C98.2281 57.2422 98.1645 57.3928 98.0451 57.5117C97.9258 57.6386 97.7746 57.6941 97.5996 57.6941H92.9933C92.8183 57.6941 92.6751 57.6386 92.5637 57.5117C92.4523 57.3928 92.3966 57.2422 92.3966 57.0678V40.2067H88.6893V57.0678C88.6893 57.2422 88.6336 57.3928 88.5223 57.5117C88.4109 57.6386 88.2677 57.6941 88.0927 57.6941H83.9159C83.7409 57.6941 83.5898 57.6386 83.4704 57.5117C83.3511 57.3928 83.2875 57.2422 83.2875 57.0678V40.2067H79.5801V57.0678C79.5801 57.488 79.3653 57.6941 78.9516 57.6941H74.3771C73.9555 57.6941 73.7487 57.488 73.7487 57.0678V35.2205C73.7487 35.0461 73.8043 34.8955 73.9316 34.7766C74.0589 34.6577 74.2021 34.5942 74.3771 34.5942H93.7252C93.9003 34.5942 94.1071 34.626 94.3378 34.6735C94.5685 34.729 94.7674 34.7924 94.9186 34.8558L97.9656 37.892C98.0292 38.0505 98.0929 38.2328 98.1486 38.4548H98.1406Z" fill="#D7D7D7"/>
<path d="M122.668 37.892C122.731 38.0505 122.795 38.2407 122.851 38.4706C122.906 38.7005 122.93 38.9066 122.93 39.081V42.7434C122.93 42.9178 122.891 43.108 122.819 43.3221C122.747 43.5361 122.652 43.7026 122.533 43.8294L121.108 45.6447C120.997 45.7795 120.949 45.946 120.957 46.1362C120.965 46.3265 121.029 46.493 121.14 46.6039L122.501 48.2528C122.612 48.3875 122.708 48.554 122.803 48.7681C122.891 48.9742 122.93 49.1644 122.93 49.3467V53.239C122.93 53.4134 122.899 53.6116 122.851 53.8335C122.795 54.0555 122.731 54.2378 122.668 54.3964L119.621 57.4325C119.47 57.5197 119.279 57.591 119.04 57.6306C118.801 57.6703 118.602 57.6941 118.427 57.6941H104.083C103.662 57.6941 103.455 57.488 103.455 57.0678V35.2205C103.455 35.0461 103.511 34.8955 103.638 34.7766C103.765 34.6577 103.908 34.5942 104.083 34.5942H118.427C118.602 34.5942 118.809 34.626 119.04 34.6735C119.271 34.729 119.47 34.7924 119.621 34.8558L122.668 37.892ZM108.73 43.7343H117.64V39.6122H108.73V43.7343ZM108.73 52.6524H117.64V48.1656H108.73V52.6524Z" fill="#D7D7D7"/>
<path d="M147.943 57.1709C148.03 57.3294 148.038 57.4563 147.975 57.5514C147.911 57.6465 147.784 57.702 147.609 57.702H142.342C142.167 57.702 141.984 57.6544 141.809 57.5514C141.634 57.4483 141.499 57.3215 141.411 57.1709L137.704 50.9005C137.656 50.8133 137.577 50.7736 137.473 50.7736H133.726C133.615 50.7736 133.559 50.8291 133.559 50.9401V57.0757C133.559 57.4959 133.352 57.702 132.931 57.702H128.356C127.934 57.702 127.728 57.4959 127.728 57.0757V35.2284C127.728 35.054 127.791 34.9034 127.911 34.7845C128.03 34.6656 128.181 34.6022 128.356 34.6022H142.7C142.875 34.6022 143.082 34.6339 143.313 34.6814C143.543 34.7369 143.742 34.8004 143.893 34.8638L146.94 37.8999C147.012 38.0584 147.068 38.2408 147.123 38.4627C147.179 38.6847 147.211 38.8829 147.211 39.0573V46.2472C147.211 46.382 147.179 46.5405 147.115 46.7308C147.044 46.9131 146.972 47.0875 146.885 47.2381L143.838 50.3376L147.943 57.1709ZM141.356 39.9768H133.344V45.5893H141.356V39.9768Z" fill="#D7D7D7"/>
<path d="M172.128 37.892C172.192 38.0505 172.255 38.2328 172.311 38.4548C172.367 38.6767 172.398 38.8749 172.398 39.0493V53.239C172.398 53.4134 172.367 53.6116 172.311 53.8335C172.255 54.0555 172.2 54.2378 172.128 54.3964L169.081 57.4325C168.922 57.5197 168.731 57.591 168.5 57.6306C168.269 57.6703 168.063 57.6941 167.888 57.6941H157.386C157.211 57.6941 157.012 57.6703 156.789 57.6306C156.567 57.591 156.376 57.5197 156.225 57.4325L153.178 54.3964C153.09 54.2378 153.019 54.0555 152.979 53.8335C152.931 53.6116 152.907 53.4134 152.907 53.239V39.0493C152.907 38.8749 152.931 38.6767 152.979 38.4548C153.019 38.2328 153.09 38.0426 153.178 37.892L156.225 34.8558C156.384 34.7924 156.567 34.729 156.789 34.6735C157.004 34.618 157.203 34.5942 157.386 34.5942H167.888C168.063 34.5942 168.269 34.626 168.5 34.6735C168.731 34.729 168.922 34.7924 169.081 34.8558L172.128 37.892ZM166.527 40.2067H158.739V52.1213H166.527V40.2067Z" fill="#D7D7D7"/>
<path d="M201.524 34.7766C201.643 34.8955 201.707 35.0461 201.707 35.2205V53.239C201.707 53.4134 201.675 53.6116 201.627 53.8335C201.572 54.0555 201.508 54.2378 201.444 54.3964L198.397 57.4325C198.246 57.5197 198.047 57.591 197.817 57.6306C197.586 57.6703 197.379 57.6941 197.204 57.6941H181.699C181.524 57.6941 181.325 57.6703 181.102 57.6306C180.879 57.591 180.696 57.5197 180.537 57.4325L177.49 54.3964C177.403 54.2378 177.339 54.0555 177.291 53.8335C177.251 53.6116 177.227 53.4134 177.227 53.239V35.2205C177.227 35.0461 177.291 34.8955 177.41 34.7766C177.53 34.6577 177.681 34.5942 177.856 34.5942H182.43C182.605 34.5942 182.757 34.6497 182.876 34.7766C182.995 34.9034 183.059 35.0461 183.059 35.2205V52.1213H186.734V35.2205C186.734 35.0461 186.798 34.8955 186.917 34.7766C187.037 34.6577 187.188 34.5942 187.363 34.5942H191.54C191.715 34.5942 191.858 34.6497 191.969 34.7766C192.081 34.8955 192.136 35.0461 192.136 35.2205V52.1213H195.875V35.2205C195.875 35.0461 195.931 34.8955 196.043 34.7766C196.154 34.6577 196.297 34.5942 196.472 34.5942H201.078C201.253 34.5942 201.405 34.6497 201.524 34.7766Z" fill="#D7D7D7"/>
<path d="M224.484 47.6662C224.54 47.8881 224.563 48.0863 224.563 48.2607V53.2469C224.563 53.4213 224.532 53.6195 224.484 53.8415C224.428 54.0634 224.365 54.2457 224.301 54.4043L221.254 57.4404C221.095 57.5276 220.904 57.5989 220.673 57.6386C220.442 57.6782 220.236 57.702 220.061 57.702H207.475C207.053 57.702 206.846 57.4959 206.846 57.0757V53.0804C206.846 52.906 206.902 52.7554 207.029 52.6365C207.157 52.5176 207.3 52.4542 207.475 52.4542H218.74C218.915 52.4542 219.066 52.3987 219.185 52.2877C219.305 52.1767 219.368 52.0341 219.368 51.8597V49.1248C219.368 48.9504 219.305 48.7998 219.185 48.6809C219.066 48.5619 218.915 48.4985 218.74 48.4985H211.325C211.15 48.4985 210.951 48.4747 210.729 48.4351C210.506 48.3955 210.315 48.34 210.164 48.2686L207.117 45.2325C207.029 45.0581 206.958 44.86 206.918 44.638C206.878 44.416 206.854 44.2179 206.854 44.0435V39.0573C206.854 38.8829 206.878 38.6847 206.918 38.4627C206.958 38.2408 207.029 38.0505 207.117 37.8999L210.164 34.8638C210.315 34.8004 210.506 34.7369 210.729 34.6814C210.951 34.626 211.15 34.6022 211.325 34.6022H223.219C223.394 34.6022 223.545 34.6577 223.664 34.7845C223.784 34.9113 223.847 35.054 223.847 35.2284V39.2871C223.847 39.4615 223.784 39.6122 223.664 39.7311C223.545 39.85 223.394 39.9134 223.219 39.9134H212.654C212.479 39.9134 212.328 39.9689 212.208 40.0799C212.089 40.1908 212.025 40.3335 212.025 40.5079V43.1794C212.025 43.3538 212.081 43.5044 212.208 43.6233C212.336 43.7422 212.479 43.8056 212.654 43.8056H220.076C220.252 43.8056 220.458 43.8294 220.689 43.877C220.92 43.9245 221.119 43.9721 221.27 44.0435L224.317 47.0796C224.38 47.254 224.444 47.4521 224.5 47.6741L224.484 47.6662Z" fill="#D7D7D7"/>
<path d="M77.9572 65.5341H84.1148V67.5159H80.1848V69.022H83.542V71.0038H80.1848V72.5893H84.1148V74.571H77.9572V65.5341Z" fill="#D7D7D7"/>
<path d="M88.212 74.5631V65.5341H90.4396V72.5813H94.2423V74.5631H88.212Z" fill="#D7D7D7"/>
<path d="M98.069 65.5341H104.227V67.5159H100.297V69.022H103.654V71.0038H100.297V72.5893H104.227V74.571H98.069V65.5341Z" fill="#D7D7D7"/>
<path d="M111.466 74.6424C110.408 74.6424 109.605 74.2857 108.944 73.6277C107.99 72.6764 108.029 71.4081 108.029 70.0526C108.029 68.697 107.99 67.4287 108.944 66.4774C109.605 65.8194 110.408 65.4627 111.466 65.4627C113.185 65.4627 114.569 66.414 114.903 68.4037H112.644C112.501 67.8964 112.222 67.4445 111.482 67.4445C111.076 67.4445 110.774 67.611 110.607 67.825C110.4 68.0945 110.265 68.4037 110.265 70.0605C110.265 71.7173 110.408 72.0264 110.607 72.288C110.774 72.5021 111.076 72.6685 111.482 72.6685C112.222 72.6685 112.501 72.2167 112.644 71.7093H114.903C114.577 73.6991 113.185 74.6503 111.466 74.6503V74.6424Z" fill="#D7D7D7"/>
<path d="M122.262 67.5159V74.5631H120.034V67.5159H117.807V65.5341H124.482V67.5159H122.254H122.262Z" fill="#D7D7D7"/>
<path d="M132.891 74.5631L131.292 71.202H130.536V74.5631H128.308V65.5341H131.896C133.909 65.5341 134.991 66.953 134.991 68.4354C134.991 69.6641 134.227 70.441 133.511 70.7898L135.468 74.5552H132.883L132.891 74.5631ZM131.793 67.5238H130.536V69.347H131.793C132.405 69.347 132.763 68.9031 132.763 68.4354C132.763 67.9677 132.405 67.5238 131.793 67.5238Z" fill="#D7D7D7"/>
<path d="M139.128 74.5631V65.5341H141.356V74.5631H139.128Z" fill="#D7D7D7"/>
<path d="M148.85 74.6424C147.792 74.6424 146.988 74.2857 146.328 73.6277C145.373 72.6764 145.413 71.4081 145.413 70.0526C145.413 68.697 145.373 67.4287 146.328 66.4774C146.988 65.8194 147.792 65.4627 148.85 65.4627C150.568 65.4627 151.952 66.414 152.287 68.4037H150.027C149.884 67.8964 149.606 67.4445 148.866 67.4445C148.46 67.4445 148.158 67.611 147.991 67.825C147.784 68.0945 147.648 68.4037 147.648 70.0605C147.648 71.7173 147.792 72.0264 147.991 72.288C148.158 72.5021 148.46 72.6685 148.866 72.6685C149.606 72.6685 149.884 72.2167 150.027 71.7093H152.287C151.96 73.6991 150.568 74.6503 148.85 74.6503V74.6424Z" fill="#D7D7D7"/>
<path d="M160.918 74.5631L160.497 73.2155H157.712L157.267 74.5631H154.936L158.229 65.5341H159.948L163.241 74.5631H160.91H160.918ZM159.152 68.9586L158.341 71.3685H159.916L159.152 68.9586Z" fill="#D7D7D7"/>
<path d="M166.686 74.5631V65.5341H168.914V72.5813H172.717V74.5631H166.686Z" fill="#D7D7D7"/>
<path d="M70.7335 68.8635H26.2774V71.2416H70.7335V68.8635Z" fill="#D7D7D7"/>
<path d="M224.731 68.8635H180.274V71.2416H224.731V68.8635Z" fill="#D7D7D7"/>
</svg>
