<svg width="167" height="94" viewBox="0 0 167 94" fill="none" xmlns="http://www.w3.org/2000/svg">
<path d="M125.46 67.58H103.48V4.36C103.48 2.11 105.31 0.28 107.56 0.28C109.81 0.28 111.64 2.11 111.64 4.36V59.42H125.46C127.71 59.42 129.54 61.25 129.54 63.5C129.54 65.75 127.71 67.58 125.46 67.58Z" fill="#D7D7D7"/>
<path d="M71.33 8.22C63.38 8.22 56.91 14.69 56.91 22.64C56.91 30.59 63.38 37.06 71.33 37.06C79.28 37.06 85.75 30.59 85.75 22.64C85.75 14.69 79.28 8.22 71.33 8.22ZM71.33 45.23C58.88 45.23 48.75 35.1 48.75 22.65C48.75 10.2 58.88 0.06 71.33 0.06C83.78 0.06 93.91 10.19 93.91 22.64C93.91 35.09 83.78 45.22 71.33 45.22" fill="#D7D7D7"/>
<path d="M143.69 8.22C135.74 8.22 129.27 14.69 129.27 22.64C129.27 30.59 135.74 37.06 143.69 37.06C151.64 37.06 158.11 30.59 158.11 22.64C158.11 14.69 151.64 8.22 143.69 8.22ZM143.69 45.23C131.24 45.23 121.11 35.1 121.11 22.65C121.11 10.2 131.24 0.06 143.69 0.06C156.14 0.06 166.27 10.19 166.27 22.64C166.27 35.09 156.14 45.22 143.69 45.22" fill="#D7D7D7"/>
<path d="M125.48 93.67C123.23 93.67 121.4 91.84 121.4 89.59C121.4 87.34 123.23 85.51 125.48 85.51C137.61 85.51 147.48 75.64 147.48 63.5C147.48 61.25 149.31 59.42 151.56 59.42C153.81 59.42 155.64 61.25 155.64 63.5C155.64 80.13 142.11 93.67 125.47 93.67" fill="#D7D7D7"/>
<path d="M35.09 0C32.84 0 31.01 1.83 31.01 4.08V18.52H8.16V4.08C8.16 1.83 6.33 0 4.08 0C1.83 0 0 1.83 0 4.08V41.19C0 43.44 1.83 45.27 4.08 45.27C6.33 45.27 8.16 43.44 8.16 41.19V26.68H31.01V41.19C31.01 43.44 32.84 45.27 35.09 45.27C37.34 45.27 39.17 43.44 39.17 41.19V4.08C39.17 1.83 37.34 0 35.09 0Z" fill="#D7D7D7"/>
</svg>
