<svg width="158" height="119" viewBox="0 0 158 119" fill="none" xmlns="http://www.w3.org/2000/svg">
<path d="M0 0V91.6193H8.48827V81.123H1.22336L6.43024 70.19L6.95233 69.0743H4.14515L11.5914 53.4313L16.0392 62.788L13.9744 67.124H17.0736L10.7618 80.3689H14.7111L14.685 81.3374V91.6193H31.4627V78.6433H22.6435L29.5856 64.0615H26.1721L35.2577 44.9835L39.7787 54.4697L40.7207 56.4621L38.0302 62.1128H41.7187L34.2062 77.8918H39.1236L39.0582 78.8578V91.6193H58.6016V75.9158H48.0887L55.6473 60.0154L56.3464 58.5609H52.2868L63.1641 35.7066L69.6512 49.3363L66.5511 55.8608H70.9669L62.0374 74.7963L67.7544 74.7692L67.7283 76.1302V91.6193H91.2103V72.5058H78.5619L87.6745 53.3721L88.4737 51.6778H83.6127L96.7362 24.1217L104.66 40.7822L100.471 49.6087H105.631L95.2751 71.5338L102.243 71.596V91.6193H129.055V69.0954H114.283L124.93 46.725L125.843 44.7982H120.173L135.53 12.5243L150.895 44.7982H145.215L156.777 69.0954H142.002V91.6193H158V0H0Z" fill="#D7D7D7"/>
<path d="M10.5386 104.716H4.45943V97.9807H0.091507V115.936H4.45943V108.603H10.5386V115.936H14.9061V97.9807H10.5386V104.716Z" fill="#D7D7D7"/>
<path d="M30.4664 114.589C32.87 113.284 34.3456 110.325 34.3456 106.75C34.3456 100.477 30.0983 97.6685 25.889 97.6685C20.7262 97.6685 17.1206 101.542 17.1206 107.088C17.1206 111.377 19.5468 115.866 24.9675 116.221C25.3533 116.243 25.7333 116.326 26.0934 116.466C28.3611 117.417 30.6784 118.244 33.035 118.944L33.2274 119L34.497 115.506L34.2498 115.459C33.2668 115.273 31.8489 114.977 30.4664 114.589ZM29.7451 106.906C29.7451 110.393 28.1805 112.646 25.759 112.646C23.3375 112.646 21.7216 110.373 21.7216 106.984C21.7216 104.127 22.9698 101.244 25.759 101.244C28.5123 101.244 29.7451 104.088 29.7451 106.906Z" fill="#D7D7D7"/>
<path d="M47.5358 99.3018C46.3193 98.3256 44.5289 97.8508 42.0625 97.8508C40.2636 97.826 38.4657 97.9488 36.6867 98.2179L36.5088 98.2484V115.936H40.849V109.684C41.2252 109.731 41.6042 109.752 41.9834 109.747C44.4476 109.747 46.4608 109.089 47.8034 107.846C48.8853 106.866 49.4813 105.332 49.4813 103.526C49.5021 102.719 49.3375 101.919 49.0001 101.186C48.6627 100.454 48.1616 99.8088 47.5358 99.3018ZM45.1412 103.656C45.1412 105.297 43.9521 106.276 41.9594 106.276C41.5888 106.285 41.2181 106.263 40.8511 106.21V101.384C41.3126 101.318 41.7786 101.289 42.2447 101.298C44.0846 101.296 45.1404 102.156 45.1404 103.656H45.1412Z" fill="#D7D7D7"/>
<path d="M54.7763 113.23C54.5971 113.038 54.4589 112.812 54.3702 112.565C54.2814 112.317 54.244 112.055 54.2602 111.792V97.7967H51.6091V112.166C51.6091 114.822 53.1326 116.169 56.1374 116.169H56.3512V113.748H56.1374C55.8872 113.76 55.6374 113.72 55.4032 113.631C55.1691 113.542 54.9557 113.405 54.7763 113.23Z" fill="#D7D7D7"/>
<path d="M68.0524 112.705V107.998C68.0524 105.564 67.1878 102.661 63.0692 102.661C61.5741 102.648 60.1028 103.036 58.8081 103.786L58.6645 103.876L59.3277 105.837L59.5599 105.68C60.5106 105.082 61.6122 104.769 62.7343 104.779C63.086 104.751 63.4396 104.794 63.7747 104.904C64.1098 105.014 64.4197 105.191 64.6863 105.422C64.9298 105.697 65.1159 106.019 65.2334 106.367C65.3509 106.716 65.3975 107.085 65.3705 107.452V107.497C62.4432 107.513 60.2491 108.168 59.0168 109.398C58.6249 109.789 58.3169 110.257 58.1119 110.772C57.9069 111.287 57.8091 111.839 57.8247 112.393C57.8247 114.295 59.2161 116.222 61.8749 116.222C62.5798 116.234 63.2792 116.095 63.9261 115.813C64.5731 115.532 65.1527 115.116 65.6262 114.592L65.7801 115.937H68.2675L68.2299 115.69C68.0988 114.701 68.0395 113.703 68.0524 112.705ZM65.4218 109.51V111.483C65.4225 111.706 65.3914 111.928 65.3294 112.142C65.1179 112.733 64.7248 113.242 64.2068 113.594C63.6888 113.946 63.0726 114.125 62.447 114.103C61.2497 114.103 60.5352 113.367 60.5352 112.133C60.5236 111.848 60.5717 111.562 60.6766 111.297C60.7815 111.031 60.9407 110.79 61.1441 110.589C61.8749 109.872 63.2603 109.508 65.2657 109.508L65.4218 109.51Z" fill="#D7D7D7"/>
<path d="M77.7657 102.66C76.9892 102.648 76.2206 102.819 75.5219 103.159C74.8233 103.499 74.214 104 73.7433 104.619L73.6373 102.92H71.1841L71.2012 103.151C71.2739 104.116 71.3047 105.13 71.3047 106.539V115.933H74.0136V108.155C73.9993 107.335 74.3052 106.542 74.8657 105.946C75.4263 105.349 76.1971 104.996 77.0136 104.962C79.2371 104.962 79.7036 106.868 79.7036 108.466V115.936H82.4116V108.233C82.4116 102.93 78.5418 102.66 77.7657 102.66Z" fill="#D7D7D7"/>
<path d="M88.7615 99.829L86.1043 100.635V102.92H84.1601V105.091H86.1043V111.74C86.1043 113.347 86.4105 114.474 87.0421 115.186C87.3828 115.532 87.792 115.803 88.2433 115.981C88.6946 116.158 89.178 116.239 89.6624 116.218C90.3731 116.228 91.0804 116.118 91.7551 115.894L91.9073 115.841L91.779 113.665L91.519 113.745C91.1094 113.859 90.6845 113.908 90.2598 113.891C89.2104 113.891 88.7632 113.224 88.7632 111.661V105.092H92.0296V102.921H88.7615V99.829Z" fill="#D7D7D7"/>
<path d="M103.407 112.705V107.998C103.407 105.564 102.543 102.661 98.4235 102.661C96.9285 102.648 95.4571 103.036 94.1625 103.786L94.0188 103.876L94.682 105.837L94.9142 105.68C95.8649 105.082 96.9665 104.769 98.0887 104.779C98.4404 104.75 98.7943 104.792 99.1296 104.902C99.4648 105.013 99.7746 105.19 100.041 105.422C100.284 105.697 100.47 106.019 100.588 106.367C100.705 106.716 100.752 107.085 100.725 107.452V107.497C97.7975 107.513 95.603 108.168 94.3707 109.398C93.9795 109.789 93.6722 110.257 93.4677 110.772C93.2632 111.287 93.1658 111.838 93.1815 112.392C93.1815 114.295 94.573 116.221 97.2318 116.221C97.9366 116.233 98.6359 116.094 99.2828 115.813C99.9297 115.531 100.509 115.115 100.983 114.591L101.137 115.936H103.624L103.587 115.69C103.455 114.7 103.394 113.703 103.407 112.705ZM100.776 109.51V111.483C100.777 111.706 100.746 111.928 100.683 112.142C100.472 112.733 100.079 113.241 99.5609 113.594C99.043 113.946 98.4268 114.125 97.8013 114.103C96.604 114.103 95.8895 113.367 95.8895 112.133C95.8779 111.848 95.9261 111.562 96.0309 111.297C96.1358 111.031 96.2951 110.79 96.4984 110.589C97.2292 109.872 98.6146 109.508 100.62 109.508L100.776 109.51Z" fill="#D7D7D7"/>
<path d="M109.73 99.829L107.073 100.635V102.92H105.129V105.091H107.073V111.74C107.073 113.347 107.379 114.474 108.011 115.186C108.351 115.532 108.761 115.803 109.212 115.981C109.663 116.158 110.147 116.239 110.631 116.218C111.342 116.228 112.049 116.118 112.724 115.894L112.876 115.841L112.748 113.665L112.488 113.745C112.078 113.859 111.653 113.908 111.228 113.891C110.179 113.891 109.732 113.224 109.732 111.661V105.092H112.998V102.921H109.732L109.73 99.829Z" fill="#D7D7D7"/>
<path d="M116.488 97.9546C116.272 97.9497 116.056 97.9888 115.855 98.0698C115.654 98.1507 115.471 98.2717 115.318 98.4254C115.165 98.5792 115.044 98.7625 114.964 98.9643C114.883 99.1661 114.844 99.3822 114.849 99.5995C114.84 99.8123 114.874 100.025 114.951 100.223C115.027 100.422 115.143 100.603 115.292 100.755C115.441 100.907 115.619 101.026 115.816 101.106C116.013 101.186 116.224 101.224 116.437 101.218C116.651 101.222 116.863 101.184 117.063 101.106C117.262 101.027 117.444 100.91 117.598 100.761C117.752 100.611 117.875 100.433 117.96 100.236C118.045 100.039 118.091 99.8272 118.094 99.6125C118.098 99.3977 118.059 99.1844 117.98 98.9848C117.901 98.7852 117.784 98.6031 117.634 98.4491C117.485 98.2951 117.307 98.1721 117.11 98.0873C116.914 98.0024 116.702 97.9573 116.488 97.9546Z" fill="#D7D7D7"/>
<path d="M117.843 102.921H115.134V115.936H117.843V102.921Z" fill="#D7D7D7"/>
<path d="M126.727 102.66C122.938 102.66 120.291 105.486 120.291 109.531C120.291 113.47 122.853 116.223 126.519 116.223C130.959 116.223 132.98 112.648 132.98 109.326C132.98 105.402 130.409 102.66 126.727 102.66ZM126.675 104.805C129.112 104.805 130.22 107.187 130.22 109.401C130.22 112.109 128.707 114.076 126.623 114.076C124.554 114.076 123.052 112.132 123.052 109.454C123.052 107.141 124.173 104.807 126.675 104.807V104.805Z" fill="#D7D7D7"/>
<path d="M141.891 102.66C141.114 102.648 140.345 102.819 139.647 103.159C138.948 103.499 138.339 104 137.868 104.619L137.762 102.92H135.309L135.326 103.151C135.399 104.116 135.43 105.13 135.43 106.539V115.933H138.138V108.155C138.125 107.335 138.431 106.543 138.991 105.946C139.552 105.35 140.322 104.997 141.138 104.962C143.362 104.962 143.828 106.868 143.828 108.466V115.936H146.537V108.233C146.536 102.93 142.666 102.66 141.891 102.66Z" fill="#D7D7D7"/>
<path d="M154.15 108.241C152.404 107.546 151.927 107.126 151.927 106.282C151.927 105.37 152.657 104.781 153.786 104.781C154.655 104.788 155.504 105.038 156.239 105.502L156.471 105.649L157.152 103.568L157.014 103.477C156.05 102.918 154.952 102.636 153.839 102.663C151.206 102.663 149.296 104.306 149.296 106.569C149.296 108.224 150.468 109.49 152.778 110.333C154.4 110.943 154.947 111.469 154.947 112.42C154.947 113.474 154.146 114.078 152.75 114.078C151.72 114.039 150.716 113.746 149.826 113.224L149.595 113.086L148.917 115.222L149.064 115.308C150.177 115.922 151.429 116.237 152.699 116.222C155.663 116.222 157.578 114.648 157.578 112.211C157.578 110.354 156.519 109.129 154.15 108.241Z" fill="#D7D7D7"/>
</svg>
