<svg width="304" height="132" viewBox="0 0 304 132" fill="none" xmlns="http://www.w3.org/2000/svg">
<path d="M66.1557 0L0.133925 0.0684343L0 66C0 102.449 29.617 132 66.1557 132C102.694 132 132.308 102.449 132.308 66C132.308 29.5506 102.691 0 66.1557 0ZM39.7267 82.1635H34.1901V69.7508H21.6044V82.1635H16.022V46.8971H21.6044V64.2728H34.1901V46.8971H39.7267V82.1635ZM70.7581 69.425C70.7581 77.8782 66.7306 82.1635 58.7866 82.1635C50.8425 82.1635 46.864 77.8782 46.864 69.425V46.8971H52.4006V69.4576C52.4006 71.9082 52.8057 73.6875 53.6027 74.7531C54.5663 76.0338 56.3073 76.6855 58.7866 76.6855C61.2658 76.6855 63.0264 76.0338 64.0227 74.7498C64.8164 73.6614 65.2215 71.8788 65.2215 69.4608V46.9003H70.7581V69.4282V69.425ZM113.288 82.1635V59.6845C113.288 57.2404 112.882 55.4611 112.085 54.3988C111.122 53.1181 109.381 52.4663 106.902 52.4663C104.422 52.4663 102.662 53.1181 101.665 54.402C100.872 55.4872 100.467 57.2665 100.467 59.6845V82.1635H94.93V59.6845C94.93 57.2404 94.5249 55.4611 93.7279 54.3988C92.7643 53.1181 91.0233 52.4663 88.544 52.4663C86.0648 52.4663 84.3042 53.1181 83.3079 54.402C82.5141 55.4872 82.1091 57.2665 82.1091 59.6845V82.1635H76.5724V59.6845C76.5724 51.2019 80.6 46.9003 88.544 46.9003C92.5879 46.9003 95.6682 48.1126 97.6999 50.5045C99.7643 48.1126 102.854 46.9003 106.902 46.9003C114.813 46.9003 118.824 51.2019 118.824 59.6845V82.1635H113.288Z" fill="#D7D7D7"/>
<path d="M143.813 82.1961V46.8677H163.349V52.3881H149.444V61.8157H160.86V67.3394H149.444V76.6725H163.349V82.1961H143.813Z" fill="#D7D7D7"/>
<path d="M187.266 82.1961V59.6454C187.266 57.2013 186.865 55.422 186.068 54.3629C185.104 53.0529 183.366 52.3881 180.897 52.3881C178.427 52.3881 176.69 53.0496 175.729 54.3596C174.932 55.422 174.527 57.198 174.527 59.6454V82.1961H168.896V59.6812C168.896 51.1791 172.933 46.8677 180.893 46.8677C188.854 46.8677 192.845 51.1791 192.845 59.6812V82.1961H187.263H187.266Z" fill="#D7D7D7"/>
<path d="M199.806 82.1961V46.8677H219.343V52.3881H205.438V61.8157H216.854V67.3394H205.438V76.6725H219.343V82.1961H199.806Z" fill="#D7D7D7"/>
<path d="M241.614 82.1961V75.6623C241.614 73.3551 241.013 71.7452 239.83 70.8816C238.857 70.1484 237.22 69.7769 234.963 69.7769H230.475V82.1961H224.889V46.8677H234.963C243.113 46.8677 247.245 50.7229 247.245 58.3223C247.245 62.109 246.125 65.0224 243.913 66.9907C246.125 68.9329 247.245 71.8462 247.245 75.6623V82.1961H241.614ZM234.963 64.2533C237.253 64.2533 238.906 63.8785 239.873 63.1453C241.029 62.2752 241.614 60.6523 241.614 58.3223C241.614 55.9923 241.013 54.402 239.824 53.4993C238.857 52.7628 237.22 52.3913 234.963 52.3913H230.475V64.2533H234.963Z" fill="#D7D7D7"/>
<path d="M264.26 82.1961C256.329 82.1961 252.308 77.9011 252.308 69.4282V59.6812C252.308 51.1791 256.329 46.8677 264.26 46.8677C272.191 46.8677 276.258 51.1791 276.258 59.6812V60.0299H270.689V59.6812C270.689 57.2241 270.287 55.4383 269.49 54.3727C268.503 53.0594 266.752 52.3913 264.29 52.3913C261.827 52.3913 260.092 53.0561 259.138 54.3629C258.341 55.4253 257.94 57.2078 257.94 59.6552V69.4282C257.94 71.8853 258.341 73.6744 259.135 74.7368C260.089 76.0175 261.82 76.6692 264.286 76.6692C266.753 76.6692 268.5 76.0175 269.487 74.7335C270.238 73.6972 270.64 72.0287 270.676 69.7737H263.914V64.25H276.261V69.425C276.261 77.8978 272.224 82.1929 264.263 82.1929L264.26 82.1961Z" fill="#D7D7D7"/>
<path d="M289.209 82.1961V69.539C283.131 68.5484 280.05 64.3185 280.05 56.9601V46.8645H285.633V56.9601C285.633 59.401 286.034 61.177 286.831 62.2329C287.792 63.5396 289.533 64.2012 292.002 64.2012C294.472 64.2012 296.229 63.5396 297.219 62.2329C298.013 61.1738 298.418 59.401 298.418 56.9601V46.8645H304V56.9601C304 64.3185 300.92 68.5484 294.841 69.539V82.1961H289.209Z" fill="#D7D7D7"/>
</svg>
