<svg width="301" height="84" viewBox="0 0 301 84" fill="none" xmlns="http://www.w3.org/2000/svg">
<path d="M300.4 65.4H0.100098V36.9H300.4V65.4Z" fill="#D7D7D7"/>
<path d="M71.3 51.6C70.4 51 69.3 50.6 68.2 50.5C69.3 50.3 70.3 49.9 71.2 49.3C71.9 48.8 72.2001 48 72.1001 47.1L72.3 46.5C72.5 44.9 71.7001 43.4 70.4001 42.6C68.7001 41.2 66 41.2 63.1 41.2H48.3V60.3H65C66.9 60.4 68.7 60.1 70.5 59.5C71.9 59 72.9 57.6 72.8 56.1V55.2C72.8 53.7 72.8 52.6 71.3 51.6ZM55.8 45.4H62.2001C62.7001 45.3 63.3 45.4 63.8 45.7C64.2 45.9 64.4001 46.2 64.4001 46.6V47.4C64.4001 48 64.2 48.3 63.8 48.5C63.4 48.7 63 48.8 62.6 48.8H55.9001V45.4H55.8ZM65 53.8V54.7C65 55.1 64.7001 55.6 64.4001 55.8C63.8001 56 63.2 56 62.6 56H55.7001V52.4H62.7001C63.3001 52.4 63.9001 52.5 64.4001 52.7C64.8001 53 65 53.4 65 53.8ZM94 53.6C94.1 54.3 93.9 54.9 93.5 55.5C92.9 56 92.1 56.1 91.3 56H88.3C87.5 56 85.8 56.2 85.2 55.5C84.6 55 84.6001 54.4 84.6001 53.6V41.1H76.8V54.1C76.8 54.4 76.8 56.9 78.2 58.3C80.9 60.6 86.3 60.3 88.7 60.2H91.2C94.2 60.4 97.6 60.2 99.8 58.8C101.8 57.6 102.1 56.1 102.1 54.3V41.1H94V53.6ZM107.4 41.1H115.2V60.2H107.4V41.1ZM128.4 41.1H120.5V60.2H140.7V56H128.4M166.5 43.5C164.2 41.5 159.6 41.2 157.3 41.2H157.4H143V60.3H158C160.4 60.4 162.8 60.1 165 59.2C168.1 58 168.7 55.8 168.7 53.3V48C168.6 46.2 167.8 44.6 166.5 43.5ZM159.6 55.5C158.7 55.9 157.7 56.1 156.8 56H150.5V45.4H156.6C157.7 45.4 158.8 45.6 159.7 46C160.3 46.6 160.6 47.4 160.5 48.2V53.2C160.7 54.1 160.4 55 159.6 55.5ZM181.2 52.4H193.1V48.8H181.2V45.4H193.6V41.1H173.3V60.2H194.4V56H181.2M223.5 48.2V47.1C223.7 45.1 223.7 43.5 220.8 42.3C218.8 41.5 216.6 41.2 214.4 41.2H198.9V60.3H206.9V55.3H212.5C213.3 55.2 214.1 55.5 214.7 55.9C215.3 56.2 215.5 56.5 215.5 57V60.3H223.5V57.2C223.6 55.8 222.9 54.5 221.6 53.9C220.8 53.5 219.9 53.2 218.9 53C220.2 52.8 221.3 52.4 222.3 51.6C223.6 50.5 223.6 50 223.5 48.2ZM215 50.5C214.3 50.8 213.6 50.9 212.8 50.8H206.9V45.3H213C213.7 45.3 214.5 45.4 215.2 45.6C215.5 46 215.7 46.6 215.7 47.2V48.8C215.7 49.4 215.8 50 215 50.5ZM252.2 55V54.1C252.3 52.3 251.3 50.6 249.7 49.9C248.4 49.2 246.8 48.8 245.3 49L238.1 48.5C237.4 48.5 236.6 48.7 236.1 48.2C235.5 47.9 235.5 47.6 235.5 47V46.7C235.5 46.2 235.7 45.7 236.1 45.5C237.1 45.2 238.2 45.1 239.2 45.2H240.3C241.5 45.2 242.8 45 243.4 45.7C243.6 46 243.8 46.3 243.7 46.6V47.2H251.2V46.4C251.3 44.5 250.1 42.7 248.4 42C246.4 41.1 243.4 41.2 242.5 41.2H237.5C236.4 41.2 231.9 41.2 230.5 42.1C228.9 43 227.9 44.8 228 46.6V47.2C228 48.6 228.3 50.5 230 51.3C231.4 52.1 234.2 52.4 236.1 52.5L241.7 52.7C242.5 52.8 243.3 52.9 244 53.2C244.4 53.5 244.7 54.1 244.6 54.6V54.9C244.6 55.3 244.3 55.7 244 56C243 56.4 241.9 56.6 240.9 56.5H239.2C238.7 56.5 236.4 56.5 235.6 55.7C235.3 55.5 235.2 55.1 235.1 54.8V54H228V55.1C227.8 56.9 228.7 58.6 230.3 59.3C233.1 60.5 236.2 60.2 237.8 60.2H240.9C243.6 60.2 247.6 60.5 250.1 59.1C251.7 58.3 252.4 56.7 252.2 55Z" fill="#E0DFD9"/>
<path d="M19.7 12H12.5V0.8H0V32.2H12.5V21.1H19.7V32.2H32.2V0.8H19.7M93.7 16.1C93.7 27.7 98.2 33 110.4 33C114.4 32.9 118.3 32.3 122.1 31.1V21.6C119.3 22.3 116.5 22.6 113.7 22.7C109.7 22.7 106.7 21.9 106.7 17.4C106.7 12.9 109.3 11.6 113.7 11.6C116.5 11.7 119.4 11.9 122.1 12.4V2C120 1.6 114.5 0 110.1 0C101.7 0 97 2.9 95 8.2V0.8H54.1V21.8C54.1 24.5 52.4 24.9 50.5 24.9C48.6 24.9 46.8 24.4 46.8 21.8V0.8H34.4V22.2C34.4 30.6 40.2 33 50.5 33C60.8 33 66.6 30.7 66.6 22.2V11.2H74V32.2H86.3V11.2H94.1C93.9 12.7 93.7 14.4 93.7 16.1ZM144.6 12H137.2V0.8H124.8V32.2H137.2V21.1H144.6V32.2H157.1V0.8H144.6M159.7 0.8H172.2V32.2H159.7V0.8ZM288.9 0.8L289.7 18.2L282.4 0.8H268.3V12.2C267.4 3.2 262.5 0 251.5 0C239.5 0 234.8 3.9 234.8 15.5C234.8 16.4 234.8 17.2 234.9 18C233.5 14.5 229.9 13.9 222.6 13.9C219.8 13.9 219.2 13.1 219.2 12C219.2 10.3 220.3 9.7 224 9.7C227.5 9.8 231 10 234.5 10.5V1.1C230.2 0.4 225.8 0.1 221.4 0C214.8 0 208.4 1.1 207.3 8.1V0.8H195.7L196.6 18.2H196.5L189.3 0.8H175.1V32.2H186.7L185.9 13H186L194.4 32.2H207.2V12.9C208 19.7 212 20.5 217.2 20.5H220C222.7 20.5 223.3 21 223.3 22.7C223.3 24.4 222.1 24.9 219.6 24.9C212.6 24.9 209.8 24.4 208.3 24.1V32.2C212.8 32.7 217.4 33 221.9 33C229.9 33 235.5 31.9 235.5 22.8C237.2 29.6 242 33 251.4 33C262.6 33 267.3 28.3 268.1 18.9V32.2H279.7L279.1 13L287.7 32.2H300.5V0.8H288.9ZM251.5 23.9C248.2 23.9 246.5 21.9 246.5 17.2C246.5 13.3 247.3 10.8 251.5 10.8C255.9 10.8 256.7 13.3 256.7 17.2C256.7 21.9 255 23.9 251.5 23.9ZM90 78.5H95.7V76.6H90V74.1H96V72.2H87.7V83.5H96.3V81.6H90M102 78.5C101.3 78.4 100.6 78.2 100 77.9C99.9 77.8 99.8 77.7 99.8 77.5C99.8 77.3 99.9 77.2 100 77.1C100.4 76.9 100.8 76.8 101.2 76.9C101.6 76.9 101.9 77 102.2 77.1C102.4 77.3 102.6 77.5 102.7 77.8L104.7 77.4C104.5 76.7 104.1 76.2 103.6 75.8C102.8 75.4 102 75.2 101.1 75.3C100.2 75.2 99.3 75.5 98.5 76C98 76.4 97.7 77.1 97.7 77.8C97.7 78.5 98.1 79.2 98.7 79.6C99.7 80.1 100.9 80.5 102 80.6C102.3 80.6 102.5 80.7 102.7 80.9C102.8 81 102.9 81.2 102.9 81.3C102.9 81.5 102.8 81.7 102.6 81.9C102.2 82.1 101.8 82.2 101.3 82.2C100.9 82.2 100.5 82.1 100.1 81.9C99.8 81.6 99.6 81.3 99.5 80.9L97.3 81.2C97.5 82 97.9 82.7 98.6 83.1C99.4 83.6 100.3 83.8 101.2 83.8C102.2 83.9 103.2 83.6 104 83C104.6 82.5 104.9 81.8 104.9 81.1C104.9 80.5 104.7 79.9 104.2 79.5C103.7 79 102.9 78.6 102 78.5ZM109.8 81.9C109.7 81.9 109.5 81.9 109.4 81.8C109.3 81.7 109.2 81.6 109.2 81.5V77H110.7V75.3H109.2V72.4L107 73.7V75.3H106V77H107V80.6C107 81.1 107 81.6 107.1 82.1C107.1 82.4 107.2 82.7 107.4 82.9C107.6 83.1 107.8 83.3 108.1 83.4C108.4 83.5 108.8 83.6 109.1 83.6C109.7 83.6 110.3 83.5 110.8 83.3L110.6 81.6C110.4 81.8 110.1 81.9 109.8 81.9ZM118.8 80.8V78.3C118.8 77.6 118.7 77 118.5 76.4C118.3 76 117.9 75.7 117.5 75.5C116.8 75.2 116.1 75.1 115.4 75.2C114.6 75.1 113.7 75.3 113 75.8C112.4 76.2 112 76.9 111.9 77.5L113.9 77.8C114 77.5 114.1 77.2 114.4 77C114.7 76.8 115 76.8 115.3 76.8C115.7 76.8 116.1 76.9 116.5 77.1C116.7 77.3 116.8 77.7 116.8 78V78.2C116.1 78.4 115.4 78.6 114.7 78.7C114.1 78.8 113.5 79 113 79.2C112.6 79.4 112.3 79.7 112.1 80C111.9 80.4 111.8 80.8 111.8 81.2C111.8 81.9 112 82.5 112.5 82.9C113.1 83.4 113.8 83.6 114.5 83.6C115 83.6 115.4 83.5 115.8 83.3C116.2 83.1 116.6 82.8 117 82.5C117 82.5 117.1 82.6 117.1 82.7C117.2 83 117.3 83.2 117.3 83.3H119.4C119.2 83 119.1 82.6 119 82.2C118.8 81.9 118.8 81.4 118.8 80.8ZM116.7 80C116.7 80.4 116.7 80.7 116.6 81C116.5 81.3 116.3 81.5 116.1 81.7C115.8 81.9 115.4 82.1 115 82.1C114.7 82.1 114.4 82 114.1 81.8C113.9 81.6 113.8 81.3 113.8 81C113.8 80.7 114 80.4 114.2 80.2C114.6 80 115 79.9 115.4 79.8C116 79.7 116.4 79.6 116.7 79.5V80ZM125.4 75.1C124.5 75.1 123.6 75.5 123 76.2V72.1H120.9V83.4H122.9V82.2C123.2 82.6 123.6 83 124.1 83.2C124.5 83.4 125 83.5 125.5 83.5C126.4 83.5 127.3 83.1 127.9 82.4C128.6 81.5 129 80.3 128.9 79.2C129 78.1 128.6 77 127.9 76.1C127.2 75.5 126.3 75.1 125.4 75.1ZM126.1 81.4C125.8 81.8 125.4 82 124.9 82C124.3 82 123.7 81.7 123.4 81.1C123.1 80.5 123 79.9 123 79.2C123 78.6 123.1 77.9 123.5 77.4C123.8 77 124.3 76.8 124.8 76.8C125.3 76.8 125.8 77 126.1 77.4C126.5 78 126.7 78.7 126.6 79.4C126.7 80.1 126.5 80.8 126.1 81.4ZM130.6 72.2H132.8V83.5H130.6V72.2ZM135 75.3H137.2V83.5H135V75.3ZM135 72.2H137.2V74.2H135V72.2ZM143.1 78.4C142.4 78.3 141.7 78.1 141.1 77.8C141 77.7 140.9 77.6 140.9 77.4C140.9 77.2 141 77.1 141.1 77C141.5 76.8 141.9 76.7 142.3 76.8C142.7 76.8 143 76.9 143.3 77C143.5 77.2 143.7 77.4 143.8 77.7L145.8 77.3C145.6 76.6 145.2 76.1 144.7 75.7C143.9 75.3 143.1 75.1 142.2 75.2C141.3 75.1 140.4 75.4 139.6 75.9C139.1 76.3 138.8 77 138.8 77.7C138.8 78.4 139.2 79.1 139.8 79.5C140.8 80 142 80.4 143.1 80.5C143.4 80.5 143.6 80.6 143.8 80.8C143.9 80.9 144 81.1 143.9 81.2C144 81.5 143.9 81.7 143.7 81.9C143.3 82.1 142.9 82.2 142.4 82.2C142 82.2 141.6 82.1 141.2 81.9C140.9 81.6 140.7 81.3 140.6 80.9L138.4 81.2C138.6 81.9 139 82.6 139.7 83C140.5 83.5 141.4 83.7 142.3 83.7C143.3 83.8 144.3 83.5 145.1 82.9C145.7 82.4 146 81.7 146 81C146 80.4 145.8 79.8 145.3 79.4C144.8 78.9 144 78.5 143.1 78.4ZM155 76.1C154.8 75.8 154.5 75.5 154.1 75.4C152.8 74.8 151.2 75.2 150.3 76.3V72.2H148.1V83.5H150.2V79.4C150.2 78.9 150.2 78.3 150.4 77.8C150.5 77.5 150.7 77.2 151 77C151.3 76.8 151.6 76.7 152 76.7C152.3 76.7 152.5 76.8 152.8 76.9C153 77 153.2 77.2 153.2 77.4C153.3 77.9 153.3 78.5 153.3 79V83.3H155.5V78.5C155.5 78 155.5 77.4 155.4 76.9C155.4 76.8 155.2 76.4 155 76.1ZM160.8 75.2C159.8 75.2 158.8 75.6 158.1 76.3C157.4 77.2 157 78.3 157 79.5C157 80.5 157.2 81.5 157.8 82.3C158.6 83.3 159.7 83.8 161 83.7C161.8 83.7 162.6 83.5 163.2 83.1C163.8 82.7 164.3 82 164.5 81.3L162.4 80.9C162.3 81.2 162.1 81.5 161.9 81.8C161.7 82 161.4 82.1 161.1 82.1C160.6 82.1 160.2 81.9 159.9 81.6C159.5 81.2 159.4 80.6 159.4 80.1H164.8C164.9 78.8 164.6 77.5 163.8 76.4C163 75.6 161.9 75.1 160.8 75.2ZM159.4 78.7C159.4 78.2 159.5 77.7 159.9 77.3L160 77.2C160.6 76.6 161.6 76.7 162.2 77.3C162.5 77.7 162.7 78.2 162.7 78.7H159.4ZM171.9 76.3C171.3 75.6 170.5 75.2 169.5 75.2C168.6 75.2 167.7 75.6 167 76.3C165.7 78.2 165.7 80.7 167 82.6C167.6 83.3 168.5 83.7 169.4 83.7C169.9 83.7 170.3 83.6 170.8 83.4C171.3 83.2 171.7 82.8 172 82.4V83.6H174V72.2H171.9V76.3ZM171.3 81.3C171 81.7 170.5 81.9 170 81.9C169.4 81.9 168.8 81.6 168.5 81.1C168.2 80.5 168.1 79.9 168.1 79.2C168.1 78.6 168.2 77.9 168.6 77.4C168.9 77 169.4 76.8 169.9 76.8C170.4 76.8 170.9 77 171.2 77.4C171.6 78 171.8 78.7 171.7 79.4C171.9 80.1 171.7 80.8 171.3 81.3ZM183.8 72.2C183.5 72.9 183.1 73.5 182.4 74C181.9 74.5 181.2 74.8 180.6 75V77C181.6 76.7 182.6 76.1 183.4 75.4V83.5H185.6V72.1H183.8V72.2ZM194.9 73.4C193.5 71.9 191.1 71.9 189.7 73.3C189 74.1 188.6 75 188.7 76.1C188.7 77.1 189 78 189.7 78.8C190.3 79.5 191.1 79.8 192 79.8C192.8 79.8 193.5 79.5 194 78.9C194 79.8 193.8 80.7 193.4 81.4C193.1 81.8 192.7 82 192.3 82C192 82 191.7 81.9 191.5 81.7C191.3 81.4 191.1 81.1 191.1 80.8L189 81C189.1 81.8 189.4 82.6 190 83.1C190.6 83.6 191.4 83.8 192.1 83.8C193.3 83.8 194.4 83.3 195.1 82.4C196 81.1 196.4 79.5 196.2 77.9C196.3 76.4 195.9 74.8 195.1 73.5C195 73.5 194.9 73.4 194.9 73.4ZM193.7 76.2C193.7 76.7 193.6 77.2 193.3 77.6L193.1 77.8C192.5 78.3 191.6 78.2 191.2 77.6C190.9 77.1 190.7 76.6 190.8 76C190.8 75.5 190.9 74.9 191.2 74.5C191.4 74.2 191.8 74 192.2 74C192.6 74 193 74.2 193.3 74.6C193.6 75 193.8 75.6 193.7 76.2ZM201.4 72.2C201.1 72.9 200.7 73.5 200 74C199.5 74.5 198.8 74.8 198.2 75V77C199.2 76.7 200.2 76.1 201 75.4V83.5H203.2V72.1H201.4V72.2ZM211.1 79.6C211.6 79.2 212.1 78.7 212.5 78.2C212.9 77.8 213.1 77.3 213.4 76.8C213.6 76.3 213.7 75.8 213.7 75.4C213.7 74.5 213.3 73.7 212.7 73.2C212 72.6 211 72.2 210.1 72.3C209.2 72.3 208.3 72.5 207.6 73.1C206.9 73.7 206.4 74.7 206.4 75.7L208.5 75.9C208.5 75.4 208.7 74.9 209 74.6C209.6 74.1 210.5 74.1 211.1 74.6C211.4 74.9 211.5 75.3 211.5 75.7C211.5 76.2 211.3 76.6 211.1 77C210.6 77.7 210 78.3 209.3 78.8C208.4 79.6 207.6 80.5 206.9 81.5C206.5 82.2 206.2 82.9 206.2 83.7H213.8V81.7H209.6C209.7 81.5 209.9 81.3 210 81.1C210 80.7 210.5 80.3 211.1 79.6Z" fill="#D7D7D7"/>
</svg>
