<svg width="281" height="100" viewBox="0 0 281 100" fill="none" xmlns="http://www.w3.org/2000/svg">
<path d="M137.038 43.5324L133.073 40.7293V44.6544H120.939V47.5764H131.967V53.1269H120.939V56.041H133.43V60.2634L137.157 57.6645C142.352 53.8188 142.3 47.4614 137.038 43.5324Z" fill="#D7D7D7"/>
<path d="M113.732 38.6558H130.148L79.5658 2.99729C76.7808 1.07451 73.4832 0.0307032 70.0989 0.000666947C66.7146 -0.0293693 63.399 0.955745 60.5802 2.82879L3.84958 42.3529C-1.33299 46.1887 -1.27747 52.5461 3.9844 56.4771L61.4605 97.0082C64.2473 98.9276 67.5447 99.9693 70.9285 99.9993C74.3123 100.029 77.6277 99.0463 80.4481 97.1767L130.886 62.0336H113.732V38.6558ZM62.7116 62.0336H55.5127V52.7681H48.7718V62.0336H41.5748V38.6558H48.7718V46.7834H55.5127V38.6558H62.7096L62.7116 62.0336ZM79.6372 53.4263V62.0336H72.4343V53.4263L64.2223 38.6558H72.1667L76.0585 47.2651L80.117 38.6558H88.0137L79.6372 53.4263ZM109.971 62.0336H102.965L95.8015 49.2653H95.738V62.0336H88.9277V38.6558H96.2951L103.096 51.1684H103.159V38.6558H109.969L109.971 62.0336Z" fill="#D7D7D7"/>
<path d="M155.356 44.7317H148.906V38.8302H168.899V44.7317H162.449V61.8493H155.356V44.7317Z" fill="#D7D7D7"/>
<path d="M171.51 38.8302H178.604V61.8493H171.51V38.8302Z" fill="#D7D7D7"/>
<path d="M182.214 38.8302H192.314L195.601 52.3717H195.664L198.951 38.8302H209.051V61.8493H202.342V47.0827H202.278L198.261 61.8493H192.982L188.987 47.0847H188.915V61.8493H182.214V38.8302Z" fill="#D7D7D7"/>
<path d="M212.685 38.8302H225.284C226.541 38.7898 227.793 38.9813 228.98 39.3952C229.829 39.7031 230.6 40.1937 231.238 40.8324C231.755 41.36 232.136 42.0057 232.347 42.7137C232.532 43.3265 232.63 43.9625 232.638 44.6028C232.689 45.5871 232.418 46.5612 231.867 47.3781C231.309 48.0995 230.604 48.6936 229.799 49.1206C230.327 49.2928 230.832 49.5305 231.302 49.8283C231.787 50.136 232.217 50.5226 232.575 50.9721C232.959 51.4733 233.259 52.0337 233.463 52.6313C233.698 53.3495 233.813 54.1018 233.802 54.8575C233.823 55.9143 233.585 56.9603 233.11 57.9044C232.663 58.7528 232.041 59.4962 231.284 60.085C230.511 60.677 229.638 61.1243 228.706 61.4052C227.744 61.7071 226.741 61.8596 225.733 61.8572H212.677L212.685 38.8302ZM219.771 47.7905H223.514C224.128 47.8249 224.74 47.692 225.284 47.4059C225.517 47.234 225.7 47.0029 225.813 46.7366C225.927 46.4702 225.967 46.1783 225.929 45.8914C225.949 45.6449 225.898 45.3978 225.781 45.18C225.663 44.9622 225.486 44.7831 225.269 44.6643C224.721 44.4055 224.119 44.2843 223.514 44.3114H219.771V47.7905ZM219.771 56.3661H223.934C224.288 56.368 224.641 56.3368 224.989 56.2729C225.301 56.2157 225.6 56.1007 225.869 55.9339C226.129 55.7727 226.342 55.5447 226.484 55.2738C226.648 54.9323 226.726 54.5561 226.712 54.1776C226.712 52.7807 225.883 52.0816 224.226 52.0803H219.775L219.771 56.3661Z" fill="#D7D7D7"/>
<path d="M236.572 38.8302H255.628V44.7317H243.663V47.5982H254.524V53.0794H243.663V55.9498H255.979V61.8493H236.57L236.572 38.8302Z" fill="#D7D7D7"/>
<path d="M259.269 38.8302H272.774C273.746 38.8241 274.714 38.9658 275.643 39.2505C276.512 39.5103 277.324 39.9321 278.036 40.4934C278.727 41.0464 279.288 41.744 279.68 42.5372C280.105 43.433 280.315 44.4161 280.292 45.4077C280.291 46.0086 280.22 46.6074 280.08 47.1918C279.945 47.7703 279.734 48.3283 279.452 48.851C279.172 49.3704 278.807 49.8394 278.373 50.2387C277.928 50.6474 277.407 50.9653 276.84 51.1743C277.837 51.5598 278.66 52.2918 279.16 53.236C279.777 54.3699 280.142 55.6235 280.231 56.9112C280.245 57.1908 280.268 57.5555 280.292 58.0095C280.316 58.4634 280.348 58.9233 280.403 59.409C280.459 59.8947 280.528 60.3566 280.615 60.7966C280.674 61.1666 280.805 61.5215 281 61.8413H273.906C273.735 61.2662 273.606 60.6791 273.522 60.085C273.434 59.4903 273.371 58.8956 273.323 58.3009C273.284 57.7656 273.22 57.2284 273.149 56.6892C273.082 56.1848 272.933 55.6947 272.709 55.2381C272.502 54.8169 272.184 54.4603 271.789 54.2073C271.287 53.9231 270.713 53.7896 270.137 53.8227H266.37V61.8493H259.274L259.269 38.8302ZM266.364 48.8867H270.068C270.417 48.8866 270.766 48.8661 271.113 48.8252C271.47 48.7884 271.817 48.6842 272.136 48.518C272.44 48.3523 272.699 48.1148 272.891 47.8261C273.113 47.4568 273.22 47.0295 273.198 46.5991C273.215 46.2791 273.157 45.9597 273.028 45.6662C272.9 45.3727 272.705 45.1131 272.459 44.9081C271.618 44.426 270.648 44.2181 269.683 44.3134H266.364V48.8867Z" fill="#D7D7D7"/>
</svg>
