<svg width="257" height="43" viewBox="0 0 257 43" fill="none" xmlns="http://www.w3.org/2000/svg">
<path d="M55.8333 26.2645H74.6726V16.4373H55.8333V10.3919H77.2428V0.564779H45.0628V42.4262H77.5284V32.599H55.8333V26.2645Z" fill="#D7D7D7"/>
<path d="M94.1374 0.564779H83.308V42.4262H114.06V32.4273H94.1374V0.564779Z" fill="#D7D7D7"/>
<path d="M136.127 16.5864C128.915 14.743 128.271 13.9975 128.271 12.3348V12.2218C128.271 10.7308 129.889 9.76841 132.387 9.76841C135.343 9.76841 138.552 10.9929 142.197 13.514L143.035 14.0969L148.72 5.87822L147.981 5.28633C143.597 1.77566 138.389 0 132.5 0C123.666 0 117.496 5.3541 117.496 13.0215V13.1345C117.496 22.0083 123.842 24.3442 131.508 26.2961C138.285 28.0266 138.792 29.0341 138.792 30.3761V30.489C138.792 33.0328 135.161 33.2271 134.046 33.2271C130.166 33.2271 126.585 31.7632 122.763 28.623L121.984 27.9814L115.506 35.7121L116.24 36.3672C121.045 40.6415 127.31 43 133.874 43C143.407 43 149.563 37.7543 149.563 29.6351V29.5221C149.563 21.6875 144.191 18.6829 136.122 16.5909L136.127 16.5864Z" fill="#D7D7D7"/>
<path d="M166.407 0.564779H155.578V42.4262H166.407V0.564779Z" fill="#D7D7D7"/>
<path d="M188.406 0.28013L170.415 42.4262H181.602L185.256 33.4936H200.781L204.435 42.4262H215.854L197.858 0.28013H188.402H188.406ZM196.806 23.7207H189.227L193.016 14.499L196.806 23.7207Z" fill="#D7D7D7"/>
<path d="M246.284 0.564779V23.0927L229.086 0.564779H219.457V42.4262H230.174V19.0986L247.997 42.4262H257V0.564779H246.284Z" fill="#D7D7D7"/>
<path d="M13.454 16.4012V0.564779H0V27.8639L42.3883 0.564779H25.317L13.454 16.4012ZM27.375 18.5654L42.3883 0.564779C42.3883 0.564779 10.5756 29.2601 0 38.8839V42.4262H13.8212V32.6939L17.0895 28.8308L26.0513 42.4262H42.8008L27.384 18.5654H27.375Z" fill="#D7D7D7"/>
</svg>
