<svg width="311" height="89" viewBox="0 0 311 89" fill="none" xmlns="http://www.w3.org/2000/svg">
<path d="M37.9196 55.7959V42.1265H19.4313C16.3789 42.1265 13.8972 39.6909 13.8724 36.6588V0.0248534H0V38.4233C0.0744494 48.0913 7.94127 55.8456 17.5701 55.7959H37.9196ZM85.9394 65.0165C85.8402 52.1921 75.3676 41.878 62.5623 41.9774H54.3233V55.6716H62.4879C67.6001 55.7462 71.6948 59.9464 71.6203 65.0662C71.5459 70.186 67.3519 74.2868 62.2397 74.2122C57.1771 74.1377 53.1072 70.012 53.1072 64.9419V0H39.1852V65.0165C39.1852 71.1553 41.6669 77.0207 46.0346 81.3203C50.4519 85.6696 56.383 88.0804 62.5871 88.0804C75.3924 88.1798 85.865 77.8657 85.9643 65.0413" fill="#D7D7D7"/>
<path d="M167.958 89C151.728 89 141.255 80.2765 141.255 66.7562C141.255 53.236 151.703 44.5124 167.958 44.5124C184.213 44.5124 194.735 53.236 194.735 66.7562C194.735 80.2765 184.213 89 167.958 89ZM310.975 88.0556H268.192V45.4817H311V56.6906H281.121V61.0399H310.429V71.7766H281.121V76.8467H310.95V88.0804L310.975 88.0556ZM246.254 88.0556H233.275V56.6657H214.886V45.4817H264.692V56.6906H246.229V88.0556H246.254ZM198.482 88.0556V45.4817H211.461V88.0556H198.482ZM92.8632 88.0556V45.4817H125.075C133.488 45.4817 138.923 49.9802 138.923 56.964C138.923 61.8849 136.168 65.0662 130.957 66.3337C136.888 67.5267 140.288 71.1801 140.288 76.4987C140.288 83.4328 134.729 88.0556 126.415 88.0556H92.8632ZM167.958 55.7213C161.679 55.7213 154.21 57.635 154.21 66.7562C154.21 75.8774 161.679 77.7911 167.958 77.7911C174.236 77.7911 181.756 75.8774 181.756 66.7562C181.756 57.635 174.261 55.7213 167.958 55.7213ZM105.966 76.7721H124.331C126.936 76.7721 127.284 75.4052 127.284 74.3613C127.284 72.0003 125.447 71.6523 124.331 71.6523H105.917L105.966 76.7721ZM105.917 61.2139H123.04C125.149 61.2139 125.993 60.5926 125.993 58.9771C125.993 57.3616 125.125 56.6906 123.04 56.6906H105.867L105.917 61.2139Z" fill="#D7D7D7"/>
<path d="M197.167 42.5739H181.83L177.909 35.5901H152.1L148.179 42.5739H132.818L158.279 0H171.705L197.142 42.5739H197.167ZM132.123 42.5739H92.8632V0H105.842V31.3898H132.123V42.5739ZM158.329 24.3563H171.631L165.005 12.3521L158.329 24.3563Z" fill="#D7D7D7"/>
</svg>
