<svg width="306" height="104" viewBox="0 0 306 104" fill="none" xmlns="http://www.w3.org/2000/svg">
<path d="M142.428 83.9393L147.044 61.5892C147.905 57.2212 144.974 55.7801 144.974 55.7801H158.067C158.067 55.7801 154.391 57.0996 153.442 61.5892L148.275 86.3501H156.839C164.135 86.3101 167.009 80.6803 167.009 80.6803L164.96 90.2748L137.921 90.2629C137.921 90.2629 141.167 88.8203 142.422 83.9452" fill="#D7D7D7"/>
<path d="M198.383 80.1213C196.379 80.0516 194.392 79.4423 193.067 77.967C193.435 77.2288 193.873 76.5277 194.376 75.8734C195.261 74.8241 196.296 73.909 197.446 73.1572C197.446 73.1572 195.633 72.0881 194.381 70.4883C193.881 69.8113 193.442 69.0919 193.069 68.3384C194.394 66.7964 196.345 66.1366 198.109 66.1366C201.163 66.1366 216.628 69.2799 216.628 69.2799L205.848 73.0875L216.536 76.9795C216.536 76.9795 201.854 80.2414 198.388 80.1213M199.183 62.6864C191.928 62.1541 187.568 66.7846 187.678 73.0415C187.789 79.2984 190.463 82.9622 197.972 83.4974C205.481 84.0327 241.562 72.9481 241.562 72.9481C241.562 72.9481 206.439 63.2083 199.183 62.6864Z" fill="#D7D7D7"/>
<path d="M107.903 65.7319C108.903 65.7709 109.885 66.0088 110.791 66.4315C111.697 66.8542 112.509 67.4531 113.179 68.1931C112.813 68.9316 112.376 69.6328 111.873 70.2867C110.988 71.3352 109.956 72.2502 108.807 73.003C108.807 73.003 110.621 74.0735 111.873 75.6718C112.373 76.3486 112.812 77.068 113.185 77.8217C111.86 79.3622 109.76 80.4075 107.99 80.4075C104.936 80.4075 89.6222 76.8772 89.6222 76.8772L100.407 73.0786L89.7175 69.1835C89.7175 69.1835 104.435 65.6118 107.903 65.7378M107.071 83.4811C114.327 84.0074 118.685 79.383 118.577 73.1245C118.468 66.8661 115.791 63.2054 108.281 62.6701C100.772 62.1349 64.6913 73.2165 64.6913 73.2165C64.6913 73.2165 99.8117 82.9592 107.071 83.4811Z" fill="#D7D7D7"/>
<path d="M126.376 73.0875C126.376 58.5052 138.288 46.6408 152.939 46.6408C167.59 46.6408 179.501 58.5023 179.501 73.0875C179.501 87.6727 167.588 99.5416 152.939 99.5416C138.29 99.5416 126.376 87.6801 126.376 73.0875ZM121.888 73.0875C121.888 90.1384 135.82 104 152.939 104C170.059 104 183.987 90.1369 183.987 73.0875C183.987 56.038 170.048 42.1764 152.939 42.1764C135.83 42.1764 121.888 56.0425 121.888 73.0875Z" fill="#D7D7D7"/>
<path d="M120.215 60.363C119.76 61.5034 119.366 62.6664 119.032 63.8474C119.032 63.8474 117.77 62.7961 116.717 62.1037C116.104 61.6985 115.456 61.3477 114.781 61.0555C115.45 59.6725 116.557 58.5468 117.932 57.8514C120.252 56.6652 121.924 56.8817 121.924 56.8817C121.285 58.0075 120.713 59.17 120.212 60.363" fill="#D7D7D7"/>
<path d="M184.112 56.8817C184.112 56.8817 185.79 56.6682 188.106 57.8514C189.479 58.5476 190.586 59.6731 191.255 61.0555C190.58 61.3477 189.932 61.6985 189.319 62.1037C188.264 62.7961 187.005 63.8474 187.005 63.8474C187.005 63.8474 186.514 62.0815 185.814 60.363C185.314 59.1694 184.742 58.0068 184.102 56.8817" fill="#D7D7D7"/>
<path d="M121.928 89.2399C121.928 89.2399 120.255 89.446 117.936 88.2657C116.562 87.5726 115.455 86.4482 114.787 85.0661C115.461 84.7703 116.108 84.4187 116.723 84.0149C117.77 83.318 119.034 82.2712 119.034 82.2712C119.367 83.4529 119.761 84.6164 120.216 85.757C120.717 86.9508 121.289 88.1138 121.928 89.2399Z" fill="#D7D7D7"/>
<path d="M185.832 85.7541C186.527 84.0341 187.023 82.2668 187.023 82.2668C187.023 82.2668 188.283 83.318 189.337 84.0075C189.951 84.4117 190.599 84.7634 191.273 85.0587C190.601 86.4393 189.495 87.5634 188.122 88.2598C185.805 89.446 184.129 89.2324 184.129 89.2324C184.768 88.1076 185.34 86.9461 185.841 85.7541" fill="#D7D7D7"/>
<path d="M2.0921 22.0593V4.78898C2.0921 0.892476 0.122101 0.52477 0.122101 0.52477H8.90743C8.90743 0.52477 7.05655 0.892476 7.03273 4.78898C7.01635 8.27774 7.03273 23.2158 7.03273 23.2158C7.03273 23.2158 8.11228 23.2069 13.5532 23.2158C19.4602 23.2277 20.784 19.558 20.784 19.558L19.2384 26.325H0C0 26.325 2.09805 25.6682 2.09805 22.0593" fill="#D7D7D7"/>
<path d="M45.1953 0.542562H39.939C39.939 0.542562 32.8467 18.9768 31.5676 22.347C30.2885 25.7171 28.7652 26.3161 28.7652 26.3161H36.4561C36.4561 26.3161 34.5204 25.13 35.3334 22.3129C35.8769 20.4729 36.5562 18.6754 37.3659 16.9351H46.2436C46.2436 16.9351 47.3261 19.7523 48.4548 22.3129C49.5835 24.8735 47.0134 26.3161 47.0134 26.3161H56.238C56.238 26.3161 55.3446 25.8713 54.1102 23.1046C52.8758 20.3379 45.1953 0.542562 45.1953 0.542562ZM38.4172 13.8304L41.6767 5.27382L45.0866 13.8304H38.4172Z" fill="#D7D7D7"/>
<path d="M72.5802 5.55997V22.0563C72.5802 25.6519 74.7348 26.3176 74.7348 26.3176H66.8295C66.8295 26.3176 68.9529 25.812 68.9529 22.0563V4.80232C68.9529 1.37731 66.9576 0.541079 66.9576 0.541079H74.7572L86.1051 18.2977C86.1051 18.2977 86.1051 8.22881 86.1051 4.80529C86.1051 1.38176 84.0949 0.544045 84.0949 0.544045H92.2608C92.2608 0.544045 90.3251 1.40993 90.3251 4.80529C90.3251 8.20064 90.2849 26.3042 90.2849 26.3042L86.3642 26.2657L72.5802 5.55997Z" fill="#D7D7D7"/>
<path d="M146.923 10.6886H153.704C156.831 10.6886 157.612 8.88268 157.612 8.88268V15.5933C157.612 15.5933 156.767 13.7859 153.704 13.7859H146.923V22.0563C146.923 25.5155 149.191 26.3176 149.191 26.3176H139.901C139.901 26.3176 141.995 25.683 141.995 22.0563V4.8038C141.995 1.24536 140.096 0.541079 140.096 0.541079H160.128L161.373 5.63559C161.373 5.63559 160.182 3.64879 156.496 3.64879H146.923V10.6886Z" fill="#D7D7D7"/>
<path d="M185.668 26.8588C193.828 26.8588 199.482 21.2631 199.482 13.2507C199.482 5.48881 193.465 0.00286363 185.813 0.00286363C178.056 0.00286363 171.965 5.56146 171.965 13.4286C171.965 21.4054 177.654 26.8588 185.664 26.8588M185.699 23.5376C179.901 23.5376 177.184 18.8419 177.184 13.5368C177.184 8.08647 179.864 3.3226 185.848 3.3226C191.429 3.3226 194.255 7.90855 194.255 13.1765C194.255 18.5557 191.755 23.5376 185.699 23.5376Z" fill="#D7D7D7"/>
<path d="M218.059 12.0942V3.65176H222.377C225.165 3.71996 228.018 4.36641 228.018 7.68466C228.018 10.822 225.338 12.0942 222.59 12.0942H218.059ZM227.156 14.4754C229.817 13.8601 232.814 10.822 232.814 7.28582C232.814 2.55605 228.895 0.541079 224.545 0.541079H210.913C210.913 0.541079 213.125 1.28242 213.125 4.8038V22.0549C213.125 25.6504 211.049 26.3176 211.049 26.3176H220.273C220.273 26.3176 218.055 25.4828 218.055 22.0549V15.2004H221.926L228.558 26.3206L235.879 26.3072C235.879 26.3072 234.119 25.5807 232.694 23.2885C231.268 20.9962 227.144 14.4783 227.144 14.4783" fill="#D7D7D7"/>
<path d="M253.323 3.75554L254.952 3.64731C258.787 3.64731 260.571 4.33824 262.559 5.67414C264.665 7.09011 265.731 9.35269 265.731 12.6798C265.731 19.0732 261.331 23.2277 255.456 23.2277H253.33L253.323 3.75554ZM245.941 26.3176H256.859C268.079 26.3176 270.934 17.3488 270.934 12.4648C270.934 5.85355 265.554 0.662659 255.378 0.662659L246.007 0.575181C246.007 0.575181 248.415 1.39362 248.415 4.90166V22.0741C248.415 25.5851 245.941 26.3176 245.941 26.3176Z" fill="#D7D7D7"/>
<path d="M300.58 7.94265C300.58 7.94265 301.121 6.82915 300.817 6.0033C300.513 5.17744 300.257 4.53099 299.09 3.94829C297.949 3.32556 296.421 3.03051 295.004 3.01865C292.103 2.99641 289.616 3.85785 289.756 6.81581C289.987 11.7413 306.157 8.39784 305.999 18.6299C305.893 25.3879 299.855 26.9596 294.637 26.8543C288.875 26.7446 285.343 24.4909 283.47 19.9687L288.235 16.6253C288.005 17.4696 287.965 18.354 288.117 19.2155C288.253 19.9821 288.887 21.1712 290.072 22.0326C291.202 22.8437 292.855 23.3552 294.459 23.367C297.735 23.3952 300.673 22.39 300.754 19.3193C300.92 12.7821 284.491 16.1048 284.673 7.24282C284.782 1.7213 289.884 -0.0994421 295.002 0.00731139C300.12 0.114065 303.079 2.05638 304.884 4.86756L300.58 7.94265Z" fill="#D7D7D7"/>
<path d="M117.125 3.3226C112.086 3.34484 108.234 7.99455 108.234 12.8681C108.234 19.8575 112.376 23.8267 119.385 23.8771L121.549 23.7555V16.3925C121.549 12.4648 119.385 12.1312 119.385 12.1312H128.438C128.438 12.1312 126.473 12.4159 126.473 16.3925C126.473 20.0043 126.463 20.6508 126.473 22.8881C126.489 25.7171 128.54 25.5688 128.54 25.5688C126.69 26.7654 122.195 26.8603 119.903 26.8603C107.991 26.8603 103.006 19.7434 103.006 13.0861C103.006 5.9692 109.214 0.00138108 116.459 0.00138108C122.435 -0.0668225 125.599 2.40185 127.611 5.02324L122.697 8.9316C122.697 8.9316 123.234 7.89372 122.919 6.39324C122.603 4.89276 121.803 4.54433 121.439 4.29079C121.074 4.03725 119.887 3.2796 117.12 3.3226" fill="#D7D7D7"/>
</svg>
