<svg width="83" height="83" viewBox="0 0 83 83" fill="none" xmlns="http://www.w3.org/2000/svg">
<path d="M15.23 82.2H19.63C17.9 81.63 16.42 80.77 15.23 79.66V82.2Z" fill="#D7D7D7"/>
<path d="M15.21 79.65C15.21 79.65 15.22 79.66 15.23 79.67V79.65C15.23 79.65 15.22 79.65 15.21 79.65Z" fill="#D7D7D7"/>
<path d="M3.95 20.84H0V78.13H3.95V20.84Z" fill="#D7D7D7"/>
<path d="M37.66 72.76V66.4C34.62 65.42 30.41 64.52 26.38 64.52C19.76 64.52 16.53 67.74 16.53 71.77C16.53 75.8 19.57 78.93 25.48 78.93C30.58 78.93 34.79 76.07 37.65 72.75L37.66 72.76Z" fill="#D7D7D7"/>
<path d="M37.84 82.2V77.14C35.73 79.31 32.75 81.2 29.48 82.2H37.84Z" fill="#D7D7D7"/>
<path d="M48.35 79.15L48.31 79.33V82.21H51.6C50.16 81.57 49.08 80.55 48.35 79.15Z" fill="#D7D7D7"/>
<path d="M78.01 43.29C76.37 43.29 75.16 44.44 75.16 46.21V47.87H80.87V46.21C80.87 44.45 79.68 43.29 78.04 43.29H78.01Z" fill="#D7D7D7"/>
<path d="M79.96 77.81H79.94C79.34 77.81 79.02 78.15 78.66 79.7C78.36 80.94 78.01 81.79 77.31 82.2H80.24L79.93 81.94C80.63 81.14 81.02 80.33 81.02 79.29C81.02 78.38 80.6 77.8 79.96 77.8V77.81Z" fill="#D7D7D7"/>
<path d="M82.2 82.2V80.4C82.07 81.03 81.81 81.64 81.44 82.2H82.2Z" fill="#D7D7D7"/>
<path d="M75.99 16.44H76.01C76.66 16.44 76.95 16.06 77.33 14.45C77.76 12.67 78.4 11.75 79.79 11.75H79.81C81.07 11.75 81.91 12.55 82.2 13.77V0H0V16.72H8.51V78.13H13.85C13.85 78.13 13.85 78.13 13.85 78.12C12.63 76.41 11.96 74.34 11.96 72.05C11.96 65.25 18.05 60.68 26.19 60.68C30.31 60.68 35.86 62.02 37.65 62.83V56.56C37.65 54.41 37.02 52.53 35.86 51.19C34.16 49.31 31.29 48.06 27.27 48.06C23.69 48.06 21.9 49.04 20.47 50.03C20.83 50.75 21.1 51.46 21.1 52.45C21.1 54.33 19.76 55.85 17.7 55.85C15.64 55.85 14.21 54.24 14.21 52.27C14.21 48.06 19.31 43.95 27.82 43.95C32.92 43.95 36.86 45.47 39.28 48.07C41.16 50.04 42.05 52.64 42.05 55.5V78.15H47.9C47.49 76.97 47.31 75.5 47.31 74.03V48.79H40.51V44.67H47.31V34.91L51.88 33.3V44.67H63.52V48.79H51.88V73.59C51.88 74.84 52.06 75.83 52.42 76.63C53.14 77.97 54.57 78.6 57.07 78.6C59.22 78.6 61.9 77.44 63.96 76.18L63.24 80.92C62.43 81.35 61.46 81.83 60.29 82.22H75.02C74.21 81.77 73.7 80.83 73.7 79.64C73.7 78.45 74.07 77.45 74.76 76.59L75.88 77.38C75.32 78.13 75.02 78.89 75.02 79.66C75.02 80.52 75.46 81.03 76.02 81.03H76.04C76.69 81.03 76.98 80.65 77.36 79.04C77.79 77.26 78.43 76.34 79.82 76.34H79.84C81.1 76.34 81.94 77.14 82.23 78.36V58.92C81.87 60.47 80.67 61.42 78.67 61.42H73.84V59.94H78.61C80.17 59.94 81.01 59.14 81.01 57.82C81.01 56.5 80.22 55.71 78.67 55.71H73.84V54.24H78.6C80.66 54.24 81.87 55.21 82.23 56.77V27.62C81.71 29.46 80.04 30.81 78.03 30.81C75.61 30.81 73.65 28.85 73.65 26.43C73.65 24.01 75.61 22.05 78.03 22.05C80.03 22.05 81.7 23.4 82.23 25.24V15.84C82.05 16.72 81.65 17.54 81.01 18.26L79.95 17.37C80.65 16.57 81.04 15.76 81.04 14.72C81.04 13.81 80.62 13.23 79.98 13.23H79.96C79.36 13.23 79.04 13.57 78.68 15.12C78.25 16.91 77.72 17.91 76.17 17.91H76.15C74.71 17.91 73.72 16.71 73.72 15.04C73.72 13.82 74.09 12.85 74.78 11.99L75.9 12.78C75.34 13.54 75.04 14.29 75.04 15.06C75.04 15.92 75.48 16.43 76.04 16.43L75.99 16.44ZM73.81 35.54H82.21V37.01H73.81V35.54ZM73.81 46.21C73.81 43.57 75.62 41.75 77.98 41.75H78C80.36 41.75 82.2 43.57 82.2 46.21V49.34H73.8V46.21H73.81ZM73.81 65.7H75.18V68.36H82.21V69.85H75.18V72.51H73.81V65.7Z" fill="#D7D7D7"/>
<path d="M75.17 26.42C75.17 27.99 76.44 29.26 78.01 29.26C79.58 29.26 80.85 27.99 80.85 26.42C80.85 24.85 79.58 23.58 78.01 23.58C76.44 23.58 75.17 24.85 75.17 26.42Z" fill="#D7D7D7"/>
</svg>
