<svg width="424" height="64" viewBox="0 0 424 64" fill="none" xmlns="http://www.w3.org/2000/svg">
<path d="M423.457 39.7665L404.584 19.0271C404.186 18.5951 403.615 18.3321 403.029 18.3321H390.44C389.604 18.3321 388.865 18.8205 388.523 19.5531C388.182 20.3045 388.335 21.1875 388.883 21.7886L406.483 41.1566L388.903 60.5245C388.353 61.1259 388.2 62.0088 388.541 62.7602C388.883 63.5116 389.625 64 390.461 64H403.047C403.636 64 404.204 63.7558 404.604 63.3236L423.475 42.5843C424.178 41.7577 424.178 40.5555 423.457 39.7665Z" fill="#D7D7D7"/>
<path d="M393.219 39.7665L374.349 19.0271C373.952 18.5951 373.38 18.3321 372.792 18.3321H360.206C359.369 18.3321 358.63 18.8205 358.289 19.5531C357.947 20.3045 358.097 21.1875 358.648 21.7886L376.248 41.1566L358.668 60.5245C358.118 61.1259 357.965 62.0088 358.306 62.7602C358.648 63.5116 359.39 64 360.223 64H372.812C373.401 64 373.969 63.7558 374.367 63.3236L393.24 42.5843C393.941 41.7577 393.941 40.5555 393.219 39.7665Z" fill="#D7D7D7"/>
<path d="M363.002 39.7665L344.13 19.0271C343.732 18.5951 343.161 18.3321 342.575 18.3321H329.986C329.15 18.3321 328.411 18.8205 328.069 19.5531C327.727 20.3045 327.878 21.1875 328.428 21.7886L346.029 41.1566L328.428 60.5059C327.878 61.1069 327.727 61.9899 328.069 62.7415C328.411 63.4929 329.15 63.9813 329.986 63.9813H342.575C343.161 63.9813 343.732 63.7371 344.13 63.305L363.002 42.5656C363.703 41.7577 363.703 40.5555 363.002 39.7665Z" fill="#D7D7D7"/>
<path d="M106.97 63.6178C111.465 63.6178 115.959 62.0749 119.811 59.7153C119.903 61.8934 121.462 63.6178 123.938 63.6178C126.598 63.6178 129.074 61.4397 129.624 58.7172L135.861 23.2327C136.411 20.5101 134.669 18.4228 131.917 18.4228C129.533 18.4228 127.332 20.0564 126.506 22.2344C123.479 19.8749 119.535 18.4228 115.042 18.4228C108.988 18.4228 102.935 20.9639 98.2573 25.0478C93.6714 29.2223 90.278 34.849 89.269 41.0204C88.0766 47.1006 89.5443 52.7275 92.6626 56.9021C95.7809 60.9859 100.917 63.6178 106.97 63.6178ZM104.219 31.6728C106.879 29.4039 109.997 27.9518 113.299 27.9518C116.601 27.9518 119.26 29.4039 121.003 31.6728C122.837 34.0323 123.755 37.2994 123.021 41.0204C122.379 44.6505 120.453 47.9175 117.701 50.2771C115.133 52.6367 111.923 53.9981 108.713 53.9981C105.411 53.9981 102.66 52.6367 100.917 50.2771C99.0828 47.9175 98.2573 44.6505 98.8993 41.0204C99.5414 37.2994 101.559 34.0323 104.219 31.6728Z" fill="#D7D7D7"/>
<path d="M136.205 57.3558C139.232 60.2598 144.276 63.5269 151.247 63.6178C155.649 63.6178 160.143 62.2564 163.812 59.9877C167.389 57.6282 170.507 53.9072 171.333 49.6417C171.7 47.373 171.516 45.3765 170.691 43.5614C169.59 41.0204 167.48 39.296 165.188 38.1163C162.895 36.8458 160.143 36.0289 157.116 35.4844H157.025L156.933 35.3935C153.998 34.9399 151.705 34.123 150.788 33.3063C150.238 32.9433 149.963 32.5803 149.871 32.3988C149.871 32.1264 149.779 32.0358 149.871 31.6728C149.963 31.3098 150.329 30.4929 151.705 29.6762C152.989 28.6778 155.19 27.9518 157.483 27.9518C160.418 27.9518 162.711 29.4947 165.279 31.4004C167.205 32.8524 170.415 32.2173 172.158 30.0392C174.084 27.8612 173.992 24.7755 171.975 23.4142C169.406 21.4177 165.463 18.3321 159.134 18.3321C155.007 18.3321 150.88 19.6026 147.303 21.7807C144.001 24.0495 140.974 27.5888 140.149 31.6728C139.874 33.76 140.149 35.6659 140.791 37.2994C141.891 39.8405 144.001 41.474 145.927 42.6539C148.128 43.7429 150.788 44.469 153.539 45.0135H153.631C156.841 45.6486 159.409 46.647 160.693 47.4637C161.244 48.0082 161.519 48.3712 161.702 48.6436C161.794 49.0066 161.794 49.1881 161.794 49.6417C161.611 50.3677 161.06 51.1846 159.501 52.2736C157.942 53.1812 155.465 53.9072 152.898 53.9072C149.412 53.9981 145.652 52.0015 143.818 50.0956C141.983 48.2806 138.773 48.5527 136.664 50.7307C134.646 52.7275 134.371 55.6316 136.205 57.3558Z" fill="#D7D7D7"/>
<path d="M192.729 63.7996C200.984 63.7996 206.12 61.8936 211.623 56.8115C213.365 55.0871 213.549 52.546 211.99 50.8219C211.806 50.6404 208.871 47.736 205.386 51.0034C202.359 53.7259 197.957 54.7241 194.472 54.452C191.353 54.1796 187.868 52.546 186.401 50.368C185.117 48.8253 184.383 46.4655 184.383 44.3783H213.641C216.117 44.3783 218.41 42.9263 219.052 40.7483C219.144 40.5668 219.235 40.1129 219.235 39.9314C219.327 39.8407 219.327 39.6592 219.327 39.4777C220.886 27.2261 213.09 18.423 201.075 18.423C188.51 18.423 176.954 28.7687 174.661 41.1113C172.368 53.4536 180.164 63.7087 192.729 63.7996ZM199.516 27.0446C207.404 27.6797 211.072 33.0342 211.256 36.6643H185.3C186.768 32.9433 191.629 27.4076 199.516 27.0446Z" fill="#D7D7D7"/>
<path d="M250.729 63.7087C250.729 63.7087 250.729 63.7087 250.82 63.7087C258.432 63.7087 266.044 61.0767 272.374 56.8115C273.2 56.267 273.84 55.541 274.299 54.7241C274.391 54.6335 274.391 54.6335 274.391 54.6335C274.482 54.452 274.574 54.2705 274.666 54.0889C274.849 53.6351 275.033 53.1814 275.125 52.7275L278.61 33.1248C279.069 30.3116 277.236 28.1336 274.391 28.1336C274.299 28.1336 274.299 28.1336 274.299 28.1336H256.691C253.847 28.1336 251.187 30.3116 250.729 33.1248C250.178 35.8476 252.104 38.1163 254.855 38.1163H267.604L265.404 50.1865C261.46 52.3645 257.058 53.6351 252.563 53.6351C246.234 53.6351 241.007 51.1849 237.613 47.1915C234.219 43.2893 232.66 37.8442 233.761 31.9452C234.77 25.9555 238.255 20.601 243.024 16.6079C247.885 12.6148 253.939 10.1644 260.267 10.1644C265.68 10.1644 270.263 11.9795 273.659 14.9744C275.584 16.6987 278.793 16.2449 280.904 14.0668C283.012 11.8888 283.196 8.71239 281.271 7.07885C276.501 2.7227 269.804 0.181626 262.1 0.181626C244.033 0.181626 226.791 14.2483 223.58 31.9452C220.462 49.5513 232.752 63.618 250.729 63.7087Z" fill="#D7D7D7"/>
<path d="M305.426 18.423C299.282 18.423 293.227 21.1456 288.549 25.2294C283.963 29.4041 280.57 35.0307 279.471 41.2019C278.37 47.4639 279.744 53.0905 282.864 57.1745C286.166 61.3491 291.211 63.9811 297.355 63.9811C303.501 63.9811 309.553 61.3491 314.139 57.1745C318.817 53.0905 322.211 47.4639 323.312 41.2019C324.411 35.0307 323.037 29.4041 319.916 25.2294C316.615 21.1456 311.572 18.423 305.426 18.423ZM313.589 41.2019C312.855 44.9229 310.838 48.2808 308.268 50.5495C305.518 52.909 302.308 54.3611 299.007 54.3611C295.795 54.3611 293.044 52.909 291.211 50.5495C289.375 48.2808 288.549 44.9229 289.192 41.2019C289.926 37.5718 291.943 34.2141 294.512 31.9452C297.263 29.4947 300.381 28.1336 303.774 28.1336C306.986 28.1336 309.737 29.4947 311.481 31.9452C313.405 34.2141 314.231 37.5718 313.589 41.2019Z" fill="#D7D7D7"/>
<path d="M60.3131 63.7084C68.5675 63.7084 73.7036 61.8028 79.2066 56.7206C80.9493 54.9962 81.1326 52.4552 79.5734 50.731C79.3901 50.5495 76.4551 47.6452 72.9699 50.9125C69.9431 53.6351 65.5407 54.6332 62.0555 54.3611C58.9372 54.0887 55.452 52.4552 53.9844 50.2771C52.7006 48.7342 51.9669 46.3746 51.9669 44.2875H81.2243C83.7007 44.2875 85.9936 42.8354 86.6358 40.6574C86.7273 40.4759 86.8191 40.022 86.8191 39.8405C86.9108 39.7499 86.9108 39.5683 86.9108 39.3868C88.47 27.1352 80.6742 18.3321 68.6593 18.3321C56.0939 18.3321 44.5376 28.6778 42.2448 41.0204C39.9519 53.3627 47.7477 63.6178 60.3131 63.7084ZM67.1001 26.9537C74.9877 27.5888 78.6564 32.9433 78.8397 36.5734H52.8838C54.3515 32.8524 59.2123 27.3167 67.1001 26.9537Z" fill="#D7D7D7"/>
<path d="M4.22137 63.5272C4.3131 63.5272 4.3131 63.4363 4.3131 63.4363C4.4048 63.4363 4.4048 63.5272 4.4048 63.5272H34.1211C36.9641 63.5272 39.6241 61.2582 40.1742 58.4448C40.6329 55.7222 38.7986 53.4536 35.9554 53.4536H11.1001L19.7215 4.99142C20.2718 2.17807 18.3458 0 15.5943 0C12.751 0 10.0912 2.17807 9.63265 4.99142L0.0941178 58.4448C-0.456184 61.2582 1.46987 63.5272 4.22137 63.5272Z" fill="#D7D7D7"/>
</svg>
