<svg width="295" height="63" viewBox="0 0 295 63" fill="none" xmlns="http://www.w3.org/2000/svg">
<path d="M29.7103 27.4518C27.4664 28.388 26.4021 30.9789 27.3316 33.2389C28.2612 35.4988 30.8337 36.5736 33.0775 35.6374C35.3242 34.7012 36.3886 32.1103 35.459 29.8504C34.5295 27.5876 31.957 26.5156 29.7103 27.4518Z" fill="#D7D7D7"/>
<path d="M40.3343 41.7045C39.4048 39.4417 36.8323 38.3725 34.5856 39.3059C32.3418 40.2422 31.2774 42.833 32.2069 45.0958C33.1365 47.3557 35.709 48.4277 37.9528 47.4915C40.1967 46.5553 41.2639 43.9644 40.3343 41.7045Z" fill="#D7D7D7"/>
<path d="M22.4563 21.3876C23.3831 23.6475 25.9584 24.7195 28.2022 23.7861C30.4489 22.8499 31.5133 20.2562 30.5837 17.9963C29.6542 15.7363 27.0789 14.6615 24.835 15.6005C22.5911 16.5368 21.524 19.1276 22.4563 21.3876Z" fill="#D7D7D7"/>
<path d="M21.3049 22.5388C19.0582 21.6054 16.4858 22.6774 15.559 24.9373C14.6295 27.1973 15.6938 29.7881 17.9377 30.7272C20.1844 31.6634 22.7568 30.5886 23.6864 28.3286C24.6132 26.0715 23.5516 23.4778 21.3049 22.5416V22.5388Z" fill="#D7D7D7"/>
<path d="M44.8474 32.362C42.6035 31.4258 40.0282 32.4978 39.1015 34.7606C38.1747 37.0205 39.2363 39.6142 41.4801 40.5476C43.7268 41.4838 46.2993 40.4119 47.2288 38.1491C48.1584 35.8891 47.094 33.2983 44.8502 32.362H44.8474Z" fill="#D7D7D7"/>
<path d="M30.5837 45.0958C31.5133 42.8359 30.4461 40.2421 28.2022 39.3059C25.9584 38.3725 23.3859 39.4445 22.4563 41.7045C21.5268 43.9644 22.594 46.5581 24.8378 47.4915C27.0817 48.4277 29.6542 47.3557 30.5865 45.0958H30.5837Z" fill="#D7D7D7"/>
<path d="M32.2041 17.9963C31.2746 20.2562 32.3389 22.8471 34.5856 23.7833C36.8295 24.7167 39.4019 23.6475 40.3343 21.3848C41.2639 19.1248 40.1995 16.5311 37.9528 15.5977C35.709 14.6615 33.1365 15.7363 32.2041 17.9963Z" fill="#D7D7D7"/>
<path d="M29.5952 8.52372C31.8391 9.45711 34.4115 8.38795 35.3439 6.12518C36.2734 3.86523 35.2091 1.27153 32.9624 0.338132C30.7185 -0.598091 28.1461 0.476727 27.2137 2.73667C26.2841 4.99662 27.3485 7.58749 29.5952 8.52372Z" fill="#D7D7D7"/>
<path d="M32.9624 54.475C30.7185 53.5388 28.1461 54.6136 27.2137 56.8735C26.2841 59.1335 27.3485 61.7244 29.5952 62.6606C31.8391 63.594 34.4115 62.5248 35.3439 60.262C36.2734 58.0021 35.2091 55.4084 32.9624 54.475Z" fill="#D7D7D7"/>
<path d="M17.8815 53.3747C16.1628 55.1057 16.1628 57.9116 17.8815 59.6398C19.6002 61.3708 22.3833 61.3708 24.102 59.6398C25.8179 57.9088 25.8208 55.1057 24.102 53.3747C22.3833 51.6465 19.6002 51.6437 17.8815 53.3747Z" fill="#D7D7D7"/>
<path d="M44.6732 9.62116C46.3891 7.89297 46.392 5.0843 44.6732 3.35611C42.9545 1.62791 40.1714 1.62508 38.4527 3.35611C36.734 5.08713 36.734 7.89297 38.4527 9.62116C40.1714 11.3522 42.9545 11.3494 44.6732 9.62116Z" fill="#D7D7D7"/>
<path d="M10.8466 41.86C10.8466 39.4134 8.87795 37.4307 6.44872 37.4307C4.01949 37.4307 2.05084 39.4134 2.05084 41.86C2.05084 44.3067 4.01949 46.2894 6.44872 46.2894C8.87795 46.2894 10.8466 44.3067 10.8466 41.86Z" fill="#D7D7D7"/>
<path d="M51.711 21.1415C51.711 23.5881 53.6796 25.5709 56.1117 25.5709C58.5409 25.5709 60.5095 23.5881 60.5095 21.1415C60.5095 18.6949 58.5409 16.7121 56.1117 16.7093C53.6824 16.7093 51.711 18.6921 51.711 21.1415Z" fill="#D7D7D7"/>
<path d="M9.55757 24.2726C11.2735 22.5416 11.2763 19.7386 9.55757 18.0076C7.83886 16.2765 5.05297 16.2765 3.33706 18.0076C1.61835 19.7386 1.61835 22.5416 3.33706 24.2726C5.05578 26.0008 7.83886 26.0036 9.55757 24.2726Z" fill="#D7D7D7"/>
<path d="M53 38.7261C51.2813 40.4571 51.2841 43.2601 53 44.9912C54.7159 46.7193 57.5046 46.7222 59.2205 44.9912C60.9364 43.2601 60.9392 40.4571 59.2205 38.7261C57.5018 36.9951 54.7159 36.9951 53 38.7261Z" fill="#D7D7D7"/>
<path d="M20.9932 10.9194C23.4224 10.9194 25.3911 8.93667 25.3911 6.49005C25.3911 4.04342 23.4224 2.06067 20.9932 2.06067C18.564 2.06067 16.5953 4.04342 16.5953 6.49005C16.5953 8.93667 18.564 10.9223 20.9932 10.9194Z" fill="#D7D7D7"/>
<path d="M41.5644 52.0793C39.1352 52.0793 37.1665 54.062 37.1665 56.5087C37.1665 58.9553 39.1352 60.938 41.5644 60.938C43.9936 60.938 45.9623 58.9553 45.9651 56.5087C45.9651 54.062 43.9936 52.0765 41.5644 52.0793Z" fill="#D7D7D7"/>
<path d="M48.5965 46.5496C46.3526 47.4859 45.2855 50.0767 46.215 52.3367C47.1446 54.5966 49.7198 55.6714 51.9637 54.7324C54.2076 53.7962 55.272 51.2053 54.3452 48.9453C53.4156 46.6854 50.8432 45.6106 48.5993 46.5496H48.5965Z" fill="#D7D7D7"/>
<path d="M13.9555 16.4519C16.1993 15.5157 17.2637 12.9248 16.3341 10.662C15.4046 8.40209 12.8321 7.32727 10.5882 8.26633C8.34436 9.20255 7.27718 11.7934 8.20675 14.0534C9.13632 16.3133 11.7088 17.3881 13.9555 16.4519Z" fill="#D7D7D7"/>
<path d="M59.8355 27.4066C57.5917 26.4703 55.0192 27.5452 54.0896 29.8051C53.1629 32.0679 54.2244 34.6559 56.4711 35.5921C58.715 36.5284 61.2903 35.4564 62.2198 33.1936C63.1494 30.9337 62.0822 28.3428 59.8384 27.4066H59.8355Z" fill="#D7D7D7"/>
<path d="M8.46231 33.1936C9.39188 30.9337 8.3247 28.3428 6.08083 27.4066C3.83695 26.4703 1.2645 27.5452 0.334933 29.8051C-0.591824 32.0679 0.469734 34.6559 2.71642 35.5921C4.96029 36.5284 7.53555 35.4564 8.46512 33.1936H8.46231Z" fill="#D7D7D7"/>
<path d="M46.2178 14.0562C47.1502 16.3161 49.7198 17.391 51.9637 16.4547C54.2104 15.5185 55.2748 12.9248 54.3452 10.6649C53.4156 8.40492 50.8432 7.3301 48.5965 8.26633C46.3526 9.20255 45.2855 11.7934 46.215 14.0562H46.2178Z" fill="#D7D7D7"/>
<path d="M16.3369 48.9453C15.4074 46.6854 12.8349 45.6134 10.5882 46.5496C8.34436 47.4859 7.27718 50.0767 8.20956 52.3367C9.13912 54.5966 11.7116 55.6714 13.9555 54.7352C16.1993 53.799 17.2665 51.2081 16.3369 48.9453Z" fill="#D7D7D7"/>
<path d="M17.9377 32.3649C15.6938 33.3011 14.6266 35.892 15.559 38.1519C16.4886 40.4119 19.061 41.4838 21.3049 40.5505C23.5516 39.6142 24.6132 37.0205 23.6864 34.7606C22.7568 32.5006 20.1844 31.4258 17.9377 32.3649Z" fill="#D7D7D7"/>
<path d="M47.226 24.9373C46.2965 22.6774 43.724 21.6025 41.4801 22.5416C39.2363 23.4778 38.1719 26.0687 39.0986 28.3286C40.0282 30.5914 42.6007 31.6634 44.8445 30.7272C47.0884 29.791 48.1556 27.2001 47.2232 24.9373H47.226Z" fill="#D7D7D7"/>
<path d="M117.441 14.5851C119.499 14.5851 121.17 12.9022 121.17 10.8261V6.13083C121.17 4.05474 119.499 2.3718 117.441 2.3718C115.382 2.3718 113.705 4.05474 113.705 6.13083V10.8261C113.705 12.9022 115.379 14.5823 117.441 14.5851Z" fill="#D7D7D7"/>
<path d="M117.542 18.248C115.48 18.248 113.809 19.9309 113.809 22.007V59.241C113.809 61.3142 115.48 62.9972 117.542 63C119.603 63 121.274 61.3171 121.274 59.241V22.007C121.274 19.9309 119.603 18.248 117.542 18.248Z" fill="#D7D7D7"/>
<path d="M201.41 14.5851C203.469 14.5851 205.14 12.9022 205.14 10.8261V6.13083C205.14 4.05474 203.469 2.3718 201.41 2.3718C199.352 2.3718 197.675 4.05474 197.675 6.13083V10.8261C197.675 12.9022 199.349 14.5823 201.41 14.5851Z" fill="#D7D7D7"/>
<path d="M201.511 18.248C199.45 18.248 197.779 19.9309 197.779 22.007V59.241C197.779 61.3142 199.45 62.9972 201.511 63C203.573 63 205.244 61.3171 205.244 59.241V22.007C205.244 19.9309 203.573 18.248 201.511 18.248Z" fill="#D7D7D7"/>
<path d="M252.491 59.289L252.427 39.1984C252.416 27.3981 242.935 17.8322 231.218 17.8322C219.505 17.8322 210.009 27.4009 210.009 39.1984L210.024 59.2353L210.018 59.241C210.018 61.3142 211.689 62.9972 213.75 63C215.812 63 217.483 61.3171 217.483 59.241V52.9052H217.485V39.1702C217.485 31.5248 223.638 25.3248 231.229 25.3248C238.82 25.3248 244.965 31.522 244.973 39.1702L245.007 50.6396H245.013V51.4287L245.024 59.241C245.024 61.3142 246.695 62.9972 248.756 63C250.801 63 252.461 61.3397 252.486 59.2862L252.491 59.289Z" fill="#D7D7D7"/>
<path d="M191.775 59.241C191.775 61.3171 190.104 63 188.043 63C185.981 63 184.31 61.3171 184.31 59.241V5.68959C184.31 3.6135 185.981 1.93056 188.043 1.93056C190.104 1.93056 191.772 3.6135 191.775 5.68959V59.241Z" fill="#D7D7D7"/>
<path d="M106.449 55.4819H93.1707C87.422 55.4819 82.9651 51.2986 82.9623 46.0886V5.98941C82.9623 3.99817 81.4964 2.38311 79.435 2.38311C77.3737 2.38311 75.4977 3.99817 75.4977 5.98941V46.0858C75.4977 46.0858 75.4977 46.0886 75.4977 46.0914V46.1027C75.5062 54.9954 83.3218 62.9774 93.1258 63H93.1595C93.1623 63 93.1679 63 93.1707 63H106.449C108.51 63 110.181 61.3453 110.181 59.2693C110.181 57.1932 108.51 55.4819 106.449 55.4819Z" fill="#D7D7D7"/>
<path d="M178.918 47.5339C177.157 46.4421 174.855 46.9909 173.773 48.7587C171.305 52.7779 166.893 55.4593 161.857 55.4593C159.347 55.4593 156.991 54.789 154.952 53.6208L175.116 33.3039C177.573 30.8262 177.551 26.7928 175.068 24.2924L174.18 23.6249C170.69 21.1585 166.443 19.7046 161.857 19.7046C149.989 19.7046 140.359 29.395 140.362 41.3537C140.362 53.3012 149.989 62.9972 161.857 63C169.586 63 176.363 58.8846 180.148 52.7129C181.227 50.9451 180.676 48.6257 178.915 47.5339H178.918ZM161.857 27.2453C164.368 27.2453 166.724 27.9157 168.763 29.081L149.675 48.3061C148.515 46.2526 147.849 43.8796 147.849 41.3509C147.849 33.5585 154.123 27.2453 161.855 27.2453H161.857Z" fill="#D7D7D7"/>
<path d="M293.218 47.5339C291.457 46.4421 289.155 46.9909 288.073 48.7587C285.605 52.7779 281.193 55.4593 276.157 55.4593C273.647 55.4593 271.291 54.789 269.252 53.6208L289.416 33.3039C291.873 30.8262 291.851 26.7928 289.368 24.2924L288.481 23.6249C284.99 21.1585 280.744 19.7046 276.157 19.7046C264.289 19.7046 254.66 29.395 254.662 41.3537C254.662 53.3012 264.289 62.9972 276.157 63C283.886 63 290.663 58.8846 294.448 52.7129C295.527 50.9451 294.976 48.6257 293.215 47.5339H293.218ZM276.157 27.2453C278.668 27.2453 281.024 27.9157 283.063 29.081L263.975 48.3061C262.815 46.2526 262.149 43.8796 262.149 41.3509C262.149 33.5585 268.423 27.2453 276.155 27.2453H276.157Z" fill="#D7D7D7"/>
<path d="M149.065 2.33786H143.443C134.597 2.33786 126.658 10.2321 126.652 20.1289H126.646V59.0684C126.646 61.2379 128.317 62.9972 130.379 63C132.437 63 134.111 61.2379 134.111 59.0684V27.8648H141.059C143.12 27.8648 144.791 26.1818 144.791 24.1057C144.791 22.0297 143.12 20.3467 141.059 20.3467H134.111V20.1374H134.114C134.114 14.3447 138.267 9.85592 143.446 9.85592H149.065C151.127 9.85592 152.798 8.17299 152.798 6.09689C152.798 4.0208 151.127 2.33786 149.065 2.33786Z" fill="#D7D7D7"/>
</svg>
