<svg width="297" height="91" viewBox="0 0 297 91" fill="none" xmlns="http://www.w3.org/2000/svg">
<path d="M108.712 27.8219H118.029L112.174 55.8483H128.576L127.086 63.2256H101.362L108.712 27.8219Z" fill="#D7D7D7"/>
<path d="M135.299 37.8739H143.818L138.549 63.2256H130.026L135.299 37.8739ZM137.376 27.8219H145.895L144.563 34.3592H136.044L137.376 27.8219Z" fill="#D7D7D7"/>
<path d="M149.152 43.024H145.691L146.758 37.8739H150.219L150.696 35.4961C151.282 32.8235 152.402 30.8423 154.051 29.6545C156.022 28.2674 158.579 27.7731 161.348 27.7731C162.892 27.7731 164.329 27.8728 165.714 28.0699L164.545 33.6655C163.906 33.6147 163.372 33.5658 162.839 33.5658C160.762 33.5658 159.43 34.1598 159.007 36.389L158.685 37.8739H163.69L162.574 43.024H157.622L153.412 63.2256H144.946L149.152 43.024Z" fill="#D7D7D7"/>
<path d="M171.044 52.6285C171.097 55.7974 172.111 58.2241 176 58.2241C178.077 58.2241 179.832 57.4329 180.683 55.6492H189.1C187.394 60.551 182.654 63.9682 175.625 63.9682C168.222 63.9682 162.631 60.0569 162.631 52.2828C162.631 44.3114 168.703 37.1316 177.702 37.1316C180.846 37.1316 183.082 37.7256 184.999 38.8156C189.312 41.3397 190.749 46.3415 189.739 52.6285H171.044ZM171.736 47.8264H181.962C182.072 45.1029 180.846 42.8249 177.596 42.8249C174.88 42.8249 172.697 44.7063 171.736 47.8264Z" fill="#D7D7D7"/>
<path d="M198.808 27.8219H221.812L221.388 30.0511H201.044L198.222 43.7663H216.221L215.74 45.9446H197.794L194.174 63.2256H191.458L198.808 27.8219Z" fill="#D7D7D7"/>
<path d="M224.809 27.8219H227.366L220.016 63.2256H217.459L224.809 27.8219Z" fill="#D7D7D7"/>
<path d="M230.351 37.6259H232.908L227.582 63.2259H225.025L230.351 37.6259ZM232.375 27.8219H234.932L234.134 31.7332H231.577L232.375 27.8219Z" fill="#D7D7D7"/>
<path d="M232.86 66.0488H235.47C235.841 69.2177 239.514 70.4543 242.816 70.4543C248.411 70.4543 250.753 67.2854 251.657 63.077L252.565 58.8178H252.455C250.061 61.641 247.133 62.9773 243.403 62.9773C237.172 62.9773 233.447 59.0661 233.499 52.7279C233.552 45.4503 238.451 37.0824 247.345 37.0824C251.234 37.0824 254.32 38.9639 255.864 42.5783H255.974L256.984 37.6256H259.541L254.215 63.077C253.523 66.4434 252.35 68.3757 250.806 69.8114C248.888 71.5932 246.172 72.4841 242.764 72.4841C238.345 72.4841 233.499 70.8998 232.86 66.0488ZM243.724 60.9475C251.123 60.9984 254.853 53.916 254.853 47.5781C254.853 43.1725 252.671 39.1127 247.133 39.1127C239.888 39.1127 236.162 46.4392 236.162 52.7282C236.162 57.5814 238.504 60.9475 243.724 60.9475Z" fill="#D7D7D7"/>
<path d="M265.087 42.1331H265.192C267.591 39.3099 270.519 37.1316 275.259 37.1316C280.158 37.1316 283.085 39.9039 281.97 45.2023L278.24 63.2256H275.686L279.412 45.2512C280.264 41.2911 278.561 39.1613 274.725 39.1613C269.399 39.1613 264.928 42.9732 263.914 47.7772L260.721 63.2253H258.164L265.514 27.8217H268.067L265.087 42.1331Z" fill="#D7D7D7"/>
<path d="M285.337 37.6259H289.491L291.087 29.9028H293.697L292.101 37.6259H297L296.572 39.6071H291.674L287.736 58.6209C287.361 60.5024 287.895 61.3933 289.703 61.3933C290.505 61.3933 291.462 61.2447 291.995 61.0475H292.154L291.727 63.0776C291.197 63.2747 290.236 63.4233 289.385 63.4233C285.818 63.4233 284.486 61.5418 285.178 58.324L289.063 39.6073H284.91L285.337 37.6259Z" fill="#D7D7D7"/>
<path d="M80.1775 28.0036H50.0395L43.4992 42.0151H64.42C73.8606 42.0151 76.1877 36.5509 80.1775 28.0036Z" fill="#D7D7D7"/>
<path d="M67.0965 56.0257H36.9586L30.4182 70.0372H51.2526C60.6933 70.0372 63.1068 64.573 67.0965 56.0257Z" fill="#D7D7D7"/>
<path d="M30.4182 70.0372L13.0384 70.0375L3.93085 89.1194C3.51441 89.9917 4.15102 90.9997 5.11843 90.9997H10.9004C22.697 90.9997 23.7136 83.7921 28.9126 73.1909L30.4182 70.0372Z" fill="#D7D7D7"/>
<path d="M24.3585 42.0143C23.9991 42.0143 23.708 41.7233 23.708 41.3645C23.708 41.262 23.7261 41.1684 23.7686 41.0824L42.9173 0.0576226H42.6054C32.0953 0.0576226 26.5096 -1.20928 21.7493 8.13782L5.79449 42.0146H5.79254L5.5493 42.5356L5.54485 42.5448L0.124838 54.156C-0.281865 55.0275 0.354738 56.0258 1.31715 56.0258H27.03C35.7773 56.0258 38.3908 52.4242 41.8462 45.5529L43.498 42.0141L24.3585 42.0143Z" fill="#D7D7D7"/>
<path d="M100.433 69.6612H111.566L111.2 71.5549H102.209L101.162 76.9938H108.94L108.577 78.8142H100.799L99.2194 87.0213H97.0816L100.433 69.6612Z" fill="#D7D7D7"/>
<path d="M111.334 81.8734C111.334 77.7953 113.839 74.1523 117.972 74.1523C121.01 74.1523 123.245 76.2657 123.245 79.689C123.245 83.6716 120.912 87.3612 116.632 87.3612C113.643 87.3612 111.334 85.3942 111.334 81.8734ZM116.705 85.7338C119.699 85.7338 121.278 82.8943 121.278 79.6887C121.278 77.5998 120.256 75.7549 117.923 75.7549C114.836 75.7549 113.281 78.7409 113.281 81.8487C113.281 84.0595 114.421 85.7338 116.705 85.7338Z" fill="#D7D7D7"/>
<path d="M133.067 85.272H133.019C131.996 86.4864 130.636 87.3121 128.787 87.3121C126.332 87.3121 125.167 85.758 125.652 83.2095L127.354 74.4675H129.272L127.574 83.1853C127.232 84.9082 127.717 85.685 129.252 85.685C131.487 85.685 133.357 83.8157 133.821 81.4846L135.181 74.4672H137.123L134.692 87.021H132.75L133.067 85.272Z" fill="#D7D7D7"/>
<path d="M142.499 76.4101H142.548C143.59 75.0512 145.292 74.1767 147.165 74.1767C149.645 74.1767 150.688 75.7064 150.228 78.1593L148.501 87.0216H146.579L148.306 78.1593C148.599 76.6053 148.159 75.8041 146.652 75.8041C144.343 75.8041 142.23 77.7467 141.794 79.98L140.43 87.0216H138.488L140.919 74.4678H142.861L142.499 76.4101Z" fill="#D7D7D7"/>
<path d="M152.585 82.142C152.61 78.4746 154.87 74.1767 159.198 74.1767C160.852 74.1767 162.065 74.9293 162.843 76.3856H162.892L164.179 69.6612H166.125L162.77 87.0213H160.827L161.092 85.6625H161.043C160.099 86.7303 158.881 87.3854 157.35 87.3854C154.507 87.3854 152.561 85.492 152.585 82.142ZM157.618 85.7583C160.827 85.7583 162.261 82.3838 162.261 79.276C162.261 77.3579 161.165 75.8283 159.125 75.8283C156.038 75.8283 154.556 79.3979 154.556 82.0442C154.556 84.0112 155.358 85.7583 157.618 85.7583Z" fill="#D7D7D7"/>
<path d="M174.518 85.4186H174.493C173.667 86.4864 172.307 87.2635 170.531 87.2635C168.027 87.2635 166.618 85.6139 166.618 83.7182C166.618 80.5146 169.073 79.8578 171.578 79.7134C175.027 79.5182 175.854 79.3005 175.854 77.6734C175.854 76.1193 174.64 75.7552 173.276 75.7308C171.236 75.7064 170.067 76.4101 169.729 78.2571H167.758C168.198 75.7552 170.165 74.2014 173.422 74.2014C175.853 74.2014 178.138 75.3426 177.531 78.4748L176.387 84.2778C176.22 85.2012 176.314 85.783 177.482 85.5653H177.556L177.262 86.9727C177.018 87.046 176.729 87.1435 176.265 87.1435C174.929 87.1435 174.542 86.342 174.518 85.4186ZM170.943 85.7583C173.374 85.7583 174.665 84.0843 175.027 82.2375L175.369 80.5146C174.591 80.952 173.593 81.0231 171.504 81.1939C170.531 81.2672 168.585 81.4116 168.585 83.5735C168.585 84.8854 169.436 85.7583 170.943 85.7583Z" fill="#D7D7D7"/>
<path d="M181.021 74.4675H182.792L183.57 70.5093H185.517L184.739 74.4675H187.146L186.828 76.046H184.421L182.89 84.0112C182.699 84.9815 183.037 85.4186 183.985 85.4186C184.47 85.4186 184.885 85.2967 185.105 85.2009H185.174L184.836 86.8994C184.494 87.0213 184.01 87.0946 183.476 87.0946C181.53 87.0946 180.532 86.0268 180.947 83.9379L182.478 76.046H180.703L181.021 74.4675Z" fill="#D7D7D7"/>
<path d="M189.923 74.4675H191.865L189.434 87.0213H187.492L189.923 74.4675ZM190.847 69.6612H192.79L192.33 72.0878H190.383L190.847 69.6612Z" fill="#D7D7D7"/>
<path d="M193.576 81.8734C193.576 77.7953 196.08 74.1523 200.213 74.1523C203.251 74.1523 205.487 76.2657 205.487 79.689C205.487 83.6716 203.153 87.3612 198.873 87.3612C195.885 87.3612 193.576 85.3942 193.576 81.8734ZM198.947 85.7338C201.94 85.7338 203.52 82.8943 203.52 79.6887C203.52 77.5998 202.497 75.7549 200.164 75.7549C197.077 75.7549 195.522 78.7409 195.522 81.8487C195.522 84.0595 196.662 85.7338 198.947 85.7338Z" fill="#D7D7D7"/>
<path d="M211.306 76.4101H211.355C212.397 75.0512 214.099 74.1767 215.972 74.1767C218.452 74.1767 219.495 75.7064 219.035 78.1593L217.308 87.0216H215.386L217.113 78.1593C217.406 76.6053 216.966 75.8041 215.459 75.8041C213.15 75.8041 211.037 77.7467 210.601 79.98L209.237 87.0216H207.295L209.726 74.4678H211.668L211.306 76.4101Z" fill="#D7D7D7"/>
</svg>
