<svg width="214" height="74" viewBox="0 0 214 74" fill="none" xmlns="http://www.w3.org/2000/svg">
<path d="M0 0.405378V73.6315H4.86531L23.5157 20.0478V73.6315H52.7075V0.405378H0ZM5.6762 53.989V6.08068H22.3362L5.6762 53.989ZM46.9945 6.08068V53.989L30.3345 6.08068H46.9945ZM29.155 67.9562V20.0478L45.815 67.9562H29.155Z" fill="#D7D7D7"/>
<path d="M135.86 42.2699V73.5946H130.11V42.2699H127.088V37.6633H138.919V42.2699H135.86Z" fill="#D7D7D7"/>
<path d="M140.025 37.6265H149.903V42.2699H145.775V53.0309H149.461V57.7112H145.775V69.0249H149.903V73.5946H140.025V37.6265Z" fill="#D7D7D7"/>
<path d="M172.35 42.2699V73.5946H166.6V42.2699H163.578V37.6633H175.409V42.2699H172.35Z" fill="#D7D7D7"/>
<path d="M182.339 37.6265V68.2141C182.339 68.988 182.449 69.4671 182.892 69.4671C183.334 69.4671 183.481 68.988 183.481 68.2141V37.6265H189.194V67.1454C189.194 71.6783 186.872 73.9631 182.892 73.9631C178.911 73.9631 176.626 71.6783 176.626 67.1454V37.6265H182.339Z" fill="#D7D7D7"/>
<path d="M197.193 59.4064C197.193 58.3008 197.045 57.8954 196.566 57.8954H196.124V73.5946H190.447V37.6265H197.745C200.989 37.6265 202.942 39.6165 202.942 43.3018V51.7779C202.942 53.6205 202.39 55.0209 200.62 56.0159C202.426 56.9741 202.942 58.1902 202.942 60.1066V70.0199C202.942 71.2361 202.979 72.4522 203.274 73.6315H197.487C197.229 72.5627 197.193 71.1992 197.193 70.0199V59.4064ZM197.193 43.4861C197.193 42.3805 197.045 41.9751 196.566 41.9751H196.124V53.5837H196.566C197.045 53.5837 197.193 53.1783 197.193 52.0727V43.4861Z" fill="#D7D7D7"/>
<path d="M204.122 37.6265H214V42.2699H209.872V53.0309H213.558V57.7112H209.872V69.0249H214V73.5946H204.122V37.6265Z" fill="#D7D7D7"/>
<path d="M73.5694 0.405378V31.7669H77.9187V36.3735H67.8564V0.405378H73.5694Z" fill="#D7D7D7"/>
<path d="M106.3 36.3735V0.405378H114.003C117.21 0.405378 119.163 2.39542 119.163 6.08068V16.6942C119.163 20.3795 117.21 22.3695 114.003 22.3695H112.05V36.3735H106.3ZM112.787 18.0578C113.266 18.0578 113.413 17.6524 113.413 16.5468V6.22809C113.413 5.12251 113.266 4.71713 112.787 4.71713H112.05V18.0209H112.787V18.0578Z" fill="#D7D7D7"/>
<path d="M120.306 0.405378H130.184V5.01195H126.056V15.7729H129.742V20.4532H126.056V31.7669H130.184V36.3735H120.306V0.405378Z" fill="#D7D7D7"/>
<path d="M74.9332 37.6265L78.103 73.5946H72.2057L71.9476 65.2291H70.6207L70.3259 73.5946H64.6865L67.8564 37.6265H74.9332ZM70.805 60.6962H71.8371L71.6528 54.7261L71.3948 47.4661H71.2105L71.0262 54.7261L70.805 60.6962Z" fill="#D7D7D7"/>
<path d="M85.4747 59.4064C85.4747 58.3008 85.3273 57.8954 84.8481 57.8954H84.4058V73.5946H78.7296V37.6265H85.9907C89.2342 37.6265 91.1877 39.6165 91.1877 43.3018V51.7779C91.1877 53.6205 90.6349 55.0209 88.8657 56.0159C90.6717 56.9741 91.1877 58.1902 91.1877 60.1066V70.0199C91.1877 71.2361 91.2246 72.4522 91.5195 73.6315H85.7327C85.4747 72.5627 85.4378 71.1992 85.4378 70.0199V59.4064H85.4747ZM85.4747 43.4861C85.4747 42.3805 85.3273 41.9751 84.8481 41.9751H84.4058V53.5837H84.8481C85.3273 53.5837 85.4747 53.1783 85.4747 52.0727V43.4861Z" fill="#D7D7D7"/>
<path d="M104.862 67.1454C104.862 71.6783 102.761 74 98.7806 74C94.7999 74 92.5146 71.6783 92.5146 67.1454V44.2231C92.5146 39.6902 94.7999 37.3685 98.7806 37.3685C102.761 37.3685 104.862 39.6902 104.862 44.2231V51.741H99.3703V43.0807C99.3703 42.3068 99.2597 41.8277 98.7806 41.8277C98.3383 41.8277 98.2277 42.3068 98.2277 43.0807V68.251C98.2277 69.0249 98.3383 69.504 98.7806 69.504C99.2597 69.504 99.3703 69.0249 99.3703 68.251V58.8167H104.862V67.1454Z" fill="#D7D7D7"/>
<path d="M163.062 67.1454C163.062 71.6783 160.961 74 156.98 74C152.999 74 150.714 71.6783 150.714 67.1454V44.2231C150.714 39.6902 152.999 37.3685 156.98 37.3685C160.961 37.3685 163.062 39.6902 163.062 44.2231V51.741H157.57V43.0807C157.57 42.3068 157.459 41.8277 156.98 41.8277C156.538 41.8277 156.427 42.3068 156.427 43.0807V68.251C156.427 69.0249 156.538 69.504 156.98 69.504C157.459 69.504 157.57 69.0249 157.57 68.251V58.8167H163.062V67.1454Z" fill="#D7D7D7"/>
<path d="M113.303 57.8217H112.05V73.5946H106.3V37.6265H112.05V52.8466H113.303V37.6265H119.053V73.5946H113.303V57.8217Z" fill="#D7D7D7"/>
<path d="M120.306 37.6265H126.056V73.5946H120.306V37.6265Z" fill="#D7D7D7"/>
<path d="M92.5146 29.8137C92.5146 34.3466 94.7999 36.6683 98.7806 36.6683C102.761 36.6683 104.862 34.3466 104.862 29.8137V0.405378H99.3703V30.9193C99.3703 31.6932 99.2597 32.1723 98.7806 32.1723C98.3383 32.1723 98.2277 31.6932 98.2277 30.9193V0.405378H92.4778V29.8137H92.5146Z" fill="#D7D7D7"/>
<path d="M84.9955 0C81.0148 0 78.7296 2.32171 78.7296 6.85458V29.7769C78.7296 34.3098 81.0148 36.6315 84.9955 36.6315C88.9762 36.6315 91.0772 34.3098 91.0772 29.7769V6.85458C91.0403 2.35857 88.9762 0 84.9955 0ZM85.5484 30.9193C85.5484 31.6932 85.4378 32.1723 84.9587 32.1723C84.5164 32.1723 84.4058 31.6932 84.4058 30.9193V5.749C84.4058 4.9751 84.5164 4.49602 84.9587 4.49602C85.4378 4.49602 85.5484 4.9751 85.5484 5.749V30.9193Z" fill="#D7D7D7"/>
</svg>
