<svg width="424" height="50" viewBox="0 0 424 50" fill="none" xmlns="http://www.w3.org/2000/svg">
<path d="M0 4.47459V1.91769H19.3366V4.47459H12.3051V45.0656H29.6442L38.1939 33.7193L35.4772 47.6225H0V45.0656H6.95161V4.47459H0Z" fill="#D7D7D7"/>
<path d="M81.981 4.47459H75.1892V1.91769H91.9689V4.47459H85.0173V30.7628C85.0173 42.0292 77.027 48.3416 67.5984 48.3416C59.0487 48.3416 49.5402 42.9881 49.5402 31.0026V4.47459H42.5886V1.91769H61.9252V4.47459H54.9736V29.8839C54.9736 39.712 60.6468 44.6661 68.4773 44.6661C76.4676 44.6661 81.981 39.8718 81.981 29.9638V4.47459Z" fill="#D7D7D7"/>
<path d="M120.734 1.19855C126.008 1.19855 129.843 2.95643 132.64 4.87411L136.875 1.19855V15.4214C133.119 8.94919 128.165 4.07508 120.255 4.07508C111.385 4.07508 103.235 11.8257 103.235 23.2519C103.235 36.5958 112.664 43.9469 122.572 43.9469C129.284 43.9469 134.238 41.39 137.993 37.1551C135.836 43.1479 129.044 48.3416 120.335 48.3416C108.269 48.3416 97.8818 39.4723 97.8818 25.7289C97.9617 10.8669 109.308 1.19855 120.734 1.19855Z" fill="#D7D7D7"/>
<path d="M166.679 1.91769V4.47459H159.727V45.0656H166.679V47.6225H147.422V45.0656H154.374V4.47459H147.422V1.91769H166.679Z" fill="#D7D7D7"/>
<path d="M175.468 47.6225V45.0656H182.42V9.1889L176.107 1.91769H182.899L214.461 38.8331V4.47459H207.589V1.91769H224.529V4.47459H217.577V49.6201L185.536 12.7047V45.0656H192.408V47.6225H175.468Z" fill="#D7D7D7"/>
<path d="M279.582 23.4916C279.582 38.114 266.958 47.6225 250.737 47.6225H232.999V45.0656H239.95V4.47459H232.999V1.91769H250.098C267.277 1.91769 279.582 9.82813 279.582 23.4916ZM245.224 4.47459V45.0656H249.778C264.56 45.0656 273.59 36.5159 273.59 23.5715C273.59 11.3463 264.481 4.47459 249.619 4.47459H245.224Z" fill="#D7D7D7"/>
<path d="M306.59 1.91769L324.248 45.0656H329.922V47.6225H310.265V45.0656H318.575L312.503 30.0437H296.282L290.21 45.0656H298.36V47.6225H281.5V45.0656H287.093L302.914 6.63199L300.996 1.83778H306.59V1.91769ZM311.464 27.4868L304.432 10.1477L297.401 27.4868H311.464Z" fill="#D7D7D7"/>
<path d="M338.631 4.47459V1.91769H357.968V4.47459H350.936V45.0656H368.275L376.825 33.7193L374.108 47.6225H338.711V45.0656H345.663V4.47459H338.631Z" fill="#D7D7D7"/>
<path d="M413.021 15.9807V32.6006L408.227 25.5691H397.36V45.1455H415.338L423.888 34.1987L421.171 47.7024H385.055V45.1455H392.007V4.47459H385.055V1.91769H416.377L419.973 0V13.6635L413.9 4.47459H397.36V22.9323H408.227L413.021 15.9807Z" fill="#D7D7D7"/>
</svg>
