<svg width="314" height="95" viewBox="0 0 314 95" fill="none" xmlns="http://www.w3.org/2000/svg">
<path d="M117.806 20.3145H115.93V14.3715L113.353 20.3145H112.06L109.482 14.3715V20.3145H107.694V12.1648H110.288L112.754 17.821L115.196 12.1648H117.806V20.3145Z" fill="#D7D7D7"/>
<path d="M122.299 15.4151H127.032V17.0164H122.299V18.7052H127.806V20.3065H120.424V12.1568H127.806V13.7581H122.299V15.4151Z" fill="#D7D7D7"/>
<path d="M137.175 18.7052V20.3065H130.033V12.1568H131.9V18.7052H137.175Z" fill="#D7D7D7"/>
<path d="M147.255 18.044C147.255 19.5417 146.234 20.3065 144.27 20.3065H139.219V12.1568H144.111C146.018 12.1568 147 12.8977 147 14.3556C147 15.2398 146.577 15.8373 145.731 16.1241C146.753 16.4029 147.255 17.0403 147.255 18.044ZM141.086 15.4151H144.063C144.789 15.4151 145.14 15.1442 145.14 14.6105C145.14 14.0449 144.789 13.766 144.095 13.766H141.094V15.4151H141.086ZM145.348 17.8528C145.348 17.2952 144.981 17.0164 144.239 17.0164H141.086V18.7052H144.255C144.989 18.7052 145.348 18.4264 145.348 17.8528Z" fill="#D7D7D7"/>
<path d="M149.027 16.2356C149.027 13.7103 150.831 12.0134 153.52 12.0134C156.21 12.0134 158.006 13.7023 158.006 16.2356C158.006 18.769 156.21 20.4579 153.52 20.4579C150.831 20.4579 149.027 18.7769 149.027 16.2356ZM156.106 16.2356C156.106 14.722 155.069 13.6704 153.528 13.6704C151.988 13.6704 150.943 14.714 150.943 16.2356C150.943 17.7572 151.988 18.8088 153.528 18.8088C155.069 18.8088 156.106 17.7652 156.106 16.2356Z" fill="#D7D7D7"/>
<path d="M160.065 17.3031V12.1568H161.94V16.9925C161.94 18.2273 162.595 18.8088 163.991 18.8088C165.388 18.8088 166.042 18.2352 166.042 16.9925V12.1568H167.83V17.3031C167.83 19.3187 166.425 20.4499 163.935 20.4499C161.445 20.4499 160.057 19.3187 160.057 17.3031H160.065Z" fill="#D7D7D7"/>
<path d="M176.29 20.3145L174.263 17.3191H172.196V20.3145H170.328V12.1648H175.188C177.08 12.1648 178.101 13.065 178.101 14.7459C178.101 16.0365 177.503 16.865 176.346 17.1757L178.493 20.3145H176.282H176.29ZM172.196 15.7099H174.981C175.811 15.7099 176.194 15.3992 176.194 14.7459C176.194 14.0927 175.811 13.766 174.981 13.766H172.196V15.7099Z" fill="#D7D7D7"/>
<path d="M188.437 12.1648V20.3145H186.705L182.307 14.4193V20.3145H180.52V12.1648H182.738L186.649 17.4067V12.1648H188.437Z" fill="#D7D7D7"/>
<path d="M192.946 15.4151H197.679V17.0164H192.946V18.7052H198.453V20.3065H191.07V12.1568H198.453V13.7581H192.946V15.4151Z" fill="#D7D7D7"/>
<path d="M127.263 35.2436C127.263 39.5853 124.59 41.9354 119.753 41.9354H111.493V49.647H107.742V28.5836H119.753C124.59 28.5836 127.263 30.9338 127.263 35.2436ZM123.408 35.2436C123.408 32.9174 122.036 31.8101 119.218 31.8101H111.493V38.7249H119.218C122.036 38.7249 123.408 37.6017 123.408 35.2516V35.2436Z" fill="#D7D7D7"/>
<path d="M142.116 33.8256L141.9 37.2591C141.405 37.1635 140.727 37.0998 140.16 37.0998C137.614 37.0998 135.779 38 134.231 39.9836V49.647H130.631V34.0646H134.231V37.3786C135.811 34.9568 137.862 33.6901 140.847 33.6901C141.278 33.6901 141.741 33.722 142.116 33.8176V33.8256Z" fill="#D7D7D7"/>
<path d="M147.367 42.9631C147.838 45.5363 149.977 46.9623 153.449 46.9623C155.532 46.9623 157.263 46.4444 159.043 45.2256L160.248 48.0457C158.293 49.3761 155.962 50.0293 153.201 50.0293C147.239 50.0293 143.64 46.9304 143.64 41.8797C143.64 36.8289 147.176 33.6981 152.459 33.6981C157.742 33.6981 161.03 36.9166 161.03 41.8797C161.03 42.2222 161.03 42.5966 160.998 42.9631H147.367ZM157.487 40.3023C156.936 38.0717 155.093 36.7094 152.491 36.7094C149.889 36.7094 148.053 38.0717 147.455 40.3023H157.487Z" fill="#D7D7D7"/>
<path d="M180.352 34.0725V48.1732C180.352 53.2159 177.184 55.9166 171.318 55.9166C168.684 55.9166 166.481 55.3589 164.526 54.2755L165.643 51.4235C167.415 52.4193 169.027 52.8495 170.983 52.8495C174.861 52.8495 176.761 51.1765 176.761 47.8943V46.4365C175.268 48.6034 173.249 49.7505 170.711 49.7505C166.394 49.7505 163.377 46.5002 163.377 41.7283C163.377 36.9564 166.394 33.7061 170.711 33.7061C173.249 33.7061 175.268 34.8453 176.761 37.0201V34.0805H180.36L180.352 34.0725ZM176.753 39.4579C175.508 37.7849 173.616 36.7891 171.629 36.7891C168.844 36.7891 167.064 38.6851 167.064 41.7203C167.064 44.7556 168.844 46.6516 171.629 46.6516C173.616 46.6516 175.508 45.6558 176.753 43.9828V39.4579Z" fill="#D7D7D7"/>
<path d="M200.448 39.6172V49.6549H196.849V40.3342C196.849 37.9761 195.635 36.7971 193.337 36.7971C191.222 36.7971 189.522 37.761 188.221 39.4658V49.6629H184.622V34.0805H188.221V37.0201C189.865 34.8214 192.004 33.7061 194.614 33.7061C198.277 33.7061 200.448 35.9048 200.448 39.6252V39.6172Z" fill="#D7D7D7"/>
<path d="M219.546 40.9157V49.6549H215.947V46.7073C214.399 48.8184 211.909 50.0293 209.083 50.0293C205.516 50.0293 203.313 48.1732 203.313 45.0981C203.313 42.0231 205.612 40.1748 209.554 40.1748C211.821 40.1748 214.247 40.7564 215.947 41.7203V41.1627C215.947 38.1593 214.367 36.7652 210.951 36.7652C208.9 36.7652 207.096 37.2591 205.452 38.3187L204.151 35.5862C206.202 34.3195 208.501 33.6981 211.446 33.6981C217.064 33.6981 219.546 35.9287 219.546 40.9157ZM215.947 44.1103C214.486 43.3296 212.411 42.8356 210.52 42.8356C208.189 42.8356 207.008 43.5845 207.008 45.0025C207.008 46.4205 208.102 47.1375 210.089 47.1375C212.419 47.1375 214.59 46.1497 215.955 44.4449V44.1023L215.947 44.1103Z" fill="#D7D7D7"/>
<path d="M239.307 39.6172V49.6549H235.708V40.3342C235.708 37.9761 234.494 36.7971 232.196 36.7971C230.081 36.7971 228.381 37.761 227.08 39.4658V49.6629H223.481V34.0805H227.08V37.0201C228.724 34.8214 230.863 33.7061 233.473 33.7061C237.136 33.7061 239.307 35.9048 239.307 39.6252V39.6172Z" fill="#D7D7D7"/>
<path d="M242.332 41.9434C242.332 36.8927 245.931 33.6981 251.302 33.6981C253.569 33.6981 255.62 34.2239 257.264 35.3392L256.139 38.1593C254.774 37.2591 253.098 36.7891 251.454 36.7891C248.158 36.7891 246.019 38.7727 246.019 41.9036C246.019 45.0344 248.158 46.9224 251.709 46.9224C253.505 46.9224 255.093 46.4365 256.609 45.3769L257.846 48.2608C256.019 49.4319 253.872 50.0293 251.462 50.0293C245.811 50.0293 242.332 46.8667 242.332 41.9434Z" fill="#D7D7D7"/>
<path d="M276.618 34.0725L268.98 51.3916C267.543 54.6419 265.843 55.9166 262.803 55.9166C261.398 55.9166 260.193 55.6696 259.259 55.2633L260.073 52.3556C260.728 52.6583 261.59 52.8415 262.467 52.8415C264.143 52.8415 264.981 52.1325 265.819 50.1807L266.346 49.0335L258.9 34.0725H262.906L268.182 45.2256L272.906 34.0725H276.633H276.618Z" fill="#D7D7D7"/>
<path d="M304.934 49.6549L302.603 47.6075C300.776 49.1849 298.206 50.0293 295.157 50.0293C290.073 50.0293 286.897 47.6713 286.897 43.7359C286.897 40.3581 289.259 38.8365 291.709 38.008C290.377 36.582 289.818 35.3392 289.818 33.7618C289.818 30.2964 292.452 28.2172 296.642 28.2172C300.832 28.2172 303.29 30.2327 303.29 33.5468C303.29 36.8608 300.744 38.1992 297.703 39.0595L302.476 43.2101C303.314 41.8797 303.88 40.2386 304.096 38.3505L307.599 38.6931C307.288 41.2583 306.386 43.5208 304.894 45.3212L309.866 49.6629H304.926L304.934 49.6549ZM300.249 45.592L293.824 39.9836C292.116 40.5413 290.44 41.4415 290.44 43.4809C290.44 45.6478 292.364 47.0419 295.436 47.0419C297.296 47.0419 298.908 46.556 300.249 45.5841V45.592ZM293.353 33.7937C293.353 34.8453 293.848 35.6499 295.405 37.044C298.533 36.2713 299.97 35.7136 299.97 33.8256C299.97 32.057 298.693 31.0612 296.642 31.0612C294.59 31.0612 293.353 32.0889 293.353 33.7937Z" fill="#D7D7D7"/>
<path d="M127.263 67.0935C127.263 71.4352 124.59 73.7853 119.753 73.7853H111.493V81.4969H107.742V60.4335H119.753C124.59 60.4335 127.263 62.7836 127.263 67.0935ZM123.408 67.0935C123.408 64.7673 122.036 63.66 119.218 63.66H111.493V70.5748H119.218C122.036 70.5748 123.408 69.4516 123.408 67.1015V67.0935Z" fill="#D7D7D7"/>
<path d="M133.145 74.813C133.616 77.3862 135.755 78.8122 139.227 78.8122C141.31 78.8122 143.041 78.2943 144.821 77.0755L146.026 79.8956C144.071 81.226 141.741 81.8792 138.979 81.8792C133.017 81.8792 129.418 78.7803 129.418 73.7296C129.418 68.6788 132.954 65.548 138.237 65.548C143.52 65.548 146.808 68.7665 146.808 73.7296C146.808 74.0721 146.808 74.4465 146.776 74.813H133.145ZM143.257 72.1522C142.706 69.9216 140.863 68.5593 138.261 68.5593C135.659 68.5593 133.824 69.9216 133.225 72.1522H143.257Z" fill="#D7D7D7"/>
<path d="M150.017 59.5094H153.616V81.5048H150.017V59.5094Z" fill="#D7D7D7"/>
<path d="M174.007 65.9224L166.96 81.5048H163.265L156.194 65.9224H160.105L165.188 77.5694L170.248 65.9224H174.007Z" fill="#D7D7D7"/>
<path d="M176.226 61.0549C176.226 59.852 177.128 58.9757 178.429 58.9757C179.73 58.9757 180.631 59.844 180.631 61.0549C180.631 62.2658 179.73 63.166 178.429 63.166C177.128 63.166 176.226 62.3057 176.226 61.0549ZM176.633 65.9224H180.232V81.5048H176.633V65.9224Z" fill="#D7D7D7"/>
<path d="M183.52 73.7933C183.52 68.7426 187.12 65.548 192.491 65.548C194.758 65.548 196.809 66.0738 198.453 67.1891L197.327 70.0092C195.963 69.109 194.287 68.639 192.643 68.639C189.347 68.639 187.208 70.6226 187.208 73.7535C187.208 76.8843 189.347 78.7723 192.898 78.7723C194.694 78.7723 196.282 78.2864 197.798 77.2268L199.035 80.1107C197.208 81.2818 195.061 81.8792 192.651 81.8792C187 81.8792 183.52 78.7166 183.52 73.7933Z" fill="#D7D7D7"/>
<path d="M230.384 67.0935C230.384 71.4352 227.711 73.7853 222.874 73.7853H214.614V81.4969H210.863V60.4335H222.874C227.711 60.4335 230.384 62.7836 230.384 67.0935ZM226.537 67.0935C226.537 64.7673 225.165 63.66 222.348 63.66H214.622V70.5748H222.348C225.165 70.5748 226.537 69.4516 226.537 67.1015V67.0935Z" fill="#D7D7D7"/>
<path d="M249.578 71.4671V81.5048H245.979V72.1841C245.979 69.826 244.766 68.647 242.467 68.647C240.352 68.647 238.652 69.6109 237.352 71.3157V81.5128H233.752V59.5174H237.352V68.87C238.996 66.6713 241.135 65.556 243.744 65.556C247.407 65.556 249.578 67.7547 249.578 71.4751V71.4671Z" fill="#D7D7D7"/>
<path d="M269.491 65.9224L261.853 83.2415C260.416 86.4918 258.716 87.7665 255.676 87.7665C254.271 87.7665 253.066 87.5195 252.132 87.1132L252.946 84.2054C253.601 84.5082 254.463 84.6914 255.34 84.6914C257.016 84.6914 257.854 83.9824 258.692 82.0306L259.219 80.8834L251.773 65.9224H255.779L261.055 77.0755L265.779 65.9224H269.507H269.491Z" fill="#D7D7D7"/>
<path d="M270.153 79.6168L271.494 76.9799C273.481 78.2545 275.748 78.9954 278.565 78.9954C281.382 78.9954 282.691 78.3182 282.691 77.1073C282.691 75.8964 281.829 75.5937 278.19 75.283C272.699 74.7891 270.863 73.6101 270.863 70.4553C270.863 67.3006 273.689 65.556 278.278 65.556C281.103 65.556 283.593 66.2092 285.42 67.444L284.144 70.0172C282.627 69.0214 280.64 68.4717 278.309 68.4717C275.835 68.4717 274.495 69.117 274.495 70.296C274.495 71.4751 275.396 71.8096 279.028 72.1203C284.455 72.5824 286.322 73.7933 286.322 76.948C286.322 80.1027 283.561 81.8792 278.533 81.8792C275.117 81.8792 272.26 81.0428 270.153 79.6168Z" fill="#D7D7D7"/>
<path d="M289.02 61.0549C289.02 59.852 289.922 58.9757 291.223 58.9757C292.523 58.9757 293.425 59.844 293.425 61.0549C293.425 62.2658 292.523 63.166 291.223 63.166C289.922 63.166 289.02 62.3057 289.02 61.0549ZM289.419 65.9224H293.018V81.5048H289.419V65.9224Z" fill="#D7D7D7"/>
<path d="M296.306 73.7296C296.306 68.8302 299.842 65.548 305.157 65.548C310.472 65.548 314 68.8302 314 73.7296C314 78.6289 310.464 81.8792 305.157 81.8792C299.85 81.8792 296.306 78.621 296.306 73.7296ZM310.337 73.7296C310.337 70.6545 308.286 68.647 305.157 68.647C302.029 68.647 299.97 70.6625 299.97 73.7296C299.97 76.7966 302.021 78.7723 305.157 78.7723C308.294 78.7723 310.337 76.7568 310.337 73.7296Z" fill="#D7D7D7"/>
<path d="M86.9757 0C86.9757 24.4969 67.4704 44.421 43.4879 44.421C19.5053 44.421 0 24.4969 0 0L7.21472 0.294759C7.21472 20.7287 23.4878 37.3468 43.4879 37.3468C63.488 37.3468 79.761 20.7287 79.761 0.294759L86.9757 0Z" fill="#D7D7D7"/>
<path d="M65.3874 0.477987C64.6691 12.1249 55.1719 21.374 43.5916 21.374C32.0113 21.374 22.5141 12.1249 21.7958 0.477987L14.1581 0.278826C14.7806 16.2516 27.7017 29.0537 43.4878 29.0537C59.274 29.0537 72.1472 16.3073 72.8176 0.374423L65.3874 0.477987Z" fill="#D7D7D7"/>
<path d="M0.071828 51.2084C0.071828 75.3945 19.5133 95 43.4879 95C67.4624 95 86.9039 75.3945 86.9039 51.2084H0.071828Z" fill="#D7D7D7"/>
</svg>
