<svg width="280" height="104" viewBox="0 0 280 104" fill="none" xmlns="http://www.w3.org/2000/svg">
<path d="M78.1966 8.37401L92.4679 21.0731L92.5191 0.728302H88.8809L88.9065 13.2202L74.661 0.184103L74.6096 20.3474H78.2478L78.1966 8.37401Z" fill="#D7D7D7"/>
<path d="M106.202 20.7879C111.915 20.7879 116.783 16.2007 116.783 10.6286C116.783 4.71973 112.043 0.287801 106.202 0.287801C100.283 0.287801 95.5429 4.92695 95.5429 10.5508C95.5429 16.1489 100.283 20.7879 106.202 20.7879ZM106.202 3.6051C109.814 3.6051 112.889 6.61114 112.889 10.6024C112.889 14.4384 109.865 17.4968 106.022 17.4968C102.41 17.4968 99.4116 14.1269 99.4116 10.4471C99.4116 6.61114 102.486 3.6051 106.202 3.6051Z" fill="#D7D7D7"/>
<path d="M123.471 13.0387H123.855L131.131 20.3474H136.153L127.903 12.7017C130.44 12.054 132.566 10.4733 132.566 6.76712C132.566 1.47972 127.57 0.728302 123.829 0.728302H119.832V20.3474H123.471L123.471 13.0387ZM123.471 4.07131H124.803C127.57 4.07131 128.723 5.16023 128.723 6.79265C128.723 8.73652 127.442 9.69568 124.701 9.69568H123.471L123.471 4.07131Z" fill="#D7D7D7"/>
<path d="M140.407 20.3474H144.045V4.07131H149.784V0.753838H134.693V4.07131H140.407V20.3474Z" fill="#D7D7D7"/>
<path d="M164.645 8.65853H155.856V0.728302H152.218V20.3474H155.856V12.0021H164.645V20.3474H168.283V0.728302H164.645V8.65853Z" fill="#D7D7D7"/>
<path d="M0 48.1409H4.04819L5.73933 44.5384H14.5277L16.2185 48.1409H20.2927L10.1463 27.6663L0 48.1409ZM7.22522 41.4544L10.1204 35.234L13.0669 41.4544H7.22522Z" fill="#D7D7D7"/>
<path d="M33.5647 44.2794C32.6166 44.9016 31.3102 45.3159 29.747 45.3159C25.8013 45.3159 24.802 43.709 24.802 38.7848V28.5218H21.1638V40.9102C21.1638 46.068 24.0334 48.6076 29.1578 48.6076C33.1291 48.6076 35.6914 47.3115 37.2029 45.7308V28.5218H33.5647V44.2794Z" fill="#D7D7D7"/>
<path d="M44.8381 33.2646C44.8381 31.9167 46.0936 31.3468 47.4004 31.3468C48.7071 31.3468 50.1162 32.0727 51.1155 33.083L52.8836 30.3361C52.4994 29.9216 50.3727 28.0552 47.3748 28.0552C44.1466 28.0552 41.0462 29.9216 41.0462 33.4201C41.0462 39.407 49.6551 38.7594 49.6551 42.906C49.6551 44.3313 48.6048 45.2643 46.6319 45.2643C44.454 45.2643 42.6349 44.0724 41.6356 43.1389L39.7398 45.7829C40.7901 46.8969 43.5571 48.5818 46.3499 48.5818C50.885 48.5818 53.5241 45.8865 53.5241 42.8544C53.5241 35.9344 44.8381 36.7119 44.8381 33.2646Z" fill="#D7D7D7"/>
<path d="M60.6468 48.1409H64.285V31.8648H70.0242V28.5475H54.9331V31.8648H60.6468V48.1409Z" fill="#D7D7D7"/>
<path d="M76.0965 40.8322H76.4809L83.7573 48.1407H91.1363L92.8274 44.5382H101.616L103.307 48.1407H107.381L97.2344 27.6662L87.6205 47.0668L80.5291 40.4952C83.0657 39.8475 85.1924 38.2666 85.1924 34.5606C85.1924 29.273 80.1963 28.5218 76.4553 28.5218H72.4583V48.1407H76.0965V40.8322ZM97.2087 35.2339L100.155 41.4542H94.3133L97.2087 35.2339ZM76.0965 31.8646H77.429C80.1961 31.8646 81.3491 32.9537 81.3491 34.5861C81.3491 36.53 80.068 37.4892 77.3265 37.4892H76.0967L76.0965 31.8646Z" fill="#D7D7D7"/>
<path d="M120.755 44.7717H112.659V28.5218H109.021V48.1147H120.755V44.7717Z" fill="#D7D7D7"/>
<path d="M126.828 28.5218H123.189V48.1407H126.828V28.5218Z" fill="#D7D7D7"/>
<path d="M142.995 44.5384L144.685 48.1409H148.759L138.613 27.6663L128.467 48.1409H132.515L134.206 44.5384H142.995ZM138.587 35.234L141.534 41.4544H135.692L138.587 35.234Z" fill="#D7D7D7"/>
<path d="M164.671 41.0139L150.425 27.9778L150.374 48.1409H154.012L153.96 36.1675L168.232 48.8666L168.283 28.5218H164.645L164.671 41.0139Z" fill="#D7D7D7"/>
<path d="M61.7995 63.6759H55.5732V59.3213H63.2598V56.004H51.935V75.5974H55.5732V67.019H61.7995V63.6759Z" fill="#D7D7D7"/>
<path d="M77.4543 59.3213V56.004H65.9244V75.5712H78.2485V72.2284H69.5626V66.8897H75.917V63.5462H69.5626V59.3213H77.4543Z" fill="#D7D7D7"/>
<path d="M86.6783 72.7206C84.5004 72.7206 82.6813 71.5287 81.682 70.5951L79.7861 73.2391C80.8364 74.3531 83.6034 76.0379 86.3962 76.0379C90.9314 76.0379 93.5705 73.3426 93.5705 70.3104C93.5705 63.3904 84.8846 64.168 84.8846 60.7208C84.8846 59.3729 86.1402 58.8032 87.4469 58.8032C88.7536 58.8032 90.1628 59.5291 91.1621 60.5393L92.9301 57.7924C92.5459 57.378 90.4192 55.5114 87.4213 55.5114C84.1931 55.5114 81.0927 57.378 81.0927 60.8763C81.0927 66.8632 89.7016 66.2156 89.7016 70.3621C89.7016 71.7873 88.6511 72.7206 86.6783 72.7206Z" fill="#D7D7D7"/>
<path d="M104.332 75.5974V59.3213H110.071V56.004H94.9797V59.3213H100.693V75.5974H104.332Z" fill="#D7D7D7"/>
<path d="M116.143 55.9785H112.505V75.5974H116.143V55.9785Z" fill="#D7D7D7"/>
<path d="M137.23 55.9785H133.156L127.596 68.9891L121.805 55.9785H117.731L127.519 76.6858L137.23 55.9785Z" fill="#D7D7D7"/>
<path d="M140.356 71.9951H149.144L150.835 75.5976H154.909L144.762 55.123L134.616 75.5976H138.664L140.356 71.9951ZM144.737 62.6907L147.683 68.9111H141.841L144.737 62.6907Z" fill="#D7D7D7"/>
<path d="M160.187 55.9785H156.548V75.5712H168.283V72.2284H160.187V55.9785Z" fill="#D7D7D7"/>
<path d="M241.384 30.4427L232.065 53.3029H241.384V30.4427Z" fill="#D7D7D7"/>
<path d="M208.176 75.737V60.2936H194.081L208.176 75.737Z" fill="#D7D7D7"/>
<path d="M208.175 78.98L191.44 60.6435V78.7846L208.175 102.112V92.2838H223.993V80.2292H208.175V78.98Z" fill="#D7D7D7"/>
<path d="M227.741 60.2933H210.365V72.3479H227.741V60.2933Z" fill="#D7D7D7"/>
<path d="M191.44 82.5373V104H206.814L200.29 94.8737L191.44 82.5373Z" fill="#D7D7D7"/>
<path d="M233.239 84.653L246.527 103.835H260.733L233.239 63.2413V84.653Z" fill="#D7D7D7"/>
<path d="M233.239 103.836H243.827L233.239 88.5518V103.836Z" fill="#D7D7D7"/>
<path d="M207.887 0.000172543H193.654L207.887 21.2091V0.000172543Z" fill="#D7D7D7"/>
<path d="M207.887 25.1336L191.44 0.627882V53.3023H207.887V25.1336Z" fill="#D7D7D7"/>
<path d="M226.195 0.718467V24.6831L210.076 1.49422V24.4651L229.732 53.2276L241.254 24.9667L226.195 0.718467Z" fill="#D7D7D7"/>
<path d="M237.767 15.1468L240.256 19.2138L241.384 21.0303V0H228.324L237.739 15.1618L237.767 15.1468Z" fill="#D7D7D7"/>
<path d="M253.176 1.51527L243.573 25.0742V53.3032H280L253.176 1.51527Z" fill="#D7D7D7"/>
<path d="M69.5111 83.4997C63.5923 83.4997 58.8526 88.1389 58.8526 93.7627C58.8526 99.3608 63.5925 104 69.5111 104C75.2249 104 80.0929 99.4128 80.0929 93.8407C80.0929 87.9318 75.3526 83.4997 69.5111 83.4997ZM69.3316 100.709C65.719 100.709 62.7211 97.3388 62.7211 93.659C62.7211 89.823 65.7958 86.817 69.5109 86.817C73.1236 86.817 76.198 89.823 76.198 93.8143C76.198 97.6503 73.1749 100.709 69.3316 100.709Z" fill="#D7D7D7"/>
<path d="M83.2958 103.559H86.934V94.9807H93.1601V91.6377H86.934V87.2832H94.6204V83.9657H83.2958V103.559Z" fill="#D7D7D7"/>
<path d="M101.231 103.559H105.279L106.97 99.9566H115.759L117.449 103.559H121.523L111.377 83.0846L101.231 103.559ZM108.456 96.8728L111.351 90.6523L114.298 96.8728H108.456Z" fill="#D7D7D7"/>
<path d="M136.051 89.979C136.051 84.6915 131.054 83.9402 127.314 83.9402H123.317V103.559H126.955V96.2506H127.339L134.616 103.559H139.638L131.387 95.9136C133.924 95.2659 136.051 93.6852 136.051 89.979ZM126.955 92.9076V87.2832H128.287C131.054 87.2832 132.208 88.3721 132.208 90.0046C132.208 91.9484 130.926 92.9076 128.185 92.9076H126.955Z" fill="#D7D7D7"/>
<path d="M138.331 87.2832H144.045V103.559H147.683V87.2832H153.422V83.9657H138.331V87.2832Z" fill="#D7D7D7"/>
<path d="M159.597 88.6829C159.597 87.335 160.853 86.7652 162.16 86.7652C163.466 86.7652 164.875 87.491 165.875 88.5014L167.643 85.7543C167.259 85.34 165.132 83.4735 162.134 83.4735C158.906 83.4735 155.805 85.34 155.805 88.8383C155.805 94.8252 164.414 94.1775 164.414 98.3242C164.414 99.7494 163.364 100.683 161.391 100.683C159.213 100.683 157.394 99.4906 156.395 98.557L154.499 101.201C155.549 102.315 158.316 104 161.109 104C165.644 104 168.283 101.305 168.283 98.2725C168.283 91.3525 159.597 92.1301 159.597 88.6829Z" fill="#D7D7D7"/>
</svg>
