<svg width="352" height="81" viewBox="0 0 352 81" fill="none" xmlns="http://www.w3.org/2000/svg">
<path d="M24.2784 0V27.9476L0 0V40.8791H4.5827V12.177L28.8337 40.8791V0H24.2784Z" fill="#D7D7D7"/>
<path d="M67.3555 11.3569L74.098 27.8018H60.5709L67.3555 11.3569ZM67.3555 0L50.1557 40.8791H55.1751L58.8406 31.9987H75.8174L79.4554 40.8791H84.3889L67.3555 0Z" fill="#D7D7D7"/>
<path d="M132.41 0L109.753 23.984V0H105.141V40.8791H109.753V29.5932L119.762 19.2659L133.744 40.8791H139.286L122.838 16.1114L138.329 0H132.41Z" fill="#D7D7D7"/>
<path d="M214.113 0V18.486H193.431V0H188.817V40.8791H193.431V22.3348H214.113V40.8791H218.725V0H214.113Z" fill="#D7D7D7"/>
<path d="M299.716 0H295.105V40.8791H299.716V0Z" fill="#D7D7D7"/>
<path d="M337.495 18.3712C341.877 18.1415 345.097 15.798 345.097 11.397C345.097 6.74271 341.643 4.10759 336.801 4.10759H329.693V18.3712H337.495ZM325.023 0.056493H336.744C343.967 0.056493 349.623 4.33902 349.623 11.3952C349.623 16.895 346.142 20.886 340.89 21.9849L352 40.9374H346.606L336.366 22.5935H329.636V40.9374H325.025V0.056493H325.023Z" fill="#D7D7D7"/>
<path d="M257.062 11.3569L263.801 27.8018H250.274L257.062 11.3569ZM257.062 0L239.859 40.8791H244.878L248.544 31.9987H265.523L269.161 40.8791H274.09L257.062 0Z" fill="#D7D7D7"/>
<path d="M93.9728 70.4358L98.1352 80.8542H96.1088L95.303 78.589H91.2429L90.4298 80.8542H88.3814L92.5658 70.4358H93.9728ZM94.6671 76.989L93.2766 73.1839L91.8788 76.989H94.6671Z" fill="#D7D7D7"/>
<path d="M111.13 76.7885V70.434H113.002V76.5753C113.002 78.2574 113.446 79.194 115.123 79.194C116.8 79.194 117.244 78.2555 117.244 76.5753V70.434H119.123V76.7175C119.123 79.3435 117.924 81 115.123 81C112.322 81 111.13 79.3417 111.13 76.7867V76.7885Z" fill="#D7D7D7"/>
<path d="M132.672 77.9093L134.536 77.4373C134.669 78.7348 135.593 79.3125 136.703 79.3125C137.812 79.3125 138.426 78.7221 138.426 77.9858C138.426 75.8227 133.368 76.5462 133.368 73.1548C133.368 71.3105 134.868 70.2791 136.63 70.2791C137.916 70.2791 139.093 70.8404 139.809 72.1087L138.248 73.0618C137.887 72.3548 137.265 71.9465 136.562 71.9465C135.822 71.9465 135.246 72.3948 135.246 73.0618C135.246 75.0209 140.304 74.3593 140.304 77.8163C140.304 79.7863 138.671 80.9727 136.673 80.9727C134.824 80.9727 133.006 79.9631 132.674 77.9111L132.672 77.9093Z" fill="#D7D7D7"/>
<path d="M156.254 72.1069H152.978V70.434H161.399V72.1069H158.131V80.8524H156.252V72.1069H156.254Z" fill="#D7D7D7"/>
<path d="M178.367 70.4358C180.319 70.4358 181.983 71.5474 181.983 73.5028C181.983 74.8131 181.126 75.8099 179.942 76.2163L182.848 80.8688H180.695L178.122 76.4004H176.865V80.8688H174.987V70.4358H178.367ZM178.537 74.8714C179.535 74.8295 180.127 74.3101 180.127 73.532C180.127 72.6682 179.454 72.1069 178.382 72.1069H176.882V74.8714H178.537Z" fill="#D7D7D7"/>
<path d="M200.782 70.4358L204.944 80.8542H202.918L202.112 78.589H198.052L197.239 80.8542H195.191L199.375 70.4358H200.782ZM201.478 76.989L200.087 73.1839L198.69 76.989H201.478Z" fill="#D7D7D7"/>
<path d="M218.495 70.4358H220.373V79.0847H224.839V80.8542H218.495V70.4358Z" fill="#D7D7D7"/>
<path d="M238.439 70.4358H240.318V80.8542H238.439V70.4358Z" fill="#D7D7D7"/>
<path d="M258.053 70.4358H259.458L263.62 80.8542H261.596L260.79 78.589H256.73L255.917 80.8542H253.868L258.053 70.4358ZM260.152 76.989L258.762 73.1839L257.364 76.989H260.152Z" fill="#D7D7D7"/>
</svg>
