<svg width="250" height="97" viewBox="0 0 250 97" fill="none" xmlns="http://www.w3.org/2000/svg">
<path d="M107.767 79.6877C107.739 79.6903 107.71 79.687 107.684 79.678C107.657 79.669 107.632 79.6545 107.611 79.6355C107.59 79.6165 107.573 79.5933 107.562 79.5675C107.551 79.5417 107.545 79.5139 107.545 79.4857V77.9243C107.545 77.8961 107.551 77.8682 107.562 77.8424C107.573 77.8166 107.59 77.7935 107.611 77.7745C107.632 77.7555 107.657 77.741 107.684 77.732C107.71 77.723 107.739 77.7196 107.767 77.7222H109.23C109.257 77.7193 109.285 77.7225 109.311 77.7317C109.337 77.7408 109.361 77.7556 109.38 77.775C109.4 77.7944 109.415 77.8178 109.424 77.8437C109.433 77.8695 109.436 77.897 109.433 77.9243V79.5224C109.436 79.5497 109.433 79.5772 109.424 79.603C109.415 79.6289 109.4 79.6523 109.38 79.6717C109.361 79.6911 109.337 79.7059 109.311 79.715C109.285 79.7241 109.257 79.7274 109.23 79.7245L107.767 79.6877ZM107.767 92.1608C107.74 92.1637 107.712 92.1604 107.686 92.1513C107.66 92.1422 107.636 92.1273 107.617 92.108C107.597 92.0886 107.582 92.0652 107.573 92.0394C107.564 92.0135 107.561 91.9859 107.563 91.9587V82.2044C107.561 82.1763 107.564 82.1481 107.573 82.1214C107.582 82.0947 107.597 82.0702 107.616 82.0495C107.635 82.0287 107.659 82.0122 107.685 82.0009C107.711 81.9896 107.739 81.9838 107.767 81.984H109.137C109.196 81.984 109.253 82.0072 109.294 82.0485C109.336 82.0899 109.359 82.1459 109.359 82.2044V91.9587C109.359 91.9868 109.354 92.0147 109.342 92.0405C109.331 92.0663 109.314 92.0894 109.293 92.1085C109.272 92.1275 109.248 92.142 109.221 92.151C109.194 92.16 109.165 92.1633 109.137 92.1608H107.767Z" fill="#D7D7D7"/>
<path d="M119.356 92.1608C119.328 92.1633 119.3 92.16 119.273 92.151C119.246 92.142 119.221 92.1275 119.2 92.1085C119.179 92.0894 119.163 92.0663 119.151 92.0405C119.14 92.0147 119.134 91.9868 119.134 91.9587V86.0069C119.134 84.372 118.394 83.4168 116.857 83.4168C116.531 83.4051 116.207 83.4623 115.906 83.5845C115.604 83.7068 115.332 83.8913 115.108 84.1259C114.884 84.3605 114.713 84.6397 114.606 84.945C114.499 85.2503 114.458 85.5747 114.487 85.8967V91.9587C114.49 91.9859 114.487 92.0135 114.478 92.0394C114.469 92.0652 114.454 92.0886 114.434 92.108C114.415 92.1273 114.391 92.1422 114.365 92.1513C114.339 92.1604 114.311 92.1637 114.284 92.1608H112.914C112.885 92.1633 112.857 92.16 112.83 92.151C112.803 92.142 112.779 92.1275 112.758 92.1085C112.737 92.0894 112.72 92.0663 112.709 92.0405C112.697 92.0147 112.691 91.9868 112.692 91.9587V82.2044C112.692 82.1459 112.715 82.0899 112.757 82.0485C112.798 82.0072 112.855 81.984 112.914 81.984H114.284C114.312 81.9838 114.34 81.9896 114.366 82.0009C114.392 82.0122 114.415 82.0287 114.435 82.0495C114.454 82.0702 114.468 82.0947 114.477 82.1214C114.487 82.1481 114.49 82.1763 114.487 82.2044V83.1964C114.801 82.7347 115.231 82.3628 115.734 82.1178C116.238 81.8728 116.797 81.7633 117.357 81.8002C117.856 81.7835 118.352 81.874 118.812 82.0655C119.272 82.2569 119.686 82.5449 120.023 82.9095C120.361 83.2741 120.615 83.7069 120.768 84.1781C120.922 84.6493 120.97 85.1478 120.911 85.6395V92.0138C120.912 92.0419 120.906 92.0698 120.894 92.0956C120.883 92.1214 120.866 92.1446 120.845 92.1636C120.824 92.1826 120.8 92.1971 120.773 92.2061C120.746 92.2151 120.717 92.2184 120.689 92.2159L119.356 92.1608Z" fill="#D7D7D7"/>
<path d="M122.559 90.8749C122.524 90.83 122.506 90.7752 122.506 90.7188C122.506 90.6623 122.524 90.6075 122.559 90.5626L123.448 89.6441C123.465 89.6213 123.487 89.6028 123.513 89.59C123.539 89.5773 123.567 89.5706 123.596 89.5706C123.624 89.5706 123.653 89.5773 123.679 89.59C123.704 89.6028 123.727 89.6213 123.744 89.6441C124.635 90.377 125.752 90.7854 126.91 90.8014C128.409 90.8014 129.168 90.1585 129.168 89.2583C129.168 88.3582 128.779 87.9908 127.169 87.8255L126.076 87.7153C124.059 87.5132 123.022 86.5213 123.022 84.8496C123.022 83.178 124.41 81.7451 126.836 81.7451C128.162 81.7118 129.463 82.112 130.538 82.8841C130.649 82.8841 130.649 83.0678 130.538 83.178L129.798 84.0965C129.757 84.1326 129.704 84.1526 129.65 84.1526C129.595 84.1526 129.542 84.1326 129.501 84.0965C128.674 83.5783 127.721 83.2927 126.743 83.2699C125.447 83.2699 124.892 83.8393 124.892 84.6659C124.892 85.4926 125.373 85.8967 126.891 86.0436L127.965 86.1539C130.038 86.3559 131.056 87.3847 131.056 89.0196C131.056 91.0219 129.594 92.3628 126.91 92.3628C125.324 92.4135 123.776 91.8839 122.559 90.8749Z" fill="#D7D7D7"/>
<path d="M133.352 96.0552C133.324 96.0577 133.295 96.0544 133.268 96.0454C133.242 96.0364 133.217 96.0219 133.196 96.0029C133.175 95.9839 133.158 95.9607 133.147 95.9349C133.136 95.9091 133.13 95.8813 133.13 95.8531V82.2779C133.13 82.2194 133.153 82.1634 133.195 82.122C133.237 82.0807 133.293 82.0575 133.352 82.0575H134.778C134.806 82.0573 134.834 82.0631 134.86 82.0744C134.886 82.0857 134.909 82.1022 134.929 82.123C134.948 82.1437 134.962 82.1682 134.971 82.1949C134.98 82.2216 134.984 82.2498 134.981 82.2779V83.1964C135.291 82.7171 135.728 82.3316 136.244 82.0821C136.76 81.8326 137.335 81.7288 137.906 81.7819C138.687 81.7197 139.466 81.9296 140.108 82.3755C140.75 82.8215 141.215 83.4755 141.424 84.2251C141.918 86.1165 141.918 88.1017 141.424 89.9932C141.218 90.7446 140.754 91.4007 140.111 91.8472C139.468 92.2937 138.688 92.5021 137.906 92.4363C137.333 92.4855 136.758 92.3779 136.242 92.1253C135.726 91.8727 135.29 91.4847 134.981 91.0035V95.8163C134.984 95.8436 134.981 95.8711 134.972 95.8969C134.962 95.9228 134.948 95.9462 134.928 95.9656C134.909 95.985 134.885 95.9998 134.859 96.009C134.833 96.0181 134.805 96.0213 134.778 96.0184L133.352 96.0552ZM139.684 89.2583C139.869 88.5699 139.95 87.858 139.924 87.1458C139.949 86.4277 139.868 85.7097 139.684 85.0149C139.538 84.5439 139.235 84.1363 138.824 83.8591C138.413 83.582 137.92 83.4519 137.425 83.4903C136.929 83.4449 136.432 83.5722 136.02 83.8504C135.608 84.1285 135.306 84.5402 135.166 85.0149C134.972 85.708 134.891 86.4274 134.926 87.1458C134.889 87.8583 134.971 88.5719 135.166 89.2583C135.336 89.7169 135.644 90.1127 136.048 90.3922C136.452 90.6718 136.933 90.8216 137.425 90.8216C137.917 90.8216 138.398 90.6718 138.802 90.3922C139.206 90.1127 139.513 89.7169 139.684 89.2583Z" fill="#D7D7D7"/>
<path d="M144.608 79.6877C144.58 79.6903 144.551 79.687 144.524 79.678C144.498 79.669 144.473 79.6545 144.452 79.6355C144.431 79.6165 144.414 79.5933 144.403 79.5675C144.392 79.5417 144.386 79.5139 144.386 79.4857V77.9243C144.386 77.8961 144.392 77.8682 144.403 77.8424C144.414 77.8166 144.431 77.7935 144.452 77.7745C144.473 77.7555 144.498 77.741 144.524 77.732C144.551 77.723 144.58 77.7196 144.608 77.7222H146.071C146.098 77.7193 146.126 77.7225 146.152 77.7317C146.178 77.7408 146.201 77.7556 146.221 77.775C146.241 77.7944 146.255 77.8178 146.265 77.8437C146.274 77.8695 146.277 77.897 146.274 77.9243V79.5224C146.277 79.5497 146.274 79.5772 146.265 79.603C146.255 79.6289 146.241 79.6523 146.221 79.6717C146.201 79.6911 146.178 79.7059 146.152 79.715C146.126 79.7241 146.098 79.7274 146.071 79.7245L144.608 79.6877ZM144.608 92.1608C144.581 92.1637 144.553 92.1604 144.527 92.1513C144.501 92.1422 144.477 92.1273 144.458 92.108C144.438 92.0886 144.423 92.0652 144.414 92.0394C144.405 92.0135 144.401 91.9859 144.404 91.9587V82.2044C144.402 82.1763 144.405 82.1481 144.414 82.1214C144.423 82.0947 144.438 82.0702 144.457 82.0495C144.476 82.0287 144.5 82.0122 144.526 82.0009C144.552 81.9896 144.58 81.9838 144.608 81.984H145.978C146.037 81.984 146.093 82.0072 146.135 82.0485C146.177 82.0899 146.2 82.1459 146.2 82.2044V91.9587C146.2 91.9868 146.194 92.0147 146.183 92.0405C146.172 92.0663 146.155 92.0894 146.134 92.1085C146.113 92.1275 146.089 92.142 146.062 92.151C146.035 92.16 146.006 92.1633 145.978 92.1608H144.608Z" fill="#D7D7D7"/>
<path d="M149.755 92.1608C149.726 92.1633 149.698 92.16 149.671 92.151C149.644 92.142 149.619 92.1275 149.599 92.1085C149.578 92.0894 149.561 92.0663 149.55 92.0405C149.538 92.0147 149.532 91.9868 149.532 91.9587V82.2044C149.532 82.1459 149.556 82.0899 149.598 82.0485C149.639 82.0072 149.696 81.9839 149.755 81.9839H151.125C151.153 81.9838 151.181 81.9896 151.207 82.0009C151.233 82.0121 151.256 82.0287 151.276 82.0495C151.295 82.0702 151.309 82.0947 151.318 82.1214C151.327 82.1481 151.331 82.1763 151.328 82.2044V83.1963C151.592 82.7168 151.988 82.3219 152.47 82.0583C152.952 81.7946 153.5 81.6733 154.05 81.7084C154.823 81.7072 155.572 81.9809 156.16 82.4799C156.253 82.5901 156.29 82.682 156.16 82.7738L155.364 83.8209C155.347 83.8437 155.324 83.8622 155.299 83.875C155.273 83.8878 155.245 83.8944 155.216 83.8944C155.187 83.8944 155.159 83.8878 155.133 83.875C155.107 83.8622 155.085 83.8437 155.068 83.8209C154.596 83.5102 154.042 83.3441 153.476 83.3433C151.921 83.3433 151.273 84.5557 151.273 86.3192V91.8301C151.276 91.8574 151.272 91.8849 151.263 91.9107C151.254 91.9366 151.239 91.96 151.219 91.9794C151.2 91.9988 151.176 92.0136 151.15 92.0227C151.124 92.0318 151.096 92.0351 151.069 92.0322L149.755 92.1608Z" fill="#D7D7D7"/>
<path d="M157.438 89.6441C157.184 88.8111 157.071 87.942 157.104 87.0723C157.061 86.2035 157.167 85.3338 157.419 84.5006C157.732 83.6927 158.284 82.9979 159.003 82.5079C159.722 82.0178 160.573 81.7555 161.446 81.7555C162.318 81.7555 163.169 82.0178 163.888 82.5079C164.607 82.9979 165.159 83.6927 165.472 84.5006C165.732 85.4452 165.839 86.4251 165.787 87.403C165.787 87.4336 165.781 87.4638 165.768 87.4918C165.756 87.5198 165.738 87.545 165.715 87.5658C165.693 87.5865 165.666 87.6023 165.637 87.6122C165.608 87.6222 165.577 87.626 165.546 87.6234H159.067C158.974 87.6234 158.937 87.6235 158.937 87.752C158.922 88.1687 158.978 88.5849 159.104 88.9828C159.262 89.535 159.605 90.0174 160.076 90.3511C160.547 90.6848 161.118 90.85 161.696 90.8198C162.192 90.8361 162.685 90.7424 163.14 90.5453C163.595 90.3483 163.999 90.0529 164.324 89.6808C164.435 89.589 164.547 89.5523 164.658 89.6808L165.528 90.4707C165.551 90.4878 165.569 90.51 165.582 90.5355C165.595 90.561 165.602 90.5892 165.602 90.6177C165.602 90.6462 165.595 90.6743 165.582 90.6998C165.569 90.7254 165.551 90.7475 165.528 90.7646C165.04 91.339 164.425 91.7949 163.732 92.0974C163.039 92.3999 162.285 92.541 161.529 92.5098C160.619 92.5727 159.714 92.3219 158.969 91.7997C158.224 91.2776 157.683 90.5162 157.438 89.6441ZM163.825 86.1906C163.842 86.1939 163.861 86.1928 163.878 86.1875C163.895 86.1822 163.911 86.1728 163.923 86.1602C163.936 86.1475 163.946 86.132 163.951 86.1149C163.956 86.0978 163.957 86.0796 163.954 86.062C163.96 85.6773 163.911 85.2937 163.806 84.9231C163.62 84.4526 163.295 84.0488 162.874 83.7642C162.453 83.4795 161.955 83.3272 161.446 83.3272C160.936 83.3272 160.438 83.4795 160.017 83.7642C159.596 84.0488 159.272 84.4526 159.085 84.9231C158.972 85.2918 158.922 85.6768 158.937 86.062C158.937 86.1539 158.937 86.1906 159.067 86.1906H163.825Z" fill="#D7D7D7"/>
<path d="M173.1 84.5006C173.366 83.6605 173.908 82.9331 174.64 82.4338C175.371 81.9345 176.249 81.6921 177.135 81.7451C177.821 81.7174 178.502 81.861 179.116 82.1627C179.731 82.4644 180.259 82.9146 180.653 83.4719C180.676 83.489 180.694 83.5112 180.707 83.5367C180.72 83.5622 180.727 83.5903 180.727 83.6189C180.727 83.6474 180.72 83.6755 180.707 83.701C180.694 83.7265 180.676 83.7487 180.653 83.7658L179.709 84.5373C179.69 84.5604 179.666 84.579 179.638 84.5917C179.611 84.6045 179.581 84.6111 179.551 84.6111C179.521 84.6111 179.492 84.6045 179.464 84.5917C179.437 84.579 179.413 84.5604 179.394 84.5373C179.156 84.1789 178.827 83.8886 178.44 83.6952C178.054 83.5019 177.623 83.4122 177.191 83.4351C176.686 83.399 176.184 83.5362 175.77 83.8239C175.355 84.1116 175.053 84.5322 174.914 85.0149C174.594 86.3806 174.594 87.8008 174.914 89.1665C175.049 89.6526 175.35 90.0774 175.765 90.3687C176.18 90.66 176.684 90.7998 177.191 90.7646C177.623 90.7839 178.052 90.6927 178.438 90.4996C178.824 90.3066 179.153 90.0183 179.394 89.6624C179.415 89.6419 179.439 89.6256 179.466 89.6144C179.493 89.6033 179.522 89.5976 179.551 89.5976C179.581 89.5976 179.61 89.6033 179.637 89.6144C179.664 89.6256 179.688 89.6419 179.709 89.6624L180.653 90.434C180.782 90.5442 180.782 90.6177 180.653 90.7279C180.259 91.2852 179.731 91.7354 179.116 92.0371C178.502 92.3388 177.821 92.4824 177.135 92.4547C176.251 92.5121 175.373 92.2736 174.641 91.7774C173.91 91.2812 173.367 90.5559 173.1 89.7175C172.854 88.8765 172.741 88.0028 172.766 87.1275C172.734 86.2397 172.846 85.3526 173.1 84.5006Z" fill="#D7D7D7"/>
<path d="M189.298 92.1608C189.271 92.1637 189.243 92.1604 189.217 92.1513C189.191 92.1422 189.167 92.1273 189.148 92.108C189.128 92.0886 189.113 92.0652 189.104 92.0393C189.095 92.0135 189.092 91.9859 189.095 91.9587V91.0035C188.79 91.4607 188.37 91.8304 187.876 92.0754C187.382 92.3205 186.832 92.4323 186.281 92.3996C185.782 92.4163 185.286 92.3258 184.825 92.1344C184.365 91.9429 183.952 91.655 183.615 91.2903C183.277 90.9257 183.023 90.493 182.869 90.0217C182.716 89.5505 182.667 89.052 182.726 88.5603V82.2044C182.726 82.1459 182.75 82.0899 182.791 82.0485C182.833 82.0072 182.889 81.9839 182.948 81.9839H184.318C184.347 81.9838 184.375 81.9896 184.401 82.0009C184.427 82.0122 184.45 82.0287 184.469 82.0495C184.489 82.0702 184.503 82.0947 184.512 82.1214C184.521 82.1481 184.525 82.1763 184.522 82.2044V88.1194C184.522 89.7911 185.281 90.7463 186.799 90.7463C187.124 90.7506 187.445 90.6868 187.743 90.5588C188.041 90.4308 188.307 90.2418 188.526 90.004C188.745 89.7662 188.91 89.4851 189.011 89.1792C189.113 88.8734 189.147 88.5498 189.113 88.2296V82.2044C189.111 82.1763 189.114 82.1481 189.123 82.1214C189.132 82.0947 189.147 82.0702 189.166 82.0495C189.185 82.0287 189.208 82.0122 189.234 82.0009C189.26 81.9896 189.289 81.9838 189.317 81.9839H190.687C190.746 81.9839 190.802 82.0072 190.844 82.0485C190.886 82.0899 190.909 82.1459 190.909 82.2044V91.9587C190.909 91.9868 190.903 92.0147 190.892 92.0405C190.881 92.0663 190.864 92.0894 190.843 92.1085C190.822 92.1275 190.797 92.142 190.771 92.151C190.744 92.16 190.715 92.1633 190.687 92.1608H189.298Z" fill="#D7D7D7"/>
<path d="M194.408 92.1608C194.38 92.1633 194.351 92.16 194.324 92.151C194.298 92.142 194.273 92.1275 194.252 92.1085C194.231 92.0894 194.214 92.0663 194.203 92.0405C194.192 92.0147 194.186 91.9868 194.186 91.9587V82.2044C194.186 82.1459 194.209 82.0899 194.251 82.0485C194.293 82.0072 194.349 81.9839 194.408 81.9839H195.871C195.929 81.9839 195.986 82.0072 196.028 82.0485C196.069 82.0899 196.093 82.1459 196.093 82.2044V83.1964C196.354 82.7153 196.75 82.3191 197.233 82.0553C197.715 81.7914 198.264 81.671 198.814 81.7084C199.582 81.71 200.324 81.9836 200.906 82.4799C201.017 82.5901 201.036 82.682 200.906 82.7738L200.11 83.8209C200.093 83.8437 200.07 83.8623 200.045 83.875C200.019 83.8878 199.991 83.8944 199.962 83.8944C199.933 83.8944 199.905 83.8878 199.879 83.875C199.853 83.8623 199.831 83.8437 199.814 83.8209C199.348 83.5127 198.8 83.3466 198.24 83.3433C196.667 83.3433 196.037 84.5557 196.037 86.3192V91.8301C196.037 91.8583 196.031 91.8861 196.02 91.9119C196.009 91.9377 195.992 91.9609 195.971 91.9799C195.95 91.999 195.926 92.0134 195.899 92.0224C195.872 92.0314 195.843 92.0347 195.815 92.0322L194.408 92.1608Z" fill="#D7D7D7"/>
<path d="M202.924 79.6877C202.897 79.6906 202.869 79.6874 202.843 79.6783C202.817 79.6691 202.793 79.6544 202.774 79.635C202.754 79.6156 202.739 79.5921 202.73 79.5663C202.721 79.5405 202.717 79.5129 202.72 79.4857V77.9243C202.717 77.897 202.721 77.8695 202.73 77.8437C202.739 77.8178 202.754 77.7944 202.774 77.775C202.793 77.7556 202.817 77.7408 202.843 77.7317C202.869 77.7225 202.897 77.7193 202.924 77.7222H204.387C204.415 77.7196 204.443 77.723 204.47 77.732C204.497 77.741 204.522 77.7555 204.543 77.7745C204.564 77.7935 204.58 77.8166 204.592 77.8424C204.603 77.8682 204.609 77.8961 204.609 77.9243V79.5224C204.609 79.5506 204.603 79.5784 204.592 79.6042C204.58 79.63 204.564 79.6532 204.543 79.6722C204.522 79.6912 204.497 79.7057 204.47 79.7147C204.443 79.7237 204.415 79.727 204.387 79.7245L202.924 79.6877ZM202.924 92.1608C202.896 92.1633 202.867 92.16 202.84 92.151C202.813 92.142 202.789 92.1275 202.768 92.1085C202.747 92.0894 202.73 92.0663 202.719 92.0405C202.708 92.0147 202.702 91.9868 202.702 91.9587V82.2044C202.702 82.1459 202.725 82.0899 202.767 82.0485C202.809 82.0072 202.865 81.984 202.924 81.984H204.294C204.322 81.9838 204.35 81.9896 204.376 82.0009C204.402 82.0122 204.426 82.0287 204.445 82.0495C204.464 82.0702 204.479 82.0947 204.488 82.1214C204.497 82.1481 204.5 82.1763 204.498 82.2044V91.9587C204.501 91.9859 204.497 92.0135 204.488 92.0394C204.479 92.0652 204.464 92.0886 204.444 92.108C204.425 92.1273 204.401 92.1422 204.375 92.1513C204.349 92.1604 204.321 92.1637 204.294 92.1608H202.924Z" fill="#D7D7D7"/>
<path d="M207.571 89.6625C207.319 88.8228 207.206 87.9479 207.238 87.0723C207.206 86.2027 207.318 85.3339 207.571 84.5006C207.889 83.6901 208.446 82.9939 209.169 82.5029C209.893 82.012 210.749 81.7493 211.625 81.7493C212.502 81.7493 213.358 82.012 214.081 82.5029C214.804 82.9939 215.362 83.6901 215.679 84.5006C215.932 85.3339 216.044 86.2027 216.013 87.0723C216.044 87.9479 215.932 88.8228 215.679 89.6625C215.362 90.4729 214.804 91.1692 214.081 91.6601C213.358 92.1511 212.502 92.4137 211.625 92.4137C210.749 92.4137 209.893 92.1511 209.169 91.6601C208.446 91.1692 207.889 90.4729 207.571 89.6625ZM213.939 89.1481C214.128 88.4728 214.209 87.7725 214.18 87.0723C214.21 86.3722 214.129 85.6717 213.939 84.9966C213.759 84.533 213.441 84.1345 213.028 83.8534C212.615 83.5724 212.126 83.4219 211.625 83.4219C211.124 83.4219 210.635 83.5724 210.222 83.8534C209.809 84.1345 209.491 84.533 209.311 84.9966C209.121 85.6717 209.04 86.3722 209.07 87.0723C209.041 87.7725 209.123 88.4728 209.311 89.1481C209.484 89.6195 209.798 90.0268 210.212 90.3145C210.626 90.6023 211.12 90.7567 211.625 90.7567C212.131 90.7567 212.624 90.6023 213.038 90.3145C213.452 90.0268 213.767 89.6195 213.939 89.1481Z" fill="#D7D7D7"/>
<path d="M217.549 90.8749C217.515 90.83 217.496 90.7752 217.496 90.7188C217.496 90.6623 217.515 90.6075 217.549 90.5626L218.438 89.6441C218.455 89.6213 218.478 89.6028 218.503 89.59C218.529 89.5773 218.557 89.5706 218.586 89.5706C218.615 89.5706 218.643 89.5773 218.669 89.59C218.695 89.6028 218.717 89.6213 218.734 89.6441C219.625 90.377 220.742 90.7854 221.9 90.8014C223.399 90.8014 224.158 90.1585 224.158 89.2583C224.158 88.3582 223.77 87.9908 222.159 87.8255L221.067 87.7153C219.049 87.5132 218.012 86.5213 218.012 84.8496C218.012 83.178 219.401 81.7451 221.826 81.7451C223.152 81.7118 224.453 82.112 225.528 82.8841C225.639 82.8841 225.639 83.0678 225.528 83.178L224.788 84.0965C224.747 84.1326 224.694 84.1526 224.64 84.1526C224.585 84.1526 224.532 84.1326 224.492 84.0965C223.664 83.5783 222.711 83.2927 221.733 83.2699C220.437 83.2699 219.882 83.8393 219.882 84.6659C219.882 85.4926 220.363 85.8967 221.881 86.0436L222.955 86.1539C225.029 86.3559 226.047 87.3847 226.047 89.0196C226.047 91.0219 224.584 92.3628 221.9 92.3628C220.315 92.4135 218.766 91.8839 217.549 90.8749Z" fill="#D7D7D7"/>
<path d="M228.713 79.6877C228.685 79.6906 228.657 79.6874 228.631 79.6783C228.605 79.6691 228.582 79.6544 228.562 79.635C228.543 79.6156 228.528 79.5921 228.519 79.5663C228.509 79.5405 228.506 79.5129 228.509 79.4857V77.9243C228.506 77.897 228.509 77.8695 228.519 77.8437C228.528 77.8178 228.543 77.7944 228.562 77.775C228.582 77.7556 228.605 77.7408 228.631 77.7317C228.657 77.7225 228.685 77.7193 228.713 77.7222H230.175C230.203 77.7196 230.232 77.723 230.259 77.732C230.286 77.741 230.31 77.7555 230.331 77.7745C230.352 77.7935 230.369 77.8166 230.38 77.8424C230.392 77.8682 230.397 77.8961 230.397 77.9243V79.5224C230.397 79.5506 230.392 79.5784 230.38 79.6042C230.369 79.63 230.352 79.6532 230.331 79.6722C230.31 79.6912 230.286 79.7057 230.259 79.7147C230.232 79.7237 230.203 79.727 230.175 79.7245L228.713 79.6877ZM228.713 92.1608C228.684 92.1633 228.656 92.16 228.629 92.151C228.602 92.142 228.577 92.1275 228.557 92.1085C228.536 92.0894 228.519 92.0663 228.508 92.0405C228.496 92.0147 228.49 91.9868 228.49 91.9587V82.2044C228.49 82.1459 228.514 82.0899 228.556 82.0485C228.597 82.0072 228.654 81.984 228.713 81.984H230.083C230.111 81.9838 230.139 81.9896 230.165 82.0009C230.191 82.0122 230.214 82.0287 230.234 82.0495C230.253 82.0702 230.267 82.0947 230.276 82.1214C230.285 82.1481 230.289 82.1763 230.286 82.2044V91.9587C230.289 91.9859 230.286 92.0135 230.277 92.0394C230.267 92.0652 230.253 92.0886 230.233 92.108C230.214 92.1273 230.19 92.1422 230.164 92.1513C230.138 92.1604 230.11 92.1637 230.083 92.1608H228.713Z" fill="#D7D7D7"/>
<path d="M237.043 92.271C235.063 92.271 234.285 91.3709 234.285 89.3869V83.5638C234.285 83.4719 234.285 83.4352 234.155 83.4352H233.304C233.245 83.4352 233.188 83.4119 233.147 83.3706C233.105 83.3293 233.082 83.2732 233.082 83.2148V82.2044C233.082 82.1459 233.105 82.0899 233.147 82.0485C233.188 82.0072 233.245 81.984 233.304 81.984H234.155C234.248 81.984 234.285 81.9839 234.285 81.8554V78.9897C234.285 78.9615 234.291 78.9337 234.302 78.9079C234.313 78.8821 234.33 78.8589 234.351 78.8399C234.372 78.8209 234.397 78.8064 234.424 78.7974C234.45 78.7884 234.479 78.7851 234.507 78.7877H235.877C235.905 78.7848 235.932 78.788 235.958 78.7971C235.984 78.8063 236.008 78.821 236.028 78.8404C236.047 78.8598 236.062 78.8832 236.071 78.9091C236.08 78.9349 236.084 78.9624 236.081 78.9897V81.8554C236.081 81.9472 236.081 81.984 236.21 81.984H237.84C237.869 81.984 237.898 81.9896 237.925 82.0007C237.951 82.0118 237.976 82.0281 237.997 82.0485C238.017 82.069 238.034 82.0933 238.045 82.1201C238.056 82.1468 238.062 82.1754 238.062 82.2044V83.1964C238.062 83.2253 238.056 83.254 238.045 83.2807C238.034 83.3075 238.017 83.3317 237.997 83.3522C237.976 83.3727 237.951 83.389 237.925 83.4C237.898 83.4111 237.869 83.4168 237.84 83.4168H236.21C236.118 83.4168 236.081 83.4168 236.081 83.5454V89.2951C236.081 90.3238 236.47 90.5993 237.395 90.5993H237.84C237.868 90.5968 237.896 90.6001 237.923 90.6091C237.95 90.6181 237.975 90.6326 237.996 90.6516C238.017 90.6707 238.033 90.6938 238.045 90.7196C238.056 90.7454 238.062 90.7733 238.062 90.8014V92.0322C238.062 92.0611 238.056 92.0898 238.045 92.1166C238.034 92.1433 238.017 92.1676 237.997 92.1881C237.976 92.2085 237.951 92.2248 237.925 92.2358C237.898 92.2469 237.869 92.2526 237.84 92.2526L237.043 92.271Z" fill="#D7D7D7"/>
<path d="M241.135 96.0551C241.107 96.058 241.08 96.0548 241.054 96.0457C241.028 96.0365 241.004 96.0218 240.984 96.0024C240.965 95.983 240.95 95.9595 240.941 95.9337C240.932 95.9079 240.928 95.8803 240.931 95.8531V94.6223C240.929 94.5943 240.932 94.566 240.941 94.5393C240.95 94.5127 240.965 94.4882 240.984 94.4674C241.003 94.4466 241.026 94.4301 241.052 94.4188C241.078 94.4075 241.107 94.4018 241.135 94.4019H241.524C242.357 94.4019 242.82 94.0344 243.264 92.8772L243.597 91.9403L239.894 82.2779C239.894 82.1493 239.894 82.0574 240.061 82.0574H241.561C241.623 82.0568 241.684 82.0788 241.732 82.1193C241.78 82.1599 241.811 82.2162 241.82 82.2779L244.523 89.6257L247.115 82.2779C247.124 82.2162 247.155 82.1599 247.202 82.1193C247.25 82.0788 247.311 82.0568 247.374 82.0574H248.818C248.847 82.0524 248.876 82.0549 248.904 82.0649C248.932 82.075 248.956 82.092 248.975 82.1144C248.994 82.1368 249.006 82.1637 249.011 82.1924C249.016 82.2211 249.013 82.2506 249.003 82.2779L244.949 93.0241C244.041 95.4306 243.264 96.0551 241.709 96.0551H241.135Z" fill="#D7D7D7"/>
<path d="M143.701 57.8094C142.047 51.5221 142.047 44.9188 143.701 38.6315C145.848 32.0551 151.439 28.4179 158.715 28.4179C165.991 28.4179 171.563 32.0918 173.729 38.6315C174.722 42.1612 175.122 45.8291 174.914 49.4879C174.92 49.6005 174.901 49.7131 174.859 49.8177C174.817 49.9224 174.752 50.0165 174.669 50.0936C174.586 50.1706 174.487 50.2287 174.379 50.2637C174.271 50.2987 174.156 50.3098 174.044 50.2962H149.773C149.458 50.2962 149.292 50.4432 149.292 50.7555C149.247 52.3175 149.466 53.8759 149.94 55.3663C150.568 57.379 151.862 59.1228 153.612 60.3161C155.362 61.5093 157.466 62.0824 159.585 61.9426C161.436 62.0091 163.278 61.6662 164.978 60.9386C166.678 60.211 168.194 59.117 169.415 57.736C169.823 57.3502 170.211 57.2583 170.619 57.5706L173.896 60.5098C173.977 60.577 174.043 60.6612 174.088 60.7565C174.133 60.8517 174.156 60.9557 174.156 61.0609C174.156 61.1661 174.133 61.27 174.088 61.3652C174.043 61.4605 173.977 61.5447 173.896 61.612C172.071 63.7561 169.776 65.4571 167.186 66.5844C164.597 67.7116 161.781 68.2352 158.956 68.1148C151.291 68.1148 145.774 64.3858 143.701 57.8094ZM167.509 44.9506C167.823 44.9506 167.971 44.7853 167.971 44.4731C168.026 43.0257 167.838 41.5793 167.416 40.1929C166.729 38.4357 165.522 36.9257 163.954 35.8609C162.387 34.7962 160.531 34.2265 158.632 34.2265C156.732 34.2265 154.877 34.7962 153.309 35.8609C151.741 36.9257 150.535 38.4357 149.847 40.1929C149.434 41.5812 149.246 43.0261 149.292 44.4731C149.283 44.5379 149.289 44.604 149.31 44.6661C149.33 44.7283 149.366 44.7847 149.412 44.8311C149.459 44.8774 149.516 44.9123 149.579 44.9331C149.641 44.9538 149.708 44.9598 149.773 44.9506H167.509Z" fill="#D7D7D7"/>
<path d="M191.946 67.6372C184.541 67.6372 181.634 64.3123 181.634 56.8726V35.1596C181.634 34.829 181.486 34.682 181.153 34.682H177.968C177.862 34.6903 177.755 34.6755 177.654 34.6388C177.554 34.602 177.463 34.5441 177.387 34.469C177.311 34.3939 177.253 34.3035 177.216 34.2039C177.179 34.1043 177.164 33.9979 177.172 33.8921V30.0896C177.164 29.983 177.179 29.8759 177.216 29.7755C177.253 29.675 177.311 29.5835 177.386 29.507C177.462 29.4306 177.553 29.3709 177.653 29.332C177.753 29.293 177.861 29.2758 177.968 29.2813H181.153C181.486 29.2813 181.634 29.1343 181.634 28.822V18.1125C181.626 18.0067 181.641 17.9003 181.678 17.8007C181.715 17.7011 181.773 17.6107 181.849 17.5356C181.924 17.4606 182.015 17.4026 182.116 17.3659C182.216 17.3291 182.323 17.3144 182.43 17.3227H187.558C187.664 17.3174 187.77 17.3342 187.869 17.372C187.968 17.4099 188.058 17.4679 188.133 17.5423C188.208 17.6167 188.266 17.7059 188.304 17.8041C188.343 17.9023 188.36 18.0074 188.354 18.1125V28.822C188.345 28.8845 188.35 28.9483 188.37 29.0082C188.39 29.0682 188.424 29.1227 188.469 29.1673C188.514 29.212 188.569 29.2456 188.629 29.2654C188.69 29.2852 188.754 29.2906 188.817 29.2813H194.889C194.997 29.2758 195.104 29.293 195.205 29.332C195.305 29.3709 195.396 29.4306 195.471 29.507C195.547 29.5835 195.605 29.675 195.642 29.7755C195.679 29.8759 195.693 29.983 195.685 30.0896V33.8921C195.694 33.9979 195.679 34.1043 195.642 34.2039C195.605 34.3035 195.546 34.3939 195.471 34.469C195.395 34.5441 195.304 34.602 195.204 34.6388C195.103 34.6755 194.996 34.6903 194.889 34.682H188.817C188.502 34.682 188.354 34.829 188.354 35.1596V56.6338C188.354 60.4363 189.78 61.465 193.223 61.465H194.889C194.996 61.4567 195.103 61.4715 195.204 61.5082C195.304 61.545 195.395 61.6029 195.471 61.678C195.546 61.7531 195.605 61.8435 195.642 61.9431C195.679 62.0427 195.694 62.1491 195.685 62.2549V66.8473C195.694 66.9532 195.679 67.0595 195.642 67.1591C195.605 67.2587 195.546 67.3492 195.471 67.4242C195.395 67.4993 195.304 67.5572 195.204 67.594C195.103 67.6308 194.996 67.6455 194.889 67.6372H191.946Z" fill="#D7D7D7"/>
<path d="M199.851 14.1631C199.843 14.0565 199.858 13.9493 199.895 13.8489C199.932 13.7485 199.99 13.657 200.065 13.5805C200.14 13.5041 200.231 13.4444 200.331 13.4055C200.432 13.3665 200.539 13.3493 200.647 13.3548H219.937C230.86 13.3548 236.303 18.8657 236.303 27.5545C236.303 33.8002 233.267 37.6028 229.027 39.2744V39.4397C232.73 40.4684 237.266 44.6567 237.266 51.876C237.266 61.9426 230.86 67.2515 219.53 67.2515H200.647C200.541 67.2567 200.435 67.2399 200.336 67.2021C200.237 67.1642 200.147 67.1062 200.072 67.0318C199.997 66.9574 199.939 66.8682 199.901 66.77C199.862 66.6717 199.846 66.5667 199.851 66.4616V14.1631ZM219.734 36.6659C225.714 36.6659 229.231 33.2491 229.231 28.2526C229.231 23.256 225.714 19.7842 219.734 19.7842H207.441C207.108 19.7842 206.96 19.9311 206.96 20.2618V36.1883C206.951 36.2532 206.957 36.3193 206.978 36.3814C206.998 36.4436 207.034 36.5 207.08 36.5464C207.127 36.5927 207.184 36.6276 207.247 36.6483C207.309 36.6691 207.376 36.6751 207.441 36.6659H219.734ZM207.441 60.8221H220.141C226.602 60.8221 230.12 57.3502 230.12 51.9495C230.12 46.5488 226.602 43.0769 220.141 43.0769H207.441C207.376 43.0677 207.309 43.0737 207.247 43.0945C207.184 43.1152 207.127 43.1502 207.08 43.1965C207.034 43.2428 206.998 43.2993 206.978 43.3614C206.957 43.4236 206.951 43.4897 206.96 43.5546V60.3444C206.978 60.6751 207.108 60.8221 207.441 60.8221Z" fill="#D7D7D7"/>
<path d="M241.69 14.1631C241.685 14.0555 241.702 13.9481 241.741 13.8476C241.781 13.7472 241.84 13.6559 241.917 13.5798C241.994 13.5037 242.086 13.4443 242.187 13.4056C242.288 13.3668 242.396 13.3495 242.505 13.3548H248.059C248.166 13.3493 248.274 13.3665 248.374 13.4055C248.475 13.4444 248.565 13.5041 248.641 13.5805C248.716 13.657 248.774 13.7485 248.811 13.8489C248.848 13.9493 248.863 14.0565 248.855 14.1631V66.4616C248.86 66.5667 248.843 66.6717 248.805 66.77C248.767 66.8682 248.708 66.9574 248.633 67.0318C248.558 67.1062 248.469 67.1642 248.37 67.2021C248.271 67.2399 248.165 67.2567 248.059 67.2515H242.505C242.398 67.2565 242.291 67.2397 242.192 67.2021C242.092 67.1644 242.001 67.1067 241.924 67.0326C241.848 66.9585 241.787 66.8695 241.747 66.7712C241.707 66.673 241.688 66.5676 241.69 66.4616V14.1631Z" fill="#D7D7D7"/>
<path d="M125.003 28.4179C122.924 28.2932 120.849 28.7007 118.975 29.6015C117.101 30.5022 115.492 31.8659 114.302 33.5615V30.0896C114.31 29.983 114.295 29.8759 114.258 29.7755C114.221 29.675 114.163 29.5835 114.088 29.5071C114.013 29.4306 113.922 29.3709 113.822 29.332C113.721 29.2931 113.614 29.2758 113.506 29.2813H108.397C108.289 29.2758 108.181 29.2931 108.081 29.332C107.981 29.3709 107.89 29.4306 107.815 29.5071C107.739 29.5835 107.681 29.675 107.644 29.7755C107.607 29.8759 107.592 29.983 107.601 30.0896V37.2721L112.358 45.1711C112.523 45.4928 112.608 45.8483 112.608 46.209C112.608 46.5696 112.523 46.9252 112.358 47.2469L107.526 55.6418V66.5534C107.521 66.6586 107.538 66.7636 107.576 66.8618C107.614 66.96 107.673 67.0492 107.748 67.1237C107.823 67.1981 107.913 67.2561 108.012 67.2939C108.111 67.3318 108.217 67.3486 108.322 67.3433H113.432C113.538 67.3486 113.644 67.3318 113.743 67.2939C113.842 67.2561 113.932 67.1981 114.007 67.1237C114.082 67.0492 114.14 66.96 114.178 66.8618C114.217 66.7636 114.233 66.6586 114.228 66.5534V43.9587C114.228 38.3376 117.82 34.7739 123.022 34.7739C128.761 34.7739 131.556 38.356 131.556 44.4547V66.6452C131.551 66.7504 131.568 66.8555 131.606 66.9537C131.644 67.0519 131.703 67.1411 131.778 67.2155C131.853 67.2899 131.943 67.3479 132.042 67.3857C132.141 67.4236 132.246 67.4405 132.352 67.4352H137.462C137.568 67.4405 137.674 67.4236 137.773 67.3857C137.872 67.3479 137.962 67.2899 138.037 67.2155C138.112 67.1411 138.17 67.0519 138.208 66.9537C138.246 66.8555 138.263 66.7504 138.258 66.6452V42.783C138.258 34.0391 133.315 28.4179 125.003 28.4179Z" fill="#D7D7D7"/>
<path d="M28.5499 0C28.1178 0.0259985 27.6975 0.150584 27.3219 0.364053C26.9462 0.577521 26.6253 0.874141 26.384 1.23079L0.299096 45.0241C0.102509 45.4051 0 45.8269 0 46.2549C0 46.6829 0.102509 47.1047 0.299096 47.4857L25.7175 91.0402C25.9567 91.3988 26.2772 91.697 26.6533 91.9107C27.0294 92.1244 27.4507 92.2478 27.8835 92.271H79.4237C79.8597 92.2485 80.2847 92.1276 80.6665 91.9175C81.0483 91.7074 81.3767 91.4136 81.6268 91.0586L84.4777 86.4294C84.6743 86.0485 84.7769 85.6266 84.7769 85.1986C84.7769 84.7707 84.6743 84.3488 84.4777 83.9679L63.5951 46.5856C63.4079 46.1986 63.3107 45.7748 63.3107 45.3456C63.3107 44.9163 63.4079 44.4926 63.5951 44.1056L84.2186 8.52356C84.4109 8.14135 84.511 7.71997 84.511 7.29277C84.511 6.86557 84.4109 6.44425 84.2186 6.06203L81.312 1.23079C81.0739 0.871133 80.7537 0.572236 80.3773 0.358391C80.001 0.144545 79.5792 0.021753 79.146 0H28.5499ZM35.1036 16.2572C35.3508 15.9035 35.676 15.6105 36.0546 15.4004C36.4331 15.1903 36.855 15.0687 37.2881 15.0448L61.7253 15.2469C62.5213 15.2469 62.8361 15.8163 62.4288 16.496L50.1361 37.0517C49.892 37.4083 49.5675 37.7036 49.1883 37.9141C48.8091 38.1245 48.3856 38.2444 47.9516 38.2641L23.5144 38.062C22.7183 38.062 22.4037 37.4926 22.7924 36.8129L35.1036 16.2572ZM22.3296 55.2377C21.9223 54.558 22.3296 54.0069 23.0516 54.0069H47.9516C48.3822 54.0286 48.8015 54.1515 49.1748 54.3654C49.5482 54.5794 49.865 54.8784 50.0991 55.2377L61.7623 75.775C62.1511 76.4546 61.7623 77.0242 61.0403 77.0242L36.6031 77.2262C36.17 77.2044 35.7481 77.0817 35.3718 76.8678C34.9954 76.654 34.6752 76.3551 34.4371 75.9954L22.3296 55.2377Z" fill="#D7D7D7"/>
<path d="M87.7546 57.9747C87.5717 57.5801 87.4771 57.1508 87.4771 56.7164C87.4771 56.282 87.5717 55.8528 87.7546 55.4581L91.2906 48.4409C91.4621 48.0421 91.5395 47.6098 91.5171 47.1769C91.4946 46.7439 91.3728 46.3218 91.161 45.9426L86.7178 38.8152C86.5121 38.4371 86.4043 38.0141 86.4043 37.5844C86.4043 37.1547 86.5121 36.7317 86.7178 36.3536L93.5492 24.4868C93.6035 24.3376 93.7028 24.2087 93.8337 24.1176C93.9645 24.0264 94.1205 23.9775 94.2804 23.9775C94.4403 23.9775 94.5963 24.0264 94.7271 24.1176C94.858 24.2087 94.9573 24.3376 95.0116 24.4868L107.304 44.822C107.501 45.203 107.603 45.6249 107.603 46.0528C107.603 46.4808 107.501 46.9027 107.304 47.2836L95.1042 68.5006C94.7155 69.1803 94.086 69.1803 93.6972 68.5006L87.7546 57.9747Z" fill="#D7D7D7"/>
</svg>
