<svg width="317" height="86" viewBox="0 0 317 86" fill="none" xmlns="http://www.w3.org/2000/svg">
<path d="M37.2785 42.0153L38.9958 39.3199C34.8908 36.7406 30.1416 35.3724 25.294 35.3724C20.4464 35.3724 15.6972 36.7406 11.5922 39.3199L13.3983 42.0153C16.976 39.7689 21.1144 38.5772 25.3384 38.5772C29.5624 38.5772 33.7008 39.7689 37.2785 42.0153Z" fill="#D7D7D7"/>
<path d="M42.5193 46.7248C45.1479 49.9699 46.8039 53.8934 47.2955 58.041C47.7872 62.1887 47.0945 66.3908 45.2975 70.1608C43.5006 73.9309 40.6729 77.1148 37.142 79.3438C33.611 81.5728 29.5211 82.7558 25.3458 82.7558C21.1705 82.7558 17.0806 81.5728 13.5496 79.3438C10.0187 77.1148 7.191 73.9309 5.39406 70.1608C3.59712 66.3908 2.90438 62.1887 3.39605 58.041C3.88773 53.8934 5.5437 49.9699 8.17225 46.7248L5.65544 44.6811C2.6406 48.402 0.741025 52.9011 0.176684 57.6573C-0.387658 62.4136 0.406316 67.2325 2.46667 71.556C4.52702 75.8795 7.76947 79.5308 11.8186 82.0871C15.8677 84.6433 20.5578 86 25.3458 86C30.1338 86 34.8239 84.6433 38.873 82.0871C42.9221 79.5308 46.1646 75.8795 48.2249 71.556C50.2853 67.2325 51.0793 62.4136 50.5149 57.6573C49.9506 52.9011 48.051 48.402 45.0362 44.6811L42.5193 46.7248Z" fill="#D7D7D7"/>
<path d="M25.331 50.7086C30.3452 50.7116 35.2476 49.2267 39.4179 46.4418C43.5883 43.657 46.8392 39.6973 48.7594 35.0638C50.6796 30.4303 51.1828 25.3312 50.2053 20.4116C49.2278 15.4919 46.8135 10.9729 43.268 7.42612C39.7224 3.87936 35.2049 1.46429 30.2869 0.486466C25.3689 -0.491364 20.2715 0.0119841 15.6395 1.93283C11.0076 3.85367 7.04929 7.10569 4.26538 11.2775C1.48148 15.4492 -0.00291332 20.3533 1.46741e-05 25.3691C0.0117569 32.086 2.68432 38.5243 7.43226 43.2739C12.1802 48.0234 18.6164 50.6969 25.331 50.7086ZM25.331 3.31739C29.7058 3.31448 33.9831 4.61028 37.6212 7.04071C41.2594 9.47114 44.0947 12.9269 45.7682 16.9703C47.4416 21.0138 47.878 25.4631 47.022 29.7548C46.166 34.0464 44.0561 37.9875 40.9595 41.0789C37.863 44.1703 33.919 46.2729 29.627 47.1206C25.3351 47.9683 20.8882 47.5228 16.8494 45.8406C12.8107 44.1584 9.36187 41.3152 6.93959 37.671C4.5173 34.0267 3.23054 29.7454 3.24226 25.3691C3.24618 19.5087 5.57416 13.8892 9.71533 9.74387C13.8565 5.59853 19.4725 3.266 25.331 3.25815V3.31739Z" fill="#D7D7D7"/>
<path d="M89.11 9.62635C89.258 12.5883 89.3469 20.4819 89.3765 27.3981C89.3765 29.427 89.3765 31.604 89.6578 33.8107H89.5393C88.6659 31.9727 87.6769 30.192 86.5784 28.4792C81.8705 21.6074 74.9122 12.07 73.4762 9.58192H68.5017C68.6054 13.0918 68.6054 18.0235 68.6054 24.2436C68.6054 30.4637 68.6054 35.0547 68.5165 38.8164H72.3362C72.2177 36.2987 72.2177 29.9305 72.2177 20.5856C72.2177 18.453 72.0993 16.1426 71.9513 13.699C72.947 15.6721 74.0645 17.5813 75.2971 19.4156C80.4196 26.5983 86.9485 35.8544 88.6214 38.846H92.7668C92.7668 35.0103 92.7668 30.6414 92.7668 24.2288C92.7668 18.0531 92.7668 13.077 92.8408 9.68559L89.11 9.62635Z" fill="#D7D7D7"/>
<path d="M120.644 27.946C120.644 27.013 120.644 25.8134 120.644 24.5694C120.644 18.764 117.846 14.9282 110.666 14.9282C103.485 14.9282 99.0736 18.764 99.0736 27.2055C99.0736 35.6471 103.515 39.3643 110.651 39.3643C118.971 39.3643 120.807 35.4842 120.689 31.0116C120.215 31.0116 119.711 31.0857 119.016 31.0857C118.32 31.0857 117.728 31.0857 117.224 31.0116C117.224 34.2846 115.744 36.4913 110.695 36.4913C105.647 36.4913 102.804 33.6626 102.656 27.872C105.144 27.872 108.253 27.946 111.243 27.946C115.714 27.946 118.942 27.9016 120.644 27.946ZM102.656 25.7246C103.086 20.2005 105.958 17.7865 110.547 17.7865C115.137 17.7865 117.224 20.2449 117.224 24.2436C117.224 24.7471 117.224 25.2951 117.224 25.7246C114.071 25.7246 106.772 25.7246 102.656 25.7246Z" fill="#D7D7D7"/>
<path d="M144.954 15.4318C144.954 17.831 145.042 20.7485 145.042 28.9235C145.042 33.8551 141.504 36.1062 137.152 36.1062C132.562 36.0914 130.785 33.8995 130.785 29.7676C130.785 23.4735 130.785 19.1194 130.904 15.4318H126.892C126.892 17.831 127.01 20.2153 127.01 22.8367C127.01 25.458 126.921 26.6131 126.921 30.5377C126.921 36.1358 130.001 39.1718 135.671 39.1718C140.112 39.1718 143.325 37.5279 144.85 34.3883H145.042C144.954 35.9433 144.924 37.1873 144.88 38.7423H148.892C148.803 35.6767 148.773 31.7817 148.773 26.702C148.773 21.6223 148.773 18.527 148.892 15.3873L144.954 15.4318Z" fill="#D7D7D7"/>
<path d="M159.477 20.6744H159.211C159.211 18.5714 159.359 16.8683 159.403 15.4318H155.954C155.954 18.764 155.954 22.0814 155.954 27.0574C155.954 32.0335 155.954 35.5286 155.954 38.7868H160.025C159.906 36.1506 159.906 30.7451 159.906 26.5835C159.906 20.941 162.867 18.6899 166.791 18.6899C168.258 18.6546 169.713 18.964 171.04 19.5933C171.178 18.3612 171.395 17.1394 171.691 15.9353C170.279 15.369 168.771 15.0775 167.25 15.0763C165.501 14.937 163.76 15.4232 162.336 16.4485C160.913 17.4738 159.9 18.9714 159.477 20.6744Z" fill="#D7D7D7"/>
<path d="M184.808 39.2903C191.811 39.2903 196.652 34.7437 196.652 26.8205C196.652 18.8973 191.485 14.9727 184.808 14.9727C178.131 14.9727 172.964 18.9269 172.964 26.8205C172.964 34.7141 177.85 39.2903 184.808 39.2903ZM184.808 18.2308C189.546 18.2308 193.01 20.941 193.01 26.939C193.01 32.9369 189.664 36.0914 184.808 36.0914C179.952 36.0914 176.68 32.9221 176.68 26.939C176.68 20.9558 180.1 18.2308 184.808 18.2308Z" fill="#D7D7D7"/>
<path d="M212.656 25.5024C206.245 24.836 204.883 23.6364 204.883 21.4593C204.883 19.2823 206.912 17.8754 211.486 17.8754C216.313 17.8754 218.134 19.1935 218.134 22.0369C218.134 22.3035 218.134 22.807 218.134 23.2069C218.474 23.2069 219.096 23.2069 219.807 23.2069C220.517 23.2069 221.169 23.2069 221.628 23.2069C221.628 22.6145 221.628 22.2739 221.628 21.7259C221.628 17.1349 218.519 14.9282 211.472 14.9282C204.795 14.9282 201.212 17.0608 201.212 21.4593C201.212 25.1914 203.314 27.5165 210.465 28.2274C216.994 28.879 218.593 30.0934 218.593 32.463C218.593 35.0695 216.683 36.2691 211.827 36.2691C206.734 36.2691 204.424 35.0251 204.424 31.8262C204.404 31.5155 204.404 31.2038 204.424 30.8932C203.995 30.8932 203.329 30.8932 202.707 30.8932C202.085 30.8932 201.345 30.8932 200.886 30.8932C200.886 31.3671 200.886 31.7077 200.886 32.1372C200.886 36.8763 204.069 39.3643 211.842 39.3643C219.037 39.3643 222.205 36.9652 222.205 32.5667C222.22 28.3311 219.851 26.2725 212.656 25.5024Z" fill="#D7D7D7"/>
<path d="M241.214 15.0023C236.462 15.0023 233.471 17.0905 232.08 20.0968H231.917C231.917 19.4304 231.991 18.8973 231.991 18.3493C231.991 17.2534 231.991 16.4388 231.991 15.4762H228.068C228.068 17.6532 228.068 19.9191 228.068 25.843C228.068 31.7669 228.068 37.8241 227.949 44.2664H231.917C231.917 42.5929 231.917 41.3044 231.917 39.7198C231.917 38.1351 231.917 37.2317 231.843 35.9137H232.08C233.223 37.0975 234.609 38.0191 236.142 38.6148C237.676 39.2106 239.321 39.4663 240.963 39.3643C247.107 39.3643 250.719 34.6993 250.719 27.1611C250.719 19.6229 247.58 15.0023 241.214 15.0023ZM239.734 36.1062C236.947 36.1848 234.208 35.3701 231.917 33.7811V25.3395C231.917 20.4079 235.603 18.0679 239.926 18.0679C244.634 18.0679 247.033 21.178 247.033 26.9538C247.033 32.7296 244.634 36.0914 239.734 36.0914V36.1062Z" fill="#D7D7D7"/>
<path d="M256.626 15.4318C256.745 19.075 256.745 22.0814 256.745 26.702C256.745 31.604 256.745 34.9066 256.626 38.7868H260.594C260.446 34.9066 260.446 31.915 260.446 26.8205C260.446 22.0369 260.446 19.075 260.594 15.4318H256.626Z" fill="#D7D7D7"/>
<path d="M258.64 9.28573C256.508 9.28573 255.915 9.98179 255.915 11.0333C255.915 12.0848 256.463 12.8549 258.64 12.8549C260.816 12.8549 261.408 12.0107 261.408 11.0333C261.408 10.0558 260.786 9.28573 258.64 9.28573Z" fill="#D7D7D7"/>
<path d="M290.041 23.903C290.041 17.9791 287.08 15.0171 281.335 15.0171C276.894 15.0171 273.681 16.661 272.156 19.8007H271.934C271.934 18.2456 271.934 17.0016 271.934 15.4466H268.011C268.011 18.4085 268.115 22.4072 268.115 27.5313C268.115 32.6555 268.115 35.6619 268.011 38.8016H271.934C271.934 36.432 271.934 33.5145 271.934 25.4728C271.934 20.5708 275.428 18.3493 279.825 18.3493C284.444 18.3493 286.236 20.6004 286.236 24.7323C286.236 30.982 286.236 35.2324 286.117 38.8756H290.085C289.996 36.4764 289.966 34.1069 289.966 31.4707C289.966 29.0419 290.041 27.7535 290.041 23.903Z" fill="#D7D7D7"/>
<path d="M313.491 30.9376C313.491 34.2106 312.011 36.4172 306.962 36.4172C301.914 36.4172 299.071 33.6626 298.879 27.872C301.366 27.872 304.475 27.946 307.466 27.946C311.907 27.946 315.209 27.946 316.911 27.946C317 27.013 317 25.8134 317 24.5694C317 18.764 314.187 14.9282 307.007 14.9282C299.826 14.9282 295.341 18.764 295.341 27.1315C295.341 35.499 299.782 39.2903 306.933 39.2903C315.238 39.2903 317.074 35.4101 316.956 30.9376C316.482 30.9376 315.978 31.0116 315.283 31.0116C314.587 31.0116 313.995 30.982 313.491 30.9376ZM306.844 17.7569C311.507 17.7569 313.491 20.2449 313.491 24.214C313.491 24.7175 313.491 25.2655 313.491 25.6949C310.367 25.769 303.128 25.769 298.983 25.6949C299.382 20.1709 302.269 17.7569 306.844 17.7569Z" fill="#D7D7D7"/>
<path d="M88.7547 67.0882V67.9768C88.7547 72.9233 86.1935 75.8408 80.2863 75.8408C74.3792 75.8408 70.456 72.2568 70.456 64.0966C70.456 55.9365 74.4977 52.856 80.1235 52.856C85.7493 52.856 88.6807 55.27 88.6807 60.7496V61.6086C89.3469 61.6086 89.9243 61.6086 90.6201 61.6086C91.3159 61.6086 91.9377 61.6086 92.5743 61.6086C92.5743 61.0606 92.5743 60.6756 92.5743 60.1276C92.5743 53.715 88.7991 49.2721 80.2567 49.2721C71.7144 49.2721 66.4143 54.648 66.4143 64.2299C66.4143 74.5968 72.0845 79.5136 80.3308 79.5136C88.577 79.5136 92.7224 75.2336 92.7224 68.3174C92.7224 67.8435 92.7224 67.5325 92.7224 67.1475L88.7547 67.0882Z" fill="#D7D7D7"/>
<path d="M119.016 68.0953C119.016 67.1623 119.016 65.9627 119.016 64.7187C119.016 58.928 116.218 55.0775 109.022 55.0775C101.827 55.0775 97.3711 58.928 97.3711 67.2807C97.3711 75.6335 101.812 79.4544 108.948 79.4544C117.269 79.4544 119.09 75.5594 118.971 71.0868C118.419 71.1146 117.865 71.1146 117.313 71.0868C116.573 71.0868 116.025 71.0868 115.522 71.0868C115.522 74.3598 114.041 76.5665 108.993 76.5665C103.944 76.5665 101.176 73.8118 100.983 68.0212C103.471 68.0212 106.58 68.0212 109.57 68.0212C114.071 68.0953 117.298 68.0509 119.016 68.0953ZM101.057 65.8442C101.487 60.3202 104.359 57.9062 108.948 57.9062C113.538 57.9062 115.596 60.3942 115.596 64.3632C115.596 64.8668 115.596 65.4147 115.596 65.8442C112.442 65.9182 105.144 65.9182 101.057 65.8442Z" fill="#D7D7D7"/>
<path d="M147.367 64.0522C147.367 58.1283 144.406 55.1664 138.662 55.1664C134.22 55.1664 131.008 56.7954 129.497 59.9351H129.261C129.261 58.3801 129.261 57.1361 129.261 55.581H125.411C125.411 58.543 125.53 62.5416 125.53 67.6658C125.53 72.79 125.53 75.7964 125.411 78.9508H129.305C129.305 76.5665 129.305 73.6489 129.305 65.5332C129.305 60.6312 132.799 58.4097 137.196 58.4097C141.815 58.4097 143.606 60.6756 143.606 64.7927C143.606 71.0572 143.606 75.2928 143.488 78.9508H147.456C147.456 76.5368 147.337 74.1673 147.337 71.546C147.293 69.1912 147.367 67.9028 147.367 64.0522Z" fill="#D7D7D7"/>
<path d="M164.496 75.9148C160.484 75.9148 159.018 74.2858 159.018 71.2053C159.018 66.7624 159.018 62.5712 159.018 58.8392C162.719 58.8392 166.598 58.8392 169.796 58.9577C169.796 57.9062 169.796 56.5881 169.796 55.581C166.095 55.6551 162.394 55.6551 158.989 55.6551C158.989 53.9372 158.989 52.2785 158.989 50.7234C158.411 50.7234 157.745 50.7234 157.123 50.7234H155.139V55.6551C153.896 55.6551 152.697 55.6551 151.601 55.581C151.601 56.5881 151.601 57.8765 151.601 58.8096H155.095C155.095 63.6672 155.095 68.4063 155.095 71.5904C155.095 76.1814 157.582 79.2915 163.874 79.2915C165.992 79.2766 168.098 78.9778 170.137 78.4029C169.974 77.4699 169.707 76.1074 169.589 74.9818C167.956 75.5784 166.234 75.8939 164.496 75.9148Z" fill="#D7D7D7"/>
<path d="M178.931 60.8237H178.664C178.664 58.7207 178.827 57.0176 178.857 55.581H175.437C175.437 58.928 175.437 62.2306 175.437 67.2067C175.437 72.1828 175.437 75.6779 175.437 78.9508H179.523C179.404 76.2999 179.404 70.8943 179.404 66.7328C179.404 61.1051 182.276 58.8392 186.289 58.8392C187.751 58.8034 189.202 59.1129 190.523 59.7426C190.675 58.5126 190.893 57.2916 191.174 56.0846C189.763 55.5155 188.255 55.2238 186.733 55.2256C184.979 55.0789 183.231 55.5617 181.801 56.5876C180.372 57.6135 179.354 59.1153 178.931 60.8237Z" fill="#D7D7D7"/>
<path d="M214.092 68.0953C214.181 67.1623 214.181 65.9627 214.181 64.7187C214.181 58.928 211.383 55.0775 204.188 55.0775C196.992 55.0775 192.521 58.928 192.521 67.2807C192.521 75.6335 197.037 79.4544 204.114 79.4544C212.434 79.4544 214.255 75.5594 214.136 71.0868C213.677 71.0868 213.159 71.0868 212.463 71.0868C211.768 71.0868 211.175 71.0868 210.672 71.0868C210.672 74.3598 209.192 76.5665 204.143 76.5665C199.095 76.5665 196.252 73.8118 196.06 68.0212C198.547 68.0212 201.656 68.0212 204.661 68.0212C209.162 68.0953 212.389 68.0509 214.092 68.0953ZM196.149 65.8442C196.578 60.3202 199.45 57.9062 204.04 57.9062C208.629 57.9062 210.731 60.3942 210.731 64.3632C210.731 64.8668 210.731 65.4147 210.731 65.8442C207.533 65.9182 200.22 65.9182 196.149 65.8442Z" fill="#D7D7D7"/>
</svg>
