<svg width="202" height="111" viewBox="0 0 202 111" fill="none" xmlns="http://www.w3.org/2000/svg">
<path d="M35.3487 49.3463H23.6326L12.1878 23.9982V49.3463H0V0.812439H13.0017L23.161 24.5398V0.812439H35.3487V49.3505V49.3463Z" fill="#D7D7D7"/>
<path d="M76.0484 49.3463H40.4952V38.1263H51.6687V12.0324H40.4952V0.812439H76.0484V12.0324H64.9417V38.1263H76.0484V49.3463Z" fill="#D7D7D7"/>
<path d="M107.131 45.4924C105.508 48.1297 102.594 50.1587 98.0574 50.1587C87.2887 50.1587 79.5002 40.0178 79.5002 25.4189C79.5002 10.82 87.6268 0 99.1384 0C108.551 0 114.377 5.81206 116.744 15.0072L104.823 19.0652C104.214 14.1989 102.248 11.495 99.2678 11.495C95.1357 11.495 92.4268 16.9029 92.4268 25.2189C92.4268 34.0058 95.0689 38.9429 99.7395 38.9429C102.853 38.9429 105.295 36.2389 105.971 32.5892H98.5875V22.1108H117.278V49.3546H107.119V45.5007L107.131 45.4924Z" fill="#D7D7D7"/>
<path d="M158.596 0.812439V49.3505H145.323V30.2894H136.52V49.3505H123.247V0.812439H136.52V19.1319H145.323V0.812439H158.596Z" fill="#D7D7D7"/>
<path d="M189.541 12.0324V49.3463H176.268V12.0324H163.738V0.812439H202V12.0324H189.541Z" fill="#D7D7D7"/>
<path d="M0 110.183V61.6454H35.2152V72.8654H13.0017V82.2605H31.3543V93.2097H13.0017V110.175H0V110.183Z" fill="#D7D7D7"/>
<path d="M76.7037 72.8654H53.6805V80.0981H72.8471V91.0473H53.6805V98.9551H76.7037V110.175H40.6079V61.637H76.7037V72.8654Z" fill="#D7D7D7"/>
<path d="M107.399 61.6454L119.657 110.183H106.722L105.028 102.342H93.9878L92.2932 110.183H79.6296L91.8174 61.6454H107.399ZM96.2251 91.7264H102.728L99.4765 76.5151L96.2251 91.7264Z" fill="#D7D7D7"/>
<path d="M127.917 93.2847C131.912 97.951 137.196 100.18 142.004 100.18C145.999 100.18 148.641 98.6259 148.641 95.8553C148.641 92.6764 145.256 92.2056 138.01 90.7182C131.169 89.3683 123.451 86.8643 123.451 76.9942C123.451 67.1241 131.983 60.8371 142.413 60.8371C150.607 60.8371 157.11 64.1493 160.833 68.3407L153.925 77.1984C150.811 73.482 146.679 71.453 142.004 71.453C138.553 71.453 136.111 72.9404 136.111 75.511C136.111 78.2816 139.024 78.8899 144.78 80.0398C152.093 81.5939 161.304 83.6895 161.304 94.5054C161.304 105.321 152.435 111 141.529 111C133.807 111 124.871 107.959 120.876 102.955L127.917 93.2888V93.2847Z" fill="#D7D7D7"/>
<path d="M189.541 72.8695V110.183H176.268V72.8695H163.738V61.6495H202V72.8695H189.541Z" fill="#D7D7D7"/>
</svg>
