<svg width="272" height="96" viewBox="0 0 272 96" fill="none" xmlns="http://www.w3.org/2000/svg">
<path d="M123.134 78.4956H120.53V82.9926H115.756V66.0685H123.471C124.998 66.0685 126.316 66.3264 127.441 66.8261C128.566 67.3418 129.434 68.0672 130.045 69.002C130.656 69.9369 130.961 71.049 130.961 72.3224C130.961 73.5957 130.672 74.6111 130.109 75.5299C129.547 76.4486 128.727 77.1578 127.666 77.6736L131.299 82.9926H126.188L123.134 78.4956ZM125.4 70.501C124.902 70.0658 124.162 69.8402 123.182 69.8402H120.53V74.7884H123.182C124.162 74.7884 124.902 74.5789 125.4 74.1437C125.898 73.7085 126.139 73.1122 126.139 72.3224C126.139 71.5326 125.898 70.9201 125.4 70.4849V70.501Z" fill="#D7D7D7"/>
<path d="M147.13 82.9926H133.581V66.0685H146.809V69.7596H138.306V72.6125H145.796V76.1907H138.306V79.2854H147.13V82.9926Z" fill="#D7D7D7"/>
<path d="M151.743 82.8314C150.457 82.4929 149.413 82.0416 148.609 81.4775L150.168 77.9476C150.924 78.4473 151.792 78.8502 152.788 79.1565C153.785 79.4627 154.765 79.6078 155.729 79.6078C157.562 79.6078 158.478 79.1565 158.478 78.2377C158.478 77.7542 158.221 77.3996 157.69 77.1578C157.16 76.9322 156.324 76.6743 155.167 76.4164C153.897 76.1424 152.836 75.8522 151.984 75.5299C151.133 75.2236 150.409 74.7079 149.798 74.0148C149.188 73.3217 148.882 72.3868 148.882 71.2102C148.882 70.1786 149.156 69.2438 149.718 68.4218C150.281 67.5997 151.116 66.9389 152.242 66.4553C153.351 65.9718 154.733 65.73 156.356 65.73C157.465 65.73 158.558 65.859 159.635 66.1007C160.712 66.3425 161.66 66.7132 162.48 67.1968L161.001 70.7589C159.394 69.8885 157.835 69.4533 156.324 69.4533C155.376 69.4533 154.685 69.5984 154.251 69.8724C153.817 70.1464 153.592 70.5171 153.592 70.9684C153.592 71.4197 153.849 71.7582 154.363 71.9839C154.878 72.2095 155.697 72.4352 156.838 72.677C158.124 72.951 159.185 73.2411 160.037 73.5635C160.873 73.8858 161.612 74.3694 162.223 75.0625C162.834 75.7555 163.155 76.6743 163.155 77.8509C163.155 78.8664 162.882 79.7851 162.319 80.6071C161.757 81.4291 160.905 82.09 159.78 82.5735C158.655 83.0571 157.288 83.315 155.681 83.315C154.315 83.315 152.997 83.1377 151.711 82.8153L151.743 82.8314Z" fill="#D7D7D7"/>
<path d="M169.07 82.2028C167.655 81.4453 166.53 80.3976 165.727 79.0598C164.923 77.722 164.505 76.223 164.505 74.5467C164.505 72.8704 164.907 71.3714 165.727 70.0336C166.53 68.6958 167.655 67.6481 169.07 66.8905C170.484 66.133 172.091 65.7623 173.876 65.7623C175.66 65.7623 177.267 66.133 178.681 66.8905C180.096 67.6481 181.221 68.6958 182.024 70.0336C182.828 71.3714 183.246 72.8704 183.246 74.5467C183.246 76.223 182.844 77.722 182.024 79.0598C181.205 80.3976 180.096 81.4453 178.681 82.2028C177.267 82.9604 175.66 83.3472 173.876 83.3472C172.091 83.3472 170.484 82.9765 169.07 82.2028ZM176.19 78.7696C176.881 78.3667 177.428 77.8026 177.829 77.0611C178.231 76.3358 178.44 75.4815 178.44 74.5306C178.44 73.5796 178.247 72.7414 177.829 72C177.428 71.2747 176.881 70.6944 176.19 70.2915C175.499 69.8885 174.727 69.679 173.876 69.679C173.024 69.679 172.252 69.8724 171.561 70.2915C170.87 70.7105 170.323 71.2586 169.922 72C169.52 72.7414 169.311 73.5796 169.311 74.5306C169.311 75.4815 169.504 76.3197 169.922 77.0611C170.323 77.8026 170.87 78.3667 171.561 78.7696C172.252 79.1726 173.024 79.3821 173.876 79.3821C174.727 79.3821 175.499 79.1887 176.19 78.7696Z" fill="#D7D7D7"/>
<path d="M187.714 81.2841C186.316 79.914 185.625 77.9799 185.625 75.4654V66.0846H190.398V75.3203C190.398 78.0282 191.475 79.3821 193.597 79.3821C195.718 79.3821 196.779 78.0282 196.779 75.3203V66.0846H201.473V75.4654C201.473 77.9799 200.781 79.914 199.383 81.2841C197.985 82.6541 196.04 83.3311 193.533 83.3311C191.025 83.3311 189.08 82.6541 187.682 81.2841H187.714Z" fill="#D7D7D7"/>
<path d="M212.081 78.4956H209.477V82.9926H204.703V66.0685H212.418C213.945 66.0685 215.263 66.3264 216.388 66.8261C217.513 67.3418 218.381 68.0672 218.992 69.002C219.603 69.9369 219.908 71.049 219.908 72.3224C219.908 73.5957 219.619 74.6111 219.056 75.5299C218.494 76.4486 217.674 77.1578 216.613 77.6736L220.246 82.9926H215.134L212.081 78.4956ZM214.347 70.501C213.849 70.0658 213.109 69.8402 212.129 69.8402H209.477V74.7884H212.129C213.109 74.7884 213.849 74.5789 214.347 74.1437C214.845 73.7246 215.086 73.1122 215.086 72.3224C215.086 71.5326 214.829 70.9201 214.347 70.4849V70.501Z" fill="#D7D7D7"/>
<path d="M226.193 82.2189C224.778 81.4775 223.685 80.4298 222.882 79.092C222.078 77.7542 221.676 76.2391 221.676 74.5467C221.676 72.8543 222.078 71.3392 222.882 70.0013C223.685 68.6635 224.794 67.6159 226.193 66.8744C227.591 66.133 229.182 65.7461 230.95 65.7461C232.493 65.7461 233.875 66.0201 235.113 66.5682C236.351 67.1162 237.379 67.906 238.199 68.9375L235.161 71.6938C234.068 70.3721 232.75 69.7112 231.191 69.7112C230.275 69.7112 229.455 69.9046 228.748 70.3237C228.025 70.7267 227.478 71.2908 227.077 72.0322C226.675 72.7737 226.482 73.6118 226.482 74.5628C226.482 75.5138 226.675 76.3519 227.077 77.0934C227.478 77.8348 228.025 78.3989 228.748 78.8019C229.455 79.2048 230.275 79.4144 231.191 79.4144C232.75 79.4144 234.068 78.7535 235.161 77.4318L238.199 80.188C237.379 81.2196 236.351 82.0094 235.113 82.5574C233.875 83.1054 232.493 83.3794 230.95 83.3794C229.182 83.3794 227.591 83.0087 226.193 82.2512V82.2189Z" fill="#D7D7D7"/>
<path d="M253.87 82.9926H240.321V66.0685H253.548V69.7596H245.046V72.6125H252.536V76.1907H245.046V79.2854H253.87V82.9926Z" fill="#D7D7D7"/>
<path d="M258.483 82.8314C257.197 82.4929 256.152 82.0416 255.349 81.4775L256.908 77.9476C257.663 78.4473 258.531 78.8502 259.528 79.1565C260.524 79.4627 261.504 79.6078 262.469 79.6078C264.301 79.6078 265.217 79.1565 265.217 78.2377C265.217 77.7542 264.96 77.3996 264.43 77.1578C263.899 76.9322 263.064 76.6743 261.906 76.4164C260.637 76.1424 259.576 75.8522 258.724 75.5299C257.872 75.2236 257.149 74.7079 256.538 74.0148C255.927 73.3217 255.622 72.3868 255.622 71.2102C255.622 70.1786 255.895 69.2438 256.458 68.4218C257.02 67.5997 257.856 66.9389 258.981 66.4553C260.09 65.9718 261.472 65.73 263.096 65.73C264.205 65.73 265.298 65.859 266.375 66.1007C267.451 66.3425 268.4 66.7132 269.219 67.1968L267.741 70.7589C266.133 69.8885 264.574 69.4533 263.064 69.4533C262.115 69.4533 261.424 69.5984 260.99 69.8724C260.556 70.1464 260.331 70.5171 260.331 70.9684C260.331 71.4197 260.588 71.7582 261.103 71.9839C261.617 72.2095 262.437 72.4352 263.578 72.677C264.864 72.951 265.924 73.2411 266.776 73.5635C267.612 73.8858 268.351 74.3694 268.962 75.0625C269.573 75.7555 269.894 76.6743 269.894 77.8509C269.894 78.8664 269.621 79.7851 269.059 80.6071C268.496 81.4291 267.644 82.09 266.519 82.5735C265.394 83.0571 264.028 83.315 262.421 83.315C261.054 83.315 259.736 83.1377 258.451 82.8153L258.483 82.8314Z" fill="#D7D7D7"/>
<path d="M113.86 28.1424C113.86 18.1974 122.33 12.1209 132.793 12.1209C143.257 12.1209 151.663 18.1974 151.663 28.1424V46.3076C151.663 56.2525 143.193 62.3936 132.793 62.3936C122.394 62.3936 113.86 56.2525 113.86 46.3076V28.1424ZM125.914 45.4694C125.914 50.3049 128.952 52.8516 132.793 52.8516C136.635 52.8516 139.673 50.2888 139.673 45.4694V28.9644C139.673 24.1289 136.571 21.5823 132.793 21.5823C129.016 21.5823 125.914 24.1451 125.914 28.9644V45.4694Z" fill="#D7D7D7"/>
<path d="M157.738 13.088H170.002L182.185 36.4916L194.24 13.088H206.503V61.4265H194.802L195.14 32.6232L186.943 49.6118H177.235L169.102 32.6232L169.439 61.4265H157.738V13.088Z" fill="#D7D7D7"/>
<path d="M212.836 13.088H224.826L239.083 38.5709L238.745 13.088H250.527V61.4265H238.408L224.296 36.0886L224.633 61.4265H212.852V13.088H212.836Z" fill="#D7D7D7"/>
<path d="M256.843 13.088H268.834V61.4265H256.843V13.088Z" fill="#D7D7D7"/>
<path d="M68.6952 26.8529C74.3206 23.8227 80.1711 21.1471 86.2788 18.8905C85.8448 18.3264 85.4109 17.7623 84.9447 17.2142C78.7567 19.5353 72.8098 22.2915 67.1039 25.4023C67.6504 25.8536 68.1808 26.3371 68.6952 26.8529Z" fill="#D7D7D7"/>
<path d="M64.5966 23.5165C70.1578 20.0027 75.9922 16.8435 82.1159 14.1034C82.0999 14.0873 82.0838 14.0712 82.0677 14.0551C81.5695 13.5554 81.0551 13.0719 80.5408 12.6044C74.3046 15.4251 68.3415 18.6971 62.6679 22.3398C63.3268 22.7105 63.9697 23.0813 64.5966 23.5165Z" fill="#D7D7D7"/>
<path d="M59.7747 20.9053C65.2716 16.8274 71.09 13.1202 77.2298 9.84822C76.6351 9.39691 76.0243 8.9456 75.4136 8.52653C69.113 11.9436 63.1179 15.7958 57.5085 20.0672C58.2639 20.325 59.0193 20.5991 59.7747 20.9214V20.9053Z" fill="#D7D7D7"/>
<path d="M54.2618 19.1645C59.6622 14.4258 65.4967 10.0739 71.6686 6.17327C70.9936 5.78643 70.3024 5.43183 69.6113 5.07723C63.2304 9.17126 57.2513 13.7649 51.7062 18.7455C52.5581 18.8422 53.4099 18.9872 54.2618 19.1645Z" fill="#D7D7D7"/>
<path d="M45.3414 18.6488C46.3057 18.552 47.2701 18.5037 48.2505 18.5037C53.5224 12.9913 59.2765 7.86568 65.4967 3.23976C64.7412 2.94963 63.9697 2.67562 63.1982 2.41773C56.737 7.33378 50.774 12.7817 45.3414 18.6488Z" fill="#D7D7D7"/>
<path d="M77.5834 48.822C83.6268 47.5809 89.7827 46.7267 96.035 46.3076C96.0189 45.6306 95.9707 44.9698 95.9225 44.2928C89.7184 44.7119 83.5786 45.55 77.5673 46.775C77.5995 47.452 77.5995 48.1451 77.5834 48.822Z" fill="#D7D7D7"/>
<path d="M72.0061 30.7213C77.6959 28.1263 83.5946 25.8697 89.6862 24.0484C89.3326 23.452 88.979 22.8556 88.5933 22.2592C82.4374 24.1289 76.4905 26.4338 70.7364 29.0772C71.1864 29.6091 71.5883 30.1733 72.0061 30.7213Z" fill="#D7D7D7"/>
<path d="M77.3262 44.1316C83.2571 42.5843 89.3166 41.4077 95.4885 40.6662C95.3921 40.0054 95.2796 39.3284 95.151 38.6676C88.9951 39.409 82.9356 40.5856 77.0209 42.1169C77.1494 42.7777 77.2459 43.4547 77.3262 44.1155V44.1316Z" fill="#D7D7D7"/>
<path d="M76.3458 39.4412C82.1642 37.5715 88.1432 36.0725 94.267 34.9765C94.0902 34.3156 93.8812 33.6709 93.6723 33.0262C87.5325 34.1222 81.5373 35.6535 75.6868 37.5232C75.9279 38.1518 76.1529 38.7965 76.3458 39.4412Z" fill="#D7D7D7"/>
<path d="M74.5617 34.9604C80.3158 32.7522 86.2466 30.8825 92.3543 29.448C92.0971 28.8193 91.8239 28.1907 91.5185 27.5621C85.3787 29.0289 79.3996 30.9308 73.5974 33.1713C73.9349 33.7676 74.2724 34.364 74.5617 34.9604Z" fill="#D7D7D7"/>
<path d="M27.3398 27.1914C31.8241 17.6494 37.53 8.57488 44.3127 0.1773C43.3644 0.257891 42.4322 0.3546 41.5 0.483546C33.2064 11.0571 26.5683 22.6461 21.8751 34.8798C23.2413 32.1075 25.0575 29.5124 27.3398 27.1914Z" fill="#D7D7D7"/>
<path d="M74.9153 60.2982C74.5939 61.0074 74.2403 61.7166 73.8545 62.4097C80.4604 61.9422 87.1467 61.9422 93.833 62.4741C94.042 61.7972 94.2348 61.1363 94.4116 60.4594C87.8861 59.9275 81.3605 59.8952 74.8992 60.2982H74.9153Z" fill="#D7D7D7"/>
<path d="M72.6651 64.4083C72.199 65.1175 71.6847 65.8106 71.1543 66.4715C78.0656 66.2297 85.0412 66.5198 92.0007 67.3902C92.2739 66.7455 92.5472 66.1007 92.8044 65.456C86.0859 64.6017 79.3514 64.2471 72.6651 64.4083Z" fill="#D7D7D7"/>
<path d="M69.0166 68.8892C68.5344 69.3727 68.0201 69.8079 67.5058 70.2592C74.8832 70.227 82.2927 70.8234 89.6541 72.0645C90.0077 71.452 90.3613 70.8234 90.6827 70.1948C83.675 68.9698 76.619 68.325 69.5952 68.2445C69.4023 68.454 69.2255 68.6797 69.0166 68.8892Z" fill="#D7D7D7"/>
<path d="M76.5226 55.9463C76.3297 56.6555 76.0886 57.3647 75.8315 58.0739C82.2124 57.3486 88.6736 57.0745 95.167 57.268C95.2956 56.591 95.4081 55.9302 95.5046 55.2532C89.1237 55.0437 82.7749 55.2854 76.5065 55.9463H76.5226Z" fill="#D7D7D7"/>
<path d="M38.3658 20.2283C39.4587 19.8415 40.5677 19.5191 41.6928 19.2612C46.804 12.7817 52.5259 6.73741 58.8104 1.20886C57.9907 1.03156 57.171 0.854265 56.3512 0.725319C49.6971 6.68905 43.6698 13.2169 38.3658 20.2283Z" fill="#D7D7D7"/>
<path d="M77.1012 53.4802C83.2732 52.497 89.5576 51.949 95.9064 51.8361C95.9546 51.1592 96.0028 50.4822 96.0189 49.8214C89.7505 49.9342 83.5303 50.45 77.4066 51.3848C77.3262 52.094 77.2298 52.7871 77.1012 53.4802Z" fill="#D7D7D7"/>
<path d="M34.7655 21.7596C39.6355 14.0712 45.3253 6.818 51.7544 0.145064C50.8704 0.080591 49.9703 0.0322364 49.0703 0.0161182C42.0947 7.43049 36.0191 15.5379 30.9241 24.1451C32.1617 23.2424 33.4314 22.4365 34.7655 21.7435V21.7596Z" fill="#D7D7D7"/>
<path d="M53.6832 76.9966C44.4413 78.7374 34.5244 76.0457 27.3881 68.8892C19.9624 61.4426 17.3747 50.9819 19.5606 41.4077C19.5124 41.5366 19.4642 41.6817 19.4159 41.8106C18.4516 44.8731 17.6479 47.9678 16.9086 51.0625C17.4068 48.0484 17.9855 45.0504 18.7248 42.1007C22.1805 27.7878 28.3363 14.039 36.7424 1.40228C35.7459 1.64406 34.7655 1.93418 33.785 2.24043C25.9094 14.5225 20.091 27.8039 16.7639 41.6172C16.0246 44.6313 15.4299 47.6776 14.9156 50.7562C15.2209 47.7905 15.5745 44.8408 16.0889 41.9073C18.3069 28.8032 22.7752 16.0054 29.1882 3.94896C28.1756 4.38415 27.1791 4.85158 26.1826 5.36736C20.3321 16.9241 16.2175 29.0934 14.0958 41.5527C13.5494 44.6797 13.1636 47.8227 12.8582 50.9819C12.9547 47.9678 13.1315 44.9214 13.4529 41.8428C14.6262 30.27 17.5354 18.8261 21.9876 7.81733C20.9589 8.49429 19.9624 9.21961 18.982 9.97717C15.1084 20.2606 12.5529 30.8986 11.4599 41.6494C11.1224 44.8247 10.9616 47.9516 10.8491 51.0625C10.7527 48.0322 10.7045 45.002 10.8331 42.0363C11.1706 32.3009 12.7297 22.5816 15.3656 13.0719C15.012 13.3942 14.6745 13.7166 14.3369 14.0551C13.7101 14.6837 13.0993 15.3284 12.5207 15.9893C10.383 24.548 9.12935 33.2518 8.82397 41.9557C8.69538 45.0987 8.7436 48.3062 8.85611 51.5138C8.55073 48.4674 8.30964 45.4211 8.22927 42.3747C7.98818 34.7508 8.48644 27.0786 9.67583 19.4869C8.7436 20.7441 7.89175 22.0336 7.10418 23.3553C6.33268 29.7058 6.01123 36.0725 6.22017 42.4392C6.30054 45.5984 6.5577 48.7737 6.87916 51.9328C6.3809 48.9671 5.94694 45.953 5.64155 42.8744C5.12722 37.6199 4.9665 32.3331 5.1433 27.0302C4.35573 28.6582 3.6646 30.3183 3.0699 31.9946C3.10205 35.7018 3.27885 39.3929 3.64853 43.0678C3.95391 46.2915 4.42002 49.4345 4.95042 52.5292C4.24322 49.5635 3.60031 46.5655 3.11812 43.5514C2.66808 40.8274 2.33056 38.0712 2.05732 35.315C1.49477 37.3942 1.0608 39.5057 0.787567 41.6172C0.900077 42.3747 0.996514 43.1162 1.1251 43.8737C1.63943 47.0168 2.29841 50.1276 3.03776 53.2223C2.13768 50.3049 1.3019 47.3875 0.626839 44.4218C0.594694 44.2606 0.562548 44.0994 0.530402 43.9543C0.305383 46.5494 0.305383 49.1766 0.51433 51.7717C0.739349 52.5292 0.948295 53.2868 1.18939 54.0282C0.980441 53.4641 0.771494 52.8838 0.562548 52.3197C1.52692 63.135 6.12374 73.6924 14.3691 81.961C22.6144 90.2297 32.9492 94.7589 43.6377 95.7905C43.043 95.3553 42.4322 94.9201 41.8375 94.501C42.5447 94.9201 43.2519 95.3714 43.9591 95.8066C45.3092 95.9194 46.6593 95.9839 48.0095 96C46.2093 94.8234 44.3931 93.6629 42.5608 92.5668C44.6824 93.6467 46.7558 94.7911 48.8131 95.9839C50.0186 95.9839 51.2401 95.9194 52.4455 95.8066C52.1884 95.6454 51.9312 95.4681 51.6741 95.3069C48.8292 93.5662 45.8878 91.9704 42.8983 90.4715C45.8075 91.7126 48.7006 93.0826 51.5937 94.5977C52.2687 94.9523 52.9117 95.3392 53.5706 95.6938C54.6797 95.5648 55.7726 95.4197 56.8656 95.2102C55.419 94.3882 53.9885 93.5661 52.5259 92.7925C49.8418 91.3902 47.1576 90.133 44.4574 88.9563C47.1415 89.9234 49.8096 90.9389 52.4295 92.0833C54.4386 92.9698 56.4316 93.9046 58.3925 94.904C59.3729 94.6944 60.3534 94.4527 61.3177 94.1786C58.6657 92.7764 55.9816 91.4385 53.2492 90.2297C50.34 88.9563 47.3826 87.8442 44.4091 86.7965C47.3183 87.6024 50.2114 88.4889 53.0402 89.5205C56.4155 90.7455 59.7426 92.1477 63.0054 93.6629C63.9215 93.3727 64.8377 93.0504 65.7378 92.6958C61.816 90.7938 57.7978 89.0853 53.7153 87.6185C50.79 86.5547 47.8005 85.6521 44.7788 84.814C47.688 85.4265 50.5811 86.1034 53.5064 86.9255C58.28 88.2794 62.9732 89.9718 67.5861 91.9221C68.4219 91.5514 69.2416 91.1645 70.0613 90.7455C64.8377 88.4567 59.5015 86.5225 54.0528 84.9752C51.1597 84.1531 48.2827 83.4439 45.3896 82.8314C48.2023 83.2344 51.0311 83.7018 53.8278 84.2982C59.9998 85.5876 66.0753 87.409 72.0222 89.6817C72.7616 89.2626 73.4848 88.8274 74.2081 88.36C67.6986 85.7811 61.0284 83.7502 54.2618 82.3318C51.1276 81.6709 47.9773 81.1551 44.827 80.7361C47.8809 80.9456 50.9186 81.2357 53.9242 81.6709C61.4624 82.7186 68.9041 84.5238 76.2011 87.006C76.8601 86.5386 77.503 86.039 78.1299 85.5393C70.3185 82.7831 62.3142 80.8005 54.2136 79.6723C51.1436 79.221 48.0416 78.9308 44.9235 78.7213C47.913 78.7213 50.8865 78.818 53.86 79.0437C62.7 79.6884 71.4918 81.3324 80.0908 83.8952C80.6694 83.3794 81.2319 82.8475 81.7784 82.2995C72.6812 79.495 63.375 77.7058 54.0046 77.0289C53.9082 77.0289 53.8278 77.0289 53.7314 77.0289L53.6832 76.9966Z" fill="#D7D7D7"/>
<path d="M55.9976 76.4486C65.2716 76.6904 74.5296 77.996 83.6268 80.317C84.125 79.7529 84.6233 79.1887 85.0894 78.6246C77.1012 76.5131 68.9684 75.1753 60.8195 74.6434C59.2443 75.3848 57.6371 75.9973 55.9816 76.4486H55.9976Z" fill="#D7D7D7"/>
<path d="M62.8125 73.6118C70.8489 73.7569 78.8853 74.6917 86.8574 76.3841C87.2914 75.7878 87.7093 75.1914 88.1111 74.5789C80.7176 72.951 73.2437 71.9678 65.7699 71.6615C64.8216 72.3707 63.8412 73.0154 62.8125 73.6118Z" fill="#D7D7D7"/>
</svg>
