<svg width="407" height="145" viewBox="0 0 407 145" fill="none" xmlns="http://www.w3.org/2000/svg">
<path d="M229.667 47.0844C226.209 47.104 222.815 46.151 219.87 44.3336C216.829 42.4356 214.343 39.7645 212.666 36.5917C210.823 33.1377 209.885 29.2708 209.942 25.3541C209.912 21.6267 210.768 17.9457 212.437 14.6148C214.05 11.3882 216.48 8.64251 219.484 6.65225C222.501 4.64733 226.047 3.59332 229.666 3.62589C233.125 3.60614 236.52 4.55863 239.465 6.37521C242.507 8.27547 244.992 10.9487 246.67 14.1234C248.511 17.5781 249.449 21.4443 249.395 25.3609C249.423 29.0884 248.568 32.7692 246.898 36.1002C245.283 39.3264 242.852 42.0718 239.848 44.0628C236.833 46.0682 233.288 47.1223 229.67 47.0891L229.667 47.0844ZM229.667 7.51036C226.861 7.48162 224.103 8.24618 221.71 9.7164C219.28 11.2473 217.313 13.4138 216.02 15.9825C214.566 18.8884 213.839 22.1053 213.902 25.3557C213.864 28.478 214.536 31.568 215.865 34.3918C217.093 37.0081 219.015 39.2351 221.422 40.8288C223.874 42.4238 226.745 43.2511 229.668 43.2052C232.475 43.2337 235.233 42.4674 237.625 40.9945C240.058 39.4664 242.028 37.2992 243.319 34.7284C244.773 31.8221 245.5 28.6055 245.438 25.3552C245.474 22.2324 244.803 19.1421 243.474 16.317C242.244 13.7016 240.32 11.4754 237.913 9.88161C235.461 8.28677 232.59 7.46064 229.668 7.50878L229.667 7.51036Z" fill="#D7D7D7"/>
<path d="M295.303 46.7613H321.659V43.2916H299.193V26.626H316.767L317.446 23.1563H299.193V7.9624H320.439V4.49275H295.303V46.7613Z" fill="#D7D7D7"/>
<path d="M359.467 46.7608H364.339L351.831 27.8393L352.215 27.7358C354.948 27.0222 357.041 25.7006 358.442 23.8052C359.843 21.9099 360.551 19.4697 360.551 16.5682C360.551 8.44144 356.111 4.49228 346.974 4.49228H333.52V46.7587H337.412V28.6493H348.295L359.467 46.7608ZM346.793 25.1781H337.412V7.96449H346.793C350.064 7.96449 352.531 8.6662 354.124 10.0541C355.726 11.4481 356.54 13.6407 356.54 16.5703C356.54 19.4998 355.726 21.6924 354.124 23.0885C352.531 24.4743 350.065 25.1781 346.793 25.1781Z" fill="#D7D7D7"/>
<path d="M401.387 46.7608H405.711L387.938 4.49433H384.02L385.503 8.49944L385.46 8.60302L369.563 46.7613H373.709L378.287 35.2577H396.804L401.386 46.7613L401.387 46.7608ZM395.384 31.787H379.648L387.517 12.0048L395.384 31.787Z" fill="#D7D7D7"/>
<path d="M237.364 58.5187V71.6376C237.364 74.0594 237.978 75.9142 239.205 77.202C240.432 78.4897 242.215 79.1337 244.554 79.1341C246.934 79.1341 248.746 78.4954 249.992 77.218C251.237 75.9407 251.861 74.0805 251.864 71.6376V58.5187H249.707V71.6091C249.707 73.511 249.285 74.9237 248.441 75.8473C247.596 76.7708 246.311 77.232 244.585 77.231C242.879 77.231 241.609 76.7649 240.774 75.8327C239.94 74.9006 239.523 73.4926 239.523 71.6086V58.5187H237.364ZM270.158 60.4208V58.5187H258.047V78.7027H270.733V76.7991H260.147V69.2161H268.403L268.777 67.3125H260.148V60.4208H270.158ZM288.31 60.4208V58.5187H276.199V78.7027H288.887V76.7991H278.3V69.2161H286.556L286.93 67.3125H278.302V60.4208H288.31ZM309.08 78.7012V58.5187H306.98V74.694L295.36 58.5187H292.828L294.352 60.6233V78.7022H296.453V63.3337L307.468 78.7022L309.08 78.7012ZM317.708 60.8957C318.65 60.2373 319.785 59.9172 320.931 59.9874C321.914 59.9958 322.887 60.1763 323.808 60.5207C324.765 60.8661 325.66 61.368 326.454 62.006V59.6989C324.834 58.6272 322.931 58.0656 320.989 58.0863C318.955 58.0863 317.353 58.5714 316.184 59.5415C315.604 60.0261 315.143 60.6388 314.838 61.3315C314.534 62.0243 314.393 62.7784 314.427 63.5347C314.408 64.4368 314.616 65.3293 315.03 66.1302C315.4 66.7894 315.929 67.3449 316.57 67.7454C317.235 68.1594 317.944 68.4979 318.684 68.7547C319.452 69.0229 320.219 69.2727 320.986 69.504C321.71 69.7187 322.416 69.9884 323.099 70.3109C323.704 70.5878 324.232 71.0084 324.638 71.5361C325.12 72.2685 325.324 73.1498 325.214 74.0201C325.103 74.8904 324.685 75.6922 324.035 76.2802C323.23 76.913 322.059 77.2298 320.522 77.2305C318.325 77.1844 316.191 76.4811 314.396 75.2108V77.5179C316.244 78.5764 318.336 79.1331 320.465 79.1331C322.669 79.1331 324.371 78.6283 325.57 77.6189C326.174 77.0947 326.651 76.4389 326.963 75.7016C327.275 74.9644 327.414 74.1653 327.37 73.3657C327.389 72.4358 327.181 71.5153 326.766 70.6837C326.397 70.0101 325.87 69.4367 325.231 69.0131C324.572 68.5837 323.861 68.24 323.116 67.9903C322.348 67.7304 321.581 67.4901 320.815 67.2695C320.093 67.0652 319.387 66.8097 318.701 66.5051C318.102 66.2511 317.574 65.8556 317.162 65.3524C316.757 64.8126 316.544 64.1524 316.557 63.4772C316.531 62.9865 316.621 62.4965 316.821 62.0478C317.021 61.5991 317.325 61.2045 317.707 60.8967L317.708 60.8957ZM332.696 58.5177V78.7017H344.692V76.798H334.854V58.5177H332.696ZM363.245 78.7017H365.575L357.09 58.5177H354.96L355.709 60.5373L348.145 78.7027H350.388L352.545 73.2818H361.088L363.245 78.7027L363.245 78.7017ZM356.799 62.556L360.313 71.3776H353.293L356.802 62.556H356.799ZM384.762 78.7027V58.5187H382.662V74.694L371.04 58.5187H368.508L370.032 60.6233V78.7022H372.131V63.3337L383.151 78.7022L384.762 78.7027ZM404.772 60.9863C403.285 59.3426 400.988 58.5208 397.882 58.5208H391.38V78.7048H397.881C400.949 78.7048 403.236 77.8683 404.743 76.1953C406.25 74.5222 407.002 71.9946 407.001 68.6123C407.001 65.1727 406.258 62.6303 404.772 60.9863ZM397.853 60.4229C400.288 60.4229 402.052 61.0721 403.145 62.3705C404.238 63.669 404.785 65.7494 404.785 68.6118C404.785 71.4772 404.238 73.5582 403.145 74.8545C402.052 76.1509 400.288 76.7996 397.853 76.8006H393.537V60.4208L397.853 60.4229Z" fill="#D7D7D7"/>
<path d="M223.225 79.2465C221.483 79.2567 219.774 78.7765 218.291 77.8607C216.76 76.9042 215.509 75.5591 214.664 73.9617C213.735 72.2232 213.262 70.2762 213.291 68.3042C213.276 66.4274 213.707 64.5739 214.547 62.8967C215.359 61.2713 216.583 59.8884 218.097 58.8864C219.616 57.8768 221.402 57.346 223.224 57.3623C224.966 57.3526 226.675 57.8327 228.158 58.7481C229.69 59.7036 230.942 61.0489 231.786 62.6471C232.713 64.3864 233.185 66.3326 233.158 68.3042C233.172 70.1809 232.741 72.0342 231.902 73.7116C231.089 75.3371 229.864 76.72 228.351 77.7219C226.832 78.7319 225.047 79.2633 223.225 79.2465ZM223.225 59.3178C221.811 59.3036 220.422 59.6892 219.217 60.4301C217.993 61.2005 217.003 62.2911 216.352 63.5844C215.62 65.0477 215.254 66.6675 215.286 68.3042C215.267 69.8766 215.605 71.4328 216.275 72.8546C216.894 74.1715 217.861 75.2929 219.072 76.0964C220.308 76.8992 221.754 77.3157 223.226 77.2931C224.639 77.3072 226.028 76.9211 227.232 76.1792C228.457 75.4093 229.448 74.3184 230.099 73.0244C230.83 71.5605 231.195 69.9407 231.164 68.3042C231.182 66.7322 230.845 65.1766 230.177 63.7543C229.556 62.4371 228.587 61.3157 227.375 60.512C226.141 59.7085 224.696 59.293 223.225 59.3178Z" fill="#D7D7D7"/>
<path d="M224.298 78.6991L227.806 82.5898H230.592L226.627 78.2853" fill="#D7D7D7"/>
<path d="M258.379 46.7608H262.269V29.0765H271.833C276.216 29.0765 279.613 28.0201 281.93 25.9357C284.24 23.8596 285.409 20.7913 285.409 16.8152C285.409 8.52481 280.969 4.49433 271.833 4.49433H258.379L258.379 46.7608ZM271.347 25.6084H262.269V7.96449H271.345C274.78 7.96449 277.338 8.67863 278.949 10.0825C280.573 11.5004 281.399 13.7655 281.399 16.8147C281.399 19.8224 280.564 22.0668 278.919 23.4862C277.284 24.8938 274.739 25.6094 271.347 25.6094V25.6084Z" fill="#D7D7D7"/>
<path d="M67.6512 84.5455C74.3227 80.4852 79.8162 74.7434 83.5842 67.8923C87.3851 61.0237 89.3513 53.2875 89.2924 45.4333C89.2924 36.6671 87.2762 28.8106 83.2437 21.8641C79.4042 15.1149 73.809 9.53658 67.055 5.72406C60.2125 1.88836 52.487 -0.0842014 44.6476 0.00275546C36.1271 0.00275546 28.4587 2.10871 21.6425 6.32062C14.9717 10.3817 9.47847 16.1231 5.70945 22.9733C1.9084 29.8419 -0.0578424 37.5781 0.00129565 45.4323C0.00129565 54.2013 2.01803 62.0578 6.05148 69.0015C9.8871 75.7533 15.4825 81.3324 22.2387 85.1416C29.0815 88.9778 36.8076 90.9506 44.6476 90.8634C53.1681 90.8634 60.836 88.7574 67.6512 84.5455ZM23.1764 68.8332C17.6095 62.7995 14.8261 54.9999 14.8261 45.4344C14.8261 35.8689 17.6095 28.0692 23.1764 22.0355C28.7416 16.0018 35.8987 12.9846 44.6476 12.9839C53.3965 12.9832 60.5536 16.0004 66.1188 22.0355C71.684 28.072 74.4666 35.8714 74.4666 45.4338C74.4666 54.9963 71.684 62.796 66.1188 68.8332C60.5501 74.8704 53.3931 77.8876 44.6476 77.8848C35.9021 77.8821 28.7451 74.8649 23.1764 68.8332ZM191.765 145.003V2.73497H177.62L177.278 18.2774C174.205 12.6998 169.706 8.04265 164.243 4.78415C158.852 1.59783 152.695 -0.0552182 146.436 0.00275546C138.64 -0.0764174 130.994 2.15155 124.455 6.40763C117.988 10.5419 112.727 16.3162 109.204 23.1453C105.627 30.0248 103.785 37.6767 103.836 45.4338C103.836 54.3148 105.653 62.2281 109.288 69.174C112.923 76.1198 117.836 81.471 124.028 85.2276C130.273 89.0004 137.443 90.9526 144.733 90.8649C151.892 90.8649 158.282 89.2993 163.904 86.168C169.558 83.0063 174.197 78.2967 177.279 72.5898V145.003L191.765 145.003ZM127.012 68.8332C121.443 62.7995 118.66 54.9999 118.661 45.4344C118.663 35.8689 121.447 28.0691 127.012 22.035C132.575 16.0013 139.732 12.9841 148.481 12.9834C157.231 12.9827 164.388 15.9999 169.953 22.035C175.518 28.0722 178.301 35.8718 178.303 45.4338C178.305 54.9959 175.521 62.7957 169.951 68.8332C164.385 74.8704 157.227 77.8876 148.48 77.8848C139.733 77.8821 132.577 74.8649 127.012 68.8332Z" fill="#D7D7D7"/>
</svg>
