<svg width="278" height="67" viewBox="0 0 278 67" fill="none" xmlns="http://www.w3.org/2000/svg">
<path d="M38.8844 55.2847L42.3672 65.9345L45.9007 64.7895L42.418 54.1384L38.8844 55.2847Z" fill="#D7D7D7"/>
<path d="M45.9007 2.21185L42.3672 1.0669L38.8844 11.7171L42.4184 12.862L45.9007 2.21185Z" fill="#D7D7D7"/>
<path d="M15.4018 5.31192L12.3943 7.48306L19.0193 16.5435L22.0267 14.3723L15.4018 5.31192Z" fill="#D7D7D7"/>
<path d="M7.5322 12.315L5.34671 15.3036L14.4641 21.8863L16.6496 18.8977L7.5322 12.315Z" fill="#D7D7D7"/>
<path d="M11.7918 38.6366L1.07467 42.0972L2.22696 45.6082L12.945 42.1477L11.7918 38.6366Z" fill="#D7D7D7"/>
<path d="M19.0197 50.4566L12.3924 59.5216L15.4034 61.6857L22.0261 52.6303L19.0197 50.4566Z" fill="#D7D7D7"/>
<path d="M67.4324 31.6545H56.1609V35.3469H67.4324V31.6545Z" fill="#D7D7D7"/>
<path d="M50.7848 48.1052L59.9028 54.6879L62.0813 51.6961L52.9632 45.1133L50.7848 48.1052Z" fill="#D7D7D7"/>
<path d="M54.4851 42.1482L65.205 45.6082L66.3573 42.0967L55.6374 38.6366L54.4851 42.1482Z" fill="#D7D7D7"/>
<path d="M48.4095 16.5466L55.0345 7.48668L52.0341 5.3088L45.4091 14.3688L48.4095 16.5466Z" fill="#D7D7D7"/>
<path d="M52.9632 21.888L62.0813 15.3053L59.9033 12.3134L50.7848 18.8962L52.9632 21.888Z" fill="#D7D7D7"/>
<path d="M55.6374 28.3647L66.3573 24.9042L65.205 21.3931L54.4851 24.8532L55.6374 28.3647Z" fill="#D7D7D7"/>
<path d="M35.5736 55.803H31.8575V67H35.5736V55.803Z" fill="#D7D7D7"/>
<path d="M25.0177 54.1404L21.525 64.7874L25.0589 65.932L28.5517 55.285L25.0177 54.1404Z" fill="#D7D7D7"/>
<path d="M35.5736 0H31.8575V11.1983H35.5736V0Z" fill="#D7D7D7"/>
<path d="M25.0645 1.06873L21.5294 2.2099L25.0117 12.8603L28.5468 11.7191L25.0645 1.06873Z" fill="#D7D7D7"/>
<path d="M45.4091 52.6326L52.0318 61.6884L55.0368 59.5193L48.4095 50.4538L45.4091 52.6326Z" fill="#D7D7D7"/>
<path d="M11.2702 31.6545H0V35.3469H11.2702V31.6545Z" fill="#D7D7D7"/>
<path d="M12.945 24.8537L2.22696 21.3931L1.07467 24.9042L11.7918 28.3647L12.945 24.8537Z" fill="#D7D7D7"/>
<path d="M14.4641 45.1155L5.34703 51.6987L7.53241 54.6868L16.6495 48.1036L14.4641 45.1155Z" fill="#D7D7D7"/>
<path d="M112.161 22.2608L104.851 29.4812H86.8786L79.6123 22.3035V8.84556L86.9215 1.62514H104.894L112.161 8.80286V22.2608ZM101.67 8.07522H90.0176L86.8356 11.2369V19.8258L90.0605 23.0298H101.756L104.938 19.9108V11.2801L101.67 8.07522Z" fill="#D7D7D7"/>
<path d="M118.051 29.2246V1.88223H138.604L144.882 8.0766V15.8098L138.604 22.0473H125.017V29.2246H118.051ZM125.017 15.8098H135.508L137.658 13.631V10.5552L135.422 8.29145H125.017V15.8098Z" fill="#D7D7D7"/>
<path d="M161.779 29.2246V8.33322H156.534L153.524 11.281L148.495 6.28251L152.921 1.88223H177.645L182.074 6.28297L177.001 11.281L174.034 8.33322H168.745V29.2246H161.779Z" fill="#D7D7D7"/>
<path d="M186.717 29.2246V23.1583H192.005V7.94851H186.717V1.88223H204.261V7.94851H198.929V23.1583H204.261V29.2246H186.717Z" fill="#D7D7D7"/>
<path d="M82.493 56.5738L85.1585 59.1369H95.3923V59.0088L77.9781 45.2093L83.6541 37.5619H100.208L104.163 41.5348L99.4341 46.2344L96.9392 43.7554H87.6095L87.4806 43.9689L105.067 57.5544L99.0899 65.3317H81.891L77.7633 61.1876L82.493 56.5738Z" fill="#D7D7D7"/>
<path d="M109.753 65.1182V37.775H130.305L136.583 43.9702V51.703L130.305 57.9405H116.718V65.1182H109.753ZM116.718 51.703H127.21L129.359 49.5242V46.4484L127.124 44.1842H116.718V51.703Z" fill="#D7D7D7"/>
<path d="M175.066 58.1544L167.756 65.373H149.783L142.517 58.1953V44.7387L149.826 37.5188H167.799L175.066 44.6965V58.1544ZM164.573 43.9702H152.921L149.739 47.1315V55.719L152.964 58.9234H164.659L167.841 55.8044V47.1737L164.573 43.9702Z" fill="#D7D7D7"/>
<path d="M181.385 65.1182V37.775H204.388L210.107 43.5001V50.6365L206.28 54.3551L210.023 58.0277V65.1196H202.97V60.4609L200.261 57.7693H188.351V65.1178L181.385 65.1182ZM188.351 51.5754H200.175L202.884 48.926V45.8075L201.119 44.0983H188.349L188.351 51.5754Z" fill="#D7D7D7"/>
<path d="M227.349 65.1182V44.2264H222.103L219.093 47.1742L214.062 42.1757L218.491 37.775H243.215L247.645 42.1757L242.571 47.1742L239.604 44.2264H234.314V65.1182H227.349Z" fill="#D7D7D7"/>
<path d="M255.425 56.5738L258.091 59.1369H268.325V59.0088L250.911 45.2093L256.587 37.5619H273.14L277.096 41.5348L272.367 46.2344L269.872 43.7554H260.539L260.41 43.9689L278 57.5558L272.022 65.3317H254.823L250.696 61.1876L255.425 56.5738Z" fill="#D7D7D7"/>
</svg>
