<svg width="457" height="103" viewBox="0 0 457 103" fill="none" xmlns="http://www.w3.org/2000/svg">
<path d="M342.23 82.535C342.23 81.4998 342.514 80.7346 343.068 80.2545C343.622 79.7744 344.385 79.5343 345.343 79.5343C346.854 79.5343 348.291 80.0444 349.623 81.0647C350.955 82.0849 351.628 83.2102 351.628 84.4555C351.628 84.5305 351.748 84.5755 351.987 84.5755C352.227 84.5755 352.347 84.5305 352.347 84.4555L352.406 81.8749C352.451 81.3948 352.466 80.7346 352.466 79.8944C352.466 79.6093 352.287 79.3993 351.928 79.2342C350.536 78.6341 349.039 78.334 347.438 78.334C345.163 78.334 343.218 78.9042 341.601 80.0444C339.985 81.1847 339.177 82.8501 339.177 85.0556C339.177 86.3009 339.446 87.3362 339.985 88.1764C340.524 89.0166 341.167 89.6918 341.931 90.2169C342.694 90.742 343.741 91.3422 345.103 92.0173C346.899 92.9326 348.246 93.8328 349.144 94.688C350.042 95.5432 350.491 96.7735 350.491 98.3789C350.491 99.5042 350.177 100.344 349.533 100.899C348.89 101.455 347.992 101.74 346.839 101.74C345.238 101.74 343.801 101.185 342.529 100.089C341.257 98.994 340.255 97.4337 339.536 95.4382C339.491 95.3181 339.372 95.2731 339.147 95.2881C338.923 95.3031 338.818 95.3782 338.818 95.4982L338.938 100.359C338.938 100.674 339.057 100.914 339.297 101.08C340.255 101.725 341.197 102.175 342.14 102.46C343.083 102.745 344.071 102.88 345.103 102.88C347.782 102.88 349.862 102.16 351.389 100.719C352.9 99.2791 353.664 97.5387 353.664 95.4982C353.664 94.2979 353.379 93.2626 352.825 92.4074C352.272 91.5522 351.583 90.8621 350.79 90.3369C349.997 89.8118 348.89 89.1967 347.498 88.4765C345.747 87.5613 344.43 86.676 343.547 85.8358C342.664 84.9956 342.23 83.9004 342.23 82.535ZM333.101 78.5141C332.218 78.5141 331.305 78.8591 330.347 79.5343C329.39 80.2095 328.088 81.4998 326.456 83.3752C326.411 81.9349 326.202 80.7646 325.828 79.8644C325.454 78.9642 325.065 78.5141 324.661 78.5141L324.301 78.5741L317.118 82.0549C316.953 82.1299 316.923 82.265 316.998 82.445C317.073 82.6251 317.193 82.7151 317.357 82.7151H317.417C318.929 82.1149 319.991 81.8149 320.59 81.8149C321.308 81.8149 321.832 82.1149 322.146 82.7151C322.461 83.3152 322.625 84.2755 322.625 85.5958V97.3586C322.625 98.5139 322.535 99.3841 322.356 99.9693C322.176 100.554 321.832 100.945 321.338 101.17C320.844 101.395 320.066 101.5 319.033 101.5C318.914 101.5 318.854 101.62 318.854 101.86C318.854 102.1 318.914 102.22 319.033 102.22C319.991 102.22 320.755 102.205 321.308 102.16L324.541 102.1L329.03 102.16C329.824 102.205 330.886 102.22 332.203 102.22C332.323 102.22 332.383 102.1 332.383 101.86C332.383 101.62 332.323 101.5 332.203 101.5C330.572 101.5 329.345 101.395 328.552 101.17C327.758 100.945 327.205 100.554 326.905 99.9693C326.606 99.3841 326.456 98.5139 326.456 97.3586V84.4555C327.654 83.0902 328.522 82.22 329.06 81.8149C329.599 81.4098 330.123 81.2147 330.647 81.2147C331.081 81.2147 331.455 81.2897 331.754 81.4548C332.053 81.6198 332.398 81.8599 332.802 82.1749C333.161 82.49 333.475 82.7301 333.76 82.8951C334.044 83.0602 334.373 83.1352 334.777 83.1352C335.421 83.1352 335.93 82.9401 336.304 82.565C336.678 82.1899 336.872 81.7098 336.872 81.1547C336.872 80.4345 336.468 79.8194 335.645 79.2942C334.822 78.7691 333.984 78.5141 333.101 78.5141ZM305.969 79.7144C307.45 79.7144 308.588 80.2395 309.411 81.3047C310.234 82.37 310.638 83.9154 310.638 85.9559L299.743 86.1959C300.057 84.1554 300.761 82.565 301.838 81.4248C302.916 80.2845 304.293 79.7144 305.969 79.7144ZM314.828 98.739C313.706 99.4141 312.748 99.9093 311.925 100.209C311.102 100.509 310.099 100.659 308.902 100.659C305.909 100.659 303.589 99.5942 301.958 97.4787C300.327 95.3631 299.504 92.5575 299.504 89.0766C299.504 88.5965 299.548 87.9213 299.623 87.0361L314.409 86.9761C314.888 86.9761 315.128 86.436 315.128 85.3557C315.128 83.1502 314.514 81.4698 313.302 80.2845C312.09 79.0992 310.324 78.5141 308.004 78.5141C305.684 78.5141 303.499 79.0842 301.539 80.2245C299.578 81.3648 298.037 82.9101 296.9 84.8756C295.762 86.8411 295.194 89.0016 295.194 91.3572C295.194 93.3977 295.628 95.3031 296.511 97.0886C297.393 98.874 298.666 100.284 300.342 101.35C302.018 102.415 304.038 102.94 306.388 102.94C309.62 102.94 312.568 101.74 315.247 99.3391C315.322 99.2191 315.322 99.084 315.217 98.949C315.113 98.814 315.008 98.739 314.888 98.739H314.828ZM294.804 101.5C293.772 101.5 292.994 101.395 292.47 101.17C291.946 100.945 291.602 100.554 291.422 99.9693C291.243 99.3841 291.153 98.5139 291.153 97.3586V85.6558C291.153 83.3002 290.539 81.4698 289.327 80.1945C288.115 78.9192 286.409 78.274 284.209 78.274C281.021 78.274 277.968 79.9994 275.05 83.4353C275.005 81.9499 274.796 80.7646 274.421 79.8644C274.047 78.9642 273.658 78.5141 273.254 78.5141L272.895 78.5741L265.712 82.0549C265.547 82.1299 265.517 82.265 265.592 82.445C265.667 82.6251 265.786 82.7151 265.951 82.7151H266.011C267.522 82.1149 268.585 81.8149 269.184 81.8149C269.902 81.8149 270.426 82.1149 270.74 82.7151C271.054 83.3152 271.219 84.2755 271.219 85.5958V97.3586C271.219 98.5139 271.129 99.3841 270.95 99.9693C270.77 100.554 270.426 100.945 269.932 101.17C269.438 101.395 268.66 101.5 267.627 101.5C267.507 101.5 267.448 101.62 267.448 101.86C267.448 102.1 267.507 102.22 267.627 102.22C268.585 102.22 269.348 102.205 269.902 102.16L273.134 102.1L276.367 102.16C276.921 102.205 277.699 102.22 278.702 102.22C278.821 102.22 278.881 102.1 278.881 101.86C278.881 101.62 278.821 101.5 278.702 101.5C277.669 101.5 276.891 101.395 276.367 101.17C275.843 100.945 275.499 100.554 275.319 99.9693C275.14 99.3841 275.05 98.5139 275.05 97.3586V84.4555C276.053 83.3752 277.16 82.535 278.372 81.9349C279.585 81.3347 280.782 81.0347 281.934 81.0347C283.805 81.0347 285.182 81.5898 286.035 82.6851C286.888 83.7803 287.322 85.4907 287.322 87.8163V97.3586C287.322 98.5139 287.232 99.3841 287.052 99.9693C286.873 100.554 286.529 100.945 286.035 101.17C285.541 101.395 284.763 101.5 283.73 101.5C283.61 101.5 283.55 101.62 283.55 101.86C283.55 102.1 283.61 102.22 283.73 102.22C284.688 102.22 285.451 102.205 286.005 102.16L289.237 102.1L292.47 102.16C293.024 102.205 293.802 102.22 294.804 102.22C294.924 102.22 294.984 102.1 294.984 101.86C294.984 101.62 294.924 101.5 294.804 101.5ZM264.559 98.979C263.048 100.104 261.446 100.659 259.77 100.659C256.658 100.659 255.101 99.054 255.101 95.8583V81.0947C258.214 81.1697 260.893 81.4698 263.123 81.9949C263.287 82.0399 263.422 81.8899 263.542 81.5448C263.661 81.1997 263.721 80.8546 263.721 80.4945C263.721 80.1345 263.676 79.8194 263.601 79.5343C263.527 79.2492 263.422 79.1142 263.302 79.1142C259.755 79.4743 257.017 79.6693 255.101 79.7144V75.1532C255.101 75.0332 254.966 74.9732 254.682 74.9732C254.398 74.9732 254.248 75.0332 254.203 75.1532C253.964 76.5936 253.32 77.7189 252.258 78.5141C251.195 79.3093 249.833 79.7294 248.157 79.7744C248.037 79.7744 247.978 79.9094 247.978 80.1945C247.978 80.4795 248.037 80.6146 248.157 80.6146C249.07 80.6146 249.743 80.6896 250.163 80.8546C250.582 81.0197 250.866 81.3197 251.03 81.7848C251.195 82.25 251.27 82.9551 251.27 83.9154V97.8988C251.27 99.6992 251.824 100.99 252.916 101.77C254.009 102.55 255.4 102.94 257.077 102.94C258.438 102.94 259.71 102.685 260.908 102.16C262.105 101.635 263.437 100.779 264.918 99.5792C265.038 99.5042 265.053 99.3691 264.978 99.1891C264.903 99.009 264.799 98.919 264.679 98.919L264.559 98.979ZM242.261 78.5141C241.378 78.5141 240.465 78.8591 239.507 79.5343C238.549 80.2095 237.247 81.4998 235.616 83.3752C235.571 81.9349 235.362 80.7646 234.988 79.8644C234.613 78.9642 234.224 78.5141 233.82 78.5141L233.461 78.5741L226.278 82.0549C226.113 82.1299 226.083 82.265 226.158 82.445C226.233 82.6251 226.352 82.7151 226.517 82.7151H226.577C228.088 82.1149 229.151 81.8149 229.75 81.8149C230.468 81.8149 230.992 82.1149 231.306 82.7151C231.62 83.3152 231.785 84.2755 231.785 85.5958V97.3586C231.785 98.5139 231.695 99.3841 231.516 99.9693C231.336 100.554 230.992 100.945 230.498 101.17C230.004 101.395 229.226 101.5 228.193 101.5C228.073 101.5 228.014 101.62 228.014 101.86C228.014 102.1 228.073 102.22 228.193 102.22C229.151 102.22 229.914 102.205 230.468 102.16L233.701 102.1L238.19 102.16C238.983 102.205 240.046 102.22 241.363 102.22C241.483 102.22 241.542 102.1 241.542 101.86C241.542 101.62 241.483 101.5 241.363 101.5C239.732 101.5 238.504 101.395 237.711 101.17C236.918 100.945 236.364 100.554 236.065 99.9693C235.766 99.3841 235.616 98.5139 235.616 97.3586V84.4555C236.813 83.0902 237.681 82.22 238.22 81.8149C238.759 81.4098 239.283 81.2147 239.806 81.2147C240.24 81.2147 240.615 81.2897 240.914 81.4548C241.213 81.6198 241.557 81.8599 241.961 82.1749C242.321 82.49 242.635 82.7301 242.919 82.8951C243.204 83.0602 243.533 83.1352 243.937 83.1352C244.58 83.1352 245.089 82.9401 245.463 82.565C245.837 82.1899 246.032 81.7098 246.032 81.1547C246.032 80.4345 245.628 79.8194 244.805 79.2942C243.982 78.7691 243.144 78.5141 242.261 78.5141ZM215.398 99.3391C214.395 99.9393 213.497 100.239 212.704 100.239C211.746 100.239 210.953 99.9243 210.339 99.3091C209.726 98.694 209.412 97.8988 209.412 96.9385C209.412 96.0533 209.696 95.3331 210.25 94.748C210.803 94.1629 211.626 93.6827 212.704 93.2776L217.732 91.2371V97.8988L215.398 99.3391ZM226.532 98.979C225.41 99.4591 224.497 99.6992 223.778 99.6992C222.985 99.6992 222.387 99.3841 222.012 98.739C221.638 98.0938 221.444 97.1036 221.444 95.7382V84.6355C221.444 82.6401 220.995 81.1097 220.097 80.0444C219.199 78.9792 217.927 78.454 216.296 78.454C214.934 78.454 213.377 78.7691 211.597 79.4143C209.816 80.0594 208.304 80.8696 207.047 81.8749C205.79 82.8801 205.161 83.8704 205.161 84.8756C205.161 85.4007 205.341 85.8358 205.7 86.1959C206.059 86.556 206.598 86.7361 207.316 86.7361C208.708 86.7361 209.531 85.8508 209.771 84.0954C209.965 82.9401 210.414 81.8899 211.088 80.9747C211.761 80.0594 212.764 79.5943 214.081 79.5943C215.278 79.5943 216.191 80.1345 216.804 81.2147C217.418 82.295 217.732 84.0354 217.732 86.436V90.3969L211.327 92.7375C209.097 93.5777 207.466 94.4329 206.448 95.2881C205.431 96.1433 204.922 97.2236 204.922 98.4989C204.922 99.6992 205.341 100.689 206.179 101.47C207.017 102.25 208.199 102.64 209.711 102.64C210.594 102.64 211.417 102.505 212.195 102.22C212.973 101.935 213.841 101.455 214.799 100.779L217.792 98.799C217.957 99.9993 218.241 100.945 218.66 101.65C219.079 102.355 219.543 102.7 220.067 102.7C220.262 102.7 220.441 102.655 220.606 102.58L226.771 99.6392C226.936 99.5642 226.996 99.4291 226.951 99.2491C226.906 99.069 226.816 98.979 226.652 98.979H226.532ZM184.988 97.1186V69.6919C184.988 68.4166 185.123 67.4864 185.377 66.9012C185.631 66.3161 186.065 65.941 186.664 65.761C187.263 65.5809 188.22 65.4909 189.537 65.4909C192.216 65.4909 194.371 66.3911 196.003 68.1916C197.634 69.992 198.457 72.4676 198.457 75.6334C198.457 78.7991 197.604 81.3497 195.883 83.0752C194.162 84.8006 192.067 85.6558 189.597 85.6558C188.804 85.6558 188.101 85.5808 187.502 85.4157C187.427 85.3707 187.352 85.4157 187.293 85.5358C187.233 85.6558 187.203 85.7758 187.203 85.8958C187.203 86.0909 187.248 86.1959 187.323 86.1959C188.116 86.391 189.103 86.496 190.256 86.496C192.411 86.496 194.491 86.0609 196.511 85.1757C198.532 84.2905 200.178 82.9551 201.48 81.1547C202.782 79.3543 203.425 77.1487 203.425 74.5531C203.425 71.1923 202.303 68.6867 200.043 67.0213C197.783 65.3559 194.805 64.5307 191.094 64.5307C190.331 64.5307 189.448 64.5607 188.43 64.6207C187.412 64.6807 186.664 64.7107 186.185 64.7107C184.868 64.8307 183.731 64.8908 182.773 64.8908C181.815 64.8908 180.438 64.8457 178.762 64.7707L175.709 64.7107C175.59 64.7107 175.53 64.8307 175.53 65.0708C175.53 65.3109 175.59 65.4309 175.709 65.4309C177.146 65.4309 178.209 65.5359 178.882 65.761C179.555 65.986 180.019 66.3761 180.259 66.9312C180.498 67.4864 180.618 68.3716 180.618 69.5719V97.3586C180.618 98.5589 180.498 99.4441 180.259 100.029C180.019 100.614 179.555 101.005 178.882 101.2C178.209 101.395 177.146 101.5 175.709 101.5C175.59 101.5 175.53 101.62 175.53 101.86C175.53 102.1 175.59 102.22 175.709 102.22C177.026 102.22 178.044 102.205 178.762 102.16L182.833 102.1L188.041 102.16C188.954 102.205 190.241 102.22 191.872 102.22C191.992 102.22 192.052 102.1 192.052 101.86C192.052 101.62 191.992 101.5 191.872 101.5C189.837 101.5 188.34 101.38 187.382 101.14C186.425 100.899 185.781 100.494 185.467 99.9092C185.153 99.3241 184.988 98.3939 184.988 97.1186ZM156.748 99.3391C155.745 99.9393 154.848 100.239 154.054 100.239C153.097 100.239 152.303 99.9243 151.69 99.3091C151.076 98.694 150.762 97.8988 150.762 96.9385C150.762 96.0533 151.046 95.3331 151.6 94.748C152.154 94.1629 152.977 93.6827 154.054 93.2776L159.083 91.2371V97.8988L156.748 99.3391ZM167.882 98.979C166.76 99.4591 165.847 99.6992 165.129 99.6992C164.336 99.6992 163.737 99.3841 163.363 98.739C162.989 98.0938 162.794 97.1036 162.794 95.7382V84.6355C162.794 82.6401 162.345 81.1097 161.447 80.0444C160.549 78.9792 159.277 78.454 157.646 78.454C156.284 78.454 154.728 78.7691 152.947 79.4143C151.166 80.0594 149.655 80.8696 148.397 81.8749C147.14 82.8801 146.512 83.8704 146.512 84.8756C146.512 85.4007 146.691 85.8358 147.051 86.1959C147.41 86.556 147.948 86.7361 148.667 86.7361C150.059 86.7361 150.882 85.8508 151.121 84.0954C151.316 82.9401 151.765 81.8899 152.438 80.9747C153.112 80.0594 154.114 79.5943 155.431 79.5943C156.628 79.5943 157.541 80.1345 158.155 81.2147C158.768 82.295 159.083 84.0354 159.083 86.436V90.3969L152.678 92.7375C150.448 93.5777 148.816 94.4329 147.799 95.2881C146.781 96.1433 146.272 97.2236 146.272 98.4989C146.272 99.6992 146.691 100.689 147.529 101.47C148.367 102.25 149.55 102.64 151.061 102.64C151.944 102.64 152.767 102.505 153.546 102.22C154.324 101.935 155.192 101.455 156.15 100.779L159.143 98.799C159.307 99.9993 159.592 100.945 160.011 101.65C160.43 102.355 160.894 102.7 161.417 102.7C161.612 102.7 161.792 102.655 161.956 102.58L168.122 99.6392C168.287 99.5642 168.346 99.4291 168.301 99.2491C168.257 99.069 168.167 98.979 168.002 98.979H167.882ZM140.541 78.5141C139.658 78.5141 138.745 78.8591 137.787 79.5343C136.829 80.2095 135.527 81.4998 133.896 83.3752C133.851 81.9349 133.641 80.7646 133.267 79.8644C132.893 78.9642 132.504 78.5141 132.1 78.5141L131.741 78.5741L124.557 82.0549C124.393 82.1299 124.363 82.265 124.438 82.445C124.513 82.6251 124.632 82.7151 124.797 82.7151H124.857C126.368 82.1149 127.431 81.8149 128.029 81.8149C128.748 81.8149 129.272 82.1149 129.586 82.7151C129.9 83.3152 130.065 84.2755 130.065 85.5958V97.3586C130.065 98.5139 129.975 99.3841 129.795 99.9693C129.616 100.554 129.272 100.945 128.778 101.17C128.284 101.395 127.506 101.5 126.473 101.5C126.353 101.5 126.293 101.62 126.293 101.86C126.293 102.1 126.353 102.22 126.473 102.22C127.431 102.22 128.194 102.205 128.748 102.16L131.98 102.1L136.47 102.16C137.263 102.205 138.326 102.22 139.643 102.22C139.762 102.22 139.822 102.1 139.822 101.86C139.822 101.62 139.762 101.5 139.643 101.5C138.011 101.5 136.784 101.395 135.991 101.17C135.198 100.945 134.644 100.554 134.345 99.9693C134.046 99.3841 133.896 98.5139 133.896 97.3586V84.4555C135.093 83.0902 135.961 82.22 136.5 81.8149C137.039 81.4098 137.562 81.2147 138.086 81.2147C138.52 81.2147 138.894 81.2897 139.194 81.4548C139.493 81.6198 139.837 81.8599 140.241 82.1749C140.6 82.49 140.915 82.7301 141.199 82.8951C141.483 83.0602 141.813 83.1352 142.217 83.1352C142.86 83.1352 143.369 82.9401 143.743 82.565C144.117 82.1899 144.312 81.7098 144.312 81.1547C144.312 80.4345 143.908 79.8194 143.085 79.2942C142.262 78.7691 141.424 78.5141 140.541 78.5141ZM113.693 99.3391C112.69 99.9393 111.792 100.239 110.999 100.239C110.041 100.239 109.248 99.9243 108.634 99.3091C108.021 98.694 107.706 97.8988 107.706 96.9385C107.706 96.0533 107.991 95.3331 108.544 94.748C109.098 94.1629 109.921 93.6827 110.999 93.2776L116.027 91.2371V97.8988L113.693 99.3391ZM124.812 98.979C123.689 99.4591 122.777 99.6992 122.058 99.6992C121.265 99.6992 120.666 99.3841 120.292 98.739C119.918 98.0938 119.724 97.1036 119.724 95.7382V84.6355C119.724 82.6401 119.275 81.1097 118.377 80.0444C117.479 78.9792 116.207 78.454 114.575 78.454C113.214 78.454 111.657 78.7691 109.876 79.4143C108.095 80.0594 106.584 80.8696 105.327 81.8749C104.07 82.8801 103.441 83.8704 103.441 84.8756C103.441 85.4007 103.621 85.8358 103.98 86.1959C104.339 86.556 104.878 86.7361 105.596 86.7361C106.988 86.7361 107.811 85.8508 108.051 84.0954C108.245 82.9401 108.694 81.8899 109.368 80.9747C110.041 80.0594 111.044 79.5943 112.361 79.5943C113.558 79.5943 114.471 80.1345 115.084 81.2147C115.698 82.295 116.012 84.0354 116.012 86.436V90.3969L109.607 92.7375C107.377 93.5777 105.746 94.4329 104.728 95.2881C103.711 96.1433 103.202 97.2236 103.202 98.4989C103.202 99.6992 103.621 100.689 104.459 101.47C105.297 102.25 106.479 102.64 107.991 102.64C108.874 102.64 109.697 102.505 110.475 102.22C111.253 101.935 112.121 101.455 113.079 100.779L116.072 98.799C116.237 99.9993 116.521 100.945 116.94 101.65C117.359 102.355 117.823 102.7 118.347 102.7C118.541 102.7 118.721 102.655 118.886 102.58L125.051 99.6392C125.216 99.5642 125.276 99.4291 125.231 99.2491C125.186 99.069 125.096 98.979 124.932 98.979H124.812ZM84.5997 100.719C82.3698 100.719 80.5441 99.7142 79.1223 97.6887C77.7006 95.6632 76.9973 92.9926 76.9973 89.6768C76.9973 86.361 77.7006 83.8854 79.1223 82.1449C80.5441 80.4045 82.4596 79.5343 84.899 79.5343C86.4554 79.5343 87.7873 79.8794 88.9097 80.5546C90.0322 81.2297 91.0199 82.22 91.9028 83.4953V96.9385C90.7505 98.1388 89.5832 99.069 88.4009 99.7292C87.2187 100.389 85.9616 100.719 84.5997 100.719ZM100.762 98.739C99.7597 99.2941 98.772 99.5792 97.7693 99.5792C97.0061 99.5792 96.4673 99.2641 96.153 98.6489C95.8388 98.0338 95.6741 96.9985 95.6741 95.5582V59.2494C95.6741 59.1294 95.5993 59.0093 95.4646 58.8893C95.3299 58.7693 95.1952 58.7093 95.0755 58.7093C94.9558 58.7093 94.851 58.7243 94.7762 58.7693L86.9942 62.5502C86.8745 62.6252 86.8445 62.7602 86.9044 62.9403C86.9642 63.1203 87.069 63.2103 87.2336 63.2103H87.3533C88.5955 62.6852 89.4635 62.4302 89.9873 62.4302C90.7056 62.4302 91.1995 62.7452 91.4838 63.3604C91.7682 63.9755 91.9028 65.0108 91.9028 66.4511V79.6543C90.2716 78.7391 88.4309 78.274 86.3956 78.274C84.3603 78.274 82.1603 78.7691 80.0502 79.7444C77.9401 80.7196 76.1742 82.205 74.7824 84.1854C73.3906 86.1659 72.6872 88.5965 72.6872 91.4772C72.6872 93.7578 73.1212 95.7833 73.9742 97.5387C74.8273 99.2941 75.9796 100.644 77.4163 101.59C78.853 102.535 80.4094 103 82.0855 103C84.0011 103 85.752 102.535 87.3533 101.62C88.9546 100.704 90.4662 99.5042 91.9028 98.0188C91.9477 99.5342 92.1423 100.719 92.5015 101.56C92.8606 102.4 93.2946 102.82 93.8184 102.82C93.8633 102.82 93.998 102.775 94.2375 102.7L101.122 99.3991C101.241 99.3541 101.256 99.2341 101.181 99.039C101.107 98.844 101.002 98.739 100.882 98.739H100.762ZM71.7893 101.5C70.7567 101.5 69.9785 101.395 69.4547 101.17C68.9309 100.945 68.5867 100.554 68.4071 99.9693C68.2275 99.3841 68.1377 98.5139 68.1377 97.3586V85.6558C68.1377 83.3002 67.5241 81.4698 66.3119 80.1945C65.0997 78.9192 63.3937 78.274 61.1937 78.274C58.0061 78.274 54.9531 79.9994 52.0349 83.4353C51.99 81.9499 51.7805 80.7646 51.4063 79.8644C51.0322 78.9642 50.6431 78.5141 50.239 78.5141L49.8799 78.5741L42.6964 82.0549C42.5318 82.1299 42.5019 82.265 42.5767 82.445C42.6515 82.6251 42.7713 82.7151 42.9359 82.7151H42.9957C44.5073 82.1149 45.5698 81.8149 46.1684 81.8149C46.8868 81.8149 47.4106 82.1149 47.7248 82.7151C48.0391 83.3152 48.2037 84.2755 48.2037 85.5958V97.3586C48.2037 98.5139 48.1139 99.3841 47.9343 99.9693C47.7548 100.554 47.4106 100.945 46.9167 101.17C46.4228 101.395 45.6446 101.5 44.612 101.5C44.4923 101.5 44.4324 101.62 44.4324 101.86C44.4324 102.1 44.4923 102.22 44.612 102.22C45.5698 102.22 46.333 102.205 46.8868 102.16L50.1193 102.1L53.3518 102.16C53.9056 102.205 54.6838 102.22 55.6864 102.22C55.8062 102.22 55.866 102.1 55.866 101.86C55.866 101.62 55.8062 101.5 55.6864 101.5C54.6538 101.5 53.8756 101.395 53.3518 101.17C52.828 100.945 52.4838 100.554 52.3043 99.9693C52.1247 99.3841 52.0349 98.5139 52.0349 97.3586V84.4555C53.0376 83.3752 54.145 82.535 55.3572 81.9349C56.5694 81.3347 57.7666 81.0347 58.919 81.0347C60.7897 81.0347 62.1665 81.5898 63.0195 82.6851C63.8725 83.7803 64.3065 85.4907 64.3065 87.8163V97.3586C64.3065 98.5139 64.2168 99.3841 64.0372 99.9693C63.8576 100.554 63.5134 100.945 63.0195 101.17C62.5257 101.395 61.7475 101.5 60.7148 101.5C60.5951 101.5 60.5353 101.62 60.5353 101.86C60.5353 102.1 60.5951 102.22 60.7148 102.22C61.6726 102.22 62.4359 102.205 62.9896 102.16L66.2221 102.1L69.4547 102.16C70.0084 102.205 70.7866 102.22 71.7893 102.22C71.909 102.22 71.9689 102.1 71.9689 101.86C71.9689 101.62 71.909 101.5 71.7893 101.5ZM30.7989 102.22C31.7118 102.22 32.4601 102.205 33.0138 102.16L36.366 102.1L39.5986 102.16C40.1523 102.205 40.9305 102.22 41.9332 102.22C42.0529 102.22 42.1128 102.1 42.1128 101.86C42.1128 101.62 42.0529 101.5 41.9332 101.5C40.9006 101.5 40.1224 101.395 39.5986 101.17C39.0748 100.945 38.7306 100.554 38.551 99.9693C38.3714 99.3841 38.2816 98.5139 38.2816 97.3586V86.1359C38.2816 84.3355 38.2966 82.7751 38.3415 81.4548C38.3864 80.1345 38.4013 79.3393 38.4013 79.0542C38.4013 78.9342 38.3265 78.8141 38.1918 78.6941C38.0571 78.5741 37.9225 78.5141 37.8027 78.5141L37.5633 78.5741L29.6017 82.295C29.437 82.37 29.4071 82.52 29.4819 82.7151C29.5568 82.9101 29.6765 83.0152 29.8411 83.0152H29.901C30.9785 82.46 31.8614 82.1749 32.5349 82.1749C33.2532 82.1749 33.7471 82.49 34.0314 83.1352C34.3158 83.7803 34.4505 84.8006 34.4505 86.1959V97.3586C34.4505 99.039 34.211 100.149 33.7321 100.689C33.2532 101.23 32.2805 101.5 30.7989 101.5C30.6792 101.5 30.6193 101.62 30.6193 101.86C30.6193 102.1 30.6792 102.22 30.7989 102.22ZM35.947 71.6724C36.7851 71.6724 37.4436 71.4323 37.9225 70.9522C38.4013 70.4721 38.6408 69.7969 38.6408 68.9117C38.6408 68.1165 38.4013 67.4714 37.9225 66.9913C37.4436 66.5111 36.7851 66.2711 35.947 66.2711C35.109 66.2711 34.3756 66.5111 33.8818 66.9913C33.3879 67.4714 33.1335 68.1165 33.1335 68.9117C33.1335 69.7969 33.3879 70.4721 33.8818 70.9522C34.3756 71.4323 35.0641 71.6724 35.947 71.6724ZM9.45817 97.1186V69.6919C9.45817 68.4166 9.59285 67.4864 9.84727 66.9012C10.1017 66.3161 10.5357 65.941 11.1343 65.761C11.7329 65.5809 12.6907 65.4909 14.0077 65.4909C16.6865 65.4909 18.8415 66.3911 20.4727 68.1916C22.104 69.992 22.9271 72.4676 22.9271 75.6334C22.9271 78.7991 22.074 81.3497 20.353 83.0752C18.632 84.8006 16.5368 85.6558 14.0675 85.6558C13.2744 85.6558 12.571 85.5808 11.9724 85.4157C11.8975 85.3707 11.8227 85.4157 11.7628 85.5358C11.703 85.6558 11.6731 85.7758 11.6731 85.8958C11.6731 86.0909 11.7179 86.1959 11.7928 86.1959C12.5859 86.391 13.5737 86.496 14.726 86.496C16.881 86.496 18.9612 86.0609 20.9816 85.1757C23.0019 84.2905 24.6481 82.9551 25.9501 81.1547C27.2521 79.3543 27.8956 77.1487 27.8956 74.5531C27.8956 71.1923 26.7732 68.6867 24.5134 67.0213C22.2536 65.3559 19.2755 64.5307 15.5641 64.5307C14.8008 64.5307 13.9179 64.5607 12.9002 64.6207C11.8826 64.6807 11.1343 64.7107 10.6554 64.7107C9.33844 64.8307 8.20107 64.8908 7.24328 64.8908C6.28549 64.8908 4.90867 64.8457 3.23254 64.7707L0.179585 64.7107C0.0598618 64.7107 0 64.8307 0 65.0708C0 65.3109 0.0598618 65.4309 0.179585 65.4309C1.61627 65.4309 2.67882 65.5359 3.35226 65.761C4.02571 65.986 4.48964 66.3761 4.72908 66.9312C4.96853 67.4864 5.08825 68.3716 5.08825 69.5719V97.3586C5.08825 98.5589 4.96853 99.4441 4.72908 100.029C4.48964 100.614 4.02571 101.005 3.35226 101.2C2.67882 101.395 1.61627 101.5 0.179585 101.5C0.0598618 101.5 0 101.62 0 101.86C0 102.1 0.0598618 102.22 0.179585 102.22C1.49655 102.22 2.5142 102.205 3.23254 102.16L7.30314 102.1L12.5111 102.16C13.424 102.205 14.711 102.22 16.3423 102.22C16.462 102.22 16.5219 102.1 16.5219 101.86C16.5219 101.62 16.462 101.5 16.3423 101.5C14.307 101.5 12.8104 101.38 11.8526 101.14C10.8948 100.899 10.2513 100.494 9.93706 99.9092C9.62279 99.3241 9.45817 98.3939 9.45817 97.1186Z" fill="#D7D7D7"/>
<path d="M381.14 102.82C380.856 102.82 380.571 102.715 380.347 102.49C379.913 102.055 379.913 101.335 380.347 100.899L403.558 77.6288C403.992 77.1937 404.711 77.1937 405.145 77.6288C405.579 78.064 405.579 78.7841 405.145 79.2192L381.933 102.49C381.709 102.715 381.424 102.82 381.14 102.82Z" fill="#D7D7D7"/>
<path d="M404.172 102.82H380.018V78.6041C380.018 77.9889 380.527 77.4788 381.14 77.4788C381.754 77.4788 382.263 77.9889 382.263 78.6041V100.569H404.172C404.786 100.569 405.294 101.08 405.294 101.695C405.294 102.31 404.786 102.82 404.172 102.82Z" fill="#D7D7D7"/>
<path d="M404.352 25.5212C404.067 25.5212 403.783 25.4162 403.558 25.1911L380.347 1.92047C379.913 1.48536 379.913 0.765186 380.347 0.33008C380.781 -0.105025 381.499 -0.105025 381.933 0.33008L405.145 23.6007C405.579 24.0358 405.579 24.756 405.145 25.1911C404.92 25.4162 404.636 25.5212 404.352 25.5212Z" fill="#D7D7D7"/>
<path d="M381.14 25.3412C380.527 25.3412 380.018 24.831 380.018 24.2159V0H404.172C404.786 0 405.294 0.510124 405.294 1.12527C405.294 1.74042 404.786 2.25055 404.172 2.25055H382.263V24.2159C382.263 24.831 381.754 25.3412 381.14 25.3412Z" fill="#D7D7D7"/>
<path d="M455.878 77.0437C455.593 77.0437 455.309 76.9387 455.084 76.7136L431.873 53.443C431.439 53.0079 431.439 52.2877 431.873 51.8526C432.307 51.4175 433.025 51.4175 433.459 51.8526L456.671 75.1232C457.105 75.5583 457.105 76.2785 456.671 76.7136C456.446 76.9387 456.162 77.0437 455.878 77.0437Z" fill="#D7D7D7"/>
<path d="M457 77.0437H432.846C432.232 77.0437 431.723 76.5336 431.723 75.9184C431.723 75.3033 432.232 74.7932 432.846 74.7932H454.755V52.8278C454.755 52.2127 455.264 51.7025 455.878 51.7025C456.491 51.7025 457 52.2127 457 52.8278V77.0437Z" fill="#D7D7D7"/>
<path d="M432.666 25.5212C432.382 25.5212 432.097 25.4162 431.873 25.1911C431.439 24.756 431.439 24.0358 431.873 23.6007L455.084 0.33008C455.518 -0.105025 456.237 -0.105025 456.671 0.33008C457.105 0.765186 457.105 1.48536 456.671 1.92047L433.459 25.1911C433.235 25.4162 432.951 25.5212 432.666 25.5212Z" fill="#D7D7D7"/>
<path d="M455.878 25.3412C455.264 25.3412 454.755 24.831 454.755 24.2159V2.25055H432.846C432.232 2.25055 431.723 1.74042 431.723 1.12527C431.723 0.510124 432.232 0 432.846 0H457V24.2159C457 24.831 456.491 25.3412 455.878 25.3412Z" fill="#D7D7D7"/>
</svg>
