<svg width="295" height="65" viewBox="0 0 295 65" fill="none" xmlns="http://www.w3.org/2000/svg">
<path d="M226.109 34.2113C226.623 33.0658 227.142 31.9303 227.646 30.7798C229.059 27.5525 230.699 24.4498 232.902 21.6956C234.799 19.32 237.101 17.5071 240.263 17.1535C244.106 16.7252 246.136 18.6775 245.529 22.5572C245.04 25.66 244.21 28.713 243.503 31.7809C243.207 33.0608 242.836 34.3159 242.55 35.6058C243.478 33.5141 244.353 31.3974 245.346 29.3355C247.06 25.7745 248.883 22.2684 251.891 19.5939C253.966 17.7462 256.387 16.8547 259.188 17.1336C261.317 17.3477 262.641 18.6426 262.893 20.8091C263.174 23.2047 262.616 25.4907 261.89 27.7318C259.879 33.9125 257.819 40.0782 255.794 46.2588C255.517 47.1005 255.295 47.9671 255.152 48.8387C255.033 49.5459 254.994 50.3378 255.725 50.776C256.451 51.2093 257.217 51.04 257.918 50.6466C259.227 49.9095 259.953 48.6544 260.531 47.3495C261.213 45.8106 261.796 44.2219 262.315 42.6182C262.582 41.7964 262.977 41.4876 263.896 41.7466C263.678 42.399 263.481 43.0614 263.229 43.7039C262.448 45.6961 261.821 47.7779 260.818 49.6455C259.287 52.4943 255.972 53.9137 252.825 53.3858C250.646 53.0222 249.164 51.1994 249.57 48.9283C249.999 46.5128 250.661 44.1272 251.402 41.7865C253.265 35.8947 255.241 30.0378 257.128 24.1509C257.419 23.2346 257.513 22.2435 257.602 21.2773C257.78 19.2702 256.535 18.8419 254.826 19.4843C252.85 20.2314 251.56 21.84 250.375 23.4886C247.623 27.3085 245.548 31.5119 243.849 35.8847C241.725 41.3482 239.773 46.8814 237.704 52.4893H231.978C232.61 50.3776 233.238 48.3008 233.86 46.219C236.083 38.8082 238.331 31.4074 240.505 23.9866C240.811 22.9407 240.885 21.7902 240.855 20.6946C240.826 19.6636 240.154 19.2054 239.136 19.2154C237.763 19.2303 236.701 19.9375 235.737 20.8091C233.381 22.9357 231.726 25.6052 230.239 28.3693C226.282 35.7154 223.61 43.5545 221.639 51.6526C221.471 52.3399 221.234 52.5789 220.517 52.554C218.932 52.4893 217.341 52.5341 215.646 52.5341C215.913 51.5331 216.15 50.6266 216.402 49.7202C218.838 40.9398 221.293 32.1594 223.699 23.369C223.936 22.5074 223.98 21.5661 223.946 20.6647C223.911 19.7732 223.462 19.4843 222.577 19.5541C220.799 19.6935 219.88 20.9784 219.208 22.3829C218.344 24.1808 217.662 26.0734 216.941 27.936C216.56 28.9172 216.6 28.9321 215.39 28.8375C216.338 26.2228 216.872 23.4637 218.393 21.1279C219.095 20.0521 220.038 19.066 221.066 18.304C222.469 17.2581 224.173 16.9194 225.927 17.1286C227.799 17.3477 228.935 18.4683 228.861 20.3708C228.792 22.1588 228.481 23.9567 228.1 25.7098C227.488 28.5387 226.727 31.3326 226.03 34.1366C226.065 34.1565 226.095 34.1814 226.129 34.2013L226.109 34.2113Z" fill="#D7D7D7"/>
<path d="M74.5399 52.5491C71.9266 52.5491 69.4319 52.5789 66.9372 52.5092C66.621 52.4993 66.2505 51.9962 66.0233 51.6426C63.4792 47.6733 60.9548 43.684 58.3465 39.5802C57.4474 40.9597 56.5829 42.2646 55.7382 43.5844C53.94 46.3933 52.1616 49.2072 50.3536 52.0062C50.1955 52.2502 49.8596 52.5242 49.6027 52.5291C47.1524 52.569 44.7071 52.554 42.0692 52.554C42.7262 51.5032 43.3091 50.5569 43.9118 49.6206C47.0635 44.7099 50.2152 39.7943 53.3867 34.8936C53.6535 34.4802 53.5695 34.2063 53.3275 33.8328C49.6817 28.1851 46.0508 22.5323 42.415 16.8746C42.3409 16.7601 42.2717 16.6356 42.1482 16.4264C42.4594 16.4015 42.6965 16.3716 42.9337 16.3716C45.0134 16.3716 47.0932 16.4065 49.1729 16.3517C49.8694 16.3318 50.2449 16.5907 50.6006 17.1485C52.9915 20.9187 55.4072 24.6689 57.813 28.4241C57.9661 28.6632 58.139 28.8873 58.3564 29.201C59.4926 27.428 60.5942 25.7148 61.6909 23.9966C63.2272 21.596 64.7488 19.1905 66.3049 16.8049C66.4432 16.5907 66.7791 16.3915 67.0311 16.3865C69.4813 16.3567 71.9316 16.3666 74.5399 16.3666C73.8829 17.4324 73.295 18.4185 72.6726 19.3797C69.5505 24.2107 66.4234 29.0367 63.2865 33.8577C63.0198 34.2711 63.0395 34.5699 63.3112 34.9833C66.1764 39.3959 69.0219 43.8284 71.8723 48.251C72.633 49.4313 73.3938 50.6017 74.1496 51.7871C74.283 51.9913 74.3769 52.2204 74.5448 52.5441L74.5399 52.5491Z" fill="#D7D7D7"/>
<path d="M78.6203 52.4843V16.4065H99.976V22.7365H85.2992V30.9591H98.7015V37.3041H85.2992V46.1443H100.263V52.4793H78.6253L78.6203 52.4843Z" fill="#D7D7D7"/>
<path d="M0 16.5359C4.98941 16.5359 9.93437 16.2321 14.8299 16.6206C20.0416 17.029 24.0776 21.7454 24.6112 26.9848C25.3126 33.8428 19.9626 39.9437 13.2392 39.9985C11.362 40.0134 9.47989 40.0334 7.60268 40.0483C7.2964 40.0483 6.99012 40.0483 6.58504 40.0483V52.4893H0V16.5359ZM6.6542 22.9058V33.5987C8.60551 33.5987 10.4827 33.5987 12.3599 33.5987C12.6464 33.5987 12.928 33.5987 13.2145 33.5688C16.1094 33.3198 18.1496 31.248 18.3077 28.3992C18.451 25.8493 16.6231 23.2495 14.0642 22.9656C11.6288 22.6917 9.13903 22.9058 6.6542 22.9058Z" fill="#D7D7D7"/>
<path d="M203.138 21.7006C203.4 20.6597 203.627 19.6039 203.939 18.5779C204.013 18.3239 204.334 18.0052 204.576 17.9703C206.389 17.7163 208.212 17.5221 210.094 17.3079C209.684 18.802 209.259 20.3957 208.814 21.9795C206.512 30.2021 204.2 38.4247 201.903 46.6473C201.696 47.3894 201.528 48.1514 201.424 48.9134C201.197 50.5868 202.18 51.3488 203.756 50.7362C204.936 50.278 205.747 49.3616 206.236 48.256C207.076 46.3535 207.831 44.4061 208.513 42.4339C208.79 41.6271 209.18 41.4926 210.035 41.7516C209.299 43.8135 208.602 45.8604 207.836 47.8775C207.239 49.4513 206.265 50.786 204.971 51.8667C203.42 53.1616 201.622 53.6647 199.646 53.3758C197.526 53.067 196.188 51.2492 196.558 48.9034C196.949 46.4481 197.601 44.0326 198.144 41.5972C198.272 41.0195 198.426 40.4467 198.495 39.8491C197.857 41.154 197.26 42.4837 196.578 43.7637C195.121 46.4929 193.486 49.1026 191.104 51.1297C189.41 52.574 187.469 53.4555 185.206 53.4704C182.647 53.4903 180.73 52.066 179.792 49.5359C178.848 47.0009 178.932 44.3962 179.382 41.8163C180.587 34.9335 183.492 28.8076 187.889 23.4288C189.855 21.0233 192.132 18.9166 195.096 17.8159C196.222 17.3976 197.462 17.1485 198.663 17.0888C200.733 16.9842 202.402 18.6426 202.842 20.9984C202.881 21.2225 202.901 21.4516 202.931 21.6757C203 21.6807 203.069 21.6857 203.138 21.6906V21.7006ZM184.791 45.8504C184.974 47.1204 185.053 48.4153 185.359 49.6505C185.725 51.1247 186.856 51.6775 188.249 51.1197C188.946 50.8408 189.622 50.4175 190.2 49.9344C192.295 48.1713 193.821 45.9252 195.219 43.5943C198.179 38.6638 200.253 33.3597 201.642 27.7667C202.224 25.416 202.511 23.1001 201.676 20.7593C200.945 18.7124 199.122 17.8508 197.102 18.6377C195.338 19.325 194.093 20.6846 192.977 22.1389C190.324 25.5903 188.546 29.5098 187.182 33.6236C185.868 37.583 184.969 41.6271 184.791 45.8504Z" fill="#D7D7D7"/>
<path d="M154.099 19.31C151.812 19.31 149.559 19.3499 147.316 19.2901C146.521 19.2702 146.195 19.4993 145.987 20.2862C142.233 34.5101 138.434 48.7191 134.694 62.9431C134.433 63.9392 134.047 64.3177 133.03 64.3824C131.503 64.4771 129.992 64.7709 128.361 65C132.392 49.8597 136.433 34.6546 140.509 19.3449H134.591C134.663 18.4584 135.088 18.0135 135.865 18.0101C137.288 18.0101 138.716 17.9852 140.138 18.0201C140.701 18.035 140.919 17.8408 141.057 17.293C141.932 13.8366 143.063 10.4748 144.713 7.30233C147.247 2.4365 151.901 -0.377416 156.92 0.0409361C159.192 0.23019 161.168 0.987208 162.052 3.36783C162.675 5.0512 162.166 6.54531 161.094 7.84519C159.997 9.17495 158.53 9.6182 156.865 9.24965C155.68 8.99067 155.112 8.13903 155.21 6.9039C155.363 4.95159 156.455 3.70151 158.169 2.92457C158.421 2.81003 158.678 2.70544 158.965 2.58591C158.802 1.68446 158.125 1.43046 157.453 1.21631C155.225 0.509092 152.671 1.48525 151.263 3.74634C150.512 4.94661 149.885 6.27139 149.47 7.62605C148.438 10.9928 147.558 14.4093 146.575 17.9554H154.519C154.351 18.4932 154.232 18.8817 154.099 19.305V19.31Z" fill="#D7D7D7"/>
<path d="M127.601 52.4793H105.855V16.4164H112.415V46.1443H127.601V52.4793Z" fill="#D7D7D7"/>
<path d="M289.198 43.9977C289.559 44.177 289.885 44.3364 290.246 44.5157C288.023 48.1514 285.177 51.0699 281.225 52.6188C277.905 53.9236 274.541 53.9834 271.444 51.8867C269.305 50.4424 268.46 48.2211 268.188 45.7359C267.754 41.7665 268.791 38.0462 270.239 34.4354C272.022 29.9879 274.522 25.9738 277.955 22.617C280.667 19.9624 283.769 17.9305 287.588 17.293C289.016 17.0539 290.463 16.8896 291.896 17.3428C294.064 18.0251 295.126 19.5939 294.988 21.8799C294.855 24.0165 294.015 25.8443 292.696 27.4928C290.853 29.7887 288.492 31.4173 285.997 32.8766C282.673 34.8189 279.121 36.2632 275.505 37.5531C275.307 37.6229 275.055 37.842 275.016 38.0313C274.403 40.9348 273.993 43.8732 274.591 46.8216C275.248 50.0738 277.574 51.294 281.092 50.3776C284.283 49.5459 286.605 47.5239 288.512 44.9191C288.729 44.6253 288.946 44.3314 289.198 44.0027V43.9977ZM275.386 36.4724C277.278 35.7004 278.968 34.9733 280.687 34.3159C286.555 32.0648 290.167 26.2776 289.608 19.9774C289.465 18.3687 288.996 18.0749 287.425 18.548C285.582 19.1058 284.12 20.2712 282.989 21.7504C281.423 23.8023 279.921 25.924 278.622 28.1552C277.16 30.6653 276.117 33.3895 275.391 36.4774L275.386 36.4724Z" fill="#D7D7D7"/>
<path d="M177.287 18.9365C176.23 18.563 175.385 18.8568 174.61 19.3299C172.975 20.331 171.779 21.7952 170.732 23.369C168.257 27.0993 166.449 31.1733 164.838 35.3319C162.729 40.7854 160.891 46.3236 159.587 52.0361C159.558 52.1755 159.498 52.31 159.439 52.4943H153.689C154.454 49.7451 155.205 47.0457 155.951 44.3414C157.917 37.2444 159.884 30.1423 161.84 23.0453C161.978 22.5522 162.072 22.0393 162.121 21.5263C162.289 19.8031 161.203 18.9714 159.701 19.823C158.856 20.3061 158.011 21.0781 157.572 21.9347C156.569 23.882 155.764 25.9339 154.988 27.9908C154.701 28.7528 154.405 29.1214 153.57 28.8275C153.565 28.8176 153.506 28.7628 153.516 28.7279C154.415 25.9588 155.102 23.1001 156.727 20.6248C158.456 17.9952 161.672 16.6007 164.458 17.2183C165.836 17.5221 166.73 18.3787 166.79 19.7981C166.844 21.1577 166.805 22.5672 166.523 23.892C165.821 27.1989 164.962 30.471 164.167 33.7581C164.142 33.8627 164.127 33.9723 164.058 34.3159C165.016 32.0199 165.836 29.9282 166.76 27.8812C168.133 24.8233 169.68 21.855 172.115 19.4843C173.597 18.045 175.361 17.1983 177.44 17.0838C181.027 16.8846 182.277 19.9824 181.378 22.5423C180.706 24.4547 178.848 25.7247 176.843 25.6899C175.207 25.665 174.21 24.5195 174.378 22.8909C174.541 21.2822 175.37 20.1318 176.709 19.31C176.872 19.2104 177.03 19.1108 177.292 18.9415L177.287 18.9365Z" fill="#D7D7D7"/>
<path d="M30.1785 16.4015H36.7241V52.4793H30.1785V16.4015Z" fill="#D7D7D7"/>
</svg>
