<svg width="284" height="39" viewBox="0 0 284 39" fill="none" xmlns="http://www.w3.org/2000/svg">
<path d="M64.5546 32.734C64.5546 35.1374 65.6839 36.337 67.9927 36.4944L69.3771 36.5965V38.3704H51.2078V36.5965L52.5965 36.4944C54.9053 36.337 56.0346 35.1374 56.0346 32.734V7.46564C56.0346 5.06217 54.9053 3.86257 52.5965 3.70517L51.2078 3.60308V1.82919H71.9453C79.9006 1.82919 84.8779 5.74705 84.8779 11.5919C84.8779 17.858 79.7459 22.2948 71.9955 22.2948H62.9652V23.4434H64.5546V32.7382V32.734ZM68.4026 20.1508C73.2795 20.1508 76.2032 16.8626 76.2032 11.7961C76.2032 7.0998 73.4845 4.27945 68.4026 4.27945H62.961V5.42801H64.5504V20.1508H68.4026Z" fill="#D7D7D7"/>
<path d="M87.7054 3.49673L86.116 2.71401L97.614 0V33.4103C97.614 35.4437 98.3836 36.5412 99.9772 36.6476L101.316 36.7539V38.3704H86.735V36.7539L88.0693 36.6476C89.6587 36.5455 90.4325 35.448 90.4325 33.4103V6.94241C90.4325 5.27061 89.9682 4.64529 87.7096 3.49673H87.7054Z" fill="#D7D7D7"/>
<path d="M121.175 33.1508V31.3259L119.636 33.4146C117.122 36.8092 114.453 38.949 110.605 38.949C106.343 38.949 103.88 36.7539 103.88 32.8403C103.88 28.9267 107.268 27.357 111.63 25.8979L119.23 23.3413V20.002C119.23 17.0795 117.791 14.9355 114.562 14.9355C111.333 14.9355 110.145 16.3989 110.145 18.0154H111.375C111.839 21.2526 110.35 22.9244 108.246 22.9244C106.142 22.9244 104.909 21.359 104.909 19.4234C104.909 15.3524 109.58 12.1152 115.896 12.1152C123.082 12.1152 126.37 15.4545 126.37 21.2526V33.1041C126.37 34.4611 127.189 35.2438 128.319 35.2438C128.887 35.2438 129.603 35.1417 130.322 34.4611L130.477 34.5674C129.243 37.4899 126.524 38.8469 124.161 38.8469C121.388 38.8469 119.744 37.7493 119.385 35.5075L121.183 33.1594L121.175 33.1508ZM114.194 34.8226C116.143 34.8226 117.992 33.7251 119.226 31.8449V25.2683L114.759 26.8338C111.885 27.8249 110.701 29.1819 110.701 31.3259C110.701 33.4699 111.935 34.8226 114.194 34.8226Z" fill="#D7D7D7"/>
<path d="M144.221 38.9957C137.445 38.9957 132.213 33.5677 132.213 26.1531C132.213 18.7385 137.449 12.0046 145.869 12.0046C150.691 12.0046 155.263 14.7186 155.263 19.1554C155.263 21.0867 153.929 22.6564 151.98 22.6564C149.516 22.6564 148.182 20.6188 148.797 17.7474H150.081C149.926 15.9735 148.797 14.5101 146.024 14.5101C142.326 14.5101 139.863 18.0579 139.863 24.5324C139.863 30.5347 142.431 34.661 147.563 34.661C150.796 34.661 152.795 33.0402 154.079 31.0069L154.439 31.1643C152.745 35.9669 148.688 38.9957 144.225 38.9957H144.221Z" fill="#D7D7D7"/>
<path d="M163.06 24.3282V25.4257H165.113C165.473 30.9601 168.346 34.6695 173.583 34.6695C176.151 34.6695 178.719 33.623 180.309 30.7006L180.719 30.909C178.97 35.9202 174.762 39 170.245 39C162.855 39 157.463 33.4146 157.463 25.7916C157.463 18.1685 162.75 12.0599 170.45 12.0599C177.176 12.0599 181.589 17.2794 181.384 24.3282H163.055H163.06ZM165.113 22.2906H175.227C175.227 18.0111 173.278 14.6675 170.245 14.6675C167.213 14.6675 165.473 17.9558 165.113 22.2906Z" fill="#D7D7D7"/>
<path d="M205.208 24.1708L198.482 38.6852H195.968L186.474 17.8027C185.549 15.714 184.73 14.6207 183.036 14.1996V12.6342H196.587V14.2507L195.818 14.357C194.329 14.5654 193.714 16.0288 194.484 17.7474L199.156 28.1908L198.231 30.2241L198.997 31.6322L203.823 20.9293L202.489 17.7984C201.565 15.5013 200.335 14.3527 199.306 14.1954V12.6299H212.394V14.2464L211.624 14.3527C210.135 14.5612 209.574 15.9692 210.29 17.7431L214.552 28.1312L213.627 30.0115L214.343 31.3685L220.349 19.2022C221.788 16.2798 220.968 14.7143 218.191 14.3485L217.425 14.2421V12.6257H227.539V14.1911C225.895 14.659 224.766 16.0203 223.687 18.2111L213.832 38.6767H211.319L205.212 24.1623L205.208 24.1708Z" fill="#D7D7D7"/>
<path d="M233.34 24.3282V25.4257H235.39C235.749 30.9601 238.623 34.6695 243.859 34.6695C246.423 34.6695 248.991 33.623 250.585 30.7006L250.995 30.909C249.251 35.9202 245.043 39 240.526 39C233.131 39 227.744 33.4146 227.744 25.7916C227.744 18.1685 233.035 12.0599 240.731 12.0599C247.456 12.0599 251.869 17.2794 251.664 24.3282H233.34ZM235.39 22.2906H245.503C245.503 18.0111 243.554 14.6675 240.526 14.6675C237.498 14.6675 235.749 17.9558 235.39 22.2906Z" fill="#D7D7D7"/>
<path d="M253.868 3.49673L252.279 2.71401L263.777 0V33.4103C263.777 35.4437 264.547 36.5412 266.14 36.6476L267.479 36.7539V38.3704H252.898V36.7539L254.232 36.6476C255.822 36.5455 256.595 35.448 256.595 33.4103V6.94241C256.595 5.27061 256.131 4.64529 253.873 3.49673H253.868Z" fill="#D7D7D7"/>
<path d="M270.398 3.49673L268.805 2.71401L280.303 0V33.4103C280.303 35.4437 281.072 36.5412 282.666 36.6476L284 36.7539V38.3704H269.419V36.7539L270.754 36.6476C272.343 36.5455 273.117 35.448 273.117 33.4103V6.94241C273.117 5.27061 272.657 4.64529 270.398 3.49673Z" fill="#D7D7D7"/>
<path d="M17.9685 3.65838C26.8817 3.65838 34.1302 11.0347 34.1302 20.0998C34.1302 29.1649 27.0448 36.3711 18.2697 36.5327V38.3704H35.9371V1.82493H0V19.7978H1.80689C1.96583 10.873 9.15576 3.65838 17.9685 3.65838Z" fill="#D7D7D7"/>
<path d="M6.40359 38.3704C9.93789 38.3704 12.803 35.4565 12.803 31.8619C12.803 28.2674 9.93789 25.3534 6.40359 25.3534C2.8693 25.3534 0.00418272 28.2674 0.00418272 31.8619C0.00418272 35.4565 2.8693 38.3704 6.40359 38.3704Z" fill="#D7D7D7"/>
</svg>
