<svg width="270" height="60" viewBox="0 0 270 60" fill="none" xmlns="http://www.w3.org/2000/svg">
<path d="M265.24 48.2504V50.1504L267 49.6204V49.3404C267 48.5904 266.9 48.0204 266.71 47.6004C266.51 47.1804 266.2 46.8904 265.78 46.7204C265.36 46.5504 264.8 46.4704 264.12 46.4804H257.58C256.85 46.4804 256.28 46.5604 255.87 46.7404C255.45 46.9204 255.16 47.2304 254.98 47.6804C254.81 48.1304 254.72 48.7604 254.73 49.5604V50.7004C254.73 51.5004 254.81 52.1304 254.98 52.5804C255.15 53.0304 255.45 53.3404 255.87 53.5204C256.29 53.7004 256.86 53.7904 257.58 53.7804H265.29V57.7004H256.16V55.6004L254.26 56.0804V56.4304C254.26 57.2204 254.34 57.8504 254.51 58.3004C254.68 58.7504 254.99 59.0704 255.41 59.2504C255.83 59.4304 256.4 59.5204 257.14 59.5204H264.3C265.03 59.5204 265.61 59.4404 266.02 59.2504C266.44 59.0604 266.73 58.7504 266.9 58.3004C267.07 57.8504 267.16 57.2204 267.15 56.4304V54.9604C267.15 54.1804 267.07 53.5604 266.91 53.1104C266.74 52.6604 266.45 52.3404 266.03 52.1504C265.61 51.9604 265.04 51.8704 264.3 51.8704H256.57V48.2304H265.25L265.24 48.2504ZM237.98 59.5404H249.9V57.7404H240.03V53.5904H246V51.8704H240.03V48.2304H249.8V46.4804H237.98V59.5404ZM230.53 48.2504V51.2104L232.58 50.8104V49.5704C232.58 48.7704 232.5 48.1404 232.33 47.6904C232.16 47.2404 231.87 46.9304 231.45 46.7504C231.03 46.5704 230.46 46.4804 229.73 46.4904H222.86C222.13 46.4904 221.55 46.5704 221.13 46.7604C220.71 46.9504 220.41 47.2604 220.23 47.7104C220.06 48.1604 219.97 48.7804 219.98 49.5804V56.4604C219.98 57.2504 220.06 57.8804 220.23 58.3304C220.4 58.7804 220.71 59.1004 221.13 59.2804C221.55 59.4604 222.13 59.5504 222.86 59.5504H229.73C230.46 59.5504 231.04 59.4704 231.45 59.2904C231.87 59.1104 232.16 58.8004 232.33 58.3504C232.5 57.9004 232.59 57.2704 232.58 56.4704V54.9304L230.53 54.4704V57.7304H222.02V48.2704H230.53V48.2504ZM211.72 59.5404H213.77V46.4904H211.72V59.5404ZM199.62 59.5404H201.33L207.75 46.4904H205.73L200.55 57.3704L195.13 46.4904H192.92L199.63 59.5404H199.62ZM186.27 48.1804C186.57 48.1804 186.82 48.2104 187.02 48.2904C187.21 48.3704 187.36 48.5004 187.46 48.6904C187.56 48.8804 187.6 49.1604 187.6 49.5204V51.4204C187.6 51.7904 187.55 52.0704 187.46 52.2604C187.36 52.4504 187.21 52.5804 187.02 52.6604C186.82 52.7304 186.57 52.7704 186.27 52.7604H179.23V48.1804H186.27ZM177.19 59.5404H179.24V54.4504H182.85L187.84 59.5404H190.88L185.27 54.4504H187.08C187.67 54.4504 188.16 54.3704 188.55 54.2004C188.93 54.0304 189.22 53.7604 189.4 53.3904C189.58 53.0104 189.67 52.5304 189.67 51.9204V49.0104C189.67 48.4004 189.58 47.9204 189.4 47.5404C189.21 47.1704 188.93 46.9004 188.55 46.7304C188.17 46.5604 187.68 46.4704 187.08 46.4804H177.19V59.5404ZM160.4 59.5404H172.32V57.7404H162.45V53.5904H168.42V51.8704H162.45V48.2304H172.22V46.4804H160.4V59.5404ZM152.29 48.2504V50.1504L154.05 49.6204V49.3404C154.05 48.5904 153.95 48.0204 153.76 47.6004C153.56 47.1804 153.25 46.8904 152.83 46.7204C152.41 46.5504 151.85 46.4704 151.17 46.4804H144.63C143.9 46.4804 143.33 46.5604 142.92 46.7404C142.5 46.9204 142.21 47.2304 142.03 47.6804C141.86 48.1304 141.77 48.7604 141.78 49.5604V50.7004C141.78 51.5004 141.86 52.1304 142.03 52.5804C142.2 53.0304 142.5 53.3404 142.92 53.5204C143.34 53.7004 143.91 53.7904 144.63 53.7804H152.34V57.7004H143.21V55.6004L141.31 56.0804V56.4304C141.31 57.2204 141.39 57.8504 141.56 58.3004C141.73 58.7504 142.04 59.0704 142.46 59.2504C142.88 59.4304 143.45 59.5204 144.19 59.5204H151.35C152.08 59.5204 152.66 59.4404 153.07 59.2504C153.49 59.0604 153.78 58.7504 153.95 58.3004C154.12 57.8504 154.21 57.2204 154.2 56.4304V54.9604C154.2 54.1804 154.12 53.5604 153.96 53.1104C153.79 52.6604 153.5 52.3404 153.08 52.1504C152.66 51.9604 152.09 51.8704 151.35 51.8704H143.62V48.2304H152.3L152.29 48.2504ZM124.98 50.1704L127.03 49.7404V49.4104C127.03 48.6504 126.94 48.0504 126.76 47.6304C126.57 47.2004 126.26 46.9004 125.84 46.7304C125.42 46.5604 124.85 46.4704 124.15 46.4804H116.21C115.48 46.4804 114.91 46.5604 114.49 46.7404C114.07 46.9204 113.77 47.2304 113.59 47.6804C113.41 48.1304 113.32 48.7604 113.33 49.5604V56.4404C113.33 57.2404 113.41 57.8704 113.59 58.3204C113.77 58.7704 114.07 59.0804 114.49 59.2604C114.91 59.4404 115.49 59.5304 116.21 59.5204H124.15C124.88 59.5204 125.46 59.4404 125.88 59.2504C126.3 59.0604 126.6 58.7504 126.78 58.3004C126.95 57.8504 127.04 57.2204 127.03 56.4304V52.2104H120.01V53.8804H124.98V57.7004H115.37V48.2404H124.98V50.1704ZM93.57 59.5404H95.45V51.8504C95.45 51.3704 95.45 50.8904 95.42 50.4204C95.4 49.9504 95.36 49.4704 95.3 48.9904C95.51 49.3504 95.72 49.6404 95.93 49.8704C96.15 50.0904 96.35 50.2904 96.53 50.4604L105.97 59.5404H107.11V46.4904H105.23V53.6504C105.23 54.1204 105.23 54.6204 105.25 55.1504C105.27 55.6904 105.33 56.2504 105.42 56.8604C105.17 56.5204 104.93 56.2104 104.69 55.9304C104.46 55.6604 104.23 55.4204 104.02 55.2104L94.84 46.4804H93.56V59.5304L93.57 59.5404ZM85.15 59.5404H87.2V46.4904H85.15V59.5404ZM76.06 48.2504H81.7V46.4804H68.41V48.2504H74.02V59.5304H76.07V48.2504H76.06ZM63.19 48.2504V50.1504L64.95 49.6204V49.3404C64.95 48.5904 64.85 48.0204 64.66 47.6004C64.46 47.1804 64.15 46.8904 63.73 46.7204C63.31 46.5504 62.75 46.4704 62.07 46.4804H55.53C54.8 46.4804 54.23 46.5604 53.82 46.7404C53.4 46.9204 53.11 47.2304 52.93 47.6804C52.76 48.1304 52.67 48.7604 52.68 49.5604V50.7004C52.68 51.5004 52.76 52.1304 52.93 52.5804C53.1 53.0304 53.4 53.3404 53.82 53.5204C54.24 53.7004 54.81 53.7904 55.53 53.7804H63.24V57.7004H54.11V55.6004L52.21 56.0804V56.4304C52.21 57.2204 52.29 57.8504 52.46 58.3004C52.63 58.7504 52.94 59.0704 53.36 59.2504C53.78 59.4304 54.35 59.5204 55.09 59.5204H62.25C62.98 59.5204 63.56 59.4404 63.97 59.2504C64.39 59.0604 64.68 58.7504 64.85 58.3004C65.02 57.8504 65.11 57.2204 65.1 56.4304V54.9604C65.1 54.1804 65.02 53.5604 64.86 53.1104C64.69 52.6604 64.4 52.3404 63.98 52.1504C63.56 51.9604 62.99 51.8704 62.25 51.8704H54.52V48.2304H63.2L63.19 48.2504ZM37.48 54.6604L40.79 47.9804L44.1 54.6604H37.48ZM35.06 59.5404L36.63 56.3304H44.93L46.5 59.5404H48.76L41.93 46.4904H39.74L33.03 59.5404H35.06ZM30.8 59.5404V57.7204H21.5V46.4904H19.45V59.5404H30.8ZM11.73 56.2004C11.73 56.5904 11.69 56.9004 11.61 57.1304C11.52 57.3604 11.38 57.5204 11.18 57.6104C10.98 57.7004 10.72 57.7504 10.38 57.7504H3.28V53.5504H10.37C10.7 53.5504 10.97 53.5904 11.17 53.6804C11.37 53.7804 11.51 53.9404 11.6 54.1604C11.69 54.3904 11.73 54.7104 11.73 55.1104V56.2004ZM11.63 50.6804C11.63 50.9804 11.59 51.2204 11.5 51.3904C11.41 51.5604 11.27 51.6804 11.09 51.7404C10.9 51.8104 10.67 51.8504 10.37 51.8404H3.28V48.2204H10.37C10.66 48.2204 10.9 48.2504 11.09 48.3104C11.28 48.3704 11.42 48.4804 11.5 48.6504C11.59 48.8104 11.63 49.0504 11.63 49.3604V50.6804ZM1.24 59.5404H10.4C11.53 59.5404 12.38 59.3304 12.95 58.9204C13.52 58.5004 13.8 57.8604 13.8 56.9904V55.3204C13.8 54.5704 13.62 53.9804 13.26 53.5504C12.9 53.1204 12.38 52.8504 11.68 52.7704C12.25 52.6904 12.68 52.5504 12.97 52.3304C13.27 52.1204 13.47 51.8604 13.57 51.5504C13.68 51.2404 13.73 50.9004 13.72 50.5404V49.0204C13.72 48.4104 13.63 47.9304 13.45 47.5504C13.26 47.1804 12.98 46.9104 12.6 46.7404C12.22 46.5704 11.73 46.4804 11.13 46.4904H1.24V59.5404Z" fill="#D7D7D7"/>
<path d="M269.13 36.8904H0V38.1104H269.13V36.8904Z" fill="#D7D7D7"/>
<path d="M235.23 26.5804H239.93V8.74042L250.74 23.3804H251.87L262.57 8.30042V26.5904H268V0.000416881H263.3L251.64 15.7704L239.93 0.000416881H235.23V26.5804ZM203.02 0.000416881H197.19V20.3004C197.19 21.9404 197.37 23.2204 197.75 24.1304C198.14 25.0504 198.78 25.6904 199.69 26.0604C200.61 26.4304 201.84 26.5904 203.42 26.5804H219.27C220.85 26.5904 222.09 26.4204 223.01 26.0604C223.92 25.6904 224.59 25.0504 224.97 24.1304C225.37 23.2204 225.55 21.9404 225.55 20.3004V0.000416881H219.66V21.6204H203.02V0.000416881ZM157.84 26.5804H163.16V8.67042L183.42 26.5804H187.44V0.000416881H182.18V17.6604L161.86 0.000416881H157.84V26.5804ZM142.33 26.5804H148.16V0.000416881H142.33V26.5804ZM121.89 4.78042H133.49V0.000416881H104.51V4.78042H116.06V26.5904H121.89V4.78042ZM67.04 26.5804H72.87L75.87 20.7404H91.72L94.72 26.5804H101.29L86.85 0.000416881H81.25L67.04 26.5804ZM78.36 15.9004L83.74 4.84042L89.34 15.9004H78.36ZM35.84 26.5804H60.52V21.6204H41.73V0.000416881H35.84V26.5804ZM1.26 26.5804H7.03V16.2104H22.82C24.73 16.2304 26.15 15.8304 27.06 15.0304C27.98 14.2204 28.43 12.8904 28.42 11.0604V5.15042C28.42 3.90042 28.22 2.90042 27.83 2.13042C27.42 1.38042 26.81 0.830417 25.98 0.500417C25.16 0.160417 24.1 -0.00958312 22.82 0.000416881H1.26V26.5804ZM20.33 4.59042C20.91 4.58042 21.41 4.63042 21.8 4.75042C22.2 4.87042 22.49 5.09042 22.69 5.39042C22.9 5.70042 22.99 6.14042 22.99 6.73042V9.50042C22.99 10.0804 22.9 10.5304 22.69 10.8404C22.49 11.1404 22.2 11.3504 21.8 11.4704C21.4 11.5904 20.91 11.6504 20.33 11.6404H7.03V4.60042H20.33V4.59042Z" fill="#D7D7D7"/>
<path d="M235.23 26.5804H239.93V8.74042L250.74 23.3804H251.87L262.57 8.30042V26.5904H268V0.000416881H263.3L251.64 15.7704L239.93 0.000416881H235.23V26.5804ZM203.02 0.000416881H197.19V20.3004C197.19 21.9404 197.37 23.2204 197.75 24.1304C198.14 25.0504 198.78 25.6904 199.69 26.0604C200.61 26.4304 201.84 26.5904 203.42 26.5804H219.27C220.85 26.5904 222.09 26.4204 223.01 26.0604C223.92 25.6904 224.59 25.0504 224.97 24.1304C225.37 23.2204 225.55 21.9404 225.55 20.3004V0.000416881H219.66V21.6204H203.02V0.000416881ZM157.84 26.5804H163.16V8.67042L183.42 26.5804H187.44V0.000416881H182.18V17.6604L161.86 0.000416881H157.84V26.5804ZM142.33 26.5804H148.16V0.000416881H142.33V26.5804ZM121.89 4.78042H133.49V0.000416881H104.51V4.78042H116.06V26.5904H121.89V4.78042ZM67.04 26.5804H72.87L75.87 20.7404H91.72L94.72 26.5804H101.29L86.85 0.000416881H81.25L67.04 26.5804ZM78.36 15.9004L83.74 4.84042L89.34 15.9004H78.36ZM35.84 26.5804H60.52V21.6204H41.73V0.000416881H35.84V26.5804ZM1.26 26.5804H7.03V16.2104H22.82C24.73 16.2304 26.15 15.8304 27.06 15.0304C27.98 14.2204 28.43 12.8904 28.42 11.0604V5.15042C28.42 3.90042 28.22 2.90042 27.83 2.13042C27.42 1.38042 26.81 0.830417 25.98 0.500417C25.16 0.160417 24.1 -0.00958312 22.82 0.000416881H1.26V26.5804ZM20.33 4.59042C20.91 4.58042 21.41 4.63042 21.8 4.75042C22.2 4.87042 22.49 5.09042 22.69 5.39042C22.9 5.70042 22.99 6.14042 22.99 6.73042V9.50042C22.99 10.0804 22.9 10.5304 22.69 10.8404C22.49 11.1404 22.2 11.3504 21.8 11.4704C21.4 11.5904 20.91 11.6504 20.33 11.6404H7.03V4.60042H20.33V4.59042Z" fill="#D7D7D7"/>
</svg>
