<svg width="213" height="104" viewBox="0 0 213 104" fill="none" xmlns="http://www.w3.org/2000/svg">
<path d="M22.2765 26.4961L18.4523 22.2812L19.7518 21.0186L23.7801 25.4377C25.1122 24.2314 26.1659 22.7496 26.8679 21.0951C27.57 19.4407 27.9036 17.6532 27.8456 15.8568V15.5597C27.8456 8.93105 23.4274 3.71353 16.7073 3.71353C9.98728 3.71353 5.56911 8.85677 5.56911 15.6897V15.9868C5.56911 22.9125 10.3957 27.9629 16.7073 27.9629C18.6632 27.9955 20.5902 27.4879 22.2765 26.4961ZM23.5388 27.8701C21.527 29.0982 19.2127 29.7412 16.8558 29.7268C15.0676 29.7356 13.296 29.3824 11.6478 28.6884C9.99962 27.9943 8.50888 26.9739 7.26535 25.6885C6.02181 24.403 5.0512 22.8792 4.41195 21.2087C3.7727 19.5382 3.47802 17.7556 3.54567 15.9682V15.6711C3.47902 13.8921 3.7718 12.1179 4.40648 10.4547C5.04116 8.79143 6.00471 7.27331 7.23949 5.99113C8.47427 4.70894 9.95492 3.68901 11.5929 2.99237C13.2308 2.29572 14.9924 1.93666 16.7723 1.93666C18.5522 1.93666 20.3138 2.29572 21.9518 2.99237C23.5897 3.68901 25.0704 4.70894 26.3051 5.99113C27.5399 7.27331 28.5035 8.79143 29.1381 10.4547C29.7728 12.1179 30.0656 13.8921 29.999 15.6711V15.9682C30.0373 18.0495 29.6106 20.1131 28.7499 22.0083C27.8892 23.9036 26.6162 25.5827 25.0239 26.9231L28.3654 30.4881L27.0659 31.7507L23.5388 27.8701Z" fill="#D7D7D7"/>
<path d="M34.6028 22.0955V9.50664H36.6262V21.9841C36.6262 26.199 38.594 27.9443 42.0654 27.9443C42.9162 27.9827 43.7659 27.8458 44.5617 27.5422C45.3574 27.2386 46.0824 26.7747 46.6916 26.1793C47.3008 25.584 47.7812 24.8698 48.103 24.0811C48.4249 23.2923 48.5813 22.4459 48.5627 21.5942V9.50664H50.5861V29.3926H48.5441V25.6791C47.8945 26.9455 46.8948 27.9985 45.6639 28.7129C44.433 29.4272 43.0229 29.7727 41.6013 29.7083C37.4987 29.7083 34.6028 27.573 34.6028 22.0955Z" fill="#D7D7D7"/>
<path d="M70.5421 17.9921C70.3565 13.1645 67.8132 10.9178 63.9334 10.9178C60.0536 10.9178 57.3619 13.6658 56.972 17.9921H70.5421ZM54.8001 19.6632V19.3661C54.8001 13.3687 58.5128 9.20956 63.9149 9.20956C68.6857 9.28383 72.5841 12.3289 72.5841 18.9019V19.626H56.8421C56.8421 24.9549 59.4596 27.9815 64.1747 27.9815C67.4791 27.9815 69.7439 26.6075 70.4122 23.8409H72.3985C71.5631 27.5544 68.4073 29.6897 64.1562 29.6897C58.42 29.6897 54.7258 25.6234 54.7258 19.6446" fill="#D7D7D7"/>
<path d="M91.2406 17.9921C91.055 13.1645 88.5118 10.9178 84.632 10.9178C80.7521 10.9178 77.9676 13.6472 77.6706 17.9921H91.2406ZM75.4986 19.6632V19.3661C75.4986 13.3687 79.2114 9.20956 84.6134 9.20956C89.4028 9.20956 93.3198 12.3289 93.3198 18.9019V19.626H77.5963C77.5963 24.9549 80.2138 27.9815 84.929 27.9815C88.2333 27.9815 90.4981 26.6075 91.1664 23.8409H93.1898C92.3545 27.6472 89.1058 29.7083 84.929 29.7083C79.1928 29.7083 75.4986 25.6419 75.4986 19.6632Z" fill="#D7D7D7"/>
<path d="M97.5709 9.50664H99.5757V13.3873C100.221 12.0921 101.231 11.0137 102.481 10.2847C103.731 9.55568 105.166 9.20781 106.611 9.28383C110.825 9.28383 113.684 11.5677 113.684 17.2308V29.4669H111.679V17.0265C111.679 12.8117 109.712 10.9364 106.11 10.9364C105.252 10.8955 104.395 11.0314 103.591 11.3355C102.788 11.6396 102.055 12.1055 101.439 12.7043C100.823 13.3031 100.337 14.0221 100.01 14.8167C99.6827 15.6113 99.5224 16.4645 99.5386 17.3236V29.374H97.5709V9.50664Z" fill="#D7D7D7"/>
<path d="M118.251 23.451H120.107C120.46 26.1433 122.131 28.0186 125.806 28.0186C129.148 28.0186 130.856 26.4961 130.856 24.1008C130.856 21.7056 129.371 20.7586 125.658 20.0716C120.794 19.199 118.826 17.9364 118.826 14.5013C118.826 11.0663 122.094 9.28383 125.435 9.28383C128.776 9.28383 131.821 10.7692 132.359 14.687H130.503C130.002 12.1433 128.368 10.9735 125.491 10.9735C122.613 10.9735 120.85 12.3846 120.85 14.5013C120.85 16.6181 122.131 17.565 126.233 18.2891C130.336 19.0133 132.916 20.1459 132.916 23.9523C132.916 27.2945 130.447 29.7268 125.936 29.7268C121.425 29.7268 118.511 27.2573 118.288 23.451" fill="#D7D7D7"/>
<path d="M140.527 0H138.467V29.374H140.527V0Z" fill="#D7D7D7"/>
<path d="M158.126 22.9682V19.5889H154.079C149.939 19.5889 146.653 20.4616 146.653 24.0266C146.653 26.5703 148.25 28.0557 151.517 28.0557C155.23 28.0557 158.089 25.9205 158.089 22.9682M144.63 24.0266C144.63 19.4218 149.048 18.0292 153.912 18.0292H158.051V16.1724C158.051 12.4589 156.529 10.8435 153.039 10.8435C150.032 10.8435 147.897 12.1432 147.47 15.0584H145.558C146.022 10.9549 149.438 9.28383 153.188 9.28383C157.346 9.28383 160.149 11.1406 160.149 16.2281V29.374H158.126V26.3475C157.406 27.4548 156.403 28.35 155.222 28.9407C154.041 29.5315 152.723 29.7964 151.406 29.7083C147.489 29.7083 144.686 27.8515 144.686 24.0451" fill="#D7D7D7"/>
<path d="M164.679 9.50664H166.702V13.3873C167.346 12.0951 168.353 11.0187 169.599 10.2899C170.846 9.56113 172.277 9.21151 173.719 9.28383C177.933 9.28383 180.792 11.5677 180.792 17.2308V29.4669H178.769V17.0265C178.769 12.8117 176.801 10.9364 173.199 10.9364C172.341 10.8955 171.484 11.0314 170.681 11.3355C169.877 11.6396 169.145 12.1055 168.529 12.7043C167.912 13.3031 167.426 14.0221 167.099 14.8167C166.772 15.6113 166.612 16.4645 166.628 17.3236V29.374H164.679V9.50664Z" fill="#D7D7D7"/>
<path d="M200.581 19.5889V19.2918C200.581 13.8143 197.611 10.9364 193.471 10.9364C189.331 10.9364 186.046 14.0186 186.046 19.3661V19.6632C186.046 25.1035 189.127 27.9815 193.081 27.9815C197.035 27.9815 200.507 25.0478 200.507 19.5889M183.966 19.7374V19.4218C183.966 13.2944 187.958 9.19099 193.248 9.19099C194.793 9.14926 196.314 9.58023 197.608 10.4263C198.902 11.2724 199.907 12.4932 200.488 13.9257V0H202.512V29.3926H200.488V24.7878C199.833 26.2198 198.791 27.4397 197.478 28.3094C196.166 29.179 194.636 29.6636 193.063 29.7083C188.013 29.7083 184.133 25.9947 184.133 19.756" fill="#D7D7D7"/>
<path d="M36.7561 74.5863C35.5457 73.4179 34.1145 72.5025 32.5464 71.8936C30.9782 71.2847 29.3044 70.9944 27.6228 71.0399H24.4484V90.3502C24.3164 92.9041 24.6305 95.4614 25.3766 97.9073C25.7412 99.0172 26.4557 99.9789 27.4129 100.648C28.3701 101.318 29.5184 101.659 30.6858 101.621H31.7068C32.7149 101.623 33.7115 101.407 34.628 100.987C35.5445 100.567 36.3592 99.9533 37.016 99.1884C39.1694 96.6818 40.0048 91.7614 40.0048 85.9497C40.0048 81.8463 39.3551 77.1858 36.7376 74.5677M30.2217 43.1512H29.0151C28.0635 43.0817 27.1183 43.3539 26.3493 43.9189C25.5804 44.4838 25.038 45.3045 24.8197 46.2335C24.4633 47.854 24.3383 49.5169 24.4484 51.1725V69.5545H27.8456C31.9481 69.5545 34.6584 68.7189 36.3292 66.4722C38.2969 63.8542 38.6682 58.7295 38.6682 55.5544C38.6682 46.4006 34.9555 43.1512 30.1846 43.1512M36.0693 103.143H0V102.772C0.917775 102.718 1.82673 102.562 2.7103 102.308C3.84821 102.012 4.87249 101.385 5.65269 100.506C6.43289 99.626 6.9337 98.534 7.09134 97.3688C7.68562 94.7072 7.93519 91.9801 7.83389 89.2548V55.833C7.94312 53.046 7.69356 50.2565 7.09134 47.5332C6.91333 46.3881 6.40339 45.3204 5.62466 44.4623C4.84594 43.6042 3.83265 42.9934 2.7103 42.7056C1.83258 42.4239 0.920982 42.2616 0 42.2229V41.8515H34.5099C44.5529 41.8329 54.206 44.5624 54.206 55.703C54.206 62.9815 50.7532 66.6208 43.7547 68.7003C41.4211 69.3073 39.053 69.7723 36.6633 70.0929V70.2786C48.9711 71.0213 57.1948 76.6287 57.1948 85.9497C57.1948 97.9816 47.1147 103.125 36.1064 103.125" fill="#D7D7D7"/>
<path d="M169.412 63.39C169.099 62.977 168.686 62.6498 168.212 62.4388C167.738 62.2279 167.219 62.1399 166.702 62.1831C166.095 62.144 165.487 62.2403 164.922 62.4651C164.357 62.6899 163.849 63.0375 163.435 63.4828C161.857 65.4324 161.189 70.2043 161.096 79.6367H168.744C170.693 79.6367 171.362 78.9868 171.362 76.3688C171.362 70.5757 170.99 65.6367 169.412 63.3714M161.114 80.9179C161.114 93.3211 163.175 97.146 165.403 99.4855C166.902 100.792 168.8 101.552 170.786 101.639C177.506 101.639 181.794 94.6394 183.205 89.5147L184.133 89.7932C182.444 97.3503 176.949 103.979 166.498 103.979C161.884 104.015 157.362 102.684 153.503 100.154C148.658 96.7004 145.298 91.2044 145.298 82.6075C145.298 67.4006 156.436 61.0505 166.479 61.0505C178.88 61.0505 184.765 69.5359 184.579 78.8754C184.592 79.5575 184.561 80.2398 184.486 80.9179H161.114Z" fill="#D7D7D7"/>
<path d="M213 96.7932C211.858 99.0331 210.1 100.9 207.932 102.173C205.765 103.446 203.278 104.073 200.767 103.979C197.221 104.166 193.721 103.108 190.872 100.99C189.574 99.7657 188.567 98.2665 187.924 96.602C187.282 94.9376 187.02 93.1502 187.159 91.3715C187.159 89.5147 187.438 68.329 187.531 63.7428C186.045 63.5571 183.614 63.7428 182.221 63.4643V62.5359C186.583 61.6625 190.621 59.6075 193.895 56.5951C197.169 53.5826 199.552 49.7286 200.785 45.4536H202.641V61.8675H211.144V63.7242H202.641L202.344 92.9683C202.344 96.329 202.901 99.6898 207.097 99.6898C208.229 99.6778 209.339 99.37 210.316 98.7967C211.293 98.2235 212.103 97.4048 212.666 96.4219L213 96.7932Z" fill="#D7D7D7"/>
<path d="M120.664 103.143V102.772C121.424 102.728 122.177 102.603 122.91 102.401C123.931 101.936 124.767 101.379 125.435 99.0399C125.881 96.3784 126.055 93.6783 125.955 90.9815V50.4298C126.006 48.1856 125.913 45.9405 125.676 43.7083C125.398 41.8515 125.027 41.0902 124.08 40.5332C123.192 40.0465 122.196 39.7911 121.184 39.7905V39.3263H140.416C140.787 39.3263 140.973 39.512 140.973 39.9762C140.973 41.3688 140.88 43.3369 140.88 45.7693V90.9815C140.805 93.6945 140.96 96.4089 141.344 99.0956C141.994 101.435 142.848 101.992 143.962 102.456C144.751 102.664 145.56 102.788 146.375 102.828V103.199L120.664 103.143Z" fill="#D7D7D7"/>
<path d="M79.9539 92.8383C79.9539 97.2574 78.0975 100.173 76.6681 100.173C74.4219 100.173 73.1039 98.2044 73.1039 92.8383C72.9694 89.9592 73.2889 87.0769 74.0506 84.2972C74.585 82.6782 75.6859 81.3068 77.1508 80.4351C78.2981 79.6949 79.2885 78.7359 80.0653 77.6128L79.9539 92.8383ZM120.107 102.401C118.993 101.936 118.139 101.379 117.49 99.0399C117.084 96.3737 116.904 93.678 116.951 90.9815V45.7693C116.951 43.3369 117.044 41.3873 117.044 39.9762C117.044 39.512 116.859 39.3263 116.487 39.3263H97.3295V39.7905C98.342 39.7903 99.338 40.0458 100.225 40.5332C101.154 41.0902 101.543 41.9258 101.822 43.7083C102.058 45.9405 102.151 48.1856 102.1 50.4298V90.9815C102.1 92.1513 102.1 93.581 102.1 94.9365C102.1 98.1115 101.748 102.364 98.3877 102.364C95.0276 102.364 94.6749 98.0558 94.6749 94.9365C94.6749 94.3609 94.6749 93.7296 94.6749 93.0797C94.6749 87.2494 94.5821 76.3688 94.5821 73.2494C94.5821 64.2255 88.1034 60.5677 76.5382 60.5677C70.4307 60.5677 64.2304 62.7216 61.8729 65.9152C60.8943 67.1443 60.3639 68.6703 60.3692 70.2415C60.3692 73.955 62.7268 75.6818 66.3838 75.6818C70.5235 75.6818 72.4913 73.7136 72.4913 69.4802C72.4913 67.0293 71.8416 64.5969 72.0272 63.4643C72.2128 62.703 73.0668 61.6075 75.7399 61.6075C79.1185 61.6075 80.2509 62.5359 80.2509 66.8621C80.2509 68.2733 80.1581 70.9099 80.1581 73.1566C80.1581 76.8701 78.6544 79.5439 70.3008 81.7163C67.8504 82.4776 62.5968 83.4059 60.3321 85.9497C58.6747 87.7654 57.795 90.1585 57.8816 92.6155C57.8816 100.507 63.3394 103.756 68.7785 103.756C74.2177 103.756 79.3042 102.159 80.4366 96.7932H80.6222C80.5798 98.3265 81.0793 99.8255 82.033 101.027C83.4439 102.883 85.7458 103.756 89.4585 103.756C91.2659 103.764 93.0695 103.59 94.842 103.236H122.52V102.865C121.705 102.827 120.896 102.703 120.107 102.493" fill="#D7D7D7"/>
</svg>
