<svg width="257" height="84" viewBox="0 0 257 84" fill="none" xmlns="http://www.w3.org/2000/svg">
<path d="M118.075 48.07C118.075 48.07 117.445 48.45 116.115 48.45C114.405 48.45 112.885 47.44 112.065 46.9C111.025 46.2 109.315 45.22 107.605 44.69C104.315 44.69 102.165 43.77 100.485 41.59C98.8048 39.44 97.9548 36.66 97.9548 33.43C97.9548 28.69 99.7548 24.86 102.925 23.15C104.225 22.45 105.835 22.07 107.475 22.07C113.325 22.07 116.935 26.34 116.935 33.23C116.935 38.01 115.225 41.58 112.605 43.32C113.205 43.54 114.055 44.11 114.565 44.43C115.355 44.9 116.305 45.35 117.285 45.35C118.265 45.35 119.245 45.19 119.245 45.19L118.075 48.07ZM111.275 28.28C110.925 27.17 109.755 25.5 107.415 25.5C105.925 25.5 104.635 26.26 103.995 27.43C103.235 28.85 102.885 30.78 102.885 33.44C102.885 37.24 103.515 39.61 104.845 40.56C105.545 41.07 106.425 41.32 107.465 41.32C110.535 41.32 111.825 38.98 111.825 33.38C111.825 31.13 111.635 29.52 111.255 28.29L111.275 28.28Z" fill="#D7D7D7"/>
<path d="M130.905 44.79C130.365 44.41 129.925 43.87 129.645 43.21C128.605 44.22 127.085 44.76 125.375 44.76C123.095 44.76 121.135 43.69 120.595 42.14C120.345 41.41 120.245 40.56 120.245 38.91V28.54L124.415 27.75V38.15C124.415 39.6 124.545 40.36 124.765 40.81C124.985 41.25 125.615 41.57 126.255 41.57C127.295 41.57 128.565 40.81 128.875 40.02V28.64L132.925 27.79V40.15C132.925 41.23 133.275 42.33 133.905 43.09L130.905 44.8V44.79Z" fill="#D7D7D7"/>
<path d="M140.985 37.58V37.71C140.985 40.21 142.215 41.63 144.405 41.63C145.855 41.63 147.215 41.09 148.515 40.02L150.155 42.55C148.285 44.07 146.325 44.8 144.055 44.8C139.405 44.8 136.405 41.51 136.405 36.42C136.405 33.51 137.005 31.58 138.425 30C139.755 28.51 141.365 27.82 143.515 27.82C145.385 27.82 147.155 28.45 148.195 29.53C149.685 31.05 150.345 33.23 150.345 36.61V37.59H140.985V37.58ZM145.955 34.29C145.955 33.09 145.825 32.46 145.445 31.85C145.035 31.22 144.435 30.9 143.575 30.9C141.965 30.9 141.045 32.16 141.045 34.41V34.47H145.945V34.28L145.955 34.29Z" fill="#D7D7D7"/>
<path d="M156.985 37.58V37.71C156.985 40.21 158.215 41.63 160.405 41.63C161.855 41.63 163.225 41.09 164.515 40.02L166.155 42.55C164.295 44.07 162.325 44.8 160.055 44.8C155.405 44.8 152.405 41.51 152.405 36.42C152.405 33.51 153.005 31.58 154.425 30C155.755 28.51 157.365 27.82 159.515 27.82C161.385 27.82 163.145 28.45 164.195 29.53C165.685 31.05 166.345 33.23 166.345 36.61V37.59H156.985V37.58ZM161.945 34.29C161.945 33.09 161.815 32.46 161.435 31.85C161.025 31.22 160.425 30.9 159.565 30.9C157.955 30.9 157.035 32.16 157.035 34.41V34.47H161.935V34.28L161.945 34.29Z" fill="#D7D7D7"/>
<path d="M177.945 44.34V33.81C177.945 31.98 177.625 31.44 176.525 31.44C175.675 31.44 174.565 32.01 173.585 32.89V44.34H169.345V32.61C169.345 31.22 169.155 29.89 168.775 28.81L172.545 27.74C172.925 28.4 173.145 29.1 173.145 29.76C173.775 29.32 174.315 28.94 175.015 28.56C175.865 28.12 176.975 27.86 177.925 27.86C179.725 27.86 181.305 28.81 181.815 30.2C182.035 30.8 182.135 31.5 182.135 32.51V44.34H177.945Z" fill="#D7D7D7"/>
<path d="M191.345 44.85C189.355 44.85 187.165 44.22 184.805 42.98L186.325 39.88C187.625 40.67 189.865 41.71 191.705 41.71C192.905 41.71 193.855 40.92 193.855 39.88C193.855 38.77 193.065 38.2 191.355 37.89L189.455 37.54C188.385 37.35 187.055 36.59 186.485 35.89C185.915 35.19 185.565 34.02 185.565 32.98C185.565 29.82 188.065 27.7 191.825 27.7C194.415 27.7 196.125 28.49 197.615 29.22L196.225 32.07C194.615 31.25 193.445 30.9 192.245 30.9C191.045 30.9 190.185 31.53 190.185 32.48C190.185 33.3 190.725 33.74 192.205 34.12L194.165 34.63C196.165 35.14 196.825 35.74 197.395 36.46C197.995 37.22 198.285 38.14 198.285 39.21C198.285 42.56 195.505 44.84 191.355 44.84L191.345 44.85Z" fill="#D7D7D7"/>
<path d="M205.405 44.72C203.605 44.72 202.145 43.87 201.645 42.51C201.325 41.69 201.265 41.18 201.265 38.87V26.79C201.265 24.67 201.205 23.37 201.045 21.92L205.375 20.94C205.535 21.83 205.595 22.87 205.595 25.15V37.77C205.595 40.55 205.625 40.93 205.885 41.38C206.045 41.66 206.395 41.82 206.735 41.82C206.895 41.82 206.985 41.82 207.205 41.76L207.935 44.29C207.205 44.57 206.325 44.73 205.405 44.73V44.72Z" fill="#D7D7D7"/>
<path d="M220.955 45.16C219.975 44.75 219.095 44.02 218.675 43.2C218.355 43.52 218.015 43.83 217.695 44.05C216.905 44.62 215.765 44.94 214.435 44.94C210.835 44.94 208.875 43.11 208.875 39.88C208.875 36.08 211.495 34.31 216.655 34.31C216.975 34.31 217.255 34.31 217.605 34.34V33.68C217.605 31.88 217.255 31.28 215.715 31.28C214.355 31.28 212.775 31.94 211.035 33.11L209.235 30.07C210.085 29.53 210.725 29.22 211.855 28.74C213.435 28.08 214.795 27.79 216.285 27.79C219.005 27.79 220.875 28.8 221.505 30.61C221.725 31.27 221.815 31.78 221.785 33.52L221.695 38.96C221.665 40.73 221.785 41.49 223.215 42.57L220.965 45.16H220.955ZM217.355 37.26C214.415 37.26 213.405 37.8 213.405 39.73C213.405 40.99 214.195 41.85 215.265 41.85C216.055 41.85 216.845 41.44 217.485 40.74L217.545 37.26H217.355Z" fill="#D7D7D7"/>
<path d="M234.775 44.34V33.81C234.775 31.98 234.455 31.44 233.355 31.44C232.495 31.44 231.395 32.01 230.415 32.89V44.34H226.175V32.61C226.175 31.22 225.985 29.89 225.605 28.81L229.365 27.74C229.745 28.4 229.965 29.1 229.965 29.76C230.595 29.32 231.135 28.94 231.825 28.56C232.685 28.12 233.785 27.86 234.735 27.86C236.535 27.86 238.115 28.81 238.625 30.2C238.845 30.8 238.945 31.5 238.945 32.51V44.34H234.775Z" fill="#D7D7D7"/>
<path d="M253.105 44.34C252.975 44.09 252.915 43.83 252.855 43.39C251.805 44.31 250.575 44.75 249.115 44.75C245.005 44.75 242.415 41.56 242.415 36.53C242.415 31.5 245.225 27.99 249.345 27.99C250.515 27.99 251.435 28.27 252.225 28.91C252.155 28.56 252.095 27.46 252.095 26.51V20.94L256.305 21.6V38.42C256.305 42.4 256.625 43.7 256.905 44.33H253.105V44.34ZM252.155 32.42C251.365 31.72 250.605 31.38 249.845 31.38C247.945 31.38 247.125 32.96 247.125 36.57C247.125 40.18 247.855 41.19 250.065 41.19C250.855 41.19 251.745 40.65 252.155 40.15V32.42Z" fill="#D7D7D7"/>
<path d="M107.955 75.31C105.235 75.31 102.925 74.36 101.285 72.59C99.4548 70.59 98.5948 67.91 98.5948 64.18C98.5948 60.04 99.7048 57.09 101.945 55.07C103.495 53.68 105.365 53.02 107.605 53.02C109.845 53.02 111.905 53.75 113.545 55.17L112.375 56.78C110.605 55.58 109.335 55.11 107.665 55.11C105.135 55.11 103.145 56.28 102.255 58.78C101.685 60.39 101.405 62.23 101.405 64.28C101.405 67.13 101.945 69.44 102.925 70.86C103.905 72.28 106.115 73.17 108.175 73.17C109.535 73.17 110.705 72.88 111.625 72.32V65.71H107.265L106.755 63.56H114.065V73.68C112.515 74.69 110.175 75.32 107.965 75.32L107.955 75.31Z" fill="#D7D7D7"/>
<path d="M125.125 75.38C120.795 75.38 118.325 72.18 118.325 67C118.325 61.82 120.885 58.75 125.025 58.75C127.645 58.75 129.355 59.95 130.435 61.5C131.415 62.92 131.885 64.79 131.885 67.35C131.885 72.6 129.075 75.38 125.115 75.38H125.125ZM128.345 62.79C127.685 61.4 126.285 60.77 124.995 60.77C123.605 60.77 122.305 61.43 121.765 62.48C121.255 63.46 121.005 64.73 121.005 66.59C121.005 68.81 121.385 70.77 121.985 71.75C122.555 72.7 123.815 73.33 125.175 73.33C126.815 73.33 128.055 72.48 128.595 70.96C128.945 69.98 129.065 69.1 129.065 67.54C129.065 65.33 128.845 63.84 128.335 62.8L128.345 62.79Z" fill="#D7D7D7"/>
<path d="M139.285 75.12L133.625 59.34L136.155 58.8L139.825 69.65C140.265 70.95 140.585 72.34 140.585 72.34H140.645C140.645 72.34 140.895 71.11 141.405 69.68L145.015 59.21H147.635L141.725 75.12H139.285Z" fill="#D7D7D7"/>
<path d="M152.525 67.5V67.88C152.525 69.37 152.715 70.51 153.255 71.33C154.145 72.69 155.595 73.26 157.175 73.26C158.755 73.26 159.925 72.79 161.035 71.77L161.985 73.35C160.595 74.62 158.695 75.31 156.675 75.31C152.305 75.31 149.685 72.15 149.685 66.93C149.685 64.27 150.255 62.57 151.585 60.98C152.845 59.49 154.395 58.8 156.295 58.8C158.005 58.8 159.495 59.4 160.565 60.51C161.925 61.9 162.365 63.39 162.365 67.15V67.5H152.525ZM159.005 62.13C158.465 61.28 157.365 60.74 156.155 60.74C153.915 60.74 152.645 62.39 152.515 65.64H159.725C159.695 63.93 159.475 62.89 158.995 62.13H159.005Z" fill="#D7D7D7"/>
<path d="M173.485 61.59C173.325 61.52 173.045 61.46 172.785 61.46C171.835 61.46 170.895 61.87 170.165 62.6C169.435 63.33 169.255 63.8 169.255 65.1V74.97H166.785V62.83C166.785 60.52 166.245 59.48 166.245 59.48L168.715 58.81C168.715 58.81 169.315 60.04 169.225 61.37C170.365 59.76 172.045 58.75 173.655 58.75C174.065 58.75 174.505 58.91 174.505 58.91L173.495 61.6L173.485 61.59Z" fill="#D7D7D7"/>
<path d="M185.935 74.96V64.3C185.935 62.63 185.815 62.22 185.365 61.68C185.015 61.27 184.355 61.02 183.625 61.02C182.355 61.02 180.395 62.03 179.265 63.24V74.97H176.865V62.83C176.865 60.58 176.265 59.51 176.265 59.51L178.665 58.85C178.665 58.85 179.235 60.02 179.235 61.32C180.875 59.68 182.525 58.89 184.205 58.89C185.885 58.89 187.435 59.8 188.065 61.2C188.315 61.77 188.445 62.4 188.445 63.03V74.98H185.945L185.935 74.96Z" fill="#D7D7D7"/>
<path d="M210.475 74.96V63.32C210.475 61.8 209.785 61.01 208.455 61.01C207.035 61.01 205.925 61.93 204.275 63.44V74.95H201.775V63.76C201.775 62.81 201.685 62.18 201.335 61.74C200.955 61.3 200.445 61.11 199.725 61.11C198.525 61.11 197.355 61.71 195.705 63.2V74.96H193.335V62.75C193.335 60.47 192.765 59.4 192.765 59.4L195.165 58.83C195.165 58.83 195.735 60.06 195.735 61.17C196.785 60 198.715 58.8 200.315 58.8C201.915 58.8 203.415 59.75 203.985 61.43C205.505 59.82 207.435 58.8 209.045 58.8C211.385 58.8 213.005 60.57 213.005 63.07V74.96H210.475Z" fill="#D7D7D7"/>
<path d="M219.795 67.5V67.88C219.795 69.37 219.985 70.51 220.525 71.33C221.415 72.69 222.865 73.26 224.445 73.26C226.025 73.26 227.195 72.79 228.305 71.77L229.255 73.35C227.865 74.62 225.965 75.31 223.945 75.31C219.585 75.31 216.955 72.15 216.955 66.93C216.955 64.27 217.525 62.57 218.855 60.98C220.125 59.49 221.665 58.8 223.565 58.8C225.275 58.8 226.765 59.4 227.835 60.51C229.195 61.9 229.635 63.39 229.635 67.15V67.5H219.795ZM226.275 62.13C225.735 61.28 224.625 60.74 223.425 60.74C221.175 60.74 219.915 62.39 219.785 65.64H226.995C226.965 63.93 226.745 62.89 226.265 62.13H226.275Z" fill="#D7D7D7"/>
<path d="M243.125 74.96V64.3C243.125 62.63 242.995 62.22 242.555 61.68C242.205 61.27 241.545 61.02 240.815 61.02C239.545 61.02 237.585 62.03 236.455 63.24V74.97H234.055V62.83C234.055 60.58 233.455 59.51 233.455 59.51L235.855 58.85C235.855 58.85 236.425 60.02 236.425 61.32C238.075 59.68 239.715 58.89 241.395 58.89C243.075 58.89 244.625 59.8 245.255 61.2C245.505 61.77 245.635 62.4 245.635 63.03V74.98H243.135L243.125 74.96Z" fill="#D7D7D7"/>
<path d="M256.245 61.08H252.955V71.23C252.955 72.97 253.425 73.57 254.975 73.57C255.675 73.57 256.085 73.47 256.525 73.25L256.875 74.83C256.085 75.24 255.205 75.46 254.095 75.46C253.275 75.46 252.645 75.3 252.035 75.02C250.925 74.48 250.515 73.47 250.515 71.89V61.08H248.455V59.21H250.515C250.515 57.69 250.765 55.22 250.765 55.22L253.355 54.65C253.355 54.65 253.035 57.12 253.035 59.2H256.995L256.235 61.07L256.245 61.08Z" fill="#D7D7D7"/>
<path d="M37.5948 27.45C35.5748 27.56 33.6048 30.19 34.4348 33.17C34.1248 33.29 33.2548 33.27 32.9648 32.66C32.7548 33.63 30.7748 34.75 29.3348 34.6C30.1348 33.74 30.6648 31.8 32.2248 30.78C33.7848 29.75 34.4848 29.05 35.0348 27.3C34.3148 27.64 30.5448 28.61 29.4848 27.46C31.9548 27.1 34.8848 25.71 36.3348 24.8L35.7648 24.19C34.2048 25.07 32.1348 25.78 31.0848 26.12C30.7148 23.02 33.6648 23.14 33.8848 23.98C35.1048 22.53 34.2448 20.46 33.3548 20.24C34.2648 17.76 33.3548 16.25 32.5748 15.33C32.3848 17.95 29.4548 18.37 29.1148 20.39C28.9948 18.79 28.8948 14.47 28.7748 12.36C28.5448 8.45 23.6048 7.08 22.8448 7.08C19.6148 7.23 19.3148 6.82 19.3848 5.31C17.7448 7.18 18.3048 8.83 19.6848 9.63C19.4948 10.75 17.7048 11.62 16.6048 11.87C19.2348 14.31 22.2748 12.86 23.7348 11.47C23.8448 11.37 23.9448 11.28 24.0448 11.19C24.5748 12.11 24.9448 13.81 24.9448 14.78C22.4948 14.64 22.0548 16.54 22.0548 17.23C25.1748 15.94 25.5148 21.91 26.3348 22.88C25.5348 22.82 24.1248 20.98 22.0548 20.85C19.5548 20.69 18.6748 22.03 17.6648 21.97C17.8548 23.74 20.0048 24.73 21.3948 24.94C20.6948 26.75 21.3148 27.97 22.7848 28.42C22.7848 26.77 24.8748 26.26 27.1248 27.57C29.8148 29.14 31.1948 29.28 33.3648 28.62C33.0048 29.4 32.0348 29.48 30.8348 30.65C29.1548 32.3 29.1048 34.45 27.2448 35.24C29.4348 36.28 32.7448 34.82 33.2148 33.99C34.1248 34.56 35.3048 34.22 35.6248 33.64C34.1448 30.35 36.6548 28.39 37.6448 28.43C37.6448 28.43 38.0848 27.45 37.6048 27.48L37.5948 27.45ZM26.1648 26.1C25.0648 25.64 23.3648 25.36 22.4148 26.69C21.8948 25.79 22.6648 24.44 23.1348 24.04C20.7248 24.08 19.3548 23.34 18.9848 22.62C19.8848 22.13 22.1448 21.31 23.9848 22.65C25.2548 23.59 25.9048 24.04 27.4048 24.54C27.9548 23.99 27.7448 24.24 27.9148 24.08C26.6848 23.22 26.1348 16.64 23.7148 16.4C24.0548 15.56 25.3148 15.64 26.3248 15.9C26.3948 14.42 25.7948 12 24.8748 10.59C26.2848 9.85 27.2548 10.64 27.7348 12.4C28.2548 14.25 27.6448 18.9 28.8548 23.08L29.6148 22.38C29.2348 19.95 31.9148 19.05 32.5048 17.84C32.7248 19.48 32.3948 20.22 31.9348 20.81C32.9048 20.92 33.3448 21.88 33.1948 22.54C30.8548 22.19 29.5048 24.55 30.0248 26.4C28.3048 26.78 27.1148 26.49 26.1648 26.1ZM19.5548 7.78C21.3948 8.68 21.9848 7.02 25.4348 9.25C23.1548 9.97 21.4048 12.78 18.8348 12.06C20.6748 11.15 20.4848 9.8 21.5548 9.13C20.8748 9.03 19.5448 8.73 19.5548 7.78Z" fill="#D7D7D7"/>
<path d="M61.5348 18.42C61.5348 14.76 61.4048 11.74 61.3548 10.79C61.4948 10.83 61.6448 10.87 61.7948 10.93C64.4248 11.85 65.0248 15.02 70.4648 11.42C67.5548 11.76 67.4048 9.29 66.0748 9.23C68.0948 8.08 68.2248 5.46 68.2248 5.46C66.5348 6.83 62.6148 6.9 61.8548 7.36C60.8448 7.97 59.5648 8.71 58.6948 9.18C56.4348 10.42 58.0148 17.11 57.7848 19.57C56.5648 15.92 54.0948 16.47 52.8048 14.37C51.8348 16.12 52.8648 19.05 53.2548 19.88C51.8448 21.02 52.2348 23.14 52.5748 23.71C53.7748 22.84 55.6348 23.06 56.2048 24.51C54.6248 25.47 51.9848 25.64 50.1848 23.89L49.5348 24.61C50.8048 26.29 53.9948 26.95 56.3648 25.59C56.3548 25.97 56.2648 26.41 56.1148 26.88C54.8848 27.53 53.2948 27.88 51.4748 27.25C51.7248 29.09 53.8348 30.46 55.8448 31.01C55.1648 31.54 54.3248 31.75 53.7148 31.68C54.0948 32.75 54.3048 34.17 53.5048 35.29C52.4948 34.62 51.9648 33.96 51.5848 31.38C51.2048 28.79 49.3448 26.17 47.8948 25.63C47.8148 26.55 47.8148 26.15 47.9748 26.74C51.8148 29.55 49.6448 34.63 53.6448 36.46C55.1148 34.79 55.1248 34.19 54.8948 32.62C56.3448 32.24 57.4248 31.02 57.8048 30.09C56.4348 30.74 54.2648 29.59 53.6548 28.7C56.0348 28.63 58.2348 26.83 60.4848 24.48C62.4948 22.37 65.1848 22.7 64.9748 24.35C66.3648 24.14 66.9148 22.24 66.4548 21.02C68.4848 20.37 70.0848 18.87 70.3148 16.51C67.5748 17.88 64.1148 15.62 61.5248 18.4L61.5348 18.42ZM64.8248 20.39C65.9048 21.28 65.5448 22.54 65.2948 22.82C64.3448 21.19 61.3048 21.76 58.3148 25.12C58.1048 25.37 57.8248 25.66 57.4848 25.96C57.7248 21.93 54.4248 21.86 53.4448 22.27C53.5548 21.11 54.2748 20.31 54.6648 20.2C53.6948 19.07 53.4848 17.65 53.3748 16.62C54.9848 17.32 57.3848 19.2 57.7848 22.46L58.8348 21.76C58.5248 16.08 58.5848 16.1 58.5448 12.23C58.5448 11.69 58.5648 10.43 60.2848 10.57C60.3548 12 60.5748 15.82 60.5048 21.12H61.1148C61.6648 19.63 63.6248 17.9 65.9048 18.06C67.4648 18.16 67.9948 18.14 68.8948 17.74C68.1748 19.51 65.5048 20.28 64.8248 20.4V20.39ZM60.3548 9.57C61.4548 8.77 62.1648 8.43 62.7348 8.09C63.6848 8.13 65.3248 8.02 66.3148 7.52C65.2848 8.78 65.1648 9.24 63.4948 9.42C65.6648 9.61 66.5748 11.55 67.6448 11.85C64.0248 12.96 63.6648 9.36 60.3548 9.57Z" fill="#D7D7D7"/>
<path d="M46.7448 30.91C46.5548 30.91 46.3848 31 46.2848 31.14C46.0848 31.1 45.8648 31.07 45.6448 31.04V29.87C45.8648 29.78 46.0048 29.57 46.0048 29.33C46.0048 29.01 45.7348 28.74 45.4148 28.74C45.0948 28.74 44.8248 29.01 44.8248 29.33C44.8248 29.56 44.9448 29.75 45.1348 29.84V30.97C44.9248 30.95 44.7248 30.93 44.5048 30.91C44.4148 30.7 44.2048 30.56 43.9648 30.56C43.6348 30.56 43.3748 30.82 43.3748 31.15C43.3748 31.48 43.6348 31.74 43.9648 31.74C44.1748 31.74 44.3548 31.63 44.4548 31.47C44.6848 31.5 44.8948 31.52 45.1048 31.54V33.26C44.9048 33.36 44.7748 33.55 44.7748 33.78C44.7748 34.11 45.0348 34.37 45.3648 34.37C45.6948 34.37 45.9548 34.1 45.9548 33.78C45.9548 33.54 45.8148 33.34 45.6048 33.24L45.6248 31.6C45.8148 31.63 46.0048 31.65 46.1848 31.69C46.2648 31.92 46.4848 32.09 46.7348 32.09C47.0548 32.09 47.3248 31.83 47.3248 31.5C47.3248 31.17 47.0548 30.91 46.7348 30.91H46.7448Z" fill="#D7D7D7"/>
<path d="M41.6448 30.57C41.4048 30.57 41.2048 30.71 41.1048 30.92C40.8948 30.94 40.6848 30.96 40.4948 30.98V29.85C40.6648 29.75 40.7948 29.56 40.7948 29.34C40.7948 29.02 40.5348 28.75 40.2048 28.75C39.8748 28.75 39.6148 29.02 39.6148 29.34C39.6148 29.58 39.7648 29.79 39.9648 29.88V31.05C39.7548 31.08 39.5348 31.11 39.3348 31.15C39.2248 31.01 39.0648 30.92 38.8748 30.92C38.5548 30.92 38.2848 31.19 38.2848 31.51C38.2848 31.83 38.5448 32.1 38.8748 32.1C39.1348 32.1 39.3548 31.93 39.4348 31.7C39.6148 31.67 39.7948 31.64 39.9948 31.61V33.25C39.8048 33.34 39.6648 33.55 39.6648 33.79C39.6648 34.12 39.9248 34.38 40.2548 34.38C40.5848 34.38 40.8448 34.11 40.8448 33.79C40.8448 33.56 40.7148 33.37 40.5248 33.27V31.55C40.7148 31.53 40.9348 31.51 41.1648 31.48C41.2648 31.65 41.4548 31.75 41.6648 31.75C41.9948 31.75 42.2548 31.49 42.2548 31.16C42.2548 30.83 41.9948 30.57 41.6648 30.57H41.6448Z" fill="#D7D7D7"/>
<path d="M49.4548 35.6C49.0948 33.23 48.2448 26.6 48.1448 24.38L47.1348 24.43C47.1548 24.81 47.1848 25.31 47.2448 25.89C46.0348 25.54 44.4348 25.28 42.8148 25.28C41.1948 25.28 39.6048 25.53 38.3848 25.89C38.4348 25.31 38.4748 24.81 38.4948 24.43L37.4848 24.38C37.3848 26.6 36.5348 33.24 36.1748 35.6C35.5748 35.84 35.1848 36.44 35.1848 37.52C35.1848 37.52 40.6948 37.6 42.8248 37.6C44.9548 37.6 50.4748 37.52 50.4748 37.52C50.4748 36.44 50.0748 35.84 49.4748 35.6H49.4548ZM42.8048 35.55C41.9348 37.22 40.3048 37.17 38.8948 36.24C38.3248 35.86 37.7348 35.62 37.2048 35.53C37.4448 33.88 37.8548 30.77 38.1448 28.15C39.9848 27.32 42.2548 27.12 42.8048 29.24C43.3648 27.12 45.6348 27.32 47.4648 28.15C47.7548 30.77 48.1648 33.88 48.4148 35.53C47.8848 35.61 47.2948 35.86 46.7248 36.24C45.3048 37.17 43.6848 37.23 42.8048 35.55Z" fill="#D7D7D7"/>
<path d="M31.1148 38.25C34.2948 39.39 37.8648 40.11 41.6648 38.21C41.1748 39.91 40.4248 40.91 39.4948 41.64C40.0248 42.97 40.8648 44.62 41.2048 45.95C42.2148 46.62 42.0248 47.76 41.8548 48.52C41.6948 49.23 39.3848 50.06 38.6248 49.83C37.9048 49.61 37.9048 49.28 37.5448 49.31C36.5348 49.4 33.4048 52.49 30.3748 49.54V43.19C31.5548 42.54 32.5448 41.96 33.1148 41.12C32.4448 40.68 31.4948 39.48 31.1148 38.25ZM34.4748 41.07C33.6748 42.32 32.8948 42.95 31.3948 43.8V48.94C33.3648 50.69 35.9548 49.17 36.9848 48.56C36.6848 48.07 36.5648 47.73 36.4348 47.14C33.9248 47.41 32.9748 46.13 32.4648 44.27C32.4648 44.27 32.9248 43.97 33.3748 43.74C34.2548 46.59 35.8448 46.19 37.1048 46.14C37.9248 45.4 39.0648 45.15 40.0748 45.23C39.8048 44.09 39.0448 42.64 38.2848 41.39C38.9648 40.95 39.7848 40.44 40.3348 39.56C36.9648 40.76 35.5248 40.34 32.6648 39.54C33.1748 40.27 33.8848 40.8 34.4748 41.09V41.07ZM40.2548 46.16C39.6848 45.97 37.9048 46.46 37.7048 46.96C37.5548 47.34 37.8948 48.22 38.5648 48.64C38.9648 48.89 40.5848 48.39 40.8448 48.01C41.0648 47.69 40.8248 46.36 40.2548 46.17V46.16Z" fill="#D7D7D7"/>
<path d="M55.4348 42.47C55.4348 40.53 54.0348 38.77 51.8548 38.77C49.8548 38.77 47.3748 39.74 47.2148 41.49C44.2848 43.2 42.8948 44.74 43.3348 46.21C42.3448 47.27 43.1048 49.25 46.0348 47.99C45.2548 48.75 44.9748 49.71 44.9748 50.5H54.8248C53.7948 45.1 55.4348 46.05 55.4348 42.47ZM52.4648 41.9C51.9548 41.78 49.7848 41.66 49.0648 43.28C48.6448 43.29 48.1948 43.13 47.9448 42.87C47.6648 43.24 47.2248 43.48 46.6148 43.65C47.1348 44.72 48.2148 44.54 48.8648 44.03C48.8448 44.17 48.8348 44.33 48.8348 44.49C48.8348 47.13 51.6448 47.79 53.3848 46.81C53.0948 47.67 53.2248 48.75 53.3448 49.48H46.5348C46.6448 48.76 47.5648 47.92 48.3248 47.39L47.7148 46.44C46.9748 46.76 46.2848 47.06 45.4848 47.27C43.5948 47.76 43.7048 46.41 45.6648 45.87V45.34L44.4048 45.32C44.7048 43.99 47.2948 42.3 48.4548 41.9C48.3948 40.46 50.2948 39.99 51.8248 39.95C53.7148 39.89 54.1648 41.93 54.1648 42.56C54.1648 43.4 53.9448 45.25 52.8948 45.83C51.3748 46.67 50.0748 45.51 50.0748 44.46C50.0748 43.32 50.8648 42.65 52.2348 42.81C53.6048 42.96 53.5048 42.19 52.4648 41.93V41.9Z" fill="#D7D7D7"/>
<path d="M52.2848 61.13V58.74H51.2148C51.1548 56.26 50.5648 54.48 49.4148 53.29L49.0848 52.94L48.7448 53.29C47.5948 54.48 47.0048 56.26 46.9448 58.74H45.9148V60.99C44.5848 61.4 43.6648 62.1 42.5648 62.95L42.5248 62.98L43.0948 63.72L43.1348 63.69C44.8548 62.37 45.9948 61.5 49.0848 61.5C52.1748 61.5 53.5648 62.84 54.4748 64.29L55.2648 63.79C54.6248 62.77 53.7748 61.74 52.2948 61.13H52.2848ZM49.0848 54.34C49.8348 55.35 50.2348 56.79 50.2848 58.74H47.8848C47.9348 56.79 48.3248 55.34 49.0848 54.34ZM46.8448 60.75V59.67H51.3448V60.83C50.6948 60.66 49.9448 60.57 49.0748 60.57C48.2048 60.57 47.4848 60.64 46.8448 60.75Z" fill="#D7D7D7"/>
<path d="M51.5348 65.45C51.7548 64.66 51.5548 63.91 51.1648 63.46C50.7648 62.99 50.0548 62.7 49.2448 62.81L50.1448 63.83L48.5748 65.16L47.8748 64.35C47.8748 64.35 48.1348 64.13 48.5048 63.81C47.9548 63.18 47.1848 62.63 46.0948 62.88C45.6948 63.93 46.1248 64.76 46.6748 65.4C47.0548 65.08 47.3048 64.85 47.3048 64.85L47.9948 65.64L46.0748 67.26L46.6848 67.96L48.5548 66.29L49.1748 67C49.1748 67 48.7848 67.59 49.3548 68.26C49.7848 67.88 50.5348 67.24 50.9648 66.86C50.3948 66.2 49.7548 66.5 49.7548 66.5L49.1248 65.78L50.6548 64.41L51.5548 65.45H51.5348Z" fill="#D7D7D7"/>
<path d="M39.2548 54.3C39.0148 52.9 37.4448 52.74 36.7448 53.37C36.0448 52.74 34.5048 52.9 34.2548 54.3C31.7648 53.93 32.0348 56.28 32.3448 56.93C32.6248 57.51 33.3048 59.09 33.7648 60.06C33.6848 60.08 33.6148 60.1 33.5548 60.12C33.4448 60.67 33.4248 61.41 33.5148 61.99C33.6248 62.02 33.7448 62.06 33.8548 62.1C33.6048 62.86 33.1348 64.07 32.8748 64.62C33.2148 64.83 33.5748 65 34.0948 65.11C34.0948 65.11 33.9948 65.55 33.8648 65.98C34.5448 66.21 35.8848 66.37 36.7548 66.37C37.6248 66.37 38.9648 66.21 39.6448 65.98C39.5148 65.54 39.4148 65.11 39.4148 65.11C39.9348 65 40.2848 64.82 40.6348 64.62C40.3748 64.07 39.9048 62.86 39.6448 62.1C39.7548 62.06 39.8748 62.03 39.9848 61.99C40.0848 61.42 40.0648 60.67 39.9448 60.12C39.8748 60.1 39.8048 60.09 39.7348 60.06C40.1948 59.09 40.8748 57.51 41.1548 56.93C41.4648 56.28 41.7448 53.93 39.2448 54.3H39.2548ZM36.7548 54.45C36.8548 53.79 38.7248 53.66 38.3748 55.12C38.0148 56.6 37.5748 58.3 37.2348 59.79C37.0748 59.79 36.9148 59.79 36.7548 59.79C36.5948 59.79 36.4348 59.79 36.2748 59.79C35.9348 58.3 35.4848 56.6 35.1348 55.12C34.7848 53.67 36.6548 53.8 36.7448 54.45H36.7548ZM39.2148 60.73C39.2548 60.94 39.2648 61.23 39.2248 61.45C38.6148 61.63 37.5548 61.72 36.7548 61.72C35.9548 61.72 34.8948 61.63 34.2848 61.45C34.2448 61.23 34.2548 60.94 34.2948 60.73C34.6948 60.57 36.2748 60.5 36.7548 60.5C37.2348 60.5 38.8048 60.57 39.2148 60.73ZM33.2248 56.54C32.6648 55.21 34.0048 54.87 34.2948 55.64C34.7048 56.76 35.1948 58.55 35.6048 59.8C35.2548 59.82 34.9148 59.85 34.5948 59.89C34.4148 59.44 33.8348 57.96 33.2248 56.53V56.54ZM39.6548 64.19C39.3348 64.3 38.9148 64.45 38.5148 64.49C38.5948 64.81 38.6648 65.13 38.7248 65.36C38.1948 65.47 37.3348 65.53 36.7648 65.53C36.1948 65.53 35.3348 65.47 34.8048 65.36C34.8548 65.13 34.9348 64.81 35.0148 64.49C34.6148 64.45 34.1948 64.3 33.8748 64.19C34.0448 63.61 34.3048 63.04 34.5148 62.25C35.2348 62.42 35.9448 62.48 36.7648 62.48C37.5848 62.48 38.2848 62.42 39.0148 62.25C39.2348 63.05 39.4848 63.62 39.6648 64.19H39.6548ZM40.2948 56.54C39.6948 57.97 39.1048 59.45 38.9248 59.9C38.6148 59.86 38.2648 59.83 37.9148 59.81C38.3248 58.56 38.8148 56.77 39.2248 55.65C39.5148 54.87 40.8548 55.22 40.2848 56.55L40.2948 56.54Z" fill="#D7D7D7"/>
<path d="M34.6848 42.62C35.4048 42.81 35.8048 42.67 36.4948 42.62C36.7748 42.6 37.3648 42.79 37.2148 43.53C37.1348 43.9 37.2748 44.1 37.3848 44.37C36.7748 44.29 36.1848 44.56 35.7148 44.33C35.0548 44.02 35.1848 43.11 34.6848 42.62Z" fill="#D7D7D7"/>
<path d="M75.0548 34.83C74.8648 37.11 73.0948 40.57 71.0448 42.32L72.3748 42.3C73.7848 40.95 76.1448 38.47 76.4848 33.95C76.4848 33.95 75.5748 34.5 75.0548 34.82V34.83Z" fill="#D7D7D7"/>
<path d="M67.3748 29.96C67.5648 29.69 67.5048 29.23 68.1548 29.06C68.7448 28.91 68.7848 29.34 69.0348 29.4C69.3748 29.48 69.2848 29.44 69.0848 29.72C68.8948 30 68.9548 30.44 68.3648 30.5C67.7148 30.57 67.7848 30.22 67.4648 30.22C67.1048 30.22 67.1348 30.12 67.3748 29.95V29.96Z" fill="#D7D7D7"/>
<path d="M89.6048 31.82C89.3048 31.9 88.5948 32.1 88.1448 32.16C89.0148 31.3 89.5548 30.26 89.5548 29.38C89.1348 29.51 88.3748 29.8 87.6948 29.96C89.0648 28.8 89.8048 27.45 89.4848 25.66C89.0648 25.88 88.4748 26.21 87.8848 26.46C89.0848 24.61 89.0648 23 88.5648 22.05C88.0348 22.54 87.3848 23.13 86.7048 23.55C87.1448 21.42 87.1248 20.05 86.2348 19.1C85.3248 20.81 84.5448 22.08 83.2648 23.6C83.3648 22.19 83.2048 20.45 82.2948 19.53C82.2948 19.53 82.0348 21.49 81.3448 22.12C81.1748 20.2 80.5848 19.15 79.7048 18.12C79.7048 18.12 79.6448 20.12 79.0948 21.35C78.6348 19.68 77.7848 18.38 76.6748 17.14C76.7548 20.83 75.7248 27.79 72.7648 32.47C72.4248 35.25 72.1148 39.41 67.5948 41.88C66.9448 41.42 65.8048 40.84 64.1848 40.93C63.7648 38.84 66.5048 36.94 68.8648 35.41C71.2548 33.88 72.2848 32.56 72.2348 30.5C72.1748 28.26 70.6548 27.34 69.0748 27.27C66.8448 27.18 65.0448 29.19 64.6248 30.03C63.9848 30.33 62.0748 30.93 61.2948 31.13C60.4348 31.36 59.4448 31.72 58.8448 32.23C59.2048 32.46 60.2548 32.53 60.6548 32.48C61.4048 32.37 63.8148 31.92 66.1148 31.64C66.9548 32.1 68.3048 32.86 66.8748 33.85C64.9148 35.1 64.0848 35.43 61.3248 36.87C56.9748 39.15 58.3748 44.89 59.4448 45.32C59.4448 47.26 61.1748 50.76 62.3448 51.98C62.8848 54.41 62.1748 58.04 61.4348 59.55C60.8248 58.07 59.7848 54.64 59.0948 52.64C59.7948 48.86 58.6548 47.2 57.8548 46.56C57.0548 45.91 55.8048 46.08 54.9848 47.4C56.2448 47.26 56.6648 48.87 56.6348 50.54C56.6048 52.54 56.0948 54.14 54.7048 54.15C54.8148 55.86 56.6648 56.34 57.5748 55.52C57.7148 55.9 58.4548 58.15 59.1548 60.14C59.5648 61.32 59.9748 62.42 60.2348 62.98C60.5248 63.62 62.6448 63.71 62.8948 62.98C63.2248 62 63.4948 61.27 64.0248 60.14C64.4248 59.27 64.9848 58.17 65.8448 56.54C66.4148 57.53 67.1748 59.08 67.6148 60.14C67.8248 60.64 67.9648 61.02 67.9748 61.2C68.1448 62.84 68.0448 68.62 67.6148 72.08C62.8548 70.78 61.5148 73.11 61.9248 74.84C62.6048 74.07 63.5048 74.17 64.0548 74.57C63.9248 75.84 64.2648 76.75 65.5648 77.13C66.9348 73.52 71.8348 74.32 72.2948 74.62C72.3148 73.92 72.9748 72.17 70.4448 71.8C70.5448 68.68 70.8648 64.86 70.9848 64.06C71.1048 63.27 71.1948 62.77 70.8148 61.52C70.7048 61.14 70.5648 60.68 70.4248 60.14C70.0948 58.87 69.7648 57.22 69.7348 55.44C70.1748 55.87 71.2148 56.22 71.9448 56.06C72.4948 58.42 73.2948 57.74 73.7148 58.72C73.9248 59.23 73.9748 59.71 74.0348 60.13C74.0848 60.54 74.1548 60.9 74.3748 61.21C76.0648 61.26 77.4948 60.85 78.5248 60.13C78.8348 59.91 79.1148 59.66 79.3448 59.38C78.9248 56.87 78.2248 55.63 76.9148 54.12C76.5748 52.06 75.6148 50.18 74.2948 48.52C75.9548 47.97 77.6348 46.63 78.5148 45.69C79.3148 45.63 80.2248 44.97 80.3048 43.67C80.7648 43.61 81.1648 43.59 81.5248 43.51C81.4848 43.15 81.3948 42.62 81.3348 42.3C81.9448 42.3 82.5348 42.28 83.1048 42.23C82.9348 41.75 82.7248 41.26 82.5548 40.9C83.1648 40.9 83.9248 40.86 84.5348 40.82C84.2148 40.21 83.9648 39.68 83.7748 39.14C84.4748 39.06 85.5648 38.89 86.4548 38.68C86.1748 38.38 85.8448 38.07 85.3548 37.6C87.6748 36.92 88.6848 35.3 88.7948 34.6C88.4548 34.6 87.7448 34.75 87.3348 34.71C88.6248 33.95 89.5048 32.9 89.6348 31.78L89.6048 31.82ZM77.5648 21.25C78.1348 22.2 78.5748 23.92 78.5748 25.36C79.3048 24.64 79.7748 23.45 80.0148 22.6C80.3448 23.25 80.3048 24.96 80.2248 25.72C81.0348 25.04 81.5548 24.08 82.0448 23.11C82.1448 23.81 82.1548 24.43 82.0448 25.11C80.2948 26.97 77.4248 29.45 74.4048 31.97C76.0448 28.59 77.0648 25.77 77.5648 21.24V21.25ZM62.9448 60.16C62.7148 60.77 62.5248 61.41 62.3648 62.11C62.2348 62.74 60.8448 62.58 60.6548 62.11C60.5048 61.73 60.2248 61.02 59.8948 60.16C59.0948 58.08 58.0148 55.13 57.7448 53.88C57.1948 54.77 56.6048 55.25 55.9748 54.68C58.2448 53.67 57.4448 47.56 56.5648 47.26C57.6448 46.29 58.8648 49.98 58.1648 52.74C58.8448 54.66 60.1748 58.57 60.7048 60.16C60.8148 60.5 60.8948 60.73 60.9248 60.83C61.0748 61.32 61.7048 61.28 61.8548 60.83C61.9048 60.66 61.9748 60.44 62.0648 60.16C62.5848 58.46 63.6748 54.82 63.4948 52.55C64.5648 52.74 64.8648 53.73 65.2448 54.99C64.3648 57.11 63.5448 58.56 62.9448 60.17V60.16ZM86.7148 35.7C86.1648 36.3 84.4148 37.03 82.3148 37.12C82.7348 37.56 83.4148 37.88 83.8748 38.11C83.2848 38.24 82.4448 38.27 81.7048 38.3C82.0448 38.89 82.5648 39.65 82.7548 39.97C82.1648 39.97 81.6148 39.93 80.9248 39.9C81.2648 40.54 81.3448 40.83 81.6548 41.36C81.1948 41.36 80.3248 41.38 79.8448 41.3C79.9948 41.74 80.2648 42.33 80.3948 42.67C80.1248 42.67 79.6848 42.67 79.4248 42.69C77.4148 45.49 74.5748 48.43 69.2548 48.14C69.4048 48.6 69.5248 49.08 69.5648 49.08C70.3548 49.12 71.9448 48.98 73.1148 48.78C73.9248 49.68 75.3948 51.84 76.1548 55.12C76.7448 55.48 77.6748 57.1 78.1348 59.15C77.1848 59.7 76.3248 59.96 75.0948 60.1C74.6348 57.48 73.2848 57.39 72.6448 55.22C71.7248 55.34 70.4148 54.63 70.0548 53.35H68.8548C68.6248 55.87 69.1748 58.18 69.6348 60.15C69.8448 61.08 70.0348 61.93 70.1148 62.69C70.2648 64.22 69.6448 70.13 69.6248 72.57C70.7448 72.53 71.6048 72.81 71.5648 73.75C69.7948 73.2 66.7348 73.54 65.2948 75.94C64.9548 75.75 64.7248 74.76 65.3148 74.46C64.6248 73.72 64.0448 73.2 62.7948 73.56C63.3248 72.68 64.5748 72.1 68.3448 73.05C68.7248 71.76 69.0648 63.5 68.9948 61.73C68.9948 61.43 68.8248 60.88 68.5448 60.16C67.6348 57.87 65.6448 53.92 65.1748 51.25C64.5248 51.25 63.5748 51.38 63.2548 51.06C62.4448 50.25 60.6748 47.64 60.3248 45.09C59.7148 44.07 58.7048 40.15 61.7548 37.96C63.8648 36.43 68.7248 34.57 68.6948 32.8C68.6748 31.73 66.8748 30.94 66.2648 30.5C65.6548 30.16 65.8748 29.85 66.3948 29.34C69.2448 26.55 72.6348 29.28 70.6548 32.67C69.1948 35.16 61.8148 37.33 63.5048 42.01C65.1148 42.14 65.9048 42.73 66.5048 43.53C67.9748 43.02 73.6548 40.5 74.2048 33.28C75.6248 32.39 77.0948 31.41 78.4848 30.27C78.7548 32.1 78.4448 43.77 67.9148 46.45C68.1948 47.44 70.4648 47.73 71.7948 45.94C73.0948 46.24 74.6548 45.18 74.6848 44.17C75.8448 44.17 77.0748 42.89 76.8848 41.7C78.3048 41.22 78.9748 39.34 78.3648 37.92C79.5948 37.37 80.0148 35.91 79.4648 34.48C80.4548 33.81 80.7548 32.1 79.9248 31.02C80.4248 30.11 80.3048 29.34 79.9248 28.74C81.8248 26.97 84.2648 24.73 85.7848 21.99C85.9048 23.87 84.9048 25.43 83.7648 27.14C85.7848 25.85 86.2448 25.54 87.4948 24.55C87.1348 26.7 84.6648 28.68 83.8048 29.65C84.9748 29.18 86.7748 28.32 88.1248 27.6C86.9648 29.96 84.9448 31.31 83.7448 32.05C85.4048 31.75 86.5748 31.5 87.6548 31.12C86.6848 32.2 84.8848 33.42 82.8348 34.03C84.4848 34 85.7948 33.8 87.2248 33.38C86.1648 34.48 84.6048 35.53 82.7748 35.76C84.6448 35.76 84.9748 35.89 86.7348 35.71L86.7148 35.7Z" fill="#D7D7D7"/>
<path d="M76.7348 57.42C76.6548 57.16 76.3148 56.81 75.9048 56.17C75.4248 56.28 74.9348 56.32 74.3048 56.28C74.6848 57.12 74.6848 57.61 74.6848 57.57C75.2548 57.69 75.9748 57.6 76.7348 57.41V57.42Z" fill="#D7D7D7"/>
<path d="M73.7248 77.52C73.0848 77.71 72.3248 77.82 71.1548 77.82H69.7048C64.7548 77.72 59.6648 76.25 56.5548 73.06C60.8648 68.7 55.8048 65.13 53.0648 68.82C52.2148 69.97 51.5248 70.79 50.9348 71.91C50.4548 72.81 50.8148 73.72 51.8848 75.11C52.4748 75.87 53.9348 77.05 55.1248 77.83H30.3948C31.5848 77.06 33.0448 75.88 33.6348 75.11C34.7048 73.72 35.0648 72.81 34.5848 71.91C33.9948 70.79 33.3048 69.98 32.4548 68.82C29.7148 65.13 24.6548 68.7 28.9648 73.06C25.8448 76.24 20.7548 77.72 15.8048 77.82H14.4448C13.2848 77.82 12.5148 77.7 11.8748 77.52C10.8448 77.27 10.6148 77.71 11.1748 79.48C11.5548 80.66 11.8548 82.59 11.9948 83.9H73.6148C73.7448 82.58 74.0548 80.66 74.4348 79.48C74.9848 77.72 74.7548 77.28 73.7348 77.52H73.7248ZM54.4448 68.98C55.2548 67.9 56.4248 68.18 56.9148 69.09C57.4348 70.06 56.6748 71.24 55.6548 72.17C54.2448 70.65 54.0948 69.43 54.4348 68.98H54.4448ZM52.3948 74.04C51.8948 73.34 51.7248 72.93 51.9848 72.26C52.2348 71.6 52.7648 71.01 53.3148 70.19C54.1748 73.55 59.2448 76.76 62.9848 77.82H57.0248C55.4848 76.98 53.5348 75.62 52.4048 74.03L52.3948 74.04ZM28.6148 69.1C29.1048 68.19 30.2848 67.91 31.0848 68.99C31.4248 69.44 31.2748 70.66 29.8648 72.18C28.8448 71.25 28.0848 70.07 28.6048 69.1H28.6148ZM32.2348 70.19C32.7848 71.01 33.3048 71.6 33.5548 72.26C33.8148 72.93 33.6448 73.34 33.1448 74.04C32.0148 75.63 30.0648 76.99 28.5148 77.83H22.5548C26.2948 76.76 31.3648 73.56 32.2248 70.2L32.2348 70.19ZM13.0648 82.93C12.7948 81.03 12.4348 79.82 12.1148 78.8H73.5048C73.1748 79.83 72.8148 81.04 72.5548 82.93H13.0648Z" fill="#D7D7D7"/>
<path d="M21.1248 81.58C21.1248 81.58 21.1548 81.58 21.1548 81.61L21.3148 82.05C21.3148 82.05 21.3148 82.12 21.2848 82.13C21.2448 82.13 21.2348 82.14 21.2348 82.16C21.2348 82.18 21.2748 82.18 21.3448 82.19C21.6248 82.19 21.8848 82.19 22.0148 82.19C22.1448 82.19 22.1748 82.19 22.1748 82.16C22.1748 82.13 22.1548 82.13 22.1348 82.13C22.0948 82.13 22.0348 82.13 21.9848 82.11C21.9048 82.09 21.8048 82.05 21.6748 81.73C21.4548 81.19 20.8848 79.76 20.8048 79.57C20.7648 79.48 20.7448 79.45 20.7148 79.45C20.6848 79.45 20.6648 79.49 20.6148 79.59L19.7248 81.8C19.6548 81.98 19.5948 82.1 19.4248 82.12C19.3948 82.12 19.3448 82.12 19.3148 82.12C19.2848 82.12 19.2748 82.13 19.2748 82.15C19.2748 82.18 19.2948 82.18 19.3448 82.18C19.5248 82.18 19.7248 82.17 19.7648 82.17C19.8748 82.17 20.0248 82.18 20.1448 82.18C20.1848 82.18 20.2048 82.18 20.2048 82.15C20.2048 82.13 20.2048 82.12 20.1548 82.12H20.1048C19.9948 82.12 19.9648 82.07 19.9648 82.01C19.9648 81.97 19.9848 81.88 20.0148 81.79L20.0848 81.61C20.0848 81.61 20.1048 81.57 20.1148 81.57H21.1348L21.1248 81.58ZM20.1748 81.41C20.1748 81.41 20.1548 81.41 20.1648 81.38L20.6048 80.2C20.6048 80.2 20.6048 80.18 20.6248 80.18C20.6348 80.18 20.6348 80.2 20.6448 80.2L21.0848 81.39C21.0848 81.39 21.0848 81.41 21.0648 81.41H20.1748Z" fill="#D7D7D7"/>
<path d="M22.8848 81.07C22.8848 81.58 23.0248 81.84 23.1948 82.01C23.4548 82.24 23.7948 82.25 23.9748 82.25C24.2048 82.25 24.4548 82.21 24.7048 82C25.0048 81.75 25.0448 81.33 25.0448 80.94V80.56C25.0448 80.03 25.0448 79.93 25.0448 79.81C25.0448 79.69 25.0748 79.63 25.1748 79.61C25.2148 79.61 25.2348 79.61 25.2748 79.61C25.3148 79.61 25.3348 79.61 25.3348 79.58C25.3348 79.55 25.3148 79.55 25.2648 79.55C25.1348 79.55 24.9048 79.55 24.8648 79.55C24.8648 79.55 24.6348 79.55 24.4548 79.55C24.4048 79.55 24.3848 79.55 24.3848 79.58C24.3848 79.6 24.4048 79.61 24.4448 79.61C24.4848 79.61 24.5448 79.61 24.5748 79.61C24.6948 79.64 24.7148 79.69 24.7248 79.81C24.7248 79.93 24.7248 80.02 24.7248 80.56V81C24.7248 81.36 24.7248 81.68 24.5248 81.87C24.3848 82.01 24.1948 82.06 24.0348 82.06C23.9148 82.06 23.7548 82.06 23.5948 81.91C23.4248 81.77 23.3148 81.56 23.3148 81.05V80.56C23.3148 80.03 23.3148 79.93 23.3148 79.81C23.3148 79.69 23.3548 79.63 23.4448 79.61C23.4848 79.61 23.5148 79.61 23.5448 79.61C23.5748 79.61 23.6048 79.61 23.6048 79.58C23.6048 79.55 23.5848 79.55 23.5248 79.55C23.4048 79.55 23.1748 79.55 23.0948 79.55C22.9848 79.55 22.7648 79.55 22.5748 79.55C22.5248 79.55 22.4948 79.55 22.4948 79.58C22.4948 79.6 22.5148 79.61 22.5548 79.61C22.6048 79.61 22.6648 79.61 22.6948 79.61C22.8148 79.64 22.8348 79.69 22.8448 79.81C22.8448 79.93 22.8448 80.02 22.8448 80.56V81.08L22.8848 81.07Z" fill="#D7D7D7"/>
<path d="M26.5448 81.17C26.5448 81.5 26.5448 81.78 26.5248 81.92C26.5148 82.02 26.4948 82.1 26.4248 82.11C26.3948 82.11 26.3448 82.13 26.2948 82.13C26.2548 82.13 26.2348 82.14 26.2348 82.16C26.2348 82.18 26.2648 82.19 26.3048 82.19C26.4448 82.19 26.6648 82.18 26.7448 82.18C26.9248 82.18 27.2348 82.22 27.4948 82.22C28.1448 82.22 28.5148 81.97 28.6748 81.8C28.8748 81.6 29.0548 81.27 29.0548 80.81C29.0548 80.4 28.8848 80.1 28.7148 79.93C28.3348 79.52 27.7448 79.52 27.3048 79.52C27.0948 79.52 26.8748 79.52 26.7648 79.52C26.6648 79.52 26.4448 79.52 26.2548 79.52C26.2048 79.52 26.1748 79.52 26.1748 79.55C26.1748 79.57 26.1948 79.58 26.2348 79.58C26.2848 79.58 26.3448 79.58 26.3748 79.58C26.4848 79.61 26.5148 79.66 26.5248 79.78C26.5348 79.9 26.5348 79.99 26.5348 80.53V81.15L26.5448 81.17ZM26.9848 80.5C26.9848 80.22 26.9848 79.91 26.9848 79.8C26.9848 79.76 26.9948 79.74 27.0248 79.72C27.0548 79.7 27.1848 79.69 27.2548 79.69C27.5348 79.69 27.9348 79.73 28.2548 80.05C28.4048 80.2 28.5948 80.48 28.5948 80.93C28.5948 81.29 28.5248 81.62 28.3048 81.8C28.0948 81.99 27.8548 82.06 27.4948 82.06C27.2148 82.06 27.0748 81.98 27.0348 81.92C27.0048 81.88 26.9948 81.74 26.9948 81.64C26.9948 81.58 26.9948 81.31 26.9948 80.94V80.5H26.9848Z" fill="#D7D7D7"/>
<path d="M31.3848 81.58C31.3848 81.58 31.4148 81.58 31.4248 81.61L31.5848 82.05C31.5848 82.05 31.5848 82.12 31.5548 82.13C31.5148 82.13 31.5048 82.14 31.5048 82.16C31.5048 82.18 31.5448 82.18 31.6148 82.19C31.8948 82.19 32.1548 82.19 32.2848 82.19C32.4148 82.19 32.4448 82.19 32.4448 82.16C32.4448 82.13 32.4248 82.13 32.3948 82.13C32.3548 82.13 32.2948 82.13 32.2448 82.11C32.1648 82.09 32.0648 82.05 31.9348 81.73C31.7148 81.19 31.1448 79.76 31.0648 79.57C31.0248 79.48 31.0048 79.45 30.9748 79.45C30.9448 79.45 30.9148 79.49 30.8748 79.59L29.9948 81.8C29.9248 81.98 29.8548 82.1 29.6948 82.12C29.6648 82.12 29.6148 82.12 29.5848 82.12C29.5548 82.12 29.5448 82.13 29.5448 82.15C29.5448 82.18 29.5648 82.18 29.6148 82.18C29.8048 82.18 29.9948 82.17 30.0348 82.17C30.1448 82.17 30.2948 82.18 30.4148 82.18C30.4548 82.18 30.4748 82.18 30.4748 82.15C30.4748 82.13 30.4748 82.12 30.4248 82.12H30.3748C30.2648 82.12 30.2348 82.07 30.2348 82.01C30.2348 81.97 30.2548 81.88 30.2848 81.79L30.3548 81.61C30.3548 81.61 30.3748 81.57 30.3848 81.57H31.4048L31.3848 81.58ZM30.4348 81.41C30.4348 81.41 30.4148 81.41 30.4248 81.38L30.8648 80.2C30.8648 80.2 30.8648 80.18 30.8848 80.18C30.9048 80.18 30.8948 80.2 30.9048 80.2L31.3448 81.39C31.3448 81.39 31.3448 81.41 31.3248 81.41H30.4348Z" fill="#D7D7D7"/>
<path d="M34.8348 79.89C34.9448 79.73 35.0148 79.64 35.0948 79.62C35.1448 79.6 35.1848 79.59 35.2248 79.59C35.2648 79.59 35.2848 79.59 35.2848 79.56C35.2848 79.53 35.2548 79.53 35.2248 79.53C35.0948 79.53 34.9448 79.53 34.8748 79.53C34.8048 79.53 34.6648 79.53 34.5248 79.53C34.4748 79.53 34.4548 79.53 34.4548 79.56C34.4548 79.59 34.4748 79.59 34.4948 79.59C34.5248 79.59 34.5748 79.59 34.6048 79.59C34.6348 79.61 34.6648 79.63 34.6648 79.66C34.6648 79.68 34.6648 79.74 34.6248 79.79C34.5748 79.89 34.2448 80.38 34.1448 80.53C34.0048 80.3 33.8448 80.04 33.6948 79.75C33.6748 79.71 33.6648 79.67 33.6648 79.65C33.6648 79.62 33.6748 79.6 33.7048 79.59C33.7348 79.58 33.7848 79.57 33.8048 79.57C33.8348 79.57 33.8548 79.57 33.8548 79.54C33.8548 79.51 33.8348 79.51 33.7848 79.51C33.6548 79.51 33.4548 79.51 33.4048 79.51C33.2348 79.51 32.9548 79.51 32.8648 79.51C32.8148 79.51 32.7948 79.51 32.7948 79.53C32.7948 79.56 32.8048 79.57 32.8248 79.57C32.8648 79.57 32.9148 79.57 32.9748 79.6C33.1048 79.64 33.1848 79.72 33.2648 79.86L33.8748 80.86L33.2048 81.83C33.0848 82 33.0148 82.06 32.9148 82.09C32.8648 82.11 32.8048 82.11 32.7848 82.11C32.7548 82.11 32.7348 82.12 32.7348 82.15C32.7348 82.17 32.7548 82.18 32.7848 82.18H32.8448C32.9048 82.18 33.0748 82.17 33.1448 82.17C33.2348 82.17 33.4548 82.18 33.4748 82.18H33.5448C33.5448 82.18 33.6148 82.18 33.6148 82.15C33.6148 82.12 33.5948 82.11 33.5748 82.11C33.5448 82.11 33.5148 82.11 33.4948 82.11C33.4648 82.11 33.4348 82.09 33.4248 82.05C33.4248 82.01 33.4348 81.96 33.4748 81.91L33.9948 81.07C34.1548 81.33 34.3548 81.69 34.5548 82.03C34.5748 82.07 34.5548 82.11 34.5548 82.11C34.5248 82.11 34.5048 82.13 34.5048 82.15C34.5048 82.17 34.5348 82.18 34.6248 82.19C34.8948 82.19 35.1748 82.19 35.2548 82.19H35.3648C35.3648 82.19 35.4348 82.18 35.4348 82.16C35.4348 82.14 35.4148 82.13 35.3948 82.13C35.3648 82.13 35.3148 82.13 35.2548 82.11C35.1648 82.08 35.1148 82.04 35.0548 81.96C34.9648 81.85 34.3948 80.9 34.2848 80.72L34.8648 79.89H34.8348Z" fill="#D7D7D7"/>
<path d="M40.5948 81.58C40.5948 81.58 40.6248 81.58 40.6248 81.61L40.7848 82.05C40.7848 82.05 40.7848 82.12 40.7548 82.13C40.7248 82.13 40.7048 82.14 40.7048 82.16C40.7048 82.18 40.7448 82.18 40.8148 82.19C41.0948 82.19 41.3548 82.19 41.4848 82.19C41.6148 82.19 41.6448 82.19 41.6448 82.16C41.6448 82.13 41.6248 82.13 41.5948 82.13C41.5548 82.13 41.5048 82.13 41.4448 82.11C41.3648 82.09 41.2648 82.05 41.1348 81.73C40.9048 81.19 40.3448 79.76 40.2648 79.57C40.2248 79.48 40.2048 79.45 40.1748 79.45C40.1448 79.45 40.1248 79.49 40.0748 79.59L39.1948 81.8C39.1248 81.98 39.0548 82.1 38.8948 82.12C38.8648 82.12 38.8148 82.12 38.7848 82.12C38.7548 82.12 38.7448 82.13 38.7448 82.15C38.7448 82.18 38.7648 82.18 38.8148 82.18C38.9948 82.18 39.1948 82.17 39.2348 82.17C39.3448 82.17 39.4948 82.18 39.6048 82.18C39.6448 82.18 39.6648 82.18 39.6648 82.15C39.6648 82.13 39.6548 82.12 39.6148 82.12H39.5648C39.4548 82.12 39.4248 82.07 39.4248 82.01C39.4248 81.97 39.4448 81.88 39.4748 81.79L39.5548 81.61C39.5548 81.61 39.5648 81.57 39.5848 81.57H40.6048L40.5948 81.58ZM39.6348 81.41C39.6348 81.41 39.6148 81.41 39.6148 81.38L40.0548 80.2C40.0548 80.2 40.0648 80.18 40.0748 80.18C40.0848 80.18 40.0948 80.2 40.0948 80.2L40.5448 81.39C40.5448 81.39 40.5448 81.41 40.5248 81.41H39.6248H39.6348Z" fill="#D7D7D7"/>
<path d="M42.7548 81.17C42.7548 81.5 42.7548 81.78 42.7348 81.92C42.7348 82.02 42.7048 82.1 42.6348 82.11C42.6048 82.11 42.5548 82.13 42.5048 82.13C42.4648 82.13 42.4448 82.14 42.4448 82.16C42.4448 82.18 42.4748 82.19 42.5148 82.19C42.6548 82.19 42.8748 82.18 42.9548 82.18C43.0548 82.18 43.2748 82.19 43.5048 82.19C43.5448 82.19 43.5748 82.18 43.5748 82.16C43.5748 82.14 43.5548 82.13 43.5148 82.13C43.4648 82.13 43.3848 82.13 43.3348 82.11C43.2248 82.11 43.2048 82.02 43.1948 81.92C43.1748 81.77 43.1748 81.49 43.1748 81.17V79.73H43.6148C43.9248 79.75 44.0248 79.84 44.0348 79.94V79.97C44.0348 80.03 44.0548 80.04 44.0748 80.04C44.0948 80.04 44.1048 80.02 44.1048 79.98C44.1048 79.89 44.1148 79.65 44.1148 79.58C44.1148 79.52 44.1148 79.5 44.0848 79.5C44.0548 79.5 43.9748 79.53 43.7448 79.53H42.3548C42.2348 79.53 42.1048 79.53 42.0048 79.51C41.9148 79.51 41.8848 79.47 41.8548 79.47C41.8348 79.47 41.8248 79.5 41.8148 79.55C41.8148 79.57 41.7348 79.89 41.7348 79.95C41.7348 79.99 41.7348 80.01 41.7648 80.01C41.7948 80.01 41.7948 80 41.8048 79.97C41.8048 79.94 41.8348 79.9 41.8648 79.84C41.9148 79.77 42.0048 79.75 42.2148 79.74H42.7348V81.17H42.7548Z" fill="#D7D7D7"/>
<path d="M48.8848 80.88C48.8848 80.88 48.8848 80.85 48.9148 80.85C48.9748 80.85 49.3448 80.85 49.4348 80.86C49.5448 80.86 49.5948 80.93 49.6148 80.99C49.6348 81.02 49.6348 81.08 49.6348 81.1C49.6348 81.13 49.6348 81.15 49.6648 81.15C49.6948 81.15 49.6948 81.12 49.6948 81.08C49.6948 81.06 49.6948 80.89 49.7148 80.82C49.7148 80.72 49.7448 80.63 49.7448 80.61C49.7448 80.59 49.7448 80.58 49.7248 80.58C49.7048 80.58 49.6948 80.6 49.6748 80.62C49.6448 80.66 49.5948 80.68 49.5248 80.69H48.9148C48.9148 80.69 48.8848 80.69 48.8848 80.66V79.78C48.8848 79.78 48.8948 79.72 48.9148 79.72H49.4548C49.5848 79.74 49.6648 79.79 49.6848 79.84C49.7048 79.89 49.7048 79.95 49.7048 79.97C49.7048 80.01 49.7048 80.03 49.7348 80.03C49.7648 80.03 49.7648 80.01 49.7748 79.97C49.7748 79.94 49.7848 79.72 49.7848 79.69C49.7948 79.6 49.8148 79.55 49.8148 79.53C49.8148 79.51 49.8048 79.5 49.7848 79.5C49.7648 79.5 49.7548 79.5 49.7348 79.52C49.7048 79.53 49.6548 79.53 49.5848 79.54C49.5048 79.54 48.7848 79.54 48.6548 79.54C48.5548 79.54 48.3348 79.54 48.1448 79.54C48.0948 79.54 48.0648 79.54 48.0648 79.58C48.0648 79.6 48.0848 79.6 48.1248 79.6C48.1748 79.6 48.2348 79.6 48.2648 79.6C48.3848 79.63 48.4148 79.68 48.4148 79.8C48.4148 79.92 48.4148 80.01 48.4148 80.55V81.17C48.4148 81.51 48.4148 81.78 48.3948 81.92C48.3848 82.02 48.3648 82.1 48.2948 82.11C48.2648 82.11 48.2248 82.13 48.1648 82.13C48.1248 82.13 48.1148 82.14 48.1148 82.16C48.1148 82.19 48.1348 82.19 48.1848 82.19C48.3248 82.19 48.5448 82.18 48.6348 82.18C48.7348 82.18 48.9548 82.19 49.1748 82.19C49.2248 82.19 49.2548 82.18 49.2548 82.16C49.2548 82.14 49.2448 82.13 49.1948 82.13C49.1448 82.13 49.0648 82.13 49.0148 82.11C48.9048 82.11 48.8848 82.02 48.8748 81.92C48.8548 81.77 48.8548 81.51 48.8548 81.17V80.88H48.8848Z" fill="#D7D7D7"/>
<path d="M51.1448 81.17C51.1448 81.52 51.1448 81.8 51.1248 81.94C51.1248 82.04 51.0948 82.1 51.0148 82.11C50.9848 82.11 50.9348 82.13 50.8948 82.13C50.8548 82.13 50.8348 82.14 50.8348 82.16C50.8348 82.18 50.8548 82.19 50.9048 82.19C51.0448 82.19 51.2648 82.18 51.3548 82.18C51.4448 82.18 51.6748 82.19 51.9048 82.19C51.9448 82.19 51.9748 82.18 51.9748 82.16C51.9748 82.14 51.9548 82.13 51.9148 82.13C51.8648 82.13 51.7848 82.13 51.7348 82.11C51.6248 82.11 51.6048 82.04 51.5948 81.94C51.5748 81.79 51.5748 81.51 51.5748 81.16V80.54C51.5748 80.01 51.5748 79.91 51.5748 79.79C51.5748 79.67 51.6048 79.61 51.7048 79.59C51.7448 79.59 51.7748 79.59 51.8148 79.59C51.8448 79.59 51.8648 79.59 51.8648 79.55C51.8648 79.53 51.8348 79.53 51.7948 79.53C51.6648 79.53 51.4548 79.53 51.3648 79.53C51.2648 79.53 51.0448 79.53 50.9048 79.53C50.8448 79.53 50.8248 79.53 50.8248 79.55C50.8248 79.58 50.8448 79.59 50.8848 79.59C50.9248 79.59 50.9748 79.59 51.0148 79.61C51.0948 79.63 51.1248 79.69 51.1348 79.8C51.1348 79.92 51.1348 80.01 51.1348 80.55V81.17H51.1448Z" fill="#D7D7D7"/>
<path d="M53.2548 81.17C53.2548 81.5 53.2548 81.78 53.2348 81.92C53.2248 82.02 53.2048 82.1 53.1348 82.11C53.1048 82.11 53.0548 82.13 53.0048 82.13C52.9648 82.13 52.9448 82.14 52.9448 82.16C52.9448 82.18 52.9748 82.19 53.0148 82.19C53.1548 82.19 53.3748 82.18 53.4548 82.18C53.6348 82.18 53.9548 82.22 54.2048 82.22C54.8548 82.22 55.2248 81.97 55.3848 81.8C55.5748 81.6 55.7648 81.27 55.7648 80.81C55.7648 80.4 55.6048 80.1 55.4248 79.93C55.0448 79.52 54.4548 79.52 54.0148 79.52C53.8048 79.52 53.5748 79.52 53.4748 79.52C53.3748 79.52 53.1548 79.52 52.9648 79.52C52.9148 79.52 52.8848 79.52 52.8848 79.55C52.8848 79.57 52.9048 79.58 52.9448 79.58C52.9948 79.58 53.0548 79.58 53.0848 79.58C53.1948 79.61 53.2248 79.66 53.2348 79.78C53.2348 79.9 53.2348 79.99 53.2348 80.53V81.15L53.2548 81.17ZM53.6948 79.8C53.6948 79.8 53.7048 79.74 53.7348 79.72C53.7648 79.7 53.8948 79.69 53.9648 79.69C54.2348 79.69 54.6448 79.73 54.9648 80.05C55.1148 80.2 55.3048 80.48 55.3048 80.93C55.3048 81.29 55.2348 81.62 55.0048 81.8C54.7948 81.99 54.5548 82.06 54.1948 82.06C53.9148 82.06 53.7748 81.98 53.7348 81.92C53.7048 81.88 53.7048 81.74 53.6948 81.64C53.6948 81.58 53.6948 81.31 53.6948 80.94V79.8Z" fill="#D7D7D7"/>
<path d="M57.0148 81.17C57.0148 81.5 57.0148 81.78 56.9948 81.92C56.9848 82.02 56.9648 82.1 56.8948 82.11C56.8648 82.11 56.8248 82.13 56.7648 82.13C56.7248 82.13 56.7048 82.14 56.7048 82.16C56.7048 82.18 56.7348 82.19 56.7748 82.19C56.9148 82.19 57.1348 82.18 57.2148 82.18C57.4248 82.18 57.6548 82.2 58.1848 82.2C58.3148 82.2 58.3548 82.2 58.3748 82.11C58.3948 82.04 58.4248 81.8 58.4248 81.72C58.4248 81.69 58.4248 81.65 58.3948 81.65C58.3648 81.65 58.3648 81.67 58.3548 81.71C58.3248 81.85 58.2848 81.93 58.1948 81.97C58.1048 82.01 57.9548 82.01 57.8648 82.01C57.5048 82.01 57.4548 81.96 57.4448 81.72C57.4448 81.62 57.4448 81.29 57.4448 81.17V80.89C57.4448 80.89 57.4448 80.86 57.4648 80.86C57.5448 80.86 57.8948 80.86 57.9648 80.88C58.0948 80.88 58.1448 80.94 58.1648 81.01C58.1648 81.06 58.1648 81.1 58.1848 81.13C58.1848 81.15 58.1848 81.17 58.2148 81.17C58.2448 81.17 58.2448 81.13 58.2448 81.1C58.2448 81.08 58.2448 80.93 58.2548 80.87C58.2548 80.69 58.2848 80.62 58.2848 80.61C58.2848 80.59 58.2748 80.58 58.2548 80.58C58.2448 80.58 58.2248 80.6 58.2048 80.63C58.1748 80.67 58.1148 80.67 58.0348 80.69C57.9548 80.69 57.5448 80.69 57.4748 80.69C57.4548 80.69 57.4548 80.67 57.4548 80.65V79.76C57.4548 79.76 57.4548 79.73 57.4748 79.73C57.5448 79.73 57.9148 79.73 57.9748 79.74C58.1548 79.76 58.1848 79.81 58.2048 79.87C58.2248 79.91 58.2348 79.97 58.2348 80C58.2348 80.03 58.2348 80.05 58.2648 80.05C58.2948 80.05 58.2948 80.02 58.3048 80.01C58.3048 79.97 58.3148 79.81 58.3248 79.78C58.3348 79.62 58.3548 79.57 58.3548 79.55C58.3548 79.53 58.3548 79.52 58.3348 79.52C58.3148 79.52 58.2948 79.52 58.2748 79.52C58.2448 79.52 58.1948 79.54 58.1248 79.54C58.0648 79.54 57.3548 79.54 57.2448 79.54C57.1448 79.54 56.9248 79.54 56.7448 79.54C56.6948 79.54 56.6648 79.54 56.6648 79.57C56.6648 79.59 56.6848 79.6 56.7248 79.6C56.7748 79.6 56.8348 79.6 56.8648 79.6C56.9848 79.63 57.0048 79.68 57.0148 79.8C57.0148 79.92 57.0148 80.01 57.0148 80.55V81.17Z" fill="#D7D7D7"/>
<path d="M60.1948 80.55C60.1948 80.02 60.1948 79.92 60.1948 79.8C60.1948 79.68 60.2348 79.62 60.3248 79.6C60.3748 79.6 60.4248 79.6 60.4648 79.6C60.5048 79.6 60.5248 79.6 60.5248 79.57C60.5248 79.54 60.5048 79.54 60.4548 79.54C60.3148 79.54 60.0648 79.54 59.9748 79.54C59.8748 79.54 59.6548 79.54 59.4948 79.54C59.4448 79.54 59.4248 79.54 59.4248 79.57C59.4248 79.59 59.4448 79.6 59.4848 79.6C59.5348 79.6 59.5748 79.6 59.6048 79.6C59.7248 79.63 59.7548 79.68 59.7548 79.8C59.7548 79.92 59.7548 80.01 59.7548 80.55V81.17C59.7548 81.5 59.7548 81.78 59.7348 81.92C59.7248 82.02 59.7048 82.1 59.6348 82.11C59.6048 82.11 59.5648 82.13 59.5048 82.13C59.4648 82.13 59.4448 82.14 59.4448 82.16C59.4448 82.18 59.4748 82.19 59.5148 82.19C59.6548 82.19 59.8748 82.18 59.9548 82.18C60.2348 82.18 60.4748 82.2 60.9748 82.2C61.1648 82.2 61.1748 82.19 61.1948 82.11C61.2248 82 61.2448 81.75 61.2448 81.7C61.2448 81.65 61.2448 81.64 61.2148 81.64C61.1848 81.64 61.1848 81.66 61.1748 81.7C61.1748 81.76 61.1248 81.86 61.0848 81.9C60.9948 82 60.8548 82 60.6748 82C60.3948 82 60.3048 81.98 60.2448 81.93C60.1748 81.86 60.1748 81.62 60.1748 81.17V80.55H60.1948Z" fill="#D7D7D7"/>
<path d="M62.3848 81.17C62.3848 81.52 62.3848 81.8 62.3748 81.94C62.3648 82.04 62.3448 82.1 62.2748 82.11C62.2448 82.11 62.2048 82.13 62.1448 82.13C62.1048 82.13 62.0948 82.14 62.0948 82.16C62.0948 82.18 62.1248 82.19 62.1648 82.19C62.3148 82.19 62.5248 82.18 62.6048 82.18C62.6948 82.18 62.9248 82.19 63.1548 82.19C63.1848 82.19 63.2148 82.18 63.2148 82.16C63.2148 82.14 63.1948 82.13 63.1548 82.13C63.1048 82.13 63.0348 82.13 62.9748 82.11C62.8648 82.11 62.8448 82.04 62.8348 81.94C62.8248 81.79 62.8248 81.51 62.8248 81.16V80.54C62.8248 80.01 62.8248 79.91 62.8248 79.79C62.8248 79.67 62.8648 79.61 62.9548 79.59C63.0048 79.59 63.0248 79.59 63.0648 79.59C63.1048 79.59 63.1248 79.59 63.1248 79.55C63.1248 79.53 63.0948 79.53 63.0548 79.53C62.9248 79.53 62.7148 79.53 62.6248 79.53C62.5248 79.53 62.3048 79.53 62.1648 79.53C62.1048 79.53 62.0748 79.53 62.0748 79.55C62.0748 79.58 62.0948 79.59 62.1348 79.59C62.1748 79.59 62.2248 79.59 62.2648 79.61C62.3448 79.63 62.3848 79.69 62.3848 79.8C62.3848 79.92 62.3848 80.01 62.3848 80.55V81.17Z" fill="#D7D7D7"/>
<path d="M64.8148 82.24C65.0048 82.24 65.1948 82.21 65.3748 82.09C65.6348 81.93 65.7048 81.68 65.7048 81.48C65.7048 81.14 65.5448 80.91 65.1248 80.58L65.0248 80.5C64.7348 80.28 64.6548 80.16 64.6548 79.99C64.6548 79.78 64.8148 79.63 65.0748 79.63C65.3048 79.63 65.4048 79.74 65.4548 79.8C65.5348 79.89 65.5448 80 65.5448 80.03C65.5448 80.07 65.5548 80.09 65.5848 80.09C65.6148 80.09 65.6248 80.07 65.6248 79.99C65.6248 79.71 65.6348 79.61 65.6348 79.57C65.6348 79.54 65.6148 79.54 65.5848 79.52C65.4948 79.49 65.3448 79.46 65.1148 79.46C64.6248 79.46 64.2948 79.74 64.2948 80.14C64.2948 80.42 64.4248 80.67 64.8148 80.97L64.9748 81.1C65.2648 81.33 65.3248 81.49 65.3248 81.67C65.3248 81.85 65.1648 82.07 64.8548 82.07C64.6348 82.07 64.4248 81.98 64.3548 81.72C64.3348 81.66 64.3148 81.59 64.3148 81.54C64.3148 81.51 64.3148 81.48 64.2848 81.48C64.2548 81.48 64.2448 81.52 64.2448 81.57C64.2448 81.62 64.2248 81.84 64.2248 82.03C64.2248 82.11 64.2248 82.13 64.2848 82.16C64.4348 82.22 64.5948 82.25 64.8048 82.25L64.8148 82.24Z" fill="#D7D7D7"/>
<path d="M54.2348 9.78C54.2648 9.25 53.2848 8.85 53.0348 8.83C52.6248 8.8 52.1048 9.66 51.5648 10.2C51.0948 7.67 51.3348 6.58 51.6048 5.46C52.6748 7.4 54.1148 7.82 54.8748 7.72C52.3048 5.66 52.7548 3.8 51.9648 3.71C51.5148 3.66 51.2048 3.69 50.9748 3.69C50.0748 3.69 49.9448 5.44 49.8348 6.24C49.2448 5.15 48.6748 4.24 47.6848 2.99C46.7348 0.55 45.5748 1.16 44.3948 0.06C45.3048 1.45 44.5648 2.3 46.6948 3.31C47.2448 3.84 47.8948 4.66 48.3248 5.32C47.9648 5.79 47.7248 6.07 47.3948 6.38C47.1248 6.78 46.9948 8.28 46.1748 9.42C47.3948 8.89 47.8648 8.15 48.3048 7.42C52.1448 10.32 49.0248 17.72 48.1348 19.35C47.2848 18.78 46.2048 18.46 45.2148 18.28L45.1148 17.95L44.2148 15.03H44.6348C45.1148 15.03 45.2248 14.71 45.1548 14.45L47.8048 15.27L48.9748 15.63L48.2548 14.63L47.0248 12.93L48.2548 11.23L48.9748 10.23L47.8048 10.59L45.4248 11.33C45.2548 10.79 44.8148 10.53 44.3248 10.46L45.1248 7.75L45.4748 6.59L42.7948 8.53L40.1148 6.59L40.4548 7.75L41.2548 10.46C40.7648 10.53 40.3248 10.79 40.1548 11.33L37.7748 10.59L36.6048 10.23L37.3248 11.23L38.5548 12.93L37.3248 14.63L36.6048 15.63L40.4348 14.45C40.3548 14.7 40.4648 15.03 40.9448 15.03H41.3548L40.4548 17.95L40.3548 18.28C39.3448 18.46 38.2348 18.79 37.3748 19.39C34.7848 14.37 35.5148 9.29 37.6848 7.61C37.6448 8.68 38.5848 10.12 39.0148 10.42C38.7248 9.32 39.2248 7.35 38.6548 6.86C38.2548 6.52 37.6448 6.34 36.9948 6.37C37.4348 5.65 38.0348 4.74 39.0648 3.38C40.5848 2.66 41.0248 0.89 41.4048 0C39.7448 0.6 38.5348 1.46 38.2648 2.85C37.6748 3.63 37.0248 4.54 36.3048 5.62C36.3448 4.3 35.6248 3.85 34.6648 3.78C31.8748 4.36 32.0848 6.38 29.6848 7.77C31.3248 8.34 33.8848 4.75 34.7648 5.14C34.8948 7.35 34.4048 9.08 34.4048 10.28C33.9848 9.82 33.7748 9.5 33.4148 9.44C33.0748 9.39 32.1348 9.46 31.4948 10.17C31.3148 11.28 31.3648 13.38 30.3148 15.89C31.8748 14.46 32.6148 11.67 32.8548 10.85C33.2548 11.4 33.6948 12.6 33.7848 13.64C33.9648 15.64 35.2048 18.98 36.2548 20.59C35.9648 21.15 35.8748 21.78 35.9848 22.48C35.1648 23.08 35.0748 23.93 35.3548 24.5C35.6548 25.11 36.4548 25.52 37.3948 25.15L37.6948 25.03C38.6848 24.62 40.5248 23.86 42.7548 23.86C44.9848 23.86 46.8348 24.62 47.8248 25.03L48.1148 25.15C49.0548 25.52 49.8548 25.11 50.1548 24.5C50.4448 23.93 50.3448 23.08 49.5248 22.48C49.6348 21.73 49.5248 21.06 49.1748 20.47L49.2048 20.5C51.1148 17.78 51.2448 12.58 52.8148 11.1C52.9448 12.93 53.9148 14.43 54.8648 14.63C54.1048 13.38 54.1048 10.89 54.1548 9.75L54.2348 9.78ZM45.4848 12.2L46.8848 11.77L46.1948 12.72L46.0248 12.96L46.1948 13.2L46.8848 14.15L45.1048 13.6C45.2648 13.22 45.3948 12.81 45.4748 12.21L45.4848 12.2ZM38.7248 14.14L39.4048 13.19L39.5848 12.95L39.4048 12.71L38.7248 11.76L40.1348 12.19C40.2148 12.79 40.3448 13.2 40.5048 13.58L38.7248 14.13V14.14ZM44.3148 13.68H43.2048L43.3348 11.7C45.0148 10.96 44.8548 12.5 44.3148 13.68ZM43.9948 17.04L43.0448 16.35L42.8048 16.17L42.5648 16.35L41.6148 17.04L42.2248 15.05H43.3648L43.9848 17.04H43.9948ZM42.5648 9.41L42.8048 9.58L43.0448 9.41L44.0048 8.71L43.4548 10.58C43.4548 10.58 43.4148 10.59 43.3948 10.6C43.2948 10.37 43.0648 10.21 42.8048 10.21C42.5448 10.21 42.3148 10.37 42.2148 10.6C42.1948 10.6 42.1848 10.59 42.1648 10.58L41.6148 8.71L42.5748 9.41H42.5648ZM41.2948 13.68C40.7548 12.5 40.6048 10.96 42.2748 11.7L42.4048 13.68H41.2948ZM42.8048 17.19L44.1348 18.15C43.5648 18.1 43.0948 18.09 42.8048 18.09C42.5148 18.09 42.0448 18.1 41.4748 18.15L42.8048 17.19ZM37.3548 24.12L37.0648 24.24C36.6748 24.39 36.4048 24.27 36.3048 24.08C36.2048 23.88 36.2648 23.54 36.7548 23.24C36.8148 23.2 36.8848 23.17 36.9548 23.13L37.8848 23.9C37.6848 23.98 37.5048 24.05 37.3448 24.12H37.3548ZM40.5448 23.1L39.5648 22.14C40.3648 21.94 41.2148 21.8 42.0448 21.75L42.6348 22.88C41.8948 22.9 41.1948 22.98 40.5548 23.11L40.5448 23.1ZM45.9448 23.3L45.3748 21.98C46.2348 22.16 47.0648 22.4 47.8048 22.71L48.1348 24.06C47.5948 23.84 46.8448 23.54 45.9448 23.29V23.3ZM42.8048 20.7C40.9648 20.7 38.8848 21.14 37.2848 21.83C37.3148 21.48 37.4348 21.17 37.6648 20.89C38.5948 19.77 41.0148 19.37 42.8048 19.37C44.5948 19.37 47.0248 19.77 47.9548 20.89C48.1848 21.16 48.3048 21.47 48.3348 21.83C46.7348 21.13 44.6848 20.7 42.8148 20.7H42.8048Z" fill="#D7D7D7"/>
<path d="M29.6448 49.98C29.8948 47.85 29.5548 47.69 28.9348 47.19C28.4048 46.75 27.5248 46.61 26.6548 46.01C26.0248 45.57 25.8548 44.95 25.0548 44.11C25.2448 41.92 27.6048 39.24 28.4048 39.64L28.4248 38.55C27.3948 38.21 25.5748 39.2 24.0148 42.89C23.8448 42.7 23.6948 42.62 23.5248 42.51C23.6448 41.66 23.3548 40.95 22.8248 40.3C23.3648 39.94 24.9648 39.19 25.8848 38.53C26.9148 37.79 27.1048 37.48 28.3648 37.79C28.3648 37.79 28.5948 37.52 28.6648 37.22C27.7548 36.05 26.4148 36.38 25.5048 37.45C24.7848 38.03 23.1548 39.13 22.0248 39.51C20.4948 38.22 18.1148 37.08 16.3748 35.34C16.3748 35.34 18.6748 35.32 19.7448 34.88C20.0248 34.71 20.7648 33.53 20.4648 32.4C20.1048 32.27 19.5948 32.01 19.0848 31.72C18.4548 31.37 17.8448 30.98 17.5648 30.77C16.5548 30.01 16.1548 29.34 14.4248 28.91C14.5348 28.11 14.7048 28.3 15.4748 27.79C16.4448 27.14 16.9848 26.34 17.3748 25.56C17.6848 24.95 17.3348 23.7 16.5648 25.29C16.2948 25.85 15.5348 26.6 14.6848 26.83C14.7548 26.33 14.7748 26.05 14.7748 25.79C17.3048 24 17.0548 22.42 16.8648 20.94C16.7548 20.08 15.8948 19.73 15.9348 20.62C15.9648 21.21 16.4848 22.88 14.7548 23.87C14.7148 23.12 14.5048 22.79 14.3548 22.4C15.8948 20.37 15.2448 18.41 14.6048 17.51C14.1948 16.94 13.1748 16.74 13.6348 17.65C14.0148 18.39 14.6248 20.41 13.4848 21.23C13.0848 20.74 12.6248 20.55 12.4748 19.88C12.5848 17.68 12.4448 16.33 12.1748 15.54C11.9048 14.8 11.2048 14.34 11.2648 15.43C11.3248 16.65 11.4348 18.2 11.3248 18.3C11.2148 18.39 9.5748 16.87 8.9048 16.42C8.2348 15.96 7.4448 16.13 8.2248 17.05C8.9048 17.85 11.0048 19.39 10.7348 19.88C10.5648 20.19 9.0648 18.97 8.2948 18.7C7.5148 18.43 7.2748 18.84 7.9348 19.38C9.0048 20.26 9.7048 20.83 11.4548 21.42C13.2048 22 14.0748 24.43 13.5248 27.89C13.5048 28.04 13.2048 28.02 13.0348 27.97C12.9548 26.66 12.7248 25.07 12.4048 24.37C11.9848 23.46 11.1648 23.44 11.4748 24.67C11.7148 25.65 11.8548 26.71 11.6848 28.02C10.2348 27.77 9.6848 27.39 9.0848 27.03C9.0248 26.37 9.3648 25.26 9.4248 24.28C9.4848 23.31 8.9148 22.7 8.5848 23.92C8.2748 25.09 8.0748 25.65 7.8848 26.49C7.4648 26.35 7.0348 26.16 6.8248 25.94C6.7248 25.83 6.8248 24.51 6.7248 23.56C6.6148 22.48 6.2048 22.52 5.8848 23.46C5.7348 23.9 5.6148 24.47 5.5848 25.18C5.0748 24.88 4.7248 24.29 4.6748 23.81C4.7448 22.68 4.9348 21.49 5.0748 20.75C5.1648 20.22 4.8048 19.13 4.3948 20.44C4.0948 21.38 4.0148 22.17 3.8248 22.83C3.4548 22.81 2.9748 20.67 2.7248 19.3C2.6148 18.67 2.0948 17.97 2.0048 19.35C1.9048 20.87 2.2148 22.41 2.5948 23.1C1.8548 23.03 1.1448 21.7 0.6348 20.91C0.1748 20.21 -0.0352 20.94 0.0048 21.21C0.4448 23.93 2.6148 24.9 3.5948 25.09C5.1148 27.28 8.0248 28.21 10.4848 29.27C7.2848 29.23 6.4548 30.52 4.9848 29.69C5.0548 30.89 5.6448 31.46 6.2248 31.73C6.6348 31.93 7.0448 31.98 7.2248 32.02C7.4948 33.48 8.8848 33.4 10.0548 33.48C9.7548 36.33 10.0948 40.1 12.6048 42.91C12.5348 44.36 12.4348 46.26 12.4548 47.52C10.4048 49.42 8.5748 53.41 7.8548 55.62C7.3148 57.27 6.5048 58.55 5.2448 59.16C6.2748 60.24 7.7948 59.71 8.6648 59.1C8.7248 60.07 8.9548 60.75 9.1048 61.33C8.5148 62.2 8.1148 62.81 8.1748 63.87C7.5048 64.07 7.0548 64.46 6.6948 64.92C6.4748 65.21 6.7348 66.51 6.9848 67.07C7.8048 68.9 7.1648 73.04 7.0248 74.26C7.3648 74.28 7.9948 74.3 8.1248 73.79C8.3248 73.98 8.8248 74.34 9.0548 75.14C8.9948 75.48 8.8048 76.75 9.4548 76.91C9.9848 77.05 12.2948 76.97 12.5948 76.57C12.3648 76.31 11.9648 75.7 11.7248 75.09C11.7248 74.46 11.6748 73.7 11.4948 73.38C11.2248 72.93 10.5648 71.86 10.1448 71.44C10.0448 70.68 9.9748 67.31 10.3348 66.02C10.9248 65.61 14.9748 62.6 15.8148 59.73C16.5548 59.97 16.3248 61.99 16.3248 64.58C16.3248 65.28 17.1748 65.64 17.6848 65.71C18.7748 65.84 20.3348 66.89 22.0848 69.47C22.4248 69.11 22.8648 68.77 22.8648 68.77C23.0948 69.07 23.3648 69.81 23.5148 70.29C23.7048 70.65 25.1148 70.86 26.1948 70.53C26.5548 70.41 26.7648 70.35 26.9948 69.97C25.6248 67.57 24.7948 65.98 23.0348 64.66C22.2148 64.04 21.1348 63.75 20.2148 63.16C20.8248 62.01 22.4948 56.66 21.4848 54.69C21.1448 54.05 19.8648 53.4 18.3148 53.68C19.6048 52.12 22.2448 49.04 22.5848 48.09C22.8848 48.45 24.4448 48.2 25.5948 48.65C26.0148 48.81 27.1948 50.34 27.2548 50.88C27.3548 51.82 27.4048 52.95 26.7448 55.54C27.2048 55.47 27.1348 55.45 27.5948 55.26C27.6748 55.96 27.4648 56.49 26.8548 57.53C27.0048 58.47 27.4248 59.91 27.8648 60.18C28.4548 58.43 30.6248 55.96 30.5648 54.49C30.4948 52.54 29.5748 50.85 29.6748 50L29.6448 49.98ZM8.5848 31.73C8.2848 31.38 8.1248 30.96 7.9648 30.84C9.1848 30.08 10.6848 30.71 11.5948 29.83C12.1848 30.16 13.0448 29.83 13.4248 29.77C14.6948 29.59 16.2648 30.9 17.4148 31.73C17.9048 32.09 18.3248 32.35 18.6148 32.38C18.2948 33.37 18.3848 33.56 19.2248 33.75C19.1848 34.04 18.9448 34.24 17.9848 34.14C17.0148 34.03 15.8748 34.06 15.3348 34.11C12.4548 35.6 11.5248 33.22 11.5348 31.73V31.71C11.5348 31.71 11.5148 31.73 11.4948 31.73C9.8248 32.66 9.0348 32.27 8.5748 31.73H8.5848ZM20.1848 55.31C21.2048 56.59 19.7548 61.87 19.2248 62.82C18.7448 63.67 19.6248 64.23 20.0748 64.34C22.1848 64.87 24.2748 66.89 24.9648 68.41L24.2248 68.71C22.6448 66.57 22.2348 67.27 21.8248 67.67C21.4248 66.97 19.5248 64.84 18.3048 64.72C17.1848 64.62 17.2048 63.94 17.2748 63.37C17.4248 62.23 17.3648 60.57 17.2348 59.67C17.0848 58.93 16.4348 58.05 15.9648 58.01C16.2048 57.44 15.8948 55.63 17.4348 54.87C18.5748 54.3 19.9248 55.01 20.1648 55.31H20.1848ZM28.7948 56.43C28.6248 56.43 28.4748 56.37 28.3748 56.16C28.7148 54.94 28.8148 54.29 28.7348 54.05C28.4448 54.15 28.2448 54.14 28.1048 54.07C28.4348 52.09 28.2248 50.86 28.0048 50.09C27.7748 49.27 26.7048 48.13 26.3348 47.94C25.7448 47.62 25.2448 47.28 24.0848 47.14C21.6848 45.13 21.0348 46.34 19.3248 46.13C19.0948 45.83 18.6448 45.41 18.6448 45.41L17.8848 45.94C17.8848 45.94 18.6048 46.85 18.7548 47.46C18.7548 47.46 20.3148 47.18 21.4948 47.48C21.0348 48.99 18.9448 51.02 16.9148 53.28C14.7448 55.7 14.7348 56.23 14.7848 58.13C14.8448 60.37 11.7448 63.74 9.3648 65.32C9.1648 65.89 8.8948 70.87 9.2048 71.63C9.3748 71.91 10.0448 72.7 10.4648 73.32C10.6548 73.6 10.6048 74.28 10.6948 74.94C10.3748 74.98 10.1448 74.94 9.8948 74.82C9.7448 74.12 9.1748 73.19 8.1248 72.53C8.3748 69.75 8.6548 68.27 7.6848 65.51C7.5948 65.26 8.9048 64.54 8.9048 64.54C8.9048 64.54 9.3448 62.5 10.5248 61.51C9.6848 59.36 9.5748 56.45 9.5748 56.45C9.5748 56.45 9.0748 57.12 8.2348 57.65C10.4348 50.65 10.8848 52.65 13.4848 47.53C15.2848 39.37 10.5448 37.71 11.2548 34.88C12.9048 36.44 13.7648 35.95 15.1148 35.57C16.3348 36.59 18.0948 38.9 19.7548 39.47C22.4148 40.38 22.3948 42.88 21.9848 44.04C23.0848 44.04 23.9848 44.44 24.3948 45.08C26.2648 47.97 27.4748 47.1 28.4648 48.31C28.9348 48.89 28.4648 50.51 29.0348 51.96C29.4148 52.91 29.5648 54.05 29.5648 54.37C29.5048 54.84 28.8748 55.74 28.7848 56.41L28.7948 56.43Z" fill="#D7D7D7"/>
<path d="M14.6448 32.34C15.1948 32.28 15.4648 32 15.9548 32.19C15.8948 32.03 15.6148 32.03 15.5548 31.89C15.5548 31.84 15.5448 31.79 15.5348 31.74C15.4748 31.22 15.3048 30.8 14.4648 30.67C14.2548 31.11 13.5148 31.43 13.0948 31.68C13.2148 31.68 13.3148 31.71 13.4048 31.74C13.9348 31.92 13.8648 32.43 14.6348 32.35L14.6448 32.34Z" fill="#D7D7D7"/>
<path d="M57.1848 37.03H27.8948V47.83C28.0948 47.95 28.2848 48.1 28.4748 48.33C28.9448 48.91 28.4748 50.53 29.0448 51.98C29.0748 52.05 29.0848 52.11 29.1148 52.18H42.3848V73.33C40.8548 72.71 37.6448 71.19 34.7348 68.37C31.1448 64.89 29.2348 60.64 29.0248 55.75C28.9248 55.99 28.8348 56.22 28.8048 56.43C28.6348 56.43 28.4848 56.37 28.3848 56.16C28.7248 54.94 28.8248 54.29 28.7448 54.05C28.4548 54.15 28.2548 54.14 28.1148 54.07C28.4448 52.09 28.2348 50.86 28.0148 50.09C27.9848 49.99 27.9448 49.89 27.8948 49.77V54.82C27.8948 60.42 29.9448 65.23 33.9848 69.14C37.5248 72.57 41.4948 74.17 42.6348 74.58L42.8148 74.64L42.9948 74.58C44.1248 74.17 48.1048 72.57 51.6448 69.14C55.6848 65.24 57.7348 60.42 57.7348 54.82V53.92C57.3848 54.47 57.0248 54.85 56.6548 54.91C56.6348 60.16 54.7048 64.7 50.9048 68.37C47.9948 71.19 44.7848 72.71 43.2548 73.33V52.18H56.6648V54.13C58.0348 52.39 57.4048 47.84 56.6648 47.31V51.31H28.9848V38.1H56.6648V47.21C57.0448 46.95 57.4248 47.21 57.7448 47.81V37.02H57.2048L57.1848 37.03Z" fill="#D7D7D7"/>
</svg>
