<svg width="311" height="61" viewBox="0 0 311 61" fill="none" xmlns="http://www.w3.org/2000/svg">
<path d="M0 27.8555C0 12.5039 12.2969 0 28.7656 0C45.2344 0 57.5312 12.2852 57.5312 27.6367V27.8555C57.5312 43.2109 45.2344 55.7109 28.7656 55.7109C12.2969 55.7109 0 43.2109 0 27.8555ZM42.3789 27.8555C42.3789 19.9609 36.8906 13.3789 28.5469 13.3789C20.4219 13.3789 14.9297 19.9609 14.9297 27.6367V27.8555C14.9297 35.5313 20.4219 42.332 28.5469 42.332C37.1094 42.1133 42.3789 35.5313 42.3789 27.8555Z" fill="#D7D7D7"/>
<path d="M66.7539 1.09766H82.3438L95.082 21.7148L107.816 1.09766H123.41V54.3945H108.695V23.6875L95.082 44.5273H94.8633L81.2461 23.9102V54.3945H66.7539V1.09766Z" fill="#D7D7D7"/>
<path d="M130.875 30.9258V1.09766H145.809V30.707C145.809 38.3828 149.758 42.1133 155.688 42.1133C161.617 42.1133 165.57 38.6055 165.57 31.1445V1.09766H180.504V30.707C180.504 48.0352 170.621 55.4922 155.469 55.4922C140.316 55.4922 130.875 47.8164 130.875 30.9258Z" fill="#D7D7D7"/>
<path d="M185.332 46.5L193.676 36.6289C198.949 40.7969 204.875 42.9922 211.023 42.9922C214.977 42.9922 217.172 41.6758 217.172 39.2617C217.172 37.0664 215.418 35.7539 208.172 34.2187C196.75 31.5859 187.969 28.5156 187.969 17.5469V17.3281C187.969 7.45703 195.875 0.21875 208.609 0.21875C217.613 0.21875 224.859 2.63281 230.57 7.23828L223.102 17.7656C218.273 14.2578 212.781 12.5039 208.172 12.5039C204.656 12.5039 202.898 14.0391 202.898 16.0117V16.2305C202.898 18.6445 204.656 19.7422 212.121 21.4961C224.422 24.1289 232.105 28.0742 232.105 38.1641V38.3828C232.105 49.3516 223.543 55.7109 210.586 55.7109C200.926 55.2734 191.922 52.4219 185.332 46.5Z" fill="#D7D7D7"/>
<path d="M238.035 1.09766H252.965V54.3945H238.035V1.09766Z" fill="#D7D7D7"/>
<path d="M259.336 27.8555C259.336 12.0664 271.414 0 287.441 0C298.422 0 305.449 4.60547 310.059 11.1875L298.859 19.7422C295.785 16.0117 292.273 13.3789 287.223 13.3789C279.758 13.3789 274.488 19.7422 274.488 27.418V27.6367C274.488 35.7539 279.758 41.8945 287.223 41.8945C292.711 41.8945 296.008 39.2617 299.301 35.3125L310.5 43.2109C305.449 50.2266 298.641 55.2734 286.785 55.2734C271.633 55.4922 259.336 43.8672 259.336 27.8555Z" fill="#D7D7D7"/>
<path d="M49.1875 60.7578L38.207 49.7891L49.4062 38.6055L60.3867 49.5703L49.1875 60.7578Z" fill="#D7D7D7"/>
</svg>
