<svg width="174" height="72" viewBox="0 0 174 72" fill="none" xmlns="http://www.w3.org/2000/svg">
<path d="M75.89 17.36H58.53V34.72H75.89V17.36Z" fill="#D7D7D7"/>
<path d="M56.38 17.36H39.02V34.72H56.38V17.36Z" fill="#D7D7D7"/>
<path d="M97.56 17.36V34.75H114.92C114.663 30.2267 112.752 25.9558 109.551 22.7494C106.35 19.543 102.083 17.625 97.56 17.36Z" fill="#D7D7D7"/>
<path d="M78.04 34.75H95.41V17.36C90.8862 17.6248 86.6173 19.5425 83.4148 22.7486C80.2123 25.9548 78.2995 30.2259 78.04 34.75Z" fill="#D7D7D7"/>
<path d="M95.41 54.24V36.87H78.04C78.3043 41.3906 80.2192 45.6568 83.4212 48.8588C86.6232 52.0608 90.8894 53.9757 95.41 54.24Z" fill="#D7D7D7"/>
<path d="M97.56 54.24C102.08 53.9755 106.345 52.0603 109.545 48.858C112.745 45.6558 114.658 41.3897 114.92 36.87H97.56V54.24Z" fill="#D7D7D7"/>
<path d="M19.51 17.36H17.36C12.8364 17.6228 8.56755 19.5402 5.36629 22.747C2.16502 25.9538 0.255013 30.226 0 34.75H36.87C36.6128 30.2267 34.7021 25.9558 31.5013 22.7494C28.3005 19.543 24.0328 17.625 19.51 17.36Z" fill="#D7D7D7"/>
<path d="M17.36 54.24V36.87H0C0.259751 41.3905 2.17185 45.6578 5.37265 48.8604C8.57345 52.0631 12.8397 53.9776 17.36 54.24Z" fill="#D7D7D7"/>
<path d="M19.51 54.24C19.7721 58.7587 21.6853 63.0236 24.8858 66.2242C28.0864 69.4247 32.3513 71.3379 36.87 71.6V36.87H19.51V54.24Z" fill="#D7D7D7"/>
<path d="M134.43 17.36C129.908 17.6271 125.641 19.5459 122.441 22.7518C119.241 25.9577 117.329 30.2275 117.07 34.75H134.43V17.36Z" fill="#D7D7D7"/>
<path d="M136.58 17.36V34.75H153.95V0C149.43 0.259751 145.162 2.17185 141.96 5.37265C138.757 8.57345 136.842 12.8397 136.58 17.36Z" fill="#D7D7D7"/>
<path d="M164.78 54.23C169.574 54.23 173.46 50.3438 173.46 45.55C173.46 40.7562 169.574 36.87 164.78 36.87C159.986 36.87 156.1 40.7562 156.1 45.55C156.1 50.3438 159.986 54.23 164.78 54.23Z" fill="#D7D7D7"/>
<path d="M39.02 36.87C39.284 41.389 41.1975 45.6539 44.3974 48.8557C47.5974 52.0574 51.8612 53.9734 56.38 54.24H58.82C63.2891 53.9079 67.4852 51.9631 70.6272 48.7677C73.7693 45.5723 75.6431 41.344 75.9 36.87H39.02Z" fill="#D7D7D7"/>
<path d="M117.07 36.87C117.334 41.389 119.248 45.6539 122.447 48.8557C125.647 52.0574 129.911 53.9734 134.43 54.24H136.58C141.101 53.9757 145.367 52.0608 148.569 48.8588C151.771 45.6568 153.686 41.3906 153.95 36.87H117.07Z" fill="#D7D7D7"/>
</svg>
