<svg width="253" height="50" viewBox="0 0 253 50" fill="none" xmlns="http://www.w3.org/2000/svg">
<path d="M0 2.19838H21.4986C27.4773 2.19838 32.1175 3.86951 35.2064 6.93894C37.8285 9.54454 39.2357 13.2142 39.2357 17.6205V17.757C39.2357 25.3009 35.1377 30.0415 29.159 32.2447L40.6497 48.9355H28.555L18.4784 33.9772H10.3443V48.9355H0V2.19838ZM20.8328 24.8985C25.8711 24.8985 28.7609 22.2247 28.7609 18.289V18.1526C28.7609 13.7462 25.672 11.4749 20.6269 11.4749H10.3443V24.8917H20.8259L20.8328 24.8985Z" fill="#D7D7D7"/>
<path d="M51.9275 2.19838H87.4085V11.3453H62.2101V20.8264H84.3814V29.9733H62.2101V39.7886H87.7448V48.9355H51.9275V2.19838Z" fill="#D7D7D7"/>
<path d="M98.2196 25.5601C98.2196 12.2729 108.296 1.39351 122.745 1.39351C131.614 1.39351 136.92 4.32652 141.292 8.60325L134.71 16.1472C131.078 12.8732 127.385 10.8746 122.684 10.8746C114.755 10.8746 109.044 17.4159 109.044 25.4305V25.5669C109.044 33.5816 114.625 40.2593 122.684 40.2593C128.058 40.2593 131.353 38.1243 135.046 34.782L141.629 41.3915C136.789 46.5345 131.415 49.7404 122.34 49.7404C108.502 49.7404 98.2196 39.127 98.2196 25.7034V25.5601Z" fill="#D7D7D7"/>
<path d="M233.849 2.19838C239.828 2.19838 244.468 3.86951 247.557 6.93894C250.179 9.54454 251.586 13.2142 251.586 17.6205V17.757C251.586 25.3009 247.488 30.0415 241.509 32.2447L253 48.9355H240.905L230.829 33.9772H222.695V48.9355H212.343V2.19838H233.849ZM233.183 24.8985C238.221 24.8985 241.111 22.2247 241.111 18.289V18.1526C241.111 13.7462 238.022 11.4749 232.977 11.4749H222.695V24.8917H233.176L233.183 24.8985Z" fill="#D7D7D7"/>
<path d="M199.027 20.192C200.633 20.0283 202.054 20.956 202.184 22.2451C202.315 23.5343 201.107 24.7211 199.501 24.8848L191.881 25.6488C190.275 25.8125 188.854 24.8848 188.724 23.5957C188.593 22.3065 189.801 21.1197 191.408 20.956L199.027 20.192Z" fill="#D7D7D7"/>
<path d="M165.475 44.6724C164.548 45.9889 162.914 46.4527 161.844 45.7024C160.78 44.9589 160.663 43.2741 161.597 41.9577L166.003 35.737C166.93 34.4274 168.564 33.9635 169.635 34.707C170.698 35.4505 170.815 37.1353 169.882 38.4517L165.475 44.6724Z" fill="#D7D7D7"/>
<path d="M182.313 38.4517C181.386 37.1421 181.496 35.4573 182.56 34.707C183.624 33.9635 185.257 34.4274 186.191 35.737L190.598 41.9577C191.524 43.2673 191.415 44.9521 190.351 45.7024C189.287 46.4459 187.653 45.982 186.719 44.6724L182.313 38.4517Z" fill="#D7D7D7"/>
<path d="M156.448 35.546C154.952 36.1531 153.325 35.6619 152.838 34.4615C152.344 33.261 153.167 31.7808 154.664 31.1806L161.754 28.3158C163.251 27.7087 164.878 28.1998 165.365 29.4003C165.859 30.6008 165.036 32.0741 163.539 32.6812L156.448 35.546Z" fill="#D7D7D7"/>
<path d="M198.135 31.1806C199.631 31.7876 200.455 33.261 199.96 34.4615C199.466 35.6619 197.839 36.1462 196.343 35.546L189.252 32.6812C187.756 32.0741 186.932 30.6008 187.426 29.4003C187.921 28.1998 189.541 27.7087 191.044 28.3158L198.135 31.1806Z" fill="#D7D7D7"/>
<path d="M153.826 23.0023C152.241 22.709 151.136 21.4198 151.376 20.1511C151.616 18.8756 153.112 18.0775 154.698 18.3708L162.221 19.7691C163.807 20.0624 164.912 21.3516 164.672 22.6203C164.431 23.889 162.935 24.6939 161.349 24.4006L153.826 23.0023Z" fill="#D7D7D7"/>
<path d="M158.446 11.0315C157.272 9.93333 157.046 8.25538 157.938 7.31409C158.83 6.3728 160.526 6.5024 161.7 7.60739L167.266 12.8254C168.44 13.9236 168.667 15.6015 167.774 16.5428C166.882 17.4841 165.187 17.3545 164.013 16.2564L158.446 11.0315Z" fill="#D7D7D7"/>
<path d="M168.831 3.46026C168.44 1.90508 169.161 0.370367 170.424 0.0566036C171.694 -0.25716 173.046 0.765982 173.43 2.32116L175.277 9.70824C175.668 11.2634 174.947 12.7981 173.684 13.1051C172.421 13.4188 171.062 12.3957 170.678 10.8405L168.831 3.46026Z" fill="#D7D7D7"/>
<path d="M181.729 2.66903C182.251 1.14796 183.685 0.24759 184.921 0.670489C186.157 1.09339 186.74 2.67585 186.218 4.1901L183.747 11.393C183.226 12.9141 181.791 13.8145 180.555 13.3916C179.32 12.9687 178.736 11.3862 179.258 9.87195L181.729 2.66903Z" fill="#D7D7D7"/>
<path d="M192.945 8.89655C194.208 7.90069 195.911 7.91433 196.721 8.93066C197.531 9.94698 197.16 11.5908 195.897 12.5935L189.898 17.3272C188.635 18.3231 186.932 18.3095 186.122 17.2931C185.312 16.2768 185.683 14.633 186.946 13.6303L192.938 8.89655H192.945Z" fill="#D7D7D7"/>
<path d="M173.787 39.5226C173.76 37.9197 174.796 36.5828 176.101 36.5623C177.405 36.535 178.496 37.831 178.524 39.4339L178.668 47.0393C178.695 48.6422 177.652 49.9791 176.355 49.9996C175.05 50.0269 173.959 48.7309 173.925 47.128L173.78 39.5226H173.787Z" fill="#D7D7D7"/>
</svg>
