<svg width="173" height="115" viewBox="0 0 173 115" fill="none" xmlns="http://www.w3.org/2000/svg">
<path d="M32.6065 107.433V94.395H41.3526V96.7729H35.3223V100.085H40.9047V102.443H35.3223V107.433H32.6065Z" fill="#D7D7D7"/>
<path d="M55.624 94.395V96.7729H49.4024V99.6038H55.0499V101.921H49.4024V105.019H55.624V107.421H46.711V94.395H55.624Z" fill="#D7D7D7"/>
<path d="M63.8693 102.568V107.421H61.1575V94.395H66.5648C69.3213 94.395 71.1618 95.8589 71.1618 98.5362C71.1618 100.615 70.0095 101.933 68.169 102.378L71.63 107.433H68.5518L65.2944 102.58L63.8693 102.568ZM63.8693 100.34H66.3938C67.7619 100.34 68.4663 99.616 68.4663 98.5362C68.4663 97.4564 67.7619 96.7082 66.3938 96.7082H63.8693V100.34Z" fill="#D7D7D7"/>
<path d="M79.3215 102.568V107.421H76.6057V94.395H82.0129C84.7695 94.395 86.6099 95.8589 86.6099 98.5362C86.6099 100.615 85.4576 101.933 83.6172 102.378L87.0782 107.433H84L80.7426 102.58L79.3215 102.568ZM79.3215 100.34H81.8419C83.21 100.34 83.9144 99.616 83.9144 98.5362C83.9144 97.4564 83.21 96.7082 81.8419 96.7082H79.3215V100.34Z" fill="#D7D7D7"/>
<path d="M94.7901 107.433H92.0538V94.395H94.7901V107.433Z" fill="#D7D7D7"/>
<path d="M109.623 94.395V96.7729H103.422V99.6038H109.066V101.921H103.422V105.019H109.644V107.421H100.727V94.395H109.623Z" fill="#D7D7D7"/>
<path d="M114.705 103.862C115.911 104.775 117.379 105.282 118.895 105.31C120.222 105.31 121.224 104.906 121.224 103.887C121.224 103.037 120.67 102.718 119.685 102.358L117.759 101.719C115.817 101.084 114.534 100.101 114.534 97.9174C114.534 95.4909 116.627 94.1806 119.192 94.1806C120.587 94.1506 121.964 94.5033 123.17 95.1997V97.8689C122.06 96.9994 120.691 96.5214 119.277 96.5101C118.105 96.5101 117.205 96.9145 117.205 97.8042C117.205 98.613 117.738 98.9285 118.659 99.2277L120.694 99.9274C122.897 100.672 123.903 101.86 123.903 103.794C123.903 106.362 121.7 107.656 118.919 107.656C117.434 107.676 115.972 107.294 114.689 106.552L114.705 103.862Z" fill="#D7D7D7"/>
<path d="M173 60.5008V103.891C173 106.837 171.822 109.663 169.724 111.746C167.626 113.83 164.781 115 161.815 115C158.848 115 156.004 113.83 153.906 111.746C151.808 109.663 150.63 106.837 150.63 103.891V99.8465C150.632 99.1634 150.499 98.4865 150.237 97.8547C149.976 97.2228 149.591 96.6484 149.106 96.1642C148.621 95.6801 148.044 95.2957 147.409 95.033C146.774 94.7704 146.094 94.6346 145.406 94.6336H137.124C136.923 94.634 136.722 94.6137 136.525 94.5729C133.659 94.4339 130.957 93.2062 128.977 91.1437C126.996 89.0813 125.89 86.3418 125.886 83.4919V60.5008H131.827V83.4919C131.828 84.868 132.378 86.1876 133.358 87.1611C134.337 88.1345 135.665 88.6824 137.051 88.6846C137.161 88.6894 137.271 88.7002 137.38 88.7169H145.385C148.351 88.7202 151.194 89.8916 153.291 91.9743C155.388 94.057 156.567 96.8809 156.571 99.8263V103.87C156.571 105.247 157.121 106.566 158.101 107.539C159.08 108.512 160.409 109.059 161.795 109.059C163.18 109.059 164.509 108.512 165.489 107.539C166.468 106.566 167.019 105.247 167.019 103.87V80.576L166.88 80.7499C165.76 82.1573 164.03 83.4919 160.471 83.4919C153.301 83.4919 151.701 79.5124 151.701 73.1469V60.5008H157.755V73.6767C157.755 76.8594 158.423 78.4528 162.234 78.4528C166.045 78.4528 166.864 76.6411 166.864 73.3653V60.5008H173ZM13.6933 72.2612L23.2537 82.4H15.1102L6.11168 71.4807V82.4H0V55.025H10.1223C20.5867 55.025 21.7919 60.3269 21.7919 63.9221C21.7919 67.1737 20.7129 71.7476 13.6933 72.2612ZM10.3789 67.7722C14.6868 67.7722 15.5459 65.7501 15.5459 64.0071C15.5459 62.264 14.6868 60.0721 10.3789 60.0721H6.10761V67.756L10.3789 67.7722ZM25.8759 82.4H31.8206V60.5008H25.8759V82.4ZM45.6035 76.9686L40.1718 60.5008H33.6244L42.0651 82.4H49.0441L58.0019 60.5008H51.198L45.6035 76.9686ZM79.3989 73.7576H64.4556C64.7569 76.8837 66.6096 78.2062 69.191 78.2062C71.8621 78.2062 72.766 77.0495 73.1976 75.7796H79.4396C79.0528 79.4558 76.512 82.7518 69.4068 82.7518C60.3635 82.7518 58.4132 77.09 58.4132 71.4564C58.4132 65.9847 60.3961 60.1651 69.3091 60.1651C77.7173 60.157 80.0463 66.8299 79.3989 73.7576ZM73.2913 69.2685C73.2913 66.842 72.0005 64.735 68.8572 64.735C65.8848 64.735 64.5941 66.7571 64.4638 69.2685H73.2913ZM86.9397 63.9626L85.5594 60.5008H83.1164V82.4H89.0163V70.8094C89.0163 67.7277 89.8795 64.9494 95.0018 65.5034V60.2581C90.6328 59.8133 88.3934 61.7828 86.9316 63.9626H86.9397ZM110.189 77.7128C104.591 77.7128 103.601 73.7737 103.601 68.7266C103.601 63.6795 104.591 59.7445 110.189 59.7445C114.538 59.7445 116.045 62.0133 116.431 65.3497H122.677C122.677 59.6879 119.318 54.6974 110.189 54.6974C99.8105 54.6974 97.4408 61.2409 97.4408 68.7266C97.4408 76.2124 99.6802 82.7599 110.189 82.7599C119.448 82.7599 122.722 78.0525 122.722 72.0671H116.423C115.996 75.4723 114.575 77.6966 110.181 77.6966L110.189 77.7128ZM137.959 75.1447C137.959 81.9025 141.66 83.2735 149.498 82.6305V77.822C145.365 78.1212 143.985 77.5227 143.985 75.0841V65.2891H149.498V60.5008H143.797V55.025H137.95V60.5857L134.718 62.3813V65.2891H137.95L137.959 75.1447ZM125.878 44.4859C125.863 44.8836 125.929 45.2801 126.072 45.6519C126.215 46.0236 126.432 46.3629 126.71 46.6495C126.988 46.936 127.322 47.164 127.69 47.3197C128.059 47.4754 128.456 47.5556 128.856 47.5556C129.257 47.5556 129.653 47.4754 130.022 47.3197C130.391 47.164 130.724 46.936 131.002 46.6495C131.28 46.3629 131.497 46.0236 131.64 45.6519C131.783 45.2801 131.85 44.8836 131.835 44.4859V14.4256C131.831 10.6013 130.301 6.93463 127.579 4.23012C124.856 1.52562 121.165 0.00428348 117.315 0H107.417C103.567 0.00535168 99.8759 1.52703 97.154 4.2313C94.432 6.93557 92.901 10.6017 92.8967 14.4256V39.5277C92.8612 40.7125 92.3623 41.8369 91.506 42.6624C90.6497 43.488 89.5033 43.9497 88.3099 43.9497C87.1165 43.9497 85.9701 43.488 85.1138 42.6624C84.2575 41.8369 83.7586 40.7125 83.7231 39.5277V26.3195C83.7181 23.6767 82.7088 21.1333 80.8969 19.198C79.085 17.2626 76.6043 16.0782 73.9509 15.8815C73.8161 15.8597 73.6802 15.8461 73.5437 15.841H62.7048C62.5683 15.8461 62.4323 15.8596 62.2976 15.8815C59.6482 16.0831 57.1729 17.2698 55.366 19.2047C53.559 21.1396 52.5534 23.6803 52.5498 26.3195C52.5477 27.5272 52.0634 28.6849 51.2032 29.5385C50.343 30.3921 49.177 30.8721 47.961 30.8732H36.4258C33.6291 30.8753 30.9476 31.9794 28.9697 33.9432C26.9918 35.9069 25.8791 38.5699 25.8759 41.3476V44.4859C25.8759 45.271 26.1899 46.024 26.7489 46.5791C27.3078 47.1343 28.0659 47.4462 28.8564 47.4462C29.6469 47.4462 30.405 47.1343 30.9639 46.5791C31.5229 46.024 31.8369 45.271 31.8369 44.4859V41.3476C31.8402 40.1409 32.325 38.9847 33.1853 38.1326C34.0455 37.2805 35.2108 36.8019 36.4258 36.8019H47.961C50.7569 36.7987 53.4374 35.6942 55.4144 33.7305C57.3915 31.7669 58.5036 29.1045 58.5068 26.3275C58.5063 25.7271 58.6251 25.1325 58.8564 24.5778C59.0878 24.023 59.4271 23.5191 59.8549 23.0949C60.2828 22.6707 60.7907 22.3346 61.3496 22.1058C61.9085 21.877 62.5074 21.7601 63.1119 21.7617H73.1895C74.4048 21.7649 75.5693 22.2464 76.4278 23.1007C77.2864 23.9549 77.7691 25.1124 77.7702 26.3195V39.5277C77.7702 42.3057 78.8813 44.9699 80.859 46.9342C82.8367 48.8986 85.5191 50.0021 88.316 50.0021C91.1129 50.0021 93.7953 48.8986 95.773 46.9342C97.7507 44.9699 98.8618 42.3057 98.8618 39.5277V14.4256C98.8682 12.1751 99.7712 10.0187 101.373 8.42734C102.976 6.83602 105.147 5.9392 107.412 5.9328H117.311C119.577 5.9392 121.748 6.83602 123.35 8.42734C124.952 10.0187 125.855 12.1751 125.861 14.4256L125.878 44.4859Z" fill="#D7D7D7"/>
<path d="M28.8483 50.9565C26.6495 50.9565 25.0575 51.5551 25.0575 53.9937C25.0575 56.4323 26.564 56.9864 28.8483 56.9864C31.0429 56.9864 32.5535 56.3879 32.5535 53.9937C32.5535 51.5996 31.0429 50.9565 28.8483 50.9565Z" fill="#D7D7D7"/>
<path d="M132.568 54.0058C132.568 51.5793 131.061 50.9687 128.862 50.9687C126.664 50.9687 125.076 51.5672 125.076 54.0058C125.076 56.4445 126.582 56.9985 128.862 56.9985C131.061 56.9985 132.568 56.4 132.568 54.0058Z" fill="#D7D7D7"/>
</svg>
