<svg width="256" height="71" viewBox="0 0 256 71" fill="none" xmlns="http://www.w3.org/2000/svg">
<path d="M24.68 32.64C23.63 31.71 22.43 30.84 21.09 30.03C19.75 29.22 18.39 28.45 17 27.72C15.61 26.99 14.24 26.27 12.91 25.55C11.57 24.83 10.38 24.09 9.32 23.32C8.27 22.55 7.42 21.73 6.79 20.87C6.15 20.01 5.84 19.06 5.84 18.03C5.84 17.3 5.99 16.58 6.31 15.86C6.62 15.14 7.09 14.51 7.71 13.96C8.33 13.41 9.11 12.95 10.04 12.6C10.97 12.25 12.06 12.07 13.3 12.07C16.11 12.07 18.36 12.82 20.07 14.32C21.77 15.82 23.01 17.78 23.8 20.22L27.2 18.68C26.23 15.71 24.66 13.44 22.5 11.87C20.34 10.3 17.38 9.52 13.63 9.52C11.55 9.52 9.71 9.79 8.12 10.33C6.53 10.87 5.18 11.61 4.09 12.56C3 13.51 2.17 14.62 1.6 15.9C1.03 17.18 0.75 18.58 0.75 20.09C0.75 21.6 1.06 22.94 1.68 24.1C2.3 25.26 3.12 26.32 4.13 27.26C5.14 28.21 6.3 29.06 7.59 29.81C8.89 30.57 10.22 31.3 11.58 32C12.94 32.7 14.27 33.4 15.57 34.09C16.87 34.78 18.02 35.52 19.03 36.32C20.04 37.12 20.86 37.98 21.48 38.91C22.1 39.84 22.41 40.92 22.41 42.13C22.41 43.13 22.18 44.01 21.72 44.78C21.26 45.55 20.66 46.2 19.92 46.73C19.18 47.26 18.33 47.66 17.37 47.92C16.41 48.19 15.45 48.33 14.47 48.33C11.88 48.33 9.62 47.61 7.7 46.16C5.78 44.72 4.4 42.7 3.57 40.1L0 41.56C1.05 44.48 2.7 46.75 4.94 48.39C7.18 50.02 10.19 50.84 13.97 50.84C16.32 50.84 18.38 50.54 20.15 49.95C21.92 49.36 23.4 48.55 24.59 47.52C25.78 46.49 26.67 45.29 27.26 43.91C27.85 42.53 28.15 41.06 28.15 39.49C28.15 38.11 27.83 36.86 27.2 35.72C26.56 34.58 25.72 33.55 24.67 32.62L24.68 32.64Z" fill="#D7D7D7"/>
<path d="M54.28 21.05C53.43 20.33 52.31 19.79 50.94 19.41C49.56 19.03 47.87 18.84 45.88 18.84C44.23 18.84 42.67 19.02 41.18 19.39C39.69 19.75 38.39 20.26 37.27 20.89C36.15 21.53 35.26 22.28 34.6 23.16C33.94 24.04 33.61 24.98 33.61 25.98C33.61 26.98 33.9 27.86 34.48 28.53C35.06 29.21 35.82 29.54 36.77 29.54C37.36 29.54 37.86 29.43 38.25 29.2C38.64 28.97 38.95 28.67 39.18 28.31C39.41 27.95 39.57 27.52 39.65 27.03C39.73 26.54 39.77 26.03 39.77 25.49C39.77 24.92 39.84 24.36 39.97 23.81C40.11 23.26 40.36 22.76 40.72 22.33C41.08 21.9 41.59 21.55 42.24 21.28C42.89 21.01 43.73 20.87 44.75 20.87C45.64 20.87 46.45 21 47.18 21.26C47.91 21.52 48.53 21.94 49.04 22.52C49.55 23.1 49.94 23.86 50.22 24.81C50.49 25.76 50.63 26.93 50.63 28.34V30.24C49.28 30.59 47.89 30.96 46.46 31.35C45.03 31.74 43.64 32.19 42.29 32.71C40.94 33.22 39.67 33.8 38.48 34.43C37.29 35.07 36.25 35.8 35.36 36.64C34.47 37.48 33.76 38.42 33.23 39.46C32.7 40.5 32.44 41.68 32.44 43.01C32.44 44.09 32.62 45.09 32.99 46.01C33.36 46.93 33.87 47.73 34.55 48.4C35.22 49.08 36.04 49.61 37 50C37.96 50.39 39.03 50.59 40.22 50.59C41.52 50.59 42.65 50.44 43.62 50.15C44.59 49.85 45.48 49.47 46.29 49.01C47.1 48.55 47.85 48.03 48.54 47.45C49.23 46.87 49.92 46.31 50.63 45.77V49.94H56.71V26.93C56.71 25.71 56.52 24.61 56.14 23.63C55.76 22.64 55.15 21.79 54.3 21.08L54.28 21.05ZM50.61 43.56C49.42 44.45 48.26 45.23 47.12 45.89C45.99 46.55 44.74 46.88 43.39 46.88C42.74 46.88 42.12 46.73 41.53 46.43C40.94 46.13 40.41 45.74 39.95 45.23C39.49 44.73 39.13 44.15 38.86 43.49C38.59 42.83 38.46 42.12 38.46 41.36C38.46 40.28 38.85 39.27 39.64 38.34C40.42 37.41 41.41 36.55 42.6 35.77C43.79 34.99 45.1 34.29 46.53 33.68C47.96 33.07 49.33 32.57 50.62 32.16V43.55L50.61 43.56Z" fill="#D7D7D7"/>
<path d="M88.03 21.54C87.34 20.72 86.53 20.06 85.6 19.57C84.67 19.08 83.68 18.84 82.62 18.84C80.57 18.84 78.55 19.35 76.56 20.38C74.57 21.41 72.66 22.95 70.83 25V19.45H64.75V49.92H70.83V27.35C72.21 26.03 73.65 24.96 75.17 24.15C76.68 23.34 78.09 22.93 79.38 22.93C80.81 22.93 81.98 23.45 82.88 24.49C83.78 25.53 84.24 27.06 84.24 29.09V49.92H90.28V28.04C90.28 26.77 90.08 25.58 89.67 24.45C89.27 23.33 88.72 22.36 88.03 21.53V21.54Z" fill="#D7D7D7"/>
<path d="M117.38 20.2C116.79 19.94 116.1 19.71 115.33 19.51C114.56 19.31 113.74 19.15 112.86 19.02C111.98 18.9 111.08 18.84 110.17 18.84C108.31 18.84 106.56 19.13 104.92 19.71C103.29 20.29 101.87 21.07 100.67 22.06C99.47 23.05 98.52 24.21 97.83 25.54C97.14 26.88 96.8 28.29 96.8 29.77C96.8 31.8 97.38 33.59 98.54 35.16C99.7 36.73 101.31 37.94 103.36 38.81C102.49 39.11 101.69 39.51 100.95 40C100.21 40.5 99.55 41.05 98.98 41.66C98.41 42.27 97.97 42.9 97.64 43.56C97.32 44.22 97.15 44.86 97.15 45.48C97.15 46.34 97.53 47.08 98.29 47.69C99.05 48.3 99.99 48.79 101.13 49.17C100.35 49.76 99.56 50.39 98.76 51.05C97.96 51.71 97.24 52.39 96.59 53.1C95.94 53.8 95.41 54.54 94.99 55.31C94.57 56.08 94.36 56.88 94.36 57.72C94.36 59.61 95.6 61.12 98.09 62.26C100.58 63.39 104.34 63.96 109.39 63.96C112.2 63.96 114.72 63.68 116.97 63.13C119.21 62.58 121.11 61.79 122.66 60.78C124.21 59.77 125.4 58.54 126.23 57.11C127.05 55.68 127.47 54.07 127.47 52.29C127.47 51.29 127.32 50.39 127.02 49.6C126.72 48.8 126.22 48.12 125.5 47.53C124.78 46.95 123.82 46.48 122.62 46.13C121.42 45.78 119.91 45.56 118.1 45.48L106.84 44.99C105.62 44.94 104.68 44.73 104 44.36C103.32 44 102.99 43.5 102.99 42.88C102.99 42.26 103.19 41.63 103.6 41C104 40.37 104.49 39.82 105.06 39.36C105.65 39.55 106.35 39.7 107.15 39.83C107.95 39.95 108.74 40.01 109.52 40.01C111.6 40.01 113.5 39.75 115.23 39.24C116.96 38.73 118.45 38.01 119.71 37.09C120.97 36.17 121.94 35.06 122.63 33.77C123.32 32.47 123.66 31.03 123.66 29.43C123.66 28.4 123.48 27.37 123.11 26.33C122.74 25.29 122.27 24.36 121.67 23.55H127.46V21H118.75C118.43 20.7 117.97 20.43 117.37 20.17L117.38 20.2ZM105.11 49.94C106.08 50.03 107.22 50.13 108.51 50.22C109.81 50.31 111.2 50.4 112.68 50.46C114.16 50.53 115.64 50.56 117.1 50.56C119.48 50.56 121.33 50.87 122.67 51.49C124.01 52.11 124.68 53.11 124.68 54.49C124.68 55.14 124.38 55.79 123.79 56.46C123.2 57.12 122.34 57.71 121.24 58.22C120.13 58.73 118.77 59.15 117.17 59.48C115.56 59.8 113.75 59.97 111.72 59.97C109.8 59.97 108.13 59.83 106.69 59.54C105.26 59.26 104.06 58.88 103.1 58.41C102.14 57.94 101.42 57.39 100.95 56.77C100.48 56.15 100.24 55.5 100.24 54.83C100.24 53.99 100.48 53.09 100.95 52.14C101.42 51.18 102.1 50.36 103 49.69C103.43 49.77 104.14 49.86 105.11 49.95V49.94ZM116.55 33.9C116.19 34.81 115.7 35.6 115.09 36.27C114.48 36.95 113.79 37.48 113 37.87C112.22 38.26 111.39 38.46 110.53 38.46C109.5 38.46 108.56 38.21 107.69 37.71C106.83 37.21 106.09 36.52 105.48 35.64C104.87 34.76 104.4 33.73 104.06 32.54C103.72 31.35 103.55 30.07 103.55 28.69C103.55 27.53 103.66 26.45 103.9 25.45C104.13 24.45 104.48 23.58 104.95 22.84C105.42 22.1 106.03 21.52 106.77 21.1C107.51 20.68 108.4 20.47 109.42 20.47C110.44 20.47 111.46 20.74 112.38 21.28C113.3 21.82 114.11 22.56 114.81 23.49C115.51 24.42 116.07 25.53 116.47 26.81C116.87 28.09 117.08 29.48 117.08 30.96C117.08 32.01 116.9 32.99 116.53 33.9H116.55Z" fill="#D7D7D7"/>
<path d="M153.08 41.7C152.7 42.38 152.22 43.02 151.64 43.62C151.06 44.23 150.44 44.75 149.8 45.2C149.15 45.65 148.48 46 147.79 46.25C147.1 46.51 146.46 46.63 145.87 46.63C144.95 46.63 144.09 46.49 143.28 46.2C142.47 45.92 141.76 45.53 141.15 45.03C140.54 44.53 140.06 43.94 139.71 43.27C139.36 42.6 139.18 41.88 139.18 41.12V19.44H133.1V41.12C133.1 42.42 133.36 43.64 133.87 44.79C134.38 45.94 135.07 46.94 135.94 47.79C136.8 48.64 137.82 49.32 139 49.82C140.18 50.32 141.42 50.57 142.75 50.57C143.64 50.57 144.58 50.4 145.57 50.06C146.56 49.72 147.52 49.26 148.47 48.68C149.41 48.1 150.29 47.42 151.08 46.65C151.88 45.88 152.55 45.06 153.09 44.2V49.91H159.13V19.44H153.09V41.69L153.08 41.7Z" fill="#D7D7D7"/>
<path d="M166.45 20.59V49.92H172.49V18.84H170.71L166.45 20.59Z" fill="#D7D7D7"/>
<path d="M203.1 21.54C202.41 20.72 201.6 20.06 200.67 19.57C199.74 19.08 198.75 18.84 197.69 18.84C195.64 18.84 193.62 19.35 191.63 20.38C189.65 21.41 187.73 22.95 185.9 25V19.45H179.82V49.92H185.9V27.35C187.28 26.03 188.72 24.96 190.24 24.15C191.75 23.34 193.16 22.93 194.45 22.93C195.88 22.93 197.05 23.45 197.95 24.49C198.86 25.53 199.31 27.06 199.31 29.09V49.92H205.35V28.04C205.35 26.77 205.15 25.58 204.74 24.45C204.34 23.33 203.79 22.36 203.1 21.53V21.54Z" fill="#D7D7D7"/>
<path d="M237.02 41.25C236.33 42.14 235.49 42.94 234.51 43.64C233.52 44.34 232.43 44.9 231.23 45.32C230.03 45.74 228.76 45.95 227.44 45.95C225.87 45.95 224.43 45.59 223.13 44.88C221.82 44.16 220.68 43.17 219.73 41.9C218.77 40.63 218.03 39.12 217.5 37.38C216.97 35.64 216.71 33.74 216.71 31.69H239.44C239.44 29.99 239.11 28.37 238.45 26.83C237.79 25.29 236.86 23.93 235.65 22.74C234.45 21.55 233.02 20.61 231.36 19.9C229.7 19.2 227.87 18.85 225.87 18.85C223.6 18.85 221.55 19.28 219.71 20.13C217.87 20.98 216.3 22.16 214.99 23.68C213.68 25.19 212.67 26.99 211.95 29.07C211.23 31.15 210.88 33.41 210.88 35.84C210.88 37.87 211.27 39.78 212.06 41.57C212.84 43.37 213.92 44.93 215.28 46.27C216.64 47.61 218.23 48.66 220.04 49.43C221.85 50.2 223.78 50.58 225.83 50.58C227.4 50.58 228.95 50.28 230.49 49.69C232.03 49.1 233.45 48.29 234.74 47.26C236.04 46.23 237.17 45.04 238.14 43.67C239.11 42.31 239.82 40.84 240.25 39.27L238.51 38.5C238.21 39.45 237.72 40.36 237.03 41.26L237.02 41.25ZM217.51 26C217.94 25.01 218.48 24.16 219.13 23.43C219.78 22.7 220.52 22.13 221.36 21.73C222.2 21.33 223.08 21.12 223.99 21.12C225.07 21.12 226.09 21.33 227.05 21.75C228.01 22.17 228.85 22.74 229.56 23.47C230.28 24.2 230.84 25.06 231.24 26.04C231.65 27.03 231.85 28.1 231.85 29.26L216.74 29.22C216.82 28.06 217.08 26.99 217.51 26Z" fill="#D7D7D7"/>
<path d="M249.62 5.25V0H246.6V5.25H241.12V8.25H246.6V13.5H249.62V8.25H255.12V5.25H249.62Z" fill="#D7D7D7"/>
<path d="M140.97 66.28C140.61 66.64 140.02 66.88 139.29 66.88C138.51 66.88 137.87 66.71 137.26 65.91V70.06H136.54V59.94H137.26V60.82C137.87 60.03 138.51 59.85 139.29 59.85C140.01 59.85 140.61 60.09 140.97 60.45C141.67 61.15 141.85 62.28 141.85 63.36C141.85 64.44 141.66 65.58 140.97 66.27V66.28ZM139.19 60.5C137.51 60.5 137.26 61.95 137.26 63.37C137.26 64.79 137.52 66.24 139.19 66.24C140.86 66.24 141.12 64.79 141.12 63.37C141.12 61.95 140.86 60.5 139.19 60.5Z" fill="#D7D7D7"/>
<path d="M148.47 66.12C147.97 66.62 147.35 66.87 146.57 66.87C145.79 66.87 145.16 66.61 144.67 66.12C143.95 65.4 143.82 64.34 143.82 63.36C143.82 62.38 143.95 61.33 144.67 60.6C145.17 60.1 145.81 59.85 146.57 59.85C147.33 59.85 147.98 60.11 148.47 60.6C149.19 61.32 149.32 62.38 149.32 63.36C149.32 64.34 149.19 65.39 148.47 66.12ZM147.98 61.08C147.6 60.7 147.11 60.5 146.56 60.5C146.01 60.5 145.52 60.7 145.14 61.08C144.57 61.65 144.53 62.57 144.53 63.37C144.53 64.17 144.57 65.09 145.14 65.66C145.52 66.04 146.01 66.24 146.56 66.24C147.11 66.24 147.6 66.04 147.98 65.66C148.55 65.09 148.59 64.17 148.59 63.37C148.59 62.57 148.55 61.65 147.98 61.08Z" fill="#D7D7D7"/>
<path d="M153.78 66.88C152.59 66.88 151.71 66.57 151.01 65.9L151.51 65.4C152.04 65.95 152.79 66.24 153.76 66.24C155.11 66.24 155.82 65.77 155.82 64.85C155.82 64.13 155.42 63.8 154.51 63.7L153.37 63.6C151.99 63.49 151.31 62.89 151.31 61.81C151.31 60.62 152.28 59.86 153.77 59.86C154.72 59.86 155.56 60.13 156.17 60.58L155.69 61.06C155.16 60.68 154.52 60.48 153.77 60.48C152.63 60.48 152.02 60.95 152.02 61.8C152.02 62.52 152.45 62.85 153.41 62.95L154.52 63.05C155.66 63.16 156.52 63.51 156.52 64.84C156.52 66.09 155.47 66.87 153.78 66.87V66.88Z" fill="#D7D7D7"/>
<path d="M158.61 56.68H159.5V57.57H158.61V56.68ZM158.7 59.94H159.42V66.79H158.7V59.94Z" fill="#D7D7D7"/>
<path d="M162.35 65V60.48H161.41V59.94H162.35V57.75H163.07V59.94H164.62V60.48H163.07V65.01C163.07 65.73 163.4 66.15 164.12 66.15H164.62V66.79H164C162.92 66.79 162.35 66.04 162.35 65Z" fill="#D7D7D7"/>
<path d="M166.71 56.68H167.6V57.57H166.71V56.68ZM166.79 59.94H167.51V66.79H166.79V59.94Z" fill="#D7D7D7"/>
<path d="M171.59 66.79L169.09 59.94H169.88L171.94 65.94L174 59.94H174.79L172.29 66.79H171.58H171.59Z" fill="#D7D7D7"/>
<path d="M178.94 66.22C179.75 66.22 180.25 65.98 180.83 65.4L181.37 65.83C180.67 66.53 180.04 66.88 178.9 66.88C177.01 66.88 175.99 65.66 175.99 63.37C175.99 61.08 177.01 59.86 178.73 59.86C180.45 59.86 181.47 61.1 181.47 63.2V63.53H176.71C176.71 65.28 177.48 66.23 178.94 66.23V66.22ZM180.5 61.65C180.2 60.93 179.52 60.5 178.72 60.5C177.92 60.5 177.24 60.93 176.94 61.65C176.78 62.09 176.74 62.27 176.7 62.94H180.73C180.69 62.29 180.67 62.06 180.49 61.65H180.5Z" fill="#D7D7D7"/>
<path d="M183.78 65.02V56.68H184.5V65C184.5 65.78 184.74 66.15 185.55 66.15H186.05V66.79H185.43C184.31 66.79 183.78 66.09 183.78 65.01V65.02Z" fill="#D7D7D7"/>
<path d="M188.77 69.45C188.43 69.78 187.93 69.89 187.48 69.89H187.14V69.25H187.41C188.19 69.25 188.42 68.99 188.66 68.31L189.21 66.79L186.71 59.94H187.5L189.56 65.94L191.62 59.94H192.42L189.24 68.65C189.11 69.02 188.96 69.29 188.77 69.44V69.45Z" fill="#D7D7D7"/>
<path d="M200.24 66.88C198.36 66.88 197.23 65.55 197.23 63.37C197.23 61.19 198.37 59.86 200.24 59.86C201.18 59.86 201.77 60.1 202.5 60.91L202 61.36C201.42 60.71 200.96 60.49 200.24 60.49C199.46 60.49 198.83 60.79 198.42 61.4C198.08 61.9 197.95 62.44 197.95 63.36C197.95 64.28 198.08 64.82 198.42 65.32C198.83 65.93 199.46 66.23 200.24 66.23C200.96 66.23 201.42 66 202 65.36L202.5 65.82C201.78 66.63 201.18 66.87 200.24 66.87V66.88Z" fill="#D7D7D7"/>
<path d="M204.6 65.02V56.68H205.32V65C205.32 65.78 205.56 66.15 206.37 66.15H206.87V66.79H206.25C205.13 66.79 204.6 66.09 204.6 65.01V65.02Z" fill="#D7D7D7"/>
<path d="M211.26 66.22C212.07 66.22 212.57 65.98 213.15 65.4L213.69 65.83C212.99 66.53 212.36 66.88 211.22 66.88C209.33 66.88 208.31 65.66 208.31 63.37C208.31 61.08 209.33 59.86 211.05 59.86C212.77 59.86 213.79 61.1 213.79 63.2V63.53H209.03C209.03 65.28 209.8 66.23 211.26 66.23V66.22ZM212.82 61.65C212.52 60.93 211.84 60.5 211.04 60.5C210.24 60.5 209.56 60.93 209.26 61.65C209.1 62.09 209.06 62.27 209.02 62.94H213.05C213.01 62.29 212.99 62.06 212.81 61.65H212.82Z" fill="#D7D7D7"/>
<path d="M220.15 66.11C219.57 66.69 219.03 66.88 218.06 66.88C217.04 66.88 216.48 66.71 216.04 66.26C215.71 65.93 215.54 65.44 215.54 64.93C215.54 63.68 216.43 62.96 217.93 62.96H220.15V62.19C220.15 61.1 219.62 60.51 218.22 60.51C217.25 60.51 216.77 60.75 216.33 61.38L215.8 60.93C216.38 60.12 217.09 59.88 218.22 59.88C220.04 59.88 220.88 60.69 220.88 62.13V66.82H220.16V66.14L220.15 66.11ZM218.02 63.52C216.85 63.52 216.27 63.98 216.27 64.9C216.27 65.82 216.81 66.24 218.06 66.24C218.68 66.24 219.27 66.18 219.77 65.71C220.03 65.47 220.15 65.03 220.15 64.4V63.52H218.02Z" fill="#D7D7D7"/>
<path d="M226.13 60.5C224.95 60.5 224.3 61.48 224.3 62.57V66.79H223.58V59.94H224.3V60.85C224.7 60.21 225.49 59.86 226.3 59.86C226.97 59.86 227.45 60.02 227.95 60.51L227.42 61.04C227.01 60.63 226.7 60.5 226.13 60.5Z" fill="#D7D7D7"/>
</svg>
