<svg width="341" height="98" viewBox="0 0 341 98" fill="none" xmlns="http://www.w3.org/2000/svg">
<path d="M83.84 0H69.87V13.97H83.84V0Z" fill="#D7D7D7"/>
<path d="M69.87 0H55.9V13.97H69.87V0Z" fill="#D7D7D7"/>
<path d="M55.89 0H41.92V13.97H55.89V0Z" fill="#D7D7D7"/>
<path d="M41.92 0H27.95V13.97H41.92V0Z" fill="#D7D7D7"/>
<path d="M27.94 0H13.97V13.97H27.94V0Z" fill="#D7D7D7"/>
<path d="M13.97 0H0V13.97H13.97V0Z" fill="#D7D7D7"/>
<path d="M83.84 13.97H69.87V27.95H83.84V13.97Z" fill="#D7D7D7"/>
<path d="M13.97 13.97H0V27.95H13.97V13.97Z" fill="#D7D7D7"/>
<path d="M83.84 27.95H69.87V41.92H83.84V27.95Z" fill="#D7D7D7"/>
<path d="M13.97 27.95H0V41.92H13.97V27.95Z" fill="#D7D7D7"/>
<path d="M83.84 41.92H69.87V55.89H83.84V41.92Z" fill="#D7D7D7"/>
<path d="M13.97 41.92H0V55.89H13.97V41.92Z" fill="#D7D7D7"/>
<path d="M83.84 55.9H69.87V69.87H83.84V55.9Z" fill="#D7D7D7"/>
<path d="M69.87 55.9H55.9V69.87H69.87V55.9Z" fill="#D7D7D7"/>
<path d="M13.97 55.9H0V69.87H13.97V55.9Z" fill="#D7D7D7"/>
<path d="M83.84 69.87H69.87V83.84H83.84V69.87Z" fill="#D7D7D7"/>
<path d="M97.9 83.92H83.93V97.89H97.9V83.92Z" fill="#D7D7D7"/>
<path d="M69.87 69.87H55.9V83.84H69.87V69.87Z" fill="#D7D7D7"/>
<path d="M55.89 69.87H41.92V83.84H55.89V69.87Z" fill="#D7D7D7"/>
<path d="M41.92 69.87H27.95V83.84H41.92V69.87Z" fill="#D7D7D7"/>
<path d="M27.94 69.87H13.97V83.84H27.94V69.87Z" fill="#D7D7D7"/>
<path d="M13.97 69.87H0V83.84H13.97V69.87Z" fill="#D7D7D7"/>
<path d="M258.92 69.85H252.15V36.36H258.92V69.85Z" fill="#D7D7D7"/>
<path d="M157.08 20.13C155.06 20.13 153.56 20.84 152.57 22.27C151.58 23.7 151.08 25.59 151.08 27.93V38.45H144.31V14.18H151.08V17.38C151.95 16.39 153.04 15.55 154.35 14.85C155.66 14.16 156.99 13.8 158.34 13.77L158.38 20.13H157.07H157.08Z" fill="#D7D7D7"/>
<path d="M183.62 25.1C183.62 21.72 182.45 18.81 180.12 16.8C177.79 14.78 174.95 13.78 171.61 13.78C168.27 13.78 165.37 14.91 162.92 17.17C160.47 19.43 159.24 22.47 159.24 26.29C159.24 30.11 160.44 33.16 162.85 35.43C165.06 37.52 167.81 38.64 171.1 38.81C171.37 38.83 171.65 38.84 171.92 38.84C172.02 38.84 172.13 38.84 172.23 38.84C172.4 38.84 172.57 38.84 172.74 38.82C177.89 38.55 182.12 35.73 183.27 30.78H177.21C176.29 32.35 174.46 33.18 172.36 33.25H171.98C171.84 33.25 171.71 33.25 171.57 33.23C171.31 33.21 171.04 33.19 170.78 33.14C169.78 32.97 168.85 32.59 168 31.98C166.83 31.14 166.13 30.06 165.92 28.73H183.61V25.12L183.62 25.1ZM166.1 23.88C166.28 22.5 166.93 21.4 168.04 20.59C169.15 19.78 170.38 19.37 171.72 19.37C173.06 19.37 174.2 19.76 175.13 20.54C176.06 21.32 176.6 22.44 176.75 23.88H166.1Z" fill="#D7D7D7"/>
<path d="M224.27 47.87C222.54 46.07 220.4 45.16 217.84 45.16C215.28 45.16 212.98 46.2 210.94 48.27V45.53H204.17V69.84H210.94V59.73C211.1 54.86 212.69 52.57 215.51 52.17C218.31 51.77 220.1 54.22 220.1 56.76C220.1 56.71 220.1 56.66 220.1 56.61V69.85H226.87V55.09C226.87 52.08 226 49.67 224.28 47.87H224.27Z" fill="#D7D7D7"/>
<path d="M141.33 45.54V55.68C141.16 60.53 139.57 62.82 136.76 63.22C133.96 63.62 132.17 61.17 132.17 58.63C132.17 58.69 132.17 58.75 132.17 58.81V45.54H125.4V60.3C125.4 63.31 126.26 65.72 127.99 67.52C129.72 69.32 131.86 70.23 134.42 70.23C136.98 70.23 139.28 69.19 141.32 67.11V69.82H148.09V45.54H141.32H141.33Z" fill="#D7D7D7"/>
<path d="M310.7 47.87C308.97 46.07 306.83 45.16 304.27 45.16C301.71 45.16 299.41 46.2 297.37 48.27V45.56H290.6V69.84H297.37V59.74C297.53 54.87 299.12 52.56 301.94 52.16C304.74 51.76 306.53 54.21 306.53 56.75C306.53 56.7 306.53 56.65 306.53 56.6V69.84H313.3V55.08C313.3 52.07 312.43 49.66 310.7 47.86V47.87Z" fill="#D7D7D7"/>
<path d="M279.28 57.48C279.28 61.06 276.62 63.97 273.33 63.97C270.04 63.97 267.38 61.07 267.38 57.48C267.38 53.89 270.04 51 273.33 51C276.62 51 279.28 53.9 279.28 57.48ZM279.87 45.57V48.18C278 46.1 275.6 45.07 272.65 45.07C269.7 45.07 267.13 46.22 264.93 48.52C262.73 50.82 261.64 53.78 261.64 57.39C261.64 61 262.77 64.02 265.02 66.46C267.27 68.9 269.84 70.12 272.71 70.12C275.58 70.12 277.97 68.93 279.86 66.55V69.78H286.63V45.57H279.86H279.87Z" fill="#D7D7D7"/>
<path d="M233.07 16.48C231.34 14.67 229.2 13.77 226.64 13.77C224.08 13.77 221.78 14.81 219.74 16.88V14.17H212.97V38.45H219.74V28.35C219.9 23.48 221.48 21.06 224.31 20.77C227.14 20.49 228.9 22.82 228.9 25.36C228.9 25.31 228.9 25.26 228.9 25.21V38.45H235.67V23.69C235.67 20.68 234.8 18.27 233.08 16.47L233.07 16.48Z" fill="#D7D7D7"/>
<path d="M116.99 30.9C116.99 33.29 116.11 35.21 114.35 36.65C112.59 38.09 110.36 38.82 107.65 38.82C105.84 38.82 103.96 38.5 102.01 37.85C100.05 37.2 98.29 36.25 96.73 34.98L99.71 30.45C102.24 32.41 104.93 33.38 107.79 33.38C108.66 33.38 109.35 33.21 109.87 32.86C110.38 32.51 110.54 32.2 110.64 31.77C110.78 31.15 110.49 30.58 109.58 30.19C108.6 29.77 104.15 28.06 103.44 27.75C102.73 27.45 101.93 27.01 101.03 26.44C99.19 25.3 98.28 23.6 98.28 21.36C98.28 19.12 99.18 17.29 100.99 15.88C102.8 14.47 105.13 13.76 107.99 13.76C110.85 13.76 113.71 14.72 116.57 16.65L114.04 21.4C111.93 19.96 109.84 19.23 107.74 19.23C105.64 19.23 104.6 19.8 104.6 20.94C104.6 21.46 104.93 21.83 105.59 22.19C106.25 22.55 111.51 24.3 112.16 24.56C112.81 24.82 113.58 25.21 114.49 25.76C116.17 26.78 117.02 28.49 117.02 30.88L116.99 30.9Z" fill="#D7D7D7"/>
<path d="M249.43 62.31C249.43 64.7 248.55 66.62 246.79 68.06C245.03 69.5 242.79 70.23 240.09 70.23C238.28 70.23 236.4 69.91 234.45 69.26C232.49 68.61 230.73 67.66 229.17 66.39L232.15 61.86C234.68 63.82 237.37 64.79 240.23 64.79C241.1 64.79 241.79 64.62 242.31 64.27C242.82 63.93 242.98 63.62 243.08 63.18C243.22 62.56 242.93 61.99 242.02 61.6C241.04 61.18 236.59 59.47 235.88 59.16C235.17 58.86 234.37 58.42 233.47 57.85C231.63 56.71 230.72 55.01 230.72 52.77C230.72 50.53 231.62 48.7 233.43 47.29C235.23 45.88 237.57 45.17 240.43 45.17C243.29 45.17 246.14 46.13 249 48.06L246.47 52.81C244.36 51.37 242.27 50.64 240.18 50.64C238.09 50.64 237.04 51.21 237.04 52.35C237.04 52.88 237.37 53.24 238.03 53.6C238.69 53.96 243.95 55.72 244.6 55.97C245.25 56.23 246.02 56.62 246.93 57.17C248.61 58.19 249.46 59.9 249.46 62.29L249.43 62.31Z" fill="#D7D7D7"/>
<path d="M114.91 45.54V48.28C112.83 46.2 110.41 45.17 107.64 45.17C104.87 45.17 102.36 46.35 100.1 48.71C97.84 51.07 96.72 54.08 96.72 57.74C96.72 61.4 97.88 64.39 100.2 66.72C102.52 69.05 105.22 70.22 108.32 70.22C110.79 70.22 112.98 69.45 114.91 67.92V78.62H121.72V45.56H114.91V45.54ZM108.52 64.29C105.23 64.29 102.57 61.39 102.57 57.81C102.57 54.23 105.23 51.32 108.52 51.32C111.81 51.32 114.47 54.22 114.47 57.81C114.47 61.4 111.81 64.29 108.52 64.29Z" fill="#D7D7D7"/>
<path d="M340.65 36.32H333.83V47.39C331.91 45.85 329.71 45.09 327.24 45.09C324.14 45.09 321.43 46.26 319.12 48.59C316.8 50.92 315.64 53.92 315.64 57.57C315.64 61.22 316.77 64.23 319.02 66.6C321.28 68.96 323.79 70.15 326.56 70.15C329.33 70.15 331.75 69.11 333.83 67.03V69.82H340.65V36.32ZM333.39 57.48C333.39 61.06 330.73 63.97 327.44 63.97C324.15 63.97 321.49 61.07 321.49 57.48C321.49 53.89 324.15 51 327.44 51C330.73 51 333.39 53.9 333.39 57.48Z" fill="#D7D7D7"/>
<path d="M210.16 25.1C210.16 21.72 208.99 18.81 206.66 16.8C204.33 14.79 201.49 13.78 198.15 13.78C194.81 13.78 191.91 14.91 189.46 17.17C187.01 19.43 185.78 22.47 185.78 26.29C185.78 30.11 186.98 33.16 189.39 35.43C191.6 37.52 194.35 38.64 197.63 38.81C197.9 38.83 198.18 38.84 198.45 38.84C198.56 38.84 198.66 38.84 198.76 38.84C198.93 38.84 199.1 38.84 199.27 38.82C204.42 38.55 208.65 35.73 209.79 30.78H203.73C202.82 32.35 200.99 33.18 198.88 33.25H198.5C198.36 33.25 198.22 33.25 198.09 33.23C197.83 33.21 197.56 33.19 197.3 33.14C196.3 32.97 195.37 32.59 194.52 31.98C193.35 31.14 192.65 30.06 192.44 28.73H210.13V25.12L210.16 25.1ZM192.64 23.88C192.82 22.5 193.47 21.4 194.58 20.59C195.69 19.78 196.92 19.37 198.26 19.37C199.6 19.37 200.73 19.76 201.67 20.54C202.6 21.32 203.14 22.44 203.29 23.88H192.64Z" fill="#D7D7D7"/>
<path d="M174.82 56.49C174.82 53.11 173.65 50.2 171.32 48.19C168.99 46.17 166.15 45.17 162.81 45.17C159.47 45.17 156.57 46.3 154.12 48.55C151.67 50.81 150.44 53.85 150.44 57.67C150.44 61.49 151.64 64.54 154.05 66.81C156.26 68.9 159.01 70.02 162.3 70.19C162.57 70.21 162.84 70.22 163.12 70.22C163.23 70.22 163.33 70.22 163.43 70.22C163.6 70.22 163.77 70.22 163.94 70.2C169.1 69.93 173.32 67.11 174.47 62.16H168.41C167.49 63.73 165.67 64.56 163.56 64.62C163.43 64.62 163.31 64.62 163.18 64.62C163.04 64.62 162.91 64.62 162.77 64.6C162.51 64.58 162.24 64.56 161.99 64.51C160.99 64.34 160.06 63.96 159.21 63.35C158.04 62.51 157.34 61.42 157.13 60.1H174.82V56.49ZM157.3 55.27C157.48 53.89 158.13 52.79 159.24 51.98C160.35 51.17 161.58 50.76 162.92 50.76C164.26 50.76 165.39 51.15 166.33 51.93C167.26 52.71 167.8 53.83 167.95 55.27H157.3Z" fill="#D7D7D7"/>
<path d="M201.36 56.49C201.36 53.11 200.19 50.2 197.86 48.19C195.53 46.17 192.69 45.17 189.35 45.17C186.01 45.17 183.11 46.3 180.66 48.55C178.2 50.81 176.98 53.85 176.98 57.67C176.98 61.49 178.18 64.54 180.59 66.81C182.8 68.9 185.55 70.02 188.83 70.19C189.1 70.21 189.37 70.22 189.65 70.22C189.76 70.22 189.86 70.22 189.96 70.22C190.13 70.22 190.3 70.22 190.47 70.2C195.63 69.93 199.85 67.11 201 62.16H194.94C194.02 63.73 192.2 64.56 190.09 64.62C189.96 64.62 189.84 64.62 189.71 64.62C189.57 64.62 189.43 64.62 189.3 64.6C189.04 64.58 188.77 64.56 188.51 64.51C187.51 64.34 186.58 63.96 185.73 63.35C184.56 62.51 183.86 61.42 183.65 60.1H201.34V56.49H201.36ZM183.84 55.27C184.02 53.89 184.67 52.79 185.78 51.98C186.89 51.17 188.12 50.76 189.46 50.76C190.8 50.76 191.93 51.15 192.87 51.93C193.8 52.71 194.34 53.83 194.49 55.27H183.84Z" fill="#D7D7D7"/>
<path d="M135.05 30.75C133.89 32.03 132.27 32.83 130.46 32.83C126.96 32.83 124.12 29.85 124.12 26.19C124.12 22.53 126.96 19.55 130.46 19.55C132.3 19.55 133.96 20.38 135.12 21.7H141.69C139.96 16.97 135.59 13.6 130.47 13.6C123.84 13.6 118.44 19.25 118.44 26.19C118.44 33.13 123.83 38.78 130.47 38.78C135.57 38.78 139.92 35.44 141.67 30.74H135.07L135.05 30.75Z" fill="#D7D7D7"/>
</svg>
