<svg width="211" height="70" viewBox="0 0 211 70" fill="none" xmlns="http://www.w3.org/2000/svg">
<path d="M8.86202 50.2986L5.15121 64.2884C5.04474 64.6036 4.9915 64.7155 4.61764 64.7155H3.26677C2.8923 64.7155 2.7828 64.6944 2.87173 64.2673L6.5777 50.2986H2.48758C2.1361 50.2986 2.09073 50.2108 2.17966 49.8715C2.41801 48.9752 2.44705 48.8633 2.86871 48.8633H13.3538C13.7743 48.8633 13.7507 48.9523 13.5002 49.8955C13.4173 50.2107 13.323 50.2986 12.9727 50.2986H8.86202Z" fill="#D7D7D7"/>
<path d="M11.8711 64.3341C11.7501 64.695 11.6291 64.7155 11.349 64.7155H10.1584C9.83116 64.7155 9.69625 64.6944 9.79184 64.3341L12.2806 54.9468C12.4893 54.1648 12.6551 53.8929 13.2455 53.6005C14.4862 53.0757 15.8217 52.8089 17.1699 52.8167C18.3127 52.8167 19.5087 53.0633 19.2267 54.1185C19.1561 54.3873 19.0002 54.6264 18.7824 54.8004C18.5645 54.9743 18.2961 55.074 18.0168 55.0846C17.5934 55.0846 17.4814 54.9041 17.1971 54.4794C17.0782 54.2907 16.9092 54.1384 16.7087 54.0392C16.5082 53.9401 16.2841 53.898 16.061 53.9175C14.6829 53.9175 14.3986 54.9035 14.2207 55.4876L11.8711 64.3341Z" fill="#D7D7D7"/>
<path d="M26.1759 62.3568C25.8831 63.368 25.6175 63.9293 24.6339 64.3792C23.5316 64.7969 22.3596 65.0025 21.1802 64.985C20.5498 64.985 17.0937 64.985 17.9037 61.9327C18.5891 59.3496 21.4004 58.6079 25.4179 57.5509L25.7204 56.408C25.9527 55.5309 26.358 54.0048 24.6072 54.0048C24.1227 54.0268 23.6521 54.1726 23.2408 54.4281C22.8294 54.6837 22.4912 55.0402 22.2588 55.4635C21.9817 55.8906 21.6538 56.4302 20.9521 56.4302C20.8352 56.438 20.7182 56.4161 20.6122 56.3666C20.5061 56.317 20.4145 56.2415 20.3459 56.147C20.2773 56.0526 20.234 55.9424 20.22 55.8267C20.206 55.711 20.2219 55.5937 20.2661 55.4858C20.6236 54.1395 22.7276 52.8149 25.2267 52.8149C28.6605 52.8149 28.0458 55.2163 27.7536 56.408L26.1759 62.3568ZM25.1372 58.6079C22.3834 59.3947 20.5685 59.9103 20.107 61.6391C20.0586 61.8196 19.5407 63.7723 21.9218 63.7723C23.7434 63.7723 24.0392 62.7382 24.2013 62.1324L25.1372 58.6079Z" fill="#D7D7D7"/>
<path d="M33.3592 61.9537L38.6652 53.3978C38.7941 53.174 38.8588 53.1054 39.0282 53.0844H40.1952C40.3119 53.0844 40.4976 53.0844 40.4402 53.3082C40.3958 53.4373 40.332 53.559 40.2508 53.6691L33.3229 64.3792C33.099 64.6944 33.07 64.7155 32.7899 64.7155H31.8812C31.6998 64.6944 31.6719 64.6253 31.6266 64.3546L30.2352 53.6667C30.2112 53.5633 30.2073 53.4563 30.2237 53.3515C30.2456 53.2658 30.2983 53.1911 30.3719 53.1416C30.4455 53.092 30.5348 53.071 30.6229 53.0826H32.047C32.3985 53.0826 32.41 53.1265 32.4656 53.4435L33.3592 61.9537Z" fill="#D7D7D7"/>
<path d="M42.0445 58.5411C41.3972 61.6843 42.6676 63.1442 44.4432 63.1442C45.8437 63.1442 47.0971 62.3808 48.1903 61.1681C48.6615 60.6267 48.7608 60.516 49.0409 60.516C49.1806 60.516 49.4897 60.584 49.3645 61.0574C49.2102 61.6409 47.2943 64.9868 43.6513 64.9868C42.249 64.9868 40.5007 64.4454 39.9979 62.3827C39.7581 61.2336 39.8171 60.0426 40.1692 58.9225C40.4848 57.6054 41.0833 56.3719 41.9235 55.3065C42.5185 54.5533 43.2731 53.9398 44.1337 53.5094C44.9942 53.0791 45.9395 52.8426 46.9023 52.8167C50.5926 52.8167 50.5702 55.8931 50.3258 56.8134C50.2886 57.0154 50.1813 57.198 50.0225 57.3293C49.8637 57.4606 49.6636 57.5322 49.4571 57.5317L42.0445 58.5411ZM48.1377 56.6065C48.3796 55.1688 47.638 54.0932 46.3052 54.0932C44.4147 54.0932 43.0875 55.4834 42.3349 57.4367L48.1377 56.6065Z" fill="#D7D7D7"/>
<path d="M55.3996 47.8972C55.4897 47.5603 55.6585 47.5362 55.9628 47.5362H57.1303C57.4806 47.5362 57.5689 47.5603 57.4794 47.8972L53.1237 64.3125C53.0293 64.6704 52.8763 64.7155 52.5732 64.7155H51.382C51.0088 64.7155 50.9434 64.6944 51.0445 64.3125L55.3996 47.8972Z" fill="#D7D7D7"/>
<path d="M75.0752 58.1585H71.898C71.5247 58.1585 71.4612 58.1357 71.5683 57.7326L71.7534 57.036C71.8538 56.8333 72.0159 56.8333 72.2494 56.8333H77.2476C77.6747 56.8116 77.6269 56.9903 77.544 57.3055L76.293 62.0205C76.0601 62.8062 76.0359 62.8958 75.6602 63.2561C74.6318 64.2222 72.5688 65.0518 70.0238 65.0518C64.3711 65.0518 62.9561 61.1453 64.1122 56.7894C65.3989 51.9396 69.4104 48.5252 74.0583 48.5252C77.9342 48.5252 79.3172 50.7931 79.0256 51.8939C78.9401 52.1889 78.7632 52.4496 78.5202 52.6388C78.2771 52.828 77.9802 52.9362 77.6717 52.9478C77.0667 52.9478 76.8907 52.5448 76.5912 51.8265C76.3802 51.2244 75.9732 50.7095 75.4346 50.3634C74.896 50.0173 74.2566 49.8599 73.6179 49.916C71.0032 49.916 67.8853 51.9841 66.7056 56.4302C65.6457 60.4258 66.8835 63.593 70.5973 63.593C71.4816 63.6093 72.3572 63.4168 73.152 63.0311C73.4405 62.8719 73.6863 62.6461 73.8685 62.3726C74.0508 62.0991 74.1642 61.7861 74.1992 61.4599L75.0752 58.1585Z" fill="#D7D7D7"/>
<path d="M80.7957 64.3341C80.6747 64.695 80.5537 64.7155 80.273 64.7155H79.083C78.7558 64.7155 78.6208 64.6944 78.7158 64.3341L81.2058 54.9468C81.4145 54.1648 81.5803 53.8929 82.1707 53.6005C83.4108 53.0752 84.746 52.8079 86.0939 52.8149C87.2372 52.8149 88.4327 53.0615 88.1507 54.1167C88.0798 54.3859 87.9235 54.6253 87.705 54.7993C87.4866 54.9733 87.2175 55.0727 86.9378 55.0828C86.5143 55.0828 86.4024 54.9023 86.1175 54.4776C85.9985 54.2888 85.8294 54.1364 85.6288 54.0373C85.4282 53.9381 85.2039 53.8961 84.9808 53.9157C83.6033 53.9157 83.3183 54.9017 83.1411 55.4858L80.7957 64.3341Z" fill="#D7D7D7"/>
<path d="M91.5052 64.985C87.9795 64.985 86.9451 61.9327 87.743 58.9225C88.5778 55.7782 91.3255 52.8149 94.7121 52.8149C98.3787 52.8149 99.0605 56.2275 98.4411 58.8335C97.6879 61.8401 94.9632 64.985 91.5052 64.985ZM94.2378 54.0715C92.3933 54.0715 90.7079 55.9364 89.9989 58.6079C89.1652 61.751 90.2814 63.6146 91.9632 63.6146C93.7176 63.6146 95.5802 61.7751 96.2632 58.6759C96.9462 55.5766 95.8028 54.0715 94.2378 54.0715Z" fill="#D7D7D7"/>
<path d="M109.273 61.9327C108.952 63.0528 108.716 63.6826 107.691 64.1994C106.414 64.7378 105.038 65.0054 103.652 64.985C101.76 64.985 101.015 64.5368 100.566 64.1097C99.8857 63.4137 99.9008 62.5595 100.203 61.4376L102.312 53.4886C102.388 53.1963 102.489 53.0844 102.838 53.0844H104.053C104.38 53.0844 104.508 53.1283 104.405 53.5109L102.428 60.9654C102.172 62.0205 101.767 63.6375 104.336 63.6375C106.74 63.6375 107.09 62.3141 107.377 61.2349L109.414 53.5548C109.474 53.331 109.546 53.1506 109.814 53.1054C109.892 53.0844 110.661 53.0844 111.105 53.0844C111.477 53.0844 111.572 53.174 111.506 53.5109L109.273 61.9327Z" fill="#D7D7D7"/>
<path d="M113.929 56.0049C114.221 54.9931 114.316 54.6358 114.676 54.2538C115.354 53.5319 117.368 52.8161 119.377 52.8161C123.697 52.8161 123.984 55.9592 123.347 58.3624C122.596 61.1898 119.959 64.9621 116.154 64.9621C115.31 65.012 114.479 64.7313 113.84 64.1801L112.404 69.5941C112.398 69.6536 112.38 69.7113 112.351 69.7638C112.322 69.8163 112.283 69.8626 112.236 69.9C112.189 69.9375 112.135 69.9654 112.078 69.982C112.02 69.9987 111.959 70.0038 111.9 69.9972H110.732C110.382 69.9972 110.237 69.9304 110.331 69.5761L113.929 56.0049ZM114.184 62.8759C114.804 63.3352 115.551 63.5935 116.324 63.6158C118.216 63.6158 120.262 61.8882 121.097 58.7432C121.811 56.0489 120.987 54.0511 118.556 54.0511C116.525 54.0511 116.209 55.241 115.988 56.0705L114.184 62.8759Z" fill="#D7D7D7"/>
<path d="M40.2744 28.2485H53.5502L48.2381 36.0934H27.6465L36.6671 2.75513H58.4183L56.9295 8.33698C56.9295 8.33698 56.3748 10.683 54.0372 10.683H45.0233L43.7432 15.4047H53.8122L51.7305 23.1545H41.6561L40.2744 28.2485Z" fill="#D7D7D7"/>
<path d="M22.4403 17.0241L21.0834 15.8751C19.4246 14.4795 17.9672 13.2343 17.9672 11.4296C17.9672 9.98584 19.0713 7.89002 22.3895 7.89002C23.423 7.90497 24.4487 8.07201 25.433 8.3857C25.433 8.3857 29.8347 9.82944 30.7996 6.81023L31.9272 2.69498C28.5007 0.970305 24.7227 0.0484381 20.8825 0C11.4452 0 7.07437 6.23995 7.07437 11.5806C7.07437 16.1265 9.98966 18.5268 11.6962 19.9206C14.8051 22.4694 16.0677 23.4655 16.0677 25.3051C16.0537 25.9135 15.8905 26.5094 15.5923 27.0408C15.294 27.5722 14.8697 28.0232 14.3562 28.3544C13.2894 28.963 12.0702 29.2568 10.8414 29.2014C8.28065 29.2014 5.71806 28.5036 2.3557 26.211L0 34.8434C3.87748 36.4667 8.03793 37.3165 12.2449 37.3447C17.0598 37.3447 20.7325 35.996 23.0894 34.0469C24.3471 33.0222 25.3631 31.7353 26.0655 30.2771C26.7679 28.8189 27.1395 27.225 27.1541 25.6083C27.1541 21.1658 24.0912 18.4702 22.4403 17.0259" fill="#D7D7D7"/>
<path d="M110.233 5.28468L104.025 28.45H116.135L113.958 36.1975H91.3867L100.367 2.8592H108.203C108.203 2.8592 110.779 2.85379 110.233 5.28468Z" fill="#D7D7D7"/>
<path d="M126.322 2.8592H133.905C133.905 2.8592 136.741 2.69738 136.04 5.25941L127.696 36.1975H117.351L126.322 2.8592Z" fill="#D7D7D7"/>
<path d="M164.319 2.8592L159.811 19.7629L149.93 2.8592H141.284L132.261 36.1975H140.017C140.746 36.2355 141.465 36.0148 142.046 35.5747C142.627 35.1347 143.031 34.5039 143.188 33.7949L147.411 17.45L158.239 36.1975H165.506L173.81 5.28468C174.422 2.83393 171.859 2.8592 171.859 2.8592H164.319Z" fill="#D7D7D7"/>
<path d="M211 2.8592H199.013L185.571 17.1666L188.796 5.28468C189.447 2.82551 186.664 2.8592 186.664 2.8592H178.975L169.952 36.1975H180.444L185.245 18.3914L191.217 33.6872C191.511 34.4312 192.025 35.0692 192.691 35.5174C193.357 35.9655 194.144 36.2028 194.948 36.1981H203.05L196.26 19.1085L211 2.8592Z" fill="#D7D7D7"/>
<path d="M67.2597 30.4286L69.9101 26.0817C70.5196 25.1593 71.3554 24.4066 72.3385 23.8944C73.3217 23.3823 74.4199 23.1276 75.5295 23.1545H81.3002C81.3002 23.1545 90.2983 23.5937 94.1253 17.6034C94.1253 17.6034 92.6649 30.4286 78.0135 30.4286H67.2597Z" fill="#D7D7D7"/>
<path d="M78.0116 31.7706H76.3117L76.5398 36.1752H86.6535L86.2421 30.0057C83.6778 31.2304 80.8587 31.8352 78.0147 31.7706" fill="#D7D7D7"/>
<path d="M75.4442 14.0764L69.6064 23.8547L65.3717 30.7919L62.0547 36.1734H51.1794L72.9252 2.78701H81.939C82.5777 2.81388 83.1806 3.08732 83.6197 3.54922C84.0588 4.01112 84.2994 4.62507 84.2905 5.26062L85.55 21.3896C84.9584 21.9213 81.2954 21.8961 81.2954 21.8961H75.7902L75.4442 14.0764Z" fill="#D7D7D7"/>
</svg>
