<svg width="308" height="72" viewBox="0 0 308 72" fill="none" xmlns="http://www.w3.org/2000/svg">
<path d="M57.1823 51.8778L63.8823 50.4958C64.9183 54.4338 67.1973 56.9198 72.4473 56.9198C76.3843 56.9198 78.4573 55.5388 78.4573 52.7748C78.4573 50.2188 76.6613 48.9758 70.2373 47.8008C61.6023 46.0738 58.5633 43.1728 58.5633 37.7848C58.5633 31.9128 62.8453 28.1828 71.4803 28.1828C80.3913 28.1828 83.4303 31.8438 84.7433 37.5778L78.0433 39.0288C77.1453 35.0218 75.2113 33.5028 71.3423 33.5028C67.5433 33.5028 65.6093 34.9538 65.6093 37.3708C65.6093 39.6508 66.9913 41.2398 73.1393 42.3448C82.7413 44.1408 85.6413 47.3868 85.6413 52.4988C85.6413 58.5088 81.6353 62.3768 72.3103 62.3768C61.8103 62.3768 58.3563 58.0948 57.1823 51.8778Z" fill="#D7D7D7"/>
<path d="M98.0783 61.4788H90.6863V29.0128H97.9393V37.5778H98.5613C100.357 31.5678 104.501 28.1828 109.958 28.1828C116.728 28.1828 119.974 32.7418 119.974 39.7878V61.4778H112.583V41.7218C112.583 37.7838 110.856 34.8838 106.366 34.8838C101.392 34.8838 98.0773 38.1988 98.0773 43.1038L98.0783 61.4788Z" fill="#D7D7D7"/>
<path d="M146.502 53.7428H145.742C144.084 58.9928 140.354 62.1698 134.621 62.1698C128.818 62.1698 124.743 59.4068 124.743 53.0518C124.743 47.2488 128.265 43.0358 136.485 43.0358H146.156V40.8258C146.156 36.6118 144.429 34.1948 139.87 34.1948C136.071 34.1948 133.861 36.1288 133.032 39.9278L125.986 38.3388C127.229 32.1908 131.857 28.2538 140.146 28.2538C149.541 28.2538 153.547 32.6748 153.547 40.7558V61.4788H146.501V53.7428H146.502ZM146.156 49.2528V47.9408H137.729C133.999 47.9408 131.857 49.3228 131.857 52.0168C131.857 54.3658 133.308 56.3688 137.521 56.3688C142.703 56.3688 146.156 53.3288 146.156 49.2528Z" fill="#D7D7D7"/>
<path d="M179.59 62.3768C173.65 62.3768 169.851 58.5088 168.262 52.8438H167.779V71.9778H160.387V29.0128H167.779V37.4398H168.262C169.989 31.8448 173.58 28.1838 179.452 28.1838C187.119 28.1838 191.402 34.2628 191.402 45.3148C191.402 56.3668 186.912 62.3768 179.59 62.3768ZM184.08 45.3148C184.08 38.2688 181.594 34.8848 176.137 34.8848C171.025 34.8848 167.779 38.4768 167.779 44.1408V46.6278C167.779 52.0848 171.094 55.8158 176.068 55.8158C181.525 55.8158 184.081 52.2928 184.081 45.3158L184.08 45.3148Z" fill="#D7D7D7"/>
<path d="M205.533 41.8348H202.186V43.5738H204.837V45.2048H202.186V48.4548H200.303V40.1908H205.532L205.533 41.8348Z" fill="#D7D7D7"/>
<path d="M211.893 48.4548L211.269 46.5358H208.367L207.756 48.4548H205.741L208.799 40.1908H210.851L213.897 48.4548H211.893ZM208.882 44.9048H210.741L209.805 41.9898L208.882 44.9048Z" fill="#D7D7D7"/>
<path d="M214.679 46.0438H216.562C216.562 46.5718 217.09 46.9798 217.738 46.9798C218.349 46.9798 218.817 46.6678 218.817 46.1278C218.817 45.8038 218.637 45.5038 217.906 45.2638L216.923 44.9638C215.1 44.4718 214.752 43.3568 214.752 42.5768C214.752 41.0898 216.023 40.0468 217.666 40.0468C219.249 40.0468 220.461 40.9938 220.461 42.6018H218.577C218.577 42.1098 218.277 41.6898 217.63 41.6898C217.042 41.6898 216.659 42.0858 216.659 42.5418C216.659 42.7098 216.707 43.0818 217.474 43.2968L218.337 43.5728C219.512 43.9328 220.712 44.5318 220.712 46.0308C220.712 47.8058 219.177 48.5978 217.665 48.5978C215.902 48.5978 214.679 47.5668 214.679 46.0438Z" fill="#D7D7D7"/>
<path d="M227.972 40.1908V41.8348H225.789V48.4548H223.906V41.8348H221.723V40.1908H227.972Z" fill="#D7D7D7"/>
<path d="M228.551 46.3558V44.8328H234.86V46.3558H228.551Z" fill="#D7D7D7"/>
<path d="M241.688 40.1908V41.8348H239.505V48.4548H237.622V41.8348H235.439V40.1908H241.688Z" fill="#D7D7D7"/>
<path d="M247.521 48.4548L245.625 45.5528H245.241V48.4548H243.358V40.1908H246.741C248.66 40.1908 249.523 41.5588 249.523 42.9258C249.523 44.0888 248.66 45.2048 247.591 45.4448L249.714 48.4548H247.52H247.521ZM245.242 41.8348V44.0648H246.442C247.269 44.0648 247.629 43.5248 247.629 42.9738C247.629 42.4228 247.258 41.8348 246.49 41.8348H245.242Z" fill="#D7D7D7"/>
<path d="M256.653 48.4548L256.029 46.5358H253.127L252.516 48.4548H250.501L253.559 40.1908H255.611L258.657 48.4548H256.653ZM255.501 44.9048L254.565 41.9898L253.641 44.9048H255.501Z" fill="#D7D7D7"/>
<path d="M259.343 44.3048C259.343 41.9778 261.214 40.0478 263.54 40.0478C264.991 40.0478 266.263 40.7788 267.019 41.8828L265.556 42.9028C265.124 42.2308 264.489 41.8228 263.624 41.8228C262.233 41.8228 261.237 42.9378 261.237 44.3048C261.237 45.6718 262.197 46.8238 263.612 46.8238C264.488 46.8238 265.124 46.4158 265.555 45.7438L267.018 46.7638C266.262 47.8668 264.991 48.5988 263.539 48.5988C261.213 48.5988 259.342 46.6558 259.342 44.3048H259.343Z" fill="#D7D7D7"/>
<path d="M275.456 48.4548H273.045L270.61 45.2168V48.4548H268.727V40.1908H270.61V43.5248L272.757 40.1908H274.999L272.253 44.2808L275.456 48.4548Z" fill="#D7D7D7"/>
<path d="M278.674 46.8118H282.2V48.4548H276.791V40.1908H282.093V41.8348H278.674V43.5378H281.673V45.2288H278.674V46.8118Z" fill="#D7D7D7"/>
<path d="M287.482 40.1908C289.869 40.1908 291.248 41.9898 291.248 44.3408C291.248 46.6918 289.869 48.4548 287.482 48.4548H284.219V40.1908H287.482ZM287.482 46.8118C288.717 46.8118 289.353 45.6238 289.353 44.3408C289.353 43.0458 288.717 41.8348 287.482 41.8348H286.102V46.8118H287.482Z" fill="#D7D7D7"/>
<path d="M203.71 53.1908C205.629 53.1908 206.492 54.5588 206.492 55.9258C206.492 57.3048 205.629 58.6478 203.71 58.6478H202.187V61.4548H200.304V53.1908H203.71ZM203.626 57.0048C204.334 57.0048 204.598 56.4528 204.598 55.9258C204.598 55.3988 204.334 54.8348 203.638 54.8348H202.187V57.0048H203.626Z" fill="#D7D7D7"/>
<path d="M212.877 61.4548L212.253 59.5358H209.351L208.74 61.4548H206.725L209.783 53.1908H211.835L214.881 61.4548H212.877ZM211.725 57.9048L210.789 54.9898L209.865 57.9048H211.725Z" fill="#D7D7D7"/>
<path d="M218.086 59.8118H221.612V61.4548H216.203V53.1908H221.505V54.8348H218.086V56.5378H221.085V58.2288H218.086V59.8118Z" fill="#D7D7D7"/>
<path d="M226.894 53.1908C229.281 53.1908 230.66 54.9898 230.66 57.3408C230.66 59.6918 229.281 61.4548 226.894 61.4548H223.631V53.1908H226.894ZM226.894 59.8118C228.129 59.8118 228.765 58.6238 228.765 57.3408C228.765 56.0458 228.129 54.8348 226.894 54.8348H225.514V59.8118H226.894Z" fill="#D7D7D7"/>
<path d="M232.595 61.4548V53.1908H234.478V61.4548H232.595Z" fill="#D7D7D7"/>
<path d="M241.976 61.4548L241.352 59.5358H238.45L237.839 61.4548H235.824L238.882 53.1908H240.934L243.98 61.4548H241.976ZM240.824 57.9048L239.888 54.9898L238.964 57.9048H240.824Z" fill="#D7D7D7"/>
<path d="M250.171 53.1908V54.8348H247.988V61.4548H246.105V54.8348H243.922V53.1908H250.171Z" fill="#D7D7D7"/>
<path d="M256.004 61.4548L254.108 58.5528H253.724V61.4548H251.841V53.1908H255.224C257.143 53.1908 258.006 54.5588 258.006 55.9258C258.006 57.0888 257.143 58.2048 256.075 58.4448L258.197 61.4548H256.004ZM253.725 54.8348V57.0648H254.924C255.752 57.0648 256.112 56.5248 256.112 55.9738C256.112 55.4228 255.741 54.8348 254.973 54.8348H253.725Z" fill="#D7D7D7"/>
<path d="M260.027 61.4548V53.1908H261.91V61.4548H260.027Z" fill="#D7D7D7"/>
<path d="M263.819 57.3048C263.819 54.9778 265.69 53.0478 268.016 53.0478C269.467 53.0478 270.739 53.7788 271.495 54.8828L270.032 55.9028C269.6 55.2308 268.965 54.8228 268.1 54.8228C266.709 54.8228 265.713 55.9378 265.713 57.3048C265.713 58.6718 266.673 59.8238 268.088 59.8238C268.964 59.8238 269.6 59.4158 270.031 58.7438L271.494 59.7638C270.738 60.8668 269.467 61.5988 268.015 61.5988C265.689 61.5988 263.818 59.6558 263.818 57.3048H263.819Z" fill="#D7D7D7"/>
<path d="M275.999 57.3048C275.999 54.9778 277.87 53.0478 280.196 53.0478C281.647 53.0478 282.919 53.7788 283.675 54.8828L282.212 55.9028C281.78 55.2308 281.145 54.8228 280.28 54.8228C278.889 54.8228 277.893 55.9378 277.893 57.3048C277.893 58.6718 278.853 59.8238 280.268 59.8238C281.144 59.8238 281.78 59.4158 282.211 58.7438L283.674 59.7638C282.918 60.8668 281.647 61.5988 280.195 61.5988C277.869 61.5988 275.999 59.6558 275.999 57.3048Z" fill="#D7D7D7"/>
<path d="M290.492 61.4548L289.868 59.5358H286.966L286.355 61.4548H284.34L287.398 53.1908H289.45L292.496 61.4548H290.492ZM289.34 57.9048L288.404 54.9898L287.48 57.9048H289.34Z" fill="#D7D7D7"/>
<path d="M297.98 61.4548L296.084 58.5528H295.7V61.4548H293.817V53.1908H297.2C299.119 53.1908 299.982 54.5588 299.982 55.9258C299.982 57.0888 299.119 58.2048 298.05 58.4448L300.173 61.4548H297.979H297.98ZM295.701 54.8348V57.0648H296.901C297.728 57.0648 298.088 56.5248 298.088 55.9738C298.088 55.4228 297.717 54.8348 296.949 54.8348H295.701Z" fill="#D7D7D7"/>
<path d="M303.885 59.8118H307.411V61.4548H302.002V53.1908H307.304V54.8348H303.885V56.5378H306.884V58.2288H303.885V59.8118Z" fill="#D7D7D7"/>
<path d="M18.3873 9.97176C18.3953 9.66576 18.3933 9.35976 18.4113 9.05376C18.4733 8.00676 18.4833 6.95176 18.6253 5.91576C18.7503 5.00176 18.6953 4.08776 18.7783 3.17676C18.8303 2.60676 18.8543 2.03276 18.9423 1.46876C18.9933 1.14076 19.1293 0.821762 19.2563 0.510762C19.5273 -0.153238 20.2713 -0.0992382 20.6333 0.271762C21.4053 1.06076 22.1663 1.86276 22.9083 2.67976C23.2553 3.06176 23.5633 3.48176 23.8643 3.90276C24.1543 4.30776 24.4113 4.73676 24.6853 5.15376C24.7983 5.32476 24.9173 5.49176 25.0383 5.65776C25.3013 6.01776 25.5733 6.37176 25.8303 6.73676C26.0503 7.04976 26.2513 7.37676 26.4663 7.69376C26.5913 7.87876 26.7293 8.05376 26.8563 8.23776C27.1093 8.60476 27.3573 8.97476 27.6093 9.34176C27.7253 9.51076 27.8453 9.67676 27.9663 9.84276C28.3393 10.3548 28.7123 10.8668 29.0873 11.3768C29.2033 11.5348 29.3253 11.6878 29.4423 11.8448C29.6193 12.0848 29.8763 12.2178 30.1353 12.3368C30.2203 12.3758 30.3533 12.3748 30.4373 12.3348C30.7013 12.2068 30.9573 12.0588 31.2083 11.9068C31.6273 11.6528 32.0393 11.3858 32.4563 11.1298C33.1023 10.7338 33.7503 10.3418 34.3973 9.94776C34.7773 9.71576 35.1633 9.49176 35.5353 9.24776C35.8703 9.02776 36.1893 8.78176 36.5193 8.55376C36.8343 8.33576 37.1563 8.12776 37.4733 7.91276C37.6503 7.79276 37.8263 7.67176 38.0013 7.54876C38.3003 7.33876 38.5953 7.12176 38.8973 6.91676C39.2433 6.68076 39.5983 6.45876 39.9443 6.22276C40.1503 6.08176 40.3413 5.91876 40.5463 5.77676C41.2403 5.29276 41.8703 4.71776 42.6253 4.31876C42.9293 4.15776 43.2543 4.07376 43.5813 3.99076C43.7673 3.94376 43.9193 4.05876 44.0423 4.16276C44.1733 4.27476 44.2823 4.42776 44.3613 4.58376C44.4993 4.85576 44.5743 5.14876 44.5553 5.46176C44.5333 5.83876 44.5523 6.21976 44.5093 6.59476C44.4663 6.97276 44.3703 7.34476 44.2993 7.71976C44.2873 7.78176 44.2753 7.84376 44.2753 7.90676C44.2753 8.25176 44.1653 8.57276 44.0593 8.89376C44.0453 8.93576 44.0403 8.98076 44.0313 9.02476C43.9413 9.46876 43.8693 9.91776 43.7573 10.3568C43.6303 10.8548 43.4593 11.3418 43.3213 11.8378C43.2213 12.1968 43.1533 12.5658 43.0493 12.9238C42.9163 13.3838 42.7533 13.8348 42.6183 14.2948C42.5153 14.6438 42.4363 14.9998 42.3473 15.3528C42.2363 15.7908 42.1133 16.2268 42.0183 16.6688C41.9473 16.9988 41.9123 17.3368 41.8643 17.6718C41.8203 17.9798 41.7703 18.2888 41.7443 18.5988C41.7193 18.8938 41.7203 19.1908 41.7103 19.4878C41.7003 19.7848 41.8913 20.0558 42.1743 20.1408C42.7373 20.3088 43.3073 20.2618 43.8743 20.2908C44.3233 20.3138 44.7743 20.3248 45.2243 20.3188C45.6523 20.3128 46.0793 20.2688 46.5073 20.2598C46.9303 20.2518 47.3613 20.3208 47.7753 20.2628C48.8633 20.1088 49.9453 20.2648 51.0293 20.2598C51.5893 20.4188 52.1783 20.3178 52.7353 20.4288C53.4313 20.5678 54.1313 20.5008 54.8243 20.5788C55.2023 20.6208 55.5743 20.7128 55.9473 20.7888C56.0853 20.8168 56.2293 20.8468 56.3523 20.9108C56.4913 20.9838 56.6183 21.0878 56.7353 21.1948C56.8813 21.3278 56.8803 21.5038 56.7983 21.6658C56.7353 21.7908 56.6513 21.9158 56.5483 22.0098C56.2853 22.2508 56.0013 22.4698 55.7373 22.7098C55.5723 22.8588 55.4283 23.0308 55.2763 23.1938C55.2583 23.2128 55.2503 23.2428 55.2303 23.2598C54.9343 23.5038 54.6503 23.7678 54.3343 23.9848C54.0283 24.1958 53.7003 24.3678 53.4163 24.6198C52.7943 25.1718 52.1453 25.6918 51.5083 26.2268C51.1863 26.4968 50.8663 26.7688 50.5463 27.0418C50.1713 27.3608 49.7973 27.6808 49.4243 28.0008C49.0243 28.3448 48.6273 28.6938 48.2253 29.0358C47.9533 29.2678 47.6713 29.4878 47.4003 29.7208C46.7433 30.2858 46.1113 30.8818 45.4293 31.4138C44.8603 31.8578 44.3653 32.3748 43.8283 32.8488C43.6653 32.9928 43.6093 33.2168 43.6813 33.4218C43.8543 33.9168 43.9813 34.4288 44.1403 34.9288C44.2893 35.3948 44.4523 35.8558 44.6153 36.3168C44.7873 36.8028 44.9533 37.2928 45.1443 37.7708C45.4283 38.4828 45.7293 39.1878 46.0283 39.8938C46.2833 40.4938 46.5463 41.0898 46.8043 41.6878C46.9173 41.9488 47.0183 42.2158 47.1413 42.4728C47.3983 43.0128 47.6783 43.5428 47.9253 44.0878C48.0983 44.4678 48.2543 44.8588 48.3763 45.2568C48.4563 45.5168 48.4693 45.7988 48.4993 46.0728C48.5503 46.5478 47.9673 47.0338 47.5283 47.0298C46.9033 47.0238 46.3093 46.9078 45.7293 46.6818C45.1203 46.4438 44.5593 46.1228 44.0033 45.7858C43.6323 45.5608 43.2513 45.3548 42.8653 45.1558C42.2173 44.8198 41.5803 44.4598 40.9233 44.1418C40.4833 43.9298 40.0183 43.7718 39.5753 43.5658C39.1953 43.3888 38.8153 43.2018 38.4623 42.9768C37.9893 42.6748 37.5423 42.3328 37.0863 42.0068C36.7383 41.7578 36.3983 41.4978 36.0433 41.2608C35.8253 41.1158 35.6133 41.2468 35.5353 41.5008C35.4193 41.8768 35.4413 42.2628 35.3943 42.6428C35.3433 43.0558 35.2513 43.4648 35.1763 43.8748C35.1283 44.1368 35.0813 44.3998 35.0263 44.6608C34.9903 44.8348 34.9473 45.0078 34.8973 45.1778C34.7943 45.5268 34.6743 45.8708 34.5813 46.2218C34.4783 46.6078 34.4013 47.0008 34.3053 47.3888C34.2543 47.5948 34.1813 47.7958 34.1263 48.0018C34.0683 48.2158 34.0193 48.4328 33.9683 48.6488C33.8793 49.0298 33.8033 49.4128 33.7033 49.7908C33.6103 50.1418 33.4953 50.4878 33.3843 50.8338C33.2213 51.3418 33.0623 51.8508 32.8853 52.3528C32.7583 52.7128 32.5643 53.0428 32.2373 53.2528C32.0403 53.3788 31.8203 53.4698 31.5673 53.3288C31.2943 53.1768 31.0733 52.9928 30.9113 52.7178C30.6773 52.3188 30.4013 51.9448 30.1603 51.5488C29.9243 51.1608 29.7103 50.7588 29.4863 50.3628C29.1923 49.8428 28.9013 49.3218 28.6033 48.8038C28.3453 48.3558 28.0873 47.9078 27.8113 47.4708C27.4693 46.9278 27.1103 46.3958 26.7553 45.8618C26.4453 45.3938 26.1353 44.9258 25.8153 44.4648C25.6523 44.2298 25.4753 44.0048 25.2933 43.7848C24.9863 43.4118 24.6633 43.0518 24.3603 42.6758C24.2053 42.4818 23.6333 41.5238 23.1873 41.6588C23.1193 41.6708 22.0373 42.3488 21.5333 42.6198C20.7963 43.0168 20.0563 43.4108 19.3613 43.8848C18.9353 44.1748 18.4733 44.4138 18.0323 44.6828C17.8573 44.7898 17.6903 44.9108 17.5283 45.0348C17.2593 45.2418 17.0003 45.4618 16.7293 45.6658C16.5093 45.8318 16.2773 45.9838 16.0503 46.1408C15.7563 46.3428 15.4653 46.5478 15.1673 46.7448C14.8183 46.9758 14.4633 47.1988 14.1113 47.4258C13.8793 47.5758 13.6443 47.7208 13.4183 47.8788C12.9443 48.2118 12.4783 48.5568 12.0043 48.8898C11.5893 49.1818 11.1883 49.4978 10.7183 49.7028C10.5723 49.7668 10.4203 49.8248 10.2653 49.8588C10.0663 49.9028 9.7213 49.6438 9.6323 49.4328C9.3893 48.8588 9.4013 48.2598 9.4653 47.6608C9.4933 47.3998 9.5853 47.1428 9.6643 46.8898C9.8243 46.3718 9.9863 45.8548 10.1643 45.3428C10.3333 44.8558 10.5243 44.3768 10.7033 43.8938C10.8303 43.5518 10.9493 43.2078 11.0773 42.8658C11.2113 42.5078 11.3533 42.1528 11.4893 41.7958C11.7043 41.2308 11.9193 40.6658 12.1273 40.0988C12.2403 39.7908 12.3533 39.4818 12.4463 39.1668C12.5493 38.8178 12.6233 38.4598 12.7193 38.1088C12.8183 37.7498 12.9333 37.3958 13.0313 37.0368C13.0943 36.8058 13.1383 36.5688 13.1933 36.3358C13.2373 36.1448 13.2863 35.9558 13.3303 35.7648C13.3673 35.6008 13.3973 35.4348 13.4363 35.2718C13.5003 35.0048 13.5643 34.7378 13.6373 34.4718C13.6993 34.2448 13.7123 34.0218 13.5603 33.8308C13.4793 33.7288 13.3653 33.6458 13.2513 33.5798C12.9193 33.3868 12.5823 33.2088 12.1883 33.1668C12.0133 33.1478 11.8403 33.0928 11.6703 33.0428C11.3213 32.9408 10.9773 32.8218 10.6263 32.7268C10.3863 32.6618 10.1383 32.6258 9.8943 32.5778C9.6413 32.5278 9.3863 32.4848 9.1353 32.4258C8.8593 32.3618 8.5863 32.2858 8.3123 32.2108C8.0983 32.1528 7.8853 32.0908 7.6723 32.0288C7.4933 31.9768 7.3153 31.9208 7.1373 31.8668C6.7633 31.7548 6.3903 31.6388 6.0143 31.5338C5.8003 31.4738 5.5803 31.4388 5.3643 31.3848C4.9343 31.2758 4.5073 31.1588 4.0773 31.0488C3.8963 31.0028 3.7143 30.9608 3.5323 30.9238C3.2793 30.8718 3.0243 30.8328 2.7723 30.7768C2.5213 30.7208 2.2763 30.6438 2.0253 30.5878C1.6493 30.5038 1.3033 30.3408 0.947299 30.2018C0.575299 30.0568 0.271299 29.8508 0.0702992 29.5038C-0.0787008 29.2468 0.0172991 28.6508 0.281299 28.4328C0.533299 28.2238 0.825299 28.0618 1.1013 27.8818C1.4143 27.6778 1.7293 27.4748 2.0443 27.2738C2.1913 27.1798 2.3433 27.0938 2.4903 27.0008C3.0793 26.6268 3.6753 26.2658 4.3113 25.9788C5.6713 25.3648 6.9533 24.5998 8.3193 23.9998C9.0283 23.6878 9.7323 23.3678 10.4343 23.0408C10.7873 22.8768 11.1623 22.7108 11.4263 22.4208C11.5293 22.3078 11.5163 22.1668 11.4133 22.0238C11.2573 21.8078 11.1233 21.5758 10.9643 21.3608C10.4343 20.6458 9.8023 20.0208 9.1973 19.3708C8.8013 18.9448 8.3753 18.5328 8.0563 18.0528C7.2823 16.8908 6.2103 16.0048 5.3113 14.9608C4.9563 14.5488 4.6373 14.1058 4.2883 13.6878C3.9863 13.3268 3.7523 12.9268 3.5933 12.4878C3.4823 12.1798 3.4033 11.8598 3.3253 11.5418C3.2813 11.3618 3.2603 11.1748 3.2393 10.9908C3.1823 10.4748 3.7753 9.97376 4.2563 9.99476C4.7513 10.0158 5.2293 10.0838 5.7013 10.2358C5.9283 10.3088 6.1703 10.3368 6.4043 10.3888C6.7063 10.4568 7.0083 10.5298 7.3103 10.6008C7.3283 10.6048 7.3453 10.6098 7.3633 10.6128C7.6803 10.6628 7.9983 10.7058 8.3133 10.7628C8.5143 10.7998 8.7123 10.8538 8.9103 10.9068C9.1673 10.9748 9.4233 11.0458 9.6783 11.1198C9.8823 11.1798 10.0833 11.2508 10.2883 11.3078C10.4933 11.3648 10.7023 11.4088 10.9093 11.4588C11.4443 11.5878 11.9793 11.7178 12.5133 11.8478C13.0043 11.9668 13.4963 12.0818 13.9863 12.2068C14.3383 12.2968 14.9563 12.4378 15.3653 12.5438C15.4603 12.5688 15.5483 12.5878 15.6453 12.6028C16.5403 12.7428 17.8243 12.8788 18.0953 12.7848C18.3013 12.7138 18.3273 12.3068 18.3303 12.1808C18.3403 11.7758 18.3573 11.3708 18.3693 10.9658C18.3793 10.6328 18.3863 10.2998 18.3943 9.96676H18.3863L18.3873 9.97176Z" fill="#D7D7D7"/>
</svg>
