<svg width="401" height="79" viewBox="0 0 401 79" fill="none" xmlns="http://www.w3.org/2000/svg">
<path d="M97.8625 51.6383L106.674 47.6079C108.052 50.8811 110.661 54.0321 115.289 54.0321C118.538 54.0321 121.491 52.4688 121.491 48.7071C121.491 45.8248 119.916 44.457 115.215 42.625L112.187 41.4525C105.64 38.8633 99.6593 35.2971 99.6593 27.4318C99.6593 19.0292 106.748 13.8997 115.24 13.8997C123.731 13.8997 129.023 19.1025 131.361 24.232L123.313 28.7509C121.171 25.0625 118.685 23.4992 115.658 23.4992C112.63 23.4992 110.415 24.8671 110.415 27.6028C110.415 29.7279 111.646 31.3645 116.741 33.4163L120.039 34.7109C128.851 38.2038 132.789 42.1609 132.789 48.8537C132.789 58.9662 123.706 63.827 115.436 63.827C107.166 63.827 99.7331 58.7707 97.8625 51.6627V51.6383Z" fill="#D7D7D7"/>
<path d="M135.816 45.3607C135.816 33.2697 145.465 26.8945 154.818 26.8945C164.171 26.8945 173.819 33.2453 173.819 45.3607C173.819 57.4762 164.171 63.827 154.818 63.827C145.465 63.827 135.816 57.4762 135.816 45.3607ZM163.285 45.3607C163.285 39.8892 159.42 36.4696 154.818 36.4696C150.215 36.4696 146.351 39.8892 146.351 45.3607C146.351 50.8322 150.215 54.2519 154.818 54.2519C159.42 54.2519 163.285 50.8322 163.285 45.3607Z" fill="#D7D7D7"/>
<path d="M178.57 14.5836H189.252V63.1186H178.57V14.5836Z" fill="#D7D7D7"/>
<path d="M194.002 45.3607C194.002 32.9766 202.961 26.8945 211.084 26.8945C217.434 26.8945 221.151 30.3141 221.692 31.6087H221.889V27.5784H232.571V63.1186H221.889V59.0883H221.692C221.151 60.3829 217.434 63.8026 211.084 63.8026C202.961 63.8026 194.002 57.7204 194.002 45.3363V45.3607ZM222.184 45.3607C222.184 39.5473 217.975 36.3474 213.299 36.3474C208.622 36.3474 204.561 39.6206 204.561 45.3607C204.561 51.1009 208.77 54.374 213.299 54.374C217.828 54.374 222.184 51.1498 222.184 45.3607Z" fill="#D7D7D7"/>
<path d="M264.741 27.2364V37.2756C263.928 37.1291 263.165 37.0802 262.255 37.0802C255.166 37.0802 251.105 41.7945 251.105 48.4873V63.1186H240.423V27.5784H251.105V37.2268C252.286 31.4866 255.732 26.8945 262.181 26.8945C263.018 26.8945 263.83 26.9677 264.741 27.2364Z" fill="#D7D7D7"/>
<path d="M306.534 31.4133C306.534 41.5258 299.372 48.0965 288.763 48.0965H281.749V63.1431H270.869V14.5836H288.788C299.396 14.5836 306.559 21.081 306.559 31.3889L306.534 31.4133ZM295.532 31.4133C295.532 26.2105 292.16 24.5007 287.754 24.5007H281.773V38.1794H287.754C292.16 38.1794 295.532 36.6161 295.532 31.4133Z" fill="#D7D7D7"/>
<path d="M308.528 45.3607C308.528 32.9766 317.487 26.8945 325.609 26.8945C331.96 26.8945 335.676 30.3141 336.218 31.6087H336.415V27.5784H347.097V63.1186H336.415V59.0883H336.218C335.676 60.3829 331.96 63.8026 325.609 63.8026C317.487 63.8026 308.528 57.7204 308.528 45.3363V45.3607ZM336.71 45.3607C336.71 39.5473 332.501 36.3474 327.825 36.3474C323.148 36.3474 319.087 39.6206 319.087 45.3607C319.087 51.1009 323.296 54.374 327.825 54.374C332.353 54.374 336.71 51.1498 336.71 45.3607Z" fill="#D7D7D7"/>
<path d="M390.416 27.5784L375.402 63.1186L369.889 76.1134H359.428L365.36 62.7034L350.493 27.5784H361.373L370.455 50.6857L379.537 27.5784H390.416Z" fill="#D7D7D7"/>
<path d="M392.09 22.3512C392.09 19.5666 394.207 17.759 396.545 17.759C398.883 17.759 401 19.5666 401 22.3512C401 25.1358 398.859 26.87 396.545 26.87C394.231 26.87 392.09 25.0625 392.09 22.3512ZM399.769 22.3512C399.769 20.2505 398.268 18.9804 396.545 18.9804C394.822 18.9804 393.321 20.2505 393.321 22.3512C393.321 24.4518 394.822 25.6487 396.545 25.6487C398.268 25.6487 399.769 24.3786 399.769 22.3512ZM395.019 20.0551H396.742C397.776 20.0551 398.293 20.6658 398.293 21.5695C398.293 22.2535 397.997 22.6932 397.357 22.9863L398.489 24.5495H397.53L396.496 23.0351H395.954V24.5495H395.068V20.0551H395.019ZM396.619 22.2291C397.062 22.2291 397.382 22.0825 397.382 21.5695C397.382 21.0566 397.062 20.8368 396.619 20.8368H395.88V22.2291H396.619Z" fill="#D7D7D7"/>
<path d="M40.4397 78.9957C37.043 79.0446 33.6218 78.6782 30.1513 77.8232C24.6871 76.4798 19.7891 74.0616 15.5802 70.8618C20.626 72.2541 25.524 73.8418 29.9052 75.5027C33.1787 76.7241 36.7231 77.8965 40.4397 78.9957Z" fill="#D7D7D7"/>
<path d="M55.2076 75.9424C53.2386 76.7729 51.1957 77.4324 49.0789 77.9209C42.6549 76.1623 36.3539 74.0372 30.8405 71.79C24.3426 69.1519 16.7863 66.7093 9.20538 64.7796C8.04855 63.3873 6.96557 61.9462 6.03026 60.4073C14.9403 62.4835 24.0472 65.317 31.6773 68.4191C38.7167 71.3014 46.9868 73.915 55.183 75.9424H55.2076Z" fill="#D7D7D7"/>
<path d="M63.6992 71.0816C62.2963 72.1319 60.8687 73.0601 59.3427 73.8906C56.9552 73.3044 54.5677 72.6693 52.1802 71.9854C45.2885 70.0068 38.446 67.5886 32.5634 64.975C23.9487 61.1645 13.3896 57.7937 3.42125 55.5221C2.80592 54.1786 2.28904 52.7863 1.846 51.3696C12.5528 53.6168 24.1457 57.2807 33.4741 61.3844C42.4087 65.317 53.4109 68.8099 63.7238 71.0816H63.6992Z" fill="#D7D7D7"/>
<path d="M69.6557 65.6345C68.5973 66.8314 67.4897 67.9306 66.3082 68.9565C62.1978 68.0527 57.9643 66.9047 53.7801 65.6345C46.8883 63.5094 40.1197 60.9447 34.2863 58.1601C24.3918 53.4947 11.9375 49.3911 0.713786 47.0217C0.443039 45.6538 0.246133 44.2615 0.123067 42.8692C11.7652 45.1897 24.9087 49.4643 35.2463 54.3252C45.3869 59.1127 58.2105 63.314 69.6557 65.6345Z" fill="#D7D7D7"/>
<path d="M73.9384 59.8211C73.1261 61.1401 72.2893 62.3858 71.354 63.5827C66.2098 62.5324 60.7703 61.0424 55.4046 59.2593C48.5374 56.9876 41.818 54.2519 35.9847 51.3207C25.4255 45.9714 11.839 41.3304 0 38.9366C0 37.5443 0.123067 36.1276 0.29536 34.7109C12.3067 37.0314 26.2132 41.7701 37.0184 47.2416C47.8975 52.7375 61.9025 57.5006 73.9384 59.7967V59.8211Z" fill="#D7D7D7"/>
<path d="M76.9166 53.7634C76.3505 55.2289 75.7105 56.5968 74.9967 57.9403C69.2618 56.7922 63.0839 55.058 57.0044 52.9084C50.1865 50.5147 43.5163 47.6324 37.7076 44.5058C26.9023 38.6679 12.9712 33.6361 0.910692 31.1935C0.959919 30.7782 1.08299 30.363 1.18144 29.9478C1.45219 28.8974 1.72293 27.8959 2.09213 26.8945C14.1034 29.3615 28.0346 34.3933 38.766 40.2068C49.965 46.2401 64.5853 51.4184 76.892 53.7634H76.9166Z" fill="#D7D7D7"/>
<path d="M78.738 47.5102C78.6395 48.0232 78.5164 48.5606 78.3934 49.0735C78.1472 50.0994 77.8519 51.1009 77.5073 52.0535C71.5263 50.8811 64.9791 48.9514 58.5551 46.5576C51.7864 44.0173 45.1408 40.964 39.3813 37.6909C28.8222 31.6087 15.1618 26.3571 3.29818 23.7435C3.93813 22.2291 4.70114 20.7879 5.51338 19.42C17.1309 22.1558 30.299 27.2609 40.5381 33.1476C51.7372 39.5717 66.3821 45.092 78.738 47.5591V47.5102Z" fill="#D7D7D7"/>
<path d="M79.5502 41.0373C79.501 42.6738 79.3287 44.3104 79.0333 45.9714C66.7267 43.4066 52.2048 37.6176 41.1288 30.8515C31.2589 24.8427 18.6323 19.591 7.31015 16.6843C8.36852 15.1943 9.52535 13.7776 10.7806 12.483C21.4874 15.5118 33.1049 20.4459 42.3349 26.064C53.214 32.6835 67.4158 38.3748 79.5502 41.0373Z" fill="#D7D7D7"/>
<path d="M79.5994 39.6938C73.9138 38.3748 67.7851 36.3474 61.7794 33.856C55.06 31.0469 48.4882 27.6761 42.8518 24.061C34.1633 18.443 23.2596 13.46 13.0204 10.2846C14.5957 8.89231 16.2448 7.62214 17.9923 6.47411C27.0993 9.64952 36.4523 14.0951 44.107 19.0292C54.3216 25.6243 67.5881 31.3645 79.2548 34.3201C79.4764 36.1032 79.5994 37.8863 79.5994 39.7183V39.6938Z" fill="#D7D7D7"/>
<path d="M79.0579 33.0743C73.9876 31.7064 68.6219 29.7768 63.3547 27.4807C56.6598 24.574 50.1373 21.0077 44.5255 17.1972C37.5107 12.4341 29.0683 8.08624 20.6752 4.83755C22.8658 3.64066 25.1794 2.63918 27.5669 1.88197C34.0894 4.76427 40.415 8.2328 45.8792 11.9212C55.0846 18.1743 66.7513 23.6946 77.5319 26.9677C78.1965 28.9463 78.7134 30.9737 79.0579 33.0499V33.0743Z" fill="#D7D7D7"/>
<path d="M77.1627 25.9174C66.6036 22.4733 55.2569 16.8064 46.273 10.3579C41.5473 6.98706 36.1569 3.81164 30.5697 1.05148C33.671 0.343114 36.8461 -0.0232798 40.1197 0.00114648C42.7779 1.56443 45.3131 3.20099 47.676 4.8864C55.2569 10.309 64.5361 15.1943 73.5938 18.6628C75.0214 20.9589 76.2274 23.4015 77.1627 25.9174Z" fill="#D7D7D7"/>
<path d="M72.88 17.5881C70.7633 16.7087 68.6465 15.7805 66.5544 14.779C59.958 11.5792 53.5093 7.74427 47.9959 3.56738C46.4453 2.41935 44.8454 1.27131 43.1717 0.17213C45.2393 0.318688 47.356 0.685082 49.4235 1.19803C59.4411 3.66509 67.5881 9.7228 72.9046 17.6125L72.88 17.5881Z" fill="#D7D7D7"/>
</svg>
