<svg width="298" height="64" viewBox="0 0 298 64" fill="none" xmlns="http://www.w3.org/2000/svg">
<path d="M42.699 4.471C37.318 4.471 31.378 6.428 26.276 9.293C22.153 11.739 18.799 14.674 17.401 17.819C13.698 26.205 21.804 29.979 30.05 33.682C38.436 37.526 46.962 41.439 42.769 50.803C41.651 53.319 39.764 55.206 37.388 56.813C34.174 58.978 29.631 60.306 24.46 60.306C15.025 60.306 6.989 54.996 4.543 51.152C5.521 48.497 10.413 43.675 14.326 39.412L13.767 39.133C9.225 43.815 3.704 49.336 0 53.249C4.542 58.42 11.461 63.032 21.384 63.032C27.813 63.032 33.264 60.446 37.807 57.372C41.79 54.647 44.795 51.711 46.053 48.986C50.456 39.482 42.489 35.149 34.243 31.236C25.997 27.322 17.401 23.898 20.686 16.281C21.804 13.695 23.97 11.459 26.696 9.852C30.26 7.825 34.592 6.637 39.834 6.637C48.36 6.637 54.44 10.201 58.004 14.324C55.418 17.748 52.762 21.172 49.129 25.855L49.548 26.134C53.671 20.823 57.654 16.7 61.358 11.878C57.794 7.546 50.736 4.471 42.699 4.471Z" fill="#D7D7D7"/>
<path d="M77.075 26.205C74.42 26.205 71.415 27.253 68.689 28.721C64.007 31.376 58.486 36.688 55.761 41.37C51.498 48.638 51.149 53.32 52.267 57.233C53.176 60.307 56.67 62.753 60.024 62.753C62.679 62.753 65.614 61.286 67.99 59.958C72.812 57.302 77.564 53.179 80.359 48.358C85.041 40.251 84.971 34.241 84.203 31.796C83.294 28.651 80.359 26.205 77.075 26.205ZM75.398 51.572C73.511 54.787 71.345 57.442 69.318 58.63C67.711 59.468 64.846 60.237 62.679 60.237C59.464 60.237 57.018 58.559 56.04 55.206C55.341 49.336 58.067 42.697 61.7 37.106C64.705 32.494 67.57 29.908 69.667 28.72C71.274 28.161 72.602 28.091 73.72 28.091C77.703 28.091 80.149 30.677 80.568 34.73C80.987 39.692 78.541 46.47 75.397 51.571L75.398 51.572Z" fill="#D7D7D7"/>
<path d="M113.691 59.819C112.643 59.469 111.245 57.932 111.315 56.814C111.385 54.648 114.32 48.498 118.094 41.859C120.749 37.317 123.685 32.704 126.061 29.35C126.969 27.603 125.991 26.904 124.733 26.904C124.104 26.904 123.265 27.114 122.706 27.323C121.308 29.489 118.932 34.032 116.486 37.596C108.45 49.196 96.849 59.819 93.774 59.819C92.097 59.819 90.071 58.141 90.49 56.185C91.259 53.669 93.565 50.106 96.36 45.143C100.134 38.644 102.65 34.591 102.65 32.355C102.58 30.189 100.833 26.624 99.016 26.555C98.596 26.555 98.177 26.765 97.618 27.044C94.124 29.141 89.372 33.194 86.996 35.5L87.485 35.989C90.211 33.054 94.613 29.839 96.22 29.56C97.199 29.77 98.526 30.888 98.596 32.426C98.666 34.662 96.849 37.457 93.006 44.236C89.651 50.106 86.507 54.719 86.297 57.234C86.367 60.379 89.511 62.405 91.538 62.545C95.801 61.776 107.262 51.014 115.228 40.462C111.524 47.241 106.912 54.299 107.121 57.374C107.191 58.771 107.96 60.938 109.357 62.056C109.636 62.196 110.336 62.335 111.104 62.335C111.733 62.335 112.292 62.266 112.502 62.126C116.905 59.47 120.678 55.836 123.264 53.321L122.845 52.832C120.259 55.487 115.927 58.841 113.69 59.82L113.691 59.819Z" fill="#D7D7D7"/>
<path d="M208.695 36.408C200.379 33.194 193.74 30.748 193.74 23.69C193.74 18.169 198.702 13.906 207.227 13.906C220.365 13.906 221.413 20.405 221.413 31.656V31.796C221.413 32.705 222.112 32.705 222.112 31.796V31.656C222.112 21.104 222.671 17.191 222.532 15.793C222.462 15.234 222.253 15.164 221.763 15.024C217.78 14.115 213.517 13.207 207.298 13.207C198.143 13.207 190.596 18.029 190.596 26.345C190.596 33.683 197.165 36.338 205.551 39.553C213.658 42.698 220.087 45.213 220.087 52.062C220.087 58.281 215.684 62.334 207.787 62.334C195.278 62.334 192.063 56.115 192.063 43.955C192.063 42.976 191.294 42.976 191.294 43.955C191.294 47.379 191.364 56.883 191.364 60.098C191.364 60.517 191.434 60.657 192.063 60.797C197.025 62.125 201.287 63.033 207.717 63.033C216.383 63.033 223.231 57.653 223.231 49.616C223.231 42.278 216.522 39.413 208.695 36.408Z" fill="#D7D7D7"/>
<path d="M296.11 56.814C295.411 58.631 293.315 61.076 291.847 61.076C290.31 61.076 289.75 59.189 289.75 55.975C289.75 51.992 290.309 44.095 290.309 38.714C290.309 30.538 285.627 26.694 278.498 26.694C273.187 26.694 267.456 29.909 265.081 31.725C263.614 32.843 262.915 33.891 262.915 34.73C262.915 35.569 263.684 36.127 265.081 36.127C266.758 36.127 267.317 35.638 268.086 34.38C269.064 32.633 270.252 30.187 272.628 28.719C274.235 27.811 275.842 27.321 277.939 27.321C283.67 27.321 286.115 30.256 286.395 38.223L278.288 41.298C274.095 42.901 270.855 44.47 268.394 46.05V46.053L268.368 46.067C267.067 46.904 265.973 47.744 265.097 48.595L265.099 48.591C264.542 49.136 263.967 49.764 263.42 50.487C259.718 56.556 254.665 60.166 247.474 60.166C237.341 60.166 230.702 53.039 230.702 44.443C230.702 42.137 230.981 40.11 231.471 38.293H255.091C257.607 38.293 258.585 37.245 258.655 35.638C258.865 32.354 256.069 26.693 246.496 26.693C236.572 26.693 227.348 35.428 227.348 46.19C227.348 55.834 233.917 63.031 245.098 63.031C249.012 63.031 252.505 61.844 255.581 59.817C258.108 58.169 260.319 55.954 262.202 53.373C262.073 53.951 262.006 54.537 262.006 55.135C262.006 59.538 265.64 63.101 271.23 63.101C277.38 63.101 284.438 54.715 285.906 51.57C285.766 53.177 285.627 56.252 285.627 58.069C285.627 61.424 286.954 63.03 289.4 63.03C291.986 63.03 295.829 58.977 296.948 57.37C297.367 56.741 296.389 56.182 296.109 56.811L296.11 56.814ZM244.96 27.952C251.25 27.952 254.045 31.795 254.045 34.591C254.045 35.429 253.905 36.128 253.486 36.688C253.276 36.898 252.018 37.387 250.69 37.457C246.148 37.527 239.649 37.736 231.612 37.736C233.569 31.377 238.53 27.952 244.96 27.952ZM286.396 39.692C286.396 44.164 286.047 49.406 285.977 50.244C285.348 52.55 279.129 60.796 273.817 60.796C269.205 60.796 265.851 57.651 265.851 53.458C265.851 47.937 270.044 45.282 278.22 41.997L286.396 38.712V39.692Z" fill="#D7D7D7"/>
<path d="M143.107 51.293C140.032 54.088 133.114 59.26 131.437 59.679C130.11 59.26 129.271 57.792 129.201 56.394C129.131 53.948 130.18 51.363 132.975 46.471C134.443 43.746 140.592 33.682 143.178 29.419C148.978 29.489 151.633 29.629 152.053 29.629C152.612 29.629 153.451 28.93 154.08 28.302C154.639 27.743 155.059 27.114 155.059 26.904C155.059 26.834 154.989 26.694 154.849 26.694C154.36 26.694 151.564 26.904 145.205 26.904H144.716C146.813 23.62 148.63 20.545 149.747 18.798C149.957 18.448 149.468 18.239 149.118 18.518C145.065 23.34 142.27 25.577 139.265 26.904C137.308 27.743 135.491 28.232 133.325 28.791C132.906 28.931 132.976 29.35 133.255 29.42H139.335C137.588 32.286 131.368 42.558 129.831 45.283C126.896 50.245 125.079 53.879 125.218 56.674C125.218 58.281 125.847 60.797 127.594 62.125C127.804 62.265 128.363 62.404 128.921 62.404C129.34 62.404 129.76 62.264 129.97 62.194C133.743 60.028 140.452 54.507 143.597 51.642L143.107 51.293Z" fill="#D7D7D7"/>
<path d="M182.729 4.541C185.664 3.144 188.529 2.864 191.534 2.864C197.334 2.864 202.436 3.703 206.908 3.703C207.956 3.703 209.563 1.886 209.563 0.978C209.563 0.628 209.423 0.419 209.004 0.349C207.327 0.07 203.832 0 201.107 0C193.979 0 187.759 1.538 182.518 4.123C174.901 7.827 169.24 13.697 165.327 20.056C161.833 25.647 148.066 50.874 142.545 59.54C141.637 61.496 142.685 62.055 143.873 62.055C144.362 62.055 144.991 61.915 145.34 61.915C146.808 59.469 148.764 55.626 150.861 52.551C159.107 40.461 172.315 29.979 176.717 28.861C179.023 30.119 178.883 33.613 172.944 43.606C169.17 50.105 166.235 54.368 166.305 57.302C166.375 58.699 167.213 60.936 168.611 62.054C168.89 62.194 169.38 62.333 170.148 62.333C170.638 62.333 171.127 62.264 171.336 62.124C175.739 59.468 179.582 55.834 182.168 53.319L181.749 52.83C179.163 55.485 174.76 58.839 172.524 59.818C171.476 59.468 170.568 57.931 170.498 56.813C170.428 54.437 172.384 51.362 176.298 44.583C183.636 32.284 183.705 27.462 179.373 26.483C174.481 27.531 161.553 37.874 153.027 48.426C159.596 37.035 166.514 24.386 170.777 17.677C175.319 10.13 179.093 6.356 182.727 4.539L182.729 4.541Z" fill="#D7D7D7"/>
</svg>
