<svg width="188" height="300" viewBox="0 0 188 300" fill="none" xmlns="http://www.w3.org/2000/svg">
<path d="M85.4266 278.538C86.5063 274.2 88.2573 271.147 89.0909 269.85L89.0741 269.839C89.7119 268.754 90.4671 267.692 91.2783 266.675C90.2322 265.607 88.9678 264.433 87.4629 263.231C85.572 264.774 84.2126 265.741 84.0615 265.853L84.0336 265.825L84.0224 265.808C82.4671 266.792 79.3175 268.525 75.0993 269.582C76.4532 271.46 80.0336 275.86 85.4266 278.538ZM81.1748 270.348C83.6476 269.297 85.3035 268.251 86.0252 267.759L86.0475 267.793C86.1035 267.737 86.7469 267.29 87.7594 266.524C87.8713 266.624 87.9832 266.725 88.0895 266.826C87.7203 267.357 87.3678 267.905 87.0322 268.464V268.492L87.0713 268.514C86.5175 269.386 85.6783 270.84 84.8392 272.791C84.5538 273.451 84.2741 274.183 84.0056 274.96C82.1762 273.725 80.6266 272.31 79.435 271.03C80.0504 270.806 80.6434 270.577 81.1804 270.348H81.1748ZM62.014 264.729C64.0951 266.753 67.7594 266.669 67.8154 266.669C68.1343 266.669 68.4475 266.663 68.7552 266.652C66.8587 263.482 64.4699 259.412 62.9147 256.74C61.3147 257.657 60.5427 258.971 60.5259 260.838C60.5483 262.515 61.0238 263.773 62.014 264.729ZM96.0783 260.424C95.2671 259.614 94.4336 258.702 93.6 257.702C92.5371 258.781 91.4573 259.792 90.4224 260.709C91.7371 261.777 92.8671 262.823 93.835 263.79C94.7916 262.806 95.765 261.895 96.7105 261.062C96.4979 260.849 96.2853 260.631 96.0783 260.419V260.424ZM93.8573 293.365C95.407 293.348 96.5874 292.923 97.4657 292.017C99.5189 289.91 99.407 285.946 99.407 285.918C99.407 285.801 99.3958 285.694 99.3902 285.582C98.3552 275.385 95.2671 271.583 95.2392 271.555L95.0434 271.276C95.0434 271.276 94.6573 270.616 93.8294 269.554C93.365 270.163 92.9343 270.784 92.5482 271.41L92.593 271.444C92.593 271.444 90.221 274.703 89.007 279.936C90.5455 280.383 92.1902 280.663 93.9357 280.707C94.7357 280.674 95.5357 280.596 96.2797 280.489C96.5315 281.641 96.7273 282.905 96.8168 284.257H96.7888C95.9441 284.38 95.0937 284.476 94.2154 284.498V286.952H94.2434C95.1776 286.935 96.0951 286.863 96.9958 286.751C96.9902 286.801 96.9846 286.846 96.9734 286.896C96.8336 287.852 96.4084 289.144 95.9049 289.82C95.7874 289.977 95.6755 290.1 95.5692 290.2C95.4517 290.307 95.3399 290.379 95.228 290.435C95.0042 290.575 94.7189 290.687 94.0476 290.687V290.709C93.2699 290.67 93.0462 290.508 92.7496 290.295C92.2685 289.96 91.6811 288.892 91.4238 287.741C91.3343 287.388 91.2727 287.053 91.228 286.757C92.1678 286.88 93.1357 286.958 94.1259 286.98L94.165 284.503C94.1259 284.503 94.0923 284.503 94.0531 284.503H94.0252C94.0084 284.503 93.9916 284.503 93.9692 284.503C93.9301 284.503 93.8909 284.503 93.8573 284.503C91.9217 284.448 90.1091 284.168 88.4084 283.721C88.3468 284.436 88.3133 285.174 88.3133 285.935C88.3133 286.214 88.5091 293.27 93.8573 293.354V293.365ZM94.2098 278.382C93.5832 278.365 92.9678 278.32 92.3748 278.242C92.6098 277.526 92.8615 276.867 93.1189 276.274C93.4601 275.452 93.8126 274.781 94.1091 274.244C94.6126 275.161 95.2727 276.52 95.8434 278.236C95.3063 278.298 94.7524 278.342 94.1874 278.354L94.2154 278.376L94.2098 278.382ZM153.382 56.3123C153.69 56.452 154.003 56.48 154.283 56.3961C154.562 56.3123 154.82 56.1725 155.015 55.9489C155.295 55.6134 155.441 55.2444 155.385 54.8251C155.357 54.4058 155.077 53.9809 154.568 53.5057L152.397 51.5378L150.344 53.7853L152.285 55.5575C152.705 55.9209 153.074 56.1781 153.382 56.3179V56.3123ZM115.681 28.7947C116.246 29.0463 116.917 29.3873 117.678 29.8346C118.087 30.0694 118.49 30.3266 118.898 30.6005L121.046 32.1939C121.785 32.7977 122.523 33.4574 123.256 34.1618C125.678 36.5211 128.017 39.445 130.238 42.8777C130.545 43.4145 131.166 44.4543 132.095 45.8856C133.248 47.6578 134.517 49.4245 135.838 51.1688C138.036 54.0368 140.173 56.5639 142.456 58.8728C145.354 61.8527 148.397 64.4915 151.496 66.7166L151.222 67.0968C151.222 67.0968 151.228 67.1024 151.234 67.108L151.524 66.6887C154.171 68.5168 157.466 70.5966 158.143 70.7643L158.109 70.9488L159.832 71.7762L157.908 72.8664C158.428 73.3584 158.937 73.856 159.441 74.3591C164.957 71.0606 171.027 68.0752 176.358 66.9738H176.386C176.431 66.9626 176.47 66.957 176.515 66.9514V64.3573H176.543V66.9458C177.046 66.8508 177.55 66.7725 178.048 66.6943H178.02C178.271 66.6663 178.529 66.6104 178.78 66.6104C178.78 66.6104 180.347 66.5153 181.734 65.8892C181.74 65.8612 181.745 65.8333 181.751 65.8053C180.912 66.0737 179.771 66.3141 178.232 66.5154V66.465C179.782 66.2638 180.923 66.0234 181.762 65.755C182.059 64.553 181.65 64.0219 181.65 64.0219L181.678 63.9939L181.572 63.8094L181.538 63.8262H181.455C181.371 63.6585 181.259 63.4908 181.085 63.2895C180.129 62.1937 177.986 61.2097 177.259 60.9302C175.401 60.2258 173.287 59.5549 171.29 59.0182C167.743 58.2019 164.336 56.603 160.929 54.2102C159.407 53.1423 157.863 51.9068 156.313 50.4979C154.931 49.2344 153.555 47.8535 152.229 46.3943C149.583 43.4704 147.524 40.6582 146.232 38.7797C144.766 36.672 143.95 35.2129 143.838 35.0116L143.726 34.788C137.024 24.3053 130.238 18.9942 125.678 16.3497C123.424 15.0303 121.175 14.0184 118.976 13.3419C118.68 13.2581 118.411 13.1798 118.148 13.1071L115.664 28.7947C115.664 28.7947 115.676 28.7947 115.681 28.8003V28.7947ZM164.05 59.3201L163.457 60.2481L163.429 60.2202L158.842 57.2683L157.32 59.6555L161.628 62.4118L161.035 63.3119L156.727 60.5556L155.038 63.2L159.793 66.2638L159.2 67.1918L153.399 63.4516L158.411 55.6917L164.045 59.3145L164.05 59.3201ZM155.211 52.6839C155.804 53.2486 156.224 53.7238 156.42 54.1431C156.615 54.5624 156.671 55.0152 156.587 55.4904C156.503 55.9656 156.28 56.4185 155.938 56.7819C155.513 57.2571 154.982 57.5143 154.361 57.5702C153.74 57.5981 153.063 57.3745 152.336 56.8657C152.448 57.2012 152.559 57.4863 152.559 57.7099C152.587 58.2131 152.559 58.7219 152.476 59.3145L151.966 62.2384L150.842 61.1986L151.234 58.9511C151.345 58.2746 151.429 57.7714 151.429 57.4025C151.457 57.0391 151.457 56.7539 151.401 56.5303C151.345 56.3067 151.262 56.139 151.15 55.9656C151.066 55.8259 150.898 55.6861 150.674 55.4569L149.634 54.5009L146.848 57.5366L145.947 56.7204L152.196 49.9165L155.211 52.6727V52.6839ZM146.931 44.0015L151.239 49.089L150.394 49.7935L146.876 45.634L144.705 47.4621L148 51.3701L147.183 52.0745L143.888 48.1666L141.494 50.1904L145.152 54.5176L144.308 55.2221L139.86 49.9668L146.926 44.0071L146.931 44.0015ZM142.596 38.3493C143.301 38.7127 143.866 39.2214 144.313 39.8979C144.822 40.6862 145.046 41.4465 145.018 42.2292C144.962 43.0175 144.655 43.7443 144.09 44.4208L143.189 43.5766C143.636 43.0119 143.866 42.4808 143.894 41.972C143.922 41.4633 143.754 40.9601 143.418 40.457C143.021 39.8643 142.573 39.473 142.008 39.2773C141.471 39.0537 140.912 39.0257 140.319 39.1935C139.726 39.3612 139.194 39.6128 138.685 39.9538C138.036 40.4011 137.533 40.8819 137.164 41.385C136.8 41.9217 136.627 42.4529 136.655 43.0175C136.683 43.5822 136.85 44.0853 137.164 44.5661C137.555 45.1308 138.036 45.5222 138.629 45.6899C139.222 45.8856 139.899 45.8017 140.627 45.5222L140.655 45.4663L141.08 46.6459C140.095 47.0093 139.222 47.0372 138.406 46.7857C137.589 46.5341 136.912 46.0253 136.38 45.2091C135.815 44.3649 135.536 43.6045 135.536 42.8498C135.536 42.095 135.759 41.3906 136.213 40.6862C136.666 40.0097 137.253 39.3947 137.986 38.9139C138.775 38.3493 139.592 38.0418 140.38 37.9579C141.169 37.874 141.93 37.9859 142.607 38.3493H142.596ZM135.586 29.583C136.766 29.6948 137.757 30.2874 138.54 31.3273C139.049 32.0317 139.357 32.7585 139.441 33.5468C139.524 34.3351 139.385 35.0955 139.015 35.8222V35.7663C138.652 36.4708 138.087 37.1137 137.354 37.6784C136.621 38.243 135.832 38.6064 135.015 38.7462C134.199 38.9139 133.438 38.8301 132.705 38.4946C132 38.1871 131.385 37.7063 130.904 37.0634C130.394 36.3869 130.087 35.6322 130.003 34.8439C129.919 34.0556 130.059 33.2952 130.428 32.5684C130.792 31.864 131.301 31.249 131.95 30.7682C133.186 29.8402 134.4 29.4488 135.58 29.5886L135.586 29.583ZM128.716 21.2081L131.083 23.3158C131.62 23.791 131.983 24.2159 132.207 24.5234C132.515 24.9706 132.71 25.4514 132.772 25.9267C132.856 26.5752 132.772 27.1902 132.52 27.8387L132.548 27.7828C132.324 28.4313 131.927 29.0463 131.368 29.6669C130.887 30.2036 130.411 30.5949 129.93 30.9024C129.421 31.2099 128.973 31.4056 128.548 31.495C128.123 31.5789 127.731 31.6068 127.368 31.5509C127.004 31.495 126.635 31.3553 126.243 31.1596C125.852 30.9639 125.455 30.6564 125.035 30.2874L122.557 28.0679L128.722 21.2081H128.716ZM131.759 36.4372C132.324 37.1976 133.029 37.5889 133.902 37.6728H133.874C134.747 37.7566 135.648 37.4212 136.604 36.7168C137.225 36.2695 137.673 35.7607 137.958 35.2296C138.238 34.665 138.383 34.1338 138.322 33.5412C138.266 32.9486 138.07 32.4175 137.701 31.9367C137.192 31.2602 136.492 30.8409 135.648 30.7011C134.803 30.5893 133.818 30.9248 132.722 31.769C131.849 32.4454 131.312 33.2002 131.172 34.0723C131.032 34.9165 131.228 35.7048 131.765 36.4316L131.759 36.4372ZM84.8559 237.178C84.8671 237.049 84.8839 236.898 84.9063 236.742C85.035 235.668 85.4266 234.097 86.607 232.666C86.6741 232.582 86.7469 232.499 86.8196 232.415C84.207 232.213 81.628 231.9 79.0769 231.487C80.3804 232.627 82.4783 234.573 84.8503 237.184L84.8559 237.178ZM126.803 30.2539C127.138 30.3936 127.452 30.4496 127.731 30.4496C128.151 30.4216 128.576 30.2818 129.029 30.0303L129.001 29.9743C129.449 29.7228 129.902 29.3258 130.383 28.8227C131.032 28.1182 131.396 27.4473 131.508 26.8547C131.62 26.2621 131.564 25.731 131.34 25.3061C131.2 24.9986 130.831 24.6017 130.299 24.1264L128.862 22.835L124.157 28.0903L125.622 29.4097C126.076 29.829 126.467 30.1141 126.803 30.2539ZM72.0559 230.061C71.0434 229.815 70.0308 229.552 69.0294 229.273L66.5175 231.783L70.1483 235.411L73.779 231.783L72.0559 230.061ZM70.3608 232.174L70.1091 231.923L70.3608 231.671L70.6126 231.923L70.3608 232.174ZM163.687 176.468C165.208 177.173 166.613 177.312 167.855 176.888C169.091 176.468 169.997 175.652 170.557 174.416C171.122 173.153 171.15 171.917 170.641 170.704C170.131 169.497 169.063 168.513 167.429 167.78C166.389 167.305 165.432 167.076 164.503 167.076C163.575 167.076 162.758 167.299 162.025 167.78C161.292 168.255 160.727 168.932 160.364 169.748C159.827 170.928 159.771 172.135 160.196 173.343C160.621 174.551 161.801 175.59 163.687 176.463V176.468ZM54.2713 203.343C54.635 202.812 54.7524 202.219 54.607 201.599C54.4392 200.978 53.958 200.391 53.1133 199.798L49.5105 197.299L46.8643 201.039H46.9203L50.1594 203.287C50.8364 203.762 51.4238 204.075 51.9049 204.215C52.386 204.355 52.8336 204.327 53.2587 204.159C53.6783 203.963 54.0196 203.712 54.2713 203.343ZM54.6629 237.351C54.7469 237.407 60.1678 244.021 64.6154 252.077C66.372 251.675 67.7594 251.675 67.8993 251.686C76.9958 251.921 83.3399 255.789 84.5147 256.561C85.4825 257.148 86.3944 257.746 87.2504 258.344C87.2615 258.35 87.2727 258.356 87.2839 258.367C88.565 257.243 89.9468 255.963 91.2727 254.593C90.9035 254.045 90.5455 253.475 90.1986 252.882C89.4657 251.731 88.9343 250.786 88.6042 250.182C88.2853 249.651 87.4629 248.22 86.6685 246.246C84.3021 241.835 82.7077 240.415 82.6853 240.393C80.1511 237.58 77.9413 235.523 76.621 234.36L70.1874 240.784L61.1469 231.761L64.8951 228.015C62.6126 227.26 60.3692 226.421 58.165 225.499L58.2434 225.633C57.4545 226.108 50.5566 230.609 54.6685 237.351H54.6629ZM58.3664 228.524C58.7301 228.188 59.0713 227.931 59.2951 227.763C59.407 227.679 59.4909 227.623 59.5189 227.595H59.5469L59.4965 227.523C60.1846 227.791 60.8727 228.054 61.5664 228.311L57.9413 231.928L70.3608 244.323L76.8839 237.81C78.014 238.878 79.3958 240.258 80.8895 241.936L81.1133 242.187L81.365 242.411C81.365 242.411 82.3832 243.44 83.9385 246.101C84.9454 248.868 86.1147 250.719 86.372 251.116H86.3497C86.4448 251.311 86.551 251.496 86.6517 251.68L86.7133 251.826H86.7245C87.1888 252.664 87.6867 253.497 88.2126 254.314C87.9832 254.537 87.7538 254.755 87.5245 254.973C86.8979 254.61 86.2434 254.258 85.5608 253.933L85.5497 253.956L85.4769 253.905C85.2531 253.738 84.0951 253.089 81.0294 251.546C77.7902 250.366 73.3706 248.846 67.9105 248.846H67.8545C67.6979 248.863 66.8979 248.863 65.7231 249.036C61.8406 242.45 57.7063 237.178 56.7049 235.942C56.028 234.735 55.8601 233.891 55.8601 233.158C55.8601 232.426 56.028 231.839 56.3413 231.162C56.7944 230.178 57.6392 229.194 58.3664 228.518V228.524ZM183.765 140.017C183.765 120.091 177.214 101.664 166.154 86.7594C161.74 89.2137 157.818 92.065 154.764 94.4243L154.618 94.2454C151.334 96.4369 147.899 97.4488 145.046 97.8905C154.54 109.34 160.252 124.027 160.252 140.017C160.252 176.502 130.517 206.183 93.9692 206.183C57.421 206.183 27.6867 176.502 27.6867 140.017C27.6867 123.999 33.421 109.296 42.9427 97.8346C39.4517 97.4209 34.8699 96.1965 30.758 92.9092L30.8699 92.7526V92.7415L30.758 92.8812C30.758 92.8812 30.3441 92.5234 29.5776 91.9476C28.0839 90.8071 25.3035 88.8056 21.7846 86.8153C10.7469 101.709 4.21259 120.114 4.21259 140.017C4.21259 180.169 30.7972 214.234 67.3231 225.588L75.0713 227.612C80.7832 228.837 86.6909 229.519 92.7441 229.603C93.1748 229.563 93.6224 229.535 94.0867 229.535V229.569C94.0867 229.569 94.1035 229.569 94.1147 229.569L94.1427 229.563C94.1594 229.563 94.1762 229.563 94.1986 229.563C94.221 229.563 94.2378 229.563 94.2545 229.563C94.5287 229.569 94.7804 229.586 95.0378 229.608C101.248 229.535 107.312 228.831 113.164 227.556L120.794 225.538C157.236 214.127 183.765 180.108 183.765 140.017ZM12.8839 113.204C13.2755 112.024 13.7846 111.068 14.4056 110.391C15.0266 109.687 15.7594 109.24 16.6042 109.016C17.449 108.792 18.2937 108.792 19.1944 109.072L18.8028 110.76C18.1259 110.621 17.5049 110.621 17.0014 110.76C16.4923 110.9 15.9888 111.236 15.5357 111.744C15.0545 112.248 14.7189 112.868 14.4671 113.628C14.2434 114.305 14.1594 114.92 14.1874 115.485C14.2154 116.077 14.3273 116.524 14.607 116.888C14.8867 117.251 15.228 117.508 15.6196 117.648C16.0392 117.788 16.4364 117.788 16.828 117.648C17.2196 117.508 17.6168 117.201 18.0084 116.72C18.2601 116.413 18.7413 115.708 19.4462 114.584C20.1231 113.489 20.6825 112.728 21.1077 112.337C21.6448 111.834 22.2042 111.493 22.7972 111.353C23.3902 111.213 24.0056 111.241 24.5986 111.437C25.2476 111.66 25.807 112.057 26.2601 112.617C26.7133 113.181 26.965 113.88 27.021 114.696C27.0769 115.512 26.965 116.385 26.6573 117.257C26.3497 118.241 25.8965 119.029 25.3315 119.672C24.7664 120.321 24.0951 120.74 23.3622 120.936C22.6294 121.131 21.8685 121.103 21.0797 120.88L21.4993 119.163C22.372 119.359 23.1049 119.247 23.6979 118.884C24.2909 118.52 24.7664 117.816 25.1077 116.804C25.4713 115.736 25.5329 114.92 25.3035 114.305C25.0797 113.712 24.6825 113.293 24.151 113.125C23.6979 112.958 23.2503 113.013 22.8252 113.237C22.4336 113.461 21.8126 114.249 21.0238 115.54C20.235 116.832 19.642 117.704 19.2224 118.157C18.6014 118.805 17.986 119.197 17.3091 119.392C16.6601 119.56 15.9552 119.532 15.2559 119.309L15.2 119.392C14.4951 119.141 13.9021 118.716 13.4266 118.129C12.9455 117.508 12.6378 116.782 12.5538 115.909C12.4699 115.037 12.5818 114.137 12.8895 113.209L12.8839 113.204ZM10.3497 125.061L22.428 127.029L23.1608 122.534L24.7664 122.786L22.993 133.638L21.3874 133.358L22.1203 128.835L10.042 126.867L10.3497 125.067V125.061ZM16.0056 173.773L28.4531 167.646L29.2699 169.307L18.2881 174.702L21.3315 180.801L19.8657 181.533L16.0056 173.773ZM28.028 193.755L26.8196 192.038L29.3259 188.298L26.0028 183.546L21.6951 184.698L20.5706 183.099L34.9874 179.526L35.0154 179.554L36.1399 181.187L28.0336 193.749L28.028 193.755ZM36.2797 201.571C35.351 201.375 34.3944 200.782 33.4657 199.826C32.5371 198.898 31.9441 197.998 31.6923 197.098C31.4406 196.198 31.4685 195.326 31.8322 194.482C32.1678 193.637 32.8727 192.709 33.9133 191.669L39.6028 186.051L40.9007 187.342L35.2112 192.961C34.3385 193.805 33.8014 194.51 33.5497 195.069C33.3259 195.633 33.2699 196.22 33.4378 196.813C33.6056 197.4 33.9469 197.993 34.5063 198.557C35.435 199.513 36.3357 199.988 37.1804 199.96C38.0252 199.933 39.0657 199.312 40.3077 198.076L45.9972 192.458L47.2951 193.749L41.6056 199.373C40.593 200.357 39.7203 201.034 38.9035 201.369C38.1147 201.705 37.214 201.789 36.2853 201.565L36.2797 201.571ZM50.9203 206.462C51.0881 207.195 51.1441 207.978 51.1161 208.85L50.9203 213.317L49.035 211.997L49.1748 208.598C49.1748 207.586 49.2028 206.826 49.1748 206.267C49.1469 205.702 49.0629 205.283 48.951 204.975C48.8112 204.668 48.6713 204.411 48.4699 204.187C48.3301 204.019 48.0783 203.824 47.6811 203.539L45.9357 202.331L42.3888 207.363L40.8951 206.323L48.8615 194.996L53.9021 198.507C54.9147 199.211 55.5916 199.854 55.9832 200.419C56.3748 201.006 56.5483 201.654 56.4923 202.387C56.4364 203.147 56.2126 203.818 55.7594 204.439C55.1944 205.255 54.4615 205.758 53.5608 205.931C52.6657 206.099 51.6028 205.903 50.428 205.294C50.6685 205.752 50.8364 206.138 50.9147 206.468L50.9203 206.462ZM64.7161 213.121L57.7902 209.89L55.765 214.133L63.4797 217.756L62.7748 219.215L53.4266 214.832L59.3119 202.297L68.4084 206.569L67.7035 208.028L60.2685 204.573L58.4671 208.397L65.421 211.656L64.7161 213.115V213.121ZM76.9678 223.324L75.1385 222.849L70.9706 210.426L68.1007 220.937L66.4112 220.462L70.0699 207.111L71.8713 207.62L76.0392 220.014L78.9091 209.532L80.5986 209.979L76.9678 223.33V223.324ZM82.9371 217.001C82.8531 218.181 82.9371 219.221 83.1888 220.121C83.4685 221.021 83.9496 221.725 84.6266 222.228C85.3035 222.704 86.0643 222.989 86.9091 223.073C87.9217 223.184 88.8224 222.961 89.5832 222.424C90.3441 221.887 90.8811 221.049 91.2448 219.925L93.0462 220.546C92.5371 222.038 91.7482 223.106 90.6797 223.805C89.6392 224.509 88.3692 224.789 86.9371 224.677C85.4434 224.565 84.2909 224.146 83.3902 223.469C82.4895 222.793 81.8685 221.837 81.4769 220.657C81.0853 219.478 80.9678 218.214 81.0853 216.889C81.2252 215.458 81.5944 214.217 82.2378 213.205C82.8867 212.193 83.7315 211.461 84.8 210.985C85.8406 210.538 86.9986 210.337 88.207 210.449C89.5888 210.56 90.7413 211.013 91.614 211.796C92.5147 212.584 93.0797 213.652 93.3315 214.944L91.5021 215.195C91.2503 214.183 90.8531 213.395 90.2937 212.892C89.7007 212.383 88.9678 212.104 88.0392 212.02C86.9706 211.936 86.0699 212.104 85.3091 212.556C84.5483 213.004 83.9888 213.624 83.6196 214.468V214.385C83.2559 215.229 83.0266 216.101 82.9426 217.001H82.9371ZM96.1958 224.929L95.0434 211.131L105.041 210.314L105.18 211.947L97.0182 212.623L97.3538 216.839L105.013 216.218L105.152 217.823L97.4937 218.471L97.8909 223.168L106.366 222.463L106.506 224.096L96.2014 224.94L96.1958 224.929ZM109.035 212.702C108.867 213.266 108.526 213.714 108.022 214.077L107.485 213.484C107.793 213.289 107.994 213.037 108.106 212.696C108.19 212.361 108.218 211.936 108.134 211.433L107.262 211.6L106.898 209.66L108.671 209.331L108.979 210.846C109.147 211.69 109.147 212.305 109.035 212.702ZM123.871 217.845C123.648 218.606 123.222 219.248 122.573 219.841C121.924 220.428 121.108 220.853 120.179 221.161C118.971 221.524 117.924 221.664 116.996 221.58C116.095 221.468 115.278 221.161 114.601 220.596C113.924 220.059 113.449 219.332 113.136 218.46L114.741 217.784C115.049 218.432 115.39 218.907 115.81 219.243C116.235 219.578 116.794 219.774 117.471 219.863C118.148 219.919 118.853 219.836 119.608 219.612C120.257 219.416 120.817 219.137 121.27 218.768C121.717 218.404 122.003 218.007 122.143 217.588C122.255 217.169 122.255 216.772 122.143 216.352C122.003 215.928 121.779 215.592 121.438 215.369C121.102 215.145 120.621 215.005 120 214.977C119.603 214.949 118.73 214.977 117.438 215.061C116.145 215.173 115.183 215.173 114.624 215.061C113.891 214.921 113.298 214.67 112.822 214.273C112.341 213.881 112.034 213.401 111.838 212.786C111.642 212.109 111.642 211.438 111.838 210.734C112.034 210.029 112.431 209.414 113.08 208.878C113.701 208.341 114.462 207.95 115.362 207.67C116.319 207.363 117.248 207.251 118.092 207.335C118.937 207.418 119.67 207.698 120.263 208.179C120.856 208.654 121.276 209.303 121.561 210.063L119.927 210.711C119.564 209.895 119.055 209.364 118.406 209.113C117.757 208.861 116.912 208.889 115.899 209.196C114.831 209.504 114.126 209.957 113.757 210.488C113.387 211.025 113.303 211.584 113.477 212.12C113.617 212.596 113.902 212.937 114.35 213.132C114.775 213.328 115.759 213.384 117.276 213.244C118.797 213.104 119.866 213.076 120.459 213.16C121.359 213.272 122.064 213.552 122.601 213.976H122.741C123.278 214.396 123.642 214.988 123.866 215.693C124.062 216.397 124.062 217.096 123.866 217.856L123.871 217.845ZM175.429 165.622L162.025 162.05L162.506 160.277L174.305 163.425L176.078 156.85L177.656 157.27L175.429 165.617V165.622ZM178.02 154.267L164.252 152.551L164.476 150.723L176.61 152.238L177.455 145.462L179.088 145.658L178.02 154.256V154.267ZM179.312 142.32L165.46 142.683L165.18 132.676L166.814 132.648L167.038 140.827L171.29 140.715L171.066 133.039L172.699 133.011L172.895 140.654L177.622 140.542L177.399 132.028L179.032 132L179.312 142.314V142.32ZM176.498 118.99C177.035 119.862 177.427 120.79 177.622 121.774C177.874 123.094 177.846 124.363 177.51 125.57C177.175 126.778 176.498 127.762 175.541 128.55C174.585 129.31 173.432 129.842 172.106 130.127C170.786 130.406 169.488 130.378 168.218 130.071C166.954 129.763 165.936 129.143 165.175 128.215C164.414 127.287 163.877 126.163 163.597 124.815C163.373 123.831 163.373 122.931 163.513 122.059C163.653 121.215 163.961 120.483 164.442 119.924C164.917 119.359 165.566 118.856 166.439 118.436L167.228 119.952C166.579 120.287 166.103 120.656 165.762 121.047C165.421 121.439 165.197 121.919 165.085 122.534C164.973 123.155 164.973 123.798 165.113 124.474C165.281 125.291 165.566 125.99 165.93 126.526C166.322 127.057 166.747 127.482 167.228 127.762C167.709 128.069 168.213 128.237 168.75 128.354C169.678 128.522 170.607 128.494 171.592 128.298C172.806 128.047 173.762 127.622 174.49 127.035C175.222 126.442 175.698 125.716 175.927 124.843C176.151 123.943 176.179 123.071 175.983 122.171C175.815 121.383 175.502 120.656 175.055 119.979C174.607 119.303 174.182 118.8 173.757 118.487L171.222 119.023L172.039 123.015L170.434 123.351L169.225 117.615L169.281 117.643L174.322 116.603C175.222 117.335 175.955 118.118 176.492 118.99H176.498ZM158.311 108.256L159.832 107.635L162.904 115.222L166.848 113.617L163.978 106.534L165.471 105.913L168.369 113.025L172.733 111.252L169.522 103.353L171.043 102.766L174.931 112.32L162.092 117.52L158.322 108.245L158.311 108.256ZM158.926 169.077C159.463 167.926 160.224 166.998 161.208 166.321C162.193 165.645 163.29 165.281 164.503 165.253C165.712 165.225 166.954 165.505 168.218 166.069L168.246 166.042C169.51 166.634 170.557 167.389 171.317 168.373C172.106 169.357 172.526 170.425 172.615 171.604C172.699 172.784 172.503 173.908 171.994 175.003C171.457 176.183 170.697 177.111 169.684 177.788C168.671 178.464 167.575 178.827 166.361 178.855C165.152 178.883 163.966 178.66 162.87 178.151C160.789 177.195 159.407 175.876 158.73 174.215C158.053 172.555 158.109 170.844 158.926 169.072V169.077ZM154.45 189.595C153.27 188.779 152.397 187.823 151.832 186.755C151.267 185.687 151.043 184.592 151.183 183.44C151.295 182.288 151.72 181.22 152.42 180.208C153.208 179.085 154.165 178.324 155.29 177.961C156.414 177.598 157.6 177.653 158.864 178.073L158.159 179.789C157.147 179.482 156.274 179.454 155.541 179.677C154.808 179.901 154.187 180.41 153.656 181.17C153.063 182.042 152.755 182.914 152.755 183.781C152.755 184.647 153.035 185.469 153.572 186.196C154.109 186.928 154.724 187.543 155.485 188.08C156.442 188.757 157.399 189.204 158.299 189.428C159.2 189.651 160.073 189.595 160.834 189.26C161.594 188.924 162.243 188.416 162.719 187.711C163.34 186.867 163.592 185.995 163.508 185.067C163.424 184.139 162.999 183.239 162.182 182.366L162.238 182.338L163.676 181.103C164.688 182.283 165.253 183.49 165.309 184.787C165.365 186.079 165.001 187.286 164.157 188.472C163.312 189.679 162.355 190.495 161.315 190.915C160.274 191.334 159.122 191.39 157.908 191.138C156.671 190.859 155.513 190.35 154.445 189.59L154.45 189.595ZM31.7203 182.037L27.5245 183.104L30.2266 186.956L32.5371 183.585H32.5091C33.214 182.573 33.835 181.757 34.3105 181.142C33.4937 181.505 32.621 181.819 31.7203 182.042V182.037ZM30.9986 92.6073L31.8713 91.4612L31.821 91.4276L30.842 92.7079L30.8699 92.7359L31.8545 91.4724L30.993 92.6017L30.9986 92.6073ZM116.09 230.027L114.327 231.788L117.958 235.417L121.589 231.788L119.049 229.256C118.07 229.53 117.08 229.787 116.084 230.027H116.09ZM118.171 232.174L117.919 231.923L118.171 231.671L118.422 231.923L118.171 232.174ZM72.9119 266.149C78.1483 265.092 81.779 262.733 82.6126 262.157C82.7077 262.085 82.814 262.006 82.9315 261.917C83.2951 261.637 83.7315 261.302 84.235 260.899C83.5972 260.486 82.9315 260.072 82.2322 259.664L82.2545 259.625C82.1986 259.591 82.1483 259.558 82.0923 259.524C80.5483 258.59 75.1329 255.666 67.8434 255.476C67.8434 255.476 67.379 255.476 66.6853 255.56L69.0853 259.608H69.0238C70.3776 261.906 71.8042 264.31 72.9175 266.144L72.9119 266.149ZM77.5441 259.776C78.5566 260.195 79.3455 260.631 79.9217 260.961C78.7524 261.621 76.7217 262.605 74.0699 263.287C73.0909 261.637 71.9832 259.776 70.9371 257.998C73.5944 258.328 75.8378 259.054 77.5441 259.781V259.776ZM99.6084 237.771H99.6028V237.743C99.5468 237.016 99.0378 233.382 94.1874 233.359C92.2014 233.371 90.7413 233.874 89.8126 234.785C88.6489 236.043 88.649 237.765 88.649 237.793H88.6266C88.6657 240.348 89.4042 242.836 90.1762 244.765C90.7077 245.776 91.2727 246.911 91.8601 248.192C92.028 248.505 92.3021 248.986 92.6601 249.589L92.7049 249.567C92.8559 249.858 93.0126 250.148 93.1748 250.428C93.3986 250.786 93.6504 251.177 93.9245 251.585C94.0923 251.373 94.2601 251.16 94.428 250.948C94.8811 250.339 95.2951 249.729 95.6643 249.12L95.6979 249.142C95.6979 249.142 95.7203 249.109 95.7315 249.092L95.6923 249.064C95.6923 249.064 95.9329 248.74 96.2965 248.169H96.2797C97.1077 246.347 97.8909 244.815 98.6126 243.535C99.2559 241.779 99.7203 239.772 99.6084 237.765V237.771ZM95.6531 244.485C95.4629 244.86 95.2671 245.251 95.0713 245.653C94.786 246.185 94.5175 246.632 94.2993 246.973C93.2587 245.022 91.3678 241.019 91.3678 237.631H91.3343C91.4517 236.496 92.2517 235.987 93.986 235.954V235.976C96.4923 235.976 97.1133 236.904 97.1692 237.72H97.1972C97.2643 240.286 96.4867 242.685 95.6587 244.491L95.6531 244.485ZM109.052 231.459C106.478 231.878 103.871 232.202 101.231 232.403C102.562 233.891 103.183 235.685 103.357 237.066C105.695 234.5 107.759 232.588 109.052 231.459ZM38.3329 81.0233C38.8643 81.4146 39.1552 81.6271 39.1944 81.655L39.2056 81.6383L39.3455 81.778C39.3455 81.778 45.6336 87.598 54.4951 86.8991C65.5273 78.7087 79.1888 73.856 93.9692 73.856C108.75 73.856 123.099 78.9603 134.271 87.5309C139.636 87.4806 143.849 85.1828 146.07 83.6397L145.975 83.5223C146.545 83.0863 147.183 82.6166 147.871 82.1079L147.838 82.0576H147.866C147.866 82.0576 148.173 81.8339 148.738 81.409L148.772 81.4482C151.038 79.7989 153.779 77.8925 156.761 76.0028C140.565 60.1699 118.406 50.3861 93.9916 50.3805C69.5329 50.3805 47.3343 60.2034 31.1329 76.0923C34.428 78.1944 37.035 80.0617 38.3385 81.0233H38.3329ZM9.20839 66.0905V66.1184C6.39441 65.755 4.87273 65.2463 4.1958 64.7151C4.52587 65.045 4.93427 65.3022 5.36504 65.509C6.73566 66.1128 8.26853 66.2079 8.26853 66.2079C8.52028 66.2079 8.77762 66.2638 9.02937 66.2917V66.3532C9.02937 66.3532 9.04615 66.3532 9.05175 66.3532C9.10769 66.3532 9.15245 66.3644 9.20839 66.37C9.77343 66.4259 10.3329 66.5377 10.8979 66.6495V66.6663C13.2196 67.1639 15.6811 68.0137 18.1427 69.0647C18.2042 69.0927 18.2601 69.115 18.3217 69.143C18.4895 69.2157 18.6573 69.2884 18.8308 69.3666C21.8406 70.6804 24.8448 72.2794 27.586 73.8895C27.5804 73.8951 27.5748 73.9007 27.5692 73.9063C27.8713 74.0852 28.1734 74.2641 28.4699 74.443C29.1636 73.7497 29.8741 73.0733 30.5902 72.4024C30.5343 72.4247 30.4783 72.4471 30.428 72.4695L29.9189 72.9782L29.393 72.7658C29.3538 72.7658 29.3091 72.777 29.2755 72.777V72.7155L25.8965 71.3737C25.8965 71.3737 27.6699 71.1109 29.2755 70.5463V70.5015C29.9245 70.4177 32.7944 68.5616 35.049 66.9067L35.7818 67.8963L35.0769 66.9067C38.2042 64.6592 41.242 62.0428 44.1175 59.0629C46.372 56.7316 48.593 54.1431 50.7357 51.3309C52.0615 49.5866 53.3538 47.7305 54.4783 46.0477C55.407 44.6165 56.028 43.5766 56.3077 43.0958C58.5622 39.6128 60.8951 36.6888 63.3175 34.3519C64.4587 33.2449 65.6168 32.261 66.7804 31.4112L66.4727 30.5893H67.9776C68.2797 30.3936 68.5874 30.2036 68.8951 30.0247C69.6559 29.5774 70.3329 29.2364 70.8923 28.9848C71.228 28.845 71.5133 28.7332 71.765 28.6493L71.7091 28.3698L71.9273 28.3307L69.4993 13.0233C67.7203 13.4034 64.6825 14.3259 60.951 16.5063C57.9972 18.2226 55.0937 20.4701 52.3357 23.1984C49.0126 26.4578 45.8853 30.3377 43.0434 34.7768L42.7916 35.1961C42.7077 35.3638 41.8629 36.8286 40.3972 38.9363C39.1329 40.7924 37.0462 43.6045 34.4 46.5509C33.0741 48.01 31.6979 49.3909 30.3161 50.6544C28.7385 52.0857 27.1888 53.3268 25.7007 54.3667C24.0392 55.5184 22.3776 56.5024 20.7161 57.2906C18.9986 58.1069 17.2531 58.7219 15.5636 59.1188C15.3119 59.1747 14.579 59.3704 13.4825 59.7114C12.386 60.0469 10.8923 60.4997 9.31468 61.1147C7.28951 61.7912 5.25874 62.6913 4.92308 63.0826L4.77762 62.9988L4.19021 64.6648C4.19021 64.6648 4.2014 64.676 4.20699 64.6816C4.91189 65.2127 6.40559 65.7215 9.21958 66.0849L9.20839 66.0905ZM57.4545 23.0586L58.1874 23.8749L54.1315 27.5032L56.0168 29.6109L59.8154 26.2118L60.5483 27.028L56.7497 30.4272L58.8476 32.7473L63.0545 28.996L63.7874 29.8122L58.635 34.391L52.4699 27.5032L57.4545 23.0642V23.0586ZM48.5818 32.0541C49.0909 31.4056 49.5385 30.9863 49.9357 30.7347C50.3273 30.4831 50.7804 30.3992 51.2615 30.4551C51.7427 30.5111 52.1902 30.7067 52.5874 31.0198C53.1245 31.4112 53.4322 31.9199 53.5161 32.5349C53.6 33.1499 53.4322 33.8264 52.979 34.6147C53.2867 34.4469 53.572 34.3351 53.7958 34.3072L53.8238 34.3631C54.3049 34.2792 54.8364 34.2513 55.4294 34.3072L58.4168 34.5867L57.4601 35.7943L55.1776 35.5707C54.5287 35.4868 53.9972 35.4868 53.628 35.4868C53.2364 35.4868 52.951 35.5148 52.7552 35.5986C52.5594 35.6545 52.3636 35.7663 52.2182 35.8782C52.1063 35.962 51.9664 36.1297 51.765 36.3813L50.8923 37.5051L54.1315 40.0041L53.3706 40.9601L46.0755 35.2799L48.5818 32.0485V32.0541ZM44.8392 37.4212L45.7678 38.0138L42.814 42.5926L45.2084 44.1077L47.9664 39.8084L48.8671 40.4011L46.1091 44.7003L48.7552 46.3887V46.4446L51.8266 41.6646L52.7552 42.2572L49.0126 48.0492L41.242 43.0455L44.8448 37.4268L44.8392 37.4212ZM37.2364 48.6642C37.3762 47.9038 37.7175 47.205 38.221 46.5844C38.814 45.88 39.4853 45.4327 40.2462 45.237C41.007 45.0414 41.7958 45.1252 42.6126 45.4607L42.0755 46.5844C41.4266 46.3328 40.8671 46.2769 40.358 46.3887C39.8489 46.5005 39.4294 46.808 39.0322 47.2888C38.579 47.8535 38.3273 48.4126 38.2993 49.0052C38.2434 49.5698 38.4112 50.1289 38.7189 50.6377C39.0266 51.1408 39.4238 51.5937 39.8993 51.985C40.4923 52.4882 41.1077 52.8292 41.7007 53.0249C42.2937 53.2206 42.8531 53.2206 43.3902 53.0249C43.9273 52.8572 44.3469 52.5497 44.7161 52.0969C45.1692 51.5601 45.365 51.0011 45.365 50.3805C45.365 49.7599 45.1133 49.145 44.6042 48.5244V48.4685L45.6168 47.7081C46.2378 48.5523 46.5175 49.3965 46.5175 50.2351C46.5175 51.0738 46.2098 51.8676 45.5888 52.6224C44.9678 53.3827 44.2909 53.8859 43.5916 54.1095C42.8867 54.3331 42.1538 54.3331 41.3371 54.1095C40.5483 53.8859 39.7874 53.4889 39.1105 52.9299C38.3776 52.3093 37.8462 51.6384 37.5049 50.906C37.1692 50.1736 37.0853 49.4189 37.2252 48.6586L37.2364 48.6642ZM31.7762 53.8691L32.7329 52.969L41.8573 57.0167L40.8448 57.9727L38.1427 56.7092L35.3566 59.3816L36.565 62.1099L35.6364 63.01L31.7762 53.9027V53.8691ZM29.8014 55.6917L30.4503 56.5639L26.3944 59.5158L28.0839 61.8191L31.5748 59.2586V59.2865L32.2238 60.1587L28.7329 62.7192L31.2112 66.0905L30.2266 66.8228L24.7664 59.376L29.807 55.6917H29.8014ZM93.1245 23.1425L93.1524 23.1145C98.9147 23.1145 105.589 24.037 112.856 26.6758C113.784 20.2294 115.698 13.9977 116.716 7.57229C93.1748 -7.99789 74.1427 4.87197 70.8755 7.32071L73.9468 26.7709C76.7888 25.5633 83.7147 23.1425 93.1189 23.1425H93.1245ZM103.429 7.23685V8.44445H100.022V17.4958H98.6685V8.44445H95.2895V7.23685H103.429ZM85.214 6.98526H92.6489V8.19286H86.5678V11.3404H92.2573V12.548H86.5678V16.0311H92.8727V17.2387H85.214V6.97967V6.98526ZM183.183 80.1176H183.155C183.155 80.1176 183.161 80.1288 183.166 80.1288C183.166 80.1288 183.178 80.1176 183.183 80.1176ZM183.72 80.9562V79.2678C183.636 79.5753 183.469 79.8604 183.211 80.112C183.547 80.3915 183.692 80.6767 183.72 80.9562ZM47.614 58.666C46.9986 59.3424 46.3832 60.0021 45.7678 60.6395C45.5776 60.8352 45.3874 61.0253 45.1972 61.2153C59.3846 52.4267 76.1063 47.3447 93.9972 47.3447C110.691 47.3447 126.366 51.767 139.916 59.499C139.25 58.789 138.59 58.0566 137.936 57.3074C131.508 53.9083 124.638 51.2135 117.438 49.3686V47.4398L121.779 35.8502C121.779 35.8502 121.729 35.7943 121.701 35.7719C121.203 35.2967 120.705 34.8495 120.207 34.419L115.955 45.7234L94.0364 45.6675L72.1455 45.7234L67.6028 33.6475C67.1776 33.9717 66.758 34.3183 66.3385 34.6761L71.1217 47.4174V49.2456C62.786 51.3309 54.8979 54.54 47.6084 58.6771L47.614 58.666ZM94.6741 44.5326L115.144 44.5885L119.262 33.6251C118.372 32.9262 117.483 32.3057 116.593 31.7801L94.7021 31.8305V44.5326H94.6741ZM101.264 41.6981H103.29C102.02 40.6303 101.376 39.3388 101.376 37.7902C101.376 36.946 101.544 36.2136 101.885 35.5427C102.227 34.8718 102.702 34.3631 103.323 33.9661C103.944 33.5748 104.677 33.3735 105.55 33.3735C106.422 33.3735 107.127 33.5692 107.692 33.9102C108.257 34.2736 108.733 34.7824 109.102 35.4253C109.466 36.1018 109.667 36.8845 109.667 37.7846L109.611 37.7566C109.611 39.3053 108.962 40.5967 107.698 41.6646H109.723V42.7603H106.12V41.7484C107.614 41.044 108.375 39.7805 108.375 37.9523C108.375 36.9404 108.123 36.0962 107.586 35.4253C107.049 34.7768 106.406 34.4413 105.533 34.4413C104.66 34.4413 103.983 34.7768 103.452 35.4533C102.915 36.1297 102.663 36.9404 102.663 37.9244C102.663 39.7805 103.396 41.0719 104.89 41.7764V42.7883H101.287V41.6925L101.264 41.6981ZM93.9692 76.8861C81.8909 76.8861 70.5902 80.2853 60.9734 86.1779C60.828 87.1172 60.414 88.9286 59.3063 90.8518C57.8406 93.4123 54.7748 96.6997 48.5483 97.8514C48.5259 97.8514 47.8881 97.9408 46.8252 97.98C36.8224 109.15 30.7245 123.882 30.7245 140.017C30.7245 174.841 59.0769 203.147 93.9636 203.147C128.85 203.147 157.203 174.841 157.203 140.017C157.203 123.988 151.194 109.34 141.303 98.198C139.564 98.2148 138.478 98.0527 138.478 98.0527C126.596 95.8611 126.176 85.8816 126.176 85.8816L126.148 85.8537C126.422 85.9711 126.697 86.0773 126.971 86.1779C117.359 80.2853 106.059 76.8861 93.9692 76.8861ZM105.32 81.806L105.432 101.033C105.432 101.033 105.656 103.42 101.6 107.356L95.9664 113.567L95.8545 78.3509C95.8545 78.3509 103.513 79.7821 105.315 81.806H105.32ZM114.411 133.464L114.159 133.548L103.234 141.929L103.262 141.901L96.1734 139.335L95.7147 139.48L95.8881 139.228L95.5748 139.117L96.0727 138.954L100.28 132.738L114.014 133.095L114.243 133.017L114.283 133.101H114.355L114.389 133.308L114.411 133.358L114.394 133.369L114.411 133.47V133.464ZM93.9077 118.727V118.71L93.9636 118.716L94.193 118.682L94.221 118.761L94.2769 118.772V118.923L98.8923 131.955L94.221 137.898V138.328L94.2489 138.362L94.221 138.39V138.328L94.0531 138.116L93.8853 138.328V138.362H93.8573L93.8853 138.328V137.898L89.214 131.955V131.871L93.835 118.951V118.744L93.9133 118.733L93.9077 118.727ZM92.5371 139.508L92.0224 139.34L84.9622 141.895L84.9902 141.923L74.1091 133.576L73.8406 133.492L73.8573 133.386L73.8126 133.353L73.8853 133.207L73.8965 133.123H73.9245L73.9804 133.011L74.2937 133.112L87.9776 132.76L88.0336 132.844L92.1622 138.954L92.6489 139.111L92.3469 139.223L92.5371 139.508ZM82.9091 101.144L83.021 81.9178C84.8224 79.894 92.4811 78.4627 92.4811 78.4627L92.3692 113.679L86.7357 107.467C82.6797 103.532 82.9091 101.144 82.9091 101.144ZM61.365 119.018L60.8056 120.063C62.0308 118.051 63.6196 115.781 65.5944 113.528L65.393 113.735L54.551 100.691L68.3021 110.71C69.8406 109.256 71.5524 107.864 73.4601 106.618L73.1077 106.819L66.2937 91.3046L76.7552 104.722C77.9748 104.107 79.2504 103.554 80.5986 103.079L85.9748 109.458C85.9748 109.458 68.828 113.505 63.6755 131.832L57.4545 126.772C57.4769 126.666 58.0811 125.034 59.3343 122.652L45.3762 113.164L61.3706 119.012L61.365 119.018ZM35.9161 128.718L55.1776 128.606C55.1776 128.606 57.572 128.382 61.5105 132.43L67.7315 138.049L32.4531 138.161C32.4531 138.161 33.8909 130.518 35.9161 128.718ZM32.593 141.504L67.8713 141.616L61.6503 147.234C57.7063 151.282 55.3175 151.058 55.3175 151.058L36.0559 150.947C34.0308 149.146 32.593 141.504 32.593 141.504ZM76.6993 175.305L66.2378 188.723L73.0518 173.209L73.4042 173.41C71.4965 172.163 69.7846 170.771 68.2462 169.318L54.4951 179.336L65.3371 166.293L65.5329 166.494C63.5804 164.264 62.0084 162.022 60.7888 160.026L61.3091 161.004L45.3147 166.852L59.2615 157.348C58.014 154.977 57.4154 153.356 57.393 153.25L63.614 148.19C68.7385 166.517 85.9133 170.564 85.9133 170.564L80.5371 176.943C79.1888 176.468 77.9133 175.915 76.6937 175.3L76.6993 175.305ZM83.021 198.227L82.9091 179.001C82.9091 179.001 82.6853 176.614 86.7357 172.678L92.3692 166.466L92.4811 201.682C92.4811 201.682 84.8224 200.251 83.021 198.227ZM93.2979 149.007L93.214 149.062L81.9357 156.783L81.7846 156.99L81.6951 156.945L81.6727 156.962V156.99L81.5832 156.889L81.449 156.822L81.4657 156.761L81.421 156.711L81.5217 156.571L85.4434 143.332L92.7329 141.247L93.0182 140.861L93.0294 141.163L93.2979 141.084L93.035 141.448L93.2979 149.012V149.007ZM94.0587 140.861C93.4937 140.861 93.0462 140.408 93.0462 139.849C93.0462 139.29 93.4937 138.837 94.0587 138.837C94.6238 138.837 95.0713 139.284 95.0713 139.849C95.0713 140.414 94.6238 140.861 94.0587 140.861ZM94.814 148.895L95.0769 141.442L94.814 141.084L95.0825 141.163L95.0937 140.861L95.3846 141.252L102.669 143.338V143.449L106.59 156.571L106.697 156.716L106.652 156.766L106.669 156.828L106.534 156.895L106.445 156.996V156.968L106.422 156.951L106.333 156.996L106.182 156.789L94.814 149.012V148.895ZM105.432 178.861L105.32 198.088C103.519 200.111 95.8601 201.543 95.8601 201.543L95.972 166.327L101.606 172.538C105.662 176.474 105.438 178.861 105.438 178.861H105.432ZM126.943 161.01L127.317 160.317C126.159 162.178 124.705 164.241 122.92 166.299L133.757 179.336L120.022 169.329C118.523 170.743 116.862 172.096 115.015 173.321L115.2 173.214L122.014 188.729L111.58 175.311C110.361 175.926 109.085 176.479 107.737 176.955L102.361 170.576C102.361 170.576 119.508 166.528 124.66 148.201L130.881 153.261C130.859 153.367 130.26 154.989 129.013 157.359L142.959 166.863L126.937 161.015L126.943 161.01ZM151.692 150.947L132.436 151.058C132.436 151.058 130.042 151.282 126.104 147.234L119.883 141.616L155.161 141.504C155.161 141.504 153.723 149.152 151.698 150.947H151.692ZM155.267 138.161L119.989 138.049L126.21 132.43C130.154 128.382 132.543 128.606 132.543 128.606L151.804 128.718C153.829 130.518 155.267 138.161 155.267 138.161ZM133.645 100.58L122.808 113.617C124.649 115.747 126.143 117.883 127.317 119.795L126.831 118.9L142.825 113.025L128.884 122.546C130.126 124.905 130.719 126.521 130.747 126.627L124.526 131.686C119.373 113.36 102.227 109.312 102.227 109.312L107.603 102.933C108.957 103.409 110.238 103.968 111.457 104.583L121.902 91.1816L115.088 106.696L114.987 106.64C116.794 107.842 118.422 109.173 119.888 110.559L133.639 100.568L133.645 100.58ZM4.03916 79.7262C4.06713 79.6983 4.10629 79.6759 4.13986 79.648C4.11748 79.6647 4.08951 79.6815 4.06713 79.7039C3.91608 79.5529 3.8042 79.3908 3.71469 79.2231V80.604C3.74266 80.3468 3.87133 80.0896 4.15105 79.8325C4.11748 79.7989 4.07273 79.771 4.03916 79.7374V79.7262ZM34.7021 55.0767V55.1047C33.9413 54.7413 33.3483 54.4282 32.9007 54.1766C33.2364 54.6854 33.5217 55.2165 33.7734 55.7812L34.9259 58.4256L37.1804 56.262L34.7021 55.0823V55.0767ZM52.3021 33.6027H52.3301C52.442 33.2952 52.442 32.9822 52.3301 32.7026C52.2182 32.4231 52.0503 32.1995 51.821 31.9982C51.4573 31.7186 51.0881 31.6348 50.6685 31.7187C50.2489 31.8025 49.8238 32.11 49.4042 32.6467L47.6028 34.9501L50.0252 36.8342L51.6308 34.7544C51.9664 34.3072 52.1958 33.9102 52.3077 33.6027H52.3021ZM70.0084 31.9982C69.5273 32.2833 69.0406 32.602 68.5594 32.9374L72.9343 44.5885L93.4042 44.5326V31.8305L70.4 31.7801C70.2713 31.8528 70.1427 31.9199 70.0084 31.9982ZM81.807 33.5468H83.1049L86.8755 42.7659H85.4937L84.4252 39.9818H80.5706L79.558 42.7659H78.2601L81.807 33.5468ZM83.1049 36.4372C82.8252 35.6489 82.5958 35.034 82.4559 34.5252C82.3441 35.1178 82.1762 35.7048 81.9469 36.2975L80.9343 38.9978H84.0615L83.1049 36.4372ZM73.2084 30.6061L94.0476 30.6452L114.137 30.6061C113.969 30.5446 113.813 30.4887 113.684 30.4496L112.218 30.1141L112.431 28.9289C112.397 28.9177 112.369 28.9065 112.336 28.8953L93.1524 28.9289L74.7524 28.8953C74.5343 28.9848 74.3385 29.0686 74.1818 29.1357L74.372 30.0862L73.2755 30.5949C73.2755 30.5949 73.2476 30.5949 73.2028 30.6061H73.2084ZM183.664 81.2134V80.9618C183.664 80.7102 183.497 80.4363 183.172 80.1344C182.697 80.604 182.025 80.9674 181.415 81.219H183.67L183.664 81.2134ZM188 140.235C188 120.354 181.751 101.838 171.15 86.6476C175.586 84.7076 178.931 83.7963 178.931 83.7963C178.931 83.7963 183.351 82.7285 183.692 81.2357H181.438C180.677 81.5432 180 81.7109 180 81.7109C176.481 82.3036 173.046 83.5168 169.93 84.9424C169.908 84.9144 169.885 84.8865 169.863 84.8585C169.538 85.0095 169.208 85.1604 168.884 85.3226C180.157 100.664 186.825 119.571 186.825 140.011C186.825 176.513 165.572 208.151 134.775 223.246C137.785 226.516 140.716 232.56 136.599 239.286C136.403 239.537 131.922 245.05 127.899 251.848C126.747 251.06 125.589 250.501 124.492 250.132C128.688 242.992 133.303 237.34 133.505 237.089C137.236 230.961 132.28 226.041 131.055 224.962C128.503 226.075 125.897 227.076 123.234 227.959L127.027 231.744L117.986 240.767L111.536 234.327C110.221 235.473 108.05 237.485 105.656 240.175L105.432 240.37C105.432 240.37 104.123 241.533 102.131 245.005C101.057 247.884 99.6084 250.093 98.993 250.965L99.0378 250.993C98.3664 252.06 97.5888 253.123 96.7552 254.151C96.5874 254.358 96.4196 254.565 96.2517 254.772C97.2476 256.03 98.3944 257.338 99.6811 258.596C101.432 257.232 102.685 256.399 102.82 256.309L102.848 256.349C104.75 255.119 110.691 251.753 119.01 251.753C122.669 251.809 129.387 253.604 130.171 259.932C130.238 260.385 130.271 260.866 130.277 261.369H130.238C130.053 268.475 122.876 270.448 119.038 270.504V270.476C118.31 270.476 117.606 270.448 116.912 270.398C116.839 270.515 116.766 270.627 116.699 270.728C116.476 271.091 112.587 277.303 105.522 281.266C105.326 279.835 105.041 278.51 104.705 277.275C108.722 274.759 111.457 271.499 112.705 269.817C109.393 269.123 106.736 268.011 104.923 267.077C103.021 266.138 101.27 264.975 99.6699 263.7C98.786 264.461 97.9357 265.238 97.1525 266.009L97.0573 265.914C96.828 266.138 96.6042 266.367 96.3748 266.602C97.3986 267.865 98.0084 268.788 98.2434 269.168C98.2601 269.19 98.2657 269.207 98.2769 269.218C98.2769 269.218 98.3049 269.252 98.344 269.308C98.5399 269.565 98.8587 270.023 99.2448 270.706C100.593 273.031 102.892 278.018 103.206 285.264C103.222 285.432 103.239 285.599 103.256 285.767C103.256 286.074 103.508 291.363 100.33 294.651C99.3287 295.691 98.1147 296.406 96.7105 296.797C95.8489 297.049 94.9147 297.178 93.9077 297.178L93.8517 297.15H93.6839C86.5455 296.971 84.5594 289.798 84.5035 285.963C84.5035 284.733 84.5762 283.553 84.7105 282.429C76.1902 278.678 71.5021 271.108 71.2448 270.7C71.1664 270.583 71.0825 270.448 70.9874 270.303C69.986 270.409 68.9399 270.476 67.8657 270.476H67.6979C66.7413 270.476 62.3497 270.309 59.3902 267.469C57.6671 265.83 56.772 263.622 56.7273 260.922H56.7161C56.7161 260.883 56.7161 260.849 56.7161 260.81C56.7161 260.771 56.7161 260.732 56.7161 260.693H56.7273C56.7776 258.372 57.5832 256.399 59.1105 254.873C59.6923 254.297 60.3469 253.822 61.0182 253.436C56.7608 245.877 51.6196 239.582 51.5636 239.526C49.6783 236.462 49.1413 233.566 49.8462 230.726C50.6182 227.545 52.772 225.18 54.372 223.788C22.9538 208.939 1.16923 176.971 1.16923 140.017C1.16923 119.599 7.82657 100.703 19.0769 85.3729C15.5245 83.595 11.4462 82.0073 7.25035 81.3028C7.25035 81.3028 6.6014 81.1631 5.81259 80.8276C5.24755 80.5984 4.64336 80.2685 4.17902 79.8492C3.89371 80.1064 3.74266 80.3636 3.74266 80.5984V80.85H3.77063C4.10629 82.3371 8.53147 83.4105 8.53147 83.4105C8.53147 83.4105 12.1958 84.4169 16.9455 86.5581C6.58462 101.413 0.38042 119.661 0.0559441 140.235H0V142.007H0.0559441C0.537063 167.165 10.9538 190.043 27.5357 206.569C34.3888 213.434 42.3273 219.232 51.0713 223.71C50.1762 224.727 49.2699 225.974 48.5371 227.512C47.7762 229.088 47.2392 231.023 47.2392 233.158C47.2392 235.573 47.972 238.162 49.4937 240.633L49.6615 240.885L49.8573 241.108C49.8573 241.108 49.8853 241.108 49.9133 241.164C50.3776 241.729 54.221 246.509 57.7846 252.435C57.3706 252.804 56.9622 253.212 56.5818 253.676C55.0713 255.46 54.2042 258.082 54.193 260.844H54.1483C54.2154 263.555 55.2671 266.429 56.7273 268.151C59.0098 270.851 61.8517 271.863 63.9888 272.422C66.1594 272.987 67.7594 272.987 67.9888 272.987H68.0448V273.042C68.7217 273.042 69.3874 273.02 70.0364 272.981C70.9594 274.306 72.8503 276.788 75.7315 279.338C77.5105 280.892 79.642 282.485 82.1874 283.816C82.1427 284.487 82.1203 285.18 82.1203 285.884V285.94C82.1482 286.248 82.1203 288.976 83.4462 292.235C84.0951 293.868 85.1636 295.691 86.965 297.183L86.993 297.155C88.7552 298.665 91.2671 299.643 94.0028 299.654L94.0308 299.682H94.1427C96.9007 299.682 99.435 298.698 101.208 297.211C101.544 296.92 101.857 296.624 102.143 296.322C104.173 294.198 105.018 291.777 105.516 289.904C106.081 287.741 106.081 286.136 106.081 285.912V285.856C106.081 285.219 106.059 284.593 106.025 283.978C110.165 281.853 113.281 279.047 115.429 276.693C116.822 275.156 117.807 273.814 118.4 272.959C118.657 272.964 118.909 272.981 119.172 272.981L119.2 273.009H119.256C119.564 272.981 122.294 273.009 125.561 271.69C127.194 271.041 128.996 269.973 130.517 268.179C131.027 267.564 131.474 266.854 131.843 266.076C131.877 266.004 131.922 265.931 131.955 265.858C131.989 265.78 132.022 265.696 132.056 265.612C132.145 265.4 132.235 265.187 132.313 264.969C132.75 263.751 132.996 262.403 132.996 261.011H132.934C132.94 258.233 131.966 255.711 130.462 253.928C130.305 253.743 130.148 253.57 129.992 253.402C131.815 250.294 133.768 247.426 135.334 245.24C136.263 243.948 137.052 242.908 137.617 242.176C137.897 241.813 138.126 241.555 138.266 241.36C138.35 241.276 138.406 241.22 138.434 241.164L138.49 241.108L138.685 240.885L138.853 240.633C140.487 237.961 141.22 235.21 141.22 232.677C141.22 228.63 139.474 225.51 137.924 223.458C137.869 223.386 137.818 223.33 137.762 223.257C146.165 218.84 153.801 213.205 160.453 206.563C177.432 189.646 187.989 166.092 187.989 140.229L188 140.235ZM119.217 249.097H119.161C113.701 249.097 109.192 250.445 106.042 251.798C103.961 252.687 102.456 253.576 101.611 254.129L101.594 254.101C101.555 254.129 101.27 254.319 100.806 254.649L100.778 254.638L100.794 254.66C100.604 254.794 100.38 254.951 100.134 255.13C100.017 255.001 99.8937 254.867 99.7706 254.733C100.308 254.006 100.828 253.268 101.309 252.502H101.303C101.303 252.502 101.326 252.463 101.337 252.446C101.477 252.256 103.262 249.88 104.615 246.039C106.148 243.428 107.133 242.433 107.133 242.411L107.385 242.187L107.608 241.936C109.113 240.258 110.495 238.866 111.631 237.799L118.171 244.323L130.585 231.928L126.814 228.166C127.743 227.819 128.66 227.461 129.572 227.087C129.818 227.299 130.562 227.964 131.234 228.892C132.022 229.988 132.615 231.308 132.615 232.689C132.587 233.589 132.42 234.601 131.631 235.948C130.607 237.234 126.288 242.685 122.355 249.472C120.632 249.125 119.413 249.103 119.217 249.103V249.097ZM103.39 272.763C102.238 270.035 101.052 268.296 100.66 267.731C100.559 267.586 100.408 267.351 100.196 267.049C100.425 267.206 100.621 267.34 100.744 267.418C100.917 267.541 101.214 267.737 101.6 267.983C102.445 268.542 103.966 269.414 106.036 270.309C106.831 270.638 107.703 270.968 108.655 271.281C108.073 271.896 107.418 272.539 106.685 273.177C105.952 273.814 105.141 274.44 104.263 275.027C103.983 274.211 103.687 273.445 103.39 272.752V272.763ZM54.1427 260.844H54.1594C54.1594 260.721 54.1427 260.598 54.1427 260.48V260.844ZM126.422 261.034C126.126 255.996 119.978 255.661 119.032 255.622C110.467 255.666 104.699 259.865 104.643 259.893C104.011 260.324 103.385 260.771 102.764 261.235C103.709 261.95 104.308 262.325 104.33 262.342C104.386 262.381 104.867 262.733 105.717 263.22C106.512 263.661 107.334 264.058 108.185 264.394L108.162 264.444C109.913 265.21 112.207 265.987 114.909 266.406C116.269 264.164 118.137 261 119.782 258.21H119.978C120.962 258.35 122.26 258.775 122.931 259.278H122.903C123.071 259.39 123.211 259.53 123.329 259.641C121.986 261.934 120.453 264.539 119.155 266.719C119.608 266.697 120.917 266.596 122.305 266.132L122.288 266.076C124.677 265.299 126.266 263.354 126.411 261.034H126.422ZM114.12 263.51C112.358 263.136 110.825 262.61 109.583 262.085C108.733 261.732 108.039 261.369 107.496 261.062C109.309 260.072 112.8 258.54 117.264 258.193C116.213 259.994 115.094 261.883 114.12 263.505V263.51Z" fill="#D7D7D7"/>
<path fill-rule="evenodd" clip-rule="evenodd" d="M4.80522 63.1284C5.07967 63.1589 5.27744 63.4061 5.24694 63.6806C5.20613 64.0479 5.16425 64.4185 5.12208 64.7918C4.78923 67.7377 4.4375 70.8507 4.4375 73.8476C4.4375 74.8808 4.4531 76.9504 4.46872 78.5041C4.47455 79.083 4.48036 79.5889 4.48535 79.9422C4.49492 79.9808 4.5 80.0213 4.5 80.0629C4.5 80.307 4.4994 80.4635 4.49608 80.5107C4.49582 80.5144 4.49452 80.5341 4.49069 80.558C4.48965 80.5648 4.48283 80.6091 4.46324 80.6598C4.44717 80.6969 4.37867 80.8025 4.31792 80.863C4.16282 80.9515 3.81732 80.9466 3.66941 80.8579C3.61238 80.7998 3.5473 80.6992 3.5317 80.6638C3.52418 80.6436 3.51382 80.61 3.51044 80.5968C3.50461 80.5726 3.50188 80.5533 3.50097 80.5467C3.49876 80.5307 3.49773 80.5175 3.49737 80.5128C3.49586 80.4932 3.49503 80.4693 3.49448 80.4521C3.49318 80.4109 3.49178 80.3473 3.49032 80.2662C3.48442 79.9402 3.47659 79.2909 3.46878 78.5141C3.45315 76.9602 3.4375 74.8862 3.4375 73.8476C3.4375 70.7903 3.79613 67.618 4.12841 64.679C4.17065 64.3054 4.21246 63.9355 4.25306 63.5701C4.28355 63.2957 4.53076 63.0979 4.80522 63.1284ZM181.401 64.2406C181.648 64.1171 181.949 64.2173 182.072 64.4642C183.16 66.6398 183.375 68.422 183.375 70.8267C183.375 72.071 183.406 73.316 183.437 74.5686L183.437 74.5716C183.469 75.8211 183.5 77.0782 183.5 78.3372C183.5 78.401 183.51 78.5563 183.526 78.7912L183.532 78.8753C183.549 79.1427 183.57 79.4722 183.582 79.7966C183.593 80.1172 183.595 80.4501 183.573 80.7199C183.562 80.8525 183.543 80.9928 183.507 81.1165C183.489 81.1785 183.462 81.2543 183.418 81.3284C183.376 81.3999 183.297 81.5047 183.161 81.5726C182.914 81.6961 182.614 81.5959 182.49 81.349C182.398 81.165 182.43 80.9515 182.555 80.8034C182.562 80.7673 182.57 80.7128 182.576 80.6367C182.594 80.4277 182.593 80.1427 182.582 79.8315C182.571 79.5241 182.551 79.2081 182.534 78.9415L182.527 78.8456C182.513 78.6306 182.5 78.4371 182.5 78.3372C182.5 77.0917 182.469 75.8461 182.438 74.5936L182.438 74.5889C182.406 73.34 182.375 72.084 182.375 70.8267C182.375 68.5055 182.17 66.8957 181.178 64.9115C181.054 64.6645 181.154 64.3641 181.401 64.2406Z" fill="#D7D7D7"/>
</svg>
