<svg width="315" height="271" viewBox="0 0 315 271" fill="none" xmlns="http://www.w3.org/2000/svg">
<path d="M163.181 186.428C157.031 186.476 150.342 188.237 145.191 189.314C139.106 190.591 135.173 192.104 125.508 193.224C124.51 193.322 123.61 193.381 122.769 193.381C122.748 193.381 122.727 193.38 122.706 193.38C123.537 193.378 124.426 193.32 125.41 193.224C135.076 192.104 139.009 190.591 145.094 189.314C150.259 188.234 156.97 186.467 163.133 186.428C163.149 186.428 163.165 186.428 163.181 186.428Z" fill="#D7D7D7"/>
<path d="M237.971 142.904C237.99 144.574 238.088 154.021 238.088 157.576C238.088 161.445 237.07 164.333 232.551 165.982C228.227 167.553 220.283 167.495 212.986 167.75V184.346C212.986 187.527 212.046 189.394 210.853 190.788C209.737 192.084 208.035 193.381 203.692 193.381C203.678 193.381 203.664 193.38 203.651 193.38C207.953 193.369 209.646 192.079 210.756 190.788C211.95 189.394 212.889 187.527 212.889 184.346V167.75C220.187 167.495 228.13 167.554 232.454 165.982C236.974 164.333 237.991 161.445 237.991 157.576C237.991 154.021 237.894 144.574 237.874 142.904L237.893 142.885L237.971 142.904Z" fill="#D7D7D7"/>
<path d="M147.168 175.488C149.065 175.096 149.711 175.272 149.711 176.058C149.711 176.824 149.027 177.276 147.168 177.669C146.307 177.865 145.446 178.061 144.585 178.258V176.058C145.446 175.861 146.307 175.665 147.168 175.488Z" fill="#D7D7D7"/>
<path d="M168.886 177.963C167.79 177.865 166.694 177.825 165.618 177.806H165.599C166.147 176.667 166.695 175.527 167.242 174.388C167.79 175.566 168.338 176.765 168.886 177.963Z" fill="#D7D7D7"/>
<path fill-rule="evenodd" clip-rule="evenodd" d="M163.25 168.731C177.298 168.81 192.951 173.799 200.191 173.799C202.264 173.799 207.097 173.799 210.228 171.973V184.051C210.228 185.386 210.385 187.449 208.898 188.863L208.819 188.844C208.076 189.551 207.254 190.631 203.614 190.631C202.851 190.631 202.049 190.591 201.208 190.493C194.615 189.727 190.74 188.765 186.984 187.842C185.34 187.429 183.658 187.017 181.779 186.624C180.938 186.447 180.057 186.251 179.138 186.055C175.244 185.21 170.549 183.737 163.349 183.697H163.074C155.874 183.756 151.179 185.23 147.285 186.074C146.366 186.271 145.485 186.467 144.644 186.644C142.766 187.036 141.083 187.449 139.44 187.861C135.683 188.804 131.809 189.766 125.215 190.513C124.374 190.611 123.552 190.65 122.809 190.65C119.15 190.65 118.347 189.57 117.604 188.863C116.117 187.449 116.274 185.386 116.274 184.051V171.973C119.404 173.799 124.237 173.799 126.311 173.799C133.53 173.799 149.202 168.81 163.25 168.731ZM195.886 185.938C196.395 186.016 196.923 186.094 197.432 186.153V180.34C199.33 182.5 201.208 184.582 203.106 186.565H204.554V178.356C204.045 178.376 203.517 178.396 203.008 178.396V184.268H202.988C201.11 182.304 199.212 180.222 197.334 178.081C196.845 178.022 196.355 177.963 195.886 177.904V185.938ZM130.811 180.477C130.556 178.591 129.108 177.747 126.486 177.963C123.356 178.179 121.655 179.515 121.654 182.244C121.654 184.974 123.356 186.605 126.506 186.311C129.05 186.055 130.478 184.739 130.791 182.854L129.128 183.069C128.835 184.012 127.954 184.641 126.486 184.778C124.432 184.955 123.278 183.953 123.278 182.265C123.278 180.556 124.432 179.633 126.486 179.476C127.993 179.358 128.893 179.79 129.148 180.693L130.811 180.477ZM186.319 183.992C188.784 184.581 191.229 185.131 193.694 185.583V184.13C191.758 183.776 189.84 183.364 187.903 182.932V180.987C189.703 181.4 191.484 181.773 193.283 182.087V180.791C191.484 180.477 189.703 180.104 187.903 179.711V177.904C189.84 178.317 191.758 178.709 193.694 179.043V177.59C191.229 177.177 188.784 176.667 186.319 176.137V183.992ZM140.75 175.587C138.207 176.176 135.682 176.765 133.139 177.217V185.171C135.682 184.66 138.207 184.032 140.75 183.384V181.97C138.754 182.461 136.759 182.952 134.763 183.384V181.42C136.621 181.027 138.461 180.576 140.319 180.144V178.886C138.461 179.337 136.622 179.77 134.763 180.163V178.336C136.759 177.923 138.754 177.472 140.75 177.001V175.587ZM173.659 181.184C174.168 181.262 174.697 181.361 175.205 181.459V175.508C176.164 177.334 177.123 179.18 178.081 181.046C178.531 181.144 178.982 181.243 179.432 181.341C180.39 179.888 181.349 178.453 182.308 176.98V183.011C182.816 183.129 183.345 183.266 183.854 183.384V175.566C183.11 175.409 182.367 175.232 181.623 175.075C180.664 176.568 179.705 178.042 178.746 179.534C177.788 177.629 176.829 175.763 175.87 173.917C175.127 173.78 174.403 173.662 173.659 173.544V181.184ZM151.277 175.488C151.276 173.976 150.122 173.505 147.149 174.113C145.74 174.408 144.331 174.723 142.922 175.057V182.854C143.47 182.716 144.018 182.579 144.566 182.441V179.593C145.426 179.396 146.307 179.181 147.168 179.004C148.87 178.631 149.516 178.768 149.535 179.377C149.535 179.829 149.574 180.3 149.574 180.752C149.574 180.948 149.633 181.086 149.731 181.263C150.278 181.145 150.826 181.046 151.394 180.948C151.276 180.752 151.237 180.614 151.218 180.398C151.218 179.947 151.179 179.495 151.159 179.023H151.179C151.14 178.238 150.709 177.806 149.692 177.708C150.787 177.158 151.277 176.47 151.277 175.488ZM166.283 172.876C165.07 175.351 163.857 177.845 162.663 180.398C163.25 180.359 163.837 180.339 164.424 180.339C164.639 179.887 164.855 179.436 165.07 178.984C166.518 178.984 167.985 179.063 169.433 179.22C169.648 179.711 169.864 180.182 170.079 180.673C170.666 180.732 171.253 180.811 171.84 180.909C170.627 178.199 169.433 175.547 168.22 172.974C167.574 172.934 166.929 172.915 166.303 172.896L166.283 172.876ZM162.018 172.739C159.031 172.524 156.063 172.679 153.076 173.09V173.072L153.057 173.093C153.063 173.092 153.07 173.091 153.076 173.09V174.486C154.289 174.31 155.522 174.192 156.736 174.113V180.241C157.283 180.202 157.812 180.163 158.36 180.144V174.035C159.572 173.996 160.805 174.035 162.018 174.113V172.739Z" fill="#D7D7D7"/>
<path d="M175.009 158.137C175.3 160.819 176.674 163.364 180.606 164.411C181.486 164.647 182.523 164.803 183.736 164.862C193.577 165.294 208.681 164.038 208.623 167.671V168.044C208.662 170.656 203.4 170.342 198.919 170.342C194.865 170.342 185.061 168.029 174.498 166.786C174.669 166.806 174.839 166.825 175.009 166.846V158.137Z" fill="#D7D7D7"/>
<path d="M151.354 157.34V166.841C140.966 168.096 131.388 170.342 127.406 170.342C122.926 170.342 117.623 170.303 117.662 167.671C117.643 164.038 132.435 165.197 142.257 164.765C143.47 164.706 144.487 164.548 145.387 164.312C149.515 163.213 151.1 160.542 151.296 157.733C151.306 157.59 151.307 157.446 151.304 157.303L151.354 157.34Z" fill="#D7D7D7"/>
<path d="M163.641 166.021C164.906 166.035 166.183 166.083 167.463 166.156C166.615 166.108 165.769 166.072 164.928 166.048L163.603 166.021H163.641Z" fill="#D7D7D7"/>
<path d="M163.563 166.021H163.525V166.002H163.563V166.021Z" fill="#D7D7D7"/>
<path d="M118.974 155.69C120.754 155.632 121.36 155.887 121.361 156.613C121.361 157.301 120.715 157.635 118.954 157.694V157.675C118.152 157.694 117.33 157.733 116.528 157.753C116.528 157.085 116.527 156.418 116.547 155.75C117.349 155.75 118.172 155.71 118.974 155.69Z" fill="#D7D7D7"/>
<path fill-rule="evenodd" clip-rule="evenodd" d="M91.1711 147.166C93.4798 149.326 96.9229 150.643 100.347 151.114C102.421 151.389 105.903 151.546 110.99 151.565C115.138 151.585 119.639 151.762 123.689 151.684C126.897 151.625 129.676 151.565 131.672 151.565C136.935 151.565 140.418 151.998 142.746 152.646C145.505 153.432 147.461 155.121 147.461 157.596C147.461 160.07 145.856 161.464 143.098 162.093C142.941 162.132 142.628 162.152 142.394 162.191C141.278 159.854 140.163 157.517 139.048 155.199C138.422 155.101 137.795 155.003 137.169 154.925C135.976 156.967 134.782 159.068 133.589 161.229C134.156 161.268 134.724 161.288 135.291 161.347C135.506 160.954 135.722 160.581 135.937 160.208C137.345 160.326 138.755 160.503 140.163 160.738C140.378 161.17 140.574 161.602 140.789 162.034C141.2 162.113 141.611 162.191 142.022 162.27C138.148 162.662 127.993 162.447 120.891 162.82C117.115 163.017 115.275 164.156 114.356 165.295H114.317C112.751 165.295 106.061 165.255 103.38 165.059C100.347 164.823 96.9621 164.469 95.2599 163.841C92.4035 162.8 91.0725 160.974 91.0724 157.557L91.1711 147.166ZM105.728 154.336C105.708 156.771 105.669 159.226 105.65 161.661H105.689C108.076 161.759 110.443 161.74 112.83 161.661V160.365C110.952 160.405 109.092 160.424 107.214 160.365C107.214 159.776 107.214 159.167 107.234 158.578C108.975 158.637 110.717 158.637 112.458 158.617V157.459C110.717 157.459 108.975 157.458 107.234 157.399C107.234 156.85 107.234 156.28 107.253 155.73C109.131 155.809 110.991 155.828 112.869 155.809V154.513C110.482 154.513 108.115 154.473 105.728 154.336ZM118.993 154.434C117.683 154.473 116.352 154.493 115.041 154.513C115.022 156.889 114.982 159.265 114.962 161.622C115.471 161.622 115.98 161.583 116.488 161.563C116.488 160.699 116.488 159.835 116.508 158.971C117.33 158.951 118.133 158.911 118.954 158.892C120.538 158.833 121.165 159.029 121.165 159.599L121.185 159.579C121.185 159.992 121.204 160.424 121.224 160.837C121.224 161.013 121.263 161.151 121.361 161.327C121.869 161.308 122.398 161.288 122.906 161.269C122.809 161.092 122.769 160.954 122.749 160.758C122.749 160.345 122.73 159.933 122.71 159.501C122.71 158.774 122.28 158.323 121.341 158.106C122.358 157.753 122.828 157.183 122.828 156.3C122.828 154.925 121.791 154.375 118.993 154.434ZM99.4464 153.57C96.5119 153.099 94.8881 154.022 94.8488 156.535C94.8292 159.049 96.4139 160.877 99.3683 161.289C101.775 161.603 103.184 160.758 103.478 159.069L101.874 158.914C101.88 158.9 101.887 158.887 101.893 158.873L101.854 158.912L101.874 158.914C101.566 159.652 100.733 160.008 99.4074 159.835C97.4705 159.56 96.3947 158.401 96.4142 156.85C96.4143 155.279 97.5097 154.651 99.4464 154.965C100.816 155.181 101.658 155.75 101.912 156.595L103.517 156.752C103.282 155.004 101.873 153.943 99.4464 153.57ZM124.589 154.316V155.593C125.724 155.593 126.859 155.573 128.013 155.593C127.993 157.439 127.974 159.286 127.954 161.151L127.974 161.111H129.5C129.52 159.265 129.539 157.439 129.559 155.593C130.713 155.612 131.848 155.652 133.002 155.73V154.493C130.204 154.316 127.387 154.297 124.589 154.316Z" fill="#D7D7D7"/>
<path d="M197.373 155.671C199.114 155.651 200.073 156.456 200.054 157.87C200.054 159.265 199.075 160.051 197.315 160.051C195.573 160.051 194.575 159.304 194.595 157.93C194.614 156.535 195.612 155.71 197.373 155.671Z" fill="#D7D7D7"/>
<path fill-rule="evenodd" clip-rule="evenodd" d="M235.272 157.576C235.272 160.993 233.941 162.819 231.085 163.86L231.066 163.841C229.363 164.469 225.978 164.823 222.945 165.059C220.265 165.255 213.573 165.295 212.008 165.295C211.088 164.156 209.25 163.017 205.474 162.82C198.626 162.447 188.901 162.643 184.734 162.31C185.868 162.094 187.003 161.896 188.138 161.759C190.564 161.464 191.503 160.934 191.523 159.678C191.523 158.814 191.073 158.322 190.017 158.185C190.936 157.851 191.347 157.321 191.366 156.496C191.366 155.318 190.486 154.865 188.138 155.199C186.847 155.376 185.575 155.612 184.283 155.887C184.264 158.008 184.225 160.129 184.205 162.25C183.853 162.211 183.481 162.172 183.246 162.113C180.488 161.485 178.884 160.09 178.884 157.615C178.884 155.141 180.84 153.452 183.599 152.666C185.927 152.018 189.41 151.586 194.673 151.586C196.669 151.586 199.427 151.644 202.655 151.703C206.686 151.782 211.206 151.606 215.354 151.586C220.441 151.566 223.924 151.409 225.998 151.134C229.422 150.662 232.885 149.326 235.174 147.186L235.272 157.576ZM220.5 154.826C220.031 154.826 219.58 154.866 219.111 154.866C219.11 156.221 219.071 157.577 219.052 158.932L219.071 158.912C219.071 160.012 218.211 160.66 216.724 160.66C215.217 160.66 214.376 159.992 214.396 158.912C214.396 157.577 214.435 156.221 214.454 154.886C213.985 154.886 213.534 154.886 213.065 154.866C213.065 156.182 213.026 157.498 213.006 158.813C212.986 160.778 214.278 161.936 216.704 161.976C219.111 161.995 220.422 160.836 220.442 158.833C220.442 157.497 220.481 156.162 220.5 154.826ZM231.573 153.393C230.928 153.55 230.263 153.668 229.617 153.806C228.756 155.534 227.895 157.223 227.034 158.893H227.015C226.193 157.439 225.352 155.986 224.53 154.513C223.885 154.572 223.239 154.631 222.593 154.67C222.554 157.027 222.534 159.384 222.495 161.721C222.945 161.701 223.395 161.661 223.864 161.642C223.884 159.815 223.904 157.989 223.944 156.162C224.765 157.616 225.587 159.069 226.408 160.503C226.8 160.464 227.21 160.405 227.602 160.346C228.463 158.696 229.324 157.026 230.185 155.317C230.165 157.164 230.146 159.01 230.107 160.876C230.556 160.797 231.006 160.7 231.476 160.602C231.515 158.205 231.534 155.808 231.573 153.393ZM203.4 154.552C203.36 156.81 203.34 159.069 203.301 161.327C203.751 161.327 204.202 161.367 204.652 161.387C204.671 159.757 204.691 158.126 204.71 156.496C206.354 158.185 207.978 159.894 209.621 161.603C210.052 161.603 210.462 161.641 210.893 161.661C210.932 159.363 210.951 157.065 210.99 154.787C210.541 154.787 210.091 154.768 209.621 154.748C209.602 156.391 209.582 158.014 209.563 159.657C207.926 157.955 206.308 156.254 204.671 154.591C204.241 154.591 203.83 154.571 203.4 154.552ZM197.393 154.414C194.712 154.453 193.244 155.789 193.205 157.988C193.186 160.188 194.634 161.308 197.295 161.308C199.956 161.308 201.423 160.129 201.462 157.891C201.501 155.652 200.054 154.375 197.393 154.395V154.414Z" fill="#D7D7D7"/>
<path d="M188.177 158.911C189.625 158.734 190.153 158.912 190.153 159.54C190.153 160.149 189.644 160.385 188.157 160.581C187.297 160.699 186.436 160.817 185.595 160.974C185.595 160.424 185.595 159.874 185.614 159.324C186.475 159.167 187.336 159.029 188.177 158.911Z" fill="#D7D7D7"/>
<path d="M139.615 159.599C138.559 159.422 137.502 159.304 136.445 159.187C136.993 158.224 137.541 157.282 138.069 156.339C138.578 157.419 139.087 158.499 139.615 159.599Z" fill="#D7D7D7"/>
<path d="M188.118 156.358C189.547 156.162 190.036 156.319 190.017 156.889C190.017 157.478 189.488 157.733 188.099 157.91C187.284 158.027 186.468 158.144 185.634 158.299V156.771C186.456 156.613 187.297 156.476 188.118 156.358Z" fill="#D7D7D7"/>
<path d="M131.417 87.3809C132.474 86.7525 132.807 87.1063 132.807 88.2256V95.9053C132.807 97.0248 132.474 97.7906 131.417 98.3994C130.38 99.0279 130.028 98.6742 130.028 97.5547V89.876C130.028 88.7368 130.361 87.9897 131.417 87.3809Z" fill="#D7D7D7"/>
<path d="M142.433 80.9385C143.841 80.0941 144.35 80.33 144.35 82.1367C144.35 83.9436 143.822 84.7688 142.433 85.6133V85.5938L141.513 86.124V81.4688L142.433 80.9385Z" fill="#D7D7D7"/>
<path d="M162.918 14.4951C164.796 14.4952 165.363 15.0651 165.363 17.0684C165.363 19.0715 164.796 19.6406 162.918 19.6406H161.803V14.4951H162.918Z" fill="#D7D7D7"/>
<path fill-rule="evenodd" clip-rule="evenodd" d="M162.996 4.30176C174.696 11.2741 178.982 13.6504 191.914 13.6504C201.325 13.6504 208.232 11.8241 214.063 7.79785L231.359 24.5703C225.293 32.78 221.947 42.8755 221.947 53.167C221.947 59.0199 223.004 64.7557 225.098 70.2354C225.146 70.3768 229.619 81.9308 230.615 91.1719C233.707 119.297 223.122 131.631 187.102 141.962C179.275 144.201 169.649 147.618 163.016 154.315C156.383 147.599 146.757 144.181 138.931 141.942C102.911 131.612 92.3445 119.277 95.4162 91.1523C96.414 81.9017 100.895 70.3327 100.934 70.2148C103.027 64.6959 104.084 58.961 104.084 53.1475C104.084 42.8363 100.758 32.7408 94.673 24.5508L111.969 7.79785C117.623 11.8241 124.55 13.6504 134.137 13.6504C146.326 13.6504 151.453 10.7829 161.666 5.04785L162.996 4.30176ZM162.996 93.5283L159.846 95.3945V147.422C162.288 148.998 163.041 149.937 163.055 149.955L163.211 149.798C163.221 149.786 163.971 148.865 166.401 147.304V95.4922L163.094 93.5479L163.035 93.5088L163.055 93.4893L162.996 93.5283ZM147.814 102.484V141.647C150.416 142.649 152.587 143.592 154.406 144.456V98.5957L147.814 102.484ZM171.84 144.358C173.66 143.494 175.832 142.571 178.434 141.569V102.544L171.84 98.6748V144.358ZM135.78 109.516V137.602H135.8C135.937 137.66 136.113 137.7 136.27 137.739C138.481 138.407 140.496 139.055 142.355 139.684V105.646L135.78 109.516ZM183.854 139.645C185.673 139.036 187.649 138.407 189.801 137.759C190.016 137.7 190.231 137.621 190.427 137.582V109.634L183.854 105.765V139.645ZM123.786 116.626V133.379C125.743 134.184 127.934 135.029 130.38 135.873V112.757L123.786 116.626ZM195.866 135.795C198.312 134.95 200.484 134.126 202.46 133.281V116.685L195.866 112.796V135.795ZM111.754 123.657H111.774V127.016C112.537 127.565 113.476 128.155 114.552 128.803C115.647 129.451 116.899 130.139 118.347 130.885V119.788L111.754 123.657ZM207.88 130.807C209.347 130.06 210.6 129.373 211.695 128.725C212.791 128.077 213.711 127.467 214.474 126.917V123.774L207.88 119.905V130.807ZM103.829 119.65C104.201 120.141 104.613 120.672 105.024 121.144C105.552 121.772 106.139 122.361 106.726 122.95L115.432 117.824L123.396 113.149L129.97 109.261L137.933 104.586L144.507 100.697L152.47 96.0234L159.044 92.1348L163.016 89.7969L167.027 92.1543L173.601 96.043L181.564 100.717L188.138 104.606L196.102 109.28L202.676 113.169L210.639 117.844L219.404 123.009C220.03 122.4 220.617 121.791 221.165 121.163C221.576 120.692 221.967 120.201 222.319 119.71L163.035 84.8477L163.016 84.8281L103.829 119.65ZM219.795 115.507H219.815L219.795 115.486V115.507ZM212.595 111.225L219.795 115.486V113.247L215.178 110.498V106.039L218.504 108.023V105.765L215.178 103.78V99.8721L219.502 102.445V100.187L212.595 96.082V111.225ZM112.791 99.7744C112.556 97.7908 110.404 97.3193 108.291 98.5762C105.728 100.069 105.18 101.993 105.18 104.409C105.18 108.75 110.443 106.433 110.443 109.438C110.442 110.341 109.837 111.186 108.956 111.716C108.115 112.207 107.528 111.794 107.41 110.341L104.945 112.147C105.043 114.347 107.234 115.408 109.621 113.994C112.047 112.56 112.908 110.223 112.908 107.729C112.908 103.624 107.645 105.509 107.645 102.916C107.645 101.973 108.115 101.149 108.937 100.658C109.524 100.324 110.208 100.285 110.325 101.502L112.791 99.7744ZM121.263 91.3291V97.4961L118.524 99.126V92.959L115.941 94.4912V109.634L118.524 108.102V101.385L121.263 99.7549V106.472L123.865 104.939V89.7969L121.263 91.3291ZM201.834 104.881L204.417 106.393V99.6953L207.9 101.738V99.4795L204.417 97.417V93.5283L209.054 96.2783V94.0195L201.834 89.7383V104.881ZM98.2726 96.7295C98.1944 98.4971 98.1749 100.167 98.2336 101.777L162.957 63.6553L227.818 101.797C227.876 100.186 227.876 98.5166 227.798 96.749H227.818L162.977 58.627L98.2726 96.7295ZM135.35 86.6543C135.35 84.5137 134.098 83.5322 131.378 85.123C128.659 86.7336 127.406 89.2275 127.406 91.3486V99.1455C127.406 101.286 128.658 102.288 131.378 100.678C134.098 99.0673 135.35 96.5929 135.35 94.4521V86.6543ZM191.073 98.498L193.675 100.05V93.3125L197.139 95.375V93.1162L193.675 91.0537V87.1455L198.313 89.915V87.6367L191.073 83.3555V98.498ZM146.894 80.585C146.894 77.3642 145.407 77.0111 142.511 78.7197H142.53L138.892 80.8799V96.0225L141.474 94.4912V88.2842H141.493C141.963 88.0092 142.511 87.6555 142.824 87.4395L144.663 92.625L147.285 91.0537L145.094 85.4756C145.974 84.5525 146.894 83.0202 146.894 80.585ZM184.186 94.4326L186.769 95.9443V80.8213L184.186 79.2891V94.4326ZM174.129 88.4609L180.781 92.3896V90.1309L176.712 87.7148V74.8311L174.129 73.3184V88.4609ZM156.011 70.7461V79.4072L155.972 79.4268L152.822 72.6309L150.415 74.0645V89.208L152.763 87.8135H152.743V78.3662L152.803 78.3271L156.11 85.8301L158.36 84.4941V69.3516L156.011 70.7461ZM167.301 68.5459C164.581 66.9355 162.312 67.8585 162.312 69.999V77.8164C162.312 79.9572 162.782 82.4911 165.501 84.1016C168.103 85.6332 170.118 84.592 170.118 82.4316V80.6836L167.516 79.1523V80.959C167.516 81.9409 167.203 82.3137 166.264 81.7441C165.207 81.1157 164.875 80.3891 164.875 79.25V71.5703C164.875 70.4315 165.207 70.0981 166.264 70.7266C166.929 71.1194 167.516 72.0224 167.516 73.2988V74.4775L170.118 76.0098H170.138V74.9092C170.138 72.6506 169.903 70.0974 167.301 68.5459ZM149.124 53.501L145.465 57.1738L146.522 58.3135L150.181 54.6602L154.583 49.1211L149.124 53.501ZM175.381 54.6396L179.04 58.3125L180.194 57.252L176.535 53.5791L171.038 49.1602L175.381 54.6396ZM160.902 39.1445H155.033V43.1904H160.902V55.3086H165.188V43.1904H171.037V39.1445H165.188V33.1543H160.902V39.1445ZM189.977 36.2764C187.12 36.2766 185.595 38.201 185.595 40.5576V49.1602C185.595 51.5169 186.983 53.4217 189.977 53.4219V53.3828C192.97 53.3828 194.223 51.478 194.223 49.1211V47.2158H191.366V49.2393C191.366 50.3193 191.033 50.9277 189.977 50.9277C188.823 50.9276 188.451 50.3191 188.451 49.082V40.6172C188.451 39.38 188.823 38.7707 189.977 38.7705C190.72 38.7705 191.366 39.3798 191.366 40.7939V42.0898H194.223V40.8525C194.223 38.3582 192.833 36.2764 189.977 36.2764ZM136.622 36.2373C133.824 36.2373 132.2 37.7303 132.2 40.4014C132.201 45.1934 137.991 46.0774 137.991 49.377C137.991 50.3785 137.326 50.9092 136.328 50.9092L136.309 50.8887C135.389 50.8887 134.704 50.0445 134.607 48.3555L131.887 48.748C132.004 51.2424 133.511 53.3838 136.172 53.3838C138.833 53.3837 140.692 51.8512 140.692 49.1016C140.691 44.5651 134.9 43.2098 134.9 40.3623C134.9 39.3214 135.389 38.7315 136.328 38.7314C136.974 38.7314 137.737 39.164 137.855 40.5781L140.574 40.2832C140.3 37.9265 138.931 36.2375 136.622 36.2373ZM175.46 27.124L171.077 32.6426L176.516 28.2822L180.175 24.6094L179.118 23.4512L175.46 27.124ZM145.465 24.5322L149.105 28.2041L154.622 32.6035L150.259 27.1436L146.6 23.4707L145.465 24.5322ZM158.927 28.833H161.803V21.998H163.035C166.557 21.998 168.2 20.6428 168.2 17.0684C168.2 13.4938 166.577 12.1387 163.035 12.1387H158.927V28.833Z" fill="#D7D7D7"/>
<path d="M145.912 150.71C146.546 150.919 147.121 151.152 147.636 151.409C148.355 151.765 149.281 152.616 150.021 153.721C149.26 152.612 148.307 151.754 147.578 151.389C147.08 151.14 146.523 150.914 145.912 150.71Z" fill="#D7D7D7"/>
<path d="M98.5851 136.207C102.42 136.325 105.512 137.896 106.177 140.194C106.275 140.548 106.333 140.744 106.333 141.078V141.156C106.333 143.061 106.314 146.165 106.314 148.895C106.503 148.906 106.694 148.916 106.888 148.927C104.323 148.797 102.23 148.568 100.699 148.364C96.9428 147.854 91.1711 145.772 91.1711 142.551V142.492C91.3667 140.312 93.8511 138.74 97.5295 138.524C97.8816 138.505 98.234 138.505 98.5666 138.524C101.521 138.603 103.574 139.762 103.771 140.861V140.999C103.79 141.137 103.771 141.137 103.79 141.294C103.712 142.178 103.34 143.356 101.286 143.827C99.7406 144.181 98.0773 143.867 97.5099 143.611C96.9464 143.358 96.2479 142.736 96.2384 142.728C96.2384 142.728 95.7488 143.867 97.1183 144.771C98.1357 145.438 100.425 145.791 102.714 145.398C104.827 144.731 106.315 143.376 106.236 141.078C106.236 140.744 106.177 140.548 106.079 140.194C105.414 137.898 102.326 136.326 98.4943 136.207C98.5246 136.207 98.5549 136.207 98.5851 136.207Z" fill="#D7D7D7"/>
<path d="M227.778 136.207C226.58 136.238 225.454 136.414 224.452 136.712C224.252 136.772 224.056 136.836 223.866 136.905C221.966 137.597 220.602 138.758 220.187 140.194C220.089 140.548 220.05 140.725 220.03 141.078C219.972 143.376 221.439 144.711 223.552 145.398C225.841 145.791 228.13 145.438 229.148 144.771C230.517 143.867 230.028 142.728 230.028 142.728C230.028 142.728 229.323 143.356 228.756 143.611C228.188 143.867 226.526 144.161 224.981 143.827C222.926 143.375 222.554 142.197 222.476 141.294V140.861C222.711 139.762 224.746 138.603 227.7 138.524H228.736C232.3 138.734 234.743 140.215 235.07 142.289L235.096 142.492V142.551C235.096 145.772 229.324 147.854 225.568 148.364C224.172 148.55 222.309 148.758 220.048 148.893C220.028 146.124 220.029 143.022 220.029 141.156L220.03 141.078C220.05 140.725 220.089 140.548 220.187 140.194C220.852 137.896 223.944 136.305 227.778 136.207Z" fill="#D7D7D7"/>
<path d="M90.8185 25.5137C97.0208 33.2716 100.444 43.0916 100.444 53.1475L100.443 53.1455C100.442 43.0904 97.0204 33.2711 90.8185 25.5137Z" fill="#D7D7D7"/>
<path d="M159.846 1.78809C149.887 7.36579 145.348 9.91895 134.117 9.91895L134.116 9.91797C145.347 9.91797 149.887 7.3658 159.846 1.78809Z" fill="#D7D7D7"/>
<path d="M213.065 3.88965C207.665 8.07286 201.11 9.91895 191.875 9.91895L191.874 9.91797C201.109 9.91797 207.665 8.07287 213.065 3.88965Z" fill="#D7D7D7"/>
<path d="M13.186 221.549C3.96653 220.62 0.178672 218.44 0.178672 214.045C0.178672 209.257 4.85989 206.684 13.4719 206.684C22.6914 206.684 27.6942 209.685 27.6942 215.51H22.1196C22.1196 212.616 19.0822 211.043 13.5076 211.043C8.61201 211.043 5.71752 212.151 5.71752 214.045C5.71752 215.76 7.96879 216.546 14.7941 217.225C24.3352 218.226 28.3017 220.477 28.3017 225.051C28.3017 229.875 23.5133 232.484 14.6511 232.484C5.14576 232.484 0 229.482 0 223.658H5.50311C5.50311 226.516 8.75495 228.124 14.6511 228.124C19.7254 228.124 22.7629 226.981 22.7629 224.98C22.7629 223.121 20.4759 222.264 13.186 221.549Z" fill="#D7D7D7"/>
<path d="M43.3999 232.091V211.722H30.9643V207.077H61.3743V211.722H48.9387V232.091H43.3999Z" fill="#D7D7D7"/>
<path d="M92.1459 223.765H82.7835V232.091H77.2446V207.077H92.1102C101.83 207.077 105.796 209.614 105.796 215.439C105.796 221.192 101.758 223.765 92.1459 223.765ZM82.7835 219.262H92.1102C98.0778 219.262 100.186 218.226 100.186 215.51C100.186 212.759 98.0421 211.722 92.1102 211.722H82.7835V219.262Z" fill="#D7D7D7"/>
<path d="M116.853 207.077H123.607L136.292 232.091H130.146L127.859 227.517L112.565 227.553L110.314 232.091H104.167L116.853 207.077ZM114.494 223.55L125.965 223.515L120.248 211.972L114.494 223.55Z" fill="#D7D7D7"/>
<path d="M145.439 232.091V211.722H133.003V207.077H163.413V211.722H150.977V232.091H145.439Z" fill="#D7D7D7"/>
<path d="M167.174 232.091V207.077H181.504C191.581 207.077 195.476 209.149 195.476 214.116C195.476 217.333 193.832 219.369 190.116 220.477C193.546 221.406 195.047 223.086 195.154 225.694L195.333 230.197C195.369 230.912 195.512 231.412 195.905 232.091H190.294C189.973 231.483 189.83 230.983 189.794 230.34L189.615 225.802C189.544 223.765 187.328 222.943 181.575 222.943H172.713V232.091H167.174ZM172.713 218.655H181.504C187.793 218.655 190.116 217.583 190.116 215.081C190.116 212.508 187.9 211.579 181.504 211.579H172.713V218.655Z" fill="#D7D7D7"/>
<path d="M200.466 232.091V207.077H206.005V232.091H200.466Z" fill="#D7D7D7"/>
<path d="M227.11 232.484C216.425 232.484 210.601 227.874 210.601 219.512C210.601 211.258 216.39 206.684 227.039 206.684C236.758 206.684 242.047 210.614 242.047 217.726H236.472C236.472 213.688 233.113 211.401 227.039 211.401C220.07 211.401 216.175 214.331 216.175 219.512C216.175 224.73 220.07 227.767 227.074 227.767C233.113 227.767 236.472 225.516 236.472 221.442H242.047C242.047 228.589 236.794 232.484 227.11 232.484Z" fill="#D7D7D7"/>
<path d="M246.704 232.091V207.077H252.243V217.047H257.246L266.93 207.077H274.649L262.034 219.405L275.006 232.091H267.287L257.103 221.621H252.243V232.091H246.704Z" fill="#D7D7D7"/>
<path d="M277.393 216.439L278.037 207.077H282.503L280.86 216.439H277.393Z" fill="#D7D7D7"/>
<path d="M299.085 221.549C289.866 220.62 286.078 218.44 286.078 214.045C286.078 209.257 290.759 206.684 299.371 206.684C308.59 206.684 313.593 209.685 313.593 215.51H308.019C308.019 212.616 304.981 211.043 299.407 211.043C294.511 211.043 291.617 212.151 291.617 214.045C291.617 215.76 293.868 216.546 300.693 217.225C310.234 218.226 314.201 220.477 314.201 225.051C314.201 229.875 309.412 232.484 300.55 232.484C291.045 232.484 285.899 229.482 285.899 223.658H291.402C291.402 226.516 294.654 228.124 300.55 228.124C305.624 228.124 308.662 226.981 308.662 224.98C308.662 223.121 306.375 222.264 299.085 221.549Z" fill="#D7D7D7"/>
<path d="M68.7535 270.484C58.0688 270.484 52.2441 265.874 52.2441 257.512C52.2441 249.258 58.0331 244.684 68.682 244.684C78.4018 244.684 83.6905 248.614 83.6905 255.726H78.1159C78.1159 251.688 74.7569 249.401 68.682 249.401C61.7138 249.401 57.8187 252.331 57.8187 257.512C57.8187 262.73 61.7138 265.767 68.7177 265.767C74.7568 265.767 78.1159 263.516 78.1159 259.442H83.6905C83.6905 266.589 78.4375 270.484 68.7535 270.484Z" fill="#D7D7D7"/>
<path d="M87.4901 257.584C87.4901 249.258 93.3148 244.684 103.999 244.684C114.648 244.684 120.402 249.258 120.402 257.584C120.402 265.874 114.577 270.484 103.999 270.484C93.3862 270.484 87.4901 265.874 87.4901 257.584ZM93.0646 257.584C93.0646 262.765 97.0312 265.767 104.035 265.767C110.968 265.767 114.791 262.765 114.791 257.584C114.791 252.367 110.968 249.401 104.035 249.401C97.0312 249.401 93.0646 252.367 93.0646 257.584Z" fill="#D7D7D7"/>
<path d="M125.024 270.091V245.077H130.563V265.41H150.003V270.091H125.024Z" fill="#D7D7D7"/>
<path d="M153.71 270.091V245.077H159.249V265.41H178.688V270.091H153.71Z" fill="#D7D7D7"/>
<path d="M182.395 270.091V245.077H208.231V249.615H187.934V255.368H206.802V259.406H187.934V265.553H208.231V270.091H182.395Z" fill="#D7D7D7"/>
<path d="M238.045 270.091V265.874C235.901 268.876 231.898 270.484 226.217 270.484C216.354 270.484 210.851 265.731 210.851 257.655C210.851 249.258 216.818 244.684 227.932 244.684C237.687 244.684 243.155 248.15 243.155 254.475H237.544C237.544 251.116 234.042 249.186 227.932 249.186C220.499 249.186 216.425 252.224 216.425 257.548C216.425 262.873 220.392 265.981 227.574 265.981C233.435 265.981 236.901 263.873 237.223 260.121H226.217V256.297H243.155V270.091H238.045Z" fill="#D7D7D7"/>
<path d="M248.385 270.091V245.077H274.221V249.615H253.924V255.368H272.792V259.406H253.924V265.553H274.221V270.091H248.385Z" fill="#D7D7D7"/>
</svg>
