<svg width="210" height="88" viewBox="0 0 210 88" fill="none" xmlns="http://www.w3.org/2000/svg">
<path d="M24.3505 58.2698C24.3505 58.2698 16.8179 57.1839 12.4775 57.1839C8.13714 57.1839 5.15367 58.2698 5.15367 62.2864C5.15367 65.4832 6.71499 66.4383 13.43 67.4588C22.3847 68.8893 25.6422 70.7253 25.6422 77.3238C25.6422 85.283 20.6234 87.9346 12.4166 87.9346C8.07191 87.9346 0.47405 86.6437 0.47405 86.6437L0.743694 82.2214C0.743694 82.2214 8.47637 83.3771 11.9382 83.3771C17.5007 83.3771 20.4842 82.1516 20.4842 77.5244C20.4842 73.9875 18.7185 73.172 11.9382 72.0817C3.66193 70.7864 0 69.1553 0 62.4914C0 55.0076 6.03653 52.5566 12.2079 52.5566C17.2963 52.5566 24.4897 53.8519 24.4897 53.8519L24.3549 58.2742L24.3505 58.2698Z" fill="#D7D7D7"/>
<path d="M37.1021 57.8642V73.7128C37.1021 81.1311 37.5109 83.1678 41.9861 83.1678C43.8866 83.1678 48.0226 82.8276 48.0226 82.8276L48.2923 87.2499C48.2923 87.2499 43.8171 88 41.4424 88C34.4535 88 32.0136 85.3484 32.0136 75.5532V57.8642H27.1948V53.2414H32.0136V42.8312H37.1021V53.2414H47.8226V57.8642H37.1021Z" fill="#D7D7D7"/>
<path d="M60.2349 71.2661C56.0989 71.6761 54.4027 73.6473 54.4027 77.3892C54.4027 81.3361 56.1641 83.6475 59.626 83.6475C64.3056 83.6475 70.2769 81.5411 70.2769 81.5411V70.3154L60.2349 71.2661ZM70.777 87.2978C70.777 87.2978 70.8858 85.2699 70.6379 85.3702C69.207 85.9546 64.0099 87.9302 58.8084 87.9302C52.5674 87.9302 49.2447 84.3933 49.2447 77.5201C49.2447 70.6468 52.637 68.1304 59.626 67.4501L70.2769 66.4296V63.6384C70.2769 59.081 68.1719 57.1751 64.1055 57.1751C59.3563 57.1751 51.3497 58.0605 51.3497 58.0605L51.1453 54.118C51.1453 54.118 59.0823 52.5523 64.5796 52.5523C71.773 52.5523 75.3001 56.0892 75.3001 63.6428V87.5726L70.7814 87.2978H70.777Z" fill="#D7D7D7"/>
<path d="M80.7669 87.2499V53.237H85.8553V55.6836C85.8553 55.6836 91.283 52.5523 96.3714 52.5523C105.665 52.5523 107.77 57.1795 107.77 69.5609V87.2455H102.752V69.4911C102.752 60.4417 101.734 57.1097 95.4233 57.1097C90.5393 57.1097 85.8597 59.6959 85.8597 59.6959V87.2455H80.7712L80.7669 87.2499Z" fill="#D7D7D7"/>
<path d="M116.312 53.237L123.097 82.627H124.184L132.325 53.9173H137.683L145.755 82.627H146.843L153.692 53.237H158.781L150.709 87.2499H142.093L134.97 60.651L127.711 87.2499H119.23L111.228 53.237H116.312Z" fill="#D7D7D7"/>
<path d="M182.796 68.2744C182.796 60.1102 180.152 57.1184 174.251 57.1184C168.349 57.1184 165.161 60.3152 165.161 68.2744H182.801H182.796ZM186.528 82.6924L186.663 86.8399C186.663 86.8399 178.995 87.9302 173.502 87.9302C163.326 87.9302 160.003 82.0121 160.003 70.4462C160.003 57.5197 165.635 52.5566 174.251 52.5566C182.866 52.5566 187.885 57.3191 187.885 68.475L187.611 72.4175H165.157C165.226 79.5611 167.396 83.303 174.111 83.303C179.2 83.303 186.524 82.6924 186.524 82.6924" fill="#D7D7D7"/>
<path d="M197.653 38.409H192.634V87.2542H197.653V38.409Z" fill="#D7D7D7"/>
<path d="M210 38.409H204.981V87.2542H210V38.409Z" fill="#D7D7D7"/>
<path d="M92.1832 26.9608C93.5706 26.3721 95.0145 25.5522 96.5236 24.4706L102.952 16.1887C101.599 11.7098 98.9026 7.81524 95.345 4.96739C90.2349 7.16107 83.8678 10.9466 78.3836 15.19C83.5721 19.621 88.1734 23.546 92.1832 26.9652" fill="#D7D7D7"/>
<path d="M75.8394 35.8359C69.8246 35.5698 66.2583 34.0216 65.232 31.2261C63.9794 27.7982 66.9107 23.4719 70.3073 19.8957C68.1371 16.1407 67.4326 12.3989 68.9113 10.8681C69.8246 9.9217 71.7208 9.48994 75.5654 12.7783C76.0307 13.1751 76.4874 13.5676 76.944 13.9558C82.1412 9.88245 88.2952 6.08821 93.6097 3.70701C90.0391 1.36505 85.777 0 81.1931 0C68.6416 0 58.4648 10.2052 58.4648 22.7916C58.4648 35.3779 68.0893 45.0162 80.1667 45.5526L88.6344 34.6322C84.7811 35.5524 80.5016 36.0365 75.835 35.8359" fill="#D7D7D7"/>
<path d="M73.2299 23.9037C72.5341 23.1361 71.9035 22.3293 71.3337 21.5094C67.7979 25.321 66.2236 28.5527 66.9672 30.5937C67.6979 32.5955 70.7944 33.7687 75.922 33.9954C81.2931 34.2309 86.2337 33.4634 90.5784 32.1419L92.5007 29.6604C92.2746 29.4642 92.0571 29.281 91.8266 29.0847C82.2021 32.5388 75.3871 26.2979 73.2299 23.908" fill="#D7D7D7"/>
<path d="M72.6428 20.1574C73.1995 20.9947 73.8475 21.8365 74.5955 22.6607C76.944 25.26 82.4326 29.9177 90.1783 27.6761C86.2902 24.3616 81.8629 20.5848 76.9093 16.3544C75.8046 17.2528 74.7521 18.1643 73.7605 19.0845C73.3734 19.4465 72.9994 19.8041 72.6428 20.1574Z" fill="#D7D7D7"/>
<path d="M72.508 17.7282C73.4387 16.8647 74.439 15.9925 75.4828 15.1333C75.1174 14.8193 74.7478 14.5053 74.3737 14.1869C72.4775 12.5646 71.2293 12.0369 70.6118 12.0369C70.4335 12.0369 70.3073 12.0805 70.2378 12.1546C69.6071 12.8088 70.0029 15.4648 71.6643 18.5307C71.9469 18.2559 72.2296 17.9899 72.508 17.7282Z" fill="#D7D7D7"/>
</svg>
