<svg width="383" height="66" viewBox="0 0 383 66" fill="none" xmlns="http://www.w3.org/2000/svg">
<path d="M0.179177 19.9249H5.66712C5.66712 22.7203 7.28996 25.6503 16.3307 25.6503C25.3715 25.6503 27.2145 23.4761 27.2145 20.9447C27.2145 19.4797 26.334 18.5479 24.5371 18.0613C22.474 17.5747 17.7334 17.4401 14.3547 17.2641C10.5817 17.0415 5.92821 16.6429 3.51188 15.4885C1.36175 14.4687 0 12.336 0 9.58715C0.00511935 4.34839 5.09376 0 16.1976 0C29.4516 0 31.9089 4.84017 31.9089 10.0738H26.421C26.421 6.74517 23.9176 4.61239 16.1925 4.61239C9.12781 4.61239 6.01012 6.38798 6.01012 9.14196C6.01012 10.607 6.7985 11.4042 8.24728 11.9374C10.0493 12.5586 14.9178 12.7346 18.1686 12.9157C22.2487 13.1383 26.421 13.4023 29.0114 14.3341C31.7297 15.4005 33.2707 17.7093 33.2707 20.5047C33.2707 24.9411 30.7673 30.2679 16.3307 30.2679C1.89416 30.2679 0.179177 23.7867 0.179177 19.9249Z" fill="#D7D7D7"/>
<path d="M54.7315 5.36808H42.2656V0.53309H73.2533V5.36808H60.7877V29.7346H54.7315V5.36808Z" fill="#D7D7D7"/>
<path d="M112.18 15.0019C112.18 9.36456 108.054 4.84017 99.8018 4.84017C91.5494 4.84017 87.4232 9.36456 87.4232 15.0019C87.4232 21.2605 91.5033 25.4329 99.8018 25.4329C108.1 25.4329 112.18 20.9499 112.18 15.0019ZM81.1929 15.0019C81.1929 6.75035 87.2491 0 99.8018 0C112.354 0 118.411 6.74517 118.411 15.0019C118.411 23.2587 112.749 30.2679 99.8018 30.2679C86.8549 30.2679 81.1929 23.9213 81.1929 15.0019Z" fill="#D7D7D7"/>
<path d="M129.208 15.2245C129.208 6.83318 135.264 0 146.895 0C159.274 0 163.441 6.87977 163.441 11.6268V12.2014H157.953V12.0254C157.953 8.96596 154.968 4.83499 147.197 4.83499C139.426 4.83499 135.433 9.22997 135.433 15.2193C135.433 20.4581 138.812 25.4277 147.284 25.4277C154.569 25.4277 158.127 22.0525 158.127 18.3719V18.1079H163.615V18.5945C163.615 24.0973 158.874 30.2679 147.156 30.2679C133.815 30.2679 129.203 22.5909 129.203 15.2245" fill="#D7D7D7"/>
<path d="M175.461 0.53309H181.517V17.2174H181.604L203.725 0.53309H211.89L193.808 13.9354L212.898 29.7346H203.904L189.242 17.528L181.517 23.212V29.7346H175.461V0.53309Z" fill="#D7D7D7"/>
<path d="M232.076 17.7506L215.663 0.53309H223.915L235.5 12.8276H235.634L247.132 0.53309H254.55L238.132 17.7506V29.7346H232.076V17.7506Z" fill="#D7D7D7"/>
<path d="M282.46 19.2156L274.781 5.45609H274.735L267.056 19.2156H282.46ZM284.697 23.2534H264.814L261.215 29.7346H254.852L271.576 0.53309H278.641L295.361 29.7346H288.296L284.697 23.2534Z" fill="#D7D7D7"/>
<path d="M325.381 14.422C330.168 14.422 332.272 12.605 332.272 9.89765C332.272 7.19026 330.076 5.36808 324.153 5.36808H312.522V14.422H325.381ZM306.465 0.53309H324.634C334.243 0.53309 337.934 3.86167 337.934 9.05386C337.934 12.2479 336.265 15.0018 332.538 15.9802V16.0682C336.664 16.9534 337.76 19.8834 337.76 23.5226V29.7346H331.745V23.5226C331.745 20.106 330.122 18.465 325.95 18.465H312.522V29.7397H306.465V0.53309Z" fill="#D7D7D7"/>
<path d="M365.932 24.8944C373.611 24.8944 376.683 21.5658 376.683 15.1312C376.683 9.71647 373.959 5.36808 365.097 5.36808H356.758V24.8944H365.932ZM350.702 0.53309H364.877C378.485 0.53309 382.698 7.27827 382.698 15.1364C382.698 24.413 378.09 29.7397 366.106 29.7397H350.702V0.53309Z" fill="#D7D7D7"/>
<path d="M43.5455 63.8799V52.0978H51.1528V53.832H45.6752V57.0622H50.6512V58.7447H45.6752V62.1457H51.1528V63.8799H43.5455Z" fill="#D7D7D7"/>
<path d="M59.1434 64.0817C58.2884 64.0817 57.5359 63.9316 56.8806 63.6366C56.2253 63.3415 55.7083 62.9118 55.3346 62.3579C54.9609 61.804 54.7612 61.1259 54.751 60.3287H56.9984C57.0188 60.8774 57.2185 61.3433 57.5871 61.716C57.9608 62.0887 58.4727 62.2803 59.128 62.2803C59.6963 62.2803 60.1416 62.1405 60.4744 61.8661C60.8072 61.5918 60.971 61.2242 60.971 60.7635C60.971 60.2821 60.8225 59.9042 60.5307 59.635C60.2389 59.3658 59.8447 59.1484 59.3584 58.9776C58.872 58.8119 58.3499 58.6307 57.7919 58.4392C56.8909 58.1234 56.2049 57.7196 55.7339 57.2279C55.2629 56.7361 55.0274 56.0786 55.0274 55.2607C55.0172 54.5671 55.181 53.9666 55.5189 53.4696C55.8567 52.9727 56.3226 52.5844 56.9113 52.31C57.5001 52.0357 58.1758 51.8959 58.9437 51.8959C59.7116 51.8959 60.4027 52.0357 61.0017 52.3152C61.5955 52.5948 62.0614 52.9882 62.3993 53.4903C62.7372 53.9976 62.9163 54.5981 62.9419 55.2918H60.6587C60.6485 54.8777 60.4898 54.5101 60.1826 54.1892C59.8754 53.8682 59.4505 53.7077 58.9079 53.7077C58.442 53.6974 58.053 53.8113 57.7356 54.0546C57.4182 54.2979 57.2595 54.6447 57.2595 55.1054C57.2595 55.4989 57.3823 55.8095 57.628 56.0424C57.8738 56.2702 58.2065 56.4669 58.6263 56.6222C59.0461 56.7775 59.5324 56.9483 60.0751 57.1295C60.6536 57.3314 61.1809 57.5695 61.657 57.8387C62.1331 58.1079 62.517 58.4651 62.8037 58.9051C63.0904 59.3503 63.2388 59.9197 63.2388 60.6134C63.2388 61.2294 63.0853 61.804 62.773 62.332C62.4607 62.8601 62 63.2845 61.3908 63.6003C60.7816 63.9213 60.029 64.0817 59.1434 64.0817Z" fill="#D7D7D7"/>
<path d="M69.6636 63.8799V53.832H66.2695V52.0978H75.2079V53.832H71.7933V63.8799H69.6636Z" fill="#D7D7D7"/>
<path d="M80.5684 59.4694H83.9472L82.2475 54.5723L80.5684 59.4694ZM76.8057 63.8799L81.065 52.0978H83.4608L87.7201 63.8799H85.4574L84.5256 61.1518H79.9797L79.0326 63.8799H76.8005H76.8057Z" fill="#D7D7D7"/>
<path d="M93.3509 62.1302H95.7314C96.3662 62.1302 96.8525 61.9801 97.2058 61.685C97.5539 61.3899 97.7279 60.9706 97.7279 60.4322C97.7279 59.8939 97.5436 59.4487 97.1802 59.1329C96.8116 58.8171 96.3201 58.6618 95.7007 58.6618H93.356V62.1302H93.3509ZM93.3509 57.0467H95.5829C96.1819 57.0467 96.6426 56.9069 96.9651 56.6274C97.2877 56.3479 97.4464 55.9493 97.4464 55.4316C97.4464 54.9139 97.2877 54.5464 96.9703 54.2617C96.6529 53.977 96.1819 53.832 95.5471 53.832H93.3509V57.0467ZM91.2212 63.8799V52.0978H95.9003C97.1085 52.0978 98.0351 52.3826 98.6699 52.9468C99.3098 53.5162 99.6272 54.241 99.6272 55.1262C99.6272 55.8664 99.4276 56.4618 99.0385 56.9018C98.6494 57.3418 98.1631 57.6472 97.5999 57.8025C98.2655 57.9371 98.8132 58.2684 99.2484 58.8016C99.6835 59.3348 99.8985 59.956 99.8985 60.66C99.8985 61.5918 99.5658 62.358 98.9003 62.9636C98.2347 63.5693 97.2928 63.8747 96.0693 63.8747H91.2264L91.2212 63.8799Z" fill="#D7D7D7"/>
<path d="M103.723 63.8799V52.0978H105.852V62.1975H111.013V63.8799H103.723Z" fill="#D7D7D7"/>
<path d="M117.023 52.0978H114.894V63.8799H117.023V52.0978Z" fill="#D7D7D7"/>
<path d="M125.265 64.0817C124.41 64.0817 123.657 63.9316 123.002 63.6366C122.347 63.3415 121.83 62.9118 121.456 62.3579C121.082 61.804 120.883 61.1259 120.872 60.3287H123.12C123.14 60.8774 123.34 61.3433 123.709 61.716C124.082 62.0887 124.594 62.2803 125.25 62.2803C125.818 62.2803 126.263 62.1405 126.601 61.8661C126.934 61.5918 127.098 61.2242 127.098 60.7635C127.098 60.2821 126.949 59.9042 126.657 59.635C126.366 59.3658 125.971 59.1484 125.485 58.9776C124.999 58.8119 124.477 58.6307 123.919 58.4392C123.018 58.1234 122.332 57.7196 121.861 57.2279C121.39 56.7361 121.154 56.0786 121.154 55.2607C121.144 54.5671 121.308 53.9666 121.646 53.4696C121.983 52.9727 122.449 52.5844 123.038 52.31C123.627 52.0357 124.302 51.8959 125.07 51.8959C125.838 51.8959 126.529 52.0357 127.128 52.3152C127.722 52.5948 128.188 52.9882 128.526 53.4903C128.864 53.9976 129.043 54.5981 129.069 55.2918H126.785C126.775 54.8777 126.616 54.5101 126.309 54.1892C126.002 53.8682 125.577 53.7077 125.035 53.7077C124.569 53.6974 124.174 53.8113 123.862 54.0546C123.545 54.2979 123.386 54.6447 123.386 55.1054C123.386 55.4989 123.509 55.8095 123.75 56.0424C123.995 56.2702 124.328 56.4669 124.748 56.6222C125.168 56.7775 125.654 56.9483 126.197 57.1295C126.775 57.3314 127.302 57.5695 127.779 57.8387C128.255 58.1079 128.639 58.4651 128.93 58.9051C129.217 59.3503 129.36 59.9197 129.36 60.6134C129.36 61.2294 129.207 61.804 128.895 62.332C128.582 62.8601 128.122 63.2845 127.512 63.6003C126.903 63.9213 126.151 64.0817 125.265 64.0817Z" fill="#D7D7D7"/>
<path d="M133.221 63.8799V52.0978H135.351V56.9949H140.577V52.0978H142.707V63.8799H140.577V58.7447H135.351V63.8799H133.221Z" fill="#D7D7D7"/>
<path d="M146.972 63.8799V52.0978H154.579V53.832H149.101V57.0622H154.077V58.7447H149.101V62.1457H154.579V63.8799H146.972Z" fill="#D7D7D7"/>
<path d="M160.722 62.0267H162.467C163.445 62.0267 164.213 61.8662 164.781 61.5452C165.349 61.2243 165.754 60.7635 166 60.1631C166.245 59.5626 166.363 58.8378 166.363 57.9837C166.363 57.1295 166.24 56.4203 166 55.8147C165.754 55.209 165.349 54.7431 164.781 54.417C164.213 54.0908 163.445 53.9304 162.467 53.9304H160.722V62.0267ZM158.587 52.0978H162.565C163.931 52.0978 165.053 52.3411 165.933 52.8329C166.814 53.3195 167.469 54.0028 167.899 54.8881C168.324 55.7681 168.539 56.8034 168.539 57.994C168.539 59.1847 168.324 60.22 167.899 61.1C167.474 61.9801 166.819 62.6634 165.933 63.1552C165.053 63.6418 163.926 63.8851 162.565 63.8851H158.587V52.0978Z" fill="#D7D7D7"/>
<path d="M179.648 63.8799V54.5567L177.734 55.0071V53.3609L180.544 52.0978H181.86V63.8799H179.648Z" fill="#D7D7D7"/>
<path d="M190.169 57.8853C190.579 57.8853 190.952 57.7921 191.285 57.6058C191.618 57.4194 191.879 57.1761 192.068 56.8655C192.258 56.5601 192.35 56.2132 192.35 55.8302C192.35 55.2245 192.14 54.7275 191.725 54.3341C191.311 53.9407 190.783 53.744 190.154 53.744C189.524 53.744 189.017 53.9355 188.608 54.3238C188.198 54.712 187.993 55.2038 187.993 55.7991C187.993 56.4307 188.198 56.9328 188.608 57.3159C189.017 57.6989 189.539 57.8905 190.174 57.8905M190.103 64.0817C189.294 64.0817 188.608 63.9213 188.055 63.6003C187.502 63.2794 187.067 62.8601 186.754 62.3476C186.442 61.8299 186.263 61.276 186.207 60.6807H188.188C188.275 61.1984 188.49 61.597 188.828 61.8765C189.166 62.156 189.596 62.2958 190.118 62.2958C190.86 62.2958 191.459 61.949 191.915 61.2605C192.37 60.572 192.611 59.5159 192.647 58.1027C192.381 58.5634 191.976 58.9465 191.439 59.2468C190.901 59.5522 190.307 59.7023 189.667 59.7023C189.027 59.7023 188.418 59.547 187.855 59.2312C187.287 58.9155 186.826 58.4754 186.473 57.9008C186.12 57.3262 185.941 56.6532 185.941 55.8819C185.941 55.1727 186.115 54.5205 186.458 53.9096C186.801 53.304 187.277 52.8174 187.891 52.4446C188.5 52.0719 189.217 51.8907 190.041 51.8907C190.917 51.8907 191.654 52.0512 192.253 52.3773C192.852 52.7035 193.333 53.1383 193.691 53.6922C194.05 54.2409 194.311 54.8518 194.474 55.5247C194.633 56.1977 194.715 56.8862 194.715 57.5954C194.715 58.9103 194.536 60.0491 194.172 61.0223C193.809 61.9904 193.287 62.7462 192.591 63.2794C191.899 63.8126 191.065 64.0766 190.103 64.0766" fill="#D7D7D7"/>
<path d="M202.854 64.0818C201.999 64.0818 201.262 63.9317 200.648 63.6262C200.034 63.3208 199.547 62.9067 199.199 62.3735C198.851 61.8403 198.646 61.2398 198.59 60.5617H200.668C200.771 61.0431 201.011 61.4469 201.4 61.7678C201.79 62.0888 202.271 62.2492 202.849 62.2492C203.469 62.2492 203.981 62.0215 204.375 61.5608C204.769 61.1 204.964 60.5254 204.964 59.8421C204.964 59.1588 204.764 58.5738 204.375 58.1597C203.981 57.7456 203.484 57.5385 202.885 57.5385C202.383 57.5385 201.953 57.6627 201.585 57.906C201.216 58.1545 200.955 58.4651 200.802 58.8327H198.754L199.752 52.0978H206.213V53.9821H201.354L200.822 56.7102C201.068 56.4411 201.4 56.2184 201.82 56.0476C202.24 55.8716 202.711 55.7888 203.233 55.7888C204.068 55.7888 204.759 55.9751 205.312 56.353C205.865 56.7309 206.289 57.2227 206.576 57.8336C206.863 58.4444 207.011 59.1122 207.011 59.8266C207.011 60.6445 206.837 61.3744 206.489 62.0163C206.141 62.653 205.65 63.1603 205.025 63.5331C204.4 63.9058 203.673 64.087 202.854 64.087" fill="#D7D7D7"/>
<path d="M215.105 56.9121C215.683 56.9121 216.139 56.762 216.472 56.4565C216.805 56.1511 216.973 55.768 216.973 55.2918C216.973 54.7741 216.81 54.3704 216.482 54.0805C216.154 53.7906 215.699 53.6404 215.11 53.6404C214.521 53.6404 214.05 53.7854 213.728 54.0805C213.405 54.3704 213.247 54.7741 213.247 55.2918C213.247 55.7732 213.41 56.1666 213.738 56.4617C214.066 56.7568 214.521 56.9069 215.11 56.9069M215.105 62.2803C215.817 62.2803 216.354 62.1043 216.718 61.7471C217.081 61.3951 217.265 60.9499 217.265 60.4063C217.265 59.811 217.076 59.3451 216.692 59.0086C216.308 58.6721 215.781 58.5013 215.1 58.5013C214.419 58.5013 213.887 58.6721 213.492 59.0086C213.098 59.3451 212.904 59.811 212.904 60.4063C212.904 60.9447 213.088 61.3899 213.462 61.7471C213.835 62.0991 214.378 62.2803 215.1 62.2803M215.105 64.0817C214.306 64.0817 213.584 63.9368 212.939 63.6521C212.294 63.3674 211.782 62.9584 211.399 62.4304C211.015 61.9024 210.825 61.2915 210.825 60.5979C210.825 59.9042 211.009 59.2519 211.383 58.7136C211.757 58.1752 212.248 57.7869 212.858 57.554C212.325 57.3159 211.905 56.9794 211.593 56.5342C211.281 56.089 211.127 55.592 211.127 55.0433C211.127 54.4946 211.276 53.9614 211.578 53.4851C211.875 53.0089 212.325 52.6258 212.919 52.3307C213.513 52.0357 214.245 51.8907 215.11 51.8907C215.975 51.8907 216.702 52.0357 217.291 52.3307C217.88 52.6206 218.325 53.0089 218.622 53.4851C218.919 53.9614 219.072 54.4791 219.072 55.0433C219.072 55.6076 218.914 56.0786 218.596 56.5342C218.279 56.9897 217.859 57.3262 217.337 57.554C217.956 57.7921 218.453 58.1752 218.816 58.7136C219.185 59.2519 219.364 59.8835 219.364 60.5979C219.364 61.3122 219.175 61.9024 218.796 62.4304C218.417 62.9584 217.905 63.3674 217.255 63.6521C216.605 63.9368 215.888 64.0817 215.1 64.0817" fill="#D7D7D7"/>
<path d="M223.511 61.6435L222.564 65.8314H223.961L225.574 61.6435H223.511Z" fill="#D7D7D7"/>
<path d="M238.275 59.4694H241.654L239.954 54.5723L238.275 59.4694ZM234.512 63.8799L238.772 52.0978H241.168L245.427 63.8799H243.164L242.232 61.1518H237.686L236.739 63.8799H234.507H234.512Z" fill="#D7D7D7"/>
<path d="M252.927 64.0818C252.072 64.0818 251.299 63.911 250.613 63.5693C249.927 63.2276 249.379 62.71 248.975 62.0111C248.57 61.3175 248.365 60.4322 248.365 59.371V52.0978H250.495V59.3866C250.495 60.308 250.715 60.9913 251.15 61.4417C251.591 61.8921 252.195 62.1147 252.973 62.1147C253.751 62.1147 254.345 61.8921 254.79 61.4417C255.236 60.9913 255.456 60.308 255.456 59.3866V52.0978H257.585V59.371C257.585 60.4374 257.375 61.3175 256.951 62.0111C256.531 62.7048 255.968 63.2276 255.261 63.5693C254.555 63.911 253.777 64.0818 252.922 64.0818" fill="#D7D7D7"/>
<path d="M265.746 64.0817C264.891 64.0817 264.138 63.9316 263.483 63.6366C262.828 63.3415 262.31 62.9118 261.937 62.3579C261.563 61.804 261.363 61.1259 261.353 60.3287H263.601C263.621 60.8774 263.821 61.3433 264.194 61.716C264.568 62.0887 265.08 62.2803 265.735 62.2803C266.303 62.2803 266.748 62.1405 267.087 61.8661C267.42 61.5918 267.583 61.2242 267.583 60.7635C267.583 60.2821 267.435 59.9042 267.143 59.635C266.846 59.3658 266.457 59.1484 265.971 58.9776C265.484 58.8119 264.962 58.6307 264.404 58.4392C263.503 58.1234 262.817 57.7196 262.346 57.2279C261.875 56.7361 261.639 56.0786 261.639 55.2607C261.63 54.5671 261.793 53.9666 262.131 53.4696C262.469 52.9727 262.935 52.5844 263.523 52.31C264.112 52.0357 264.788 51.8959 265.556 51.8959C266.324 51.8959 267.02 52.0357 267.614 52.3152C268.207 52.5948 268.673 52.9882 269.011 53.4903C269.349 53.9976 269.528 54.5981 269.554 55.2918H267.271C267.26 54.8777 267.102 54.5101 266.795 54.1892C266.487 53.8682 266.062 53.7077 265.52 53.7077C265.054 53.6974 264.665 53.8113 264.347 54.0546C264.03 54.2979 263.871 54.6447 263.871 55.1054C263.871 55.4989 263.994 55.8095 264.24 56.0424C264.486 56.2702 264.818 56.4669 265.238 56.6222C265.658 56.7775 266.144 56.9483 266.687 57.1295C267.266 57.3314 267.793 57.5695 268.269 57.8387C268.746 58.1079 269.129 58.4651 269.416 58.9051C269.703 59.3503 269.851 59.9197 269.851 60.6134C269.851 61.2294 269.697 61.804 269.385 62.332C269.073 62.8601 268.612 63.2845 268.003 63.6003C267.393 63.9213 266.641 64.0817 265.755 64.0817" fill="#D7D7D7"/>
<path d="M276.266 63.8799V53.832H272.867V52.0978H281.81V53.832H278.395V63.8799H276.266Z" fill="#D7D7D7"/>
<path d="M287.519 57.6524H289.531C290.242 57.6524 290.764 57.4764 291.097 57.1295C291.43 56.7827 291.599 56.322 291.599 55.7474C291.599 55.1728 291.435 54.7379 291.107 54.4014C290.78 54.065 290.252 53.8993 289.52 53.8993H287.524V57.6524H287.519ZM285.389 63.8799V52.0978H289.669C290.601 52.0978 291.368 52.2583 291.973 52.5793C292.577 52.9002 293.032 53.3299 293.329 53.8734C293.631 54.417 293.78 55.0226 293.78 55.6801C293.78 56.3996 293.595 57.0571 293.222 57.6524C292.848 58.2477 292.269 58.6774 291.481 58.9465L293.892 63.8799H291.445L289.28 59.2313H287.514V63.8799H285.384H285.389Z" fill="#D7D7D7"/>
<path d="M300.767 59.4694H304.146L302.446 54.5723L300.767 59.4694ZM297.004 63.8799L301.264 52.0978H303.659L307.919 63.8799H305.656L304.724 61.1518H300.178L299.231 63.8799H296.999H297.004Z" fill="#D7D7D7"/>
<path d="M311.42 63.8799V52.0978H313.555V62.1975H318.716V63.8799H311.42Z" fill="#D7D7D7"/>
<path d="M324.721 52.0978H322.591V63.8799H324.721V52.0978Z" fill="#D7D7D7"/>
<path d="M331.995 59.4694H335.374L333.674 54.5723L331.995 59.4694ZM328.232 63.8799L332.492 52.0978H334.888L339.152 63.8799H336.889L335.957 61.1518H331.412L330.464 63.8799H328.232Z" fill="#D7D7D7"/>
</svg>
