<svg width="468" height="94" viewBox="0 0 468 94" fill="none" xmlns="http://www.w3.org/2000/svg">
<path d="M17.9154 9.23176C16.8519 4.15429 14.0443 2.2715 10.6593 2.2715C7.27433 2.2715 4.80701 4.09356 4.80701 7.73768C4.80701 16.7265 19.7993 15.4207 19.7993 26.93C19.7993 32.876 15.837 37.3218 9.061 37.3218C6.07713 37.3218 4.25399 36.4412 2.09661 36.4412C1.64034 36.4161 1.18297 36.4633 0.74141 36.5809C0.74141 36.5809 0.790027 35.8581 0.790027 35.1354C0.790027 33.7445 0.607713 32.2444 0.607713 30.7928C0.578325 29.642 0.759563 28.4955 1.1425 27.4098H1.62259C1.63888 28.1082 1.70591 28.8044 1.82314 29.4931C2.43085 33.453 5.06833 35.9674 9.17647 35.9674C13.2846 35.9674 15.7398 33.5016 15.7398 29.6813C15.7398 20.3038 0.790027 21.1784 0.790027 10.4404C0.790027 4.93171 4.75839 0.965691 10.5621 0.965691C13.1266 0.965691 14.7674 1.73703 16.8519 1.73703C17.4286 1.75738 18.0034 1.66026 18.5413 1.45157C18.4441 2.66628 18.3955 4.15429 18.3955 5.65446C18.3955 6.43187 18.3955 7.82878 18.4441 9.23176H17.9154Z" fill="#D7D7D7"/>
<path d="M38.9544 33.7931C37.3075 36.016 34.9435 37.2247 31.6619 37.2247C27.888 37.2247 24.1141 35.6273 24.1141 29.1529V19.824C24.1141 16.5321 24.1141 15.8094 22.1815 15.4207V14.9348C24.3085 14.8923 26.9703 14.5036 28.6658 13.6351V28.2115C28.6658 33.6231 30.021 35.4998 33.4546 35.4998C34.5359 35.5574 35.6123 35.3179 36.5669 34.8071C37.5215 34.2964 38.3178 33.534 38.8693 32.6027C38.8207 32.0682 38.8207 31.5398 38.8207 31.0054V19.9151C38.8207 16.3864 38.8207 15.8094 37.034 15.4207V14.9348C39.1124 14.8923 41.677 14.5036 43.3664 13.6351V31.8557C43.3664 33.6413 43.6581 34.8499 44.8189 34.8499C45.1588 34.8204 45.4887 34.7197 45.7871 34.5544C46.0855 34.389 46.3457 34.1628 46.5508 33.8903L46.7939 34.3215C45.9674 35.6759 44.8067 37.2247 42.4852 37.2247C40.1638 37.2247 39.2947 35.7245 38.9544 33.7931Z" fill="#D7D7D7"/>
<path d="M72.1356 36.9331C71.0721 36.8906 69.571 36.836 67.7843 36.836C65.9977 36.836 64.4905 36.8906 63.427 36.9331V36.4412C64.8795 36.1496 65.5115 35.9067 65.5115 32.0379V21.6582C65.5115 16.6354 63.2812 15.1838 60.5282 15.1838C58.5599 15.2058 56.6672 15.9443 55.2047 17.261V32.05C55.2047 35.9188 55.8124 36.1618 57.2831 36.4533V36.9331C56.2196 36.8906 54.7185 36.836 52.9318 36.836C51.1451 36.836 49.6441 36.8906 48.5745 36.9331V36.4412C50.027 36.1496 50.659 35.9067 50.659 32.0379V18.9008C50.659 16.5321 50.6104 15.8094 49.1579 15.4207V14.9409C51.2498 14.9092 53.315 14.4654 55.2351 13.6351V16.0037C57.3203 14.4247 59.8754 13.5907 62.4912 13.6351C65.7363 13.6351 70.0876 14.6494 70.0876 21.5307V32.05C70.0876 35.9188 70.6953 36.1618 72.166 36.4533L72.1356 36.9331Z" fill="#D7D7D7"/>
<path d="M88.1184 19.6782C87.3952 16.6415 85.5053 14.6008 82.7037 14.6008C80.2364 14.6008 78.8326 16.1495 78.8326 18.1781C78.8326 23.7839 89.6195 22.4781 89.6195 30.2158C89.6195 34.8074 85.797 37.2247 81.6402 37.2247C79.653 37.2247 77.8177 36.6902 75.0101 36.2104C75.3018 34.613 75.1559 31.4244 75.6178 29.4931H76.1039C75.9581 32.9732 77.605 36.259 81.3303 36.259C83.7976 36.259 85.3898 34.8074 85.3898 32.293C85.3898 25.8186 74.9432 27.4341 74.9432 20.1155C74.9432 15.9066 78.3768 13.6351 82.6855 13.6351C84.6666 13.6351 86.6052 14.1149 88.6836 14.3092C88.5722 14.8976 88.5233 15.4962 88.5377 16.0949C88.5377 16.9209 88.5864 18.1295 88.635 19.6782H88.1184Z" fill="#D7D7D7"/>
<path d="M114.992 36.9331C113.922 36.8906 112.427 36.836 110.634 36.836C108.841 36.836 107.346 36.8906 106.283 36.9331V36.4412C107.735 36.1496 108.361 35.9067 108.361 32.0379V21.6582C108.361 16.6354 106.137 15.1838 103.378 15.1838C101.412 15.2061 99.521 15.9447 98.0606 17.261V32.05C98.0606 35.9188 98.6683 36.1618 100.139 36.4533V36.9331C99.0755 36.8906 97.5744 36.836 95.7817 36.836C93.9889 36.836 92.494 36.8906 91.4305 36.9331V36.4412C92.8829 36.1496 93.5088 35.9067 93.5088 32.0379V5.27182C93.5088 2.90315 93.4602 2.17432 92.0139 1.79169V1.30581C94.1046 1.26344 96.1676 0.820141 98.091 0V16.0037C100.155 14.4193 102.697 13.584 105.298 13.6351C108.538 13.6351 112.937 14.6494 112.937 21.5307V32.05C112.937 35.9188 113.545 36.1618 115.022 36.4533L114.992 36.9331Z" fill="#D7D7D7"/>
<path d="M126.015 36.9331C124.952 36.8845 123.451 36.836 121.658 36.836C119.865 36.836 118.37 36.8845 117.307 36.9331V36.4412C118.759 36.1496 119.385 35.9067 119.385 32.0379V18.998C119.385 16.6779 119.337 15.9066 117.884 15.5179V15.032C119.973 15.019 122.038 14.5938 123.961 13.7808V32.05C123.961 35.9188 124.569 36.1618 126.046 36.4533L126.015 36.9331ZM121.804 10.9324C121.502 10.938 121.201 10.8835 120.92 10.7719C120.639 10.6604 120.383 10.494 120.167 10.2826C119.951 10.0712 119.779 9.81893 119.662 9.5405C119.544 9.26207 119.483 8.96305 119.483 8.66085C119.483 8.03264 119.732 7.43016 120.177 6.98594C120.621 6.54173 121.224 6.29218 121.853 6.29218C122.481 6.29218 123.084 6.54173 123.528 6.98594C123.973 7.43016 124.223 8.03264 124.223 8.66085C124.219 8.97161 124.153 9.27842 124.027 9.56278C123.902 9.84714 123.72 10.1032 123.493 10.3154C123.265 10.5277 122.998 10.6918 122.705 10.7978C122.413 10.9038 122.102 10.9496 121.792 10.9324" fill="#D7D7D7"/>
<path d="M152.184 36.9331C151.114 36.8906 149.619 36.836 147.826 36.836C146.034 36.836 144.539 36.8906 143.475 36.9331V36.4412C144.927 36.1496 145.553 35.9067 145.553 32.0379V21.6582C145.553 16.6354 143.329 15.1838 140.57 15.1838C138.604 15.2061 136.713 15.9447 135.253 17.261V32.05C135.253 35.9188 135.86 36.1618 137.331 36.4533V36.9331C136.268 36.8906 134.767 36.836 132.98 36.836C131.193 36.836 129.686 36.8906 128.623 36.9331V36.4412C130.075 36.1496 130.701 35.9067 130.701 32.0379V18.9008C130.701 16.5321 130.658 15.8094 129.206 15.4207V14.9409C131.288 14.9052 133.342 14.4616 135.253 13.6351V16.0037C137.338 14.4247 139.893 13.5907 142.509 13.6351C145.748 13.6351 150.099 14.6494 150.099 21.5307V32.05C150.099 35.9188 150.707 36.1618 152.184 36.4533V36.9331Z" fill="#D7D7D7"/>
<path d="M173.897 32.7302C171.77 35.6759 169.035 37.3218 165.146 37.3218C158.37 37.3218 153.679 32.1958 153.679 25.4299C153.679 18.4696 158.71 13.6351 164.66 13.6351C169.254 13.6351 173.776 16.5321 173.776 22.7454H158.662C158.662 22.7454 158.613 23.1827 158.613 23.9601C158.613 30.7746 162.29 34.9835 167.468 34.9835C169.546 34.9835 171.478 34.3033 173.545 32.3233L173.897 32.7302ZM168.865 21.4638C168.768 16.8723 167.079 14.6008 164.465 14.6008C161.427 14.6008 159.385 17.6375 158.808 21.4638H168.865Z" fill="#D7D7D7"/>
<path d="M213.915 27.75C213.721 29.572 213.581 32.3415 213.581 34.6616C209.895 36.3729 205.886 37.2798 201.822 37.3218C190.068 37.3218 183.153 28.5699 183.153 19.2895C183.153 10.5862 189.291 1.45157 201.919 1.45157C206.367 1.45157 210.773 2.61162 213.581 3.1886C213.484 4.543 213.435 6.47438 213.435 7.97454C213.435 9.4747 213.484 10.489 213.532 11.315H213.046C211.983 5.80022 207.631 2.75738 202.308 2.75738C195.052 2.75738 188.908 8.36325 188.908 19.2895C188.908 30.7442 195.678 35.9674 202.113 35.9674C204.638 35.9553 207.093 35.1441 209.127 33.6502C211.161 32.1564 212.669 30.0567 213.435 27.6528L213.915 27.75Z" fill="#D7D7D7"/>
<path d="M228.597 37.1275C222.065 37.1275 216.741 32.6331 216.741 25.5878C216.741 18.4332 222.259 13.6472 228.695 13.6472C235.13 13.6472 240.594 18.506 240.594 25.442C240.594 32.2079 235.465 37.1396 228.597 37.1396M235.222 25.5999C235.222 19.0223 233.866 14.6251 228.695 14.6251C223.128 14.6251 222.113 19.7025 222.113 25.5574C222.113 31.7949 223.274 36.1922 228.597 36.1922C234.158 36.1922 235.222 31.4062 235.222 25.606" fill="#D7D7D7"/>
<path d="M263.748 34.856C263.298 35.5757 262.67 36.1674 261.925 36.5739C261.18 36.9803 260.342 37.1877 259.494 37.1761C257.95 37.1761 256.832 36.5019 256.643 34.6616C254.733 36.3539 252.274 37.2987 249.722 37.3218C245.808 37.3218 243.097 35.0989 243.097 31.9103C243.097 28.2662 246.744 25.7214 251.32 25.7214C253.113 25.6797 254.884 26.1135 256.455 26.9786V20.0426C256.455 16.3196 255.24 14.7769 252.778 14.7769C250.019 14.7769 248.233 16.7083 248.184 20.8504H244.021C244.799 15.6758 248.67 13.6472 253.265 13.6472C257.956 13.6472 261.001 15.773 261.001 22.0105V32.1533C261.001 34.279 261.341 34.9046 262.307 34.9046C262.759 34.9038 263.193 34.7323 263.523 34.4248L263.748 34.856ZM256.455 33.6959V28.0415C255.308 27.2853 253.957 26.8975 252.584 26.93C249.636 26.93 248.038 28.7156 248.038 31.3758C248.038 34.0361 249.533 35.5787 252.007 35.5787C253.675 35.541 255.267 34.8675 256.455 33.6959Z" fill="#D7D7D7"/>
<path d="M279.378 19.6782C278.655 16.6415 276.765 14.6008 273.963 14.6008C271.496 14.6008 270.092 16.1495 270.092 18.1781C270.092 23.7839 280.879 22.4781 280.879 30.2158C280.879 34.8074 277.056 37.2247 272.894 37.2247C270.912 37.2247 269.077 36.6902 266.27 36.2104C266.561 34.613 266.415 31.4244 266.877 29.4931H267.357C267.212 32.9732 268.858 36.259 272.584 36.259C275.051 36.259 276.643 34.8074 276.643 32.293C276.643 25.8186 266.197 27.4341 266.197 20.1155C266.197 15.9066 269.63 13.6351 273.939 13.6351C275.92 13.6351 277.859 14.1149 279.937 14.3092C279.826 14.8976 279.777 15.4962 279.791 16.0949C279.791 16.9209 279.84 18.1295 279.888 19.6782H279.378Z" fill="#D7D7D7"/>
<path d="M297.081 33.0704C296.017 36.016 294.182 37.2247 291.326 37.2247C288.287 37.2247 285.668 35.8703 285.668 30.9932V17.6922C285.668 16.0523 285.182 15.9066 283.292 15.615V15.1352C286.938 13.9205 289.101 10.5376 290.019 6.8145L290.748 6.96026C290.417 9.24978 290.238 11.5588 290.213 13.8719H292.918C294.948 13.8719 296.06 13.8719 296.929 12.7119L297.318 13.1492C296.583 14.1306 295.952 15.1848 295.434 16.2953C295.434 16.2953 294.753 15.9552 292.626 15.9552H290.195V30.4587C290.195 33.8903 291.113 35.2447 293.337 35.2447C294.935 35.2447 295.902 34.5159 296.673 32.7788L297.081 33.0704Z" fill="#D7D7D7"/>
<path d="M117.441 82.9765C117.441 82.9765 116.96 83.2195 115.119 83.2195C113.34 83.3236 111.58 82.8109 110.136 81.7679C108.489 80.4621 107.043 77.8505 104.332 72.7244C103.425 70.8788 102.411 69.0881 101.294 67.3615H99.0573V75.9191C99.0573 81.6768 99.2517 82.3024 101.488 82.6425V83.1284C100.467 83.0798 98.2915 83.0312 96.5535 83.0312C94.8154 83.0312 92.6823 83.0798 91.6189 83.1284V82.6425C93.8431 82.3024 94.0497 81.6768 94.0497 75.8766V55.1294C94.0497 49.809 93.9525 48.6976 91.6857 48.3088V47.829C93.0348 47.9262 94.8762 47.9262 96.8573 47.9262C98.8385 47.9262 101.209 47.829 102.424 47.829C110.403 47.829 114.517 51.8862 114.517 57.4009C114.517 61.6524 112.05 65.0414 106.532 66.5841C108.355 69.5358 114.031 81.4764 117.471 82.6364L117.441 82.9765ZM101.336 66.2015C107.091 66.2015 108.975 63.2497 108.975 58.1783C108.975 52.5664 106.702 49.1348 101.914 49.1348C100.945 49.1376 99.9822 49.285 99.0573 49.5721V66.2015H101.336Z" fill="#D7D7D7"/>
<path d="M137.562 78.9134C135.435 81.8651 132.7 83.5049 128.805 83.5049C122.035 83.5049 117.343 78.385 117.343 71.613C117.343 64.6527 122.369 59.8182 128.319 59.8182C132.919 59.8182 137.434 62.7213 137.434 68.9285H122.327C122.286 69.332 122.267 69.7376 122.272 70.1432C122.272 76.9638 125.949 81.1666 131.126 81.1666C133.205 81.1666 135.143 80.4925 137.203 78.5125L137.562 78.9134ZM132.53 67.653C132.433 63.0554 130.707 60.7839 128.13 60.7839C125.092 60.7839 123.05 63.8206 122.466 67.653H132.53Z" fill="#D7D7D7"/>
<path d="M153.909 65.8613C153.18 62.8246 151.296 60.7839 148.489 60.7839C146.021 60.7839 144.624 62.3326 144.624 64.3612C144.624 69.9731 155.411 68.6673 155.411 76.3989C155.411 80.9966 151.582 83.4078 147.425 83.4078C145.444 83.4078 143.603 82.8794 140.801 82.3935C141.087 80.7962 140.947 77.6075 141.378 75.6762H141.865C141.719 79.1563 143.36 82.4421 147.091 82.4421C149.552 82.4421 151.15 80.9966 151.15 78.4761C151.15 72.0017 140.704 73.6172 140.704 66.2986C140.704 62.0897 144.137 59.8182 148.44 59.8182C150.427 59.8182 152.36 60.298 154.438 60.4984C154.326 61.0868 154.277 61.6853 154.292 62.284C154.292 63.104 154.341 64.3126 154.39 65.8613H153.909Z" fill="#D7D7D7"/>
<path d="M166.337 94C165.274 93.9514 163.779 93.9028 161.986 93.9028C160.193 93.9028 158.692 93.9514 157.635 94V93.5323C159.081 93.2408 159.713 93.0039 159.713 89.1351V65.09C159.713 62.7153 159.616 61.9439 157.92 61.6038V61.124C159.999 61.0754 162.563 60.6867 164.259 59.8182V62.0472C166.116 60.5944 168.409 59.8092 170.767 59.8182C177.203 59.8182 181.603 64.9928 181.603 71.5158C181.603 78.6218 176.383 83.3167 170.056 83.3167C167.995 83.3542 165.97 82.7632 164.253 81.6221V89.1169C164.253 92.9857 164.86 93.2226 166.331 93.5141L166.337 94ZM164.259 80.0309C165.648 81.3663 167.509 82.0978 169.437 82.0655C173.083 82.0655 176.255 79.5025 176.255 71.862C176.255 65.2904 173.885 61.2272 169.339 61.2272C168.386 61.2335 167.444 61.4338 166.57 61.8159C165.697 62.1981 164.91 62.7542 164.259 63.4502V80.0309Z" fill="#D7D7D7"/>
<path d="M192.748 83.1162C191.679 83.0737 190.184 83.0251 188.391 83.0251C186.598 83.0251 185.103 83.0737 184.04 83.1162V82.6364C185.492 82.3449 186.118 82.102 186.118 78.2392V65.1811C186.118 62.8671 186.07 62.0897 184.617 61.707V61.2212C186.696 61.2016 188.75 60.7745 190.664 59.9639V78.2392C190.664 82.102 191.272 82.3449 192.748 82.6364V83.1162ZM188.537 57.0912C188.235 57.0968 187.934 57.0423 187.653 56.9307C187.372 56.8192 187.116 56.6528 186.9 56.4414C186.684 56.23 186.512 55.9778 186.395 55.6993C186.277 55.4209 186.216 55.1219 186.216 54.8197C186.196 54.3455 186.32 53.8764 186.57 53.4732C186.821 53.0701 187.187 52.7514 187.621 52.5586C188.055 52.3658 188.536 52.3077 189.004 52.3918C189.471 52.4759 189.902 52.6984 190.242 53.0304C190.581 53.3624 190.813 53.7887 190.907 54.2538C191.001 54.719 190.953 55.2017 190.769 55.6393C190.585 56.077 190.274 56.4494 189.876 56.7082C189.478 56.9671 189.012 57.1005 188.537 57.0912Z" fill="#D7D7D7"/>
<path d="M204.064 83.1223C203.001 83.0677 201.499 83.0251 199.713 83.0251C197.926 83.0251 196.419 83.0677 195.356 83.1223V82.6364C196.808 82.3449 197.44 82.102 197.44 78.2392V65.0839C197.44 62.7213 197.391 61.9925 195.939 61.6038V61.124C198.021 61.0883 200.075 60.6447 201.986 59.8182V62.9096C203.724 61.2698 205.322 59.8182 207.546 59.8182C209.977 59.8182 211.32 61.4641 211.32 65.2358H206.872C206.872 63.2497 206.094 62.5695 204.933 62.5695C204.064 62.5695 203.146 62.9643 201.986 64.264V78.2331C201.986 82.0959 202.593 82.3388 204.064 82.6304V83.1223Z" fill="#D7D7D7"/>
<path d="M233.228 81.0391C232.779 81.7589 232.151 82.3506 231.406 82.757C230.661 83.1634 229.823 83.3708 228.974 83.3592C227.425 83.3592 226.312 82.685 226.118 80.8508C224.208 82.54 221.752 83.4826 219.202 83.5049C215.282 83.5049 212.572 81.282 212.572 78.0934C212.572 74.4189 216.218 71.9045 220.794 71.9045C222.585 71.8662 224.354 72.2998 225.923 73.1617V66.2015C225.923 62.4784 224.708 60.9296 222.247 60.9296C219.494 60.9296 217.701 62.8671 217.653 67.0032H213.496C214.268 61.8285 218.139 59.8 222.733 59.8C227.425 59.8 230.469 61.9257 230.469 68.1632V78.3485C230.469 80.4743 230.81 81.0998 231.776 81.0998C232.227 81.099 232.661 80.9276 232.991 80.62L233.228 81.0391ZM225.936 79.879V74.2246C224.79 73.4652 223.439 73.0771 222.065 73.1131C219.117 73.1131 217.519 74.9352 217.519 77.559C217.519 80.1827 219.02 81.7679 221.487 81.7679C223.157 81.7286 224.748 81.0528 225.936 79.879Z" fill="#D7D7D7"/>
<path d="M248.172 79.2535C247.108 82.1991 245.273 83.4078 242.417 83.4078C239.378 83.4078 236.759 82.0534 236.759 77.1763V63.8814C236.759 62.2354 236.273 62.0593 234.389 61.7982V61.3426C238.035 60.1279 240.193 56.7511 241.116 53.0219L241.84 53.1737C241.508 55.4612 241.329 57.7682 241.305 60.0793H244.015C246.045 60.0793 247.157 60.0793 248.032 58.9254L248.415 59.3566C247.681 60.338 247.049 61.3922 246.531 62.5027C246.531 62.5027 245.85 62.1626 243.723 62.1626H241.293V76.6662C241.293 80.0977 242.216 81.4521 244.441 81.4521C246.033 81.4521 246.999 80.7293 247.777 78.9862L248.172 79.2535Z" fill="#D7D7D7"/>
<path d="M261.475 83.3167C254.942 83.3167 249.624 78.8162 249.624 71.777C249.624 64.6223 255.136 59.8364 261.572 59.8364C268.008 59.8364 273.471 64.6952 273.471 71.6312C273.471 78.3971 268.342 83.3349 261.475 83.3349M268.099 71.7952C268.099 65.2236 266.75 60.8203 261.572 60.8203C256.011 60.8203 254.996 65.8978 254.996 71.7527C254.996 77.9902 256.151 82.3874 261.475 82.3874C267.035 82.3874 268.099 77.6015 268.099 71.8013" fill="#D7D7D7"/>
<path d="M284.41 83.1223C283.34 83.0677 281.845 83.0251 280.053 83.0251C278.26 83.0251 276.765 83.0677 275.701 83.1223V82.6364C277.154 82.3449 277.78 82.102 277.78 78.2392V65.0839C277.78 62.7213 277.731 61.9925 276.279 61.6038V61.124C278.36 61.0896 280.415 60.6459 282.325 59.8182V62.9096C284.07 61.2698 285.668 59.8182 287.892 59.8182C290.323 59.8182 291.666 61.4641 291.666 65.2358H287.205C287.205 63.2497 286.434 62.5695 285.273 62.5695C284.404 62.5695 283.48 62.9643 282.319 64.264V78.2331C282.319 82.0959 282.927 82.3388 284.404 82.6304L284.41 83.1223Z" fill="#D7D7D7"/>
<path d="M305.631 93.9514C303.808 93.9514 305.151 93.9028 299.299 93.9028C299.202 93.9028 298.138 93.9028 297.123 93.9514V93.4655C299.633 93.0768 300.769 91.9654 304.276 83.9422L295.379 63.2497C294.607 61.4641 293.781 60.8203 292.571 60.4984V60.0125C293.252 60.0125 295.002 60.0611 296.783 60.0611C298.563 60.0611 301.645 60.0125 302.295 60.0125V60.4984C300.988 60.7353 300.411 61.1726 300.411 62.0411C300.411 63.2983 301.669 65.8128 302.295 67.2643L306.798 77.5893L308.876 72.4693C311.678 65.6002 312.067 64.2944 312.067 62.9886C312.067 61.2515 311.392 60.8142 309.94 60.4802V59.9943C310.712 59.9943 312.371 60.0429 314.242 60.0429C316.114 60.0429 317.05 59.9943 317.633 59.9943V60.4802C315.81 61.0876 314.972 62.3023 312.942 67.2461L306.02 84.1184C304.136 88.71 303.589 90.0158 303.589 91.2244C303.589 92.676 304.318 93.2044 305.619 93.4473L305.631 93.9514Z" fill="#D7D7D7"/>
<path d="M355.591 82.2963C354.472 82.8931 353.212 83.1764 351.945 83.1162C349.137 83.1162 346.476 82.102 343.814 79.9762C342.689 81.1117 341.346 82.0092 339.867 82.6155C338.388 83.2217 336.801 83.5242 335.203 83.5049C329.545 83.5049 324.659 80.0734 324.659 74.8562C324.659 70.9874 327.32 68.0843 331.769 65.4241C329.788 62.2354 328.676 59.5267 328.676 56.5324C328.676 51.0662 332.401 48.4546 336.169 48.4546C339.207 48.4546 342.246 50.1977 342.246 54.5949C342.246 57.7896 340.605 60.7839 336.296 63.7842C338.959 67.9771 342.011 71.9098 345.412 75.5304C346.115 73.7619 346.476 71.8761 346.476 69.9731C346.476 67.5437 345.868 65.5698 343.862 64.8471V64.6041C343.989 64.6392 344.12 64.6556 344.251 64.6527C344.898 64.6098 345.514 64.3615 346.009 63.9442C346.504 63.5268 346.853 62.9621 347.004 62.3326C348.359 63.5898 349.186 65.8128 349.186 67.9871C349.186 70.5501 348.074 73.6962 346.33 76.4475C349.368 79.3932 352.717 81.8165 355.567 81.9137L355.591 82.2963ZM332.498 66.5051C331.487 67.364 330.674 68.4313 330.115 69.6338C329.556 70.8363 329.264 72.1455 329.259 73.4715C329.259 78.0631 332.498 81.3003 337.244 81.3003C339.346 81.3494 341.393 80.6278 342.999 79.2717C339.517 76.2349 335.16 70.374 332.498 66.5173M338.982 54.8683C338.982 51.2909 337.53 49.8394 335.743 49.8394C334.096 49.8394 332.595 51.0541 332.595 54.3884C332.595 56.4656 333.203 58.4942 335.695 62.8003C336.768 61.7819 337.615 60.5496 338.181 59.1832C338.748 57.8168 339.021 56.3468 338.982 54.8683Z" fill="#D7D7D7"/>
<path d="M382.501 55.4209C381.437 50.3435 378.63 48.4546 375.245 48.4546C371.86 48.4546 369.392 50.2767 369.392 53.9208C369.392 62.9157 384.385 61.6099 384.385 73.1131C384.385 79.0591 380.422 83.5049 373.646 83.5049C370.65 83.5049 368.858 82.6364 366.682 82.6364C366.225 82.6104 365.768 82.6596 365.327 82.7822C365.327 82.7822 365.375 82.0534 365.375 81.3306C365.375 79.9276 365.181 78.4335 365.181 76.982C365.151 75.8311 365.332 74.6845 365.716 73.599H366.196C366.21 74.2952 366.275 74.9894 366.39 75.6762C366.998 79.6361 369.636 82.1505 373.744 82.1505C377.852 82.1505 380.325 79.6847 380.325 75.8705C380.325 66.4869 365.375 67.3676 365.375 56.6296C365.375 51.1148 369.344 47.1488 375.147 47.1488C377.712 47.1488 379.353 47.9262 381.437 47.9262C382.015 47.9481 382.59 47.8488 383.127 47.6347C383.03 48.8494 382.981 50.3435 382.981 51.8376C382.981 52.615 382.981 54.018 383.03 55.4209H382.501Z" fill="#D7D7D7"/>
<path d="M395.895 83.1223C394.831 83.0677 393.33 83.0251 391.544 83.0251C389.757 83.0251 388.256 83.0677 387.186 83.1223V82.6364C388.639 82.3449 389.271 82.102 389.271 78.2392V51.4549C389.271 49.0863 389.222 48.3635 387.77 47.9748V47.4889C389.846 47.4355 391.892 46.984 393.798 46.1588V78.2149C393.798 82.0777 394.406 82.3206 395.877 82.6121L395.895 83.1223Z" fill="#D7D7D7"/>
<path d="M418.775 78.9134C416.648 81.8651 413.914 83.5049 410.024 83.5049C403.248 83.5049 398.557 78.385 398.557 71.613C398.557 64.6527 403.588 59.8182 409.538 59.8182C414.132 59.8182 418.654 62.7213 418.654 68.9285H403.522C403.522 68.9285 403.473 69.3658 403.473 70.1432C403.473 76.9638 407.119 81.1666 412.321 81.1666C414.406 81.1666 416.338 80.4925 418.398 78.5125L418.775 78.9134ZM413.743 67.653C413.646 63.0554 411.957 60.7839 409.344 60.7839C406.305 60.7839 404.263 63.8206 403.686 67.653H413.743Z" fill="#D7D7D7"/>
<path d="M441.656 78.9134C439.523 81.8651 436.794 83.5049 432.898 83.5049C426.129 83.5049 421.437 78.385 421.437 71.613C421.437 64.6527 426.463 59.8182 432.412 59.8182C437.013 59.8182 441.558 62.7213 441.558 68.9285H426.414C426.414 68.9285 426.366 69.3658 426.366 70.1432C426.366 76.9638 430.012 81.1666 435.22 81.1666C437.298 81.1666 439.237 80.4925 441.297 78.5125L441.656 78.9134ZM436.624 67.653C436.527 63.0554 434.801 60.7839 432.224 60.7839C429.185 60.7839 427.143 63.8206 426.56 67.653H436.624Z" fill="#D7D7D7"/>
<path d="M452.746 94C451.683 93.9514 450.182 93.9028 448.395 93.9028C446.609 93.9028 445.101 93.9514 444.038 94V93.5323C445.49 93.2408 446.122 93.0039 446.122 89.1351V65.09C446.122 62.7153 446.025 61.9439 444.299 61.6038V61.124C446.378 61.0754 448.942 60.6867 450.638 59.8182V62.0472C452.5 60.5905 454.8 59.8051 457.164 59.8182C463.6 59.8182 468 64.9928 468 71.5158C468 78.6218 462.78 83.3167 456.453 83.3167C454.392 83.3542 452.367 82.7632 450.65 81.6221V89.1169C450.65 92.9857 451.257 93.2226 452.728 93.5141L452.746 94ZM450.668 80.0309C452.056 81.3648 453.915 82.0962 455.84 82.0655C459.486 82.0655 462.664 79.5025 462.664 71.862C462.664 65.2904 460.294 61.2272 455.742 61.2272C454.79 61.2343 453.849 61.435 452.976 61.8171C452.104 62.1993 451.319 62.7549 450.668 63.4502V80.0309Z" fill="#D7D7D7"/>
<path d="M79.7198 66.08C79.1893 66.3654 78.6413 66.6169 78.079 66.8331C71.5279 69.3961 66.3805 66.5051 60.6559 63.2437C55.0831 60.0854 48.927 60.4438 43.5305 63.6567C37.4534 67.2583 31.5586 69.4812 24.819 65.9403C18.8209 62.776 14.0746 59.2594 6.85501 61.9075C4.96107 62.6743 3.13202 63.5924 1.38559 64.6527C0.943221 64.9433 0.480116 65.2011 0 65.4241C0.139774 65.4241 0.941956 66.6388 1.25189 66.5051C1.25189 66.5051 1.29443 66.5051 1.31266 66.5051C1.64804 66.3735 1.97134 66.2129 2.27892 66.0253C2.83802 65.7217 3.42143 65.418 4.01698 65.1264C11.1698 61.6402 16.6027 64.7256 22.6859 68.1632C28.2526 71.3397 34.4087 70.9692 39.8113 67.7502C45.8884 64.1486 51.7772 61.9257 58.5167 65.4848C64.5148 68.6309 69.2489 72.1657 76.4868 69.5055C77.2426 69.2158 77.9829 68.8873 78.7049 68.5215C79.1029 68.345 79.4887 68.1421 79.8596 67.9142C80.1878 67.7138 79.6044 66.0921 79.7198 66.0496" fill="#D7D7D7"/>
</svg>
