<svg width="461" height="83" viewBox="0 0 461 83" fill="none" xmlns="http://www.w3.org/2000/svg">
<path d="M461 55.6628C460.827 56.4588 460.654 57.2509 460.481 58.0469C459.244 63.7305 455.257 67.7951 449.175 68.595C438.799 69.964 429.491 67.276 421.838 59.9235C418.246 56.4703 416.441 52.098 416.395 46.7298C420.137 47.2336 423.709 47.795 427.301 48.1641C428.922 48.3333 429.641 48.8409 429.983 50.5906C430.82 54.8591 434.685 57.7931 439.625 58.3392C440.005 58.3815 440.39 58.393 440.774 58.4122C443.563 58.5584 446.167 58.0508 447.408 55.2513C448.695 52.3403 448.15 49.3562 445.779 47.3297C443.29 45.2032 440.409 43.4727 437.535 41.8692C433.578 39.6619 429.345 37.943 425.438 35.6511C418.385 31.5134 415.365 24.4839 416.852 16.5085C417.908 10.8288 422.169 6.40266 428.458 5.47206C439.279 3.86851 448.603 6.96025 455.676 15.6086C458.411 18.9542 459.755 22.9381 460.047 27.5449C456.955 26.8681 454.004 26.2221 451.05 25.576C450.8 25.5222 450.558 25.403 450.309 25.3876C447.935 25.2222 446.498 24.3993 445.676 21.746C444.427 17.7198 438.78 14.8549 434.581 15.4279C429.94 16.0586 427.682 21.1576 430.605 24.9877C431.992 26.8027 433.989 28.3063 435.987 29.4715C440.735 32.2325 445.76 34.5205 450.47 37.3392C455.522 40.3617 459.148 44.6648 460.424 50.6214C460.62 51.5328 460.804 52.4441 460.996 53.3555V55.6628H461Z" fill="#D7D7D7"/>
<path d="M0.00384163 11.4402C1.24085 11.5902 2.50475 11.6286 3.71102 11.9132C16.6689 14.9588 29.7535 17.243 42.9687 18.8119C43.6563 18.8927 44.3363 19.0349 45.0662 19.158V29.1369C39.6764 28.4178 34.3942 27.7102 28.8968 26.9758V78.2201C24.6518 77.4741 20.6526 76.7742 16.5229 76.0474V24.8108C10.9256 23.5379 5.4628 22.2959 0 21.0538C0 17.8505 0 14.6434 0 11.4402H0.00384163Z" fill="#D7D7D7"/>
<path d="M291.169 3.98388C299.82 3.38783 308.36 2.30342 316.9 2.33034C328.241 2.36879 337.365 7.11791 342.044 17.9697C348.448 32.817 344.956 56.6164 319.516 62.4807C313.954 63.7651 308.118 63.8766 302.402 64.4727C298.722 64.8534 295.034 65.1264 291.173 65.4648V3.98388H291.169ZM303.305 54.2246C308.856 53.3478 314.184 52.9825 319.228 51.5866C325.26 49.9138 329.178 45.53 331.022 39.4773C332.217 35.5511 332.359 31.5019 331.721 27.4987C330.277 18.4081 325.125 13.536 315.959 12.863C312.425 12.6015 308.833 13.2552 305.264 13.3245C303.643 13.3552 303.266 13.959 303.274 15.4856C303.332 27.1373 303.305 38.7851 303.305 50.4368C303.305 51.4558 303.305 52.4749 303.305 54.2284V54.2246Z" fill="#D7D7D7"/>
<path d="M75.0425 57.1663V82.7962C70.9127 82.5616 66.9789 82.3386 62.9337 82.1117V20.7885C66.9981 21.0307 70.9396 21.2653 75.1078 21.5114C75.1078 22.3805 75.1078 23.1995 75.1078 24.0148C75.1078 30.9366 75.1078 37.8584 75.1078 44.7802C75.1078 45.7607 74.9733 46.7375 76.4677 46.7567C84.466 46.8529 92.4605 46.9913 100.459 47.1028C100.635 47.1028 100.812 46.9913 101.239 46.8529V21.8998H113.505V83H101.335V57.1663H75.0425Z" fill="#D7D7D7"/>
<path d="M134.515 82.2617V20.8538C146.274 19.9155 157.976 18.9811 169.839 18.0351V28.0563C162.29 28.7178 154.676 29.3869 146.912 30.0675V45.2724C153.662 44.7109 160.377 44.1534 167.211 43.5881V53.3863C160.465 53.9746 153.738 54.5591 146.889 55.1513V71.2329C154.499 70.5946 162.094 69.9563 169.85 69.3064V79.4545C158.053 80.3928 146.355 81.3234 134.519 82.2617H134.515Z" fill="#D7D7D7"/>
<path d="M375.07 25.5337C381.87 25.8414 388.558 26.1413 395.37 26.4489V36.2548C388.604 35.9741 381.92 35.6972 375.09 35.4127V51.4943C382.654 51.8442 390.176 52.1942 397.878 52.5556V62.5307C386.215 62.1346 374.544 61.7347 362.731 61.3309V0C374.425 0.365317 386.142 0.730634 397.955 1.0998V11.3441C390.329 10.9903 382.765 10.6442 375.07 10.2866V25.5376V25.5337Z" fill="#D7D7D7"/>
<path d="M211.651 23.4418C206.077 24.084 200.768 24.6916 195.332 25.3184V15.351C210.241 13.5475 225.078 11.7555 240.045 9.94816V19.9271C234.751 20.5885 229.457 21.2538 223.998 21.9382V73.221C219.864 73.7248 215.892 74.2055 211.651 74.7208V23.4418Z" fill="#D7D7D7"/>
<path d="M269.994 67.7144C266.014 68.172 262.038 68.6296 257.843 69.1141V66.6761C257.843 47.8988 257.874 29.1254 257.797 10.3481C257.789 8.37153 258.15 7.54091 260.321 7.46016C263.502 7.3371 266.667 6.77567 269.994 6.38343V67.7144Z" fill="#D7D7D7"/>
</svg>
