<svg width="269" height="106" viewBox="0 0 269 106" fill="none" xmlns="http://www.w3.org/2000/svg">
<path d="M35.825 0H49.643V1.452H43.544V15.803H41.923V1.452H35.824L35.825 0Z" fill="#D7D7D7"/>
<path d="M53.027 15.803V0H54.648V6.534H65.2V0H66.821V15.803H65.2V7.962H54.648V15.803H53.027Z" fill="#D7D7D7"/>
<path d="M80.803 8.155H74.148V14.35H85.668V15.802H72.527V0H85.135V1.452H74.148V6.727H80.803V8.155Z" fill="#D7D7D7"/>
<path d="M0 59.554C0 43.402 10.591 32.278 27.2 32.278C36.268 32.278 41.144 35.402 42.743 35.402C43.582 35.402 44.038 34.716 44.419 32.964H46.782V49.497H44.497C42.134 39.058 36.725 34.868 27.2 34.868C13.333 34.868 5.182 43.706 5.182 59.249C5.182 74.564 13.411 83.63 27.353 83.63C37.715 83.63 42.668 79.44 42.668 73.953V68.543C42.668 63.744 41.22 63.058 30.097 62.754V60.467H51.963V62.754C47.773 62.982 46.783 64.2 46.783 69.305V79.896C42.669 83.02 36.953 86.22 26.897 86.22C10.668 86.22 0.001 75.4 0.001 59.552L0 59.554Z" fill="#D7D7D7"/>
<path d="M107.161 58.671C107.161 42.249 118.642 31.758 133.161 31.758C147.68 31.758 159.161 42.249 159.161 58.671C159.161 75.093 147.682 85.584 133.161 85.584C118.64 85.584 107.161 75.093 107.161 58.671ZM153.993 58.671C153.993 44.15 145.63 34.343 133.161 34.343C120.692 34.343 112.331 44.15 112.331 58.671C112.331 73.192 120.694 82.999 133.161 82.999C145.628 82.999 153.993 73.191 153.993 58.671Z" fill="#D7D7D7"/>
<path d="M268.429 68.621L267.362 84.087H225.152V82.105C231.476 82.029 232.466 81.039 232.466 75.477V40.887C232.466 35.325 231.476 34.335 225.152 34.257V32.277H266.752L267.438 45.382H265.153C264.086 36.62 261.648 34.41 253.038 34.41H236.58V56.581H251.361C256.999 56.581 257.913 55.591 258.523 48.429H260.808V66.867H258.523C257.914 59.705 256.999 58.715 251.361 58.715H236.58V76.238C236.58 80.962 237.647 81.953 243.132 81.953H255.551C262.333 81.953 264.771 78.904 266.142 68.62H268.427L268.429 68.621Z" fill="#D7D7D7"/>
<path d="M80.737 57.344H72.053V74.94C72.053 80.957 73.196 82.176 79.29 82.329V84.309H60.628V82.329C66.95 82.253 67.94 81.263 67.94 75.702V41.12C67.94 35.56 66.949 34.569 60.628 34.494V32.514H84.012C94.295 32.514 99.779 36.169 99.779 44.092C99.779 51.557 94.848 56.174 85.688 57.117C84.22 57.268 80.737 57.345 80.737 57.345V57.344ZM72.053 34.645V55.212H80.585C90.106 55.212 94.905 51.251 94.905 44.319C94.905 37.54 90.792 34.645 82.87 34.645H72.053Z" fill="#D7D7D7"/>
<path d="M131.483 105.019C106.619 105.019 87.022 89.3 83.221 63.077C82.371 57.212 79.422 57.849 72.053 57.849V57.344L83.479 57.197C87.257 57.197 87.763 61.437 88.01 63.076C91.401 85.584 109.581 103.141 131.49 103C143.785 102.921 155.059 98.736 163.533 90.285L164.034 90.788C154.955 99.843 144.307 105.019 131.483 105.019Z" fill="#D7D7D7"/>
<path d="M201.771 32.278V34.258C206.877 34.488 208.476 35.097 208.476 37.382C208.476 38.525 208.095 39.896 207.181 42.486L193.772 79.819L180.358 43.454C173.607 23.156 155.992 11.293 134.398 11.293C121.574 11.293 110.927 16.468 101.847 25.524L102.348 26.027C110.822 17.576 122.096 13.391 134.391 13.312C152.357 13.197 167.799 24.989 174.651 41.646L191.256 84.543H194.914L211.219 39.592C212.59 35.781 213.58 34.716 216.248 34.258V32.278H201.771Z" fill="#D7D7D7"/>
</svg>
