<svg width="317" height="158" viewBox="0 0 317 158" fill="none" xmlns="http://www.w3.org/2000/svg">
<g clip-path="url(#clip0_2135_132)">
<path d="M19.4102 20.4102V39.3145C16.9591 39.2657 14.9715 38.8489 12.6377 37.9062C10.1499 36.9014 8.07606 35.5292 6.18359 33.6367L6.18262 33.6357L5.83398 33.2822C4.13039 31.5176 3.01977 29.8117 2.04004 27.4951C1.06131 25.1808 0.564201 22.897 0.505859 20.4102H19.4102Z" stroke="#D7D7D7"/>
<path d="M33.9871 64.5889C35.6901 66.3531 36.7996 68.0589 37.7791 70.375C38.8231 72.8436 39.3201 75.2773 39.3201 77.96C39.3201 80.6457 38.912 82.7419 37.9061 85.2324C36.9641 87.5645 35.6987 89.532 33.9852 91.3281L20.617 77.96L33.9871 64.5889Z" stroke="#D7D7D7"/>
<path d="M19.4102 155.664C16.9592 155.615 14.9715 155.198 12.6377 154.256C10.1507 153.251 8.08614 151.879 6.18262 149.985C4.27904 148.092 3.08503 146.316 2.04004 143.845C0.996062 141.376 0.50002 138.942 0.5 136.26C0.5 133.574 0.908148 131.478 1.91406 128.987C2.91893 126.5 4.29111 124.426 6.18359 122.533L6.18457 122.532C8.07836 120.629 9.85436 119.435 12.3252 118.39C14.6395 117.411 16.9233 116.914 19.4102 116.855V155.664Z" stroke="#D7D7D7"/>
<path d="M33.99 5.83C32.05 3.89 29.92 2.48 27.37 1.45C24.82 0.42 22.66 0 19.91 0C17.16 0 14.66 0.51 12.13 1.58C9.6 2.65 7.77 3.88 5.83 5.83C3.89 7.78 2.48 9.9 1.45 12.45C0.42 15 0 17.16 0 19.91H19.91V39.82C22.66 39.82 25.16 39.31 27.69 38.24C30.22 37.17 32.05 35.93 33.99 33.99C35.93 32.05 37.34 29.92 38.37 27.37C39.4 24.82 39.82 22.66 39.82 19.91C39.82 17.16 39.31 14.66 38.24 12.13C37.17 9.6 35.94 7.77 33.99 5.83Z" fill="#D7D7D7"/>
<path d="M27.69 96.2898C30.22 95.2198 32.05 93.9898 33.99 92.0398L19.91 77.9598L33.99 63.8798C32.05 61.9398 29.92 60.5298 27.37 59.4998C24.82 58.4698 22.66 58.0498 19.91 58.0498C17.16 58.0498 14.66 58.5598 12.13 59.6298C9.6 60.6998 7.77 61.9398 5.83 63.8798C3.89 65.8198 2.48 67.9498 1.45 70.4998C0.42 73.0498 0 75.2098 0 77.9598C0 80.7098 0.51 83.2098 1.58 85.7398C2.65 88.2698 3.88 90.0998 5.83 92.0398C7.78 93.9798 9.9 95.3898 12.45 96.4198C15 97.4498 17.16 97.8698 19.91 97.8698C22.66 97.8698 25.16 97.3598 27.69 96.2898Z" fill="#D7D7D7"/>
<path d="M33.99 122.18C32.05 120.24 29.92 118.83 27.37 117.8C24.82 116.77 22.66 116.35 19.91 116.35V156.17C22.66 156.17 25.16 155.66 27.69 154.59C30.22 153.52 32.05 152.29 33.99 150.34C35.93 148.4 37.34 146.27 38.37 143.72C39.4 141.17 39.82 139.01 39.82 136.26C39.82 133.51 39.31 131.01 38.24 128.48C37.17 125.95 35.94 124.12 33.99 122.18Z" fill="#D7D7D7"/>
<path d="M90.88 40.7H99.52V8.36H109.84V0.56H80.57V8.36H90.88V40.7Z" fill="#D7D7D7"/>
<path d="M124.33 22.75C125.33 21.47 127.62 19.79 130.35 19.79C131.91 19.79 133.19 20.29 134.03 21.13C134.87 22.02 135.48 23.25 135.48 25.81V40.7H143.84V26.37C143.84 21.63 142.78 18.79 140.94 16.56C138.6 13.72 135.03 11.99 131.13 11.99C128.62 11.99 126.28 12.71 124.33 14V0H115.97V40.7H124.33V22.75Z" fill="#D7D7D7"/>
<path d="M164.14 41.26C168.43 41.26 172.89 39.48 176.02 35.8L171.11 30.95C169.49 32.68 167.15 34.29 164.31 34.29C160.96 34.29 158.23 32.17 157.67 28.99H176.18C176.4 27.87 176.46 27.15 176.46 26.37C176.46 18.62 171 11.99 163.13 11.99C154.71 11.99 149.41 18.9 149.41 26.65C149.41 35.46 155.77 41.26 164.13 41.26H164.14ZM163.14 18.96C165.54 18.96 167.38 20.69 167.82 22.58H158.01C158.62 20.68 160.69 18.96 163.14 18.96Z" fill="#D7D7D7"/>
<path d="M102.26 91.49C95.07 91.49 89.49 85.97 89.49 78.67C89.49 71.37 94.84 65.85 101.92 65.85C105.6 65.85 108.78 67.47 111.4 70.09L117.03 64.18C113.02 60.28 107.94 58.05 101.98 58.05C89.49 58.05 80.85 67.14 80.85 78.68C80.85 90.22 89.66 99.31 102.09 99.31C109.39 99.31 115.36 96.19 119.26 91.23L113.24 85.82C110.68 89.17 107.11 91.51 102.26 91.51V91.49Z" fill="#D7D7D7"/>
<path d="M153.1 84.69C153.1 76.55 146.63 70.03 138.16 70.03C129.69 70.03 123.22 76.55 123.22 84.69C123.22 92.83 129.69 99.3 138.16 99.3C146.63 99.3 153.1 92.83 153.1 84.69ZM138.16 91.49C134.26 91.49 131.58 88.48 131.58 84.69C131.58 80.9 134.26 77.83 138.16 77.83C142.06 77.83 144.74 80.9 144.74 84.69C144.74 88.48 142.06 91.49 138.16 91.49Z" fill="#D7D7D7"/>
<path d="M175.52 70.03C172.79 70.03 170.45 70.87 168.44 72.2V70.58H160.36V98.74H168.72V80.79C169.72 79.51 172.01 77.83 174.74 77.83C176.3 77.83 177.58 78.33 178.42 79.17C179.26 80.06 179.87 81.29 179.87 83.85V98.74H188.23V84.41C188.23 79.67 187.17 76.83 185.33 74.6C182.99 71.76 179.42 70.03 175.52 70.03Z" fill="#D7D7D7"/>
<path d="M201.61 63.06V70.59H194.08V77.84H201.61V86.76C201.61 90.66 202.22 93.17 203.73 95.18C205.68 97.8 209.08 99.31 213.54 99.31C214.93 99.31 217.22 99.09 218.67 98.58L217.39 91.39C216.39 91.61 214.99 91.78 213.99 91.78C212.32 91.78 211.31 91.33 210.76 90.61C210.26 90.05 209.98 89.22 209.98 87.6V77.84H218.9V70.59H209.98V63.06H201.61Z" fill="#D7D7D7"/>
<path d="M238.63 99.3C242.92 99.3 247.38 97.52 250.51 93.84L245.6 88.99C243.98 90.72 241.64 92.34 238.8 92.34C235.46 92.34 232.72 90.22 232.17 87.04H250.68C250.9 85.92 250.96 85.2 250.96 84.42C250.96 76.67 245.5 70.03 237.63 70.03C229.21 70.03 223.91 76.94 223.91 84.69C223.91 93.5 230.27 99.3 238.63 99.3ZM237.63 77C240.03 77 241.87 78.73 242.31 80.62H232.5C233.11 78.72 235.18 77 237.63 77Z" fill="#D7D7D7"/>
<path d="M277.71 83.86V98.75H286.07V84.42C286.07 79.68 285.01 76.84 283.17 74.61C280.83 71.77 277.26 70.04 273.36 70.04C270.63 70.04 268.29 70.88 266.28 72.21V70.59H258.2V98.75H266.56V80.8C267.56 79.52 269.85 77.84 272.58 77.84C274.14 77.84 275.42 78.34 276.26 79.18C277.1 80.07 277.71 81.3 277.71 83.86Z" fill="#D7D7D7"/>
<path d="M316.74 77.83V70.58H307.82V63.05H299.46V70.58H291.93V77.83H299.46V86.75C299.46 90.65 300.07 93.16 301.58 95.17C303.53 97.79 306.93 99.3 311.39 99.3C312.78 99.3 315.07 99.08 316.52 98.57L315.24 91.38C314.24 91.6 312.84 91.77 311.84 91.77C310.17 91.77 309.16 91.32 308.61 90.6C308.11 90.04 307.83 89.21 307.83 87.59V77.83H316.75H316.74Z" fill="#D7D7D7"/>
<path d="M110.23 120.43C106.94 117.98 102.76 116.64 96.46 116.64H83.64V156.78H96.46C102.76 156.78 106.94 155.44 110.23 152.99C115.19 149.31 118.2 143.34 118.2 136.71C118.2 130.08 115.19 124.11 110.23 120.43ZM106.83 144.85C104.77 147.41 101.76 148.98 97.3 148.98H92.28V124.45H97.3C101.76 124.45 104.77 126.01 106.83 128.58C108.56 130.7 109.56 133.6 109.56 136.72C109.56 139.84 108.56 142.74 106.83 144.86V144.85Z" fill="#D7D7D7"/>
<path d="M134.37 128.63H126.01V156.79H134.37V128.63Z" fill="#D7D7D7"/>
<path d="M130.19 114.41C127.29 114.41 124.89 116.64 124.89 119.6C124.89 122.56 127.29 124.78 130.19 124.78C133.09 124.78 135.49 122.55 135.49 119.6C135.49 116.65 133.09 114.41 130.19 114.41Z" fill="#D7D7D7"/>
<path d="M155.72 144.35L148.64 128.63H139.89L152.88 156.78H158.57L171.56 128.63H162.8L155.72 144.35Z" fill="#D7D7D7"/>
<path d="M180.42 114.41C177.52 114.41 175.12 116.64 175.12 119.6C175.12 122.56 177.52 124.78 180.42 124.78C183.32 124.78 185.72 122.55 185.72 119.6C185.72 116.65 183.32 114.41 180.42 114.41Z" fill="#D7D7D7"/>
<path d="M184.6 128.63H176.24V156.79H184.6V128.63Z" fill="#D7D7D7"/>
<path d="M207.24 139.94C205.62 139.33 204.01 138.88 202.78 138.38C201.5 137.82 201.05 137.38 201.05 136.93C201.05 136.09 202.17 135.31 204.17 135.31C205.95 135.31 207.68 136.09 209.52 137.37L213.48 131.24C211.19 129.46 207.23 128.06 203.61 128.06C198.09 128.06 192.68 131.41 192.68 137.04C192.68 141.78 196.3 143.73 199.59 144.96C201.21 145.57 202.82 146.02 204.05 146.58C205.28 147.19 205.78 147.7 205.78 148.36C205.78 149.2 204.78 150.09 202.88 150.09C200.26 150.09 197.58 149.14 195.35 147.13L191.17 153.26C194.91 155.99 198.98 157.33 202.82 157.33C208.62 157.33 214.14 154.04 214.14 148.41C214.14 143.34 210.57 141.22 207.23 139.94H207.24Z" fill="#D7D7D7"/>
<path d="M226.14 114.41C223.24 114.41 220.84 116.64 220.84 119.6C220.84 122.56 223.24 124.78 226.14 124.78C229.04 124.78 231.44 122.55 231.44 119.6C231.44 116.65 229.04 114.41 226.14 114.41Z" fill="#D7D7D7"/>
<path d="M230.32 128.63H221.96V156.79H230.32V128.63Z" fill="#D7D7D7"/>
<path d="M252.51 128.07C244.04 128.07 237.57 134.59 237.57 142.73C237.57 150.87 244.04 157.34 252.51 157.34C260.98 157.34 267.45 150.87 267.45 142.73C267.45 134.59 260.98 128.07 252.51 128.07ZM252.51 149.53C248.61 149.53 245.93 146.52 245.93 142.73C245.93 138.94 248.61 135.87 252.51 135.87C256.41 135.87 259.09 138.94 259.09 142.73C259.09 146.52 256.41 149.53 252.51 149.53Z" fill="#D7D7D7"/>
<path d="M289.87 128.07C287.14 128.07 284.8 128.91 282.79 130.24V128.62H274.71V156.78H283.07V138.83C284.07 137.55 286.36 135.87 289.09 135.87C290.65 135.87 291.93 136.37 292.77 137.21C293.61 138.1 294.22 139.33 294.22 141.89V156.78H302.58V142.45C302.58 137.71 301.52 134.87 299.68 132.64C297.34 129.8 293.77 128.07 289.87 128.07Z" fill="#D7D7D7"/>
</g>
<defs>
<clipPath id="clip0_2135_132">
<rect width="316.74" height="157.34" fill="white"/>
</clipPath>
</defs>
</svg>
