<svg width="274" height="61" viewBox="0 0 274 61" fill="none" xmlns="http://www.w3.org/2000/svg">
<path d="M58.2874 4.08666V56.894L63.9401 60.4583L69.6218 56.894V4.10117L63.974 0.522318L58.2874 4.08666ZM67.6876 55.8252L63.9449 58.1756L60.2216 55.83V5.15547L63.9691 2.80988L67.6876 5.16515V55.8252Z" fill="#D7D7D7"/>
<path d="M124.007 2.68414L110.854 47.6519L97.7017 2.68414L91.2028 0.531991L87.2763 6.15175L102.213 55.9848L110.893 60.4245L119.491 55.9799L134.427 6.14691L130.501 0.527155L124.002 2.6793L124.007 2.68414ZM117.876 54.6403L110.888 58.2482L103.828 54.6355L89.3991 6.49029L91.9668 2.81955L96.1302 4.19789L109.433 49.6831H112.276L125.579 4.19789L129.742 2.81955L132.31 6.49029L117.88 54.6403H117.876Z" fill="#D7D7D7"/>
<path d="M225.896 51.1195V3.95124L220.505 0.527155L215.084 3.92706V60.2939H243.28L246.191 55.7043L243.406 51.1195H225.896ZM242.211 58.3594H217.013V5.00071L220.495 2.81955L223.962 5.02006V53.0588H242.313L243.909 55.6849L242.211 58.3594Z" fill="#D7D7D7"/>
<path d="M2.89164 0.706097L0 5.27638L2.8046 9.89503H15.1497V57.0488L20.5413 60.468L25.9764 57.0584V9.89503H38.249L41.1358 5.28605L38.2393 0.710933H2.89164V0.706097ZM37.1755 7.96052H24.0422V55.9848L20.5461 58.1805L17.0791 55.9848V7.96052H3.89259L2.27753 5.30056L3.96029 2.64545H37.1755L38.8534 5.29573L37.1803 7.96535L37.1755 7.96052Z" fill="#D7D7D7"/>
<path d="M172.415 0L158.329 3.90771L150.53 14.4266V46.4912L158.329 57.0923L172.415 61L186.506 57.0923L194.306 46.4912V14.4266L186.506 3.90771L172.42 0H172.415ZM192.367 45.8528L185.341 55.4044L172.415 58.9929L159.49 55.4044L152.464 45.8528V15.065L159.49 5.59558L172.415 2.00706L185.346 5.59558L192.367 15.065V45.8528Z" fill="#D7D7D7"/>
<path d="M172.415 7.63649L164.19 10.456L159.34 16.2015V44.7114L164.19 50.4569L172.415 53.2765L180.641 50.4569L185.491 44.7114V16.2015L180.641 10.456L172.415 7.63649ZM183.556 44.0053L179.509 48.8029L172.415 51.2356L165.322 48.8029L161.274 44.0053V16.9076L165.322 12.11L172.415 9.6774L179.509 12.11L183.556 16.9076V44.0053Z" fill="#D7D7D7"/>
<path d="M268.352 0.522318L262.666 4.08666V56.894L268.318 60.4583L274 56.894V4.10117L268.352 0.522318ZM272.066 55.8252L268.323 58.1756L264.6 55.83V5.15547L268.347 2.80988L272.066 5.16515V55.8252Z" fill="#D7D7D7"/>
</svg>
