<svg width="218" height="101" viewBox="0 0 218 101" fill="none" xmlns="http://www.w3.org/2000/svg">
<path d="M17.8 59.1255C17.8 59.1255 31.3 59.2255 49.1 60.8255H49.5L52.2 61.0255L53.4 61.1255H53.7C67.3 62.5255 82.9 64.8255 96.8 68.6255C107 42.9255 94.4 13.7255 68.7 3.52553C43 -6.67447 13.7 6.02553 3.5 31.7255C1.2 37.6255 0 43.9255 0 50.3255C0 53.2255 0.3 56.1255 0.8 59.0255C4.4 58.9255 10 58.8255 17.8 59.1255Z" fill="#D7D7D7"/>
<path d="M74.3 70.3255C72.4 69.9255 70.4 69.4255 68.3 69.0255C65.2 68.3255 62.1 67.6255 59 67.0255C53.9 66.0255 49 65.2255 44.3 64.5255L41.4 64.1255C35.8 63.3255 30.5 62.8255 25.6 62.3255C23.5 62.1255 10.2 61.1255 1.1 61.0255C1.2 61.5255 1.3 61.9255 1.4 62.4255C18.5 63.5255 61.3 67.6255 90 80.6255C91.2 79.1255 92.2 77.4255 93.2 75.8255C86.9 73.7255 80.5 71.9255 74.3 70.3255Z" fill="#D7D7D7"/>
<path d="M2.2 64.8255C10.2 91.3255 38.2 106.326 64.7 98.2255C71.4 96.2255 77.6 92.8255 82.9 88.2255C77.3 85.2255 46.9 69.0255 2.2 64.8255Z" fill="#D7D7D7"/>
<path d="M115.1 27.1255C115.1 27.0255 115.1 26.9255 115.2 26.8255C115.3 26.7255 115.4 26.7255 115.5 26.7255H125.3C125.5 26.7255 125.7 26.8255 125.7 27.0255V29.8255C125.7 30.0255 125.6 30.2255 125.4 30.2255H122.2V44.9255C122.2 45.2255 122.1 45.3255 121.8 45.3255H119C118.8 45.3255 118.6 45.2255 118.6 45.0255V30.2255H115.5C115.3 30.2255 115.1 30.0255 115.1 29.8255V27.1255Z" fill="#D7D7D7"/>
<path d="M129.3 44.8255V27.1255C129.3 27.0255 129.3 26.9255 129.4 26.8255C129.5 26.7255 129.6 26.7255 129.7 26.7255H136.1C137.1 26.6255 138.2 27.0255 139 27.7255C139.7 28.5255 140.1 29.5255 140 30.6255V36.0255C140.1 37.3255 139.6 38.5255 138.5 39.2255L139.9 44.9255C140 45.2255 139.9 45.4255 139.5 45.4255H136.9C136.7 45.4255 136.5 45.3255 136.4 45.0255L135.1 39.8255H132.7V45.0255C132.7 45.2255 132.6 45.4255 132.4 45.4255H129.7C129.6 45.4255 129.5 45.4255 129.4 45.3255C129.3 45.1255 129.2 45.0255 129.3 44.8255ZM132.7 36.2255H135.3C135.9 36.2255 136.3 35.8255 136.4 35.3255V31.2255C136.4 30.6255 136 30.2255 135.5 30.1255H132.8L132.7 36.2255Z" fill="#D7D7D7"/>
<path d="M142.9 44.8255L147.3 27.0255C147.3 26.8255 147.5 26.6255 147.8 26.6255H151.6C151.8 26.6255 152 26.7255 152.1 27.0255L156.5 44.8255C156.5 44.9255 156.5 44.9255 156.5 45.0255C156.5 45.2255 156.4 45.3255 156.1 45.3255H153.5C153.3 45.3255 153.1 45.1255 153.1 44.9255L152.3 41.6255H147.3L146.5 45.0255C146.5 45.2255 146.3 45.4255 146.1 45.4255H143.5C143.2 45.4255 143.1 45.3255 143.1 45.1255C142.9 44.9255 142.9 44.9255 142.9 44.8255ZM147.9 38.5255H151.4L149.6 31.3255L147.9 38.5255Z" fill="#D7D7D7"/>
<path d="M160 44.8255V27.1255C160 27.0255 160 26.9255 160.1 26.8255C160.2 26.7255 160.3 26.7255 160.4 26.7255H162.5C162.7 26.7255 162.9 26.8255 163 27.1255L168 37.3255V27.1255C168 26.9255 168.1 26.7255 168.3 26.7255H170.9C171 26.7255 171.1 26.7255 171.2 26.8255C171.3 26.9255 171.3 27.0255 171.3 27.1255V44.8255C171.3 44.9255 171.3 45.0255 171.2 45.1255C171.1 45.2255 171 45.2255 170.9 45.2255H168.8C168.6 45.2255 168.4 45.1255 168.3 44.9255L163.3 34.7255V44.8255C163.3 45.0255 163.2 45.2255 163 45.2255H160.4C160.3 45.2255 160.2 45.2255 160.1 45.1255C160 45.1255 160 45.0255 160 44.8255Z" fill="#D7D7D7"/>
<path d="M175.4 41.4255V39.7255C175.4 39.5255 175.5 39.3255 175.7 39.3255H178.5C178.7 39.3255 178.9 39.4255 178.9 39.6255V40.8255C178.8 41.3255 179.2 41.8255 179.7 41.9255C179.8 41.9255 179.9 41.9255 180 41.9255H181.4C181.9 42.0255 182.4 41.6255 182.5 41.1255C182.5 41.0255 182.5 40.9255 182.5 40.8255V38.1255L176.1 36.1255C175.6 36.0255 175.3 35.6255 175.4 35.1255V30.5255C175.3 29.5255 175.7 28.4255 176.4 27.6255C177.2 26.9255 178.2 26.5255 179.2 26.6255H182.2C183.2 26.5255 184.3 26.9255 185.1 27.6255C185.8 28.4255 186.2 29.4255 186.1 30.5255V32.3255C186.1 32.5255 186 32.7255 185.8 32.7255H183C182.8 32.7255 182.6 32.5255 182.6 32.3255V31.1255C182.7 30.6255 182.3 30.1255 181.8 30.1255C181.7 30.1255 181.6 30.1255 181.5 30.1255H180C179.7 30.1255 179.4 30.2255 179.2 30.4255C179 30.6255 178.9 30.9255 178.9 31.2255V33.4255L185.3 35.5255C185.7 35.6255 186 36.0255 186 36.5255V41.5255C186.2 43.4255 184.9 45.1255 183 45.3255C182.7 45.3255 182.4 45.3255 182.1 45.3255H179.1C177.2 45.5255 175.5 44.2255 175.3 42.3255C175.4 42.0255 175.4 41.7255 175.4 41.4255Z" fill="#D7D7D7"/>
<path d="M190.1 27.1255C190.1 26.9255 190.2 26.7255 190.4 26.7255H193.3C193.4 26.7255 193.5 26.7255 193.6 26.8255C193.7 26.9255 193.7 27.0255 193.7 27.1255V44.8255C193.7 44.9255 193.7 45.0255 193.6 45.1255C193.5 45.2255 193.4 45.2255 193.3 45.2255H190.5C190.3 45.2255 190.1 45.1255 190.1 44.9255V27.1255Z" fill="#D7D7D7"/>
<path d="M197 27.1255C197 27.0255 197 26.9255 197.1 26.8255C197.2 26.7255 197.3 26.7255 197.4 26.7255H207.2C207.4 26.7255 207.6 26.8255 207.6 27.0255V29.8255C207.6 30.0255 207.5 30.2255 207.3 30.2255H204.1V44.9255C204.1 45.2255 204 45.3255 203.7 45.3255H200.9C200.7 45.3255 200.5 45.2255 200.5 45.0255V30.2255H197.4C197.2 30.2255 197 30.0255 197 29.8255V27.1255Z" fill="#D7D7D7"/>
<path d="M115.6 68.3255V66.6255C115.6 66.4255 115.7 66.2255 115.9 66.2255H118.7C118.9 66.2255 119.1 66.3255 119.1 66.5255V67.7255C119 68.2255 119.4 68.7255 119.9 68.8255C120 68.8255 120.1 68.8255 120.2 68.8255H121.6C122.1 68.9255 122.6 68.5255 122.7 68.0255C122.7 67.9255 122.7 67.8255 122.7 67.7255V65.0255L116.3 62.9255C115.9 62.8255 115.6 62.4255 115.6 61.9255V57.3255C115.4 55.4255 116.7 53.7255 118.6 53.5255C118.9 53.5255 119.1 53.5255 119.4 53.5255H122.4C124.3 53.3255 126 54.6255 126.2 56.4255C126.2 56.7255 126.2 57.0255 126.2 57.3255V59.1255C126.2 59.3255 126.1 59.5255 125.9 59.5255H123.1C122.9 59.5255 122.7 59.3255 122.7 59.1255V58.0255C122.8 57.5255 122.4 57.0255 121.9 56.9255C121.8 56.9255 121.7 56.9255 121.6 56.9255H120.1C119.8 56.9255 119.5 57.0255 119.3 57.2255C119.1 57.4255 119 57.7255 119 58.0255V60.3255L125.4 62.4255C125.8 62.5255 126.1 63.0255 126.1 63.4255V68.4255C126.3 70.3255 125 72.0255 123.2 72.2255C122.9 72.2255 122.6 72.2255 122.3 72.2255H119.3C117.4 72.4255 115.7 71.1255 115.5 69.2255C115.6 68.9255 115.6 68.6255 115.6 68.3255Z" fill="#D7D7D7"/>
<path d="M129.3 54.1255C129.3 54.0255 129.2 53.9255 129.2 53.9255C129.2 53.8255 129.2 53.8255 129.3 53.7255C129.4 53.6255 129.6 53.5255 129.7 53.5255H132.4C132.7 53.5255 132.9 53.7255 133 53.9255L136 60.7255L139 53.9255C139.1 53.6255 139.3 53.5255 139.6 53.5255H142.3C142.5 53.5255 142.6 53.5255 142.7 53.7255C142.7 53.8255 142.8 53.8255 142.8 53.9255C142.8 54.0255 142.8 54.1255 142.7 54.1255L137.8 65.1255V71.5255C137.8 71.8255 137.7 72.0255 137.4 72.0255H134.7C134.4 72.0255 134.2 71.9255 134.2 71.6255V65.1255L129.3 54.1255Z" fill="#D7D7D7"/>
<path d="M145.7 68.3255V66.6255C145.7 66.4255 145.8 66.2255 146 66.2255H148.8C149 66.2255 149.2 66.3255 149.2 66.5255V67.7255C149.1 68.2255 149.5 68.7255 150 68.8255C150.1 68.8255 150.2 68.8255 150.3 68.8255H151.7C152.2 68.9255 152.7 68.5255 152.8 68.0255C152.8 67.9255 152.8 67.8255 152.8 67.7255V65.0255L146.4 62.9255C146 62.8255 145.7 62.4255 145.7 61.9255V57.3255C145.5 55.4255 146.8 53.7255 148.7 53.5255C149 53.5255 149.2 53.5255 149.5 53.5255H152.5C154.4 53.3255 156.1 54.6255 156.3 56.4255C156.3 56.7255 156.3 57.0255 156.3 57.3255V59.1255C156.3 59.3255 156.2 59.5255 156 59.5255H153.2C153.1 59.5255 153 59.5255 152.9 59.4255C152.8 59.3255 152.8 59.2255 152.8 59.1255V58.0255C152.9 57.5255 152.5 57.0255 152 56.9255C151.9 56.9255 151.8 56.9255 151.7 56.9255H150.2C149.9 56.9255 149.6 57.0255 149.4 57.2255C149.2 57.4255 149.1 57.7255 149.1 58.0255V60.3255L155.5 62.4255C155.9 62.5255 156.2 62.9255 156.2 63.4255V68.4255C156.4 70.3255 155.1 72.0255 153.3 72.2255C153 72.2255 152.7 72.2255 152.4 72.2255H149.4C147.5 72.4255 145.8 71.1255 145.6 69.2255C145.7 68.9255 145.7 68.6255 145.7 68.3255Z" fill="#D7D7D7"/>
<path d="M159.1 53.9255C159.1 53.8255 159.1 53.7255 159.2 53.6255C159.3 53.5255 159.4 53.5255 159.5 53.5255H169.3C169.5 53.5255 169.7 53.6255 169.7 53.8255V56.6255C169.7 56.8255 169.6 57.0255 169.4 57.0255H166.2V71.7255C166.2 72.0255 166.1 72.1255 165.8 72.1255H163C162.8 72.1255 162.6 72.0255 162.6 71.8255V57.1255H159.5C159.3 57.1255 159.1 56.9255 159.1 56.7255V53.9255Z" fill="#D7D7D7"/>
<path d="M173.3 71.7255V53.9255C173.3 53.8255 173.3 53.7255 173.4 53.6255C173.5 53.5255 173.6 53.5255 173.7 53.5255H183.5C183.7 53.5255 183.9 53.6255 183.9 53.8255V56.6255C183.9 56.9255 183.8 57.1255 183.5 57.1255H176.9V61.2255H181.9C182.2 61.2255 182.3 61.4255 182.3 61.7255V64.3255C182.3 64.6255 182.2 64.7255 181.9 64.7255H176.9V68.6255H183.5C183.6 68.6255 183.7 68.6255 183.8 68.7255C183.9 68.8255 183.9 68.9255 183.9 69.0255V71.7255C183.9 71.9255 183.8 72.1255 183.6 72.1255H173.7C173.6 72.1255 173.5 72.1255 173.4 72.0255C173.3 72.0255 173.3 71.8255 173.3 71.7255Z" fill="#D7D7D7"/>
<path d="M188 71.6255V54.1255C188 53.8255 188.1 53.6255 188.4 53.6255H192C192.3 53.6255 192.5 53.8255 192.6 54.1255L195.5 66.0255L198.4 54.1255C198.5 53.8255 198.7 53.6255 199 53.6255H202.5C202.8 53.6255 203 53.7255 203 54.0255V71.6255C203 71.9255 202.9 72.1255 202.6 72.1255H200C199.7 72.1255 199.5 72.0255 199.5 71.7255V61.2255H199.3L196.8 71.7255C196.7 72.0255 196.5 72.2255 196.2 72.1255H194.6C194.3 72.1255 194.1 71.9255 194 71.7255L191.5 61.2255H191.3V71.7255C191.3 72.0255 191.2 72.2255 190.9 72.2255H188.4C188.2 72.2255 188 72.0255 188 71.6255C188 71.7255 188 71.7255 188 71.6255Z" fill="#D7D7D7"/>
<path d="M207.2 68.3255V66.6255C207.2 66.4255 207.3 66.2255 207.5 66.2255H210.3C210.5 66.2255 210.7 66.3255 210.7 66.5255V67.7255C210.6 68.2255 211 68.7255 211.5 68.8255C211.6 68.8255 211.7 68.8255 211.8 68.8255H213.2C213.7 68.9255 214.2 68.5255 214.3 68.0255C214.3 67.9255 214.3 67.8255 214.3 67.7255V65.0255L207.9 62.9255C207.5 62.8255 207.2 62.4255 207.2 61.9255V57.3255C207 55.4255 208.3 53.7255 210.2 53.5255C210.5 53.5255 210.7 53.5255 211 53.5255H214C215.9 53.3255 217.6 54.6255 217.8 56.4255C217.8 56.7255 217.8 57.0255 217.8 57.3255V59.1255C217.8 59.3255 217.7 59.5255 217.5 59.5255H214.7C214.5 59.5255 214.3 59.3255 214.3 59.1255V58.0255C214.4 57.5255 214 57.0255 213.5 56.9255C213.4 56.9255 213.3 56.9255 213.2 56.9255H211.7C211.4 56.9255 211.1 57.0255 210.9 57.2255C210.7 57.4255 210.6 57.7255 210.6 58.0255V60.3255L217 62.4255C217.4 62.5255 217.7 62.9255 217.7 63.4255V68.4255C217.9 70.3255 216.6 72.0255 214.7 72.2255C214.4 72.2255 214.1 72.2255 213.8 72.2255H210.8C208.9 72.4255 207.2 71.1255 207 69.2255C207.1 68.9255 207.1 68.6255 207.2 68.3255Z" fill="#D7D7D7"/>
</svg>
