<svg width="385" height="165" viewBox="0 0 385 165" fill="none" xmlns="http://www.w3.org/2000/svg">
<path d="M197.726 38.425C198.326 38.425 198.526 38.725 198.526 39.225V44.425C198.526 44.925 198.226 45.225 197.726 45.225H191.726V73.925C191.726 74.525 191.426 74.725 190.926 74.725H185.526C185.026 74.725 184.726 74.425 184.726 73.925V45.325H178.726C178.226 45.325 177.926 45.025 177.926 44.525V39.325C177.926 38.825 178.226 38.525 178.726 38.525H197.726V38.425Z" fill="#D7D7D7"/>
<path d="M216.926 57.125C218.226 57.125 219.026 56.425 219.026 55.025V47.225C219.026 45.825 218.326 45.125 216.926 45.125H211.726V57.125H216.926ZM225.726 56.325C225.726 59.325 224.726 61.425 222.826 62.625L225.526 73.825C225.726 74.425 225.326 74.725 224.826 74.725H219.726C219.226 74.725 218.926 74.425 218.826 74.025L216.326 63.825H211.726V73.925C211.726 74.425 211.426 74.725 210.926 74.725H205.826C205.326 74.725 205.026 74.425 205.026 73.925V39.325C205.026 38.825 205.326 38.525 205.826 38.525H218.326C223.226 38.525 225.826 41.125 225.826 46.025V56.325H225.726Z" fill="#D7D7D7"/>
<path d="M244.326 47.425L241.026 61.525H247.526L244.326 47.425ZM251.726 74.825C251.226 74.825 251.026 74.525 250.926 74.125L249.226 67.625H239.426L237.826 74.125C237.726 74.625 237.426 74.825 237.026 74.825H231.926C231.326 74.825 231.126 74.525 231.226 73.925L239.826 39.225C239.926 38.725 240.226 38.525 240.726 38.525H247.926C248.426 38.525 248.726 38.725 248.826 39.225L257.427 73.925C257.627 74.525 257.327 74.825 256.727 74.825H251.726Z" fill="#D7D7D7"/>
<path d="M285.226 38.425C285.726 38.425 286.026 38.725 286.026 39.225V73.925C286.026 74.425 285.726 74.725 285.226 74.725H281.126C280.626 74.725 280.426 74.525 280.226 74.025L270.426 54.225V73.925C270.426 74.425 270.126 74.725 269.626 74.725H264.726C264.226 74.725 263.926 74.425 263.926 73.925V39.325C263.926 38.825 264.226 38.525 264.726 38.525H268.826C269.326 38.525 269.526 38.725 269.726 39.225L279.526 59.025V39.325C279.526 38.825 279.826 38.525 280.326 38.525H285.226V38.425Z" fill="#D7D7D7"/>
<path d="M306.826 38.425C311.726 38.425 314.326 41.025 314.326 45.925V49.325C314.326 49.825 314.026 50.125 313.526 50.125H308.326C307.826 50.125 307.526 49.825 307.526 49.325V47.125C307.526 45.725 306.826 45.025 305.426 45.025H302.526C301.226 45.025 300.426 45.725 300.426 47.125V51.525L313.026 55.525C313.926 55.825 314.426 56.425 314.426 57.425V67.225C314.426 72.125 311.826 74.725 306.926 74.725H301.126C296.326 74.725 293.626 72.125 293.626 67.225V63.825C293.626 63.225 293.926 63.025 294.426 63.025H299.626C300.226 63.025 300.426 63.325 300.426 63.825V66.125C300.426 67.525 301.226 68.225 302.526 68.225H305.326C306.626 68.225 307.426 67.525 307.426 66.125V60.925L294.926 56.925C294.026 56.625 293.526 56.025 293.526 55.025V46.025C293.526 41.125 296.126 38.525 301.026 38.525H306.826V38.425Z" fill="#D7D7D7"/>
<path d="M322.626 74.825C322.026 74.825 321.826 74.525 321.826 74.025V39.325C321.826 38.825 322.126 38.525 322.626 38.525H328.026C328.526 38.525 328.826 38.825 328.826 39.325V74.025C328.826 74.525 328.526 74.825 328.026 74.825H322.626Z" fill="#D7D7D7"/>
<path d="M354.726 38.425C355.326 38.425 355.526 38.725 355.526 39.225V44.425C355.526 44.925 355.226 45.225 354.726 45.225H348.726V73.925C348.726 74.525 348.426 74.725 347.926 74.725H342.526C342.026 74.725 341.726 74.425 341.726 73.925V45.325H335.726C335.226 45.325 334.926 45.025 334.926 44.525V39.325C334.926 38.825 335.226 38.525 335.726 38.525H354.726V38.425Z" fill="#D7D7D7"/>
<path d="M190.926 99.325L187.626 113.425H194.126L190.926 99.325ZM198.326 126.725C197.826 126.725 197.626 126.425 197.526 126.025L195.826 119.525H186.026L184.426 126.025C184.326 126.525 184.026 126.725 183.626 126.725H178.526C177.926 126.725 177.726 126.425 177.826 125.825L186.426 91.125C186.526 90.625 186.826 90.425 187.326 90.425H194.526C195.026 90.425 195.326 90.625 195.426 91.125L204.026 125.825C204.226 126.425 203.926 126.725 203.326 126.725H198.326Z" fill="#D7D7D7"/>
<path d="M229.826 103.425C229.826 103.925 229.526 104.225 229.026 104.225H224.126C223.526 104.225 223.326 103.925 223.326 103.425V99.125C223.326 97.725 222.626 97.025 221.226 97.025H217.926C216.526 97.025 215.826 97.725 215.826 99.125V117.925C215.826 119.325 216.526 120.025 217.926 120.025H221.226C222.526 120.025 223.326 119.325 223.326 117.925V113.525C223.326 113.025 223.626 112.725 224.126 112.725H229.026C229.526 112.725 229.826 113.025 229.826 113.525V119.125C229.826 124.025 227.226 126.625 222.326 126.625H216.526C211.626 126.625 209.026 124.025 209.026 119.125V97.725C209.026 92.825 211.626 90.225 216.526 90.225H222.326C227.126 90.225 229.826 92.825 229.826 97.725V103.425Z" fill="#D7D7D7"/>
<path d="M248.326 99.325L245.026 113.425H251.526L248.326 99.325ZM255.726 126.725C255.226 126.725 255.026 126.425 254.926 126.025L253.226 119.525H243.426L241.826 126.025C241.726 126.525 241.426 126.725 241.026 126.725H235.926C235.326 126.725 235.126 126.425 235.226 125.825L243.826 91.125C243.926 90.625 244.226 90.425 244.726 90.425H251.926C252.426 90.425 252.726 90.625 252.826 91.125L261.427 125.825C261.627 126.425 261.327 126.725 260.727 126.725H255.726Z" fill="#D7D7D7"/>
<path d="M278.826 119.825C280.126 119.825 280.926 119.125 280.926 117.725V99.325C280.926 97.925 280.226 97.225 278.826 97.225H274.026V119.825H278.826ZM266.926 91.225C266.926 90.725 267.226 90.425 267.726 90.425H280.226C285.126 90.425 287.726 93.025 287.726 97.925V119.225C287.726 124.125 285.126 126.725 280.226 126.725H267.726C267.126 126.725 266.926 126.425 266.926 125.925V91.225Z" fill="#D7D7D7"/>
<path d="M315.926 96.425C315.926 96.925 315.726 97.325 315.126 97.325H302.326V105.325H312.126C312.626 105.325 312.926 105.625 312.926 106.225V111.325C312.926 111.925 312.626 112.225 312.126 112.225H302.326V119.925H315.126C315.726 119.925 315.926 120.225 315.926 120.725V125.925C315.926 126.425 315.726 126.725 315.126 126.725H296.026C295.526 126.725 295.226 126.425 295.226 125.925V91.225C295.226 90.725 295.526 90.425 296.026 90.425H315.126C315.726 90.425 315.926 90.725 315.926 91.225V96.425Z" fill="#D7D7D7"/>
<path d="M351.926 90.325C352.626 90.325 352.926 90.725 352.926 91.325V125.625C352.926 126.325 352.526 126.625 351.926 126.625H347.126C346.426 126.625 346.126 126.225 346.126 125.625V105.225H345.726L340.826 125.825C340.626 126.425 340.326 126.725 339.726 126.725H336.626C336.026 126.725 335.626 126.425 335.526 125.825L330.626 105.225H330.226V125.625C330.226 126.325 329.826 126.625 329.226 126.625H324.426C323.726 126.625 323.426 126.225 323.426 125.625V91.325C323.426 90.625 323.826 90.325 324.426 90.325H331.326C331.926 90.325 332.326 90.625 332.426 91.225L338.226 114.425L344.026 91.225C344.226 90.625 344.526 90.325 345.126 90.325H351.926Z" fill="#D7D7D7"/>
<path d="M383.726 90.325C384.526 90.325 384.826 90.825 384.526 91.525L375.026 113.025V125.625C375.026 126.325 374.626 126.625 374.026 126.625H369.026C368.326 126.625 368.026 126.225 368.026 125.625V113.125L358.526 91.625C358.226 90.925 358.626 90.425 359.326 90.425H364.526C365.126 90.425 365.526 90.725 365.726 91.225L371.526 104.525L377.326 91.225C377.526 90.725 377.926 90.425 378.526 90.425H383.726V90.325Z" fill="#D7D7D7"/>
<path d="M0.626478 91.625L72.8265 163.825C73.3265 164.325 74.1265 163.925 74.1265 163.325V91.125C74.1265 90.725 73.8265 90.325 73.3265 90.325H1.12648C0.526478 90.325 0.126478 91.225 0.626478 91.625Z" fill="#D7D7D7"/>
<path d="M73.5265 0.225L0.226478 73.525C-0.273522 74.025 0.126478 74.825 0.726478 74.825H147.326C148.026 74.825 148.326 74.025 147.826 73.525L74.6265 0.225C74.3265 -0.075 73.8265 -0.075 73.5265 0.225Z" fill="#D7D7D7"/>
<path d="M90.7265 91.125V146.725C90.7265 147.425 91.5265 147.725 92.0265 147.225L147.626 91.625C148.126 91.125 147.726 90.325 147.126 90.325H91.5265C91.0265 90.325 90.7265 90.725 90.7265 91.125Z" fill="#D7D7D7"/>
</svg>
