<svg width="289" height="92" viewBox="0 0 289 92" fill="none" xmlns="http://www.w3.org/2000/svg">
<path d="M179.47 10.2832H161.006C160.961 10.2832 160.921 10.2436 160.921 10.1983V0.0848448C160.921 0.0395942 160.882 0 160.837 0H150.479C150.434 0 150.394 0.0395942 150.394 0.0848448V40.1994C150.394 49.4532 155.723 55.1943 164.293 55.1943H180.375C187.547 55.1887 193.357 49.374 193.368 42.2018V25.2724C193.368 16.0243 188.04 10.2775 179.47 10.2775V10.2832ZM182.847 24.2599V41.9473C182.864 42.7109 182.609 43.4575 182.128 44.0514C181.551 44.7302 180.708 45.1204 179.815 45.1204L173.213 45.1091H165.322C161.951 45.1091 160.927 44.1985 160.927 41.2176V20.5324C160.927 20.4872 160.967 20.4476 161.012 20.4476H178.457C181.868 20.4476 182.852 21.3073 182.852 24.2543L182.847 24.2599Z" fill="#D7D7D7"/>
<path d="M57.7547 10.368V44.9734C57.7547 45.0186 57.7152 45.0582 57.6699 45.0582L48.8851 44.9903C43.8054 44.9903 39.9758 40.8386 39.9758 35.335V10.368C39.9758 10.3228 39.9362 10.2832 39.8909 10.2832H29.5335C29.4883 10.2832 29.4487 10.3228 29.4487 10.368V35.3294C29.4487 46.84 37.6226 55.1943 48.8851 55.1943H68.2366C68.2818 55.1943 68.3214 55.1548 68.3214 55.1095V10.368C68.3214 10.3228 68.2818 10.2832 68.2366 10.2832H57.8396C57.7943 10.2832 57.7547 10.3228 57.7547 10.368Z" fill="#D7D7D7"/>
<path d="M226.392 10.368V44.9734C226.392 45.0186 226.352 45.0582 226.307 45.0582L217.522 44.9903C212.442 44.9903 208.613 40.8386 208.613 35.335V10.368C208.613 10.3228 208.573 10.2832 208.528 10.2832H198.171C198.125 10.2832 198.086 10.3228 198.086 10.368V35.3294C198.086 46.84 206.26 55.1943 217.522 55.1943H236.874C236.919 55.1943 236.959 55.1548 236.959 55.1095V10.368C236.959 10.3228 236.919 10.2832 236.874 10.2832H226.477C226.431 10.2832 226.392 10.3228 226.392 10.368Z" fill="#D7D7D7"/>
<path d="M125.324 10.2832H105.972C105.927 10.2832 105.887 10.3228 105.887 10.368V55.1152C105.887 55.1604 105.927 55.2 105.972 55.2H116.369C116.415 55.2 116.454 55.1604 116.454 55.1152V20.5098C116.454 20.4646 116.494 20.425 116.539 20.425L125.324 20.4928C130.404 20.4928 134.233 24.6446 134.233 30.1482V55.1095C134.233 55.1548 134.273 55.1943 134.318 55.1943H144.675C144.721 55.1943 144.76 55.1548 144.76 55.1095V30.1482C144.76 18.6376 136.586 10.2832 125.324 10.2832Z" fill="#D7D7D7"/>
<path d="M101.9 10.3963C101.916 10.3511 101.894 10.3058 101.849 10.2888C101.837 10.2888 101.826 10.2888 101.82 10.2888H94.0763C90.9991 10.2719 87.9614 10.9733 85.2066 12.3364C85.167 12.3591 85.1161 12.3364 85.0935 12.3025C85.0878 12.2912 85.0822 12.2799 85.0822 12.2629V10.2945C85.0822 10.2492 85.0426 10.2097 84.9973 10.2097H74.9171C74.8719 10.2097 74.8323 10.2492 74.8323 10.2945L74.8153 29.1244C74.7983 29.4638 74.7927 29.8088 74.7927 30.1538V55.2339C74.7927 55.2792 74.8323 55.3188 74.8775 55.3188H85.3141C85.3594 55.3188 85.399 55.2792 85.399 55.2339V34.1924C85.399 32.3428 85.3933 30.6346 85.3763 29.0565C85.3763 29.0565 85.3763 29.0508 85.3763 29.0452C85.8289 24.3052 89.1946 20.7983 93.6408 20.5098H98.1718C98.2057 20.5098 98.2396 20.4872 98.251 20.4532L101.905 10.3963H101.9Z" fill="#D7D7D7"/>
<path d="M25.144 45.2279C25.1609 45.1827 25.1383 45.1374 25.0931 45.1204C25.0817 45.1204 25.0761 45.1204 25.0648 45.1204H14.9167C11.5453 45.1148 10.5214 44.2098 10.5214 41.2289V20.5437C10.5214 20.4985 10.561 20.4589 10.6063 20.4589H21.4219C21.4558 20.4589 21.4897 20.4363 21.5011 20.4023L25.1327 10.402C25.1496 10.3567 25.127 10.3115 25.0817 10.2945C25.0704 10.2945 25.0648 10.2945 25.0535 10.2945H10.6063C10.561 10.2945 10.5214 10.2549 10.5214 10.2097V0.0848448C10.5214 0.0395942 10.4875 0 10.4366 0H0.0848503C0.0395968 0 0 0.0395942 0 0.0848448V40.1994C0 44.6566 1.26144 48.4068 3.64856 51.0483C6.10356 53.7633 9.6503 55.2 13.8985 55.2H21.4671C21.5011 55.2 21.535 55.1774 21.5463 55.1434L25.144 45.2279Z" fill="#D7D7D7"/>
<path d="M263.964 45.2279C263.981 45.1827 263.958 45.1374 263.913 45.1204C263.901 45.1204 263.896 45.1204 263.884 45.1204H257.306C253.934 45.1148 252.91 44.2098 252.91 41.2289V0.0848448C252.91 0.0395942 252.871 0 252.826 0H242.468C242.423 0 242.383 0.0395942 242.383 0.0848448V40.1994C242.383 49.4532 247.712 55.1943 256.282 55.1943H260.287C260.321 55.1943 260.355 55.1717 260.366 55.1378L263.964 45.2223V45.2279Z" fill="#D7D7D7"/>
<path d="M288.994 45.2279C289.011 45.1827 288.989 45.1374 288.943 45.1204C288.932 45.1204 288.926 45.1204 288.915 45.1204H282.336C278.965 45.1148 277.941 44.2098 277.941 41.2289V0.0848448C277.941 0.0395942 277.902 0 277.856 0H267.499C267.454 0 267.414 0.0395942 267.414 0.0848448V40.1994C267.414 49.4532 272.743 55.1943 281.313 55.1943H285.318C285.351 55.1943 285.385 55.1717 285.397 55.1378L288.994 45.2223V45.2279Z" fill="#D7D7D7"/>
<path d="M0.814563 69.8612H11.913V71.7956H2.94713V77.3954H10.199V78.9735H2.94713V84.6751H12.1336V86.6095H0.814563V69.8612Z" fill="#D7D7D7"/>
<path d="M14.8092 74.0299H16.8456L16.7947 77.418H16.8173C17.5018 75.229 19.261 73.8263 22.2647 73.8263C25.5739 73.8263 27.5311 75.7381 27.5311 78.7359V86.5982H25.4947V79.1658C25.4947 77.0277 24.2728 75.6532 21.5746 75.6532C18.701 75.6532 16.84 77.4124 16.84 80.4102V86.5926H14.8035V74.0186L14.8092 74.0299Z" fill="#D7D7D7"/>
<path d="M43.4207 87.9048C43.4207 90.3993 41.0562 92 37.0796 92C33.1029 92 30.4612 90.6481 30.4612 88.2555C30.4612 87.0055 31.4568 85.9647 33.035 85.9647V85.9421C32.3845 85.45 32.0055 84.6751 32.0168 83.8549C31.9659 83.0913 32.2997 82.356 32.9049 81.8978V81.8469C31.717 81.0663 31.0269 79.7314 31.0722 78.3117C31.0722 75.5854 33.1595 73.8319 36.4177 73.8319C37.6226 73.7923 38.8105 74.0921 39.8513 74.6973V74.6747C39.5402 74.2731 39.3649 73.781 39.3649 73.2776C39.3649 72.2595 40.253 71.5977 41.6841 71.5977C42.0688 71.5864 42.4591 71.6429 42.8324 71.7504V73.3794C42.5496 73.2719 42.2441 73.221 41.9443 73.2267C41.1015 73.2267 40.6433 73.6113 40.6433 74.3466C40.6716 74.8218 40.7847 75.2856 40.9714 75.7211C41.5201 76.4734 41.8086 77.3841 41.7859 78.3174C41.7859 81.0381 39.6986 82.7972 36.4121 82.7972C35.6258 82.8028 34.8452 82.684 34.0928 82.4408C33.8439 82.7406 33.7138 83.1196 33.7365 83.5099C33.7365 84.3527 34.2739 84.8844 35.3373 84.8844H39.4101C41.9613 84.8844 43.4094 85.9986 43.4094 87.9105L43.4207 87.9048ZM41.3843 88.1085C41.3843 87.1129 40.6489 86.6095 39.1216 86.6095H35.3769C33.6233 86.6095 32.5033 87.0677 32.5033 88.2159C32.5033 89.613 34.2852 90.2748 37.0626 90.2748C40.2926 90.2748 41.39 89.3076 41.39 88.1141L41.3843 88.1085ZM33.0633 78.3117C33.0633 79.9916 34.3644 81.0607 36.4234 81.0607C38.4824 81.0607 39.8117 79.9916 39.8117 78.3117C39.8117 76.6318 38.4881 75.5627 36.4234 75.5627C34.3587 75.5627 33.0633 76.6261 33.0633 78.3117Z" fill="#D7D7D7"/>
<path d="M46.3226 69.8612H48.5117V72.4291H46.3226V69.8612ZM46.4018 74.0299H48.4382V86.6039H46.4018V74.0299Z" fill="#D7D7D7"/>
<path d="M52.1263 74.0299H54.1628L54.1118 77.418H54.1345C54.8189 75.229 56.5782 73.8263 59.5819 73.8263C62.891 73.8263 64.8539 75.7381 64.8539 78.7359V86.5982H62.8175V79.1658C62.8175 77.0277 61.5956 75.6532 58.8974 75.6532C56.0238 75.6532 54.1628 77.4124 54.1628 80.4102V86.5926H52.1263V74.0186V74.0299Z" fill="#D7D7D7"/>
<path d="M79.6687 80.727H69.8205C69.9506 83.4024 71.5797 85.0823 74.046 85.0823C76.1616 85.0823 77.6097 84.0133 77.7907 82.356H79.6687C79.5443 85.0823 77.3269 86.8132 74.0177 86.8132C70.2221 86.8132 67.7784 84.3187 67.7784 80.4272C67.7784 76.5356 70.1995 73.8376 73.9668 73.8376C77.7342 73.8376 79.6687 76.0492 79.6687 79.7937V80.7326V80.727ZM77.7851 79.0979C77.7851 76.8807 76.4105 75.5571 74.0177 75.5571C71.7777 75.5571 70.2786 76.858 69.894 79.245H77.7851V79.0923V79.0979Z" fill="#D7D7D7"/>
<path d="M94.1046 80.727H84.2563C84.3864 83.4024 86.0099 85.0823 88.4819 85.0823C90.5975 85.0823 92.0456 84.0133 92.2266 82.356H94.1103C93.9802 85.0823 91.7684 86.8132 88.4592 86.8132C84.6636 86.8132 82.2256 84.3187 82.2256 80.4272C82.2256 76.5356 84.641 73.8376 88.4083 73.8376C92.1757 73.8376 94.1103 76.0492 94.1103 79.7937V80.7326L94.1046 80.727ZM92.2209 79.0979C92.2209 76.8807 90.8464 75.5571 88.4536 75.5571C86.2135 75.5571 84.7089 76.858 84.3299 79.245H92.2209V79.0923V79.0979Z" fill="#D7D7D7"/>
<path d="M97.1592 74.0299H99.1956L99.1447 77.6726H99.1673C99.75 75.4836 101.051 73.8263 103.749 73.8263C106.447 73.8263 108.077 75.7098 108.077 78.7359C108.077 79.4826 108.031 80.2292 107.947 80.9758H106.085C106.159 80.3763 106.193 79.771 106.187 79.1658C106.187 76.8524 105.322 75.6532 103.257 75.6532C100.689 75.6532 99.1843 77.8931 99.1843 81.0267V86.5982H97.1479V74.0242L97.1592 74.0299Z" fill="#D7D7D7"/>
<path d="M111.182 69.8612H113.371V72.4291H111.182V69.8612ZM111.261 74.0299H113.298V86.6039H111.261V74.0299Z" fill="#D7D7D7"/>
<path d="M116.986 74.0299H119.022L118.971 77.418H118.994C119.678 75.229 121.438 73.8263 124.441 73.8263C127.751 73.8263 129.713 75.7381 129.713 78.7359V86.5982H127.677V79.1658C127.677 77.0277 126.455 75.6532 123.757 75.6532C120.878 75.6532 119.022 77.4124 119.022 80.4102V86.5926H116.986V74.0186V74.0299Z" fill="#D7D7D7"/>
<path d="M145.597 87.9048C145.597 90.3993 143.227 92 139.256 92C135.285 92 132.638 90.6481 132.638 88.2555C132.638 87.0055 133.634 85.9647 135.206 85.9647V85.9421C134.556 85.45 134.177 84.6751 134.188 83.8549C134.137 83.0913 134.471 82.356 135.076 81.8978V81.8469C133.888 81.0663 133.198 79.7314 133.243 78.3117C133.243 75.5854 135.331 73.8319 138.589 73.8319C139.794 73.7923 140.982 74.0921 142.022 74.6973V74.6747C141.711 74.2731 141.536 73.781 141.536 73.2776C141.536 72.2595 142.43 71.5977 143.849 71.5977C144.24 71.5864 144.624 71.6429 144.998 71.7504V73.3794C144.715 73.2719 144.41 73.221 144.104 73.2267C143.267 73.2267 142.803 73.6113 142.803 74.3466C142.831 74.8218 142.944 75.2856 143.131 75.7211C143.68 76.4734 143.968 77.3841 143.946 78.3174C143.946 81.0381 141.858 82.7972 138.572 82.7972C137.786 82.8028 137.005 82.684 136.253 82.4408C136.004 82.7406 135.874 83.1196 135.896 83.5099C135.896 84.3527 136.434 84.8844 137.503 84.8844H141.576C144.127 84.8844 145.58 85.9986 145.58 87.9105L145.597 87.9048ZM143.561 88.1085C143.561 87.1129 142.826 86.6095 141.298 86.6095H137.554C135.8 86.6095 134.674 87.0677 134.674 88.2159C134.674 89.613 136.456 90.2748 139.228 90.2748C142.458 90.2748 143.55 89.3076 143.55 88.1141L143.561 88.1085ZM135.24 78.3117C135.24 79.9916 136.535 81.0607 138.6 81.0607C140.665 81.0607 141.988 79.9916 141.988 78.3117C141.988 76.6318 140.665 75.5627 138.6 75.5627C136.535 75.5627 135.24 76.6261 135.24 78.3117Z" fill="#D7D7D7"/>
</svg>
