<svg width="278" height="103" viewBox="0 0 278 103" fill="none" xmlns="http://www.w3.org/2000/svg">
<path d="M206.11 46.0859C203.567 46.0859 202.304 48.2668 202.304 50.7667C202.304 53.4491 203.121 56.5417 206.337 56.5417C209.554 56.5417 210.008 53.3579 210.008 50.7211C210.008 48.0844 208.737 46.0859 206.11 46.0859ZM177.299 46.0859C174.082 46.0859 173.356 49.133 173.356 51.9065C173.356 54.68 174.082 57.7727 177.299 57.7727C180.515 57.7727 181.242 54.7256 181.242 51.9065C181.242 49.0874 180.515 46.0859 177.299 46.0859ZM148.714 46.0859C145.316 46.0859 144.862 49.4066 144.862 51.9065C144.862 54.4065 145.316 57.7727 148.714 57.7727C152.112 57.7727 152.566 54.4065 152.566 51.9065C152.566 49.4066 152.119 46.0859 148.714 46.0859ZM235.558 45.3109C232.886 45.3109 231.343 46.7166 230.934 49.2698H239.493C239.493 47.089 237.866 45.3109 235.558 45.3109ZM263.522 0H14.4778C6.47832 0 0 6.51206 0 14.5363V88.4637C0 96.4955 6.47832 103 14.4778 103H263.522C271.514 103 278 96.4879 278 88.4561V14.5363C278 6.50446 271.514 0 263.522 0ZM60.6207 51.1771C60.6207 60.1815 55.7695 64.5051 45.9007 64.5051C36.0319 64.5051 31.1353 60.1815 31.1353 51.1771V31.2533H41.1025V48.9506C41.1025 52.2713 41.1025 56.4125 45.9461 56.4125C50.7897 56.4125 50.661 52.2713 50.661 48.9506V31.2533H60.6283V51.1771H60.6207ZM89.9775 63.7301H81.0092V51.3594C81.0092 48.6315 80.6914 46.7166 78.0652 46.7166C76.5289 46.7166 74.4855 47.4917 74.4855 51.2682V63.7301H65.5173V40.121H74.1676V43.1225H74.2585C75.931 40.7593 78.3377 39.5283 81.9174 39.5283C86.1329 39.5283 89.9775 42.1194 89.9775 47.5297V63.7301ZM95.0481 31.2533H104.016V37.5754H95.0481V31.2533ZM104.016 63.7301H95.0481V40.121H104.016V63.7301ZM132.768 63.7301H108.489V31.2533H118.456V55.4095H132.768V63.7301ZM148.714 64.3228C139.882 64.3228 135.901 58.4566 135.901 51.9065C135.901 45.3565 139.889 39.5359 148.714 39.5359C157.538 39.5359 161.534 45.3565 161.534 51.9065C161.534 58.4566 157.546 64.3228 148.714 64.3228ZM189.892 63.7301H181.242V61.1389H181.151C180.023 62.6359 178.661 64.3228 174.264 64.3228C167.604 64.3228 164.387 57.7271 164.387 51.8153C164.387 46.2683 166.514 39.5359 174.4 39.5359C177.071 39.5359 179.478 40.7213 180.833 42.7197H180.924V31.2533H189.892V63.7301ZM218.749 60.683C218.749 65.3714 217.531 71.967 206.519 71.967C200.949 71.967 195.061 70.4625 194.244 64.0948H203.129C203.212 64.3228 203.446 64.6419 203.628 64.9155C204.173 65.7361 205.119 66.6404 206.254 66.6404C209.153 66.6404 209.788 63.183 209.788 61.2301V59.0493H209.698C208.252 61.1389 206.073 62.3243 203.401 62.3243C196.469 62.3243 193.343 57.142 193.343 50.8199C193.343 44.4978 196.832 39.5435 203.537 39.5435C206.163 39.5435 208.653 40.5921 209.698 43.0009H209.788V40.1362H218.757V60.6982L218.749 60.683ZM235.46 58.5478C236.913 58.5478 238.494 58.0007 239.221 56.8685H247.599C245.79 61.9672 240.848 64.3304 235.505 64.3304C227.982 64.3304 222.321 59.8699 222.321 52.0053C222.321 45.1361 227.301 39.5435 234.733 39.5435C244.065 39.5435 248.098 44.7714 248.098 53.9582H230.881C231.108 56.6405 232.644 58.5554 235.452 58.5554L235.46 58.5478Z" fill="#D7D7D7"/>
</svg>
