<svg width="361" height="94" viewBox="0 0 361 94" fill="none" xmlns="http://www.w3.org/2000/svg">
<path d="M126.018 8.68254C126.018 8.68254 123.684 13.9627 126.786 17.9359C129.937 21.9704 135.57 20.9184 135.57 20.9184C135.57 20.9184 137.913 15.7343 134.763 11.6998C131.661 7.72664 126.018 8.68254 126.018 8.68254Z" fill="#D7D7D7"/>
<path d="M261.791 8.68254C261.791 8.68254 259.457 13.9627 262.559 17.9359C265.709 21.9704 271.342 20.9184 271.342 20.9184C271.342 20.9184 273.686 15.7343 270.536 11.6998C267.434 7.72664 261.791 8.68254 261.791 8.68254Z" fill="#D7D7D7"/>
<path d="M35.1141 55.9043C29.8912 49.2138 20.8582 50.0852 19.2958 50.2911C19.8446 48.958 23.0481 40.4005 17.6959 33.5452C11.9697 26.2109 1.55485 27.9753 1.55485 27.9753C1.55485 27.9753 -2.75333 37.7214 2.97286 45.0564C8.27667 51.8496 17.3009 50.8416 18.8626 50.6104C18.3146 51.9695 15.122 60.665 20.3918 67.4156C26.2068 74.8633 36.6036 72.9212 36.6036 72.9212C36.6036 72.9212 40.9291 63.3521 35.1141 55.9043Z" fill="#D7D7D7"/>
<path d="M53.437 27.9623C53.437 27.9623 57.7452 37.7084 52.019 45.0427C46.204 52.4904 35.8073 50.5483 35.8073 50.5483C35.8073 50.5483 31.4817 40.98 37.2967 33.5322C43.0229 26.1979 53.437 27.9623 53.437 27.9623Z" fill="#D7D7D7"/>
<path d="M94.8474 72.7954L92.8611 77.0554L70.16 27.6429H83.4022L96.4552 58.5018L109.982 27.6429H115.658L94.8466 72.8886L94.8474 72.7954Z" fill="#D7D7D7"/>
<path d="M125.129 31.7115L136.481 24.8034V72.9847H125.129V31.7115Z" fill="#D7D7D7"/>
<path d="M166.095 73.9305C155.5 73.9305 150.391 67.305 150.391 56.5149L150.487 33.7013H143.866V27.6429H150.487L157.96 13.3471H161.65V27.6429H177.541V33.7013H161.839L161.743 54.9051C161.743 61.1527 165.244 65.2213 170.353 65.2213C173.284 65.2213 175.555 64.3716 178.864 61.7206C179.243 63.3297 179.053 62.7625 179.905 66.5478C178.108 69.5766 173.38 73.9305 166.096 73.9305H166.095Z" fill="#D7D7D7"/>
<path d="M210.466 65.7913C207.44 70.8078 201.007 74.3091 194.764 74.3091C185.968 74.3091 183.223 67.779 183.223 63.519C183.223 55.9448 189.184 50.8351 195.049 49.0368C201.292 47.1423 205.831 47.3316 210.372 46.9538L210.466 41.3694C210.372 34.4585 207.156 30.7664 202.236 30.7664C198.075 30.7664 195.709 33.7952 194.952 37.6773L185.115 39.9496C186.156 32.4715 194.1 26.2239 203.843 26.2239H205.358C213.587 26.2239 221.249 30.0099 221.249 42.6938V71.9436L212.829 74.4984L210.465 65.792L210.466 65.7913ZM210.184 60.1116L210.277 50.1719C207.724 50.739 205.168 51.6855 200.913 53.2968C195.805 55.5669 194.479 59.0704 194.479 62.6671C194.479 65.5074 196.846 67.2118 199.306 67.2118C202.711 67.2118 208.102 65.0327 210.184 60.1116Z" fill="#D7D7D7"/>
<path d="M233.372 7.57419L244.724 0L244.631 72.9847H233.372L233.372 7.57419Z" fill="#D7D7D7"/>
<path d="M260.904 31.7115L272.256 24.8034V72.9847H260.904V31.7115Z" fill="#D7D7D7"/>
<path d="M301.87 73.9305C291.275 73.9305 286.166 67.305 286.166 56.5149L286.262 33.7013H279.641V27.6429H286.262L293.735 13.3471H297.425V27.6429H313.316V33.7013H297.614L297.518 54.9051C297.518 61.1527 301.019 65.2213 306.128 65.2213C309.059 65.2213 311.33 64.3716 314.639 61.7206C315.018 63.3297 314.828 62.7625 315.68 66.5478C313.883 69.5766 309.155 73.9305 301.871 73.9305H301.87Z" fill="#D7D7D7"/>
<path d="M318.34 94L318.433 91.1598C325.811 91.1598 332.338 78.6645 333.38 76.7708L335.65 71.565L315.502 27.6437H327.799L341.608 58.314L355.324 27.6437H361L337.825 79.7071C331.864 91.4452 327.23 94.0007 318.34 94.0007L318.34 94Z" fill="#D7D7D7"/>
</svg>
