<svg width="264" height="146" viewBox="0 0 264 146" fill="none" xmlns="http://www.w3.org/2000/svg">
<path fill-rule="evenodd" clip-rule="evenodd" d="M107.071 0H72.45C102.586 28.225 128.653 52.512 157.737 80.703H192.962L167.146 56.455C146.199 37.05 127.764 20.208 107.071 0Z" fill="#D7D7D7"/>
<path fill-rule="evenodd" clip-rule="evenodd" d="M70.881 80.703H101.884L127.875 52.032L133.627 45.707L140.425 49.614L120.21 30.87L125.863 38.032L70.881 80.703Z" fill="#D7D7D7"/>
<path fill-rule="evenodd" clip-rule="evenodd" d="M137.51 28.992C139.522 30.87 141.536 32.744 143.557 34.621L174.866 0L137.51 28.992Z" fill="#D7D7D7"/>
<path d="M37.665 144.855L23.059 124.269L37.09 104.603H28.982L18.919 119.037L8.913 104.603H0.575L14.663 124.384L0 144.855H8.108L18.746 129.617L29.327 144.855H37.665ZM88.143 104.603H58.298V144.856H88.43V138.531H65.371V127.72H85.555V121.394H65.371V110.929H88.143V104.603ZM138.275 132.435L116.711 104.603H110.156V144.856H117.114V116.219L139.31 144.856H145.233V104.603H138.275V132.435ZM203.934 138.415L199.391 133.815C197.666 135.425 195.921 136.7 194.158 137.639C192.395 138.578 190.286 139.048 187.833 139.048C185.916 139.048 184.143 138.675 182.514 137.927C180.884 137.18 179.476 136.154 178.288 134.851C177.099 133.547 176.179 132.023 175.528 130.279C174.876 128.535 174.55 126.666 174.55 124.673C174.55 122.68 174.876 120.82 175.528 119.095C176.18 117.37 177.1 115.865 178.288 114.581C179.476 113.297 180.885 112.281 182.514 111.533C184.143 110.785 185.916 110.412 187.833 110.412C190.133 110.412 192.184 110.872 193.986 111.792C195.788 112.712 197.494 113.92 199.104 115.415L203.647 110.182C202.689 109.262 201.673 108.419 200.599 107.652C199.526 106.885 198.357 106.224 197.091 105.668C195.826 105.112 194.436 104.681 192.922 104.374C191.408 104.067 189.73 103.914 187.89 103.914C184.823 103.914 182.025 104.46 179.495 105.553C176.965 106.646 174.78 108.141 172.94 110.039C171.1 111.937 169.672 114.15 168.656 116.681C167.64 119.211 167.132 121.914 167.132 124.789C167.132 127.702 167.649 130.425 168.685 132.955C169.72 135.485 171.147 137.68 172.969 139.539C174.79 141.398 176.946 142.865 179.438 143.938C181.93 145.011 184.652 145.548 187.603 145.548C189.481 145.548 191.197 145.385 192.75 145.059C194.303 144.733 195.731 144.254 197.034 143.622C198.338 142.99 199.555 142.242 200.686 141.38C201.817 140.517 202.9 139.53 203.935 138.418L203.934 138.415ZM263.843 124.672C263.843 121.835 263.325 119.152 262.29 116.621C261.255 114.091 259.818 111.887 257.978 110.008C256.138 108.129 253.933 106.644 251.365 105.551C248.796 104.458 245.96 103.912 242.854 103.912C239.748 103.912 236.912 104.468 234.344 105.579C231.776 106.691 229.552 108.196 227.673 110.093C225.794 111.991 224.338 114.204 223.303 116.735C222.268 119.265 221.75 121.949 221.75 124.785C221.75 127.621 222.268 130.305 223.303 132.835C224.338 135.365 225.775 137.57 227.616 139.448C229.456 141.326 231.66 142.812 234.229 143.904C236.798 144.997 239.635 145.543 242.74 145.543C245.845 145.543 248.682 144.987 251.25 143.876C253.818 142.764 256.042 141.26 257.92 139.362C259.799 137.464 261.255 135.251 262.29 132.72C263.325 130.189 263.843 127.506 263.843 124.67V124.672ZM256.425 124.787C256.425 126.742 256.09 128.592 255.419 130.336C254.748 132.08 253.818 133.594 252.63 134.878C251.441 136.163 250.014 137.179 248.346 137.926C246.679 138.674 244.848 139.047 242.854 139.047C240.86 139.047 239.02 138.663 237.334 137.897C235.647 137.13 234.2 136.095 232.993 134.792C231.785 133.488 230.846 131.965 230.175 130.221C229.504 128.477 229.169 126.627 229.169 124.672C229.169 122.717 229.504 120.867 230.175 119.123C230.846 117.379 231.776 115.864 232.964 114.58C234.152 113.296 235.58 112.28 237.248 111.532C238.916 110.784 240.746 110.411 242.74 110.411C244.734 110.411 246.574 110.795 248.26 111.561C249.947 112.327 251.394 113.362 252.602 114.666C253.81 115.969 254.749 117.493 255.42 119.238C256.091 120.982 256.426 122.832 256.426 124.787H256.425Z" fill="#D7D7D7"/>
</svg>
