<svg width="136" height="113" viewBox="0 0 136 113" fill="none" xmlns="http://www.w3.org/2000/svg">
<path d="M10.0145 66.2197H11.2225L12.3613 69.7541L13.549 66.2197H14.7571V71.2979H13.8732V67.4859L12.7518 71.0408H12.0208L10.8994 67.4859V71.2938H10.0145V66.2197ZM6.09451 66.2197H9.49146V67.0656H8.36492V71.2806H7.43514V67.0615H6.09451V66.2197Z" fill="#D7D7D7"/>
<path d="M18.7291 0V11.3145L47.2065 35.724L82.9702 35.7035L56.0883 11.3145L56.1342 0.0173457L18.7291 0Z" fill="#D7D7D7"/>
<path d="M82.9692 35.7035L56.0883 60.0926L56.1342 71.3887L18.7291 71.4071V60.0926L47.2055 35.724L82.9692 35.7035Z" fill="#D7D7D7"/>
<path d="M88.9434 0L75.6023 12.0706L94.8279 28.4643L127.041 0H88.9434Z" fill="#D7D7D7"/>
<path d="M75.6023 59.2223L94.8269 42.8296L127.041 71.2938H88.9434L75.6023 59.2223Z" fill="#D7D7D7"/>
<path d="M22.86 90.3955L17.0907 97.0491L11.3541 90.3955H0.334393L10.3519 101.394L0 113H10.3825L16.636 105.921L22.9508 113H33.5412L23.3147 101.303L33.0896 90.3955H22.86ZM35.882 90.3955V113H60.1683V106.529H44.5038V90.3955H35.882ZM78.8984 95.9257L82.6939 103.704H75.1956L78.8984 95.9257ZM73.2524 90.3955L62.0808 113H70.824L72.5571 109.354H85.4557L87.2174 113H96.6589L84.8491 90.3955H73.2524ZM124.648 90.3955L117.605 103.096L110.683 90.3955H98.8437V113H107.25V98.9031L115.144 113H119.545L127.469 98.9031V113H136V90.3955H124.648Z" fill="#D7D7D7"/>
</svg>
